<svg width="1000" height="750" viewBox="0 0 1000 750" fill="none" xmlns="http://www.w3.org/2000/svg">
<rect width="1000" height="750" fill="white"/>
<path d="M40.0357 96.9868H42.0707V127.547C43.8201 124.584 46.5334 122.942 50.0321 122.942C54.709 122.942 58.422 125.655 58.422 131.582V144.97H56.387V131.903C56.387 126.905 54.0307 124.727 49.9607 124.727C45.2838 124.727 42.035 127.762 42.035 132.688V144.934H40V96.9868H40.0357ZM62.4563 134.259C62.4563 140.614 67.3831 145.541 73.5594 145.541C79.7001 145.541 84.6269 140.614 84.6269 134.259C84.6269 127.904 79.7001 122.978 73.5594 122.978C67.3831 122.942 62.4563 127.904 62.4563 134.259ZM82.5562 134.259C82.5562 139.686 78.7719 143.792 73.5594 143.792C68.347 143.792 64.5627 139.65 64.5627 134.259C64.5627 128.868 68.347 124.727 73.5594 124.727C78.7362 124.727 82.5562 128.833 82.5562 134.259ZM89.2324 145.005H91.2674V78.4934H89.2324V145.005ZM97.6937 145.005H99.7287V131.974C99.7287 127.369 102.299 124.798 106.405 124.798C109.904 124.798 112.01 126.976 112.01 131.153V145.005H114.045V131.76C114.045 127.369 116.615 124.798 120.793 124.798C124.113 124.798 126.326 126.905 126.326 131.082V145.005H128.361V130.725C128.361 125.655 124.898 122.942 120.793 122.942C117.33 122.942 114.902 124.441 113.367 127.262C112.01 124.37 109.297 122.942 106.405 122.942C103.299 122.942 100.8 124.477 99.7287 126.798V123.477H97.6937V145.005ZM143.713 143.792C138.643 143.792 134.716 140.328 134.538 134.652H153.888C153.745 127.762 149.639 122.978 143.285 122.978C137.322 122.978 132.467 127.904 132.467 134.259C132.467 140.614 137.144 145.541 143.749 145.541C147.89 145.541 150.853 144.041 152.817 141.542L151.46 140.328C149.747 142.435 147.569 143.792 143.713 143.792ZM134.609 132.903C135.145 128.19 138.536 124.727 143.249 124.727C148.604 124.727 151.21 128.297 151.782 132.903H134.609ZM156.03 140.186C157.458 143.363 160.207 145.541 164.884 145.541C169.204 145.541 172.31 143.363 172.31 139.507C172.31 135.33 168.847 133.974 164.527 132.546C161.492 131.546 159.457 130.868 159.457 128.226C159.457 126.048 161.207 124.691 163.849 124.691C166.419 124.691 167.919 125.834 168.918 127.619L170.596 126.726C169.382 124.441 167.276 122.942 163.849 122.942C160.064 122.942 157.494 125.084 157.494 128.226C157.494 131.867 159.993 133.081 164.063 134.438C167.99 135.723 170.275 136.794 170.275 139.579C170.275 142.221 168.026 143.756 164.884 143.756C161.421 143.756 158.922 142.149 157.779 139.436L156.03 140.186ZM176.094 153.574C177.665 157.358 181.449 160 186.626 160C192.91 160 196.908 155.752 196.908 149.254V123.513H194.873V128.19C193.052 124.798 189.946 122.978 186.091 122.978C179.736 122.978 175.059 127.904 175.059 134.259C175.059 140.614 179.736 145.541 186.091 145.541C189.946 145.541 193.052 143.72 194.873 140.328V149.111C194.873 154.645 191.767 158.108 186.626 158.108C182.628 158.108 179.272 156.216 177.915 152.895L176.094 153.574ZM195.016 134.259C195.016 139.722 191.375 143.72 186.091 143.72C180.807 143.72 177.165 139.722 177.165 134.259C177.165 128.797 180.807 124.798 186.091 124.798C191.375 124.798 195.016 128.761 195.016 134.259ZM203.335 145.005H205.37V60H203.335V145.005ZM221.257 143.792C216.187 143.792 212.26 140.328 212.081 134.652H231.396C231.253 127.762 227.147 122.978 220.793 122.978C214.83 122.978 209.975 127.904 209.975 134.259C209.975 140.614 214.652 145.541 221.257 145.541C225.362 145.541 228.361 144.041 230.325 141.542L228.968 140.328C227.255 142.435 225.112 143.792 221.257 143.792ZM212.117 132.903C212.653 128.19 216.044 124.727 220.757 124.727C226.112 124.727 228.718 128.297 229.29 132.903H212.117ZM235.859 145.005H237.894V132.76C237.894 127.833 241.214 124.798 245.819 124.798C249.889 124.798 252.246 126.976 252.246 131.974V145.005H254.281V131.617C254.281 125.655 250.568 122.978 245.891 122.978C242.392 122.978 239.322 124.727 237.929 127.583V123.513H235.894V145.005H235.859Z" fill="#4393BC"/>
<path d="M477.019 227.271C476.883 234.478 476.747 243.723 476.475 252.289C475.931 269.421 474.708 264.662 474.708 264.662C469.949 263.71 470.357 266.566 470.357 267.381C470.357 268.197 470.085 269.693 468.317 270.781C466.55 271.732 444.523 276.899 436.365 279.482C428.207 281.93 414.611 286.96 405.501 299.469C401.422 305.044 399.655 311.978 398.839 318.097C396.663 315.921 393.4 315.649 393.4 315.649C393.4 315.649 388.913 273.908 390.681 271.596C392.313 269.285 406.181 272.004 412.028 272.684C418.01 273.364 414.339 269.421 412.028 265.614C410.532 263.166 405.501 255.96 401.966 250.93C429.431 232.302 475.524 227.679 475.524 227.679C475.931 227.407 476.475 227.271 477.019 227.271Z" fill="#E9EFF4"/>
<path d="M607.137 262.622L604.01 303.14L600.747 303.276C600.747 303.276 596.532 297.158 586.062 288.864C575.593 280.434 547.856 273.636 539.97 271.052C532.22 268.605 531.54 266.701 530.18 263.71C528.821 260.719 525.15 264.662 525.15 264.662L523.246 224.552C571.242 226.32 543.233 249.842 587.286 256.504C595.444 257.728 601.834 259.767 607.137 262.622Z" fill="#E9EFF4"/>
<path d="M607.546 256.776C606.73 266.43 603.739 306.403 603.739 306.403C603.739 306.403 614.208 328.158 628.485 328.158C641.401 328.158 649.967 306.403 649.967 306.403C649.559 303.412 645.752 255.552 645.752 255.552C645.752 255.552 669.274 262.215 670.906 261.399C672.538 260.583 650.783 233.254 640.722 224.824C633.108 218.57 610.945 204.021 608.226 247.122C608.226 247.122 604.555 241.004 599.524 244.267C594.493 247.666 597.892 258.544 607.546 256.776Z" stroke="#0A0A0A" stroke-width="2" stroke-miterlimit="10" stroke-linecap="round" stroke-linejoin="round"/>
<path d="M605.099 252.289C605.099 252.289 606.594 251.745 607.682 254.464" stroke="#0A0A0A" stroke-width="2" stroke-miterlimit="10" stroke-linecap="round" stroke-linejoin="round"/>
<path d="M603.739 304.5C603.739 304.5 598.436 301.237 598.572 304.5C598.708 307.763 583.48 317.417 583.752 319.864C584.024 322.447 547.041 336.588 531.949 363.373" stroke="#0A0A0A" stroke-width="2" stroke-miterlimit="10" stroke-linecap="round" stroke-linejoin="round"/>
<path d="M703.129 346.785C718.901 360.11 739.024 380.233 756.02 406.474C756.02 406.474 762.546 416.128 762.546 424.15C762.546 432.172 757.651 440.058 756.835 431.628C754.66 407.834 769.208 358.342 766.897 350.728C764.721 343.114 771.384 344.202 771.384 344.202C780.086 349.505 798.033 346.241 798.033 346.241C804.695 350.184 797.897 353.176 798.985 361.062C800.072 368.948 807.007 463.036 779.134 467.115C745.686 472.01 710.743 437.338 710.743 437.338" stroke="#0A0A0A" stroke-width="2" stroke-miterlimit="10" stroke-linecap="round" stroke-linejoin="round"/>
<path d="M649.695 303.14C649.695 303.14 657.445 299.469 655.95 304.908C654.454 310.346 664.516 316.737 668.051 321.088" stroke="#0A0A0A" stroke-width="2" stroke-miterlimit="10" stroke-linecap="round" stroke-linejoin="round"/>
<path d="M583.752 320C583.752 320 591.23 344.202 612.033 355.623C612.033 355.623 626.309 332.373 628.893 333.461C631.476 334.412 645.48 355.623 645.48 355.623C645.48 355.623 654.998 351.952 663.836 331.965" stroke="#0A0A0A" stroke-width="2" stroke-miterlimit="10" stroke-linecap="round" stroke-linejoin="round"/>
<path d="M628.757 333.324C628.757 333.324 622.231 335.364 626.038 340.667C629.845 345.969 625.222 376.562 626.854 398.996" stroke="#0A0A0A" stroke-width="2" stroke-miterlimit="10" stroke-linecap="round" stroke-linejoin="round"/>
<path d="M771.521 344.202C771.521 344.202 774.24 333.869 772.337 330.877C770.433 327.75 763.907 319.456 761.46 314.561C758.468 308.851 753.166 301.917 754.797 299.469C756.429 297.022 760.644 299.061 764.995 304.364C768.666 308.579 770.297 309.259 771.657 307.899C773.153 306.675 770.297 291.991 768.802 287.776C766.626 281.522 762.275 274.587 766.218 274.18C770.161 273.772 775.464 286.552 776.688 290.088C776.688 290.088 776.552 280.026 775.464 273.092C774.104 264.662 776.96 263.846 779.679 266.565C782.398 269.285 783.486 283.969 784.302 289C784.302 289 786.341 280.434 785.526 273.092C784.71 265.75 791.1 267.245 792.188 276.899C793.548 289 792.324 297.838 793.14 297.838C793.955 297.838 794.771 289.272 795.043 282.881C795.315 276.491 799.802 276.899 800.346 284.921C800.89 292.127 800.482 299.877 799.53 319.864C798.578 339.851 798.034 346.377 798.034 346.377" stroke="#0A0A0A" stroke-width="2" stroke-miterlimit="10" stroke-linecap="round" stroke-linejoin="round"/>
<path d="M702.858 386.351C702.858 386.351 706.665 389.75 705.577 394.781C704.625 398.996 709.248 473.913 710.608 516.878C710.744 520.549 712.783 523.812 715.775 525.988C717.678 527.348 718.63 529.523 714.143 532.786C705.441 539.313 719.99 540.264 705.441 543.935C699.187 545.567 659.893 553.181 633.107 551.685" stroke="#0A0A0A" stroke-width="2" stroke-miterlimit="10" stroke-linecap="round" stroke-linejoin="round"/>
<path d="M613.665 224.144C613.665 224.144 621.823 238.964 608.226 247.122C608.226 247.122 604.691 242.364 602.108 243.315C602.108 243.315 595.445 241.276 593.814 234.478C592.182 227.679 602.244 233.934 602.244 233.934C602.244 233.934 594.222 230.263 597.213 225.232C600.204 220.201 606.323 225.504 606.323 225.504C606.323 225.504 604.827 216.938 613.665 224.144Z" fill="#0A0A0A" stroke="#0A0A0A" stroke-width="2" stroke-miterlimit="10" stroke-linecap="round" stroke-linejoin="round"/>
<path d="M769.889 308.443C769.889 308.443 781.038 310.21 784.029 317.417" stroke="#0A0A0A" stroke-width="2" stroke-miterlimit="10" stroke-linecap="round" stroke-linejoin="round"/>
<path d="M481.913 187.705C481.913 187.705 452.001 212.315 449.418 214.898C446.834 217.482 476.611 213.267 477.155 214.898C477.698 216.53 476.339 261.671 475.795 267.245" stroke="#0A0A0A" stroke-width="2" stroke-miterlimit="10" stroke-linecap="round" stroke-linejoin="round"/>
<path d="M522.839 212.859C522.839 212.859 525.014 261.263 525.422 268.605" stroke="#0A0A0A" stroke-width="2" stroke-miterlimit="10" stroke-linecap="round" stroke-linejoin="round"/>
<path d="M474.571 264.934C474.571 264.934 468.997 263.03 470.356 268.605C471.716 274.179 417.194 274.451 402.237 304.228" stroke="#0A0A0A" stroke-width="2" stroke-miterlimit="10" stroke-linecap="round" stroke-linejoin="round"/>
<path d="M525.286 264.662C525.286 264.662 530.045 261.263 530.589 264.662C531.133 268.061 535.756 270.101 552.887 274.996C576.409 281.658 596.532 292.263 601.155 304.228" stroke="#0A0A0A" stroke-width="2" stroke-miterlimit="10" stroke-linecap="round" stroke-linejoin="round"/>
<path d="M474.572 268.605C474.572 268.605 499.182 292.671 525.287 270.237" stroke="#0A0A0A" stroke-width="2" stroke-miterlimit="10" stroke-linecap="round" stroke-linejoin="round"/>
<path d="M390.545 234.885C390.545 234.885 414.611 267.381 415.155 271.324C415.699 275.267 391.089 267.381 390.545 271.324C390.001 275.267 393.536 317.553 393.536 317.553" stroke="#0A0A0A" stroke-width="2" stroke-miterlimit="10" stroke-linecap="round" stroke-linejoin="round"/>
<path d="M347.308 320.136L351.523 271.324" stroke="#0A0A0A" stroke-width="2" stroke-miterlimit="10" stroke-linecap="round" stroke-linejoin="round"/>
<path d="M351.523 260.583C351.523 260.583 348.259 254.601 343.093 257.048C338.742 259.224 339.15 272.82 351.523 271.324" stroke="#0A0A0A" stroke-width="2" stroke-miterlimit="10" stroke-linecap="round" stroke-linejoin="round"/>
<path d="M347.852 265.206C347.852 265.206 349.755 263.846 351.115 266.43" stroke="#0A0A0A" stroke-width="2" stroke-miterlimit="10" stroke-linecap="round" stroke-linejoin="round"/>
<path d="M267.496 369.9C265.456 373.979 262.737 380.369 262.329 387.847" stroke="#0A0A0A" stroke-width="2" stroke-miterlimit="10" stroke-linecap="round" stroke-linejoin="round"/>
<path d="M347.579 317.553C347.579 317.553 341.325 315.649 340.237 320.136C339.421 323.127 317.259 328.294 296.32 341.347" stroke="#0A0A0A" stroke-width="2" stroke-miterlimit="10" stroke-linecap="round" stroke-linejoin="round"/>
<path d="M393.264 314.697C393.264 314.697 397.343 315.921 400.606 320.136C404.005 324.351 448.874 327.886 467.093 365.548C468.997 369.355 473.212 379.009 473.212 379.009" stroke="#0A0A0A" stroke-width="2" stroke-miterlimit="10" stroke-linecap="round" stroke-linejoin="round"/>
<path d="M231.873 351.136C227.794 351.408 224.803 351.136 223.987 351C223.851 346.785 223.851 343.794 223.715 342.298C223.715 342.298 226.298 342.706 230.241 342.706C229.697 343.658 229.425 344.746 229.425 345.833C229.561 348.009 230.513 349.912 231.873 351.136Z" fill="#0A0A0A" stroke="#0A0A0A" stroke-width="2" stroke-miterlimit="10" stroke-linecap="round" stroke-linejoin="round"/>
<path d="M242.614 349.504C243.294 348.417 243.566 347.193 243.566 345.969C243.566 344.338 243.022 342.706 242.07 341.618C243.838 341.211 245.605 340.667 247.373 339.987C247.781 342.434 248.597 345.154 249.277 346.921C247.101 348.009 244.926 348.825 242.614 349.504Z" fill="#0A0A0A" stroke="#0A0A0A" stroke-width="2" stroke-miterlimit="10" stroke-linecap="round" stroke-linejoin="round"/>
<path d="M223.987 351C224.939 378.33 229.29 454.606 250.365 468.475C276.742 485.879 308.966 409.058 308.966 409.058" stroke="#0A0A0A" stroke-width="2" stroke-miterlimit="10" stroke-linecap="round" stroke-linejoin="round"/>
<path d="M223.851 342.298C223.851 341.619 223.851 341.347 223.851 341.347C223.851 341.347 212.974 315.513 213.11 294.302C213.11 286.28 216.917 285.057 218.14 291.447C219.364 297.838 221.268 306.131 222.219 305.995C223.035 305.859 220.588 297.294 220.18 285.057C219.908 275.403 226.026 272.956 226.162 280.434C226.434 287.776 229.697 296.07 229.697 296.07C229.833 290.903 228.746 276.219 231.057 273.092C233.369 269.965 236.224 270.372 236.088 278.938C235.952 285.873 237.312 295.934 237.312 295.934C237.991 292.263 241.391 278.802 245.47 278.666C249.413 278.53 246.149 286.008 244.926 292.535C244.11 297.022 243.43 311.842 245.062 312.93C246.693 314.017 248.189 313.202 251.18 308.443C254.851 302.732 258.658 299.877 260.698 302.188C262.737 304.5 258.386 312.114 256.211 318.096C254.443 323.399 249.141 332.509 247.781 335.772C247.373 336.724 247.373 338.219 247.645 339.851" stroke="#0A0A0A" stroke-width="2" stroke-miterlimit="10" stroke-linecap="round" stroke-linejoin="round"/>
<path d="M249.276 346.785C249.684 348.009 250.092 348.961 250.092 348.961C250.092 348.961 276.198 426.461 273.478 440.602" stroke="#0A0A0A" stroke-width="2" stroke-miterlimit="10" stroke-linecap="round" stroke-linejoin="round"/>
<path d="M223.987 351C223.851 351 223.851 351 223.851 351" stroke="#0A0A0A" stroke-width="2" stroke-miterlimit="10" stroke-linecap="round" stroke-linejoin="round"/>
<path d="M243.566 345.833C243.566 347.193 243.158 348.417 242.614 349.369C241.391 351.408 239.079 352.768 236.632 352.768C234.864 352.768 233.233 352.088 232.009 351C230.513 349.776 229.562 347.873 229.562 345.697C229.562 344.61 229.833 343.522 230.377 342.57C231.465 340.259 233.912 338.627 236.632 338.627C238.807 338.627 240.847 339.715 242.07 341.211C243.022 342.706 243.566 344.202 243.566 345.833Z" stroke="#0A0A0A" stroke-width="2" stroke-miterlimit="10" stroke-linecap="round" stroke-linejoin="round"/>
<path d="M246.556 313.202C246.556 313.202 235.815 316.601 233.775 324.215" stroke="#0A0A0A" stroke-width="2" stroke-miterlimit="10" stroke-linecap="round" stroke-linejoin="round"/>
<path d="M355.33 539.721C362.944 539.993 370.286 539.993 376.405 539.449" stroke="#0A0A0A" stroke-width="2" stroke-miterlimit="10" stroke-linecap="round" stroke-linejoin="round"/>
<path d="M308.83 379.281C308.83 379.281 307.334 376.29 308.83 385.127C309.646 390.158 306.11 449.439 303.255 501.786C303.119 505.185 298.36 511.983 298.224 515.383C298.088 518.646 302.303 518.646 302.167 521.773C302.167 521.773 289.115 525.852 302.167 531.563C304.479 532.514 307.606 533.466 311.141 534.418" stroke="#0A0A0A" stroke-width="2" stroke-miterlimit="10" stroke-linecap="round" stroke-linejoin="round"/>
<path d="M430.655 381.593C430.655 381.593 431.199 385.536 430.655 387.847C430.383 389.071 433.238 429.316 435.957 467.659" stroke="#0A0A0A" stroke-width="2" stroke-miterlimit="10" stroke-linecap="round" stroke-linejoin="round"/>
<path d="M347.852 322.176C347.852 322.176 373.005 335.636 393.4 320.136" stroke="#0A0A0A" stroke-width="2" stroke-miterlimit="10" stroke-linecap="round" stroke-linejoin="round"/>
<path d="M478.651 271.868C478.651 271.868 475.796 273.364 474.708 276.763" stroke="#0A0A0A" stroke-width="2" stroke-miterlimit="10" stroke-linecap="round" stroke-linejoin="round"/>
<path d="M489.392 277.579C489.392 277.579 486.944 284.105 487.76 285.601" stroke="#0A0A0A" stroke-width="2" stroke-miterlimit="10" stroke-linecap="round" stroke-linejoin="round"/>
<path d="M502.444 281.522V287.504" stroke="#0A0A0A" stroke-width="2" stroke-miterlimit="10" stroke-linecap="round" stroke-linejoin="round"/>
<path d="M513.457 277.579C513.457 277.579 514.817 280.842 515.497 282.474" stroke="#0A0A0A" stroke-width="2" stroke-miterlimit="10" stroke-linecap="round" stroke-linejoin="round"/>
<path d="M524.063 271.868C524.063 271.868 526.919 274.452 527.327 276.763" stroke="#0A0A0A" stroke-width="2" stroke-miterlimit="10" stroke-linecap="round" stroke-linejoin="round"/>
<path d="M338.47 323.807C338.47 323.807 350.571 354.399 354.242 355.759C357.913 357.119 368.654 334.684 370.422 335.636C372.189 336.588 383.202 356.303 387.281 355.623C391.36 354.943 399.11 329.654 400.198 326.526" stroke="#0A0A0A" stroke-width="2" stroke-miterlimit="10" stroke-linecap="round" stroke-linejoin="round"/>
<path d="M653.366 396.685C653.366 396.685 662.068 397.501 675.257 396.685" stroke="#0A0A0A" stroke-width="2" stroke-miterlimit="10" stroke-linecap="round" stroke-linejoin="round"/>
<path d="M645.751 255.552C645.751 255.552 637.865 252.153 631.339 254.464C624.949 256.776 624.677 274.723 626.716 277.579C628.756 280.434 647.655 279.346 647.383 277.579C647.111 275.811 645.751 255.552 645.751 255.552Z" fill="#0A0A0A" stroke="#0A0A0A" stroke-width="2" stroke-miterlimit="10" stroke-linecap="round" stroke-linejoin="round"/>
<path d="M226.842 252.153C226.842 252.153 210.934 251.473 198.697 271.732" stroke="#0A0A0A" stroke-width="2" stroke-miterlimit="10" stroke-linecap="round" stroke-linejoin="round"/>
<path d="M218.82 240.46C218.82 240.46 204.816 244.131 198.697 256.368" stroke="#0A0A0A" stroke-width="2" stroke-miterlimit="10" stroke-linecap="round" stroke-linejoin="round"/>
<path d="M508.563 228.495C501.357 222.376 494.83 226.591 494.83 226.591C495.918 233.662 504.212 233.934 508.427 228.631C508.427 228.631 508.427 228.631 508.563 228.495ZM508.563 228.495C511.826 224.28 512.778 218.433 510.738 217.074C508.699 215.714 507.611 217.618 502.581 220.473C497.55 223.192 494.015 221.425 494.015 221.425" stroke="#0A0A0A" stroke-width="2" stroke-miterlimit="10" stroke-linecap="round" stroke-linejoin="round"/>
<path d="M496.462 221.969C496.462 221.969 497.414 223.056 496.734 225.776C496.734 225.776 503.532 223.192 508.291 228.767C508.291 228.767 510.874 225.64 511.554 221.697C512.098 217.754 510.602 216.394 508.835 216.802C507.067 217.21 501.221 222.92 496.462 221.969Z" fill="#0A0A0A"/>
<path d="M506.116 199.262C506.116 199.262 505.708 204.157 506.524 204.837C507.339 205.517 507.339 200.758 506.66 199.806" stroke="#0A0A0A" stroke-width="2" stroke-miterlimit="10" stroke-linecap="round" stroke-linejoin="round"/>
<path d="M489.936 200.758C489.936 200.758 489.528 205.653 490.344 206.333C491.296 207.012 491.16 202.254 490.48 201.302" stroke="#0A0A0A" stroke-width="2" stroke-miterlimit="10" stroke-linecap="round" stroke-linejoin="round"/>
<path d="M626.445 241.14C626.445 241.14 626.989 244.947 626.309 245.491C625.629 246.034 625.493 242.363 626.037 241.548" stroke="#0A0A0A" stroke-width="2" stroke-miterlimit="10" stroke-linecap="round" stroke-linejoin="round"/>
<path d="M639.09 241.684C639.09 241.684 639.634 245.491 638.954 246.035C638.274 246.579 638.138 242.908 638.682 242.092" stroke="#0A0A0A" stroke-width="2" stroke-miterlimit="10" stroke-linecap="round" stroke-linejoin="round"/>
<path d="M370.15 262.486C370.15 262.486 370.694 266.293 370.014 266.837C369.334 267.381 369.198 263.71 369.742 262.894" stroke="#0A0A0A" stroke-width="2" stroke-miterlimit="10" stroke-linecap="round" stroke-linejoin="round"/>
<path d="M382.794 262.895C382.794 262.895 383.338 266.702 382.658 267.245C381.978 267.789 381.843 264.118 382.386 263.302" stroke="#0A0A0A" stroke-width="2" stroke-miterlimit="10" stroke-linecap="round" stroke-linejoin="round"/>
<path d="M499.861 397.772C499.861 397.772 500.405 401.579 499.725 402.123C499.045 402.667 498.909 398.996 499.453 398.18" stroke="#0A0A0A" stroke-width="2" stroke-miterlimit="10" stroke-linecap="round" stroke-linejoin="round"/>
<path d="M515.362 398.18C515.362 398.18 515.906 401.987 515.226 402.531C514.546 403.075 514.41 399.404 514.954 398.588" stroke="#0A0A0A" stroke-width="2" stroke-miterlimit="10" stroke-linecap="round" stroke-linejoin="round"/>
<path d="M392.176 237.061C384.562 251.881 371.238 235.293 371.238 235.293C371.238 235.293 365.663 268.061 351.523 260.447C351.523 260.447 348.259 254.464 343.093 256.912C338.742 259.087 339.15 272.684 351.523 271.188L347.58 317.417C347.58 317.417 341.325 315.513 340.237 320C339.558 322.991 318.347 327.886 297.952 340.123C294.417 342.162 277.557 314.561 299.72 295.662C314.676 282.745 335.207 280.978 330.72 263.302C326.233 245.627 337.79 241.956 347.851 244.811C358.049 247.802 357.913 226.319 370.422 223.872C383.067 221.425 392.176 237.061 392.176 237.061Z" fill="#0A0A0A" stroke="#0A0A0A" stroke-width="2" stroke-miterlimit="10" stroke-linecap="round" stroke-linejoin="round"/>
<path d="M377.356 282.882C377.356 282.882 374.365 284.649 370.286 279.21C370.286 279.21 368.654 289.544 374.365 284.785" stroke="#0A0A0A" stroke-width="2" stroke-miterlimit="10" stroke-linecap="round" stroke-linejoin="round"/>
<path d="M227.794 402.123C227.794 402.123 248.461 406.746 264.233 394.509" stroke="#0A0A0A" stroke-width="2" stroke-miterlimit="10" stroke-linecap="round" stroke-linejoin="round"/>
<path d="M286.259 348.281C286.259 348.281 287.075 358.342 291.833 365.548C293.193 367.588 296.456 367.588 297.544 365.276C298.088 364.325 298.224 362.965 297.68 361.197C296.048 355.895 294.825 348.824 294.281 345.833" stroke="#0A0A0A" stroke-width="2" stroke-miterlimit="10" stroke-linecap="round" stroke-linejoin="round"/>
<path d="M275.653 351C275.653 351 281.364 367.996 288.298 371.259C289.522 371.803 294.009 370.579 292.513 366.636" stroke="#0A0A0A" stroke-width="2" stroke-miterlimit="10" stroke-linecap="round" stroke-linejoin="round"/>
<path d="M268.991 358.206C268.991 358.206 274.022 370.579 280.276 373.026C286.531 375.61 286.259 370.171 286.259 370.171" stroke="#0A0A0A" stroke-width="2" stroke-miterlimit="10" stroke-linecap="round" stroke-linejoin="round"/>
<path d="M277.421 371.259C277.421 371.259 276.741 378.873 266.408 367.996C264.912 366.364 261.513 359.158 264.232 357.119C266.952 355.079 267.632 348.281 271.575 347.193C275.518 346.105 277.421 340.667 282.86 341.89C282.86 341.89 287.483 335.908 291.969 337.947" stroke="#0A0A0A" stroke-width="2" stroke-miterlimit="10" stroke-linecap="round" stroke-linejoin="round"/>
<path d="M683.006 329.518C683.006 329.518 676.751 346.785 671.585 347.329C670.225 347.465 667.37 346.649 669.545 340.939C672.265 334.004 674.576 329.382 675.12 326.39" stroke="#0A0A0A" stroke-width="2" stroke-miterlimit="10" stroke-linecap="round" stroke-linejoin="round"/>
<path d="M691.165 334.14C689.262 339.035 686.678 347.465 680.016 352.904C679.064 353.719 673.49 354.399 675.937 348.417C676.617 346.649 679.472 340.939 680.424 337.812C681.376 335.228 682.191 332.509 682.327 331.149" stroke="#0A0A0A" stroke-width="2" stroke-miterlimit="10" stroke-linecap="round" stroke-linejoin="round"/>
<path d="M698.236 337.676C698.236 337.676 693.885 348.825 687.63 352.632C682.056 356.031 682.599 350.456 682.599 350.456" stroke="#0A0A0A" stroke-width="2" stroke-miterlimit="10" stroke-linecap="round" stroke-linejoin="round"/>
<path d="M671.042 337.267C667.914 342.162 665.467 334.548 664.923 330.605C664.651 328.158 666.691 325.302 668.05 323.399C669.954 320.407 672.129 319.728 674.441 320.136C677.024 320.679 679.471 320.679 681.647 321.631C683.142 322.311 684.23 323.807 685.726 323.943C692.796 324.486 692.66 328.837 696.603 329.925C700.546 331.013 699.73 334.276 702.722 336.859C705.305 339.171 701.634 345.153 700.682 346.377C689.669 359.294 694.428 345.425 694.428 345.425" stroke="#0A0A0A" stroke-width="2" stroke-miterlimit="10" stroke-linecap="round" stroke-linejoin="round"/>
<path d="M529.365 410.009C529.637 423.47 531.677 455.014 531.269 457.733" stroke="#0A0A0A" stroke-width="2" stroke-miterlimit="10" stroke-linecap="round" stroke-linejoin="round"/>
<path d="M524.607 373.707C524.607 373.707 552.752 396.005 553.568 398.044C554.112 399.54 542.555 401.172 535.213 402.531" stroke="#0A0A0A" stroke-width="2" stroke-miterlimit="10" stroke-linecap="round" stroke-linejoin="round"/>
<path d="M482.186 408.377C482.186 408.377 480.146 446.856 480.554 457.733" stroke="#0A0A0A" stroke-width="2" stroke-miterlimit="10" stroke-linecap="round" stroke-linejoin="round"/>
<path d="M522.16 373.706C517.809 374.794 486.673 373.706 486.673 373.706C487.216 378.465 486.945 382.68 486.265 386.079C483.817 387.303 481.642 389.206 480.418 391.518C480.282 383.496 480.146 354.399 485.177 351C491.023 346.921 497.006 359.702 497.006 359.702C497.006 359.702 498.094 350.864 503.26 348.961C508.019 347.193 514.953 358.206 514.953 358.206C514.953 358.206 518.489 348.281 522.296 351.544C525.967 354.807 526.511 372.619 522.16 373.706Z" fill="#0A0A0A" stroke="#0A0A0A" stroke-width="2" stroke-miterlimit="10" stroke-linecap="round" stroke-linejoin="round"/>
<path d="M479.874 393.149C477.971 391.79 475.251 390.974 471.852 393.149C464.102 398.18 471.444 410.281 482.05 408.377" stroke="#0A0A0A" stroke-width="2" stroke-miterlimit="10" stroke-linecap="round" stroke-linejoin="round"/>
<path d="M480.417 454.742C480.417 454.742 474.163 449.303 470.356 452.159C466.549 455.15 470.356 457.597 470.356 457.597C470.356 457.597 416.649 483.703 400.605 505.457C384.561 527.212 364.438 611.375 367.838 633.129C371.237 655.02 410.667 651.62 410.667 651.62" stroke="#0A0A0A" stroke-width="2" stroke-miterlimit="10" stroke-linecap="round" stroke-linejoin="round"/>
<path d="M425.895 652.844L412.706 578.471C411.891 574.12 415.154 570.177 419.641 570.041L579.944 566.506C584.567 566.37 588.102 570.585 587.151 575.208L570.699 652.98C570.019 656.244 567.028 658.691 563.628 658.691H432.965C429.566 658.827 426.575 656.244 425.895 652.844Z" stroke="#0A0A0A" stroke-width="2" stroke-miterlimit="10" stroke-linecap="round" stroke-linejoin="round"/>
<path d="M508.835 615.317C509.515 609.879 505.708 604.848 499.997 604.848C494.287 604.848 490.48 609.879 491.159 615.317C491.839 619.94 495.646 623.204 499.997 623.204C504.348 623.204 508.291 619.94 508.835 615.317Z" stroke="#0A0A0A" stroke-width="2" stroke-miterlimit="10" stroke-linecap="round" stroke-linejoin="round"/>
<path d="M531.27 451.343C531.27 451.343 543.235 445.088 539.156 457.733C539.156 457.733 584.976 486.558 601.292 508.992C617.472 531.427 649.424 622.66 634.332 637.888C619.239 652.98 584.84 649.037 584.84 649.037" stroke="#0A0A0A" stroke-width="2" stroke-miterlimit="10" stroke-linecap="round" stroke-linejoin="round"/>
<path d="M431.878 658.826H426.983V659.914C426.983 662.633 429.159 664.809 431.878 664.809H566.076C568.796 664.809 570.971 662.633 570.971 659.914H566.348" stroke="#0A0A0A" stroke-width="2" stroke-miterlimit="10" stroke-linecap="round" stroke-linejoin="round"/>
<path d="M431.743 408.65C431.743 408.65 447.515 438.562 446.291 443.457C444.932 448.216 442.077 450.799 446.427 451.479C450.778 452.159 448.331 463.172 448.331 463.172" stroke="#0A0A0A" stroke-width="2" stroke-miterlimit="10" stroke-linecap="round" stroke-linejoin="round"/>
<path d="M480.418 459.501C480.418 459.501 477.835 475.681 486.944 480.576C496.19 485.334 491.431 492.405 491.159 507.633C490.887 522.861 456.76 497.028 463.286 464.804" stroke="#0A0A0A" stroke-width="2" stroke-miterlimit="10" stroke-linecap="round" stroke-linejoin="round"/>
<path d="M491.159 512.12C491.159 512.12 489.663 556.716 488.304 562.699" stroke="#0A0A0A" stroke-width="2" stroke-miterlimit="10" stroke-linecap="round" stroke-linejoin="round"/>
<path d="M531.269 459.501C531.269 459.501 531.677 475.273 525.287 480.576C518.896 485.742 523.383 508.449 525.287 510.216C527.19 511.984 548.537 502.33 547.313 467.523" stroke="#0A0A0A" stroke-width="2" stroke-miterlimit="10" stroke-linecap="round" stroke-linejoin="round"/>
<path d="M525.286 510.217C525.286 510.217 522.975 513.752 525.286 519.87C527.598 525.989 528.957 558.348 528.957 558.348" stroke="#0A0A0A" stroke-width="2" stroke-miterlimit="10" stroke-linecap="round" stroke-linejoin="round"/>
<path d="M426.984 534.282C426.984 534.282 421.681 540.401 426.984 541.216C432.286 542.032 429.567 545.975 431.742 562.699" stroke="#0A0A0A" stroke-width="2" stroke-miterlimit="10" stroke-linecap="round" stroke-linejoin="round"/>
<path d="M580.217 528.572C580.217 528.572 583.752 530.747 580.217 534.282C576.682 537.817 578.041 551.822 577.226 558.348" stroke="#0A0A0A" stroke-width="2" stroke-miterlimit="10" stroke-linecap="round" stroke-linejoin="round"/>
<path d="M513.866 420.071C513.866 420.071 508.699 422.111 502.852 420.071C500.949 419.391 506.116 431.356 511.418 423.742" stroke="#0A0A0A" stroke-width="2" stroke-miterlimit="10" stroke-linecap="round" stroke-linejoin="round"/>
<path d="M492.247 494.716C492.247 494.716 504.348 503.146 522.024 494.716" stroke="#0A0A0A" stroke-width="2" stroke-miterlimit="10" stroke-linecap="round" stroke-linejoin="round"/>
<path d="M635.419 358.071C636.695 358.071 637.73 357.036 637.73 355.759C637.73 354.483 636.695 353.448 635.419 353.448C634.142 353.448 633.107 354.483 633.107 355.759C633.107 357.036 634.142 358.071 635.419 358.071Z" fill="#0A0A0A"/>
<path d="M635.419 368.404C636.695 368.404 637.73 367.369 637.73 366.092C637.73 364.816 636.695 363.781 635.419 363.781C634.142 363.781 633.107 364.816 633.107 366.092C633.107 367.369 634.142 368.404 635.419 368.404Z" fill="#0A0A0A"/>
<path d="M302.574 633.265H260.969" stroke="#0A0A0A" stroke-width="2" stroke-miterlimit="10" stroke-linecap="round" stroke-linejoin="round"/>
<path d="M367.975 633.265H355.33" stroke="#0A0A0A" stroke-width="2" stroke-miterlimit="10" stroke-linecap="round" stroke-linejoin="round"/>
<path d="M744.734 633.265H637.865" stroke="#0A0A0A" stroke-width="2" stroke-miterlimit="10" stroke-linecap="round" stroke-linejoin="round"/>
<path d="M505.3 398.18C505.3 405.522 499.317 411.505 491.975 411.505C484.633 411.505 478.65 405.522 478.65 398.18C478.65 395.733 479.33 393.557 480.418 391.654C481.778 389.207 483.817 387.303 486.264 386.215C488.032 385.399 489.936 384.992 491.975 384.992C499.317 384.856 505.3 390.702 505.3 398.18Z" stroke="#0A0A0A" stroke-width="2" stroke-miterlimit="10" stroke-linecap="round" stroke-linejoin="round"/>
<path d="M521.887 411.505C529.246 411.505 535.212 405.539 535.212 398.18C535.212 390.821 529.246 384.855 521.887 384.855C514.528 384.855 508.562 390.821 508.562 398.18C508.562 405.539 514.528 411.505 521.887 411.505Z" stroke="#0A0A0A" stroke-width="2" stroke-miterlimit="10" stroke-linecap="round" stroke-linejoin="round"/>
<path d="M479.331 402.259C479.331 402.259 478.107 400.22 476.611 401.036" stroke="#0A0A0A" stroke-width="2" stroke-miterlimit="10" stroke-linecap="round" stroke-linejoin="round"/>
<path d="M305.431 463.036C305.431 463.036 335.071 465.211 338.47 467.659C341.869 470.106 334.391 510.352 303.119 501.922" stroke="#0A0A0A" stroke-width="2" stroke-miterlimit="10" stroke-linecap="round" stroke-linejoin="round"/>
<path d="M435.413 459.501C435.413 459.501 417.058 461.676 406.589 463.036C396.119 464.396 401.83 478.264 406.589 489.278" stroke="#0A0A0A" stroke-width="2" stroke-miterlimit="10" stroke-linecap="round" stroke-linejoin="round"/>
<path d="M705.442 543.935C705.442 543.935 712.105 586.493 711.017 623.339" stroke="#0A0A0A" stroke-width="2" stroke-miterlimit="10" stroke-linecap="round" stroke-linejoin="round"/>
<path d="M682.463 549.646C682.463 549.646 704.081 591.931 710.472 591.931" stroke="#0A0A0A" stroke-width="2" stroke-miterlimit="10" stroke-linecap="round" stroke-linejoin="round"/>
<path d="M413.388 667.801C413.388 669.568 405.502 670.928 395.576 670.928C385.787 670.928 377.765 669.568 377.765 667.801C377.765 666.033 385.651 664.673 395.576 664.673C405.502 664.673 413.388 666.033 413.388 667.801Z" stroke="#0A0A0A" stroke-width="2" stroke-miterlimit="10" stroke-linecap="round" stroke-linejoin="round"/>
<path d="M413.388 667.801V696.897C413.388 699.617 405.502 701.792 395.576 701.792C385.787 701.792 377.765 699.617 377.765 696.897V667.801C377.765 669.568 385.651 670.928 395.576 670.928C405.502 670.928 413.388 669.568 413.388 667.801Z" stroke="#0A0A0A" stroke-width="2" stroke-miterlimit="10" stroke-linecap="round" stroke-linejoin="round"/>
<path d="M377.899 675.551C377.899 675.551 365.935 669.024 367.838 682.077C369.742 695.13 377.899 690.915 377.899 690.915" stroke="#0A0A0A" stroke-width="2" stroke-miterlimit="10" stroke-linecap="round" stroke-linejoin="round"/>
<path d="M353.835 649.58V566.777H342.821V660.594L353.835 649.58Z" stroke="#0A0A0A" stroke-width="2" stroke-miterlimit="10" stroke-linecap="round" stroke-linejoin="round"/>
<path d="M307.606 566.778C307.606 566.778 308.965 550.598 302.711 543.256H317.939L322.97 566.778H307.606Z" stroke="#0A0A0A" stroke-width="2" stroke-miterlimit="10" stroke-linecap="round" stroke-linejoin="round"/>
<path d="M319.57 566.778C319.57 566.778 318.89 541.08 313.724 534.418H326.097L329.904 566.778H319.57Z" fill="#FF4560" stroke="#FF4560" stroke-width="2" stroke-miterlimit="10" stroke-linecap="round" stroke-linejoin="round"/>
<path d="M342.82 531.834C342.82 531.834 339.965 543.799 341.325 566.777H327.048C327.048 566.777 327.048 534.689 325.009 523.404L344.588 525.172C344.588 525.172 345.812 528.979 346.083 531.29L342.82 531.834Z" fill="#FFE843" stroke="#FFE843" stroke-width="2" stroke-miterlimit="10" stroke-linecap="round" stroke-linejoin="round"/>
<path d="M355.329 529.795C351.522 538.225 351.522 566.777 351.522 566.777H341.325C339.829 543.799 342.821 531.834 342.821 531.834L346.084 531.29L355.329 529.795Z" stroke="#0A0A0A" stroke-width="2" stroke-miterlimit="10" stroke-linecap="round" stroke-linejoin="round"/>
<path d="M342.82 566.777H303.526V660.594H342.82V566.777Z" stroke="#0A0A0A" stroke-width="2" stroke-miterlimit="10" stroke-linecap="round" stroke-linejoin="round"/>
<path d="M323.107 599.273C326.861 599.273 329.905 596.23 329.905 592.475C329.905 588.72 326.861 585.677 323.107 585.677C319.352 585.677 316.309 588.72 316.309 592.475C316.309 596.23 319.352 599.273 323.107 599.273Z" stroke="#0A0A0A" stroke-width="2" stroke-miterlimit="10" stroke-linecap="round" stroke-linejoin="round"/>
<path d="M302.574 531.835C302.574 531.835 281.907 546.383 293.328 623.476" stroke="#0A0A0A" stroke-width="2" stroke-miterlimit="10" stroke-linecap="round" stroke-linejoin="round"/>
<path d="M686.679 638.704C692.797 639.52 696.74 640.88 696.74 642.511C696.74 645.094 685.999 647.134 672.674 647.134C659.35 647.134 648.608 645.094 648.608 642.511C648.608 641.016 652.279 639.656 657.854 638.84" stroke="#0A0A0A" stroke-width="2" stroke-miterlimit="10" stroke-linecap="round" stroke-linejoin="round"/>
<path d="M688.174 664.265C688.174 665.897 681.24 667.256 672.674 667.256C664.109 667.256 657.174 665.897 657.174 664.265C657.174 664.265 644.801 655.699 648.608 642.51C648.608 645.094 659.35 647.133 672.674 647.133C685.999 647.133 696.74 645.094 696.74 642.51C700.547 655.699 688.174 664.265 688.174 664.265Z" stroke="#0A0A0A" stroke-width="2" stroke-miterlimit="10" stroke-linecap="round" stroke-linejoin="round"/>
<path d="M676.616 642.783C681.919 642.647 686.406 638.568 687.085 633.401C687.357 631.09 687.357 628.778 686.678 626.875C684.638 621.3 681.375 634.761 677.976 637.072C677.976 637.072 674.849 620.892 672.809 618.581C670.77 616.269 666.419 633.809 666.963 636.392C666.963 636.392 662.748 634.761 660.98 627.282C659.892 622.796 658.261 626.603 658.397 631.905C658.397 637.616 662.884 642.239 668.594 642.647C670.77 642.919 673.489 642.919 676.616 642.783Z" fill="#0A0A0A" stroke="#0A0A0A" stroke-width="2" stroke-miterlimit="10" stroke-linecap="round" stroke-linejoin="round"/>
<path d="M675.121 326.39C675.121 326.39 673.898 325.982 673.218 326.934" stroke="#0A0A0A" stroke-width="2" stroke-miterlimit="10" stroke-linecap="round" stroke-linejoin="round"/>
<path d="M445.475 542.304C445.475 542.304 463.966 543.12 477.562 541.216" stroke="#0A0A0A" stroke-width="2" stroke-miterlimit="10" stroke-linecap="round" stroke-linejoin="round"/>
<path d="M540.922 542.44C547.04 542.576 559.413 542.576 569.067 541.216" stroke="#0A0A0A" stroke-width="2" stroke-miterlimit="10" stroke-linecap="round" stroke-linejoin="round"/>
<path d="M354.242 355.759C354.242 355.759 365.527 377.785 369.334 381.456C373.141 385.127 388.777 354.535 388.777 354.535" stroke="#0A0A0A" stroke-width="2" stroke-miterlimit="10" stroke-linecap="round" stroke-linejoin="round"/>
<path d="M370.558 335.636C370.558 335.636 365.527 342.163 367.567 343.93C369.606 345.698 368.247 362.15 369.334 363.509" stroke="#0A0A0A" stroke-width="2" stroke-miterlimit="10" stroke-linecap="round" stroke-linejoin="round"/>
<path d="M374.501 355.215C375.552 355.215 376.405 354.363 376.405 353.312C376.405 352.26 375.552 351.408 374.501 351.408C373.45 351.408 372.598 352.26 372.598 353.312C372.598 354.363 373.45 355.215 374.501 355.215Z" fill="#0A0A0A"/>
<path d="M503.533 186.074C503.533 186.074 483.138 198.175 482.73 189.609C482.322 181.043 505.3 183.354 505.3 183.354L517.809 185.802L519.985 191.784C519.985 191.784 509.787 193.96 503.533 186.074Z" fill="#0A0A0A" stroke="#0A0A0A" stroke-width="2" stroke-miterlimit="10" stroke-linecap="round" stroke-linejoin="round"/>
<path d="M523.655 198.175C521.616 199.806 520.528 201.982 520.528 201.982C518.08 196.407 520.8 190.832 517.537 186.889C514.545 183.354 488.848 186.21 484.225 186.753C483.817 186.753 483.545 186.889 483.545 186.889C477.971 187.569 443.163 191.24 446.155 184.578C449.418 177.372 484.497 181.315 484.497 181.315C484.497 181.315 482.865 172.341 487.488 169.486C496.462 163.775 515.361 162.959 519.848 169.214C526.646 178.188 523.791 197.223 523.655 198.175Z" fill="#FF4560" stroke="#FF4560" stroke-width="2" stroke-miterlimit="10" stroke-linecap="round" stroke-linejoin="round"/>
<path d="M484.361 179.82C484.361 179.82 494.967 178.052 498.366 179.82" stroke="#0A0A0A" stroke-width="2" stroke-miterlimit="10" stroke-linecap="round" stroke-linejoin="round"/>
<path d="M525.967 205.517C525.967 205.517 523.112 205.245 522.704 208.508" stroke="#0A0A0A" stroke-width="2" stroke-miterlimit="10" stroke-linecap="round" stroke-linejoin="round"/>
<path d="M523.656 198.175C525.287 196.815 527.735 195.863 530.59 196.951C536.98 199.263 535.213 212.723 522.704 212.859" stroke="#0A0A0A" stroke-width="2" stroke-miterlimit="10" stroke-linecap="round" stroke-linejoin="round"/>
<path d="M582.393 450.799C582.393 450.799 597.349 435.435 602.108 432.988C606.866 430.54 612.577 428.773 612.577 428.773" stroke="#0A0A0A" stroke-width="2" stroke-miterlimit="10" stroke-linecap="round" stroke-linejoin="round"/>
<path d="M612.577 438.427C612.577 438.427 614.753 439.786 620.055 440.602C625.358 441.418 646.705 440.602 648.064 443.185C649.424 445.769 638.819 448.76 623.454 448.488" stroke="#0A0A0A" stroke-width="2" stroke-miterlimit="10" stroke-linecap="round" stroke-linejoin="round"/>
<path d="M635.419 448.488C635.419 448.488 641.673 448.76 645.752 448.488C649.831 448.216 649.967 452.431 638.954 454.062C627.941 455.694 623.59 455.286 623.59 455.286" stroke="#0A0A0A" stroke-width="2" stroke-miterlimit="10" stroke-linecap="round" stroke-linejoin="round"/>
<path d="M631.068 455.014C631.068 455.014 632.563 455.558 634.467 456.238C636.37 456.918 643.44 454.062 645.752 455.014C648.063 455.83 644.8 458.957 640.993 460.453C636.778 462.22 628.62 461.948 624.405 461.133" stroke="#0A0A0A" stroke-width="2" stroke-miterlimit="10" stroke-linecap="round" stroke-linejoin="round"/>
<path d="M639.634 460.861C639.634 460.861 639.498 462.9 637.323 464.26C635.283 465.62 619.375 466.707 616.656 467.115C613.937 467.387 604.963 466.435 601.428 466.435C597.893 466.435 594.766 469.019 594.766 469.019" stroke="#0A0A0A" stroke-width="2" stroke-miterlimit="10" stroke-linecap="round" stroke-linejoin="round"/>
<path d="M615.024 438.426V420.071H673.49V496.484H615.024V470.65" stroke="#0A0A0A" stroke-width="2" stroke-miterlimit="10" stroke-linecap="round" stroke-linejoin="round"/>
<path d="M653.367 420.071H635.556C635.556 417.351 637.731 415.312 640.314 415.312H648.472C651.192 415.312 653.367 417.487 653.367 420.071Z" fill="#0A0A0A" stroke="#0A0A0A" stroke-width="2" stroke-miterlimit="10" stroke-linecap="round" stroke-linejoin="round"/>
<path d="M555.607 461.812C555.607 461.812 576.138 457.053 575.322 452.023C574.507 446.992 582.393 452.023 582.393 452.023C584.024 457.597 594.902 470.514 594.902 470.514C594.902 470.514 596.261 473.369 592.726 474.185C589.191 475.001 582.393 481.119 582.393 481.119" stroke="#0A0A0A" stroke-width="2" stroke-miterlimit="10" stroke-linecap="round" stroke-linejoin="round"/>
</svg>
