<svg width="760" height="570" viewBox="0 0 760 570" fill="none" xmlns="http://www.w3.org/2000/svg">
<rect width="760" height="570" fill="white"/>
<path d="M213.988 264.83H217.142V312.198C219.854 307.605 224.059 305.06 229.482 305.06C236.732 305.06 242.487 309.265 242.487 318.451V339.203H239.332V318.949C239.332 311.202 235.68 307.827 229.372 307.827C222.123 307.827 217.087 312.53 217.087 320.167V339.148H213.933V264.83H213.988ZM248.74 322.602C248.74 332.452 256.376 340.088 265.95 340.088C275.468 340.088 283.104 332.452 283.104 322.602C283.104 312.752 275.468 305.115 265.95 305.115C256.376 305.06 248.74 312.752 248.74 322.602ZM279.895 322.602C279.895 331.013 274.029 337.377 265.95 337.377C257.87 337.377 252.005 330.958 252.005 322.602C252.005 314.246 257.87 307.827 265.95 307.827C273.974 307.827 279.895 314.19 279.895 322.602ZM290.243 339.258H293.397V236.165H290.243V339.258ZM303.358 339.258H306.512V319.06C306.512 311.922 310.496 307.937 316.86 307.937C322.283 307.937 325.548 311.313 325.548 317.787V339.258H328.702V318.728C328.702 311.922 332.687 307.937 339.161 307.937C344.307 307.937 347.738 311.202 347.738 317.677V339.258H350.893V317.123C350.893 309.265 345.525 305.06 339.161 305.06C333.793 305.06 330.03 307.384 327.651 311.756C325.548 307.273 321.342 305.06 316.86 305.06C312.046 305.06 308.172 307.439 306.512 311.036V305.89H303.358V339.258ZM374.688 337.377C366.83 337.377 360.743 332.009 360.466 323.21H390.459C390.237 312.53 383.874 305.115 374.024 305.115C364.782 305.115 357.256 312.752 357.256 322.602C357.256 332.452 364.506 340.088 374.743 340.088C381.162 340.088 385.755 337.764 388.799 333.891L386.696 332.009C384.04 335.274 380.664 337.377 374.688 337.377ZM360.577 320.499C361.407 313.194 366.664 307.827 373.968 307.827C382.269 307.827 386.309 313.36 387.194 320.499H360.577ZM393.779 331.788C395.993 336.713 400.254 340.088 407.503 340.088C414.199 340.088 419.013 336.713 419.013 330.736C419.013 324.262 413.645 322.159 406.949 319.946C402.246 318.396 399.091 317.345 399.091 313.25C399.091 309.874 401.803 307.771 405.898 307.771C409.882 307.771 412.206 309.542 413.756 312.309L416.357 310.926C414.475 307.384 411.21 305.06 405.898 305.06C400.032 305.06 396.048 308.38 396.048 313.25C396.048 318.894 399.922 320.776 406.23 322.878C412.317 324.871 415.859 326.531 415.859 330.847C415.859 334.942 412.372 337.321 407.503 337.321C402.135 337.321 398.261 334.831 396.491 330.626L393.779 331.788ZM424.879 352.539C427.314 358.405 433.179 362.5 441.203 362.5C450.943 362.5 457.14 355.915 457.14 345.843V305.945H453.986V313.194C451.164 307.937 446.35 305.115 440.373 305.115C430.523 305.115 423.274 312.752 423.274 322.602C423.274 332.452 430.523 340.088 440.373 340.088C446.35 340.088 451.164 337.266 453.986 332.009V345.622C453.986 354.199 449.172 359.567 441.203 359.567C435.005 359.567 429.804 356.634 427.701 351.488L424.879 352.539ZM454.208 322.602C454.208 331.068 448.563 337.266 440.373 337.266C432.183 337.266 426.539 331.068 426.539 322.602C426.539 314.135 432.183 307.937 440.373 307.937C448.563 307.937 454.208 314.08 454.208 322.602ZM467.101 339.258H470.255V207.5H467.101V339.258ZM494.88 337.377C487.023 337.377 480.935 332.009 480.659 323.21H510.596C510.375 312.53 504.011 305.115 494.161 305.115C484.92 305.115 477.394 312.752 477.394 322.602C477.394 332.452 484.643 340.088 494.88 340.088C501.244 340.088 505.893 337.764 508.936 333.891L506.833 332.009C504.177 335.274 500.857 337.377 494.88 337.377ZM480.714 320.499C481.544 313.194 486.801 307.827 494.106 307.827C502.406 307.827 506.446 313.36 507.331 320.499H480.714ZM517.513 339.258H520.668V320.278C520.668 312.641 525.814 307.937 532.953 307.937C539.261 307.937 542.913 311.313 542.913 319.06V339.258H546.068V318.507C546.068 309.265 540.312 305.115 533.063 305.115C527.64 305.115 522.881 307.827 520.723 312.254V305.945H517.569V339.258H517.513Z" fill="#4393BC"/>
</svg>
