<svg width="760" height="760" viewBox="0 0 760 760" fill="none" xmlns="http://www.w3.org/2000/svg">
<rect width="760" height="760" fill="white"/>
<path d="M213.988 359.83H217.142V407.198C219.854 402.605 224.059 400.06 229.482 400.06C236.732 400.06 242.487 404.265 242.487 413.451V434.203H239.332V413.949C239.332 406.202 235.68 402.827 229.372 402.827C222.123 402.827 217.087 407.53 217.087 415.167V434.148H213.933V359.83H213.988ZM248.74 417.602C248.74 427.452 256.376 435.088 265.95 435.088C275.468 435.088 283.104 427.452 283.104 417.602C283.104 407.752 275.468 400.115 265.95 400.115C256.376 400.06 248.74 407.752 248.74 417.602ZM279.895 417.602C279.895 426.013 274.029 432.377 265.95 432.377C257.87 432.377 252.005 425.958 252.005 417.602C252.005 409.246 257.87 402.827 265.95 402.827C273.974 402.827 279.895 409.19 279.895 417.602ZM290.243 434.258H293.397V331.165H290.243V434.258ZM303.358 434.258H306.512V414.06C306.512 406.922 310.496 402.937 316.86 402.937C322.283 402.937 325.548 406.313 325.548 412.787V434.258H328.702V413.728C328.702 406.922 332.687 402.937 339.161 402.937C344.307 402.937 347.738 406.202 347.738 412.677V434.258H350.893V412.123C350.893 404.265 345.525 400.06 339.161 400.06C333.793 400.06 330.03 402.384 327.651 406.756C325.548 402.273 321.342 400.06 316.86 400.06C312.046 400.06 308.172 402.439 306.512 406.036V400.89H303.358V434.258ZM374.688 432.377C366.83 432.377 360.743 427.009 360.466 418.21H390.459C390.237 407.53 383.874 400.115 374.024 400.115C364.782 400.115 357.256 407.752 357.256 417.602C357.256 427.452 364.506 435.088 374.743 435.088C381.162 435.088 385.755 432.764 388.799 428.891L386.696 427.009C384.04 430.274 380.664 432.377 374.688 432.377ZM360.577 415.499C361.407 408.194 366.664 402.827 373.968 402.827C382.269 402.827 386.309 408.36 387.194 415.499H360.577ZM393.779 426.788C395.993 431.713 400.254 435.088 407.503 435.088C414.199 435.088 419.013 431.713 419.013 425.736C419.013 419.262 413.645 417.159 406.949 414.946C402.246 413.396 399.091 412.345 399.091 408.25C399.091 404.874 401.803 402.771 405.898 402.771C409.882 402.771 412.206 404.542 413.756 407.309L416.357 405.926C414.475 402.384 411.21 400.06 405.898 400.06C400.032 400.06 396.048 403.38 396.048 408.25C396.048 413.894 399.922 415.776 406.23 417.878C412.317 419.871 415.859 421.531 415.859 425.847C415.859 429.942 412.372 432.321 407.503 432.321C402.135 432.321 398.261 429.831 396.491 425.626L393.779 426.788ZM424.879 447.539C427.314 453.405 433.179 457.5 441.203 457.5C450.943 457.5 457.14 450.915 457.14 440.843V400.945H453.986V408.194C451.164 402.937 446.35 400.115 440.373 400.115C430.523 400.115 423.274 407.752 423.274 417.602C423.274 427.452 430.523 435.088 440.373 435.088C446.35 435.088 451.164 432.266 453.986 427.009V440.622C453.986 449.199 449.172 454.567 441.203 454.567C435.005 454.567 429.804 451.634 427.701 446.488L424.879 447.539ZM454.208 417.602C454.208 426.068 448.563 432.266 440.373 432.266C432.183 432.266 426.539 426.068 426.539 417.602C426.539 409.135 432.183 402.937 440.373 402.937C448.563 402.937 454.208 409.08 454.208 417.602ZM467.101 434.258H470.255V302.5H467.101V434.258ZM494.88 432.377C487.023 432.377 480.935 427.009 480.659 418.21H510.596C510.375 407.53 504.011 400.115 494.161 400.115C484.92 400.115 477.394 407.752 477.394 417.602C477.394 427.452 484.643 435.088 494.88 435.088C501.244 435.088 505.893 432.764 508.936 428.891L506.833 427.009C504.177 430.274 500.857 432.377 494.88 432.377ZM480.714 415.499C481.544 408.194 486.801 402.827 494.106 402.827C502.406 402.827 506.446 408.36 507.331 415.499H480.714ZM517.513 434.258H520.668V415.278C520.668 407.641 525.814 402.937 532.953 402.937C539.261 402.937 542.913 406.313 542.913 414.06V434.258H546.068V413.507C546.068 404.265 540.312 400.115 533.063 400.115C527.64 400.115 522.881 402.827 520.723 407.254V400.945H517.569V434.258H517.513Z" fill="#4393BC"/>
</svg>
