<svg width="1000" height="1000" viewBox="0 0 1000 1000" fill="none" xmlns="http://www.w3.org/2000/svg">
<g clip-path="url(#clip0_504_1643)">
<rect width="1000" height="1000" fill="white"/>
<path d="M40.0357 96.9868H42.068V127.547C43.8151 124.584 46.5248 122.942 50.019 122.942C54.6898 122.942 58.3979 125.655 58.3979 131.582V144.97H56.3655V131.903C56.3655 126.905 54.0123 124.727 49.9477 124.727C45.2769 124.727 42.0323 127.762 42.0323 132.688V144.934H40V96.9868H40.0357ZM62.4269 134.259C62.4269 140.614 67.3472 145.541 73.5155 145.541C79.6481 145.541 84.5685 140.614 84.5685 134.259C84.5685 127.904 79.6481 122.978 73.5155 122.978C67.3472 122.942 62.4269 127.904 62.4269 134.259ZM82.5005 134.259C82.5005 139.686 78.7211 143.792 73.5155 143.792C68.3099 143.792 64.5305 139.65 64.5305 134.259C64.5305 128.868 68.3099 124.727 73.5155 124.727C78.6854 124.727 82.5005 128.833 82.5005 134.259ZM89.1679 145.005H91.2003V78.4934H89.1679V145.005ZM97.6181 145.005H99.6504V131.974C99.6504 127.369 102.218 124.798 106.318 124.798C109.812 124.798 111.916 126.976 111.916 131.153V145.005H113.948V131.76C113.948 127.369 116.515 124.798 120.687 124.798C124.003 124.798 126.213 126.905 126.213 131.082V145.005H128.246V130.725C128.246 125.655 124.787 122.942 120.687 122.942C117.228 122.942 114.804 124.441 113.271 127.262C111.916 124.37 109.206 122.942 106.318 122.942C103.216 122.942 100.72 124.477 99.6504 126.798V123.477H97.6181V145.005ZM143.577 143.792C138.514 143.792 134.592 140.328 134.414 134.652H153.739C153.596 127.762 149.496 122.978 143.149 122.978C137.195 122.978 132.346 127.904 132.346 134.259C132.346 140.614 137.017 145.541 143.613 145.541C147.749 145.541 150.708 144.041 152.669 141.542L151.314 140.328C149.603 142.435 147.428 143.792 143.577 143.792ZM134.485 132.903C135.02 128.19 138.407 124.727 143.114 124.727C148.462 124.727 151.065 128.297 151.635 132.903H134.485ZM155.878 140.186C157.304 143.363 160.05 145.541 164.72 145.541C169.035 145.541 172.137 143.363 172.137 139.507C172.137 135.33 168.678 133.974 164.364 132.546C161.333 131.546 159.301 130.868 159.301 128.226C159.301 126.048 161.048 124.691 163.686 124.691C166.254 124.691 167.751 125.834 168.749 127.619L170.425 126.726C169.213 124.441 167.109 122.942 163.686 122.942C159.907 122.942 157.34 125.084 157.34 128.226C157.34 131.867 159.836 133.081 163.9 134.438C167.822 135.723 170.104 136.794 170.104 139.579C170.104 142.221 167.858 143.756 164.72 143.756C161.262 143.756 158.766 142.149 157.625 139.436L155.878 140.186ZM175.916 153.574C177.485 157.358 181.264 160 186.434 160C192.709 160 196.703 155.752 196.703 149.254V123.513H194.67V128.19C192.852 124.798 189.75 122.978 185.899 122.978C179.553 122.978 174.882 127.904 174.882 134.259C174.882 140.614 179.553 145.541 185.899 145.541C189.75 145.541 192.852 143.72 194.67 140.328V149.111C194.67 154.645 191.568 158.108 186.434 158.108C182.441 158.108 179.089 156.216 177.734 152.895L175.916 153.574ZM194.813 134.259C194.813 139.722 191.176 143.72 185.899 143.72C180.622 143.72 176.986 139.722 176.986 134.259C176.986 128.797 180.622 124.798 185.899 124.798C191.176 124.798 194.813 128.761 194.813 134.259ZM203.121 145.005H205.153V60H203.121V145.005ZM221.019 143.792C215.956 143.792 212.034 140.328 211.856 134.652H231.145C231.003 127.762 226.902 122.978 220.556 122.978C214.601 122.978 209.752 127.904 209.752 134.259C209.752 140.614 214.423 145.541 221.019 145.541C225.12 145.541 228.115 144.041 230.076 141.542L228.721 140.328C227.009 142.435 224.87 143.792 221.019 143.792ZM211.892 132.903C212.427 128.19 215.814 124.727 220.52 124.727C225.868 124.727 228.471 128.297 229.042 132.903H211.892ZM235.602 145.005H237.634V132.76C237.634 127.833 240.95 124.798 245.55 124.798C249.614 124.798 251.968 126.976 251.968 131.974V145.005H254V131.617C254 125.655 250.292 122.978 245.621 122.978C242.127 122.978 239.061 124.727 237.67 127.583V123.513H235.638V145.005H235.602Z" fill="#4393BC"/>
<path d="M475.667 247.5C475.5 256.333 475.334 267.667 475 278.167C474.334 299.167 472.834 293.333 472.834 293.333C467 292.167 467.5 295.667 467.5 296.667C467.5 297.667 467.167 299.5 465 300.833C462.834 302 435.834 308.333 425.834 311.5C415.834 314.5 399.167 320.667 388 336C383 342.833 380.834 351.333 379.834 358.833C377.167 356.167 373.167 355.833 373.167 355.833C373.167 355.833 367.667 304.667 369.834 301.833C371.834 299 388.834 302.333 396 303.167C403.334 304 398.834 299.167 396 294.5C394.167 291.5 388 282.667 383.667 276.5C417.334 253.667 473.834 248 473.834 248C474.334 247.667 475 247.5 475.667 247.5Z" fill="#E9EFF4"/>
<path d="M635.166 290.833L631.333 340.5L627.333 340.667C627.333 340.667 622.166 333.167 609.333 323C596.5 312.667 562.5 304.333 552.833 301.167C543.333 298.167 542.5 295.833 540.833 292.167C539.166 288.5 534.666 293.333 534.666 293.333L532.333 244.167C591.166 246.333 556.833 275.167 610.833 283.333C620.833 284.833 628.666 287.333 635.166 290.833Z" fill="#E9EFF4"/>
<path d="M635.667 283.667C634.667 295.5 631 344.5 631 344.5C631 344.5 643.833 371.167 661.333 371.167C677.167 371.167 687.667 344.5 687.667 344.5C687.167 340.833 682.5 282.167 682.5 282.167C682.5 282.167 711.333 290.333 713.333 289.333C715.333 288.333 688.667 254.833 676.333 244.5C667 236.833 639.833 219 636.5 271.833C636.5 271.833 632 264.333 625.833 268.333C619.667 272.5 623.833 285.833 635.667 283.667Z" stroke="#0A0A0A" stroke-width="2" stroke-miterlimit="10" stroke-linecap="round" stroke-linejoin="round"/>
<path d="M632.667 278.167C632.667 278.167 634.5 277.5 635.834 280.833" stroke="#0A0A0A" stroke-width="2" stroke-miterlimit="10" stroke-linecap="round" stroke-linejoin="round"/>
<path d="M631 342.167C631 342.167 624.5 338.167 624.667 342.167C624.833 346.167 606.167 358 606.5 361C606.833 364.167 561.5 381.5 543 414.333" stroke="#0A0A0A" stroke-width="2" stroke-miterlimit="10" stroke-linecap="round" stroke-linejoin="round"/>
<path d="M752.833 394C772.166 410.333 796.833 435 817.666 467.167C817.666 467.167 825.666 479 825.666 488.833C825.666 498.667 819.666 508.333 818.666 498C816 468.833 833.833 408.167 831 398.833C828.333 389.5 836.5 390.833 836.5 390.833C847.166 397.333 869.166 393.333 869.166 393.333C877.333 398.167 869 401.833 870.333 411.5C871.666 421.167 880.166 536.5 846 541.5C805 547.5 762.166 505 762.166 505" stroke="#0A0A0A" stroke-width="2" stroke-miterlimit="10" stroke-linecap="round" stroke-linejoin="round"/>
<path d="M687.333 340.5C687.333 340.5 696.833 336 695 342.667C693.166 349.333 705.5 357.167 709.833 362.5" stroke="#0A0A0A" stroke-width="2" stroke-miterlimit="10" stroke-linecap="round" stroke-linejoin="round"/>
<path d="M606.5 361.167C606.5 361.167 615.667 390.833 641.167 404.833C641.167 404.833 658.667 376.333 661.833 377.667C665 378.833 682.167 404.833 682.167 404.833C682.167 404.833 693.833 400.333 704.667 375.833" stroke="#0A0A0A" stroke-width="2" stroke-miterlimit="10" stroke-linecap="round" stroke-linejoin="round"/>
<path d="M661.667 377.5C661.667 377.5 653.667 380 658.334 386.5C663 393 657.334 430.5 659.334 458" stroke="#0A0A0A" stroke-width="2" stroke-miterlimit="10" stroke-linecap="round" stroke-linejoin="round"/>
<path d="M836.667 390.833C836.667 390.833 840 378.167 837.667 374.5C835.334 370.667 827.334 360.5 824.334 354.5C820.667 347.5 814.167 339 816.167 336C818.167 333 823.334 335.5 828.667 342C833.167 347.167 835.167 348 836.834 346.333C838.667 344.833 835.167 326.833 833.334 321.667C830.667 314 825.334 305.5 830.167 305C835 304.5 841.5 320.167 843 324.5C843 324.5 842.834 312.167 841.5 303.667C839.834 293.333 843.334 292.333 846.667 295.667C850 299 851.334 317 852.334 323.167C852.334 323.167 854.834 312.667 853.834 303.667C852.834 294.667 860.667 296.5 862 308.333C863.667 323.167 862.167 334 863.167 334C864.167 334 865.167 323.5 865.5 315.667C865.834 307.833 871.334 308.333 872 318.167C872.667 327 872.167 336.5 871 361C869.834 385.5 869.167 393.5 869.167 393.5" stroke="#0A0A0A" stroke-width="2" stroke-miterlimit="10" stroke-linecap="round" stroke-linejoin="round"/>
<path d="M752.5 442.5C752.5 442.5 757.167 446.667 755.833 452.833C754.667 458 760.333 549.833 762 602.5C762.167 607 764.667 611 768.333 613.667C770.667 615.333 771.833 618 766.333 622C755.667 630 773.5 631.167 755.667 635.667C748 637.667 699.833 647 667 645.167" stroke="#0A0A0A" stroke-width="2" stroke-miterlimit="10" stroke-linecap="round" stroke-linejoin="round"/>
<path d="M643.167 243.667C643.167 243.667 653.167 261.833 636.5 271.833C636.5 271.833 632.167 266 629 267.167C629 267.167 620.834 264.667 618.834 256.333C616.834 248 629.167 255.667 629.167 255.667C629.167 255.667 619.334 251.167 623 245C626.667 238.833 634.167 245.333 634.167 245.333C634.167 245.333 632.334 234.833 643.167 243.667Z" fill="#0A0A0A" stroke="#0A0A0A" stroke-width="2" stroke-miterlimit="10" stroke-linecap="round" stroke-linejoin="round"/>
<path d="M834.667 347C834.667 347 848.334 349.167 852 358" stroke="#0A0A0A" stroke-width="2" stroke-miterlimit="10" stroke-linecap="round" stroke-linejoin="round"/>
<path d="M481.667 199C481.667 199 445 229.167 441.833 232.333C438.667 235.5 475.167 230.333 475.833 232.333C476.5 234.333 474.833 289.667 474.167 296.5" stroke="#0A0A0A" stroke-width="2" stroke-miterlimit="10" stroke-linecap="round" stroke-linejoin="round"/>
<path d="M531.833 229.833C531.833 229.833 534.5 289.167 535 298.167" stroke="#0A0A0A" stroke-width="2" stroke-miterlimit="10" stroke-linecap="round" stroke-linejoin="round"/>
<path d="M472.667 293.667C472.667 293.667 465.833 291.333 467.5 298.167C469.167 305 402.333 305.333 384 341.833" stroke="#0A0A0A" stroke-width="2" stroke-miterlimit="10" stroke-linecap="round" stroke-linejoin="round"/>
<path d="M534.833 293.333C534.833 293.333 540.666 289.167 541.333 293.333C542 297.5 547.666 300 568.666 306C597.5 314.167 622.166 327.167 627.833 341.833" stroke="#0A0A0A" stroke-width="2" stroke-miterlimit="10" stroke-linecap="round" stroke-linejoin="round"/>
<path d="M472.667 298.167C472.667 298.167 502.834 327.667 534.834 300.167" stroke="#0A0A0A" stroke-width="2" stroke-miterlimit="10" stroke-linecap="round" stroke-linejoin="round"/>
<path d="M369.666 256.833C369.666 256.833 399.166 296.667 399.833 301.5C400.5 306.333 370.333 296.667 369.666 301.5C369 306.333 373.333 358.167 373.333 358.167" stroke="#0A0A0A" stroke-width="2" stroke-miterlimit="10" stroke-linecap="round" stroke-linejoin="round"/>
<path d="M316.667 361.333L321.834 301.5" stroke="#0A0A0A" stroke-width="2" stroke-miterlimit="10" stroke-linecap="round" stroke-linejoin="round"/>
<path d="M321.833 288.333C321.833 288.333 317.833 281 311.5 284C306.166 286.667 306.666 303.333 321.833 301.5" stroke="#0A0A0A" stroke-width="2" stroke-miterlimit="10" stroke-linecap="round" stroke-linejoin="round"/>
<path d="M317.333 294C317.333 294 319.666 292.333 321.333 295.5" stroke="#0A0A0A" stroke-width="2" stroke-miterlimit="10" stroke-linecap="round" stroke-linejoin="round"/>
<path d="M218.833 422.333C216.333 427.333 213 435.167 212.5 444.333" stroke="#0A0A0A" stroke-width="2" stroke-miterlimit="10" stroke-linecap="round" stroke-linejoin="round"/>
<path d="M317 358.167C317 358.167 309.334 355.833 308 361.333C307 365 279.834 371.333 254.167 387.333" stroke="#0A0A0A" stroke-width="2" stroke-miterlimit="10" stroke-linecap="round" stroke-linejoin="round"/>
<path d="M373 354.667C373 354.667 378 356.167 382 361.333C386.167 366.5 441.167 370.833 463.5 417C465.833 421.667 471 433.5 471 433.5" stroke="#0A0A0A" stroke-width="2" stroke-miterlimit="10" stroke-linecap="round" stroke-linejoin="round"/>
<path d="M175.167 399.333C170.167 399.667 166.5 399.333 165.5 399.167C165.334 394 165.334 390.333 165.167 388.5C165.167 388.5 168.334 389 173.167 389C172.5 390.167 172.167 391.5 172.167 392.833C172.334 395.5 173.5 397.833 175.167 399.333Z" fill="#0A0A0A" stroke="#0A0A0A" stroke-width="2" stroke-miterlimit="10" stroke-linecap="round" stroke-linejoin="round"/>
<path d="M188.334 397.333C189.167 396 189.5 394.5 189.5 393C189.5 391 188.834 389 187.667 387.667C189.834 387.167 192 386.5 194.167 385.667C194.667 388.667 195.667 392 196.5 394.167C193.834 395.5 191.167 396.5 188.334 397.333Z" fill="#0A0A0A" stroke="#0A0A0A" stroke-width="2" stroke-miterlimit="10" stroke-linecap="round" stroke-linejoin="round"/>
<path d="M165.5 399.167C166.667 432.667 172 526.167 197.833 543.167C230.167 564.5 269.667 470.333 269.667 470.333" stroke="#0A0A0A" stroke-width="2" stroke-miterlimit="10" stroke-linecap="round" stroke-linejoin="round"/>
<path d="M165.333 388.5C165.333 387.667 165.333 387.333 165.333 387.333C165.333 387.333 152 355.667 152.167 329.667C152.167 319.833 156.833 318.333 158.333 326.167C159.833 334 162.167 344.167 163.333 344C164.333 343.833 161.333 333.333 160.833 318.333C160.5 306.5 168 303.5 168.167 312.667C168.5 321.667 172.5 331.833 172.5 331.833C172.667 325.5 171.333 307.5 174.167 303.667C177 299.833 180.5 300.333 180.333 310.833C180.167 319.333 181.833 331.667 181.833 331.667C182.667 327.167 186.833 310.667 191.833 310.5C196.667 310.333 192.667 319.5 191.167 327.5C190.167 333 189.333 351.167 191.333 352.5C193.333 353.833 195.167 352.833 198.833 347C203.333 340 208 336.5 210.5 339.333C213 342.167 207.667 351.5 205 358.833C202.833 365.333 196.333 376.5 194.667 380.5C194.167 381.667 194.167 383.5 194.5 385.5" stroke="#0A0A0A" stroke-width="2" stroke-miterlimit="10" stroke-linecap="round" stroke-linejoin="round"/>
<path d="M196.5 394C197 395.5 197.5 396.667 197.5 396.667C197.5 396.667 229.5 491.667 226.167 509" stroke="#0A0A0A" stroke-width="2" stroke-miterlimit="10" stroke-linecap="round" stroke-linejoin="round"/>
<path d="M165.5 399.167C165.333 399.167 165.333 399.167 165.333 399.167" stroke="#0A0A0A" stroke-width="2" stroke-miterlimit="10" stroke-linecap="round" stroke-linejoin="round"/>
<path d="M189.5 392.833C189.5 394.5 189 396 188.333 397.167C186.833 399.667 184 401.333 181 401.333C178.833 401.333 176.833 400.5 175.333 399.167C173.5 397.667 172.333 395.333 172.333 392.667C172.333 391.333 172.666 390 173.333 388.833C174.666 386 177.666 384 181 384C183.666 384 186.166 385.333 187.666 387.167C188.833 389 189.5 390.833 189.5 392.833Z" stroke="#0A0A0A" stroke-width="2" stroke-miterlimit="10" stroke-linecap="round" stroke-linejoin="round"/>
<path d="M193.167 352.833C193.167 352.833 180 357 177.5 366.333" stroke="#0A0A0A" stroke-width="2" stroke-miterlimit="10" stroke-linecap="round" stroke-linejoin="round"/>
<path d="M326.5 630.5C335.833 630.833 344.833 630.833 352.333 630.167" stroke="#0A0A0A" stroke-width="2" stroke-miterlimit="10" stroke-linecap="round" stroke-linejoin="round"/>
<path d="M269.5 433.833C269.5 433.833 267.667 430.167 269.5 441C270.5 447.167 266.167 519.833 262.667 584C262.5 588.167 256.667 596.5 256.5 600.667C256.334 604.667 261.5 604.667 261.334 608.5C261.334 608.5 245.334 613.5 261.334 620.5C264.167 621.667 268 622.833 272.334 624" stroke="#0A0A0A" stroke-width="2" stroke-miterlimit="10" stroke-linecap="round" stroke-linejoin="round"/>
<path d="M418.834 436.667C418.834 436.667 419.5 441.5 418.834 444.333C418.5 445.833 422 495.167 425.334 542.167" stroke="#0A0A0A" stroke-width="2" stroke-miterlimit="10" stroke-linecap="round" stroke-linejoin="round"/>
<path d="M317.333 363.833C317.333 363.833 348.166 380.333 373.166 361.333" stroke="#0A0A0A" stroke-width="2" stroke-miterlimit="10" stroke-linecap="round" stroke-linejoin="round"/>
<path d="M477.666 302.167C477.666 302.167 474.166 304 472.833 308.167" stroke="#0A0A0A" stroke-width="2" stroke-miterlimit="10" stroke-linecap="round" stroke-linejoin="round"/>
<path d="M490.833 309.167C490.833 309.167 487.833 317.167 488.833 319" stroke="#0A0A0A" stroke-width="2" stroke-miterlimit="10" stroke-linecap="round" stroke-linejoin="round"/>
<path d="M506.833 314V321.333" stroke="#0A0A0A" stroke-width="2" stroke-miterlimit="10" stroke-linecap="round" stroke-linejoin="round"/>
<path d="M520.333 309.167C520.333 309.167 522 313.167 522.833 315.167" stroke="#0A0A0A" stroke-width="2" stroke-miterlimit="10" stroke-linecap="round" stroke-linejoin="round"/>
<path d="M533.333 302.167C533.333 302.167 536.833 305.333 537.333 308.167" stroke="#0A0A0A" stroke-width="2" stroke-miterlimit="10" stroke-linecap="round" stroke-linejoin="round"/>
<path d="M305.833 365.833C305.833 365.833 320.666 403.333 325.166 405C329.666 406.667 342.833 379.167 345 380.333C347.166 381.5 360.666 405.667 365.666 404.833C370.666 404 380.166 373 381.5 369.167" stroke="#0A0A0A" stroke-width="2" stroke-miterlimit="10" stroke-linecap="round" stroke-linejoin="round"/>
<path d="M691.833 455.167C691.833 455.167 702.5 456.167 718.666 455.167" stroke="#0A0A0A" stroke-width="2" stroke-miterlimit="10" stroke-linecap="round" stroke-linejoin="round"/>
<path d="M682.5 282.167C682.5 282.167 672.833 278 664.833 280.833C657 283.667 656.666 305.667 659.166 309.167C661.666 312.667 684.833 311.333 684.5 309.167C684.166 307 682.5 282.167 682.5 282.167Z" fill="#0A0A0A" stroke="#0A0A0A" stroke-width="2" stroke-miterlimit="10" stroke-linecap="round" stroke-linejoin="round"/>
<path d="M169 278C169 278 149.5 277.167 134.5 302" stroke="#0A0A0A" stroke-width="2" stroke-miterlimit="10" stroke-linecap="round" stroke-linejoin="round"/>
<path d="M159.167 263.667C159.167 263.667 142 268.167 134.5 283.167" stroke="#0A0A0A" stroke-width="2" stroke-miterlimit="10" stroke-linecap="round" stroke-linejoin="round"/>
<path d="M514.333 249C505.5 241.5 497.5 246.667 497.5 246.667C498.833 255.333 509 255.667 514.167 249.167C514.167 249.167 514.167 249.167 514.333 249ZM514.333 249C518.333 243.833 519.5 236.667 517 235C514.5 233.333 513.167 235.667 507 239.167C500.833 242.5 496.5 240.333 496.5 240.333" stroke="#0A0A0A" stroke-width="2" stroke-miterlimit="10" stroke-linecap="round" stroke-linejoin="round"/>
<path d="M499.5 241C499.5 241 500.667 242.333 499.833 245.667C499.833 245.667 508.167 242.5 514 249.333C514 249.333 517.167 245.5 518 240.667C518.667 235.833 516.833 234.167 514.667 234.667C512.5 235.167 505.333 242.167 499.5 241Z" fill="#0A0A0A"/>
<path d="M511.333 213.167C511.333 213.167 510.833 219.167 511.833 220C512.833 220.833 512.833 215 512 213.833" stroke="#0A0A0A" stroke-width="2" stroke-miterlimit="10" stroke-linecap="round" stroke-linejoin="round"/>
<path d="M491.5 215C491.5 215 491 221 492 221.833C493.167 222.667 493 216.833 492.167 215.667" stroke="#0A0A0A" stroke-width="2" stroke-miterlimit="10" stroke-linecap="round" stroke-linejoin="round"/>
<path d="M658.833 264.5C658.833 264.5 659.5 269.167 658.667 269.833C657.833 270.5 657.667 266 658.333 265" stroke="#0A0A0A" stroke-width="2" stroke-miterlimit="10" stroke-linecap="round" stroke-linejoin="round"/>
<path d="M674.333 265.167C674.333 265.167 675 269.833 674.167 270.5C673.333 271.167 673.167 266.667 673.833 265.667" stroke="#0A0A0A" stroke-width="2" stroke-miterlimit="10" stroke-linecap="round" stroke-linejoin="round"/>
<path d="M344.666 290.667C344.666 290.667 345.333 295.333 344.5 296C343.666 296.667 343.5 292.167 344.166 291.167" stroke="#0A0A0A" stroke-width="2" stroke-miterlimit="10" stroke-linecap="round" stroke-linejoin="round"/>
<path d="M360.166 291.167C360.166 291.167 360.833 295.833 360 296.5C359.166 297.167 359 292.667 359.666 291.667" stroke="#0A0A0A" stroke-width="2" stroke-miterlimit="10" stroke-linecap="round" stroke-linejoin="round"/>
<path d="M503.666 456.5C503.666 456.5 504.333 461.167 503.5 461.833C502.666 462.5 502.5 458 503.166 457" stroke="#0A0A0A" stroke-width="2" stroke-miterlimit="10" stroke-linecap="round" stroke-linejoin="round"/>
<path d="M522.666 457C522.666 457 523.333 461.667 522.5 462.333C521.666 463 521.5 458.5 522.166 457.5" stroke="#0A0A0A" stroke-width="2" stroke-miterlimit="10" stroke-linecap="round" stroke-linejoin="round"/>
<path d="M371.667 259.5C362.333 277.667 346 257.333 346 257.333C346 257.333 339.167 297.5 321.833 288.167C321.833 288.167 317.833 280.833 311.5 283.833C306.167 286.5 306.667 303.167 321.833 301.333L317 358C317 358 309.333 355.667 308 361.167C307.167 364.833 281.167 370.833 256.167 385.833C251.833 388.333 231.167 354.5 258.333 331.333C276.667 315.5 301.833 313.333 296.333 291.667C290.833 270 305 265.5 317.333 269C329.833 272.667 329.667 246.333 345 243.333C360.5 240.333 371.667 259.5 371.667 259.5Z" fill="#0A0A0A" stroke="#0A0A0A" stroke-width="2" stroke-miterlimit="10" stroke-linecap="round" stroke-linejoin="round"/>
<path d="M353.5 315.667C353.5 315.667 349.834 317.833 344.834 311.167C344.834 311.167 342.834 323.833 349.834 318" stroke="#0A0A0A" stroke-width="2" stroke-miterlimit="10" stroke-linecap="round" stroke-linejoin="round"/>
<path d="M170.167 461.833C170.167 461.833 195.5 467.5 214.834 452.5" stroke="#0A0A0A" stroke-width="2" stroke-miterlimit="10" stroke-linecap="round" stroke-linejoin="round"/>
<path d="M241.833 395.833C241.833 395.833 242.833 408.167 248.666 417C250.333 419.5 254.333 419.5 255.666 416.667C256.333 415.5 256.5 413.833 255.833 411.667C253.833 405.167 252.333 396.5 251.666 392.833" stroke="#0A0A0A" stroke-width="2" stroke-miterlimit="10" stroke-linecap="round" stroke-linejoin="round"/>
<path d="M228.833 399.167C228.833 399.167 235.833 420 244.333 424C245.833 424.667 251.333 423.167 249.5 418.333" stroke="#0A0A0A" stroke-width="2" stroke-miterlimit="10" stroke-linecap="round" stroke-linejoin="round"/>
<path d="M220.667 408C220.667 408 226.834 423.167 234.5 426.167C242.167 429.333 241.834 422.667 241.834 422.667" stroke="#0A0A0A" stroke-width="2" stroke-miterlimit="10" stroke-linecap="round" stroke-linejoin="round"/>
<path d="M231 424C231 424 230.167 433.333 217.5 420C215.667 418 211.5 409.167 214.833 406.667C218.167 404.167 219 395.833 223.833 394.5C228.667 393.167 231 386.5 237.667 388C237.667 388 243.333 380.667 248.833 383.167" stroke="#0A0A0A" stroke-width="2" stroke-miterlimit="10" stroke-linecap="round" stroke-linejoin="round"/>
<path d="M728.166 372.833C728.166 372.833 720.5 394 714.166 394.667C712.5 394.833 709 393.833 711.666 386.833C715 378.333 717.833 372.667 718.5 369" stroke="#0A0A0A" stroke-width="2" stroke-miterlimit="10" stroke-linecap="round" stroke-linejoin="round"/>
<path d="M738.167 378.5C735.833 384.5 732.667 394.833 724.5 401.5C723.333 402.5 716.5 403.333 719.5 396C720.333 393.833 723.833 386.833 725 383C726.167 379.833 727.167 376.5 727.333 374.833" stroke="#0A0A0A" stroke-width="2" stroke-miterlimit="10" stroke-linecap="round" stroke-linejoin="round"/>
<path d="M746.833 382.833C746.833 382.833 741.5 396.5 733.833 401.167C727 405.333 727.666 398.5 727.666 398.5" stroke="#0A0A0A" stroke-width="2" stroke-miterlimit="10" stroke-linecap="round" stroke-linejoin="round"/>
<path d="M713.5 382.333C709.667 388.333 706.667 379 706 374.167C705.667 371.167 708.167 367.667 709.833 365.333C712.167 361.667 714.833 360.833 717.667 361.333C720.833 362 723.833 362 726.5 363.167C728.333 364 729.667 365.833 731.5 366C740.167 366.667 740 372 744.833 373.333C749.667 374.667 748.667 378.667 752.333 381.833C755.5 384.667 751 392 749.833 393.5C736.333 409.333 742.167 392.333 742.167 392.333" stroke="#0A0A0A" stroke-width="2" stroke-miterlimit="10" stroke-linecap="round" stroke-linejoin="round"/>
<path d="M539.833 471.5C540.166 488 542.666 526.667 542.166 530" stroke="#0A0A0A" stroke-width="2" stroke-miterlimit="10" stroke-linecap="round" stroke-linejoin="round"/>
<path d="M534 427C534 427 568.5 454.333 569.5 456.833C570.167 458.667 556 460.667 547 462.333" stroke="#0A0A0A" stroke-width="2" stroke-miterlimit="10" stroke-linecap="round" stroke-linejoin="round"/>
<path d="M482 469.5C482 469.5 479.5 516.667 480 530" stroke="#0A0A0A" stroke-width="2" stroke-miterlimit="10" stroke-linecap="round" stroke-linejoin="round"/>
<path d="M531 427C525.667 428.333 487.5 427 487.5 427C488.167 432.833 487.833 438 487 442.167C484 443.667 481.333 446 479.833 448.833C479.667 439 479.5 403.333 485.667 399.167C492.833 394.167 500.167 409.833 500.167 409.833C500.167 409.833 501.5 399 507.833 396.667C513.667 394.5 522.167 408 522.167 408C522.167 408 526.5 395.833 531.167 399.833C535.667 403.833 536.333 425.667 531 427Z" fill="#0A0A0A" stroke="#0A0A0A" stroke-width="2" stroke-miterlimit="10" stroke-linecap="round" stroke-linejoin="round"/>
<path d="M479.166 450.833C476.833 449.167 473.5 448.167 469.333 450.833C459.833 457 468.833 471.833 481.833 469.5" stroke="#0A0A0A" stroke-width="2" stroke-miterlimit="10" stroke-linecap="round" stroke-linejoin="round"/>
<path d="M479.833 526.333C479.833 526.333 472.167 519.667 467.5 523.167C462.833 526.833 467.5 529.833 467.5 529.833C467.5 529.833 401.667 561.833 382 588.5C362.333 615.167 337.667 718.333 341.833 745C346 771.833 394.333 767.667 394.333 767.667" stroke="#0A0A0A" stroke-width="2" stroke-miterlimit="10" stroke-linecap="round" stroke-linejoin="round"/>
<path d="M413 769.167L396.833 678C395.833 672.667 399.833 667.833 405.333 667.667L601.833 663.333C607.5 663.167 611.833 668.333 610.667 674L590.5 769.333C589.667 773.333 586 776.333 581.833 776.333H421.667C417.5 776.5 413.833 773.333 413 769.167Z" stroke="#0A0A0A" stroke-width="2" stroke-miterlimit="10" stroke-linecap="round" stroke-linejoin="round"/>
<path d="M514.667 723.167C515.5 716.5 510.834 710.333 503.834 710.333C496.834 710.333 492.167 716.5 493 723.167C493.834 728.833 498.5 732.833 503.834 732.833C509.167 732.833 514 728.833 514.667 723.167Z" stroke="#0A0A0A" stroke-width="2" stroke-miterlimit="10" stroke-linecap="round" stroke-linejoin="round"/>
<path d="M542.167 522.166C542.167 522.166 556.834 514.5 551.834 530C551.834 530 608 565.333 628 592.833C647.834 620.333 687 732.167 668.5 750.833C650 769.333 607.834 764.5 607.834 764.5" stroke="#0A0A0A" stroke-width="2" stroke-miterlimit="10" stroke-linecap="round" stroke-linejoin="round"/>
<path d="M420.333 776.5H414.333V777.833C414.333 781.167 417 783.833 420.333 783.833H584.833C588.166 783.833 590.833 781.167 590.833 777.833H585.166" stroke="#0A0A0A" stroke-width="2" stroke-miterlimit="10" stroke-linecap="round" stroke-linejoin="round"/>
<path d="M420.167 469.833C420.167 469.833 439.5 506.5 438 512.5C436.334 518.333 432.834 521.5 438.167 522.333C443.5 523.167 440.5 536.667 440.5 536.667" stroke="#0A0A0A" stroke-width="2" stroke-miterlimit="10" stroke-linecap="round" stroke-linejoin="round"/>
<path d="M479.833 532.167C479.833 532.167 476.666 552 487.833 558C499.166 563.833 493.333 572.5 493 591.167C492.666 609.833 450.833 578.167 458.833 538.667" stroke="#0A0A0A" stroke-width="2" stroke-miterlimit="10" stroke-linecap="round" stroke-linejoin="round"/>
<path d="M493 596.667C493 596.667 491.167 651.333 489.5 658.667" stroke="#0A0A0A" stroke-width="2" stroke-miterlimit="10" stroke-linecap="round" stroke-linejoin="round"/>
<path d="M542.167 532.167C542.167 532.167 542.667 551.5 534.834 558C527 564.333 532.5 592.167 534.834 594.333C537.167 596.5 563.334 584.667 561.834 542" stroke="#0A0A0A" stroke-width="2" stroke-miterlimit="10" stroke-linecap="round" stroke-linejoin="round"/>
<path d="M534.833 594.333C534.833 594.333 532 598.667 534.833 606.167C537.667 613.667 539.333 653.333 539.333 653.333" stroke="#0A0A0A" stroke-width="2" stroke-miterlimit="10" stroke-linecap="round" stroke-linejoin="round"/>
<path d="M414.333 623.833C414.333 623.833 407.833 631.333 414.333 632.333C420.833 633.333 417.5 638.167 420.167 658.667" stroke="#0A0A0A" stroke-width="2" stroke-miterlimit="10" stroke-linecap="round" stroke-linejoin="round"/>
<path d="M602.167 616.833C602.167 616.833 606.5 619.5 602.167 623.833C597.833 628.167 599.5 645.333 598.5 653.333" stroke="#0A0A0A" stroke-width="2" stroke-miterlimit="10" stroke-linecap="round" stroke-linejoin="round"/>
<path d="M520.833 483.833C520.833 483.833 514.5 486.333 507.333 483.833C505 483 511.333 497.667 517.833 488.333" stroke="#0A0A0A" stroke-width="2" stroke-miterlimit="10" stroke-linecap="round" stroke-linejoin="round"/>
<path d="M494.333 575.333C494.333 575.333 509.166 585.667 530.833 575.333" stroke="#0A0A0A" stroke-width="2" stroke-miterlimit="10" stroke-linecap="round" stroke-linejoin="round"/>
<path d="M669.833 407.833C671.398 407.833 672.667 406.565 672.667 405C672.667 403.435 671.398 402.167 669.833 402.167C668.268 402.167 667 403.435 667 405C667 406.565 668.268 407.833 669.833 407.833Z" fill="#0A0A0A"/>
<path d="M669.833 420.5C671.398 420.5 672.667 419.231 672.667 417.667C672.667 416.102 671.398 414.833 669.833 414.833C668.268 414.833 667 416.102 667 417.667C667 419.231 668.268 420.5 669.833 420.5Z" fill="#0A0A0A"/>
<path d="M261.833 745.167H210.833" stroke="#0A0A0A" stroke-width="2" stroke-miterlimit="10" stroke-linecap="round" stroke-linejoin="round"/>
<path d="M342 745.167H326.5" stroke="#0A0A0A" stroke-width="2" stroke-miterlimit="10" stroke-linecap="round" stroke-linejoin="round"/>
<path d="M803.833 745.167H672.833" stroke="#0A0A0A" stroke-width="2" stroke-miterlimit="10" stroke-linecap="round" stroke-linejoin="round"/>
<path d="M510.334 457C510.334 466 503 473.333 494 473.333C485 473.333 477.667 466 477.667 457C477.667 454 478.5 451.333 479.834 449C481.5 446 484 443.667 487 442.333C489.167 441.333 491.5 440.833 494 440.833C503 440.667 510.334 447.833 510.334 457Z" stroke="#0A0A0A" stroke-width="2" stroke-miterlimit="10" stroke-linecap="round" stroke-linejoin="round"/>
<path d="M530.666 473.333C539.687 473.333 547 466.021 547 457C547 447.979 539.687 440.667 530.666 440.667C521.646 440.667 514.333 447.979 514.333 457C514.333 466.021 521.646 473.333 530.666 473.333Z" stroke="#0A0A0A" stroke-width="2" stroke-miterlimit="10" stroke-linecap="round" stroke-linejoin="round"/>
<path d="M478.5 462C478.5 462 477 459.5 475.167 460.5" stroke="#0A0A0A" stroke-width="2" stroke-miterlimit="10" stroke-linecap="round" stroke-linejoin="round"/>
<path d="M265.333 536.5C265.333 536.5 301.667 539.167 305.833 542.167C310 545.167 300.833 594.5 262.5 584.167" stroke="#0A0A0A" stroke-width="2" stroke-miterlimit="10" stroke-linecap="round" stroke-linejoin="round"/>
<path d="M424.667 532.167C424.667 532.167 402.167 534.833 389.334 536.5C376.5 538.167 383.5 555.167 389.334 568.667" stroke="#0A0A0A" stroke-width="2" stroke-miterlimit="10" stroke-linecap="round" stroke-linejoin="round"/>
<path d="M755.667 635.667C755.667 635.667 763.834 687.833 762.5 733" stroke="#0A0A0A" stroke-width="2" stroke-miterlimit="10" stroke-linecap="round" stroke-linejoin="round"/>
<path d="M727.5 642.667C727.5 642.667 754 694.5 761.833 694.5" stroke="#0A0A0A" stroke-width="2" stroke-miterlimit="10" stroke-linecap="round" stroke-linejoin="round"/>
<path d="M397.667 787.5C397.667 789.667 388 791.333 375.833 791.333C363.833 791.333 354 789.667 354 787.5C354 785.333 363.667 783.667 375.833 783.667C388 783.667 397.667 785.333 397.667 787.5Z" stroke="#0A0A0A" stroke-width="2" stroke-miterlimit="10" stroke-linecap="round" stroke-linejoin="round"/>
<path d="M397.667 787.5V823.167C397.667 826.5 388 829.167 375.833 829.167C363.833 829.167 354 826.5 354 823.167V787.5C354 789.667 363.667 791.333 375.833 791.333C388 791.333 397.667 789.667 397.667 787.5Z" stroke="#0A0A0A" stroke-width="2" stroke-miterlimit="10" stroke-linecap="round" stroke-linejoin="round"/>
<path d="M354.167 797C354.167 797 339.5 789 341.834 805C344.167 821 354.167 815.833 354.167 815.833" stroke="#0A0A0A" stroke-width="2" stroke-miterlimit="10" stroke-linecap="round" stroke-linejoin="round"/>
<path d="M324.667 765.167V663.667H311.167V778.667L324.667 765.167Z" stroke="#0A0A0A" stroke-width="2" stroke-miterlimit="10" stroke-linecap="round" stroke-linejoin="round"/>
<path d="M268 663.667C268 663.667 269.667 643.833 262 634.833H280.667L286.833 663.667H268Z" stroke="#0A0A0A" stroke-width="2" stroke-miterlimit="10" stroke-linecap="round" stroke-linejoin="round"/>
<path d="M282.667 663.667C282.667 663.667 281.833 632.167 275.5 624H290.667L295.333 663.667H282.667Z" fill="#FF4560" stroke="#FF4560" stroke-width="2" stroke-miterlimit="10" stroke-linecap="round" stroke-linejoin="round"/>
<path d="M311.166 620.833C311.166 620.833 307.666 635.5 309.333 663.667H291.833C291.833 663.667 291.833 624.333 289.333 610.5L313.333 612.667C313.333 612.667 314.833 617.333 315.166 620.167L311.166 620.833Z" fill="#FFE843" stroke="#FFE843" stroke-width="2" stroke-miterlimit="10" stroke-linecap="round" stroke-linejoin="round"/>
<path d="M326.5 618.333C321.834 628.667 321.834 663.667 321.834 663.667H309.334C307.5 635.5 311.167 620.833 311.167 620.833L315.167 620.167L326.5 618.333Z" stroke="#0A0A0A" stroke-width="2" stroke-miterlimit="10" stroke-linecap="round" stroke-linejoin="round"/>
<path d="M311.167 663.667H263V778.667H311.167V663.667Z" stroke="#0A0A0A" stroke-width="2" stroke-miterlimit="10" stroke-linecap="round" stroke-linejoin="round"/>
<path d="M287 703.5C291.603 703.5 295.334 699.769 295.334 695.167C295.334 690.564 291.603 686.833 287 686.833C282.398 686.833 278.667 690.564 278.667 695.167C278.667 699.769 282.398 703.5 287 703.5Z" stroke="#0A0A0A" stroke-width="2" stroke-miterlimit="10" stroke-linecap="round" stroke-linejoin="round"/>
<path d="M261.833 620.833C261.833 620.833 236.5 638.667 250.5 733.167" stroke="#0A0A0A" stroke-width="2" stroke-miterlimit="10" stroke-linecap="round" stroke-linejoin="round"/>
<path d="M732.667 751.833C740.167 752.833 745 754.5 745 756.5C745 759.667 731.833 762.167 715.5 762.167C699.167 762.167 686 759.667 686 756.5C686 754.667 690.5 753 697.333 752" stroke="#0A0A0A" stroke-width="2" stroke-miterlimit="10" stroke-linecap="round" stroke-linejoin="round"/>
<path d="M734.5 783.167C734.5 785.167 726 786.833 715.5 786.833C705 786.833 696.5 785.167 696.5 783.167C696.5 783.167 681.334 772.667 686 756.5C686 759.667 699.167 762.167 715.5 762.167C731.834 762.167 745 759.667 745 756.5C749.667 772.667 734.5 783.167 734.5 783.167Z" stroke="#0A0A0A" stroke-width="2" stroke-miterlimit="10" stroke-linecap="round" stroke-linejoin="round"/>
<path d="M720.333 756.833C726.833 756.667 732.333 751.667 733.167 745.333C733.5 742.5 733.5 739.667 732.667 737.333C730.167 730.5 726.167 747 722 749.833C722 749.833 718.167 730 715.667 727.167C713.167 724.333 707.833 745.833 708.5 749C708.5 749 703.333 747 701.167 737.833C699.833 732.333 697.833 737 698 743.5C698 750.5 703.5 756.167 710.5 756.667C713.167 757 716.5 757 720.333 756.833Z" fill="#0A0A0A" stroke="#0A0A0A" stroke-width="2" stroke-miterlimit="10" stroke-linecap="round" stroke-linejoin="round"/>
<path d="M718.5 369C718.5 369 717 368.5 716.167 369.667" stroke="#0A0A0A" stroke-width="2" stroke-miterlimit="10" stroke-linecap="round" stroke-linejoin="round"/>
<path d="M437 633.667C437 633.667 459.667 634.667 476.333 632.333" stroke="#0A0A0A" stroke-width="2" stroke-miterlimit="10" stroke-linecap="round" stroke-linejoin="round"/>
<path d="M554 633.833C561.5 634 576.667 634 588.5 632.333" stroke="#0A0A0A" stroke-width="2" stroke-miterlimit="10" stroke-linecap="round" stroke-linejoin="round"/>
<path d="M325.167 405C325.167 405 339 432 343.667 436.5C348.334 441 367.5 403.5 367.5 403.5" stroke="#0A0A0A" stroke-width="2" stroke-miterlimit="10" stroke-linecap="round" stroke-linejoin="round"/>
<path d="M345.167 380.333C345.167 380.333 339 388.333 341.5 390.5C344 392.667 342.333 412.833 343.667 414.5" stroke="#0A0A0A" stroke-width="2" stroke-miterlimit="10" stroke-linecap="round" stroke-linejoin="round"/>
<path d="M350 404.333C351.289 404.333 352.334 403.289 352.334 402C352.334 400.711 351.289 399.667 350 399.667C348.712 399.667 347.667 400.711 347.667 402C347.667 403.289 348.712 404.333 350 404.333Z" fill="#0A0A0A"/>
<path d="M508.167 197C508.167 197 483.167 211.833 482.667 201.333C482.167 190.833 510.333 193.667 510.333 193.667L525.667 196.667L528.333 204C528.333 204 515.833 206.667 508.167 197Z" fill="#0A0A0A" stroke="#0A0A0A" stroke-width="2" stroke-miterlimit="10" stroke-linecap="round" stroke-linejoin="round"/>
<path d="M532.833 211.833C530.333 213.833 529 216.5 529 216.5C526 209.667 529.333 202.833 525.333 198C521.667 193.667 490.167 197.167 484.5 197.833C484 197.833 483.667 198 483.667 198C476.833 198.833 434.167 203.333 437.833 195.167C441.833 186.333 484.833 191.167 484.833 191.167C484.833 191.167 482.833 180.167 488.5 176.667C499.5 169.667 522.667 168.667 528.167 176.333C536.5 187.333 533 210.667 532.833 211.833Z" fill="#FF4560" stroke="#FF4560" stroke-width="2" stroke-miterlimit="10" stroke-linecap="round" stroke-linejoin="round"/>
<path d="M484.667 189.333C484.667 189.333 497.667 187.167 501.834 189.333" stroke="#0A0A0A" stroke-width="2" stroke-miterlimit="10" stroke-linecap="round" stroke-linejoin="round"/>
<path d="M535.667 220.833C535.667 220.833 532.167 220.5 531.667 224.5" stroke="#0A0A0A" stroke-width="2" stroke-miterlimit="10" stroke-linecap="round" stroke-linejoin="round"/>
<path d="M532.834 211.833C534.834 210.167 537.834 209 541.334 210.333C549.167 213.167 547 229.667 531.667 229.833" stroke="#0A0A0A" stroke-width="2" stroke-miterlimit="10" stroke-linecap="round" stroke-linejoin="round"/>
<path d="M604.833 521.5C604.833 521.5 623.166 502.667 629 499.667C634.833 496.667 641.833 494.5 641.833 494.5" stroke="#0A0A0A" stroke-width="2" stroke-miterlimit="10" stroke-linecap="round" stroke-linejoin="round"/>
<path d="M641.833 506.333C641.833 506.333 644.5 508 651 509C657.5 510 683.666 509 685.333 512.167C687 515.333 674 519 655.166 518.667" stroke="#0A0A0A" stroke-width="2" stroke-miterlimit="10" stroke-linecap="round" stroke-linejoin="round"/>
<path d="M669.833 518.667C669.833 518.667 677.5 519 682.5 518.667C687.5 518.333 687.666 523.5 674.166 525.5C660.666 527.5 655.333 527 655.333 527" stroke="#0A0A0A" stroke-width="2" stroke-miterlimit="10" stroke-linecap="round" stroke-linejoin="round"/>
<path d="M664.5 526.667C664.5 526.667 666.333 527.333 668.666 528.167C671 529 679.666 525.5 682.5 526.667C685.333 527.667 681.333 531.5 676.666 533.333C671.5 535.5 661.5 535.167 656.333 534.167" stroke="#0A0A0A" stroke-width="2" stroke-miterlimit="10" stroke-linecap="round" stroke-linejoin="round"/>
<path d="M675 533.833C675 533.833 674.833 536.333 672.167 538C669.667 539.667 650.167 541 646.833 541.5C643.5 541.833 632.5 540.667 628.167 540.667C623.833 540.667 620 543.833 620 543.833" stroke="#0A0A0A" stroke-width="2" stroke-miterlimit="10" stroke-linecap="round" stroke-linejoin="round"/>
<path d="M644.833 506.333V483.833H716.5V577.5H644.833V545.833" stroke="#0A0A0A" stroke-width="2" stroke-miterlimit="10" stroke-linecap="round" stroke-linejoin="round"/>
<path d="M691.833 483.833H670C670 480.5 672.667 478 675.833 478H685.833C689.167 478 691.833 480.667 691.833 483.833Z" fill="#0A0A0A" stroke="#0A0A0A" stroke-width="2" stroke-miterlimit="10" stroke-linecap="round" stroke-linejoin="round"/>
<path d="M572 535C572 535 597.167 529.167 596.167 523C595.167 516.833 604.833 523 604.833 523C606.833 529.833 620.167 545.667 620.167 545.667C620.167 545.667 621.833 549.167 617.5 550.167C613.167 551.167 604.833 558.667 604.833 558.667" stroke="#0A0A0A" stroke-width="2" stroke-miterlimit="10" stroke-linecap="round" stroke-linejoin="round"/>
</g>
<defs>
<clipPath id="clip0_504_1643">
<rect width="1000" height="1000" fill="white"/>
</clipPath>
</defs>
</svg>
