<svg width="760" height="570" viewBox="0 0 760 570" fill="none" xmlns="http://www.w3.org/2000/svg">
<rect width="760" height="570" fill="white"/>
<path d="M579.001 255.839V257.019C578.534 257.775 577.878 258.307 577.064 258.654C576.884 258.731 576.715 258.841 576.53 258.902C575.497 259.243 574.665 259.907 573.918 260.652C573.086 261.48 572.312 262.37 571.561 263.274C570.313 264.777 569.111 266.322 567.873 267.834C566.634 269.349 565.377 270.849 564.12 272.35C562.559 274.211 560.991 276.067 559.425 277.924C558.49 279.032 557.551 280.136 556.621 281.249C555.593 282.482 554.602 283.748 553.54 284.952C552.945 285.624 552.277 286.247 551.575 286.808C549.821 288.213 547.732 288.726 545.543 288.807C544.177 288.856 542.807 288.84 541.43 288.684C540.238 288.549 539.015 288.607 537.793 288.779C536.814 288.918 535.861 289.059 534.951 289.448C533.92 289.887 533.059 290.52 532.421 291.475C531.69 292.565 531.212 293.751 530.822 294.994C530.317 296.606 529.968 298.254 529.645 299.907C529.261 301.869 528.826 303.816 528.264 305.734C527.77 307.42 526.951 308.916 525.657 310.134C524.683 311.052 523.63 311.862 522.495 312.569C520.09 314.068 517.838 315.772 515.749 317.682C514.564 318.766 513.412 319.886 512.268 321.012C510.785 322.472 509.274 323.89 507.629 325.169C506.396 326.129 505.245 327.194 504.064 328.219C503.324 328.862 502.616 329.541 501.857 330.161C500.429 331.328 498.899 332.355 497.333 333.33C495.299 334.596 493.199 335.734 491.065 336.818C490.052 337.333 489.029 337.83 488.001 338.314C486.794 338.88 485.58 339.432 484.362 339.968C482.64 340.728 480.912 341.477 479.18 342.213C477.485 342.935 475.787 343.651 474.077 344.338C471.891 345.214 469.699 346.072 467.498 346.91C466.18 347.411 464.856 347.908 463.51 348.326C460.363 349.302 457.149 349.997 453.888 350.466C452.146 350.717 450.407 350.986 448.664 351.239C447.698 351.38 446.73 351.504 445.764 351.636C444.797 351.767 443.824 351.873 442.862 352.036C440.856 352.375 438.856 352.744 436.854 353.105C435.122 353.416 433.392 353.736 431.66 354.046C430.158 354.315 428.653 354.572 427.151 354.845C425.267 355.184 423.391 355.571 421.5 355.869C419.026 356.26 416.542 356.581 414.062 356.937C412.709 357.13 411.363 357.427 410.005 357.513C408.123 357.629 406.278 357.975 404.422 358.246C400.941 358.751 397.486 359.418 394.037 360.123C393.307 360.272 392.578 360.418 391.846 360.558C389.657 360.977 387.47 361.412 385.276 361.804C382.732 362.258 380.184 362.689 377.633 363.103C375.821 363.396 374.007 363.686 372.187 363.9C370.788 364.064 369.375 364.109 367.968 364.208C367.771 364.221 367.572 364.232 367.487 364.459H358.045C357.926 364.378 357.811 364.242 357.683 364.227C357.294 364.183 356.896 364.216 356.507 364.167C354.879 363.963 353.257 363.698 351.624 363.54C349.668 363.352 347.762 362.886 345.852 362.483C342.229 361.719 338.83 360.285 335.459 358.785C333.955 358.116 332.451 357.444 330.915 356.86C329.742 356.416 328.563 355.996 327.402 355.517C325.397 354.69 323.505 353.685 321.701 352.477C319.423 350.95 317.51 349.068 315.819 346.928C314.717 345.532 313.892 343.969 313.056 342.413C312.369 341.134 311.619 339.903 310.714 338.758C309.253 336.912 307.322 336.03 305.029 335.875C303.086 335.744 301.187 336.095 299.372 336.745C297.825 337.297 296.332 338.002 294.828 338.67C293.393 339.306 291.952 339.937 290.44 340.355C289.195 340.7 287.919 340.928 286.611 340.919C284.596 340.906 282.654 340.539 280.721 339.957C277.759 339.066 275.045 337.673 272.415 336.103C269.378 334.291 266.535 332.192 263.8 329.953C261.83 328.339 259.881 326.699 257.939 325.051C255.999 323.405 254.025 321.795 252.169 320.058C250.135 318.154 248.163 316.18 246.41 314.001C244.68 311.851 243.15 309.576 241.981 307.072C241.048 305.075 240.426 302.971 239.951 300.822C239.249 297.649 238.444 294.499 237.904 291.291C237.866 291.066 237.757 290.853 237.665 290.589C237.132 290.589 236.6 290.489 236.123 290.609C234.928 290.909 233.688 290.602 232.506 290.948C230.502 290.932 228.528 291.265 226.553 291.527C224.694 291.775 222.838 292.047 220.986 292.365C219.055 292.698 217.154 293.159 215.234 293.533C213.653 293.839 212.112 294.29 210.567 294.73C209.324 295.084 208.071 295.407 206.843 295.805C205.241 296.325 203.646 296.871 202.07 297.467C199.943 298.27 197.818 299.082 195.732 299.984C193.859 300.794 192.044 301.733 190.201 302.611C189.888 302.76 189.563 302.884 189.202 303.037C188.922 302.704 188.658 302.419 188.425 302.109C187.134 300.387 185.855 298.657 184.567 296.934C183.174 295.074 181.913 293.146 181.376 290.843C181.23 290.82 181.115 290.802 181 290.783C181 290.311 181 289.838 181 289.366C181.285 289.276 181.443 289.074 181.543 288.799C181.833 287.998 182.454 287.547 183.214 287.246C183.724 287.044 184.225 286.819 184.742 286.639C187.371 285.726 190.002 284.83 192.692 284.102C195.074 283.456 197.468 282.866 199.882 282.367C202.562 281.813 205.264 281.369 207.96 280.892C208.845 280.734 209.737 280.626 210.628 280.498C212.02 280.298 213.412 280.091 214.806 279.904C215.969 279.747 217.133 279.604 218.299 279.471C219.114 279.378 219.93 279.286 220.749 279.24C222.666 279.13 224.584 279.048 226.503 278.953C226.619 278.947 226.735 278.927 226.854 278.914C227.318 278.863 227.782 278.771 228.247 278.768C230.607 278.753 232.967 278.765 235.326 278.757C235.626 278.757 235.928 278.701 236.268 278.668C236.268 278.009 236.273 277.423 236.268 276.84C236.259 276.015 236.169 275.182 236.253 274.367C236.368 273.235 236.287 272.101 236.466 270.964C236.678 269.615 236.825 268.252 237.097 266.914C237.607 264.413 238.33 261.973 239.28 259.599C239.951 257.92 240.72 256.283 241.589 254.706C242.646 252.784 243.834 250.936 245.147 249.17C246.974 246.715 248.905 244.347 251.068 242.183C253.318 239.931 255.516 237.631 257.874 235.486C259.559 233.952 261.122 232.285 262.721 230.658C263.382 229.986 264.108 229.4 264.851 228.83C266.54 227.531 268.378 226.483 270.282 225.542C272.504 224.443 274.814 223.563 277.164 222.79C278.876 222.23 280.611 221.731 282.351 221.267C284.848 220.6 287.359 219.981 289.868 219.355C292.222 218.768 294.587 218.219 296.937 217.615C299.444 216.971 301.925 216.236 304.375 215.398C306.305 214.737 308.233 214.072 310.16 213.404C311.529 212.93 312.892 212.435 314.266 211.974C315.939 211.412 317.619 210.869 319.299 210.328C321.314 209.679 323.316 208.982 325.354 208.413C327.84 207.719 330.339 207.073 332.889 206.615C335.124 206.214 337.356 205.853 339.627 205.787C339.824 205.782 340.022 205.769 340.106 205.541H344.118C344.222 205.845 344.487 205.799 344.707 205.787C346.126 205.705 347.518 205.994 348.925 206.066C349.548 206.097 350.169 206.191 350.789 206.261C351.371 206.327 351.952 206.401 352.532 206.47C353.388 206.57 354.246 206.647 355.097 206.771C356.527 206.983 357.947 207.271 359.382 207.442C361.325 207.673 363.232 208.168 365.196 208.234C365.311 208.237 365.423 208.306 365.537 208.319C367.126 208.521 368.714 208.739 370.304 208.91C371.9 209.08 373.499 209.198 375.097 209.344C375.876 209.415 376.654 209.501 377.433 209.572C378.407 209.659 379.382 209.739 380.358 209.82C381.294 209.897 382.234 209.943 383.165 210.052C385.108 210.282 387.053 210.474 389.011 210.551C389.903 210.585 390.787 210.812 391.679 210.889C393.785 211.074 395.895 211.205 398.002 211.389C399.871 211.553 401.736 211.764 403.604 211.938C404.15 211.989 404.706 211.958 405.252 212.015C406.144 212.109 407.028 212.273 407.92 212.358C409.049 212.468 410.182 212.527 411.316 212.612C412.25 212.683 413.185 212.765 414.121 212.838C415.174 212.92 416.228 212.993 417.28 213.083C418.175 213.16 419.069 213.276 419.964 213.344C420.902 213.416 421.843 213.444 422.783 213.503C423.447 213.545 424.116 213.568 424.773 213.67C426.321 213.909 427.879 214.029 429.442 214.109C429.639 214.119 429.837 214.109 430.031 214.134C431.385 214.309 432.733 214.545 434.092 214.66C436.706 214.883 439.305 215.218 441.901 215.582C444.533 215.951 447.153 216.394 449.78 216.795C453.458 217.358 457.092 218.138 460.706 219.012C462.305 219.399 463.909 219.768 465.491 220.216C467.754 220.855 470.002 221.554 472.252 222.239C473.603 222.651 474.949 223.082 476.296 223.512C477.229 223.81 478.158 224.117 479.088 224.425C480.726 224.97 482.369 225.499 483.998 226.072C486.144 226.826 488.279 227.616 490.419 228.387C492.336 229.077 494.26 229.753 496.173 230.456C498.013 231.132 499.841 231.84 501.68 232.521C503.554 233.216 505.435 233.898 507.314 234.58C509.008 235.197 510.703 235.81 512.399 236.419C513.358 236.763 514.326 237.089 515.285 237.434C516.982 238.042 518.666 238.688 520.375 239.264C522.231 239.89 524.109 240.456 525.98 241.041C528.785 241.92 531.585 242.825 534.403 243.663C537.145 244.478 539.905 245.228 542.66 245.995C545.756 246.856 548.85 247.723 551.952 248.555C554.943 249.357 557.943 250.129 560.945 250.89C563.336 251.497 565.733 252.075 568.132 252.648C570.112 253.12 572.097 253.571 574.083 254.017C575.152 254.256 576.228 254.479 577.304 254.684C578.042 254.825 578.616 255.181 579.001 255.831V255.839ZM322.442 256.278C322.435 256.793 322.424 257.26 322.424 257.728C322.424 271.384 322.424 285.04 322.424 298.695C322.424 298.97 322.409 299.247 322.431 299.521C322.449 299.744 322.509 299.964 322.562 300.246C324.249 300.239 325.887 300.289 327.548 300.208C327.719 299.723 327.666 299.29 327.666 298.867C327.671 293.948 327.67 289.028 327.67 284.109C327.67 283.755 327.662 283.4 327.683 283.046C327.691 282.915 327.77 282.789 327.86 282.544C328.109 282.849 328.311 283.04 328.447 283.269C328.914 284.056 329.537 284.711 330.205 285.321C331.769 286.751 333.55 287.759 335.67 288.133C336.808 288.333 337.945 288.238 339.083 288.253C340.89 288.276 342.572 287.769 344.15 286.921C345.752 286.06 347.152 284.932 348.275 283.494C349.095 282.443 349.864 281.347 350.422 280.131C351.447 277.897 351.889 275.508 352.117 273.084C352.257 271.597 352.135 270.098 351.891 268.629C351.557 266.615 351.07 264.643 350.027 262.841C349.612 262.124 349.203 261.412 348.667 260.784C348.113 260.137 347.606 259.463 346.941 258.89C345.237 257.424 343.361 256.386 341.152 255.908C339.401 255.529 337.668 255.527 335.908 255.796C332.635 256.296 330.243 258.13 328.334 260.72C328.16 260.957 328.037 261.253 327.639 261.442C327.379 259.64 327.506 257.879 327.027 256.229C325.743 256.098 323.519 256.113 322.445 256.275L322.442 256.278ZM460.401 273.911C460.496 272.901 460.605 272.01 460.659 271.115C460.746 269.697 460.493 268.3 460.226 266.922C459.919 265.34 459.401 263.818 458.581 262.401C457.804 261.06 456.831 259.896 455.698 258.853C454.378 257.636 452.848 256.775 451.14 256.255C449.674 255.809 448.175 255.506 446.622 255.621C446.427 255.635 446.228 255.624 446.032 255.622C443.583 255.614 441.322 256.249 439.215 257.51C436.7 259.015 434.947 261.166 433.736 263.797C433.161 265.049 432.805 266.36 432.531 267.717C432.052 270.092 431.956 272.471 432.282 274.851C432.536 276.708 432.944 278.543 433.763 280.267C435.265 283.43 437.503 285.854 440.732 287.27C441.658 287.677 442.626 287.993 443.654 288.139C444.872 288.313 446.087 288.244 447.302 288.253C450.933 288.276 453.917 286.795 456.384 284.214C457.584 282.956 458.432 281.444 459.165 279.875C459.25 279.693 459.221 279.457 459.243 279.247C457.876 279.08 454.611 279.107 453.762 279.286C453.555 279.612 453.358 279.954 453.13 280.273C452.197 281.585 451.013 282.577 449.477 283.115C448.047 283.617 446.604 283.76 445.081 283.576C442.741 283.294 440.945 282.135 439.548 280.345C438.285 278.729 437.706 276.813 437.541 274.777C437.523 274.557 437.583 274.331 437.618 274.014C438.93 273.99 440.181 274.004 441.43 274.003C442.69 274.001 443.947 274.003 445.207 274.003H452.76C454.019 274.003 455.278 274.016 456.536 273.999C457.786 273.983 459.04 274.08 460.401 273.914V273.911ZM263.36 248.094C263.324 248.192 263.249 248.301 263.249 248.407C263.242 261.386 263.242 274.365 263.247 287.344C263.247 287.452 263.319 287.561 263.359 287.669C263.824 287.869 264.302 287.782 264.766 287.782C271.097 287.789 277.426 287.787 283.758 287.785C284.269 287.785 284.781 287.793 285.291 287.777C285.512 287.77 285.73 287.71 285.927 287.677C286.094 286.345 286.07 284.356 285.884 283.505C285.483 283.314 285.045 283.399 284.622 283.397C280.375 283.391 276.129 283.392 271.882 283.392C271.135 283.392 270.388 283.405 269.641 283.382C269.385 283.374 269.132 283.271 268.88 283.212C268.847 282.984 268.806 282.831 268.806 282.677C268.803 278.665 268.801 274.654 268.806 270.641C268.806 270.456 268.87 270.271 268.898 270.12C269.359 269.841 269.801 269.938 270.223 269.938C274.667 269.93 279.109 269.938 283.553 269.926C283.972 269.926 284.42 270.046 284.891 269.705C284.891 269.052 284.91 268.347 284.884 267.644C284.858 266.953 285.012 266.245 284.742 265.497C284.281 265.497 283.853 265.497 283.425 265.497C278.902 265.497 274.381 265.5 269.859 265.494C268.852 265.494 268.803 265.443 268.801 264.418C268.795 260.72 268.796 257.024 268.803 253.327C268.803 253.063 268.867 252.799 268.898 252.559C269.35 252.284 269.793 252.369 270.216 252.369C273.873 252.362 277.53 252.366 281.186 252.366C282.523 252.366 283.861 252.372 285.197 252.359C285.453 252.356 285.709 252.275 285.944 252.236C286.106 250.652 286.068 248.861 285.868 248.084C284.863 247.93 264.31 247.935 263.359 248.094H263.36ZM397.969 272.337C397.961 270.292 397.795 268.636 397.376 266.981C396.817 264.772 395.895 262.772 394.501 260.986C394.07 260.433 393.604 259.896 393.088 259.422C391.897 258.328 390.559 257.451 389.083 256.767C387.712 256.131 386.258 255.768 384.784 255.657C383.073 255.529 381.353 255.575 379.643 255.986C377.164 256.583 375.055 257.79 373.23 259.52C371.152 261.49 369.839 263.934 369.114 266.676C368.786 267.917 368.568 269.206 368.476 270.487C368.322 272.643 368.491 274.793 368.976 276.912C369.383 278.686 370.055 280.345 371.008 281.893C371.628 282.899 372.405 283.768 373.24 284.604C374.774 286.144 376.58 287.182 378.654 287.798C380.771 288.428 382.932 288.285 385.087 288.202C385.743 288.177 386.404 287.993 387.04 287.808C388.44 287.4 389.764 286.829 390.979 285.99C391.923 285.337 392.742 284.563 393.566 283.778C395.328 282.103 396.42 280.024 397.148 277.773C397.75 275.911 398.058 273.963 397.966 272.337H397.969ZM518.12 265.03C518.079 263.785 517.879 262.693 517.414 261.706C516.185 259.105 514.203 257.269 511.468 256.344C508.775 255.434 506.012 255.378 503.233 255.908C501.558 256.227 499.987 256.813 498.587 257.8C497.285 258.717 496.181 259.838 495.445 261.253C494.566 262.941 494.363 264.761 494.655 266.634C494.727 267.094 494.832 267.562 494.999 267.995C495.849 270.179 497.433 271.605 499.63 272.361C501.596 273.037 503.606 273.56 505.622 274.063C506.533 274.291 507.445 274.514 508.363 274.713C509.772 275.019 511.031 275.567 512.043 276.651C512.884 277.551 513.232 278.62 513.076 279.778C512.909 281.021 512.273 282.059 511.153 282.736C510.195 283.315 509.157 283.556 508.052 283.748C506.72 283.979 505.471 283.782 504.221 283.479C503.465 283.295 502.764 282.922 502.165 282.377C501.23 281.524 500.656 280.491 500.451 279.242C500.402 278.942 500.284 278.653 500.181 278.297C498.307 278.614 496.429 278.575 494.586 279.104C494.684 279.591 494.743 280.019 494.861 280.429C495.045 281.069 495.211 281.725 495.491 282.325C495.954 283.318 496.506 284.283 497.31 285.042C499.543 287.152 502.222 288.203 505.292 288.257C506.158 288.272 507.022 288.269 507.888 288.257C510.169 288.23 512.312 287.684 514.278 286.509C515.644 285.694 516.831 284.681 517.627 283.277C519.08 280.708 518.894 278.083 517.802 275.462C517.373 274.432 516.605 273.65 515.725 272.958C514.595 272.069 513.334 271.425 511.969 271.054C510.308 270.603 508.605 270.308 506.924 269.933C505.274 269.564 503.661 269.098 502.18 268.242C501.552 267.88 501.016 267.414 500.645 266.811C499.874 265.558 500.038 263.369 501.001 262.257C501.781 261.353 502.711 260.635 503.929 260.394C505.24 260.137 506.54 259.933 507.881 260.261C509.611 260.684 510.977 261.521 511.768 263.192C511.989 263.661 512.146 264.131 512.26 264.628C512.335 264.963 512.43 265.292 512.535 265.696C514.418 265.535 516.212 265.222 518.125 265.033L518.12 265.03ZM301.805 272.102C301.112 273.188 300.464 274.213 299.806 275.231C299.126 276.285 298.44 277.335 297.753 278.384C297.088 279.403 296.417 280.418 295.751 281.438C295.066 282.489 294.357 283.525 293.713 284.599C293.1 285.624 292.299 286.537 291.794 287.664C292.96 287.843 296.948 287.823 297.873 287.638C298.422 286.723 298.986 285.785 299.547 284.843C300.088 283.935 300.63 283.027 301.162 282.113C301.715 281.165 302.217 280.182 302.82 279.266C303.412 278.37 303.84 277.361 304.599 276.495C307.023 280.298 309.399 284.028 311.741 287.705C313.533 287.87 317.134 287.82 317.982 287.611C317.282 286.236 316.362 285.019 315.553 283.735C314.717 282.407 313.866 281.09 313.023 279.767C312.202 278.476 311.387 277.182 310.565 275.893C309.725 274.577 308.883 273.263 308.028 271.932C308.501 271.222 308.943 270.579 309.363 269.92C310.67 267.868 311.954 265.802 313.274 263.759C314.763 261.455 316.286 259.174 317.78 256.872C317.888 256.705 317.874 256.457 317.918 256.241C316.554 256.073 312.935 256.106 312.039 256.295C311.324 257.503 310.586 258.749 309.85 259.996C309.114 261.242 308.425 262.521 307.63 263.729C306.841 264.928 306.256 266.261 305.332 267.373C305.216 267.294 305.129 267.266 305.091 267.207C303.832 265.268 302.571 263.328 301.322 261.381C300.326 259.83 299.324 258.282 298.363 256.71C298.098 256.275 297.781 256.134 297.306 256.137C295.654 256.15 294.003 256.139 292.352 256.149C292.178 256.149 292.006 256.229 291.727 256.3C295.112 261.606 298.435 266.817 301.804 272.099L301.805 272.102ZM465.729 256.224C465.722 256.752 465.712 257.18 465.712 257.608C465.712 261.071 465.712 264.535 465.712 267.998C465.712 274.137 465.709 280.277 465.717 286.416C465.717 286.836 465.611 287.279 465.839 287.667C466.852 287.833 470.204 287.828 471.147 287.664C471.388 287.27 471.281 286.826 471.281 286.405C471.289 281.288 471.301 276.172 471.28 271.056C471.271 269.047 471.742 267.175 472.618 265.381C473.359 263.861 474.49 262.644 475.781 261.626C477.511 260.26 479.602 260.066 481.72 260.296C482.456 260.374 483.147 260.696 483.745 261.184C484.869 262.101 485.398 263.351 485.749 264.697C485.974 265.555 486.025 266.456 486.374 267.342C487.192 267.25 487.981 267.237 488.73 267.057C489.475 266.876 490.321 267.155 490.975 266.566C490.875 265.276 490.596 264.02 490.324 262.755C489.881 260.693 488.778 259.056 487.197 257.77C484.77 255.798 481.881 255.309 478.867 255.685C477.563 255.847 476.269 256.221 475.066 256.864C474.092 257.385 473.175 257.967 472.306 258.64C471.97 258.899 471.644 259.176 471.219 259.351C470.843 258.282 470.779 257.167 470.235 256.144C468.974 256.144 467.718 256.14 466.46 256.147C466.268 256.147 466.078 256.185 465.726 256.222L465.729 256.224ZM409.11 287.639C409.11 287.113 409.11 286.644 409.11 286.175C409.11 280.941 409.11 275.708 409.11 270.474C409.11 269.08 409.438 267.749 409.968 266.483C410.512 265.179 411.216 263.944 412.193 262.901C413.111 261.921 414.174 261.145 415.456 260.67C416.517 260.278 417.601 260.248 418.704 260.247C420.79 260.243 422.194 261.239 423.024 263.11C423.455 264.082 423.783 265.082 423.901 266.15C423.942 266.527 424.078 266.894 424.18 267.304C425.542 267.321 426.794 266.953 428.074 266.896C428.327 266.884 428.571 266.719 428.817 266.627C428.817 266.325 428.852 266.086 428.811 265.861C428.676 265.131 428.469 264.412 428.371 263.677C428.227 262.608 427.873 261.617 427.4 260.663C426.817 259.486 426.003 258.479 424.964 257.68C422.551 255.824 419.751 255.342 416.829 255.662C414.58 255.908 412.514 256.777 410.72 258.215C410.237 258.603 409.718 258.949 409.166 259.353C408.679 258.316 408.615 257.203 408.188 256.242C406.798 256.073 404.512 256.106 403.704 256.301C403.546 257.28 403.477 275.711 403.594 286.736C403.597 287.041 403.628 287.346 403.645 287.631C404.633 287.833 407.885 287.846 409.113 287.643L409.11 287.639ZM357.447 247.664C357.396 247.838 357.335 247.948 357.335 248.056C357.33 261.147 357.33 274.236 357.335 287.326C357.335 287.434 357.396 287.544 357.424 287.639C358.434 287.841 361.892 287.838 362.819 287.634C362.851 287.534 362.917 287.424 362.917 287.316C362.922 274.226 362.924 261.137 362.917 248.046C362.917 247.938 362.847 247.83 362.812 247.732C361.956 247.558 359.093 247.518 357.445 247.663L357.447 247.664ZM476.993 321.978C476.979 323.315 477.63 324.243 478.601 324.974C479.949 325.991 481.515 326.325 483.155 326.156C484.465 326.022 485.616 325.486 486.525 324.441C487.536 323.277 487.943 321.929 487.948 320.438C487.964 316.429 487.955 312.42 487.948 308.409C487.948 308.184 487.889 307.961 487.851 307.689C487.148 307.592 486.5 307.555 485.879 307.705C485.562 308.312 485.929 308.983 485.551 309.627C485.356 309.404 485.21 309.235 485.064 309.07C483.793 307.637 482.205 307.166 480.379 307.648C478.582 308.122 477.407 309.306 476.786 311.059C476.44 312.033 476.317 313.02 476.322 314.053C476.332 316.193 477.132 317.934 478.775 319.287C479.731 320.074 480.892 320.363 482.071 320.238C483.253 320.114 484.306 319.582 485.042 318.559C485.178 318.371 485.297 318.071 485.71 318.084C485.762 318.927 485.805 319.75 485.706 320.553C485.628 321.203 485.392 321.842 485.151 322.457C485.028 322.77 484.791 323.088 484.521 323.287C483.637 323.936 482.702 324.238 481.548 323.908C480.535 323.618 479.759 323.156 479.278 322.218C479.226 322.116 479.144 322.029 479.105 321.977H476.991L476.993 321.978ZM427.74 309.642C427.548 309.457 427.431 309.373 427.353 309.263C425.969 307.315 422.984 306.767 420.646 308.568C419.618 309.36 419.034 310.465 418.682 311.702C418.408 312.664 418.485 313.651 418.506 314.627C418.557 316.852 419.698 318.461 421.468 319.691C422.53 320.086 423.563 320.465 424.757 320.122C425.746 319.838 426.52 319.335 427.172 318.572C427.323 318.395 427.405 318.079 427.804 318.077C427.836 318.723 427.868 319.336 427.899 319.983C428.637 320.135 429.317 320.11 429.985 320.017C430.165 318.941 430.234 312.256 430.113 308.42C430.106 308.194 430.053 307.971 430.017 307.702C429.288 307.607 428.609 307.532 427.927 307.76C427.761 308.361 427.941 308.963 427.736 309.644L427.74 309.642ZM357.976 309.686C357.716 309.481 357.611 309.424 357.539 309.339C355.764 307.184 353.06 306.848 350.853 308.52C350.051 309.127 349.515 309.944 349.143 310.867C348.713 311.938 348.593 313.05 348.613 314.206C348.643 315.936 349.235 317.439 350.363 318.699C350.984 319.392 351.776 319.93 352.762 320.084C353.454 320.192 354.106 320.361 354.838 320.153C355.822 319.873 356.627 319.407 357.271 318.618C357.445 318.405 357.586 318.085 357.986 318.072C358.021 318.74 358.052 319.353 358.086 320.024C358.804 320.102 359.449 320.137 360.139 319.996C360.18 319.758 360.238 319.571 360.239 319.384C360.244 315.688 360.244 311.992 360.236 308.296C360.236 308.112 360.161 307.928 360.111 307.707C359.413 307.594 358.767 307.54 358.08 307.75C358.049 308.347 358.017 308.922 357.976 309.686V309.686ZM416.497 314.652C416.507 313.901 416.514 313.317 416.524 312.735C416.561 310.414 414.687 308.278 412.744 307.72C410.379 307.04 407.619 307.74 406.337 310.141C404.92 312.792 404.934 315.46 406.641 318.025C407.747 319.687 409.387 320.322 411.286 320.253C412.557 320.207 413.752 319.735 414.698 318.851C415.346 318.246 415.841 317.502 416.02 316.555H413.647C412.949 318.107 410.84 318.467 409.771 317.921C409.087 317.572 408.535 317.093 408.205 316.393C407.961 315.873 407.616 315.355 408.029 314.678C409.361 314.625 410.733 314.66 412.103 314.653C413.515 314.647 414.928 314.653 416.497 314.653V314.652ZM338.096 319.978C338.351 320.028 338.466 320.071 338.581 320.071C341.098 320.076 343.615 320.079 346.132 320.071C346.309 320.071 346.486 319.973 346.7 319.91C346.7 319.589 346.709 319.315 346.696 319.041C346.683 318.779 346.645 318.517 346.613 318.21C346.198 318.19 345.85 318.159 345.504 318.157C344.166 318.151 342.83 318.159 341.492 318.151C341.229 318.149 340.967 318.095 340.726 318.067C340.555 316.98 340.56 314.145 340.734 313.136C341.018 313.109 341.321 313.058 341.626 313.054C342.807 313.045 343.986 313.054 345.166 313.045C345.427 313.043 345.688 312.981 345.97 312.945C346.053 312.379 346.055 311.887 345.965 311.326C345.607 311.3 345.304 311.261 345.001 311.259C343.82 311.251 342.641 311.262 341.46 311.249C341.198 311.246 340.936 311.174 340.601 311.123C340.601 310.286 340.577 309.501 340.608 308.72C340.639 307.951 340.457 307.163 340.773 306.349C341.185 306.349 341.575 306.349 341.965 306.349C343.264 306.349 344.561 306.356 345.86 306.343C346.121 306.341 346.38 306.267 346.642 306.228C346.704 305.579 346.762 305.003 346.606 304.45C345.785 304.305 340.199 304.216 338.666 304.324C338.481 304.337 338.299 304.418 338.14 304.462C337.943 305.515 337.877 313.074 338.005 319.125C338.01 319.391 338.058 319.656 338.092 319.978H338.096ZM444.377 320.083C444.398 319.543 444.428 319.158 444.428 318.771C444.433 316.765 444.421 314.758 444.433 312.753C444.441 311.236 445.149 310.152 446.689 309.719C448.242 309.283 449.862 310.039 450.426 311.554C450.559 311.91 450.595 312.317 450.598 312.7C450.615 314.784 450.602 316.87 450.61 318.954C450.61 319.297 450.521 319.671 450.815 319.956C451.846 320.147 452.291 320.135 453.16 319.889C453.189 319.687 453.248 319.461 453.25 319.235C453.258 317.229 453.298 315.222 453.237 313.217C453.207 312.21 453.125 311.197 452.706 310.234C451.436 307.323 447.499 306.505 445.213 308.701C445.025 308.883 444.823 309.05 444.513 309.326C444.448 308.693 444.398 308.212 444.344 307.686C443.526 307.625 442.764 307.494 442.016 307.771C441.98 307.938 441.935 308.051 441.935 308.165C441.931 311.941 441.927 315.716 441.935 319.492C441.935 319.671 442.026 319.848 442.09 320.084C442.485 320.084 442.836 320.084 443.187 320.084C443.538 320.084 443.89 320.084 444.377 320.084V320.083ZM465.022 319.968C465.037 319.491 465.057 319.104 465.057 318.718C465.06 316.869 465.057 315.019 465.058 313.169C465.058 312.894 465.039 312.617 465.066 312.343C465.198 311.095 465.835 310.216 467.023 309.783C467.787 309.504 468.598 309.501 469.338 309.799C470.199 310.145 470.899 310.731 471.094 311.715C471.193 312.212 471.275 312.718 471.28 313.223C471.301 315.191 471.284 317.159 471.293 319.127C471.293 319.427 471.204 319.761 471.521 320.047C472.213 320.081 472.942 320.166 473.631 319.983C473.677 319.832 473.72 319.758 473.72 319.686C473.729 317.128 473.77 314.57 473.723 312.013C473.7 310.805 473.265 309.66 472.38 308.825C470.309 306.871 467.287 307.174 465.73 308.661C465.578 308.807 465.499 309.094 465.109 309.029C465.071 308.643 465.03 308.233 464.994 307.868C464.556 307.507 464.107 307.63 463.689 307.625C462.433 307.614 462.41 307.638 462.408 308.845C462.403 312.19 462.407 315.535 462.408 318.881C462.408 319.117 462.405 319.355 462.428 319.587C462.454 319.848 462.608 320.043 462.874 320.055C463.535 320.086 464.199 320.148 465.02 319.968H465.022ZM389.129 307.784C388.467 307.515 387.912 307.666 387.378 307.622C386.883 307.581 386.561 307.784 386.386 308.263C386.13 308.962 385.836 309.647 385.571 310.342C384.789 312.392 384.015 314.443 383.231 316.493C383.172 316.649 383.064 316.785 382.903 317.056C382.595 316.218 382.34 315.522 382.081 314.829C381.316 312.772 380.556 310.713 379.777 308.661C379.643 308.306 379.6 307.879 379.131 307.62C378.817 307.62 378.423 307.607 378.031 307.623C377.616 307.641 377.182 307.543 376.79 307.722C376.79 307.869 376.768 307.953 376.793 308.017C377.833 310.641 378.874 313.264 379.92 315.886C380.384 317.051 380.855 318.213 381.327 319.374C381.452 319.681 381.473 319.983 381.343 320.289C381.053 320.975 380.761 321.658 380.473 322.344C380.233 322.911 380.002 323.48 379.848 324.146C380.707 324.294 381.471 324.294 382.316 324.139C384.597 318.74 386.837 313.312 389.129 307.783V307.784ZM398.947 318.069C398.753 317.616 398.824 317.18 398.824 316.757C398.817 313.138 398.824 309.517 398.815 305.897C398.815 305.474 398.889 305.034 398.686 304.577C397.953 304.457 397.23 304.457 396.434 304.587C396.41 304.969 396.369 305.315 396.367 305.661C396.361 307.314 396.364 308.966 396.364 310.618C396.364 313.333 396.359 316.047 396.369 318.763C396.371 319.179 396.244 319.635 396.603 320.004C396.71 320.027 396.825 320.071 396.938 320.071C399.179 320.076 401.421 320.081 403.664 320.071C403.843 320.071 404.02 319.979 404.204 319.928C404.233 319.328 404.34 318.787 404.125 318.239C403.518 318.085 402.928 318.172 402.346 318.157C401.795 318.143 401.244 318.167 400.695 318.151C400.116 318.135 399.525 318.233 398.948 318.067L398.947 318.069ZM372.123 303.45C372.093 303.816 372.052 304.083 372.052 304.35C372.049 309.303 372.047 314.256 372.054 319.209C372.054 319.473 372.12 319.737 372.152 319.984C373.505 320.16 373.769 320.147 374.551 319.85C374.551 314.571 374.551 309.27 374.548 303.967C374.548 303.817 374.499 303.668 374.465 303.467C373.71 303.312 372.982 303.345 372.123 303.45ZM435.829 320.012C435.849 319.533 435.876 319.146 435.878 318.759C435.883 316.992 435.87 315.224 435.888 313.458C435.893 312.99 435.929 312.513 436.037 312.061C436.331 310.839 437.116 310.213 438.374 310.134C438.756 310.109 439.138 310.098 439.566 310.078C439.687 309.198 439.728 308.397 439.545 307.548C439.32 307.538 439.123 307.492 438.943 307.527C437.908 307.722 437.036 308.204 436.383 309.05C436.278 309.186 436.231 309.429 435.963 309.309C435.737 308.804 436.065 308.206 435.676 307.684C434.958 307.597 434.23 307.581 433.509 307.699C433.453 307.873 433.389 307.981 433.389 308.088C433.384 311.936 433.382 315.785 433.389 319.635C433.389 319.743 433.451 319.851 433.505 320.027C434.233 320.124 434.963 320.117 435.829 320.015V320.012ZM366.144 309.613C366.072 308.776 366.026 308.25 365.974 307.64C365.144 307.679 364.378 307.463 363.637 307.786C363.606 307.948 363.565 308.063 363.565 308.176C363.56 311.948 363.558 315.717 363.565 319.489C363.565 319.668 363.653 319.846 363.717 320.084C364.111 320.084 364.46 320.096 364.811 320.081C365.191 320.065 365.592 320.166 366.013 319.93C366.029 319.553 366.057 319.168 366.059 318.782C366.064 317.015 366.059 315.247 366.064 313.479C366.064 313.127 366.067 312.771 366.11 312.421C366.284 311.033 367.228 310.185 368.625 310.122C369.002 310.106 369.411 310.241 369.744 309.967C369.904 308.699 369.886 308.273 369.63 307.512C368.196 307.52 367.117 308.191 366.147 309.609L366.144 309.613ZM458.907 320.012C458.957 319.791 459.002 319.679 459.002 319.566C459.007 315.795 459.011 312.021 459.002 308.25C459.002 308.068 458.917 307.887 458.868 307.694C458.082 307.592 457.354 307.568 456.574 307.717C456.438 309.134 456.525 310.503 456.51 311.867C456.495 313.204 456.495 314.538 456.51 315.875C456.526 317.238 456.436 318.605 456.574 320.01C457.379 320.119 458.112 320.119 458.907 320.01V320.012ZM456.233 304.346C456.23 305.257 456.589 305.71 457.456 305.923C457.871 306.026 458.222 305.879 458.57 305.698C459.365 305.288 459.588 303.934 458.97 303.286C458.51 302.806 457.741 302.634 457.14 302.878C456.495 303.139 456.234 303.558 456.231 304.346H456.233Z" fill="#67B95F"/>
<path d="M346.971 272.183C347.102 273.781 346.761 275.575 346.053 277.309C345.162 279.486 343.744 281.237 341.692 282.384C339.63 283.536 337.439 283.855 335.112 283.145C332.99 282.497 331.408 281.203 330.119 279.444C328.945 277.84 328.454 276.005 328.143 274.099C327.789 271.933 327.987 269.788 328.6 267.698C329.173 265.75 330.166 264.046 331.783 262.734C332.27 262.339 332.733 261.913 333.279 261.606C335.415 260.409 337.691 260.284 340.012 260.87C341.233 261.178 342.302 261.824 343.286 262.645C344.488 263.651 345.397 264.851 345.999 266.279C346.564 267.621 346.958 269.014 346.969 270.489C346.973 270.961 346.969 271.433 346.969 272.181L346.971 272.183Z" fill="#67B95F"/>
<path d="M437.555 269.628C437.596 269.219 437.618 268.836 437.675 268.459C437.906 266.973 438.369 265.576 439.141 264.267C440.261 262.37 442.84 260.607 445.138 260.36C446.502 260.214 447.807 260.297 449.08 260.709C450.236 261.083 451.29 261.675 452.194 262.537C453.361 263.651 454.185 264.954 454.652 266.488C454.788 266.935 454.893 267.396 454.968 267.857C455.063 268.427 455.113 269.006 455.178 269.554C455.067 269.629 455.003 269.71 454.939 269.71C449.318 269.725 443.696 269.736 438.075 269.739C437.926 269.739 437.777 269.677 437.554 269.626L437.555 269.628Z" fill="#67B95F"/>
<path d="M392.572 271.842C392.673 273.399 392.434 274.905 392.003 276.382C391.419 278.383 390.389 280.072 388.767 281.438C387.716 282.321 386.554 282.938 385.279 283.323C383.384 283.897 381.498 283.791 379.64 283.033C377.654 282.221 376.228 280.81 375.246 278.962C374.773 278.074 374.401 277.125 374.231 276.094C373.994 274.665 373.696 273.252 373.699 271.796C373.703 270.812 373.896 269.856 374.052 268.892C374.221 267.84 374.467 266.82 374.901 265.846C375.777 263.89 377.094 262.355 378.996 261.311C381.157 260.124 383.402 260.012 385.714 260.668C386.737 260.958 387.654 261.504 388.511 262.144C390.604 263.705 391.691 265.869 392.25 268.349C392.388 268.959 392.503 269.579 392.562 270.2C392.614 270.746 392.573 271.3 392.573 271.84L392.572 271.842Z" fill="#67B95F"/>
<path d="M478.638 314.02C478.666 312.531 479.002 311.452 479.897 310.562C481.625 308.847 484.124 309.734 484.953 311.219C485.341 311.915 485.612 312.654 485.699 313.423C485.831 314.589 485.456 315.665 484.826 316.646C484.252 317.538 483.334 317.877 482.372 318.121C482.157 318.175 481.898 318.144 481.678 318.084C480.209 317.675 479.176 316.816 478.856 315.258C478.754 314.763 478.679 314.263 478.638 314.022V314.02Z" fill="#67B95F"/>
<path d="M420.824 313.66C420.704 312.384 421.206 311.274 422.215 310.401C423.654 309.155 425.57 309.44 426.652 310.672C428.098 312.317 428.28 314.998 426.793 316.836C426.166 317.611 425.306 317.957 424.369 318.131C424.123 318.177 423.841 318.041 423.577 317.98C421.893 317.59 420.918 316.085 420.826 314.445C420.813 314.211 420.824 313.974 420.824 313.658V313.66Z" fill="#67B95F"/>
<path d="M350.926 314.017C350.957 312.53 351.293 311.452 352.187 310.562C353.786 308.971 356.117 309.616 357.029 310.934C357.601 311.761 357.979 312.694 357.997 313.666C358.031 315.588 357.091 317.544 354.876 318.072C354.519 318.157 354.196 318.151 353.843 318.048C352.687 317.711 351.777 317.062 351.342 315.927C351.08 315.242 350.837 314.517 350.926 314.017V314.017Z" fill="#67B95F"/>
<path d="M414.152 312.925C413.122 313.089 409.079 313.099 407.96 312.948C407.747 312.584 407.891 312.235 408.001 311.856C408.208 311.142 408.631 310.585 409.195 310.152C410.115 309.444 411.171 309.399 412.196 309.834C413.581 310.421 414.108 311.313 414.152 312.927V312.925Z" fill="#67B95F"/>
</svg>
