<svg width="760" height="760" viewBox="0 0 760 760" fill="none" xmlns="http://www.w3.org/2000/svg">
<rect width="760" height="760" fill="white"/>
<path d="M579.001 350.839V352.019C578.534 352.775 577.878 353.307 577.064 353.654C576.884 353.731 576.715 353.841 576.53 353.902C575.497 354.243 574.665 354.907 573.918 355.652C573.086 356.48 572.312 357.37 571.561 358.274C570.313 359.777 569.111 361.322 567.873 362.834C566.634 364.349 565.377 365.849 564.12 367.35C562.559 369.211 560.991 371.067 559.425 372.923C558.49 374.032 557.551 375.136 556.621 376.249C555.593 377.482 554.602 378.748 553.54 379.952C552.945 380.624 552.277 381.247 551.575 381.808C549.821 383.213 547.732 383.726 545.543 383.807C544.177 383.856 542.807 383.84 541.43 383.684C540.238 383.549 539.015 383.607 537.793 383.779C536.814 383.918 535.861 384.059 534.951 384.448C533.92 384.887 533.059 385.52 532.421 386.475C531.69 387.565 531.212 388.751 530.822 389.994C530.317 391.606 529.968 393.254 529.645 394.907C529.261 396.869 528.826 398.816 528.264 400.734C527.77 402.42 526.951 403.916 525.657 405.134C524.683 406.052 523.63 406.862 522.495 407.569C520.09 409.068 517.838 410.772 515.749 412.682C514.564 413.766 513.412 414.886 512.268 416.012C510.785 417.472 509.274 418.89 507.629 420.169C506.396 421.128 505.245 422.194 504.064 423.219C503.324 423.862 502.616 424.541 501.857 425.161C500.429 426.328 498.899 427.355 497.333 428.33C495.299 429.596 493.199 430.734 491.065 431.818C490.052 432.333 489.029 432.83 488.001 433.314C486.794 433.88 485.58 434.432 484.362 434.968C482.64 435.728 480.912 436.477 479.18 437.213C477.485 437.935 475.787 438.651 474.077 439.338C471.891 440.214 469.699 441.072 467.498 441.91C466.18 442.411 464.856 442.908 463.51 443.326C460.363 444.302 457.149 444.997 453.888 445.466C452.146 445.717 450.407 445.986 448.664 446.239C447.698 446.38 446.73 446.504 445.764 446.635C444.797 446.767 443.824 446.873 442.862 447.036C440.856 447.375 438.856 447.744 436.854 448.105C435.122 448.416 433.392 448.736 431.66 449.046C430.158 449.315 428.653 449.572 427.151 449.845C425.267 450.184 423.391 450.571 421.5 450.869C419.026 451.26 416.542 451.581 414.062 451.937C412.709 452.13 411.363 452.427 410.005 452.512C408.123 452.629 406.278 452.975 404.422 453.245C400.941 453.751 397.486 454.418 394.037 455.123C393.307 455.272 392.578 455.418 391.846 455.558C389.657 455.977 387.47 456.412 385.276 456.804C382.732 457.258 380.184 457.689 377.633 458.103C375.821 458.396 374.007 458.686 372.187 458.899C370.788 459.063 369.375 459.109 367.968 459.208C367.771 459.221 367.572 459.232 367.487 459.459H358.045C357.926 459.378 357.811 459.242 357.683 459.227C357.294 459.183 356.896 459.216 356.507 459.167C354.879 458.963 353.257 458.698 351.624 458.54C349.668 458.352 347.762 457.886 345.852 457.483C342.229 456.719 338.83 455.285 335.459 453.785C333.955 453.116 332.451 452.444 330.915 451.86C329.742 451.415 328.563 450.996 327.402 450.517C325.397 449.69 323.505 448.685 321.701 447.477C319.423 445.95 317.51 444.068 315.819 441.928C314.717 440.532 313.892 438.969 313.056 437.413C312.369 436.134 311.619 434.903 310.714 433.758C309.253 431.912 307.322 431.03 305.029 430.875C303.086 430.744 301.187 431.095 299.372 431.745C297.825 432.297 296.332 433.002 294.828 433.67C293.393 434.306 291.952 434.937 290.44 435.355C289.195 435.7 287.919 435.928 286.611 435.919C284.596 435.906 282.654 435.539 280.721 434.957C277.759 434.066 275.045 432.673 272.415 431.103C269.378 429.291 266.535 427.192 263.8 424.952C261.83 423.339 259.881 421.699 257.939 420.051C255.999 418.405 254.025 416.795 252.169 415.058C250.135 413.154 248.163 411.18 246.41 409.001C244.68 406.851 243.15 404.576 241.981 402.072C241.048 400.075 240.426 397.971 239.951 395.822C239.249 392.649 238.444 389.499 237.904 386.291C237.866 386.066 237.757 385.853 237.665 385.589C237.132 385.589 236.6 385.489 236.123 385.609C234.928 385.909 233.688 385.602 232.506 385.948C230.502 385.932 228.528 386.265 226.553 386.527C224.694 386.775 222.838 387.047 220.986 387.365C219.055 387.698 217.154 388.159 215.234 388.533C213.653 388.839 212.112 389.29 210.567 389.73C209.324 390.084 208.071 390.407 206.843 390.805C205.241 391.325 203.646 391.871 202.07 392.467C199.943 393.27 197.818 394.082 195.732 394.984C193.859 395.794 192.044 396.733 190.201 397.611C189.888 397.76 189.563 397.884 189.202 398.037C188.922 397.704 188.658 397.419 188.425 397.109C187.134 395.387 185.855 393.657 184.567 391.934C183.174 390.074 181.913 388.146 181.376 385.843C181.23 385.82 181.115 385.802 181 385.783C181 385.31 181 384.838 181 384.366C181.285 384.276 181.443 384.074 181.543 383.799C181.833 382.998 182.454 382.547 183.214 382.246C183.724 382.044 184.225 381.819 184.742 381.639C187.371 380.726 190.002 379.83 192.692 379.102C195.074 378.456 197.468 377.866 199.882 377.367C202.562 376.813 205.264 376.369 207.96 375.892C208.845 375.734 209.737 375.626 210.628 375.498C212.02 375.298 213.412 375.091 214.806 374.904C215.969 374.747 217.133 374.604 218.299 374.471C219.114 374.378 219.93 374.286 220.749 374.24C222.666 374.13 224.584 374.048 226.503 373.953C226.619 373.947 226.735 373.927 226.854 373.914C227.318 373.863 227.782 373.771 228.247 373.768C230.607 373.753 232.967 373.765 235.326 373.756C235.626 373.756 235.928 373.701 236.268 373.668C236.268 373.009 236.273 372.423 236.268 371.84C236.259 371.015 236.169 370.182 236.253 369.367C236.368 368.235 236.287 367.101 236.466 365.964C236.678 364.615 236.825 363.252 237.097 361.914C237.607 359.413 238.33 356.973 239.28 354.599C239.951 352.92 240.72 351.283 241.589 349.706C242.646 347.784 243.834 345.936 245.147 344.17C246.974 341.715 248.905 339.347 251.068 337.183C253.318 334.931 255.516 332.63 257.874 330.486C259.559 328.952 261.122 327.285 262.721 325.658C263.382 324.986 264.108 324.4 264.851 323.83C266.54 322.531 268.378 321.483 270.282 320.542C272.504 319.443 274.814 318.563 277.164 317.79C278.876 317.23 280.611 316.731 282.351 316.267C284.848 315.6 287.359 314.981 289.868 314.355C292.222 313.768 294.587 313.219 296.937 312.615C299.444 311.971 301.925 311.236 304.375 310.398C306.305 309.737 308.233 309.072 310.16 308.404C311.529 307.93 312.892 307.435 314.266 306.974C315.939 306.412 317.619 305.869 319.299 305.328C321.314 304.679 323.316 303.982 325.354 303.413C327.84 302.719 330.339 302.073 332.889 301.615C335.124 301.214 337.356 300.853 339.627 300.787C339.824 300.782 340.022 300.769 340.106 300.541H344.118C344.222 300.845 344.487 300.799 344.707 300.787C346.126 300.705 347.518 300.994 348.925 301.066C349.548 301.097 350.169 301.191 350.789 301.261C351.371 301.327 351.952 301.401 352.532 301.469C353.388 301.57 354.246 301.647 355.097 301.771C356.527 301.983 357.947 302.271 359.382 302.442C361.325 302.673 363.232 303.168 365.196 303.234C365.311 303.237 365.423 303.306 365.537 303.319C367.126 303.521 368.714 303.739 370.304 303.909C371.9 304.08 373.499 304.198 375.097 304.344C375.876 304.415 376.654 304.501 377.433 304.572C378.407 304.659 379.382 304.739 380.358 304.82C381.294 304.897 382.234 304.943 383.165 305.052C385.108 305.282 387.053 305.474 389.011 305.551C389.903 305.585 390.787 305.812 391.679 305.889C393.785 306.074 395.895 306.205 398.002 306.389C399.871 306.553 401.736 306.764 403.604 306.938C404.15 306.989 404.706 306.958 405.252 307.015C406.144 307.109 407.028 307.273 407.92 307.358C409.049 307.468 410.182 307.527 411.316 307.612C412.25 307.683 413.185 307.765 414.121 307.838C415.174 307.92 416.228 307.993 417.28 308.083C418.175 308.16 419.069 308.276 419.964 308.343C420.902 308.416 421.843 308.444 422.783 308.503C423.447 308.545 424.116 308.568 424.773 308.67C426.321 308.909 427.879 309.029 429.442 309.109C429.639 309.119 429.837 309.109 430.031 309.134C431.385 309.309 432.733 309.545 434.092 309.66C436.706 309.883 439.305 310.218 441.901 310.582C444.533 310.951 447.153 311.394 449.78 311.795C453.458 312.358 457.092 313.138 460.706 314.012C462.305 314.399 463.909 314.768 465.491 315.216C467.754 315.855 470.002 316.554 472.252 317.239C473.603 317.651 474.949 318.082 476.296 318.512C477.229 318.81 478.158 319.117 479.088 319.425C480.726 319.97 482.369 320.499 483.998 321.072C486.144 321.826 488.279 322.616 490.419 323.387C492.336 324.077 494.26 324.753 496.173 325.456C498.013 326.132 499.841 326.84 501.68 327.521C503.554 328.216 505.435 328.898 507.314 329.58C509.008 330.197 510.703 330.81 512.399 331.419C513.358 331.763 514.326 332.089 515.285 332.434C516.982 333.042 518.666 333.688 520.375 334.264C522.231 334.89 524.109 335.456 525.98 336.041C528.785 336.92 531.585 337.825 534.403 338.663C537.145 339.478 539.905 340.228 542.66 340.995C545.756 341.856 548.85 342.723 551.952 343.555C554.943 344.357 557.943 345.129 560.945 345.89C563.336 346.497 565.733 347.075 568.132 347.648C570.112 348.12 572.097 348.571 574.083 349.017C575.152 349.256 576.228 349.479 577.304 349.684C578.042 349.825 578.616 350.181 579.001 350.831V350.839ZM322.442 351.278C322.435 351.793 322.424 352.26 322.424 352.728C322.424 366.384 322.424 380.04 322.424 393.695C322.424 393.97 322.409 394.247 322.431 394.521C322.449 394.744 322.509 394.964 322.562 395.246C324.249 395.239 325.887 395.289 327.548 395.208C327.719 394.723 327.666 394.29 327.666 393.867C327.671 388.948 327.67 384.028 327.67 379.109C327.67 378.755 327.662 378.4 327.683 378.046C327.691 377.915 327.77 377.789 327.86 377.544C328.109 377.849 328.311 378.04 328.447 378.269C328.914 379.056 329.537 379.711 330.205 380.321C331.769 381.75 333.55 382.759 335.67 383.133C336.808 383.333 337.945 383.238 339.083 383.253C340.89 383.275 342.572 382.769 344.15 381.921C345.752 381.06 347.152 379.932 348.275 378.494C349.095 377.443 349.864 376.347 350.422 375.131C351.447 372.897 351.889 370.508 352.117 368.084C352.257 366.597 352.135 365.098 351.891 363.629C351.557 361.615 351.07 359.643 350.027 357.841C349.612 357.124 349.203 356.412 348.667 355.784C348.113 355.137 347.606 354.463 346.941 353.89C345.237 352.424 343.361 351.386 341.152 350.908C339.401 350.529 337.668 350.527 335.908 350.796C332.635 351.296 330.243 353.13 328.334 355.72C328.16 355.957 328.037 356.253 327.639 356.442C327.379 354.64 327.506 352.879 327.027 351.229C325.743 351.098 323.519 351.113 322.445 351.275L322.442 351.278ZM460.401 368.911C460.496 367.901 460.605 367.01 460.659 366.115C460.746 364.697 460.493 363.3 460.226 361.922C459.919 360.34 459.401 358.818 458.581 357.401C457.804 356.06 456.831 354.896 455.698 353.853C454.378 352.636 452.848 351.775 451.14 351.255C449.674 350.809 448.175 350.506 446.622 350.621C446.427 350.635 446.228 350.624 446.032 350.622C443.583 350.614 441.322 351.249 439.215 352.51C436.7 354.015 434.947 356.166 433.736 358.797C433.161 360.049 432.805 361.36 432.531 362.717C432.052 365.092 431.956 367.471 432.282 369.851C432.536 371.708 432.944 373.543 433.763 375.267C435.265 378.43 437.503 380.854 440.732 382.27C441.658 382.677 442.626 382.993 443.654 383.139C444.872 383.313 446.087 383.244 447.302 383.253C450.933 383.275 453.917 381.795 456.384 379.214C457.584 377.956 458.432 376.444 459.165 374.875C459.25 374.693 459.221 374.457 459.243 374.247C457.876 374.08 454.611 374.107 453.762 374.286C453.555 374.612 453.358 374.954 453.13 375.273C452.197 376.585 451.013 377.577 449.477 378.115C448.047 378.617 446.604 378.76 445.081 378.576C442.741 378.294 440.945 377.134 439.548 375.345C438.285 373.729 437.706 371.813 437.541 369.777C437.523 369.557 437.583 369.331 437.618 369.014C438.93 368.99 440.181 369.004 441.43 369.003C442.69 369.001 443.947 369.003 445.207 369.003H452.76C454.019 369.003 455.278 369.016 456.536 368.999C457.786 368.983 459.04 369.08 460.401 368.914V368.911ZM263.36 343.094C263.324 343.192 263.249 343.301 263.249 343.407C263.242 356.386 263.242 369.365 263.247 382.344C263.247 382.452 263.319 382.561 263.359 382.669C263.824 382.869 264.302 382.782 264.766 382.782C271.097 382.788 277.426 382.787 283.758 382.785C284.269 382.785 284.781 382.793 285.291 382.777C285.512 382.77 285.73 382.71 285.927 382.677C286.094 381.345 286.07 379.356 285.884 378.505C285.483 378.313 285.045 378.399 284.622 378.397C280.375 378.391 276.129 378.392 271.882 378.392C271.135 378.392 270.388 378.405 269.641 378.382C269.385 378.374 269.132 378.271 268.88 378.212C268.847 377.984 268.806 377.831 268.806 377.677C268.803 373.665 268.801 369.654 268.806 365.641C268.806 365.456 268.87 365.271 268.898 365.12C269.359 364.841 269.801 364.938 270.223 364.938C274.667 364.929 279.109 364.938 283.553 364.926C283.972 364.926 284.42 365.046 284.891 364.705C284.891 364.052 284.91 363.347 284.884 362.644C284.858 361.953 285.012 361.245 284.742 360.497C284.281 360.497 283.853 360.497 283.425 360.497C278.902 360.497 274.381 360.5 269.859 360.494C268.852 360.494 268.803 360.443 268.801 359.418C268.795 355.72 268.796 352.024 268.803 348.327C268.803 348.063 268.867 347.799 268.898 347.559C269.35 347.284 269.793 347.369 270.216 347.369C273.873 347.362 277.53 347.366 281.186 347.366C282.523 347.366 283.861 347.372 285.197 347.359C285.453 347.356 285.709 347.275 285.944 347.236C286.106 345.652 286.068 343.861 285.868 343.084C284.863 342.93 264.31 342.935 263.359 343.094H263.36ZM397.969 367.337C397.961 365.292 397.795 363.636 397.376 361.981C396.817 359.772 395.895 357.772 394.501 355.986C394.07 355.433 393.604 354.896 393.088 354.422C391.897 353.328 390.559 352.451 389.083 351.767C387.712 351.131 386.258 350.768 384.784 350.657C383.073 350.529 381.353 350.575 379.643 350.986C377.164 351.583 375.055 352.79 373.23 354.52C371.152 356.489 369.839 358.934 369.114 361.676C368.786 362.917 368.568 364.206 368.476 365.487C368.322 367.643 368.491 369.793 368.976 371.912C369.383 373.686 370.055 375.345 371.008 376.893C371.628 377.899 372.405 378.768 373.24 379.604C374.774 381.144 376.58 382.182 378.654 382.798C380.771 383.428 382.932 383.285 385.087 383.202C385.743 383.177 386.404 382.993 387.04 382.808C388.44 382.4 389.764 381.829 390.979 380.99C391.923 380.337 392.742 379.563 393.566 378.778C395.328 377.103 396.42 375.024 397.148 372.773C397.75 370.911 398.058 368.963 397.966 367.337H397.969ZM518.12 360.03C518.079 358.785 517.879 357.693 517.414 356.706C516.185 354.105 514.203 352.269 511.468 351.344C508.775 350.434 506.012 350.378 503.233 350.908C501.558 351.227 499.987 351.813 498.587 352.8C497.285 353.717 496.181 354.838 495.445 356.253C494.566 357.941 494.363 359.761 494.655 361.633C494.727 362.094 494.832 362.562 494.999 362.995C495.849 365.179 497.433 366.605 499.63 367.361C501.596 368.037 503.606 368.56 505.622 369.063C506.533 369.291 507.445 369.514 508.363 369.713C509.772 370.019 511.031 370.567 512.043 371.651C512.884 372.551 513.232 373.62 513.076 374.778C512.909 376.021 512.273 377.059 511.153 377.736C510.195 378.315 509.157 378.556 508.052 378.748C506.72 378.979 505.471 378.782 504.221 378.479C503.465 378.295 502.764 377.922 502.165 377.377C501.23 376.524 500.656 375.491 500.451 374.242C500.402 373.942 500.284 373.653 500.181 373.297C498.307 373.614 496.429 373.574 494.586 374.104C494.684 374.591 494.743 375.019 494.861 375.429C495.045 376.069 495.211 376.725 495.491 377.325C495.954 378.318 496.506 379.283 497.31 380.042C499.543 382.152 502.222 383.203 505.292 383.257C506.158 383.272 507.022 383.269 507.888 383.257C510.169 383.23 512.312 382.684 514.278 381.509C515.644 380.694 516.831 379.681 517.627 378.277C519.08 375.708 518.894 373.083 517.802 370.462C517.373 369.432 516.605 368.65 515.725 367.958C514.595 367.069 513.334 366.425 511.969 366.054C510.308 365.603 508.605 365.308 506.924 364.933C505.274 364.564 503.661 364.098 502.18 363.242C501.552 362.88 501.016 362.414 500.645 361.811C499.874 360.558 500.038 358.369 501.001 357.257C501.781 356.353 502.711 355.635 503.929 355.394C505.24 355.137 506.54 354.933 507.881 355.261C509.611 355.684 510.977 356.521 511.768 358.192C511.989 358.661 512.146 359.131 512.26 359.628C512.335 359.963 512.43 360.292 512.535 360.696C514.418 360.535 516.212 360.222 518.125 360.033L518.12 360.03ZM301.805 367.102C301.112 368.188 300.464 369.213 299.806 370.231C299.126 371.285 298.44 372.335 297.753 373.384C297.088 374.403 296.417 375.418 295.751 376.438C295.066 377.489 294.357 378.525 293.713 379.599C293.1 380.624 292.299 381.537 291.794 382.664C292.96 382.843 296.948 382.823 297.873 382.638C298.422 381.723 298.986 380.785 299.547 379.843C300.088 378.935 300.63 378.027 301.162 377.113C301.715 376.165 302.217 375.181 302.82 374.266C303.412 373.37 303.84 372.361 304.599 371.495C307.023 375.298 309.399 379.028 311.741 382.705C313.533 382.87 317.134 382.82 317.982 382.611C317.282 381.236 316.362 380.019 315.553 378.735C314.717 377.407 313.866 376.09 313.023 374.767C312.202 373.476 311.387 372.182 310.565 370.893C309.725 369.577 308.883 368.263 308.028 366.932C308.501 366.222 308.943 365.579 309.363 364.92C310.67 362.868 311.954 360.802 313.274 358.759C314.763 356.455 316.286 354.174 317.78 351.872C317.888 351.705 317.874 351.457 317.918 351.24C316.554 351.073 312.935 351.106 312.039 351.295C311.324 352.503 310.586 353.749 309.85 354.996C309.114 356.242 308.425 357.521 307.63 358.729C306.841 359.928 306.256 361.261 305.332 362.373C305.216 362.294 305.129 362.266 305.091 362.207C303.832 360.268 302.571 358.328 301.322 356.381C300.326 354.83 299.324 353.282 298.363 351.709C298.098 351.275 297.781 351.134 297.306 351.137C295.654 351.15 294.003 351.139 292.352 351.149C292.178 351.149 292.006 351.229 291.727 351.3C295.112 356.606 298.435 361.817 301.804 367.099L301.805 367.102ZM465.729 351.224C465.722 351.752 465.712 352.18 465.712 352.608C465.712 356.071 465.712 359.535 465.712 362.998C465.712 369.137 465.709 375.277 465.717 381.416C465.717 381.836 465.611 382.279 465.839 382.667C466.852 382.833 470.204 382.828 471.147 382.664C471.388 382.27 471.281 381.826 471.281 381.404C471.289 376.288 471.301 371.172 471.28 366.056C471.271 364.047 471.742 362.175 472.618 360.381C473.359 358.861 474.49 357.644 475.781 356.626C477.511 355.26 479.602 355.066 481.72 355.296C482.456 355.374 483.147 355.696 483.745 356.184C484.869 357.101 485.398 358.351 485.749 359.697C485.974 360.555 486.025 361.456 486.374 362.342C487.192 362.25 487.981 362.237 488.73 362.057C489.475 361.876 490.321 362.155 490.975 361.566C490.875 360.276 490.596 359.02 490.324 357.755C489.881 355.693 488.778 354.056 487.197 352.77C484.77 350.798 481.881 350.309 478.867 350.685C477.563 350.847 476.269 351.221 475.066 351.864C474.092 352.385 473.175 352.967 472.306 353.64C471.97 353.899 471.644 354.176 471.219 354.351C470.843 353.282 470.779 352.167 470.235 351.144C468.974 351.144 467.718 351.14 466.46 351.147C466.268 351.147 466.078 351.185 465.726 351.222L465.729 351.224ZM409.11 382.639C409.11 382.113 409.11 381.644 409.11 381.175C409.11 375.941 409.11 370.708 409.11 365.474C409.11 364.08 409.438 362.749 409.968 361.483C410.512 360.179 411.216 358.944 412.193 357.901C413.111 356.921 414.174 356.145 415.456 355.67C416.517 355.278 417.601 355.248 418.704 355.247C420.79 355.243 422.194 356.239 423.024 358.11C423.455 359.082 423.783 360.082 423.901 361.15C423.942 361.527 424.078 361.894 424.18 362.304C425.542 362.321 426.794 361.953 428.074 361.896C428.327 361.884 428.571 361.719 428.817 361.627C428.817 361.325 428.852 361.086 428.811 360.861C428.676 360.131 428.469 359.412 428.371 358.677C428.227 357.608 427.873 356.617 427.4 355.663C426.817 354.486 426.003 353.479 424.964 352.68C422.551 350.824 419.751 350.342 416.829 350.662C414.58 350.908 412.514 351.777 410.72 353.215C410.237 353.603 409.718 353.949 409.166 354.353C408.679 353.316 408.615 352.203 408.188 351.242C406.798 351.073 404.512 351.106 403.704 351.301C403.546 352.28 403.477 370.711 403.594 381.736C403.597 382.041 403.628 382.346 403.645 382.631C404.633 382.833 407.885 382.846 409.113 382.643L409.11 382.639ZM357.447 342.664C357.396 342.838 357.335 342.948 357.335 343.056C357.33 356.147 357.33 369.236 357.335 382.326C357.335 382.434 357.396 382.544 357.424 382.639C358.434 382.841 361.892 382.838 362.819 382.634C362.851 382.534 362.917 382.424 362.917 382.316C362.922 369.226 362.924 356.137 362.917 343.046C362.917 342.938 362.847 342.83 362.812 342.732C361.956 342.558 359.093 342.518 357.445 342.663L357.447 342.664ZM476.993 416.978C476.979 418.315 477.63 419.243 478.601 419.974C479.949 420.991 481.515 421.325 483.155 421.156C484.465 421.022 485.616 420.486 486.525 419.441C487.536 418.277 487.943 416.929 487.948 415.438C487.964 411.429 487.955 407.42 487.948 403.409C487.948 403.184 487.889 402.961 487.851 402.689C487.148 402.592 486.5 402.555 485.879 402.705C485.562 403.312 485.929 403.983 485.551 404.627C485.356 404.404 485.21 404.235 485.064 404.07C483.793 402.637 482.205 402.166 480.379 402.648C478.582 403.122 477.407 404.306 476.786 406.059C476.44 407.033 476.317 408.02 476.322 409.053C476.332 411.193 477.132 412.934 478.775 414.287C479.731 415.074 480.892 415.363 482.071 415.238C483.253 415.114 484.306 414.582 485.042 413.559C485.178 413.371 485.297 413.071 485.71 413.084C485.762 413.927 485.805 414.75 485.706 415.553C485.628 416.203 485.392 416.842 485.151 417.457C485.028 417.77 484.791 418.088 484.521 418.287C483.637 418.936 482.702 419.238 481.548 418.908C480.535 418.618 479.759 418.156 479.278 417.218C479.226 417.116 479.144 417.029 479.105 416.977H476.991L476.993 416.978ZM427.74 404.642C427.548 404.457 427.431 404.373 427.353 404.263C425.969 402.315 422.984 401.767 420.646 403.568C419.618 404.36 419.034 405.465 418.682 406.702C418.408 407.664 418.485 408.651 418.506 409.627C418.557 411.852 419.698 413.461 421.468 414.691C422.53 415.086 423.563 415.465 424.757 415.122C425.746 414.838 426.52 414.335 427.172 413.572C427.323 413.395 427.405 413.079 427.804 413.077C427.836 413.723 427.868 414.336 427.899 414.983C428.637 415.135 429.317 415.11 429.985 415.017C430.165 413.941 430.234 407.256 430.113 403.42C430.106 403.194 430.053 402.971 430.017 402.702C429.288 402.607 428.609 402.532 427.927 402.76C427.761 403.361 427.941 403.963 427.736 404.644L427.74 404.642ZM357.976 404.686C357.716 404.481 357.611 404.424 357.539 404.339C355.764 402.184 353.06 401.848 350.853 403.52C350.051 404.127 349.515 404.944 349.143 405.867C348.713 406.938 348.593 408.049 348.613 409.206C348.643 410.936 349.235 412.439 350.363 413.699C350.984 414.392 351.776 414.93 352.762 415.084C353.454 415.192 354.106 415.361 354.838 415.153C355.822 414.873 356.627 414.407 357.271 413.618C357.445 413.405 357.586 413.085 357.986 413.072C358.021 413.74 358.052 414.353 358.086 415.024C358.804 415.102 359.449 415.137 360.139 414.996C360.18 414.758 360.238 414.571 360.239 414.384C360.244 410.688 360.244 406.992 360.236 403.296C360.236 403.112 360.161 402.928 360.111 402.707C359.413 402.594 358.767 402.54 358.08 402.75C358.049 403.347 358.017 403.922 357.976 404.686V404.686ZM416.497 409.652C416.507 408.901 416.514 408.317 416.524 407.735C416.561 405.414 414.687 403.278 412.744 402.72C410.379 402.04 407.619 402.74 406.337 405.141C404.92 407.792 404.934 410.46 406.641 413.025C407.747 414.687 409.387 415.322 411.286 415.253C412.557 415.207 413.752 414.735 414.698 413.851C415.346 413.246 415.841 412.502 416.02 411.555H413.647C412.949 413.107 410.84 413.467 409.771 412.921C409.087 412.572 408.535 412.093 408.205 411.393C407.961 410.873 407.616 410.355 408.029 409.678C409.361 409.625 410.733 409.66 412.103 409.653C413.515 409.647 414.928 409.653 416.497 409.653V409.652ZM338.096 414.978C338.351 415.028 338.466 415.071 338.581 415.071C341.098 415.076 343.615 415.079 346.132 415.071C346.309 415.071 346.486 414.973 346.7 414.91C346.7 414.589 346.709 414.315 346.696 414.041C346.683 413.779 346.645 413.517 346.613 413.21C346.198 413.19 345.85 413.159 345.504 413.157C344.166 413.151 342.83 413.159 341.492 413.151C341.229 413.149 340.967 413.095 340.726 413.067C340.555 411.98 340.56 409.145 340.734 408.136C341.018 408.109 341.321 408.058 341.626 408.054C342.807 408.045 343.986 408.054 345.166 408.045C345.427 408.043 345.688 407.981 345.97 407.945C346.053 407.379 346.055 406.887 345.965 406.326C345.607 406.3 345.304 406.26 345.001 406.259C343.82 406.251 342.641 406.262 341.46 406.249C341.198 406.246 340.936 406.174 340.601 406.123C340.601 405.286 340.577 404.501 340.608 403.72C340.639 402.951 340.457 402.163 340.773 401.349C341.185 401.349 341.575 401.349 341.965 401.349C343.264 401.349 344.561 401.356 345.86 401.343C346.121 401.341 346.38 401.267 346.642 401.228C346.704 400.579 346.762 400.003 346.606 399.45C345.785 399.304 340.199 399.216 338.666 399.324C338.481 399.337 338.299 399.418 338.14 399.462C337.943 400.515 337.877 408.074 338.005 414.125C338.01 414.391 338.058 414.656 338.092 414.978H338.096ZM444.377 415.083C444.398 414.543 444.428 414.158 444.428 413.771C444.433 411.765 444.421 409.758 444.433 407.753C444.441 406.236 445.149 405.152 446.689 404.719C448.242 404.283 449.862 405.039 450.426 406.554C450.559 406.91 450.595 407.317 450.598 407.7C450.615 409.784 450.602 411.87 450.61 413.954C450.61 414.297 450.521 414.671 450.815 414.956C451.846 415.147 452.291 415.135 453.16 414.889C453.189 414.687 453.248 414.461 453.25 414.235C453.258 412.229 453.298 410.222 453.237 408.217C453.207 407.21 453.125 406.197 452.706 405.234C451.436 402.323 447.499 401.505 445.213 403.701C445.025 403.883 444.823 404.05 444.513 404.326C444.448 403.693 444.398 403.212 444.344 402.686C443.526 402.625 442.764 402.494 442.016 402.771C441.98 402.938 441.935 403.051 441.935 403.165C441.931 406.941 441.927 410.716 441.935 414.492C441.935 414.671 442.026 414.848 442.09 415.084C442.485 415.084 442.836 415.084 443.187 415.084C443.538 415.084 443.89 415.084 444.377 415.084V415.083ZM465.022 414.968C465.037 414.491 465.057 414.104 465.057 413.718C465.06 411.869 465.057 410.019 465.058 408.169C465.058 407.894 465.039 407.617 465.066 407.343C465.198 406.095 465.835 405.216 467.023 404.783C467.787 404.504 468.598 404.501 469.338 404.799C470.199 405.145 470.899 405.731 471.094 406.715C471.193 407.212 471.275 407.718 471.28 408.223C471.301 410.191 471.284 412.159 471.293 414.127C471.293 414.427 471.204 414.761 471.521 415.046C472.213 415.081 472.942 415.166 473.631 414.983C473.677 414.832 473.72 414.758 473.72 414.686C473.729 412.128 473.77 409.57 473.723 407.013C473.7 405.805 473.265 404.66 472.38 403.825C470.309 401.871 467.287 402.174 465.73 403.661C465.578 403.807 465.499 404.094 465.109 404.029C465.071 403.643 465.03 403.233 464.994 402.868C464.556 402.507 464.107 402.63 463.689 402.625C462.433 402.614 462.41 402.638 462.408 403.845C462.403 407.19 462.407 410.535 462.408 413.881C462.408 414.117 462.405 414.354 462.428 414.587C462.454 414.848 462.608 415.043 462.874 415.055C463.535 415.086 464.199 415.148 465.02 414.968H465.022ZM389.129 402.784C388.467 402.515 387.912 402.666 387.378 402.622C386.883 402.581 386.561 402.784 386.386 403.263C386.13 403.961 385.836 404.647 385.571 405.342C384.789 407.392 384.015 409.443 383.231 411.493C383.172 411.649 383.064 411.785 382.903 412.056C382.595 411.218 382.34 410.522 382.081 409.829C381.316 407.772 380.556 405.713 379.777 403.661C379.643 403.306 379.6 402.879 379.131 402.62C378.817 402.62 378.423 402.607 378.031 402.623C377.616 402.641 377.182 402.543 376.79 402.722C376.79 402.869 376.768 402.953 376.793 403.017C377.833 405.641 378.874 408.264 379.92 410.886C380.384 412.051 380.855 413.213 381.327 414.374C381.452 414.681 381.473 414.983 381.343 415.289C381.053 415.975 380.761 416.658 380.473 417.344C380.233 417.911 380.002 418.48 379.848 419.146C380.707 419.294 381.471 419.294 382.316 419.139C384.597 413.74 386.837 408.312 389.129 402.782V402.784ZM398.947 413.069C398.753 412.616 398.824 412.18 398.824 411.757C398.817 408.138 398.824 404.517 398.815 400.897C398.815 400.474 398.889 400.034 398.686 399.577C397.953 399.457 397.23 399.457 396.434 399.587C396.41 399.969 396.369 400.315 396.367 400.661C396.361 402.313 396.364 403.966 396.364 405.618C396.364 408.333 396.359 411.047 396.369 413.763C396.371 414.179 396.244 414.635 396.603 415.004C396.71 415.027 396.825 415.071 396.938 415.071C399.179 415.076 401.421 415.081 403.664 415.071C403.843 415.071 404.02 414.979 404.204 414.928C404.233 414.328 404.34 413.787 404.125 413.239C403.518 413.085 402.928 413.172 402.346 413.157C401.795 413.143 401.244 413.167 400.695 413.151C400.116 413.134 399.525 413.233 398.948 413.067L398.947 413.069ZM372.123 398.45C372.093 398.816 372.052 399.083 372.052 399.35C372.049 404.303 372.047 409.256 372.054 414.209C372.054 414.473 372.12 414.737 372.152 414.984C373.505 415.16 373.769 415.147 374.551 414.85C374.551 409.571 374.551 404.27 374.548 398.967C374.548 398.817 374.499 398.668 374.465 398.467C373.71 398.312 372.982 398.345 372.123 398.45ZM435.829 415.012C435.849 414.533 435.876 414.146 435.878 413.759C435.883 411.992 435.87 410.224 435.888 408.458C435.893 407.99 435.929 407.513 436.037 407.061C436.331 405.839 437.116 405.213 438.374 405.134C438.756 405.109 439.138 405.098 439.566 405.078C439.687 404.198 439.728 403.397 439.545 402.548C439.32 402.538 439.123 402.492 438.943 402.527C437.908 402.722 437.036 403.204 436.383 404.05C436.278 404.186 436.231 404.429 435.963 404.309C435.737 403.804 436.065 403.206 435.676 402.684C434.958 402.597 434.23 402.581 433.509 402.699C433.453 402.873 433.389 402.981 433.389 403.087C433.384 406.936 433.382 410.785 433.389 414.635C433.389 414.743 433.451 414.851 433.505 415.027C434.233 415.124 434.963 415.117 435.829 415.015V415.012ZM366.144 404.612C366.072 403.776 366.026 403.25 365.974 402.64C365.144 402.679 364.378 402.463 363.637 402.786C363.606 402.948 363.565 403.063 363.565 403.176C363.56 406.948 363.558 410.717 363.565 414.489C363.565 414.668 363.653 414.846 363.717 415.084C364.111 415.084 364.46 415.096 364.811 415.081C365.191 415.065 365.592 415.166 366.013 414.93C366.029 414.553 366.057 414.168 366.059 413.782C366.064 412.015 366.059 410.247 366.064 408.479C366.064 408.127 366.067 407.771 366.11 407.421C366.284 406.033 367.228 405.185 368.625 405.122C369.002 405.106 369.411 405.241 369.744 404.967C369.904 403.699 369.886 403.273 369.63 402.512C368.196 402.52 367.117 403.191 366.147 404.609L366.144 404.612ZM458.907 415.012C458.957 414.791 459.002 414.679 459.002 414.566C459.007 410.795 459.011 407.021 459.002 403.25C459.002 403.068 458.917 402.887 458.868 402.694C458.082 402.592 457.354 402.568 456.574 402.717C456.438 404.134 456.525 405.503 456.51 406.867C456.495 408.204 456.495 409.538 456.51 410.875C456.526 412.238 456.436 413.605 456.574 415.01C457.379 415.119 458.112 415.119 458.907 415.01V415.012ZM456.233 399.345C456.23 400.257 456.589 400.71 457.456 400.923C457.871 401.026 458.222 400.879 458.57 400.698C459.365 400.288 459.588 398.934 458.97 398.286C458.51 397.806 457.741 397.634 457.14 397.878C456.495 398.139 456.234 398.558 456.231 399.345H456.233Z" fill="#67B95F"/>
<path d="M346.971 367.183C347.102 368.781 346.761 370.575 346.053 372.309C345.162 374.486 343.744 376.237 341.692 377.384C339.63 378.536 337.439 378.855 335.112 378.145C332.99 377.497 331.408 376.203 330.119 374.444C328.945 372.84 328.454 371.005 328.143 369.099C327.789 366.933 327.987 364.788 328.6 362.698C329.173 360.75 330.166 359.046 331.783 357.734C332.27 357.339 332.733 356.913 333.279 356.606C335.415 355.409 337.691 355.284 340.012 355.87C341.233 356.178 342.302 356.824 343.286 357.645C344.488 358.651 345.397 359.851 345.999 361.279C346.564 362.621 346.958 364.014 346.969 365.489C346.973 365.961 346.969 366.433 346.969 367.181L346.971 367.183Z" fill="#67B95F"/>
<path d="M437.555 364.628C437.596 364.22 437.618 363.836 437.675 363.459C437.906 361.973 438.369 360.576 439.141 359.267C440.261 357.37 442.84 355.607 445.138 355.36C446.502 355.214 447.807 355.297 449.08 355.709C450.236 356.083 451.29 356.675 452.194 357.537C453.361 358.651 454.185 359.954 454.652 361.488C454.788 361.935 454.893 362.396 454.968 362.857C455.063 363.427 455.113 364.006 455.178 364.554C455.067 364.629 455.003 364.71 454.939 364.71C449.318 364.725 443.696 364.736 438.075 364.739C437.926 364.739 437.777 364.677 437.554 364.626L437.555 364.628Z" fill="#67B95F"/>
<path d="M392.572 366.841C392.673 368.399 392.434 369.905 392.003 371.382C391.419 373.383 390.389 375.072 388.767 376.438C387.716 377.321 386.554 377.938 385.279 378.323C383.384 378.897 381.498 378.791 379.64 378.033C377.654 377.221 376.228 375.81 375.246 373.961C374.773 373.074 374.401 372.125 374.231 371.093C373.994 369.665 373.696 368.252 373.699 366.796C373.703 365.812 373.896 364.856 374.052 363.892C374.221 362.84 374.467 361.82 374.901 360.846C375.777 358.89 377.094 357.355 378.996 356.311C381.157 355.124 383.402 355.012 385.714 355.668C386.737 355.958 387.654 356.504 388.511 357.144C390.604 358.705 391.691 360.869 392.25 363.349C392.388 363.959 392.503 364.579 392.562 365.2C392.614 365.746 392.573 366.3 392.573 366.84L392.572 366.841Z" fill="#67B95F"/>
<path d="M478.638 409.02C478.666 407.531 479.002 406.452 479.897 405.562C481.625 403.847 484.124 404.734 484.953 406.219C485.341 406.915 485.612 407.654 485.699 408.423C485.831 409.589 485.456 410.665 484.826 411.646C484.252 412.538 483.334 412.877 482.372 413.121C482.157 413.175 481.898 413.144 481.678 413.084C480.209 412.675 479.176 411.816 478.856 410.258C478.754 409.763 478.679 409.263 478.638 409.022V409.02Z" fill="#67B95F"/>
<path d="M420.824 408.659C420.704 407.384 421.206 406.274 422.215 405.401C423.654 404.155 425.57 404.44 426.652 405.672C428.098 407.316 428.28 409.998 426.793 411.836C426.166 412.611 425.306 412.957 424.369 413.131C424.123 413.177 423.841 413.041 423.577 412.98C421.893 412.59 420.918 411.085 420.826 409.445C420.813 409.21 420.824 408.974 420.824 408.658V408.659Z" fill="#67B95F"/>
<path d="M350.926 409.017C350.957 407.53 351.293 406.452 352.187 405.562C353.786 403.971 356.117 404.616 357.029 405.934C357.601 406.761 357.979 407.694 357.997 408.666C358.031 410.588 357.091 412.544 354.876 413.072C354.519 413.158 354.196 413.151 353.843 413.048C352.687 412.712 351.777 412.062 351.342 410.927C351.08 410.242 350.837 409.517 350.926 409.017V409.017Z" fill="#67B95F"/>
<path d="M414.152 407.925C413.122 408.089 409.079 408.099 407.96 407.948C407.747 407.584 407.891 407.235 408.001 406.856C408.208 406.142 408.631 405.585 409.195 405.152C410.115 404.444 411.171 404.399 412.196 404.834C413.581 405.421 414.108 406.313 414.152 407.926V407.925Z" fill="#67B95F"/>
</svg>
