<svg width="760" height="760" viewBox="0 0 760 760" fill="none" xmlns="http://www.w3.org/2000/svg">
<rect width="760" height="760" fill="white"/>
<g clip-path="url(#clip0_528_46992)">
<path d="M371.971 289V336.392H361.543V289H371.971ZM385.239 302.081V306.865H385.426C386.622 304.884 388.154 303.427 390.06 302.53C391.966 301.633 393.91 301.184 395.891 301.184C398.395 301.184 400.488 301.521 402.095 302.231C403.702 302.904 404.973 303.875 405.907 305.071C406.842 306.305 407.477 307.762 407.851 309.519C408.225 311.276 408.411 313.219 408.411 315.312V336.429H398.993V316.994C398.993 314.153 398.544 312.06 397.647 310.64C396.75 309.257 395.181 308.547 392.938 308.547C390.359 308.547 388.528 309.295 387.369 310.827C386.211 312.359 385.65 314.864 385.65 318.377V336.354H376.232V302.081H385.202H385.239ZM419.699 327.87C420.11 328.618 420.67 329.178 421.306 329.664C421.941 330.15 422.726 330.486 423.586 330.711C424.445 330.935 425.342 331.047 426.277 331.047C426.95 331.047 427.622 330.972 428.37 330.823C429.117 330.673 429.753 330.412 430.351 330.075C430.949 329.739 431.435 329.29 431.846 328.73C432.257 328.169 432.444 327.496 432.444 326.637C432.444 325.216 431.509 324.17 429.641 323.46C427.772 322.75 425.156 322.04 421.792 321.329C420.409 321.03 419.063 320.657 417.793 320.246C416.485 319.834 415.326 319.274 414.317 318.601C413.308 317.928 412.485 317.069 411.85 316.022C411.215 314.976 410.916 313.705 410.916 312.21C410.916 310.005 411.364 308.173 412.224 306.753C413.083 305.333 414.242 304.212 415.625 303.389C417.045 302.567 418.615 302.007 420.409 301.67C422.165 301.334 423.997 301.184 425.866 301.184C427.734 301.184 429.528 301.371 431.285 301.708C433.042 302.044 434.574 302.642 435.957 303.502C437.34 304.324 438.461 305.445 439.358 306.865C440.255 308.248 440.816 310.005 440.965 312.135H431.995C431.846 310.304 431.173 309.108 429.94 308.435C428.706 307.8 427.248 307.463 425.567 307.463C425.043 307.463 424.445 307.463 423.847 307.575C423.212 307.65 422.651 307.8 422.166 308.024C421.642 308.248 421.231 308.585 420.857 308.996C420.521 309.407 420.334 309.967 420.334 310.678C420.334 311.5 420.633 312.21 421.269 312.733C421.904 313.256 422.689 313.705 423.698 314.041C424.707 314.378 425.828 314.677 427.099 314.938C428.37 315.2 429.678 315.499 431.023 315.798C432.406 316.097 433.714 316.471 435.023 316.919C436.331 317.368 437.489 317.966 438.498 318.676C439.508 319.423 440.33 320.32 440.965 321.404C441.601 322.488 441.9 323.834 441.9 325.403C441.9 327.646 441.451 329.552 440.554 331.084C439.657 332.617 438.461 333.85 437.003 334.784C435.546 335.719 433.864 336.354 431.995 336.728C430.126 337.102 428.183 337.289 426.239 337.289C424.296 337.289 422.315 337.102 420.409 336.691C418.503 336.279 416.821 335.644 415.326 334.71C413.831 333.775 412.635 332.542 411.663 331.01C410.729 329.477 410.205 327.571 410.093 325.254H419.063C419.063 326.263 419.288 327.16 419.699 327.87V327.87ZM468.025 336.392V331.608H467.838C466.642 333.588 465.109 335.046 463.203 335.906C461.297 336.803 459.354 337.251 457.373 337.251C454.869 337.251 452.776 336.915 451.169 336.242C449.561 335.569 448.291 334.635 447.356 333.439C446.422 332.206 445.787 330.748 445.413 328.991C445.039 327.235 444.852 325.291 444.852 323.198V302.081H454.271V321.442C454.271 324.282 454.719 326.375 455.616 327.795C456.513 329.178 458.083 329.888 460.325 329.888C462.904 329.888 464.736 329.141 465.894 327.608C467.053 326.076 467.614 323.572 467.614 320.059V302.081H477.032V336.392H468.062H468.025ZM491.309 289V336.392H481.891V289H491.309ZM497.401 307.127C498.373 305.669 499.607 304.511 501.102 303.614C502.597 302.717 504.316 302.081 506.185 301.708C508.053 301.334 509.959 301.147 511.866 301.147C513.585 301.147 515.342 301.259 517.098 301.521C518.855 301.782 520.499 302.231 521.957 302.941C523.414 303.651 524.61 304.623 525.545 305.894C526.479 307.164 526.928 308.809 526.928 310.902V328.767C526.928 330.299 527.003 331.794 527.189 333.215C527.376 334.635 527.675 335.681 528.124 336.392H518.556C518.369 335.868 518.219 335.308 518.107 334.784C517.995 334.224 517.92 333.663 517.883 333.103C516.388 334.635 514.594 335.719 512.576 336.354C510.557 336.99 508.464 337.289 506.334 337.289C504.69 337.289 503.157 337.102 501.737 336.691C500.317 336.279 499.083 335.681 498.037 334.822C496.99 334 496.131 332.916 495.533 331.645C494.935 330.374 494.636 328.842 494.636 327.048C494.636 325.104 494.972 323.497 495.682 322.226C496.355 320.956 497.252 319.947 498.336 319.199C499.42 318.452 500.653 317.891 502.036 317.517C503.419 317.143 504.839 316.844 506.259 316.62C507.68 316.396 509.062 316.209 510.445 316.097C511.828 315.947 513.024 315.761 514.108 315.499C515.155 315.237 516.014 314.864 516.612 314.34C517.248 313.817 517.509 313.107 517.472 312.135C517.472 311.126 517.322 310.304 516.986 309.706C516.65 309.108 516.201 308.659 515.641 308.323C515.08 307.987 514.444 307.762 513.734 307.65C512.987 307.538 512.202 307.501 511.38 307.501C509.511 307.501 508.053 307.912 507.007 308.697C505.96 309.482 505.325 310.827 505.138 312.696H495.72C495.869 310.491 496.392 308.659 497.364 307.202L497.401 307.127ZM516.014 320.432C515.416 320.619 514.781 320.806 514.108 320.918C513.435 321.068 512.688 321.18 511.94 321.255C511.193 321.329 510.445 321.442 509.698 321.591C508.988 321.741 508.278 321.89 507.605 322.114C506.932 322.339 506.334 322.638 505.811 323.011C505.288 323.385 504.876 323.871 504.577 324.432C504.278 324.992 504.129 325.74 504.129 326.637C504.129 327.534 504.278 328.169 504.577 328.767C504.876 329.328 505.325 329.814 505.848 330.113C506.371 330.412 507.007 330.673 507.717 330.823C508.427 330.972 509.137 331.01 509.922 331.01C511.791 331.01 513.211 330.711 514.22 330.075C515.229 329.44 515.977 328.73 516.463 327.87C516.949 327.01 517.248 326.151 517.36 325.254C517.472 324.357 517.509 323.647 517.509 323.123V319.61C517.098 319.947 516.612 320.246 516.014 320.432V320.432ZM550.474 302.081V308.398H543.56V325.403C543.56 327.01 543.821 328.057 544.345 328.58C544.868 329.103 545.952 329.365 547.521 329.365C548.045 329.365 548.568 329.365 549.054 329.29C549.54 329.253 549.988 329.178 550.437 329.103V336.392C549.652 336.541 548.755 336.616 547.783 336.653C546.811 336.691 545.877 336.728 544.943 336.728C543.485 336.728 542.102 336.616 540.794 336.429C539.486 336.242 538.327 335.831 537.355 335.27C536.346 334.71 535.561 333.887 535.001 332.804C534.44 331.757 534.141 330.337 534.141 328.618V308.36H528.423V302.044H534.141V291.803H543.56V302.081H550.474V302.081ZM553.913 296.774V289H563.331V296.774H553.913ZM563.331 302.081V336.392H553.913V302.081H563.331ZM567.031 311.799C567.853 309.556 569.049 307.65 570.619 306.08C572.152 304.511 574.02 303.277 576.188 302.418C578.356 301.558 580.785 301.11 583.476 301.11C586.167 301.11 588.634 301.558 590.802 302.418C593.007 303.277 594.876 304.511 596.408 306.08C597.94 307.65 599.136 309.556 599.996 311.799C600.818 314.041 601.267 316.508 601.267 319.274C601.267 322.04 600.856 324.506 599.996 326.711C599.174 328.917 597.978 330.823 596.408 332.392C594.876 333.962 593.007 335.158 590.802 336.018C588.597 336.877 586.167 337.289 583.476 337.289C580.785 337.289 578.356 336.877 576.188 336.018C574.02 335.158 572.152 333.962 570.619 332.392C569.087 330.823 567.891 328.917 567.031 326.711C566.209 324.506 565.76 322.04 565.76 319.274C565.76 316.508 566.172 314.041 567.031 311.799V311.799ZM575.59 323.273C575.852 324.581 576.3 325.74 576.936 326.786C577.571 327.833 578.431 328.655 579.477 329.29C580.524 329.926 581.869 330.225 583.476 330.225C585.083 330.225 586.391 329.926 587.475 329.29C588.559 328.655 589.419 327.833 590.054 326.786C590.69 325.74 591.138 324.581 591.4 323.273C591.661 321.965 591.811 320.619 591.811 319.274C591.811 317.928 591.661 316.545 591.4 315.237C591.138 313.892 590.69 312.733 590.054 311.724C589.419 310.715 588.559 309.893 587.475 309.22C586.391 308.585 585.046 308.248 583.476 308.248C581.906 308.248 580.561 308.585 579.477 309.22C578.431 309.855 577.571 310.678 576.936 311.724C576.3 312.733 575.852 313.929 575.59 315.237C575.328 316.545 575.179 317.928 575.179 319.274C575.179 320.619 575.328 322.002 575.59 323.273V323.273ZM613.675 302.081V306.865H613.862C615.058 304.884 616.59 303.427 618.497 302.53C620.403 301.633 622.346 301.184 624.327 301.184C626.831 301.184 628.924 301.521 630.531 302.231C632.138 302.904 633.409 303.875 634.344 305.071C635.278 306.305 635.913 307.762 636.287 309.519C636.661 311.276 636.848 313.219 636.848 315.312V336.429H627.429V316.994C627.429 314.153 626.981 312.06 626.084 310.64C625.187 309.257 623.617 308.547 621.374 308.547C618.796 308.547 616.964 309.295 615.806 310.827C614.647 312.359 614.086 314.864 614.086 318.377V336.354H604.668V302.081H613.638H613.675ZM143.385 289.187V297.821H120.362V308.622H140.32V316.583H120.362V335.868H109.897V289.187H143.385ZM155.831 289.187V335.868H146.375V289.187H155.831ZM170.856 327.758C172.276 329.103 174.332 329.776 176.985 329.776C178.891 329.776 180.536 329.29 181.919 328.356C183.302 327.422 184.124 326.412 184.46 325.366H192.795C191.449 329.44 189.431 332.318 186.665 334.074C183.9 335.831 180.573 336.691 176.649 336.691C173.92 336.691 171.491 336.279 169.323 335.42C167.156 334.56 165.287 333.364 163.792 331.794C162.297 330.225 161.101 328.356 160.279 326.188C159.456 324.02 159.045 321.628 159.045 319.012C159.045 316.396 159.456 314.116 160.316 311.948C161.176 309.781 162.372 307.874 163.904 306.305C165.474 304.698 167.305 303.464 169.473 302.53C171.641 301.595 174.033 301.147 176.649 301.147C179.601 301.147 182.143 301.708 184.311 302.829C186.478 303.95 188.272 305.445 189.693 307.314C191.076 309.183 192.122 311.313 192.72 313.742C193.355 316.134 193.58 318.638 193.393 321.255H168.501C168.651 324.245 169.398 326.45 170.818 327.795L170.856 327.758ZM181.582 309.967C180.461 308.734 178.742 308.136 176.425 308.136C174.93 308.136 173.659 308.398 172.65 308.884C171.641 309.369 170.856 310.005 170.258 310.752C169.66 311.5 169.249 312.285 168.987 313.107C168.725 313.929 168.613 314.677 168.538 315.349H183.937C183.488 312.995 182.704 311.201 181.582 309.967ZM216.64 302.044V308.248H209.688V324.992C209.688 326.562 209.95 327.608 210.473 328.132C210.996 328.655 212.08 328.917 213.687 328.917C214.211 328.917 214.734 328.917 215.22 328.842C215.706 328.804 216.192 328.73 216.603 328.655V335.831C215.818 335.98 214.921 336.055 213.949 336.093C212.977 336.13 212.006 336.167 211.071 336.167C209.614 336.167 208.231 336.055 206.885 335.868C205.577 335.681 204.418 335.308 203.409 334.71C202.4 334.149 201.615 333.327 201.055 332.28C200.494 331.234 200.195 329.851 200.195 328.169V308.286H194.439V302.081H200.195V291.915H209.651V302.081H216.603L216.64 302.044ZM235.066 308.136C233.571 308.136 232.3 308.472 231.254 309.145C230.245 309.818 229.385 310.678 228.75 311.761C228.114 312.845 227.666 314.004 227.367 315.312C227.105 316.583 226.956 317.891 226.956 319.124C226.956 320.358 227.105 321.591 227.367 322.862C227.628 324.133 228.077 325.254 228.675 326.3C229.273 327.309 230.095 328.169 231.104 328.804C232.113 329.477 233.384 329.776 234.842 329.776C237.122 329.776 238.841 329.141 240.074 327.907C241.308 326.674 242.055 324.992 242.392 322.899H251.548C250.913 327.384 249.156 330.823 246.204 333.177C243.251 335.532 239.514 336.728 234.916 336.728C232.338 336.728 229.983 336.317 227.815 335.457C225.647 334.598 223.816 333.402 222.321 331.907C220.826 330.374 219.63 328.543 218.77 326.45C217.911 324.319 217.5 322.002 217.5 319.498C217.5 316.994 217.873 314.452 218.658 312.21C219.443 309.967 220.564 308.024 222.097 306.379C223.592 304.735 225.461 303.464 227.628 302.567C229.796 301.67 232.3 301.184 235.103 301.184C237.159 301.184 239.103 301.446 241.009 301.969C242.915 302.492 244.597 303.277 246.092 304.361C247.587 305.445 248.783 306.753 249.717 308.36C250.651 309.967 251.175 311.836 251.324 314.004H242.055C241.42 310.117 239.103 308.173 235.066 308.173V308.136ZM263.733 289.187V306.791H263.92C265.116 304.81 266.648 303.389 268.517 302.492C270.385 301.595 272.217 301.147 273.973 301.147C276.515 301.147 278.571 301.483 280.215 302.156C281.822 302.829 283.13 303.763 284.065 304.959C284.999 306.155 285.672 307.613 286.046 309.332C286.419 311.051 286.606 312.957 286.606 315.05V335.831H277.15V316.77C277.15 313.967 276.702 311.911 275.805 310.528C274.908 309.145 273.338 308.472 271.058 308.472C268.479 308.472 266.611 309.22 265.452 310.715C264.293 312.21 263.733 314.677 263.733 318.153V335.868H254.277V289.187H263.733V289.187ZM301.369 327.758C302.79 329.103 304.845 329.776 307.499 329.776C309.405 329.776 311.049 329.29 312.432 328.356C313.815 327.422 314.637 326.412 314.974 325.366H323.308C321.963 329.44 319.945 332.318 317.179 334.074C314.413 335.831 311.087 336.691 307.162 336.691C304.434 336.691 302.005 336.279 299.837 335.42C297.669 334.56 295.8 333.364 294.305 331.794C292.81 330.225 291.614 328.356 290.792 326.188C289.97 324.02 289.559 321.628 289.559 319.012C289.559 316.396 289.97 314.116 290.83 311.948C291.689 309.781 292.885 307.874 294.418 306.305C295.987 304.698 297.819 303.464 299.986 302.53C302.154 301.595 304.546 301.147 307.162 301.147C310.115 301.147 312.657 301.708 314.824 302.829C316.992 303.95 318.786 305.445 320.206 307.314C321.589 309.183 322.636 311.313 323.234 313.742C323.869 316.134 324.093 318.638 323.906 321.255H299.015C299.164 324.245 299.912 326.45 301.332 327.795L301.369 327.758ZM312.096 309.967C310.975 308.734 309.255 308.136 306.938 308.136C305.443 308.136 304.172 308.398 303.163 308.884C302.154 309.369 301.369 310.005 300.771 310.752C300.173 311.5 299.762 312.285 299.501 313.107C299.239 313.929 299.127 314.677 299.052 315.349H314.451C314.002 312.995 313.217 311.201 312.096 309.967V309.967ZM335.941 302.044V308.323H336.091C336.539 307.276 337.137 306.305 337.885 305.408C338.632 304.511 339.492 303.763 340.501 303.128C341.473 302.492 342.519 302.007 343.641 301.67C344.762 301.334 345.92 301.147 347.116 301.147C347.752 301.147 348.425 301.259 349.172 301.483V310.117C348.724 310.042 348.2 309.967 347.565 309.893C346.93 309.818 346.332 309.781 345.771 309.781C344.052 309.781 342.557 310.08 341.361 310.64C340.165 311.201 339.193 311.986 338.445 312.957C337.698 313.929 337.175 315.088 336.876 316.396C336.577 317.704 336.427 319.124 336.427 320.657V335.906H326.971V302.081H335.979L335.941 302.044Z" fill="#76AD1C"/>
<path d="M336.577 375H109V350.445H336.577V375ZM113.784 367.973H119.689C122.904 367.973 124.324 366.703 124.324 364.498V364.423C124.324 362.666 123.277 361.769 121.82 361.508C123.24 361.171 123.987 360.274 123.987 358.817V358.742C123.987 356.873 122.791 355.453 119.689 355.453H113.784V368.011V367.973ZM117.671 360.312V357.994H118.867C119.839 357.994 120.25 358.368 120.25 359.116V359.19C120.25 359.975 119.876 360.312 118.867 360.312H117.671ZM117.671 365.357V362.704H118.83C119.951 362.704 120.399 363.152 120.399 363.974V364.049C120.399 364.909 119.914 365.357 118.904 365.357H117.634H117.671ZM128.734 368.198C130.266 368.198 131.126 367.525 131.649 366.553V367.973H135.125V358.779H131.649V364.012C131.649 365.096 131.126 365.619 130.266 365.619C129.444 365.619 129.108 365.133 129.108 364.199V358.779H125.632V364.797C125.632 367.076 126.94 368.198 128.697 368.198H128.734ZM138.564 358.106C139.61 358.106 140.432 357.359 140.432 356.387C140.432 355.415 139.61 354.631 138.564 354.631C137.517 354.631 136.695 355.378 136.695 356.387C136.695 357.396 137.517 358.106 138.564 358.106ZM136.844 367.973H140.283V358.779H136.844V367.973V367.973ZM142.04 367.973H145.478V354.817H142.04V367.973ZM150.636 368.198C152.019 368.198 152.99 367.45 153.439 366.478V367.936H156.915V354.78H153.439V360.013C152.916 359.078 152.056 358.518 150.636 358.518C148.543 358.518 146.824 360.125 146.824 363.302V363.451C146.824 366.665 148.58 368.16 150.636 368.16V368.198ZM151.907 365.581C150.897 365.581 150.299 364.871 150.299 363.451V363.302C150.299 361.844 150.86 361.134 151.907 361.134C152.953 361.134 153.514 361.919 153.514 363.302V363.451C153.514 364.871 152.916 365.619 151.907 365.619V365.581ZM160.353 358.106C161.4 358.106 162.222 357.359 162.222 356.387C162.222 355.415 161.4 354.631 160.353 354.631C159.307 354.631 158.485 355.378 158.485 356.387C158.485 357.396 159.307 358.106 160.353 358.106ZM158.634 367.973H162.073V358.779H158.634V367.973ZM163.792 367.973H167.268V362.89C167.268 361.807 167.791 361.283 168.651 361.283C169.51 361.283 169.809 361.769 169.809 362.704V367.973H173.285V361.919C173.285 359.639 172.089 358.518 170.332 358.518C168.8 358.518 167.791 359.265 167.305 360.237V358.779H163.829V367.973H163.792ZM179.302 371.375C182.741 371.375 184.535 369.917 184.535 367.189V358.779H181.059V360.05C180.536 359.116 179.676 358.518 178.256 358.518C176.163 358.518 174.444 360.162 174.444 362.928V363.077C174.444 365.918 176.2 367.45 178.293 367.45C179.676 367.45 180.611 366.703 181.096 365.843V367.263C181.096 368.235 180.648 369.02 179.34 369.02C178.256 369.02 177.957 368.497 177.845 367.936H174.406C174.668 370.104 176.163 371.412 179.34 371.412L179.302 371.375ZM179.564 364.983C178.518 364.983 177.957 364.236 177.957 363.115V362.965C177.957 361.807 178.518 361.096 179.564 361.096C180.611 361.096 181.171 361.844 181.171 362.965V363.077C181.171 364.236 180.573 364.983 179.564 364.983V364.983ZM189.767 367.973H195.673C198.887 367.973 200.345 366.703 200.345 364.498V364.423C200.345 362.666 199.298 361.769 197.84 361.508C199.261 361.171 200.008 360.274 200.008 358.817V358.742C200.008 356.873 198.812 355.453 195.71 355.453H189.767V368.011V367.973ZM193.654 360.312V357.994H194.85C195.822 357.994 196.233 358.368 196.233 359.116V359.19C196.233 359.975 195.86 360.312 194.85 360.312H193.654ZM193.654 365.357V362.704H194.813C195.934 362.704 196.383 363.152 196.383 363.974V364.049C196.383 364.909 195.897 365.357 194.888 365.357H193.617H193.654ZM206.287 368.198C209.202 368.198 210.81 366.964 211.071 364.871H207.857C207.745 365.395 207.371 365.843 206.399 365.843C205.428 365.843 204.755 365.245 204.68 364.124H211.071V363.264C211.071 359.975 208.866 358.48 206.287 358.48C203.484 358.48 201.204 360.312 201.204 363.302V363.451C201.204 366.478 203.372 368.16 206.287 368.16V368.198ZM204.717 362.33C204.867 361.283 205.465 360.76 206.287 360.76C207.222 360.76 207.707 361.358 207.745 362.33H204.717V362.33ZM216.042 368.16C216.79 368.16 217.462 368.011 217.874 367.899V365.282C217.575 365.395 217.313 365.432 217.014 365.432C216.453 365.432 216.117 365.17 216.117 364.535V361.059H217.874V358.742H216.117V356.873H212.641V358.742H211.557V361.059H212.641V364.834C212.641 367.151 213.874 368.123 216.042 368.123V368.16ZM223.031 368.16C223.779 368.16 224.452 368.011 224.863 367.899V365.282C224.564 365.395 224.302 365.432 224.003 365.432C223.442 365.432 223.106 365.17 223.106 364.535V361.059H224.863V358.742H223.106V356.873H219.63V358.742H218.546V361.059H219.63V364.834C219.63 367.151 220.864 368.123 223.031 368.123V368.16ZM230.693 368.16C233.608 368.16 235.216 366.927 235.477 364.834H232.263C232.151 365.357 231.777 365.806 230.805 365.806C229.834 365.806 229.161 365.208 229.086 364.086H235.477V363.227C235.477 359.938 233.272 358.443 230.693 358.443C227.89 358.443 225.61 360.274 225.61 363.264V363.414C225.61 366.441 227.778 368.123 230.693 368.123V368.16ZM229.123 362.292C229.273 361.246 229.871 360.723 230.693 360.723C231.628 360.723 232.113 361.321 232.113 362.292H229.086H229.123ZM236.748 367.936H240.224V363.713C240.224 362.405 241.27 361.769 243.176 361.881V358.667C241.794 358.667 240.822 359.228 240.224 360.648V358.779H236.748V367.973V367.936ZM244.522 370.066L247.138 365.656L243.961 364.535L242.541 369.319L244.559 370.066H244.522ZM254.501 367.936H258.5V358.443H261.677V355.378H251.324V358.443H254.501V367.936ZM266.312 368.16C269.189 368.16 271.432 366.404 271.432 363.376V363.227C271.432 360.274 269.189 358.518 266.349 358.518C263.508 358.518 261.229 360.349 261.229 363.339V363.488C261.229 366.516 263.471 368.198 266.349 368.198L266.312 368.16ZM266.312 365.619C265.19 365.619 264.667 364.834 264.667 363.339V363.189C264.667 361.769 265.265 361.022 266.312 361.022C267.358 361.022 267.881 361.807 267.881 363.227V363.339C267.881 364.797 267.358 365.581 266.312 365.581V365.619ZM277.038 371.337C280.477 371.337 282.271 369.88 282.271 367.151V358.742H278.795V360.013C278.272 359.078 277.412 358.48 275.992 358.48C273.899 358.48 272.179 360.125 272.179 362.89V363.04C272.179 365.88 273.936 367.413 276.029 367.413C277.412 367.413 278.346 366.665 278.832 365.806V367.226C278.832 368.198 278.384 368.983 277.076 368.983C275.992 368.983 275.693 368.459 275.581 367.899H272.142C272.404 370.066 273.899 371.375 277.076 371.375L277.038 371.337ZM277.3 364.946C276.253 364.946 275.693 364.199 275.693 363.077V362.928C275.693 361.769 276.253 361.059 277.3 361.059C278.346 361.059 278.907 361.807 278.907 362.928V363.04C278.907 364.199 278.309 364.946 277.3 364.946V364.946ZM288.55 368.16C291.465 368.16 293.072 366.927 293.334 364.834H290.119C290.007 365.357 289.634 365.806 288.699 365.806C287.765 365.806 287.055 365.208 286.98 364.086H293.371V363.227C293.371 359.938 291.166 358.443 288.587 358.443C285.784 358.443 283.504 360.274 283.504 363.264V363.414C283.504 366.441 285.672 368.123 288.587 368.123L288.55 368.16ZM286.98 362.292C287.129 361.246 287.727 360.723 288.55 360.723C289.484 360.723 289.97 361.321 290.007 362.292H286.98ZM298.305 368.123C299.052 368.123 299.725 367.973 300.136 367.861V365.245C299.837 365.357 299.575 365.395 299.276 365.395C298.716 365.395 298.379 365.133 298.379 364.498V361.022H300.136V358.704H298.379V356.836H294.903V358.704H293.82V361.022H294.903V364.797C294.903 367.114 296.137 368.086 298.305 368.086V368.123ZM301.556 367.899H305.032V362.816C305.032 361.732 305.555 361.209 306.415 361.209C307.275 361.209 307.574 361.694 307.574 362.629V367.899H311.049V361.844C311.049 359.564 309.853 358.443 308.097 358.443C306.564 358.443 305.555 359.19 305.069 360.162V354.705H301.594V367.861L301.556 367.899ZM317.254 368.123C320.169 368.123 321.776 366.89 322.038 364.797H318.823C318.711 365.32 318.338 365.768 317.403 365.768C316.469 365.768 315.759 365.17 315.684 364.049H322.075V363.189C322.075 359.9 319.87 358.405 317.291 358.405C314.488 358.405 312.208 360.237 312.208 363.227V363.376C312.208 366.404 314.376 368.086 317.291 368.086L317.254 368.123ZM315.684 362.255C315.833 361.209 316.432 360.685 317.254 360.685C318.188 360.685 318.674 361.283 318.711 362.255H315.684ZM323.309 367.899H326.784V363.675C326.784 362.367 327.831 361.732 329.737 361.844V358.63C328.354 358.63 327.382 359.19 326.784 360.611V358.742H323.309V367.936V367.899Z" fill="#76AD1C"/>
</g>
<path d="M130.632 455.032H125.768V441.656H113.288V437.304H125.768V423.928H130.632V437.304H143.112V441.656H130.632V455.032ZM173.828 459H168.452V414.328H186.244C188.932 414.328 191.193 414.861 193.028 415.928C194.905 416.952 196.313 418.424 197.252 420.344C198.233 422.221 198.724 424.483 198.724 427.128C198.724 429.731 198.233 431.992 197.252 433.912C196.313 435.832 194.905 437.325 193.028 438.392C191.193 439.416 188.932 439.928 186.244 439.928H173.828V459ZM173.828 419.064V435.192H186.244C187.652 435.192 188.847 434.957 189.828 434.488C190.852 433.976 191.62 433.251 192.132 432.312C192.687 431.331 192.964 430.157 192.964 428.792V425.464C192.964 424.099 192.687 422.947 192.132 422.008C191.62 421.027 190.852 420.301 189.828 419.832C188.847 419.32 187.652 419.064 186.244 419.064H173.828ZM209.312 418.232C208.246 418.232 207.457 417.976 206.945 417.464C206.433 416.909 206.177 416.205 206.177 415.352V414.52C206.177 413.667 206.433 412.984 206.945 412.472C207.457 411.917 208.246 411.64 209.312 411.64C210.422 411.64 211.211 411.917 211.681 412.472C212.193 412.984 212.449 413.667 212.449 414.52V415.352C212.449 416.205 212.193 416.909 211.681 417.464C211.211 417.976 210.422 418.232 209.312 418.232ZM206.753 459V425.976H211.873V459H206.753ZM218.657 459L230.881 442.36L219.169 425.976H225.185L233.569 438.264H233.76L242.465 425.976H248.161L236.513 441.976L248.417 459H242.401L233.825 446.072H233.633L224.353 459H218.657ZM266.856 459.768C263.869 459.768 261.267 459.064 259.048 457.656C256.829 456.205 255.101 454.2 253.864 451.64C252.627 449.037 252.008 445.987 252.008 442.488C252.008 438.989 252.627 435.96 253.864 433.4C255.101 430.797 256.829 428.792 259.048 427.384C261.267 425.933 263.869 425.208 266.856 425.208C269.8 425.208 272.339 425.912 274.472 427.32C276.605 428.685 278.248 430.584 279.4 433.016C280.552 435.448 281.128 438.221 281.128 441.336V443.768H257.384V445.304C257.384 448.163 258.237 450.552 259.944 452.472C261.693 454.349 264.104 455.288 267.176 455.288C269.267 455.288 271.08 454.797 272.616 453.816C274.195 452.835 275.411 451.427 276.264 449.592L279.912 452.216C278.845 454.435 277.181 456.248 274.92 457.656C272.659 459.064 269.971 459.768 266.856 459.768ZM266.856 429.496C265.021 429.496 263.379 429.923 261.928 430.776C260.52 431.629 259.411 432.824 258.6 434.36C257.789 435.853 257.384 437.56 257.384 439.48V439.928H275.624V439.224C275.624 437.261 275.261 435.555 274.536 434.104C273.811 432.653 272.787 431.523 271.464 430.712C270.141 429.901 268.605 429.496 266.856 429.496ZM299.549 459H295.005C293.256 459 291.912 458.509 290.973 457.528C290.034 456.504 289.565 455.224 289.565 453.688V411.64H294.685V454.52H299.549V459ZM356.24 459H350.608L346.128 445.816H328.08L323.6 459H318.16L333.776 414.328H340.624L356.24 459ZM344.784 441.08L339.152 424.888L337.232 419.32H336.912L334.992 424.888L329.36 441.08H344.784ZM373.048 459.768C370.018 459.768 367.458 459.192 365.368 458.04C363.277 456.845 361.485 455.267 359.992 453.304L363.64 450.36C364.92 451.939 366.349 453.176 367.928 454.072C369.506 454.968 371.341 455.416 373.432 455.416C375.608 455.416 377.293 454.947 378.488 454.008C379.725 453.069 380.344 451.747 380.344 450.04C380.344 448.76 379.917 447.651 379.064 446.712C378.253 445.773 376.76 445.155 374.583 444.856L371.96 444.472C369.954 444.173 368.141 443.683 366.52 443C364.898 442.275 363.618 441.272 362.68 439.992C361.784 438.669 361.336 436.984 361.336 434.936C361.336 431.651 362.445 429.219 364.664 427.64C366.925 426.019 369.741 425.208 373.112 425.208C374.904 425.208 376.482 425.421 377.848 425.848C379.256 426.275 380.514 426.893 381.624 427.704C382.733 428.472 383.736 429.411 384.632 430.52L381.24 433.592C380.514 432.568 379.448 431.651 378.04 430.84C376.632 429.987 374.861 429.56 372.728 429.56C370.637 429.56 369.037 430.029 367.928 430.968C366.818 431.864 366.264 433.101 366.264 434.68C366.264 436.259 366.797 437.432 367.864 438.2C368.973 438.925 370.552 439.459 372.6 439.8L375.16 440.184C378.829 440.739 381.432 441.805 382.968 443.384C384.504 444.92 385.272 446.947 385.272 449.464C385.272 451.597 384.781 453.432 383.8 454.968C382.818 456.504 381.41 457.699 379.576 458.552C377.741 459.363 375.565 459.768 373.048 459.768ZM403.86 459.768C400.831 459.768 398.271 459.192 396.18 458.04C394.089 456.845 392.297 455.267 390.804 453.304L394.452 450.36C395.732 451.939 397.161 453.176 398.74 454.072C400.319 454.968 402.153 455.416 404.244 455.416C406.42 455.416 408.105 454.947 409.3 454.008C410.537 453.069 411.156 451.747 411.156 450.04C411.156 448.76 410.729 447.651 409.876 446.712C409.065 445.773 407.572 445.155 405.396 444.856L402.772 444.472C400.767 444.173 398.953 443.683 397.332 443C395.711 442.275 394.431 441.272 393.492 439.992C392.596 438.669 392.148 436.984 392.148 434.936C392.148 431.651 393.257 429.219 395.476 427.64C397.737 426.019 400.553 425.208 403.924 425.208C405.716 425.208 407.295 425.421 408.66 425.848C410.068 426.275 411.327 426.893 412.436 427.704C413.545 428.472 414.548 429.411 415.444 430.52L412.052 433.592C411.327 432.568 410.26 431.651 408.852 430.84C407.444 429.987 405.673 429.56 403.54 429.56C401.449 429.56 399.849 430.029 398.74 430.968C397.631 431.864 397.076 433.101 397.076 434.68C397.076 436.259 397.609 437.432 398.676 438.2C399.785 438.925 401.364 439.459 403.412 439.8L405.972 440.184C409.641 440.739 412.244 441.805 413.78 443.384C415.316 444.92 416.084 446.947 416.084 449.464C416.084 451.597 415.593 453.432 414.612 454.968C413.631 456.504 412.223 457.699 410.388 458.552C408.553 459.363 406.377 459.768 403.86 459.768ZM427.688 418.232C426.621 418.232 425.832 417.976 425.32 417.464C424.808 416.909 424.552 416.205 424.552 415.352V414.52C424.552 413.667 424.808 412.984 425.32 412.472C425.832 411.917 426.621 411.64 427.688 411.64C428.797 411.64 429.586 411.917 430.056 412.472C430.568 412.984 430.824 413.667 430.824 414.52V415.352C430.824 416.205 430.568 416.909 430.056 417.464C429.586 417.976 428.797 418.232 427.688 418.232ZM425.128 459V425.976H430.248V459H425.128ZM451.048 459.768C448.018 459.768 445.458 459.192 443.368 458.04C441.277 456.845 439.485 455.267 437.992 453.304L441.64 450.36C442.92 451.939 444.349 453.176 445.928 454.072C447.506 454.968 449.341 455.416 451.432 455.416C453.608 455.416 455.293 454.947 456.488 454.008C457.725 453.069 458.344 451.747 458.344 450.04C458.344 448.76 457.917 447.651 457.064 446.712C456.253 445.773 454.76 445.155 452.583 444.856L449.96 444.472C447.954 444.173 446.141 443.683 444.52 443C442.898 442.275 441.618 441.272 440.68 439.992C439.784 438.669 439.336 436.984 439.336 434.936C439.336 431.651 440.445 429.219 442.664 427.64C444.925 426.019 447.741 425.208 451.112 425.208C452.904 425.208 454.482 425.421 455.848 425.848C457.256 426.275 458.514 426.893 459.624 427.704C460.733 428.472 461.736 429.411 462.632 430.52L459.24 433.592C458.514 432.568 457.448 431.651 456.04 430.84C454.632 429.987 452.861 429.56 450.728 429.56C448.637 429.56 447.037 430.029 445.928 430.968C444.818 431.864 444.264 433.101 444.264 434.68C444.264 436.259 444.797 437.432 445.864 438.2C446.973 438.925 448.552 439.459 450.6 439.8L453.16 440.184C456.829 440.739 459.432 441.805 460.968 443.384C462.504 444.92 463.272 446.947 463.272 449.464C463.272 451.597 462.781 453.432 461.8 454.968C460.818 456.504 459.41 457.699 457.576 458.552C455.741 459.363 453.565 459.768 451.048 459.768ZM485.574 459H479.174C477.424 459 476.08 458.488 475.142 457.464C474.203 456.44 473.734 455.139 473.734 453.56V430.456H468.294V425.976H471.366C472.475 425.976 473.222 425.763 473.606 425.336C474.032 424.867 474.246 424.077 474.246 422.968V416.824H478.854V425.976H486.086V430.456H478.854V454.52H485.574V459Z" fill="#0A525D"/>
<path d="M583 445.252L570.823 445.254C563.24 446.047 557.329 452.459 557.328 460.253V465H523V422.473H539.538C542.806 422.473 545.115 427.274 545.115 430.543C545.115 436.725 550.126 441.736 556.308 441.736C562.49 441.736 567.501 436.725 567.501 430.543C567.501 424.361 562.49 419.35 556.308 419.35H523V405H583L583 445.252Z" fill="#FD3F44"/>
<path d="M651 465L628.902 465V447.673C628.902 446.811 628.203 446.112 627.34 446.112C626.478 446.112 625.778 446.811 625.778 447.673V465L591 465V435H627.34C633.523 435 638.536 429.988 638.536 423.805C638.536 417.622 633.523 412.61 627.34 412.609C621.157 412.609 616.145 417.622 616.145 423.805C616.145 427.074 613.836 431.876 610.567 431.876H591V405H651V465Z" fill="#4BA5D7"/>
<defs>
<clipPath id="clip0_528_46992">
<rect width="527.96" height="86" fill="white" transform="translate(109 289)"/>
</clipPath>
</defs>
</svg>
