<svg width="760" height="570" viewBox="0 0 760 570" fill="none" xmlns="http://www.w3.org/2000/svg">
<rect width="760" height="570" fill="#1D593E"/>
<g clip-path="url(#clip0_599_5111)">
<path d="M298.663 270.536H536.5C536.068 245.406 515.417 225 490.198 225H269.802C244.336 225 223.5 245.839 223.5 271.308C223.5 296.778 244.336 317.616 269.802 317.616H490.198C515.294 317.616 535.914 297.364 536.5 272.389H298.663V270.536Z" fill="white"/>
<path d="M536.501 271.308C536.501 271.061 536.501 270.783 536.501 270.536H298.664V272.389H536.501C536.501 272.018 536.501 271.679 536.501 271.308Z" fill="#F21030"/>
<path d="M312.523 286.806C312.554 287.609 312.647 287.794 313.048 287.948C313.295 288.041 314.283 288.134 315.394 288.134C319.468 288.134 319.932 288.01 319.932 287.053C319.962 286.652 319.715 286.281 319.345 286.127C318.975 286.003 318.975 286.003 317.153 286.003H313.974C311.844 286.003 310.98 285.88 310.239 285.509C309.406 285.077 309.035 284.151 309.035 282.577C309.035 280.508 309.622 279.613 311.289 279.212C312.215 278.965 313.573 278.872 316.104 278.872C320.148 278.872 321.074 278.965 321.907 279.52C322.74 280.076 322.957 280.755 322.957 282.484H319.499C319.499 281.496 319.16 281.342 316.876 281.342C315.764 281.342 314.252 281.373 313.696 281.403C312.77 281.465 312.461 281.712 312.461 282.361C312.431 282.824 312.739 283.225 313.202 283.287C313.418 283.348 313.48 283.348 314.622 283.379H317.894C318.203 283.379 319.746 283.441 320.364 283.472C322.555 283.565 323.42 284.552 323.42 286.868C323.42 288.998 322.802 289.924 321.104 290.295C320.24 290.48 318.542 290.603 316.011 290.603C312.029 290.603 311.134 290.511 310.116 289.986C309.406 289.646 309.035 288.751 309.035 287.393C309.035 287.3 309.035 287.053 309.066 286.806H312.523Z" fill="#005B3F"/>
<path d="M340.645 278.934V281.558H331.322V283.534H340.12V285.818H331.322V287.856H340.768V290.48H327.865V278.934H340.645Z" fill="#005B3F"/>
<path d="M345.088 278.934H348.607V287.609H356.54V290.449H345.088V278.934Z" fill="#005B3F"/>
<path d="M359.752 278.934H371.976V281.558H363.24V283.842H371.543V286.467H363.24V290.48H359.752V278.934Z" fill="#005B3F"/>
<path d="M386.081 286.806C386.112 287.609 386.205 287.794 386.606 287.948C386.853 288.041 387.841 288.134 388.952 288.134C393.027 288.134 393.49 288.01 393.49 287.053C393.521 286.652 393.274 286.281 392.903 286.127C392.533 286.003 392.533 286.003 390.712 286.003H387.532C385.402 286.003 384.538 285.88 383.766 285.509C382.933 285.077 382.562 284.151 382.562 282.577C382.562 280.508 383.149 279.613 384.816 279.212C385.742 278.965 387.1 278.872 389.631 278.872C393.675 278.872 394.601 278.965 395.434 279.52C396.268 280.076 396.484 280.755 396.484 282.484H393.058C393.058 281.496 392.718 281.342 390.434 281.342C389.323 281.342 387.81 281.373 387.254 281.403C386.328 281.465 386.02 281.712 386.02 282.361C385.989 282.824 386.298 283.225 386.761 283.287C386.977 283.348 387.038 283.348 388.18 283.379H391.452C391.761 283.379 393.305 283.441 393.922 283.472C396.113 283.565 396.978 284.552 396.978 286.868C396.978 288.998 396.36 289.924 394.663 290.295C393.798 290.48 392.101 290.603 389.57 290.603C385.588 290.603 384.692 290.511 383.674 289.986C382.964 289.646 382.593 288.751 382.593 287.393C382.593 287.3 382.593 287.053 382.624 286.806H386.081Z" fill="#005B3F"/>
<path d="M404.108 281.805H398.984V278.965H412.751V281.805H407.627V290.48H404.108V281.805Z" fill="#005B3F"/>
<path d="M427.229 278.995C429.019 279.335 429.883 280.23 430.099 282.083C430.192 283.009 430.223 283.935 430.192 284.892C430.192 287.67 429.883 288.813 428.926 289.615C428.247 290.202 427.259 290.48 425.593 290.542C424.975 290.572 423.432 290.603 422.321 290.603C419.573 290.603 418.184 290.542 417.474 290.418C416.209 290.202 415.468 289.708 415.005 288.875C414.542 288.041 414.449 287.177 414.449 284.645C414.449 282.7 414.48 282.237 414.696 281.434C415.036 280.199 415.684 279.551 417.011 279.181C417.968 278.903 419.018 278.841 422.074 278.841C425.407 278.841 426.426 278.872 427.229 278.995ZM418.616 282.052C418.153 282.422 417.999 282.978 417.999 284.645C417.999 286.312 418.153 286.96 418.555 287.331C418.956 287.701 419.604 287.794 422.228 287.794C425.253 287.794 425.87 287.701 426.272 287.146C426.611 286.744 426.673 286.158 426.673 284.614C426.673 281.712 426.611 281.681 422.29 281.681C419.789 281.65 419.079 281.743 418.616 282.052Z" fill="#005B3F"/>
<path d="M434.729 278.934H444.668C446.705 278.934 447.6 279.119 448.28 279.675C448.959 280.23 449.267 281.187 449.267 282.762C449.267 284.892 448.743 285.756 447.292 286.096C448.743 286.343 449.144 286.93 449.113 288.689V290.511H445.532V289.091C445.501 287.856 445.162 287.578 443.588 287.609H438.217V290.511H434.729V278.934ZM443.68 284.769C445.378 284.769 445.687 284.552 445.687 283.41C445.687 282.669 445.625 282.361 445.378 282.114C445.131 281.867 444.822 281.774 443.773 281.774H438.186V284.738L443.68 284.769Z" fill="#005B3F"/>
<path d="M456.706 278.934H461.398L467.695 290.48H463.837L462.695 288.411H455.256L454.144 290.48H450.193L456.706 278.934ZM461.522 286.003L459.022 281.403L456.552 286.003H461.522Z" fill="#005B3F"/>
<path d="M480.32 282.854C480.32 281.959 479.919 281.62 478.869 281.589H477.974L476.739 281.558L475.474 281.589C473.807 281.589 473.807 281.589 473.375 281.681C472.726 281.836 472.449 282.175 472.387 282.885C472.325 283.595 472.294 284.305 472.294 284.985C472.294 286.528 472.449 287.176 472.943 287.485C473.344 287.732 473.838 287.856 474.733 287.856C475.103 287.887 475.103 287.887 477.264 287.887C479.579 287.917 479.98 287.794 480.289 287.022C480.32 286.806 480.351 286.59 480.351 286.374V286.127H475.906V283.997H483.777V285.571C483.777 287.485 483.715 288.134 483.468 288.782C483.067 289.862 482.265 290.356 480.814 290.542C480.443 290.572 479.394 290.603 475.998 290.603C473.344 290.603 472.325 290.542 471.615 290.387C470.35 290.109 469.609 289.585 469.208 288.627C468.868 287.856 468.775 287.053 468.775 284.892C468.775 282.422 468.93 281.434 469.362 280.632C469.887 279.736 470.689 279.273 472.171 279.057C473.622 278.934 475.103 278.872 476.554 278.903C479.703 278.903 480.69 278.965 481.431 279.119C483.222 279.582 483.777 280.477 483.777 282.885L480.32 282.854Z" fill="#005B3F"/>
<path d="M500.354 278.934V281.558H491.031V283.534H499.829V285.818H491.031V287.856H500.477V290.48H487.574V278.934H500.354Z" fill="#005B3F"/>
<path d="M311.752 248.123H323.605V253.186H318.234V255.008H322.988V259.669H318.234V265.906H311.752V248.123Z" fill="#005B3F"/>
<path d="M347.22 257.014C347.22 262.324 343.053 266.153 337.373 266.153C331.693 266.153 327.588 262.386 327.588 257.076C327.588 251.673 331.662 247.845 337.496 247.845C343.207 247.845 347.22 251.612 347.22 257.014ZM334.101 257.014C334.101 259.021 335.49 260.41 337.435 260.41C339.379 260.41 340.676 259.021 340.676 257.045C340.676 254.977 339.318 253.557 337.311 253.557C335.49 253.588 334.101 255.039 334.101 257.014Z" fill="#005B3F"/>
<path d="M353.146 248.123H361.172C363.086 248.123 364.259 248.401 365.432 249.142C367.346 250.315 368.272 252.013 368.272 254.267C368.272 255.656 367.87 256.922 367.16 257.694C366.697 258.218 366.08 258.558 364.845 258.928V259.083C365.216 259.268 365.524 259.577 365.771 259.916L369.784 265.906H362.345L359.783 260.688C359.69 260.503 359.598 260.318 359.536 260.132L359.444 260.194V265.906H353.146V248.123ZM360.308 256.026C361.357 256.026 362.006 255.44 362.006 254.545C362.067 253.742 361.45 253.063 360.647 253.001C360.617 253.001 360.586 253.001 360.524 253.001H359.413V256.026H360.308Z" fill="#005B3F"/>
<path d="M378.797 253.711L375.154 253.896V248.123H388.705V253.896L385.155 253.711V265.875H378.828V253.711H378.797Z" fill="#005B3F"/>
<path d="M406.918 248.123H413.122V253.001C413.153 253.958 413.122 254.884 412.999 255.841H413.122C413.276 255.224 413.523 254.637 413.863 254.112C414.326 253.341 414.665 252.785 414.727 252.6L417.135 248.154H424.173L418.617 256.829L424.759 265.936H417.258L414.326 260.842C413.863 259.947 414.11 260.41 413.462 259.299C413.307 259.052 413.184 258.774 413.091 258.496H412.968C413.091 259.33 413.122 260.194 413.091 261.028V265.936H406.887V248.123H406.918Z" fill="#005B3F"/>
<path d="M430.994 248.123H437.168L441.273 254.792C441.921 255.81 442.477 256.86 442.94 257.971H443.125C442.786 256.582 442.631 255.162 442.662 253.742L442.57 248.123H448.743V265.906H442.57L438.155 258.898C437.692 258.157 437.26 257.385 436.921 256.582H436.736C436.952 257.663 437.075 258.774 437.075 259.855L437.168 265.906H430.994V248.123Z" fill="#005B3F"/>
<path d="M474.61 257.014C474.61 262.324 470.443 266.153 464.764 266.153C459.084 266.153 454.979 262.386 454.979 257.076C454.979 251.673 459.053 247.845 464.887 247.845C470.629 247.845 474.61 251.612 474.61 257.014ZM461.492 257.014C461.492 259.021 462.881 260.41 464.825 260.41C466.77 260.41 468.066 259.021 468.066 257.045C468.066 254.977 466.708 253.557 464.702 253.557C462.881 253.588 461.522 255.039 461.492 257.014Z" fill="#005B3F"/>
<path d="M486.002 248.123L487.483 250.902C487.669 251.303 487.792 251.704 487.885 252.137H488.008C488.101 251.704 488.255 251.303 488.44 250.902L489.799 248.123H497.114L491.558 256.428L497.886 265.875H490.508L488.348 261.861C488.224 261.583 488.163 261.306 488.101 260.997H487.916C487.823 261.336 487.7 261.676 487.545 261.985L485.446 265.875H478.1L484.304 256.428L478.717 248.092H486.002V248.123Z" fill="#005B3F"/>
<path d="M504.953 264.177V259.422H506.682C506.96 259.391 507.237 259.453 507.484 259.546C507.669 259.638 507.824 259.793 507.916 259.978C508.04 260.194 508.102 260.441 508.071 260.688C508.133 261.336 507.639 261.923 506.96 261.985C507.083 262.046 507.206 262.139 507.299 262.263C507.453 262.448 507.608 262.664 507.7 262.88L508.379 264.177H507.731L507.206 263.189C507.083 262.911 506.929 262.664 506.743 262.417C506.651 262.293 506.558 262.201 506.435 262.139C506.311 262.077 506.157 262.077 506.033 262.077H505.447V264.177H504.953ZM505.478 261.522H506.589C506.774 261.522 506.96 261.491 507.145 261.429C507.268 261.367 507.392 261.275 507.453 261.151C507.515 261.028 507.577 260.873 507.577 260.719C507.577 260.503 507.515 260.318 507.361 260.163C507.176 260.009 506.96 259.947 506.743 259.947H505.509L505.478 261.522Z" fill="#005B3F"/>
<path d="M506.403 265.906C504.181 265.906 502.391 264.115 502.391 261.892C502.391 259.669 504.181 257.879 506.403 257.879C508.626 257.879 510.416 259.669 510.416 261.892C510.416 264.115 508.626 265.906 506.403 265.906ZM506.403 258.496C504.521 258.496 503.008 260.009 503.008 261.892C503.008 263.775 504.521 265.288 506.403 265.288C508.286 265.288 509.799 263.775 509.799 261.892C509.799 260.009 508.286 258.496 506.403 258.496Z" fill="#005B3F"/>
<path d="M269.493 301.717C286.455 301.717 300.206 287.964 300.206 271C300.206 254.035 286.455 240.282 269.493 240.282C252.53 240.282 238.779 254.035 238.779 271C238.779 287.964 252.53 301.717 269.493 301.717Z" fill="#005B3D"/>
<path d="M282.024 258.342C282.024 251.612 276.561 246.147 269.831 246.147C263.102 246.147 257.639 251.612 257.639 258.342C257.639 262.849 260.139 266.986 264.121 269.116L259.769 296.16H279.894L275.511 269.116C279.524 267.017 282.024 262.849 282.024 258.342Z" fill="white"/>
<path d="M268.566 344.444V330.274H280.173V334.781H273.999V336.418H280.173V340.4H273.999V344.475H268.566V344.444Z" fill="white"/>
<path d="M282.303 344.444V330.274H291.748C293.384 330.274 294.557 330.583 295.329 331.231C296.07 331.879 296.471 332.867 296.471 334.257C296.471 335.584 296.162 336.634 295.514 337.344C294.866 338.054 293.909 338.455 292.643 338.517L297.119 344.475H290.853L288.754 341.203C288.538 340.863 288.353 340.524 288.198 340.184C288.013 339.844 287.859 339.474 287.735 339.103H287.612C287.643 339.443 287.674 339.783 287.705 340.153C287.735 340.524 287.735 341.048 287.735 341.758V344.444H282.303ZM287.643 336.912H288.754C289.588 336.912 290.205 336.788 290.544 336.541C290.884 336.294 291.069 335.893 291.069 335.337C291.069 334.843 290.915 334.504 290.637 334.318C290.328 334.133 289.773 334.01 288.939 334.01H287.674V336.912H287.643Z" fill="white"/>
<path d="M298.447 344.444V330.274H310.054V334.411H303.695V336.047H310.054V339.134H303.695V340.863H310.054V344.444H298.447Z" fill="white"/>
<path d="M312.43 344.444V330.274H324.036V334.411H317.677V336.047H324.036V339.134H317.677V340.863H324.036V344.444H312.43Z" fill="white"/>
<path d="M326.443 344.444V330.274H334.716C336.753 330.274 338.266 330.799 339.254 331.818C340.272 332.867 340.766 334.411 340.766 336.51C340.766 339.258 340.21 341.295 339.099 342.561C337.988 343.827 336.228 344.475 333.821 344.475H326.443V344.444ZM331.753 340.369H332.617C333.666 340.369 334.407 340.122 334.87 339.628C335.333 339.134 335.549 338.332 335.549 337.22C335.549 336.356 335.333 335.738 334.901 335.368C334.469 334.997 333.79 334.781 332.833 334.781H331.722V340.369H331.753Z" fill="white"/>
<path d="M349.348 344.907C346.817 344.907 344.964 344.259 343.822 342.993C342.68 341.728 342.094 339.659 342.094 336.85C342.094 334.442 342.68 332.651 343.822 331.54C344.995 330.428 346.817 329.873 349.317 329.873C351.848 329.873 353.669 330.428 354.842 331.54C356.015 332.651 356.571 334.442 356.571 336.85C356.571 339.659 355.984 341.728 354.842 342.993C353.731 344.259 351.91 344.907 349.348 344.907ZM349.348 340.524C350.058 340.524 350.582 340.277 350.953 339.752C351.323 339.227 351.508 338.486 351.508 337.467C351.508 336.572 351.323 335.893 350.984 335.43C350.613 334.967 350.089 334.75 349.379 334.75C348.669 334.75 348.144 334.967 347.804 335.43C347.465 335.862 347.28 336.541 347.28 337.436C347.28 338.486 347.465 339.258 347.804 339.783C348.144 340.277 348.669 340.524 349.348 340.524Z" fill="white"/>
<path d="M363.083 335.491C363.176 336.232 363.268 337.035 363.33 337.93C363.392 338.795 363.392 339.783 363.392 340.894V344.475H358.607V330.274H365.275L366.664 334.164C366.849 334.689 367.003 335.244 367.127 335.8C367.25 336.356 367.343 336.942 367.405 337.56H367.528C367.559 337.066 367.652 336.541 367.806 335.985C367.93 335.43 368.146 334.812 368.393 334.133L369.751 330.305H376.295V344.475H371.51V340.894C371.51 339.844 371.541 338.887 371.603 337.992C371.665 337.097 371.726 336.263 371.85 335.491H371.603C371.448 336.14 371.294 336.788 371.14 337.436C370.955 338.085 370.769 338.702 370.553 339.35L368.794 344.475H366.108L364.38 339.35C364.102 338.517 363.855 337.776 363.701 337.189C363.546 336.603 363.392 336.047 363.299 335.522H363.083V335.491Z" fill="white"/>
<path d="M388.705 344.444V334.997H385.062V330.274H397.78V334.997H394.138V344.444H388.705Z" fill="white"/>
<path d="M406.207 344.907C403.676 344.907 401.824 344.259 400.682 342.993C399.54 341.728 398.953 339.659 398.953 336.85C398.953 334.442 399.54 332.651 400.682 331.54C401.824 330.428 403.676 329.873 406.176 329.873C408.707 329.873 410.529 330.428 411.702 331.54C412.875 332.651 413.43 334.442 413.43 336.85C413.43 339.659 412.844 341.728 411.702 342.993C410.59 344.259 408.769 344.907 406.207 344.907ZM406.207 340.524C406.917 340.524 407.442 340.277 407.812 339.752C408.183 339.227 408.368 338.486 408.368 337.467C408.368 336.572 408.183 335.893 407.843 335.43C407.473 334.967 406.948 334.75 406.238 334.75C405.528 334.75 405.003 334.967 404.664 335.43C404.324 335.893 404.139 336.541 404.139 337.436C404.139 338.486 404.324 339.258 404.664 339.783C404.972 340.277 405.528 340.524 406.207 340.524Z" fill="white"/>
<path d="M426.919 335.491C427.012 336.232 427.104 337.035 427.166 337.93C427.228 338.795 427.228 339.783 427.228 340.894V344.475H422.443V330.274H429.111L430.5 334.164C430.685 334.689 430.839 335.244 430.963 335.8C431.086 336.356 431.179 336.942 431.241 337.56H431.364C431.395 337.066 431.488 336.541 431.642 335.985C431.765 335.43 431.982 334.812 432.228 334.133L433.587 330.305H440.131V344.475H435.346V340.894C435.346 339.844 435.377 338.887 435.439 337.992C435.5 337.097 435.562 336.263 435.686 335.491H435.439C435.284 336.14 435.13 336.788 434.976 337.436C434.79 338.085 434.605 338.702 434.389 339.35L432.63 344.475H429.944L428.216 339.35C427.938 338.517 427.691 337.776 427.537 337.189C427.382 336.603 427.228 336.047 427.135 335.522H426.919V335.491Z" fill="white"/>
<path d="M449.391 344.907C446.859 344.907 445.007 344.259 443.865 342.993C442.723 341.728 442.137 339.659 442.137 336.85C442.137 334.442 442.723 332.651 443.865 331.54C445.038 330.428 446.86 329.873 449.36 329.873C451.891 329.873 453.712 330.428 454.885 331.54C456.058 332.651 456.614 334.442 456.614 336.85C456.614 339.659 456.027 341.728 454.885 342.993C453.774 344.259 451.922 344.907 449.391 344.907ZM449.391 340.524C450.101 340.524 450.625 340.277 450.996 339.752C451.366 339.227 451.551 338.486 451.551 337.467C451.551 336.572 451.366 335.893 451.027 335.43C450.656 334.967 450.132 334.75 449.422 334.75C448.712 334.75 448.187 334.967 447.847 335.43C447.508 335.862 447.323 336.541 447.323 337.436C447.323 338.486 447.508 339.258 447.847 339.783C448.156 340.277 448.681 340.524 449.391 340.524Z" fill="white"/>
<path d="M460.658 344.444L457.139 330.274H462.695L463.991 336.85C464.053 337.189 464.115 337.652 464.207 338.208C464.269 338.764 464.362 339.412 464.423 340.215H464.547C464.609 339.443 464.67 338.764 464.763 338.239C464.825 337.683 464.917 337.22 464.979 336.85L466.245 330.305H471.677L468.158 344.475H460.658V344.444Z" fill="white"/>
<path d="M473.127 344.444V330.274H484.733V334.411H478.374V336.047H484.733V339.134H478.374V340.863H484.733V344.444H473.127Z" fill="white"/>
<path d="M488.777 344.444C488.068 344.444 487.574 344.321 487.296 344.105C487.049 343.889 486.895 343.425 486.895 342.715V342.438C486.895 341.758 487.018 341.295 487.296 341.048C487.574 340.801 488.068 340.709 488.777 340.709H489.92C490.66 340.709 491.154 340.832 491.401 341.048C491.679 341.295 491.803 341.728 491.803 342.438V342.715C491.803 343.395 491.679 343.858 491.401 344.105C491.123 344.352 490.63 344.444 489.92 344.444H488.777Z" fill="white"/>
</g>
<defs>
<clipPath id="clip0_599_5111">
<rect width="313" height="120" fill="white" transform="translate(223.5 225)"/>
</clipPath>
</defs>
</svg>
