<svg width="760" height="760" viewBox="0 0 760 760" fill="none" xmlns="http://www.w3.org/2000/svg">
<rect width="760" height="760" fill="white"/>
<g clip-path="url(#clip0_500_1226)">
<path d="M378.991 337V384.392H368.563V337H378.991ZM392.259 350.081V354.865H392.446C393.642 352.884 395.174 351.427 397.08 350.53C398.986 349.633 400.93 349.184 402.911 349.184C405.415 349.184 407.508 349.521 409.115 350.231C410.722 350.904 411.993 351.875 412.927 353.071C413.862 354.305 414.497 355.762 414.871 357.519C415.245 359.276 415.432 361.219 415.432 363.312V384.429H406.013V364.994C406.013 362.153 405.565 360.06 404.668 358.64C403.771 357.257 402.201 356.547 399.958 356.547C397.379 356.547 395.548 357.295 394.389 358.827C393.231 360.359 392.67 362.864 392.67 366.377V384.354H383.252V350.081H392.222H392.259ZM426.719 375.87C427.13 376.618 427.691 377.178 428.326 377.664C428.961 378.15 429.746 378.486 430.606 378.711C431.465 378.935 432.362 379.047 433.297 379.047C433.97 379.047 434.642 378.972 435.39 378.823C436.137 378.673 436.773 378.412 437.371 378.075C437.969 377.739 438.455 377.29 438.866 376.73C439.277 376.169 439.464 375.496 439.464 374.637C439.464 373.216 438.529 372.17 436.661 371.46C434.792 370.75 432.176 370.04 428.812 369.329C427.429 369.03 426.083 368.657 424.813 368.246C423.505 367.834 422.346 367.274 421.337 366.601C420.328 365.928 419.505 365.069 418.87 364.022C418.235 362.976 417.936 361.705 417.936 360.21C417.936 358.005 418.384 356.173 419.244 354.753C420.103 353.333 421.262 352.212 422.645 351.389C424.065 350.567 425.635 350.007 427.429 349.67C429.186 349.334 431.017 349.184 432.886 349.184C434.754 349.184 436.548 349.371 438.305 349.708C440.062 350.044 441.594 350.642 442.977 351.502C444.36 352.324 445.481 353.445 446.378 354.865C447.275 356.248 447.836 358.005 447.985 360.135H439.015C438.866 358.304 438.193 357.108 436.96 356.435C435.726 355.8 434.269 355.463 432.587 355.463C432.063 355.463 431.465 355.463 430.867 355.575C430.232 355.65 429.671 355.8 429.186 356.024C428.662 356.248 428.251 356.585 427.877 356.996C427.541 357.407 427.354 357.967 427.354 358.678C427.354 359.5 427.653 360.21 428.289 360.733C428.924 361.256 429.709 361.705 430.718 362.041C431.727 362.378 432.848 362.677 434.119 362.938C435.39 363.2 436.698 363.499 438.043 363.798C439.426 364.097 440.734 364.471 442.043 364.919C443.351 365.368 444.509 365.966 445.518 366.676C446.528 367.423 447.35 368.32 447.985 369.404C448.621 370.488 448.92 371.834 448.92 373.403C448.92 375.646 448.471 377.552 447.574 379.084C446.677 380.617 445.481 381.85 444.023 382.784C442.566 383.719 440.884 384.354 439.015 384.728C437.146 385.102 435.203 385.289 433.259 385.289C431.316 385.289 429.335 385.102 427.429 384.691C425.523 384.279 423.841 383.644 422.346 382.71C420.851 381.775 419.655 380.542 418.683 379.01C417.749 377.477 417.225 375.571 417.113 373.254H426.083C426.083 374.263 426.308 375.16 426.719 375.87V375.87ZM475.045 384.392V379.608H474.858C473.662 381.588 472.129 383.046 470.223 383.906C468.317 384.803 466.374 385.251 464.393 385.251C461.889 385.251 459.796 384.915 458.189 384.242C456.581 383.569 455.311 382.635 454.376 381.439C453.442 380.206 452.807 378.748 452.433 376.991C452.059 375.235 451.872 373.291 451.872 371.198V350.081H461.291V369.442C461.291 372.282 461.739 374.375 462.636 375.795C463.533 377.178 465.103 377.888 467.345 377.888C469.924 377.888 471.756 377.141 472.914 375.608C474.073 374.076 474.634 371.572 474.634 368.059V350.081H484.052V384.392H475.082H475.045ZM498.329 337V384.392H488.911V337H498.329ZM504.421 355.127C505.393 353.669 506.627 352.511 508.122 351.614C509.617 350.717 511.336 350.081 513.205 349.708C515.073 349.334 516.98 349.147 518.886 349.147C520.605 349.147 522.362 349.259 524.118 349.521C525.875 349.782 527.519 350.231 528.977 350.941C530.435 351.651 531.631 352.623 532.565 353.894C533.499 355.164 533.948 356.809 533.948 358.902V376.767C533.948 378.299 534.023 379.794 534.209 381.215C534.396 382.635 534.695 383.681 535.144 384.392H525.576C525.389 383.868 525.239 383.308 525.127 382.784C525.015 382.224 524.94 381.663 524.903 381.103C523.408 382.635 521.614 383.719 519.596 384.354C517.578 384.99 515.484 385.289 513.354 385.289C511.71 385.289 510.177 385.102 508.757 384.691C507.337 384.279 506.103 383.681 505.057 382.822C504.01 382 503.151 380.916 502.553 379.645C501.955 378.374 501.656 376.842 501.656 375.048C501.656 373.104 501.992 371.497 502.702 370.226C503.375 368.956 504.272 367.947 505.356 367.199C506.44 366.452 507.673 365.891 509.056 365.517C510.439 365.143 511.859 364.844 513.279 364.62C514.7 364.396 516.083 364.209 517.465 364.097C518.848 363.947 520.044 363.761 521.128 363.499C522.175 363.237 523.034 362.864 523.632 362.34C524.268 361.817 524.529 361.107 524.492 360.135C524.492 359.126 524.342 358.304 524.006 357.706C523.67 357.108 523.221 356.659 522.661 356.323C522.1 355.987 521.465 355.762 520.754 355.65C520.007 355.538 519.222 355.501 518.4 355.501C516.531 355.501 515.073 355.912 514.027 356.697C512.98 357.482 512.345 358.827 512.158 360.696H502.74C502.889 358.491 503.412 356.659 504.384 355.202L504.421 355.127ZM523.034 368.432C522.436 368.619 521.801 368.806 521.128 368.918C520.455 369.068 519.708 369.18 518.96 369.255C518.213 369.329 517.465 369.442 516.718 369.591C516.008 369.741 515.298 369.89 514.625 370.114C513.952 370.339 513.354 370.638 512.831 371.011C512.308 371.385 511.896 371.871 511.597 372.432C511.298 372.992 511.149 373.74 511.149 374.637C511.149 375.534 511.298 376.169 511.597 376.767C511.896 377.328 512.345 377.814 512.868 378.113C513.392 378.412 514.027 378.673 514.737 378.823C515.447 378.972 516.157 379.01 516.942 379.01C518.811 379.01 520.231 378.711 521.24 378.075C522.249 377.44 522.997 376.73 523.483 375.87C523.969 375.01 524.268 374.151 524.38 373.254C524.492 372.357 524.529 371.647 524.529 371.123V367.61C524.118 367.947 523.632 368.246 523.034 368.432V368.432ZM557.494 350.081V356.398H550.58V373.403C550.58 375.01 550.841 376.057 551.365 376.58C551.888 377.103 552.972 377.365 554.541 377.365C555.065 377.365 555.588 377.365 556.074 377.29C556.56 377.253 557.008 377.178 557.457 377.103V384.392C556.672 384.541 555.775 384.616 554.803 384.653C553.831 384.691 552.897 384.728 551.963 384.728C550.505 384.728 549.122 384.616 547.814 384.429C546.506 384.242 545.347 383.831 544.375 383.27C543.366 382.71 542.581 381.887 542.021 380.804C541.46 379.757 541.161 378.337 541.161 376.618V356.36H535.443V350.044H541.161V339.803H550.58V350.081H557.494V350.081ZM560.933 344.774V337H570.351V344.774H560.933ZM570.351 350.081V384.392H560.933V350.081H570.351ZM574.051 359.799C574.873 357.556 576.069 355.65 577.639 354.08C579.172 352.511 581.04 351.277 583.208 350.418C585.376 349.558 587.805 349.11 590.496 349.11C593.187 349.11 595.654 349.558 597.822 350.418C600.027 351.277 601.896 352.511 603.428 354.08C604.96 355.65 606.156 357.556 607.016 359.799C607.838 362.041 608.287 364.508 608.287 367.274C608.287 370.04 607.876 372.506 607.016 374.711C606.194 376.917 604.998 378.823 603.428 380.392C601.896 381.962 600.027 383.158 597.822 384.018C595.617 384.877 593.187 385.289 590.496 385.289C587.805 385.289 585.376 384.877 583.208 384.018C581.04 383.158 579.172 381.962 577.639 380.392C576.107 378.823 574.911 376.917 574.051 374.711C573.229 372.506 572.78 370.04 572.78 367.274C572.78 364.508 573.192 362.041 574.051 359.799V359.799ZM582.61 371.273C582.872 372.581 583.32 373.74 583.956 374.786C584.591 375.833 585.451 376.655 586.497 377.29C587.544 377.926 588.889 378.225 590.496 378.225C592.103 378.225 593.411 377.926 594.495 377.29C595.579 376.655 596.439 375.833 597.074 374.786C597.71 373.74 598.158 372.581 598.42 371.273C598.681 369.965 598.831 368.619 598.831 367.274C598.831 365.928 598.681 364.545 598.42 363.237C598.158 361.892 597.71 360.733 597.074 359.724C596.439 358.715 595.579 357.893 594.495 357.22C593.411 356.585 592.066 356.248 590.496 356.248C588.926 356.248 587.581 356.585 586.497 357.22C585.451 357.855 584.591 358.678 583.956 359.724C583.32 360.733 582.872 361.929 582.61 363.237C582.348 364.545 582.199 365.928 582.199 367.274C582.199 368.619 582.348 370.002 582.61 371.273V371.273ZM620.695 350.081V354.865H620.882C622.078 352.884 623.611 351.427 625.517 350.53C627.423 349.633 629.366 349.184 631.347 349.184C633.851 349.184 635.944 349.521 637.551 350.231C639.158 350.904 640.429 351.875 641.364 353.071C642.298 354.305 642.933 355.762 643.307 357.519C643.681 359.276 643.868 361.219 643.868 363.312V384.429H634.449V364.994C634.449 362.153 634.001 360.06 633.104 358.64C632.207 357.257 630.637 356.547 628.394 356.547C625.816 356.547 623.984 357.295 622.826 358.827C621.667 360.359 621.106 362.864 621.106 366.377V384.354H611.688V350.081H620.658H620.695ZM150.405 337.187V345.821H127.382V356.622H147.34V364.583H127.382V383.868H116.917V337.187H150.405ZM162.851 337.187V383.868H153.395V337.187H162.851ZM177.876 375.758C179.296 377.103 181.352 377.776 184.005 377.776C185.911 377.776 187.556 377.29 188.939 376.356C190.322 375.422 191.144 374.412 191.48 373.366H199.815C198.469 377.44 196.451 380.318 193.685 382.074C190.92 383.831 187.593 384.691 183.669 384.691C180.94 384.691 178.511 384.279 176.343 383.42C174.176 382.56 172.307 381.364 170.812 379.794C169.317 378.225 168.121 376.356 167.299 374.188C166.476 372.02 166.065 369.628 166.065 367.012C166.065 364.396 166.476 362.116 167.336 359.948C168.196 357.781 169.392 355.874 170.924 354.305C172.494 352.698 174.325 351.464 176.493 350.53C178.661 349.595 181.053 349.147 183.669 349.147C186.621 349.147 189.163 349.708 191.331 350.829C193.498 351.95 195.292 353.445 196.713 355.314C198.096 357.183 199.142 359.313 199.74 361.742C200.375 364.134 200.6 366.638 200.413 369.255H175.521C175.671 372.245 176.418 374.45 177.838 375.795L177.876 375.758ZM188.602 357.967C187.481 356.734 185.762 356.136 183.445 356.136C181.95 356.136 180.679 356.398 179.67 356.884C178.661 357.369 177.876 358.005 177.278 358.752C176.68 359.5 176.269 360.285 176.007 361.107C175.745 361.929 175.633 362.677 175.558 363.349H190.957C190.508 360.995 189.724 359.201 188.602 357.967ZM223.66 350.044V356.248H216.708V372.992C216.708 374.562 216.97 375.608 217.493 376.132C218.016 376.655 219.1 376.917 220.707 376.917C221.231 376.917 221.754 376.917 222.24 376.842C222.726 376.804 223.212 376.73 223.623 376.655V383.831C222.838 383.98 221.941 384.055 220.969 384.093C219.997 384.13 219.026 384.167 218.091 384.167C216.634 384.167 215.251 384.055 213.905 383.868C212.597 383.681 211.438 383.308 210.429 382.71C209.42 382.149 208.635 381.327 208.075 380.28C207.514 379.234 207.215 377.851 207.215 376.169V356.286H201.459V350.081H207.215V339.915H216.671V350.081H223.623L223.66 350.044ZM242.086 356.136C240.591 356.136 239.32 356.472 238.274 357.145C237.265 357.818 236.405 358.678 235.77 359.761C235.134 360.845 234.686 362.004 234.387 363.312C234.125 364.583 233.976 365.891 233.976 367.124C233.976 368.358 234.125 369.591 234.387 370.862C234.648 372.133 235.097 373.254 235.695 374.3C236.293 375.309 237.115 376.169 238.124 376.804C239.133 377.477 240.404 377.776 241.862 377.776C244.142 377.776 245.861 377.141 247.094 375.907C248.328 374.674 249.075 372.992 249.412 370.899H258.568C257.933 375.384 256.176 378.823 253.224 381.177C250.271 383.532 246.534 384.728 241.937 384.728C239.358 384.728 237.003 384.317 234.835 383.457C232.668 382.598 230.836 381.402 229.341 379.907C227.846 378.374 226.65 376.543 225.791 374.45C224.931 372.319 224.52 370.002 224.52 367.498C224.52 364.994 224.894 362.452 225.678 360.21C226.463 357.967 227.585 356.024 229.117 354.379C230.612 352.735 232.481 351.464 234.648 350.567C236.816 349.67 239.32 349.184 242.123 349.184C244.179 349.184 246.123 349.446 248.029 349.969C249.935 350.492 251.617 351.277 253.112 352.361C254.607 353.445 255.803 354.753 256.737 356.36C257.671 357.967 258.195 359.836 258.344 362.004H249.075C248.44 358.117 246.123 356.173 242.086 356.173V356.136ZM270.753 337.187V354.791H270.94C272.136 352.81 273.668 351.389 275.537 350.492C277.405 349.595 279.237 349.147 280.993 349.147C283.535 349.147 285.591 349.483 287.235 350.156C288.842 350.829 290.15 351.763 291.085 352.959C292.019 354.155 292.692 355.613 293.066 357.332C293.439 359.051 293.626 360.957 293.626 363.05V383.831H284.17V364.77C284.17 361.967 283.722 359.911 282.825 358.528C281.928 357.145 280.358 356.472 278.078 356.472C275.499 356.472 273.631 357.22 272.472 358.715C271.313 360.21 270.753 362.677 270.753 366.153V383.868H261.297V337.187H270.753V337.187ZM308.389 375.758C309.81 377.103 311.865 377.776 314.519 377.776C316.425 377.776 318.069 377.29 319.452 376.356C320.835 375.422 321.657 374.412 321.994 373.366H330.329C328.983 377.44 326.965 380.318 324.199 382.074C321.433 383.831 318.107 384.691 314.182 384.691C311.454 384.691 309.025 384.279 306.857 383.42C304.689 382.56 302.82 381.364 301.325 379.794C299.83 378.225 298.634 376.356 297.812 374.188C296.99 372.02 296.579 369.628 296.579 367.012C296.579 364.396 296.99 362.116 297.85 359.948C298.709 357.781 299.905 355.874 301.438 354.305C303.007 352.698 304.839 351.464 307.006 350.53C309.174 349.595 311.566 349.147 314.182 349.147C317.135 349.147 319.677 349.708 321.844 350.829C324.012 351.95 325.806 353.445 327.226 355.314C328.609 357.183 329.656 359.313 330.254 361.742C330.889 364.134 331.113 366.638 330.927 369.255H306.035C306.184 372.245 306.932 374.45 308.352 375.795L308.389 375.758ZM319.116 357.967C317.995 356.734 316.275 356.136 313.958 356.136C312.463 356.136 311.192 356.398 310.183 356.884C309.174 357.369 308.389 358.005 307.791 358.752C307.193 359.5 306.782 360.285 306.521 361.107C306.259 361.929 306.147 362.677 306.072 363.349H321.471C321.022 360.995 320.237 359.201 319.116 357.967V357.967ZM342.961 350.044V356.323H343.111C343.559 355.276 344.157 354.305 344.905 353.408C345.652 352.511 346.512 351.763 347.521 351.128C348.493 350.492 349.539 350.007 350.661 349.67C351.782 349.334 352.94 349.147 354.136 349.147C354.772 349.147 355.445 349.259 356.192 349.483V358.117C355.744 358.042 355.22 357.967 354.585 357.893C353.95 357.818 353.352 357.781 352.791 357.781C351.072 357.781 349.577 358.08 348.381 358.64C347.185 359.201 346.213 359.986 345.465 360.957C344.718 361.929 344.195 363.088 343.896 364.396C343.597 365.704 343.447 367.124 343.447 368.657V383.906H333.991V350.081H342.999L342.961 350.044Z" fill="#76AD1C"/>
<path d="M343.597 423H116.02V398.445H343.597V423ZM120.804 415.973H126.709C129.924 415.973 131.344 414.703 131.344 412.498V412.423C131.344 410.666 130.297 409.769 128.84 409.508C130.26 409.171 131.007 408.274 131.007 406.817V406.742C131.007 404.873 129.811 403.453 126.709 403.453H120.804V416.011V415.973ZM124.691 408.312V405.994H125.887C126.859 405.994 127.27 406.368 127.27 407.116V407.19C127.27 407.975 126.896 408.312 125.887 408.312H124.691ZM124.691 413.357V410.704H125.85C126.971 410.704 127.419 411.152 127.419 411.974V412.049C127.419 412.909 126.934 413.357 125.924 413.357H124.654H124.691ZM135.754 416.198C137.286 416.198 138.146 415.525 138.669 414.553V415.973H142.145V406.779H138.669V412.012C138.669 413.096 138.146 413.619 137.286 413.619C136.464 413.619 136.128 413.133 136.128 412.199V406.779H132.652V412.797C132.652 415.076 133.96 416.198 135.717 416.198H135.754ZM145.584 406.106C146.63 406.106 147.452 405.359 147.452 404.387C147.452 403.415 146.63 402.631 145.584 402.631C144.537 402.631 143.715 403.378 143.715 404.387C143.715 405.396 144.537 406.106 145.584 406.106ZM143.864 415.973H147.303V406.779H143.864V415.973V415.973ZM149.06 415.973H152.498V402.817H149.06V415.973ZM157.656 416.198C159.039 416.198 160.01 415.45 160.459 414.478V415.936H163.935V402.78H160.459V408.013C159.936 407.078 159.076 406.518 157.656 406.518C155.563 406.518 153.844 408.125 153.844 411.302V411.451C153.844 414.665 155.6 416.16 157.656 416.16V416.198ZM158.927 413.581C157.917 413.581 157.319 412.871 157.319 411.451V411.302C157.319 409.844 157.88 409.134 158.927 409.134C159.973 409.134 160.534 409.919 160.534 411.302V411.451C160.534 412.871 159.936 413.619 158.927 413.619V413.581ZM167.373 406.106C168.42 406.106 169.242 405.359 169.242 404.387C169.242 403.415 168.42 402.631 167.373 402.631C166.327 402.631 165.505 403.378 165.505 404.387C165.505 405.396 166.327 406.106 167.373 406.106ZM165.654 415.973H169.093V406.779H165.654V415.973ZM170.812 415.973H174.288V410.89C174.288 409.807 174.811 409.283 175.671 409.283C176.53 409.283 176.829 409.769 176.829 410.704V415.973H180.305V409.919C180.305 407.639 179.109 406.518 177.352 406.518C175.82 406.518 174.811 407.265 174.325 408.237V406.779H170.849V415.973H170.812ZM186.322 419.375C189.761 419.375 191.555 417.917 191.555 415.189V406.779H188.079V408.05C187.556 407.116 186.696 406.518 185.276 406.518C183.183 406.518 181.464 408.162 181.464 410.928V411.077C181.464 413.918 183.22 415.45 185.313 415.45C186.696 415.45 187.631 414.703 188.116 413.843V415.263C188.116 416.235 187.668 417.02 186.36 417.02C185.276 417.02 184.977 416.497 184.865 415.936H181.426C181.688 418.104 183.183 419.412 186.36 419.412L186.322 419.375ZM186.584 412.983C185.538 412.983 184.977 412.236 184.977 411.115V410.965C184.977 409.807 185.538 409.096 186.584 409.096C187.631 409.096 188.191 409.844 188.191 410.965V411.077C188.191 412.236 187.593 412.983 186.584 412.983V412.983ZM196.787 415.973H202.693C205.907 415.973 207.365 414.703 207.365 412.498V412.423C207.365 410.666 206.318 409.769 204.861 409.508C206.281 409.171 207.028 408.274 207.028 406.817V406.742C207.028 404.873 205.832 403.453 202.73 403.453H196.787V416.011V415.973ZM200.674 408.312V405.994H201.87C202.842 405.994 203.253 406.368 203.253 407.116V407.19C203.253 407.975 202.88 408.312 201.87 408.312H200.674ZM200.674 413.357V410.704H201.833C202.954 410.704 203.403 411.152 203.403 411.974V412.049C203.403 412.909 202.917 413.357 201.908 413.357H200.637H200.674ZM213.307 416.198C216.223 416.198 217.83 414.964 218.091 412.871H214.877C214.765 413.395 214.391 413.843 213.419 413.843C212.448 413.843 211.775 413.245 211.7 412.124H218.091V411.264C218.091 407.975 215.886 406.48 213.307 406.48C210.504 406.48 208.224 408.312 208.224 411.302V411.451C208.224 414.478 210.392 416.16 213.307 416.16V416.198ZM211.738 410.33C211.887 409.283 212.485 408.76 213.307 408.76C214.242 408.76 214.728 409.358 214.765 410.33H211.738V410.33ZM223.062 416.16C223.81 416.16 224.482 416.011 224.894 415.899V413.282C224.595 413.395 224.333 413.432 224.034 413.432C223.473 413.432 223.137 413.17 223.137 412.535V409.059H224.894V406.742H223.137V404.873H219.661V406.742H218.577V409.059H219.661V412.834C219.661 415.151 220.894 416.123 223.062 416.123V416.16ZM230.051 416.16C230.799 416.16 231.472 416.011 231.883 415.899V413.282C231.584 413.395 231.322 413.432 231.023 413.432C230.462 413.432 230.126 413.17 230.126 412.535V409.059H231.883V406.742H230.126V404.873H226.65V406.742H225.566V409.059H226.65V412.834C226.65 415.151 227.884 416.123 230.051 416.123V416.16ZM237.713 416.16C240.628 416.16 242.236 414.927 242.497 412.834H239.283C239.171 413.357 238.797 413.806 237.825 413.806C236.854 413.806 236.181 413.208 236.106 412.086H242.497V411.227C242.497 407.938 240.292 406.443 237.713 406.443C234.91 406.443 232.63 408.274 232.63 411.264V411.414C232.63 414.441 234.798 416.123 237.713 416.123V416.16ZM236.143 410.292C236.293 409.246 236.891 408.723 237.713 408.723C238.648 408.723 239.133 409.321 239.133 410.292H236.106H236.143ZM243.768 415.936H247.244V411.713C247.244 410.405 248.29 409.769 250.196 409.881V406.667C248.814 406.667 247.842 407.228 247.244 408.648V406.779H243.768V415.973V415.936ZM251.542 418.066L254.158 413.656L250.981 412.535L249.561 417.319L251.579 418.066H251.542ZM261.521 415.936H265.52V406.443H268.697V403.378H258.344V406.443H261.521V415.936ZM273.332 416.16C276.209 416.16 278.452 414.404 278.452 411.376V411.227C278.452 408.274 276.209 406.518 273.369 406.518C270.528 406.518 268.249 408.349 268.249 411.339V411.488C268.249 414.516 270.491 416.198 273.369 416.198L273.332 416.16ZM273.332 413.619C272.21 413.619 271.687 412.834 271.687 411.339V411.189C271.687 409.769 272.285 409.022 273.332 409.022C274.378 409.022 274.901 409.807 274.901 411.227V411.339C274.901 412.797 274.378 413.581 273.332 413.581V413.619ZM284.058 419.337C287.497 419.337 289.291 417.88 289.291 415.151V406.742H285.815V408.013C285.292 407.078 284.432 406.48 283.012 406.48C280.919 406.48 279.199 408.125 279.199 410.89V411.04C279.199 413.88 280.956 415.413 283.049 415.413C284.432 415.413 285.366 414.665 285.852 413.806V415.226C285.852 416.198 285.404 416.983 284.096 416.983C283.012 416.983 282.713 416.459 282.601 415.899H279.162C279.424 418.066 280.919 419.375 284.096 419.375L284.058 419.337ZM284.32 412.946C283.273 412.946 282.713 412.199 282.713 411.077V410.928C282.713 409.769 283.273 409.059 284.32 409.059C285.366 409.059 285.927 409.807 285.927 410.928V411.04C285.927 412.199 285.329 412.946 284.32 412.946V412.946ZM295.57 416.16C298.485 416.16 300.092 414.927 300.354 412.834H297.139C297.027 413.357 296.654 413.806 295.719 413.806C294.785 413.806 294.075 413.208 294 412.086H300.391V411.227C300.391 407.938 298.186 406.443 295.607 406.443C292.804 406.443 290.524 408.274 290.524 411.264V411.414C290.524 414.441 292.692 416.123 295.607 416.123L295.57 416.16ZM294 410.292C294.149 409.246 294.747 408.723 295.57 408.723C296.504 408.723 296.99 409.321 297.027 410.292H294ZM305.325 416.123C306.072 416.123 306.745 415.973 307.156 415.861V413.245C306.857 413.357 306.595 413.395 306.296 413.395C305.736 413.395 305.399 413.133 305.399 412.498V409.022H307.156V406.704H305.399V404.836H301.923V406.704H300.84V409.022H301.923V412.797C301.923 415.114 303.157 416.086 305.325 416.086V416.123ZM308.576 415.899H312.052V410.816C312.052 409.732 312.575 409.209 313.435 409.209C314.295 409.209 314.594 409.694 314.594 410.629V415.899H318.07V409.844C318.07 407.564 316.874 406.443 315.117 406.443C313.585 406.443 312.575 407.19 312.09 408.162V402.705H308.614V415.861L308.576 415.899ZM324.274 416.123C327.189 416.123 328.796 414.89 329.058 412.797H325.844C325.731 413.32 325.358 413.768 324.423 413.768C323.489 413.768 322.779 413.17 322.704 412.049H329.095V411.189C329.095 407.9 326.89 406.405 324.311 406.405C321.508 406.405 319.228 408.237 319.228 411.227V411.376C319.228 414.404 321.396 416.086 324.311 416.086L324.274 416.123ZM322.704 410.255C322.854 409.209 323.452 408.685 324.274 408.685C325.208 408.685 325.694 409.283 325.731 410.255H322.704ZM330.329 415.899H333.804V411.675C333.804 410.367 334.851 409.732 336.757 409.844V406.63C335.374 406.63 334.402 407.19 333.804 408.611V406.742H330.329V415.936V415.899Z" fill="#76AD1C"/>
</g>
<defs>
<clipPath id="clip0_500_1226">
<rect width="527.96" height="86" fill="white" transform="translate(116.02 337)"/>
</clipPath>
</defs>
</svg>
