<svg width="760" height="760" viewBox="0 0 760 760" fill="none" xmlns="http://www.w3.org/2000/svg">
<rect width="760" height="760" fill="white"/>
<path d="M573.401 401.863V357.498H592.542C597.485 357.498 601.309 358.491 604.013 360.477C606.759 362.462 608.133 365.272 608.133 368.906C608.133 371.314 607.562 373.342 606.421 374.99C605.323 376.638 603.802 377.884 601.858 378.73C599.957 379.575 597.865 379.997 595.584 379.997L596.661 378.476C599.492 378.476 601.922 378.92 603.95 379.807C606.02 380.652 607.626 381.941 608.766 383.673C609.907 385.363 610.478 387.476 610.478 390.011C610.478 393.771 609.083 396.687 606.295 398.757C603.548 400.827 599.386 401.863 593.809 401.863H573.401ZM578.091 397.997H593.746C597.633 397.997 600.612 397.342 602.682 396.032C604.752 394.68 605.788 392.546 605.788 389.631C605.788 386.757 604.752 384.666 602.682 383.356C600.612 382.004 597.633 381.328 593.746 381.328H577.584V377.462H592.225C595.774 377.462 598.52 376.786 600.464 375.434C602.45 374.082 603.443 372.075 603.443 369.413C603.443 366.709 602.45 364.702 600.464 363.392C598.52 362.04 595.774 361.364 592.225 361.364H578.091V397.997Z" fill="#424342"/>
<path d="M537.276 402.243C531.615 402.243 527.157 400.616 523.904 397.363C520.65 394.109 519.023 389.293 519.023 382.912V357.498H523.713V382.722C523.713 387.962 524.896 391.828 527.263 394.321C529.629 396.813 532.967 398.06 537.276 398.06C541.628 398.06 544.987 396.813 547.354 394.321C549.72 391.828 550.903 387.962 550.903 382.722V357.498H555.466V382.912C555.466 389.293 553.839 394.109 550.586 397.363C547.375 400.616 542.938 402.243 537.276 402.243Z" fill="#424342"/>
<path d="M496.494 357.498H501.12V401.863H496.494V357.498ZM468.734 401.863H464.044V357.498H468.734V401.863ZM496.937 381.391H468.227V377.272H496.937V381.391Z" fill="#424342"/>
<path d="M396.983 401.863V357.498H407.314L425.694 387.666H420.243L438.116 357.498H448.447L448.573 401.863H437.038L436.912 375.054H438.876L425.504 397.489H419.926L406.173 375.054H408.582V401.863H396.983Z" fill="#424342"/>
<path d="M362.133 374.673H382.731V384.053H362.133V374.673ZM363.021 392.166H386.217V401.863H350.599V357.498H385.393V367.195H363.021V392.166Z" fill="#424342"/>
<path d="M316.009 401.863V367.448H302.383V357.498H342.121V367.448H328.558V401.863H316.009Z" fill="#424342"/>
<path d="M277.938 402.75C274.304 402.75 270.797 402.307 267.417 401.419C264.079 400.49 261.354 399.307 259.241 397.87L263.361 388.617C265.347 389.885 267.628 390.941 270.206 391.786C272.825 392.589 275.424 392.99 278.001 392.99C279.734 392.99 281.128 392.842 282.184 392.546C283.24 392.208 284.001 391.786 284.466 391.279C284.973 390.73 285.226 390.096 285.226 389.378C285.226 388.364 284.762 387.561 283.832 386.969C282.902 386.378 281.698 385.892 280.219 385.511C278.741 385.131 277.093 384.751 275.276 384.371C273.501 383.99 271.706 383.505 269.889 382.913C268.114 382.321 266.487 381.561 265.009 380.631C263.53 379.66 262.326 378.413 261.396 376.892C260.467 375.329 260.002 373.364 260.002 370.998C260.002 368.336 260.72 365.928 262.157 363.773C263.635 361.618 265.833 359.886 268.748 358.576C271.663 357.266 275.297 356.611 279.649 356.611C282.564 356.611 285.416 356.949 288.205 357.625C291.036 358.259 293.55 359.21 295.747 360.477L291.881 369.794C289.768 368.653 287.677 367.808 285.607 367.259C283.536 366.667 281.529 366.371 279.586 366.371C277.853 366.371 276.459 366.561 275.403 366.942C274.346 367.28 273.586 367.744 273.121 368.336C272.656 368.928 272.424 369.604 272.424 370.364C272.424 371.336 272.868 372.118 273.755 372.709C274.684 373.258 275.889 373.723 277.367 374.103C278.888 374.441 280.536 374.801 282.311 375.181C284.128 375.561 285.923 376.047 287.698 376.639C289.515 377.188 291.163 377.948 292.642 378.92C294.12 379.85 295.303 381.096 296.191 382.659C297.12 384.181 297.585 386.103 297.585 388.427C297.585 391.004 296.846 393.392 295.367 395.589C293.93 397.743 291.754 399.476 288.839 400.786C285.966 402.095 282.332 402.75 277.938 402.75Z" fill="#424342"/>
<ellipse cx="223.421" cy="368.559" rx="4.42127" ry="4.42127" fill="#66B0F0"/>
<ellipse cx="160.892" cy="355.296" rx="5.05288" ry="5.05288" fill="#FE5244"/>
<ellipse cx="160.892" cy="404.561" rx="5.05288" ry="5.05288" fill="#FFCF2D"/>
<ellipse cx="188.721" cy="379.813" rx="5.05288" ry="5.05288" fill="#D0F0E4"/>
<path d="M150.501 401.826C151.2 403.031 152.247 403.991 153.609 404.725C153.732 408.688 156.979 411.884 160.978 411.884C164.715 411.884 167.788 409.073 168.259 405.458C170.215 405.091 172.31 404.568 174.51 403.904C177.164 415.254 181.826 423.652 188.304 423.652C194.8 423.652 199.462 415.236 202.116 403.887C207.302 405.441 211.877 406.261 215.613 406.261C220.799 406.261 224.431 404.777 226.125 401.826C229.058 396.763 225.322 388.853 215.91 380.017C217.534 378.481 219.018 376.944 220.345 375.408C221.218 375.774 222.179 375.984 223.191 375.984C227.26 375.984 230.577 372.666 230.577 368.598C230.577 365.961 229.181 363.657 227.085 362.347C227.155 360.81 226.841 359.396 226.142 358.174C223.209 353.11 214.496 352.394 202.134 356.131C199.462 344.746 194.8 336.348 188.304 336.348C181.809 336.348 177.147 344.746 174.493 356.113C172.31 355.45 170.215 354.926 168.242 354.559C167.753 350.962 164.697 348.151 160.961 348.151C156.979 348.151 153.749 351.329 153.609 355.275C152.247 355.991 151.2 356.952 150.501 358.174C147.585 363.237 151.305 371.147 160.716 380C151.305 388.853 147.568 396.745 150.501 401.826ZM160.961 408.374C158.813 408.374 157.067 406.628 157.067 404.48C157.067 402.333 158.813 400.587 160.961 400.587C163.108 400.587 164.854 402.333 164.854 404.48C164.854 406.628 163.108 408.374 160.961 408.374ZM167.875 401.966C166.845 399.137 164.138 397.094 160.961 397.094C158.114 397.094 155.652 398.736 154.43 401.11C154.046 400.814 153.749 400.464 153.522 400.08C151.566 396.693 155.495 389.673 163.335 382.357C166.042 384.697 169.045 387.002 172.31 389.254C172.607 393.113 173.113 396.902 173.777 400.482C171.699 401.093 169.726 401.599 167.875 401.966ZM177.112 360.653C179.452 361.474 181.861 362.417 184.323 363.534C182.979 364.233 181.599 365.001 180.115 365.839C178.771 366.607 177.391 367.446 176.012 368.319C176.309 365.612 176.675 363.045 177.112 360.653ZM199.479 399.364C197.122 398.526 194.73 397.566 192.286 396.466C193.7 395.715 195.114 394.947 196.494 394.161C197.873 393.375 199.235 392.537 200.58 391.681C200.3 394.405 199.933 396.972 199.479 399.364ZM204.561 375.216C206.743 376.787 208.769 378.394 210.654 380.017C208.751 381.641 206.726 383.23 204.561 384.802C204.63 383.213 204.665 381.606 204.665 380.017C204.665 378.411 204.63 376.805 204.561 375.216ZM200.58 368.319C199.235 367.463 197.873 366.642 196.494 365.839C195.114 365.036 193.7 364.268 192.286 363.534C194.748 362.434 197.14 361.474 199.479 360.653C199.933 363.045 200.3 365.595 200.58 368.319ZM194.748 368.86C196.86 370.065 198.921 371.357 200.929 372.701C201.068 375.041 201.173 377.468 201.173 380C201.173 382.532 201.086 384.941 200.929 387.299C198.921 388.643 196.843 389.935 194.748 391.14C192.67 392.345 190.505 393.497 188.322 394.58C186.139 393.497 183.974 392.345 181.879 391.14C179.871 389.988 177.793 388.678 175.68 387.299C175.54 384.959 175.436 382.532 175.436 380C175.436 377.486 175.523 375.059 175.68 372.701C177.775 371.322 179.871 370.012 181.879 368.86C184.184 367.533 186.296 366.415 188.322 365.42C190.487 366.503 192.652 367.655 194.748 368.86ZM176.029 391.681C177.426 392.554 178.788 393.393 180.133 394.161C181.512 394.947 182.909 395.715 184.341 396.466C181.879 397.583 179.469 398.544 177.129 399.364C176.675 396.972 176.309 394.388 176.029 391.681ZM172.048 384.784C169.883 383.213 167.858 381.606 165.972 380C167.84 378.394 169.866 376.787 172.048 375.198C171.978 376.805 171.943 378.394 171.943 379.983C171.943 381.589 171.978 383.195 172.048 384.784ZM188.304 420.16C184.463 420.16 180.36 413.595 177.845 402.804C181.215 401.634 184.725 400.185 188.322 398.456C191.884 400.167 195.376 401.634 198.781 402.804C196.249 413.595 192.146 420.16 188.304 420.16ZM223.087 400.08C221.114 403.52 213.239 403.642 202.832 400.482C203.513 396.902 204.002 393.113 204.299 389.254C207.546 387.019 210.55 384.714 213.291 382.357C221.236 389.761 225.077 396.64 223.087 400.08ZM223.157 372.474C221.009 372.474 219.263 370.728 219.263 368.581C219.263 366.433 221.009 364.687 223.157 364.687C225.304 364.687 227.05 366.433 227.05 368.581C227.05 370.728 225.304 372.474 223.157 372.474ZM223.087 359.902C223.314 360.304 223.453 360.741 223.523 361.229C223.401 361.229 223.279 361.195 223.157 361.195C219.088 361.195 215.771 364.512 215.771 368.581C215.771 370.379 216.452 372.003 217.517 373.295C216.259 374.744 214.828 376.194 213.274 377.66C210.567 375.32 207.564 373.016 204.299 370.763C204.002 366.904 203.513 363.115 202.832 359.536C213.221 356.375 221.096 356.498 223.087 359.902ZM188.304 339.84C192.146 339.84 196.249 346.423 198.764 357.196C195.394 358.366 191.884 359.815 188.304 361.544C184.69 359.815 181.18 358.348 177.828 357.196C180.342 346.405 184.463 339.84 188.304 339.84ZM160.961 351.643C163.108 351.643 164.854 353.389 164.854 355.537C164.854 357.685 163.108 359.431 160.961 359.431C158.813 359.431 157.067 357.685 157.067 355.537C157.067 353.389 158.813 351.643 160.961 351.643ZM153.522 359.92C153.749 359.536 154.046 359.204 154.43 358.89C155.652 361.264 158.114 362.923 160.978 362.923C164.173 362.923 166.862 360.88 167.893 358.034C169.743 358.401 171.716 358.907 173.777 359.536C173.096 363.098 172.607 366.887 172.31 370.746C169.027 372.998 166.007 375.32 163.335 377.643C155.39 370.239 151.549 363.342 153.522 359.92Z" fill="#424342"/>
<path d="M188.304 388.188C192.827 388.188 196.494 384.504 196.494 379.999C196.494 375.494 192.809 371.81 188.304 371.81C183.8 371.81 180.115 375.494 180.115 379.999C180.115 384.504 183.782 388.188 188.304 388.188ZM188.304 375.302C190.889 375.302 193.001 377.415 193.001 379.999C193.001 382.583 190.889 384.696 188.304 384.696C185.72 384.696 183.607 382.583 183.607 379.999C183.607 377.415 185.703 375.302 188.304 375.302Z" fill="#424342"/>
</svg>
