<svg width="760" height="760" viewBox="0 0 760 760" fill="none" xmlns="http://www.w3.org/2000/svg">
<rect width="760" height="760" fill="white"/>
<g clip-path="url(#clip0_522_45456)">
<path fill-rule="evenodd" clip-rule="evenodd" d="M378.426 450H518.5V310H378.426V450Z" fill="#DC2D27"/>
<path fill-rule="evenodd" clip-rule="evenodd" d="M241.5 450H381.574V310H241.5V450Z" fill="black"/>
<path fill-rule="evenodd" clip-rule="evenodd" d="M408.331 358.887L410.27 360C411.112 360.475 411.867 360.982 411.867 361.962C411.867 363.194 410.97 363.903 409.407 363.903L409.245 363.898C408.273 363.883 407.577 363.828 406.806 363.194L406.658 363.071V364.454L406.716 364.477C407.514 364.779 408.081 364.784 408.864 364.786L409.129 364.79L409.33 364.795C410.196 364.795 411.79 364.652 412.702 363.705C413.178 363.213 413.405 362.566 413.377 361.783C413.314 360.109 412.423 359.609 411.295 358.976C411.167 358.906 411.036 358.835 410.904 358.756L409.208 357.773C408.509 357.372 408.062 356.986 407.996 356.286C407.979 356.09 408.005 355.892 408.071 355.706C408.138 355.52 408.243 355.35 408.381 355.209C408.783 354.772 409.444 354.498 410.109 354.498C410.157 354.498 410.205 354.498 410.256 354.503C411.063 354.531 411.646 354.657 412.223 355.201L412.377 355.351V353.977L412.321 353.954C411.649 353.68 411.167 353.666 410.503 353.644C410.342 353.642 410.168 353.633 410.002 353.63C408.924 353.63 407.947 353.993 407.319 354.629C406.852 355.1 406.606 355.698 406.612 356.356C406.628 357.425 407.141 358.184 408.331 358.888M413.917 354.271C414.027 354.413 414.065 354.496 414.105 354.643L417.961 365.022L420.716 357.432L423.445 364.731L423.53 364.966L427.172 354.827C427.207 354.723 427.254 354.624 427.312 354.531L427.375 354.421C427.501 354.227 427.587 354.095 427.738 353.913L427.864 353.765H425.933L426.024 353.906C426.096 354.006 426.134 354.125 426.135 354.248C426.147 354.408 426.098 354.522 426.015 354.706L423.67 361.671L421.131 354.63C421.072 354.48 421.058 354.316 421.09 354.158C421.111 354.072 421.146 353.989 421.193 353.913L421.265 353.779H418.95L419.11 353.936C419.211 354.039 419.299 354.124 419.4 354.256L419.48 354.352C419.56 354.446 419.622 354.517 419.672 354.647L420.187 355.953L418.046 361.657L415.517 354.468C415.484 354.378 415.49 354.311 415.519 354.196C415.533 354.096 415.573 354.001 415.635 353.921L415.727 353.779H413.256L413.555 353.952C413.697 354.031 413.821 354.14 413.917 354.271ZM429.164 354.397C429.23 354.61 429.243 354.726 429.243 354.926V363.604C429.243 363.817 429.243 363.942 429.164 364.134C429.128 364.254 429.073 364.367 429.002 364.469L428.908 364.611H430.897L430.825 364.474C430.801 364.427 430.773 364.391 430.749 364.351C430.697 364.27 430.655 364.205 430.639 364.109C430.595 363.76 430.595 363.283 430.595 362.731V354.898C430.595 354.743 430.595 354.649 430.689 354.331L430.699 354.312C430.754 354.166 430.793 354.058 430.859 353.925L430.922 353.793H428.856L428.947 353.932C429.051 354.091 429.108 354.213 429.164 354.397ZM432.871 354.246C432.944 354.37 432.98 354.513 432.975 354.657V363.565C432.975 363.773 432.975 363.909 432.918 364.119C432.889 364.247 432.831 364.366 432.748 364.468L432.647 364.613H434.3L434.227 364.378C434.191 364.268 434.161 364.156 434.136 364.043C434.037 363.579 434.037 363.579 434.037 363.277V355.586L442.507 364.93L442.668 365.105L442.652 354.898C442.652 354.69 442.652 354.566 442.692 354.347C442.725 354.164 442.748 354.051 442.802 353.888L442.843 353.768H441.395L441.431 353.883C441.477 354.043 441.5 354.135 441.53 354.284C441.606 354.707 441.602 355.001 441.602 355.379L441.601 362.149L434.259 353.781H432.313L432.606 353.952C432.727 354.015 432.821 354.119 432.871 354.246ZM444.535 354.301C444.624 354.487 444.671 354.69 444.67 354.896V363.677C444.672 363.853 444.642 364.028 444.58 364.193L444.564 364.219C444.525 364.312 444.475 364.4 444.415 364.48L444.313 364.625H447.333C449.547 364.625 450.932 363.422 450.95 361.492C450.95 360.09 450.307 359.16 449.045 358.733L448.798 358.646L449.034 358.501C449.917 357.995 450.262 357.395 450.234 356.423C450.155 354.942 449.006 353.781 447.613 353.781H444.218L444.316 353.924C444.412 354.064 444.468 354.153 444.536 354.301M446.87 359.198C448.664 359.25 449.59 360.019 449.624 361.479C449.67 362.966 448.326 363.716 446.979 363.799C446.661 363.822 446.341 363.787 446.036 363.695V359.264C446.343 359.198 446.537 359.198 446.87 359.198ZM446.818 358.333H445.979V354.673H446.933C448.142 354.673 448.897 355.33 448.952 356.43C448.973 356.971 448.82 357.429 448.509 357.754C448.142 358.132 447.556 358.333 446.818 358.333ZM452.708 354.438C452.727 354.566 452.723 354.654 452.723 354.767C452.719 354.814 452.719 354.858 452.719 354.91V361.034C452.719 363.169 454.56 364.776 457.001 364.776H457.085C459.39 364.735 461.126 363.15 461.126 361.095V354.706C461.117 354.429 461.16 354.153 461.252 353.892L461.287 353.776H459.541L459.593 353.899C459.656 354.062 459.683 354.166 459.725 354.339L459.73 354.355C459.759 354.544 459.759 354.669 459.759 354.883V360.987C459.759 362.5 458.633 363.625 457.077 363.67H456.985C455.396 363.67 454.058 362.406 454.058 360.906V354.701C454.049 354.574 454.06 354.447 454.089 354.323C454.103 354.178 454.143 354.035 454.206 353.903L454.261 353.778H452.533L452.58 353.897C452.656 354.102 452.681 354.224 452.706 354.437M462.884 354.012C462.941 354.106 462.984 354.208 463.012 354.314C463.083 354.702 463.095 354.929 463.095 355.329V362.978C463.095 363.357 463.095 363.839 463.054 364.054C463.048 364.167 463.005 364.248 462.949 364.356L462.892 364.462L462.826 364.597H464.678L464.584 364.353C464.535 364.221 464.499 364.126 464.475 363.969C464.433 363.776 464.433 363.658 464.433 363.482V358.676C464.449 358.684 464.46 358.695 464.475 358.712C464.549 358.766 464.589 358.822 464.639 358.898C464.671 358.94 464.7 358.986 464.74 359.035L469.03 364.603L469.055 364.636H471.065L470.84 364.474C470.631 364.32 470.513 364.222 470.305 364.051C469.998 363.784 469.759 363.469 469.452 363.076L466.858 359.78C466.633 359.483 466.381 359.209 466.104 358.959L466.085 358.94C466.127 358.944 466.169 358.946 466.211 358.945C467.623 358.945 468.793 357.76 468.819 356.315C468.835 355.996 468.785 355.677 468.673 355.377C468.56 355.078 468.388 354.805 468.166 354.575C467.662 354.061 466.92 353.766 466.12 353.766H462.757L462.823 353.899L462.886 354.012H462.884ZM464.45 354.758C464.809 354.608 465.056 354.589 465.486 354.589C467.132 354.658 467.411 355.475 467.467 356.348C467.552 357.465 466.732 358.202 465.286 358.32C465.003 358.336 464.656 358.325 464.45 358.302V354.758ZM471.729 354.242C471.801 354.369 471.838 354.513 471.836 354.66V363.563C471.836 363.769 471.836 363.906 471.781 364.114C471.748 364.243 471.688 364.363 471.603 364.466L471.503 364.609H473.155L473.122 364.491C473.106 364.435 473.089 364.388 473.075 364.34C473.047 364.24 473.018 364.156 472.999 364.043C472.897 363.579 472.897 363.579 472.897 363.277V355.586L481.361 364.93L481.522 365.103L481.512 354.894C481.512 354.688 481.512 354.564 481.555 354.341C481.58 354.16 481.612 354.046 481.659 353.884L481.698 353.765H480.25L480.286 353.883C480.337 354.04 480.359 354.128 480.39 354.282C480.466 354.695 480.46 354.987 480.456 355.352V362.149L473.122 353.781H471.167L471.46 353.949C471.602 354.032 471.67 354.106 471.729 354.242ZM483.491 354.215C483.544 354.35 483.571 354.494 483.57 354.64V363.578C483.57 363.629 483.57 363.68 483.573 363.724C483.577 363.85 483.585 363.96 483.541 364.095C483.513 364.229 483.456 364.355 483.374 364.465L483.27 364.609H489.673L490.139 363.095L489.923 363.241C489.785 363.341 489.631 363.415 489.467 363.461C489.092 363.587 488.698 363.642 488.304 363.625H484.984V359.042H487.75C487.92 359.042 488.039 359.042 488.2 359.064C488.448 359.127 488.581 359.165 488.782 359.26L488.908 359.322V358.073H484.94V354.743H487.75L487.923 354.742C488.064 354.732 488.184 354.718 488.379 354.786C488.529 354.831 488.631 354.899 488.755 355.017L488.908 355.168V353.79H483.151L483.313 353.947C483.407 354.039 483.44 354.102 483.491 354.215ZM399.539 383.13C401.843 383.088 403.581 381.504 403.581 379.449V373.208L403.579 373.06C403.579 372.939 403.575 372.844 403.598 372.707C403.621 372.551 403.657 372.398 403.707 372.248L403.745 372.13H402.002L402.051 372.256C402.117 372.418 402.146 372.528 402.188 372.706C402.216 372.899 402.216 373.027 402.216 373.239V379.342C402.216 380.856 401.088 381.98 399.535 382.026H399.44C397.857 382.026 396.516 380.758 396.516 379.261V373.165L396.513 373.057C396.513 372.924 396.511 372.824 396.546 372.674C396.563 372.531 396.603 372.39 396.664 372.259L396.721 372.13H394.996L395.04 372.253C395.142 372.529 395.188 372.822 395.177 373.116L395.175 373.264V379.388C395.175 381.523 397.016 383.13 399.462 383.13H399.539ZM406.823 382.68C406.791 382.588 406.766 382.493 406.748 382.397C406.648 381.933 406.648 381.933 406.648 381.631V373.944L415.119 383.288L415.276 383.467L415.264 373.25C415.264 373.041 415.264 372.915 415.302 372.693C415.329 372.537 415.367 372.382 415.415 372.231L415.453 372.116H414.005L414.038 372.231C414.083 372.382 414.112 372.486 414.142 372.637C414.217 373.05 414.216 373.34 414.211 373.711V380.5L406.874 372.136H404.933L405.213 372.306C405.336 372.368 405.431 372.473 405.482 372.6C405.555 372.724 405.591 372.866 405.586 373.009V381.919C405.586 382.127 405.586 382.265 405.528 382.466C405.5 382.596 405.442 382.718 405.359 382.822L405.259 382.964H406.908L406.877 382.849L406.823 382.68ZM418.942 372.687L418.966 372.629C419.013 372.498 419.049 372.402 419.11 372.28L419.173 372.147H417.105L417.195 372.286C417.299 372.443 417.352 372.563 417.415 372.756C417.481 372.951 417.494 373.071 417.494 373.282V381.955C417.494 382.175 417.494 382.29 417.415 382.49C417.38 382.611 417.324 382.724 417.252 382.827L417.162 382.964H419.161L419.077 382.828C419.058 382.791 419.035 382.757 419.014 382.723C418.953 382.645 418.911 382.555 418.89 382.459C418.848 382.109 418.848 381.634 418.848 381.085V373.249C418.848 373.101 418.848 373.008 418.942 372.687ZM422.293 372.119H420.085L420.366 372.289C420.513 372.372 420.587 372.446 420.684 372.608C420.737 372.686 420.78 372.771 420.812 372.86L425.916 383.297L430.666 373.204C430.731 373.062 430.807 372.924 430.892 372.792C431.006 372.577 431.094 372.454 431.223 372.283L431.336 372.136H429.545L429.583 372.251C429.619 372.363 429.637 372.48 429.636 372.597C429.625 372.712 429.59 372.824 429.532 372.924C429.511 372.968 429.49 373.012 429.47 373.057L425.954 380.599L422.214 372.728C422.174 372.645 422.152 372.555 422.151 372.464C422.151 372.391 422.16 372.338 422.208 372.261L422.293 372.119ZM432.683 382.813L432.573 382.96H438.982L439.449 381.453L439.234 381.597C439.094 381.695 438.939 381.768 438.774 381.814C438.401 381.939 438.008 381.996 437.614 381.982H434.29V377.397H437.06C437.227 377.397 437.35 377.397 437.51 377.419C437.735 377.472 437.872 377.518 438.093 377.617L438.219 377.673V376.428H434.248V373.101H437.06C437.122 373.101 437.178 373.093 437.237 373.093C437.388 373.077 437.542 373.091 437.688 373.135C437.833 373.179 437.963 373.259 438.066 373.37L438.219 373.525V372.141H432.474L432.622 372.295C432.713 372.394 432.751 372.453 432.803 372.564C432.858 372.725 432.882 372.827 432.882 372.992V381.927C432.882 381.982 432.883 382.031 432.886 382.076C432.888 382.209 432.893 382.314 432.853 382.451C432.827 382.583 432.768 382.707 432.683 382.813ZM448.636 382.828C448.453 382.69 448.273 382.549 448.096 382.404C447.794 382.133 447.548 381.814 447.242 381.413L444.656 378.133C444.428 377.837 444.175 377.562 443.9 377.31L443.88 377.291C443.924 377.296 443.97 377.296 444.012 377.296C445.424 377.296 446.587 376.116 446.615 374.667C446.631 374.349 446.581 374.031 446.469 373.732C446.357 373.434 446.185 373.162 445.964 372.932C445.463 372.413 444.712 372.119 443.91 372.119H440.548L440.669 372.342C440.727 372.449 440.778 372.536 440.808 372.663C440.874 373.057 440.893 373.285 440.893 373.681V381.328C440.893 381.713 440.893 382.193 440.85 382.408C440.837 382.523 440.796 382.632 440.732 382.728L440.619 382.948H442.47L442.427 382.828C442.408 382.776 442.393 382.729 442.375 382.687C442.326 382.571 442.291 382.449 442.271 382.325C442.237 382.173 442.223 382.017 442.232 381.861V377.029L442.271 377.065C442.345 377.121 442.385 377.18 442.441 377.255C442.468 377.298 442.501 377.34 442.539 377.39L446.823 382.956L446.85 382.992H448.853L448.636 382.828ZM442.248 373.11C442.605 372.964 442.852 372.945 443.28 372.945C444.933 373.013 445.211 373.87 445.265 374.697C445.348 375.82 444.528 376.557 443.082 376.675C442.775 376.682 442.446 376.675 442.248 376.656V373.11Z" fill="white"/>
<path fill-rule="evenodd" clip-rule="evenodd" d="M448.743 374.71C448.759 375.783 449.27 376.538 450.462 377.242L452.401 378.358C453.238 378.83 453.997 379.333 453.997 380.318C453.997 381.53 453.077 382.257 451.538 382.257C451.485 382.257 451.428 382.252 451.371 382.252C450.405 382.238 449.714 382.182 448.932 381.548L448.786 381.425V382.809L448.842 382.831C449.629 383.126 450.186 383.133 450.957 383.14L451.257 383.148L451.458 383.149C452.327 383.149 453.916 383.006 454.832 382.059C455.309 381.567 455.536 380.92 455.509 380.14C455.441 378.463 454.546 377.961 453.422 377.329L453.035 377.109L451.334 376.127C450.636 375.726 450.193 375.337 450.125 374.641C450.108 374.444 450.134 374.246 450.2 374.06C450.267 373.874 450.372 373.705 450.509 373.563C450.913 373.126 451.576 372.855 452.237 372.855L452.383 372.857C453.194 372.888 453.776 373.014 454.355 373.555L454.511 373.705V372.331L454.455 372.309C453.781 372.034 453.274 372.02 452.632 372.001C452.475 371.992 452.306 371.985 452.132 371.985C451.055 371.985 450.078 372.347 449.45 372.983C448.979 373.451 448.738 374.052 448.743 374.71ZM458.732 372.687L458.776 372.569C458.814 372.468 458.85 372.38 458.902 372.279L458.965 372.147H456.897L456.987 372.286C457.103 372.463 457.155 372.585 457.207 372.753C457.275 372.964 457.286 373.083 457.286 373.281V381.955C457.286 382.175 457.286 382.29 457.207 382.49C457.171 382.61 457.117 382.723 457.047 382.827L456.952 382.963H458.942L458.866 382.828C458.845 382.786 458.82 382.746 458.791 382.709C458.737 382.633 458.699 382.548 458.68 382.457C458.64 382.109 458.64 381.634 458.64 381.085V373.248C458.64 373.101 458.639 373.008 458.732 372.687ZM460.992 373.13H463.588V381.944C463.588 382.013 463.592 382.078 463.592 382.131C463.604 382.254 463.599 382.378 463.577 382.499C463.54 382.614 463.494 382.726 463.438 382.833L463.372 382.965H465.176L465.327 382.957L465.251 382.82C465.173 382.683 465.118 382.599 465.108 382.468C465.051 382.153 465.051 382.122 465.053 382.013V373.085H467.288C467.508 373.085 467.658 373.107 467.902 373.182C468.078 373.225 468.196 373.264 468.368 373.349L468.512 373.415L468.386 372.133H460.221L459.935 373.513L460.114 373.401C460.276 373.292 460.458 373.217 460.649 373.181C460.759 373.142 460.876 373.125 460.992 373.13ZM477.137 373.13C477.246 372.948 477.318 372.83 477.439 372.665C477.559 372.508 477.638 372.415 477.789 372.279L477.965 372.122H476.164L476.18 372.226C476.194 372.303 476.195 372.382 476.183 372.459C476.154 372.567 476.104 372.669 476.037 372.759L473.687 376.473L471.537 372.987L471.495 372.923C471.419 372.802 471.363 372.712 471.32 372.57C471.29 372.462 471.28 372.349 471.293 372.237L471.306 372.133H469.23L469.435 372.298C469.542 372.382 469.603 372.452 469.674 372.533L469.726 372.589C469.842 372.747 469.899 372.827 470 372.986L472.883 377.519V382.27C472.883 382.3 472.883 382.33 472.888 382.356C472.888 382.421 472.889 382.47 472.869 382.545C472.853 382.651 472.822 382.754 472.776 382.85L472.724 382.976H474.37L474.329 382.858C474.296 382.757 474.269 382.653 474.251 382.548C474.221 382.44 474.206 382.328 474.203 382.216V377.519L477.137 373.13ZM488.799 371.902C487.335 371.906 485.932 372.492 484.898 373.529C483.865 374.566 483.285 375.97 483.286 377.434C483.286 380.44 485.666 382.874 488.702 382.979H488.834C490.329 382.979 491.78 382.378 492.808 381.328C493.002 381.132 493.088 380.874 493.244 380.656C493.307 380.568 493.365 380.473 493.423 380.379C493.756 379.862 493.992 379.289 494.121 378.688C494.144 378.59 494.158 378.494 494.174 378.395C494.226 378.062 494.354 377.75 494.347 377.409C494.337 375.972 493.769 374.594 492.762 373.567C491.756 372.54 490.39 371.944 488.952 371.903L488.799 371.902ZM488.861 372.959C491.198 372.998 492.983 374.91 493.011 377.409C493.011 378.553 492.57 379.699 491.807 380.547C491.014 381.428 489.958 381.908 488.829 381.908H488.735C486.412 381.856 484.635 379.865 484.682 377.373C484.725 375.235 486.177 372.959 488.799 372.959H488.861ZM497.363 376.413V373.102H500.333L500.462 373.097C500.594 373.097 500.706 373.105 500.829 373.135C500.967 373.181 501.049 373.245 501.173 373.337L501.349 373.475V372.135H495.691L495.8 372.281C495.866 372.377 495.926 372.457 495.961 372.57C496.012 372.701 496.039 372.839 496.039 372.979V381.919L496.042 382.092C496.047 382.215 496.055 382.325 496.028 382.448C495.989 382.585 495.933 382.717 495.861 382.841L495.786 382.976H497.612L497.586 382.863C497.577 382.813 497.56 382.765 497.538 382.72C497.513 382.669 497.497 382.615 497.492 382.559C497.429 382.106 497.4 381.648 497.405 381.191V377.382H500.169C500.249 377.382 500.319 377.382 500.386 377.378C500.507 377.378 500.616 377.374 500.78 377.382C500.921 377.382 501.016 377.411 501.145 377.444L501.357 377.496V376.415H497.36L497.363 376.413ZM398.213 390.486L397.926 391.865L398.106 391.752C398.266 391.642 398.449 391.568 398.641 391.535C398.751 391.497 398.867 391.479 398.984 391.481H401.579V400.298C401.579 400.369 401.581 400.43 401.585 400.49C401.59 400.624 401.598 400.726 401.57 400.852L401.56 400.883C401.53 400.987 401.487 401.086 401.434 401.179L401.352 401.313H403.17L403.328 401.311L403.249 401.174C403.166 401.034 403.115 400.953 403.099 400.828C403.044 400.501 403.044 400.476 403.047 400.363V391.439H405.282C405.514 391.439 405.66 391.459 405.89 391.535C406.083 391.582 406.202 391.623 406.359 391.703L406.505 391.776L406.381 390.486H398.213ZM414.227 400.169C413.853 400.294 413.459 400.35 413.065 400.336H409.744V395.746H412.505C412.863 395.736 413.218 395.813 413.54 395.969L413.671 396.032V394.783H409.699V391.455H412.505C412.568 391.455 412.631 391.45 412.687 391.45C412.821 391.442 412.935 391.423 413.138 391.497C413.283 391.537 413.413 391.618 413.514 391.73L413.671 391.89V390.498H407.926L408.071 390.652C408.151 390.73 408.213 390.823 408.254 390.926C408.307 391.06 408.334 391.203 408.333 391.348V400.283C408.333 400.333 408.336 400.38 408.339 400.427C408.34 400.559 408.345 400.666 408.306 400.805C408.276 400.938 408.219 401.063 408.137 401.171L408.037 401.318H414.43L414.899 399.812L414.686 399.951C414.546 400.048 414.391 400.123 414.227 400.171M421.334 400.46H421.183C419.801 400.46 418.559 399.977 417.694 399.092C416.882 398.269 416.466 397.182 416.487 395.954C416.513 393.327 418.52 391.348 421.156 391.348H421.26C422.238 391.367 422.855 391.537 423.701 392.016L423.838 392.09V390.833L423.785 390.81C422.88 390.429 422.264 390.357 421.232 390.343H421.166C419.403 390.343 417.809 390.966 416.68 392.098C416.495 392.284 416.413 392.534 416.254 392.743C416.203 392.811 416.161 392.886 416.112 392.957C415.756 393.485 415.501 394.073 415.358 394.694C415.339 394.782 415.322 394.871 415.309 394.961C415.247 395.293 415.116 395.606 415.117 395.954C415.13 399.117 417.672 401.508 421.029 401.508C421.139 401.508 421.245 401.503 421.353 401.499L421.514 401.495C422.436 401.469 423.045 401.451 423.947 401.126L423.989 401.112L424.687 399.375L424.435 399.548C423.585 400.146 422.568 400.445 421.334 400.46ZM434.268 400.762C434.23 400.61 434.212 400.454 434.215 400.297V391.96C434.215 391.887 434.215 391.818 434.212 391.755C434.21 391.51 434.202 391.312 434.268 391.057C434.304 390.91 434.356 390.767 434.422 390.63L434.479 390.5H432.46L432.6 390.651C432.723 390.778 432.809 390.936 432.85 391.109C432.902 391.255 432.897 391.373 432.894 391.519C432.891 391.572 432.89 391.624 432.89 391.677V394.738H427.274V391.717C427.274 391.434 427.274 391.244 427.354 390.984L427.383 390.914C427.425 390.81 427.453 390.734 427.52 390.615L427.592 390.481H425.59L425.694 390.626C425.804 390.772 425.854 390.863 425.925 391.028C425.98 391.216 425.98 391.345 425.98 391.563V400.46C425.994 400.608 425.978 400.758 425.933 400.899C425.883 400.999 425.824 401.094 425.758 401.184L425.648 401.33H427.644L427.493 401.11C427.436 401.039 427.39 400.959 427.356 400.874C427.294 400.641 427.271 400.4 427.288 400.16L427.29 399.924V395.71H432.89V400.38C432.89 400.437 432.893 400.486 432.894 400.531C432.897 400.607 432.899 400.668 432.893 400.736C432.866 400.889 432.798 401.033 432.696 401.151L432.576 401.3H434.504L434.433 401.163C434.347 401.006 434.309 400.899 434.268 400.762ZM444.975 390.583C445.018 390.744 445.044 390.84 445.074 390.995C445.15 391.404 445.15 391.699 445.145 392.067L445.144 392.334V398.856L437.809 390.484H435.867L436.146 390.657C436.267 390.719 436.362 390.821 436.415 390.947C436.486 391.073 436.522 391.217 436.519 391.362V400.267C436.519 400.474 436.519 400.613 436.465 400.824C436.436 400.951 436.377 401.07 436.292 401.17L436.196 401.314H437.841L437.809 401.197C437.792 401.134 437.773 401.08 437.756 401.031C437.724 400.932 437.699 400.857 437.68 400.748C437.584 400.286 437.584 400.286 437.584 399.979V392.293L446.047 401.637L446.204 401.816L446.197 391.607C446.197 391.387 446.197 391.268 446.234 391.049C446.266 390.866 446.296 390.759 446.348 390.588L446.382 390.47H444.947L444.975 390.583ZM458.652 397.044C458.671 396.943 458.69 396.844 458.704 396.737C458.759 396.407 458.887 396.103 458.879 395.762C458.822 392.735 456.499 390.374 453.477 390.258L453.32 390.256C450.285 390.256 447.819 392.735 447.819 395.787C447.819 398.794 450.194 401.228 453.23 401.329H453.369C454.861 401.329 456.305 400.732 457.335 399.685C457.528 399.488 457.621 399.224 457.779 399.002C457.838 398.92 457.892 398.829 457.949 398.738C458.282 398.212 458.515 397.656 458.652 397.044ZM453.392 391.31C455.729 391.348 457.513 393.261 457.536 395.762C457.536 396.907 457.099 398.049 456.334 398.898C455.541 399.781 454.481 400.262 453.359 400.262H453.268C450.945 400.209 449.162 398.217 449.209 395.727C449.251 393.589 450.714 391.31 453.345 391.31H453.392ZM466.82 400.161C466.789 400.171 466.754 400.177 466.701 400.194C466.509 400.268 466.303 400.3 466.098 400.289L462.083 400.305L462.067 391.897C462.067 391.817 462.067 391.746 462.064 391.677C462.049 391.454 462.067 391.231 462.118 391.014C462.149 390.881 462.2 390.753 462.267 390.634L462.34 390.501H460.355L460.459 390.643C460.558 390.785 460.619 390.903 460.676 391.083C460.728 391.297 460.742 391.401 460.742 391.609V400.393C460.742 400.586 460.742 400.709 460.676 400.883C460.638 400.986 460.583 401.061 460.516 401.157L460.412 401.302H466.838L467.316 400.012L467.168 399.918C466.916 400.143 466.894 400.146 466.82 400.161ZM478.162 397.044C478.182 396.942 478.199 396.84 478.214 396.737C478.267 396.407 478.395 396.103 478.387 395.762C478.332 392.735 476.006 390.374 472.984 390.258L472.826 390.256C469.792 390.256 467.323 392.735 467.323 395.787C467.323 398.744 469.753 401.233 472.737 401.329H472.874C474.369 401.329 475.817 400.731 476.844 399.682C477.038 399.483 477.125 399.229 477.28 399.01C477.35 398.92 477.406 398.823 477.464 398.728C477.793 398.205 478.026 397.651 478.162 397.044ZM472.897 391.31C475.23 391.348 477.019 393.261 477.049 395.762C477.044 396.919 476.615 398.035 475.843 398.898C475.05 399.781 473.989 400.262 472.864 400.262H472.771C470.456 400.209 468.679 398.217 468.723 395.727C468.761 393.589 470.218 391.31 472.852 391.31H472.897ZM487.915 396.007C488.068 396.177 488.157 396.279 488.222 396.484C488.337 396.857 488.337 397.16 488.335 397.541V399.705C487.495 400.177 486.835 400.292 486.003 400.334C485.918 400.339 485.837 400.339 485.754 400.339C483.17 400.339 481.237 398.483 481.16 395.925C481.132 394.675 481.574 393.478 482.373 392.646C483.152 391.835 484.234 391.4 485.499 391.381C486.387 391.381 487.43 391.466 488.434 392.065L488.568 392.147V390.833L488.511 390.811C487.488 390.41 486.768 390.372 485.71 390.355H485.647C485.28 390.355 484.986 390.475 484.648 390.523C484.555 390.533 484.47 390.552 484.378 390.569C483.681 390.695 483.058 390.909 482.506 391.225C482.465 391.249 482.425 391.274 482.386 391.301C481.836 391.633 481.356 392.067 480.971 392.581C480.924 392.65 480.88 392.721 480.837 392.789C480.491 393.308 480.242 393.896 480.091 394.557C480.065 394.665 480.044 394.783 480.022 394.897C479.961 395.252 479.828 395.562 479.822 395.949C479.817 396.293 479.948 396.611 480.008 396.945C480.024 397.02 480.035 397.092 480.049 397.165C480.195 397.818 480.464 398.414 480.853 398.971C480.885 399.013 480.908 399.054 480.938 399.092C481.084 399.295 481.168 399.537 481.349 399.719C482.462 400.844 484.001 401.466 485.691 401.466C485.782 401.466 485.877 401.462 485.971 401.458C487.529 401.396 488.888 400.843 489.572 400.385L489.612 400.358L489.597 396.756V396.668C489.586 396.555 489.601 396.442 489.64 396.336C489.673 396.213 489.735 396.1 489.819 396.006L489.937 395.856H487.781L487.915 396.007ZM496.988 390.582C497.004 390.667 497.004 390.733 496.99 390.813C496.96 390.921 496.911 391.023 496.843 391.113L494.492 394.827L492.282 391.252C492.218 391.153 492.166 391.047 492.125 390.936C492.101 390.805 492.087 390.715 492.101 390.59L492.116 390.489H490.033L490.241 390.654C490.359 390.744 490.422 390.819 490.506 390.914L490.537 390.951C490.647 391.099 490.701 391.183 490.809 391.34L493.689 395.869V400.624C493.689 400.659 493.689 400.687 493.694 400.712C493.694 400.781 493.699 400.824 493.675 400.899C493.664 401.003 493.636 401.074 493.584 401.206L493.532 401.332H495.177L495.137 401.214C495.114 401.139 495.093 401.064 495.074 400.989L495.054 400.91C495.03 400.799 495.017 400.686 495.015 400.572V395.869L497.944 391.485C498.062 391.291 498.128 391.183 498.246 391.014C498.364 390.859 498.447 390.764 498.595 390.634L498.768 390.475H496.971L496.987 390.582H496.988ZM264.785 354.836C261.378 354.792 259.026 354.553 256.385 352.39V356.181C259.314 357.285 261.28 357.188 264.403 357.235C270.881 357.38 278.657 355.365 278.371 347.451C278.133 341.358 274.532 340.01 270.21 337.517L264.499 334.207C262.242 332.911 260.517 331.524 260.276 328.979C259.938 325.046 264.258 322.403 268.194 322.647C270.977 322.741 272.994 323.174 275.012 325.095V321.398C272.417 320.347 270.641 320.442 267.812 320.347C261.765 320.151 256.192 323.506 256.239 329.169C256.288 333.007 258.354 335.36 261.858 337.421L268.388 341.165C271.359 342.843 273.904 344.614 273.904 348.023C273.904 352.489 270.451 355.033 264.785 354.836ZM280.094 323.794C280.456 324.247 280.595 324.565 280.732 325.068L292.737 357.384L301.516 333.201L310.476 357.202L321.803 325.655C321.982 325.107 322.212 324.791 322.483 324.291C322.892 323.652 323.163 323.248 323.665 322.655H318.659C318.934 323.064 319.02 323.383 319.071 323.885C319.116 324.473 318.934 324.881 318.659 325.471L310.929 348.429L302.563 325.202C302.383 324.61 302.286 324.201 302.427 323.566C302.515 323.199 302.61 323.02 302.789 322.701H296.606C296.969 323.064 297.238 323.336 297.558 323.748C297.923 324.201 298.242 324.472 298.469 325.068L300.153 329.339L293.012 348.335L284.687 324.705C284.551 324.338 284.597 324.064 284.687 323.698C284.734 323.294 284.872 323.064 285.102 322.701H278.863C279.411 323.02 279.683 323.294 280.094 323.794ZM323.591 332.744C323.824 333.098 323.959 333.374 324.084 333.801C324.249 334.283 324.276 334.563 324.276 335.016V354.459C324.276 354.926 324.276 355.237 324.091 355.665V355.671L324.084 355.676C324.005 355.95 323.882 356.21 323.718 356.444L323.597 356.625H327.766L327.658 356.452L327.511 356.219C327.375 356.019 327.266 355.857 327.223 355.594C327.129 354.811 327.129 353.741 327.129 352.508V334.95C327.129 334.599 327.129 334.393 327.349 333.636C327.472 333.297 327.57 333.046 327.724 332.735L327.809 332.567H323.473L323.591 332.744ZM364.592 322.66H360.772C360.904 323.158 360.999 323.478 361.088 323.975C361.408 325.611 361.315 326.66 361.315 328.294V349.84L337.528 322.702H332.527C332.984 322.979 333.258 323.245 333.484 323.748C333.755 324.252 333.846 324.656 333.846 325.203V353.563C333.846 354.248 333.846 354.701 333.664 355.385C333.576 355.888 333.395 356.156 333.075 356.609H337.394C337.211 356.019 337.077 355.703 336.985 355.155C336.67 353.658 336.67 353.658 336.67 352.659V327.429L364.138 357.748L364.091 325.972C364.091 325.293 364.091 324.889 364.231 324.16C364.321 323.567 364.411 323.201 364.593 322.661M291.467 386.979C291.467 382.528 289.37 379.75 285.596 378.476L284.232 377.977L285.507 377.206C287.963 375.8 289.284 374.068 289.191 370.84C288.964 366.432 285.554 362.704 281.139 362.704H270.862C271.183 363.164 271.365 363.475 271.589 363.979C271.913 364.705 272.045 365.206 272.045 365.976V393.929C272.045 394.615 271.953 395.068 271.724 395.702C271.542 396.07 271.452 396.297 271.183 396.661H280.234C287.143 396.661 291.42 392.981 291.467 386.979ZM275.64 364.976H278.961C283.185 364.976 285.507 367.43 285.688 370.84C285.825 374.521 283.552 377.206 278.594 377.206H275.64V364.976ZM279.139 394.615C277.864 394.706 277.05 394.569 275.823 394.206V379.657C276.956 379.386 277.637 379.386 278.778 379.386C283.275 379.52 287.69 381.114 287.828 386.934C287.963 391.84 283.594 394.343 279.139 394.615ZM323.19 365.843C323.19 365.204 323.139 364.845 323.234 364.208C323.327 363.617 323.416 363.25 323.597 362.708H318.862C319.093 363.25 319.187 363.617 319.324 364.208C319.417 364.845 319.417 365.25 319.417 365.929V385.388C319.417 390.209 315.777 394.071 310.588 394.208C305.358 394.387 300.677 390.346 300.677 385.112V365.701C300.677 365.114 300.627 364.704 300.764 364.112C300.858 363.522 300.953 363.2 301.174 362.708H296.538C296.764 363.337 296.857 363.754 296.947 364.476C297.037 365.07 296.99 365.43 296.99 366.02V385.526C296.99 392.433 303.085 397.25 310.588 397.162C317.596 397.023 323.19 392.249 323.19 385.707V365.843ZM353.644 395.343C352.596 394.432 351.779 393.341 350.732 391.982L342.638 381.703C341.919 380.779 341.128 379.913 340.271 379.114C339.994 378.891 339.86 378.702 339.591 378.476C344.596 379.25 348.732 375.204 348.822 370.477C348.959 365.613 344.956 362.662 340.496 362.662H330.266C330.541 363.159 330.769 363.475 330.9 364.068C331.131 365.344 331.177 366.066 331.177 367.34V391.706C331.177 392.981 331.177 394.475 331.04 395.162C330.994 395.705 330.768 396.023 330.494 396.569H335.494C335.267 395.932 335.085 395.568 334.997 394.933C334.813 394.206 334.86 393.794 334.86 393.073V377.477C335.086 377.614 335.269 377.703 335.45 377.886C335.859 378.203 335.995 378.52 336.361 378.977L350.002 396.702H355.372C354.775 396.276 354.199 395.823 353.644 395.343ZM334.904 377.069V365.344C336.226 364.749 337.092 364.705 338.497 364.705C344.002 364.933 344.912 367.843 345.092 370.566C345.365 374.339 342.543 376.797 337.858 377.161C336.774 377.203 335.544 377.161 334.904 377.069ZM311.36 403.981C311.678 405.617 311.587 406.661 311.587 408.302V429.846L287.8 402.707H282.796C283.254 402.983 283.524 403.252 283.753 403.75C284.027 404.258 284.118 404.662 284.118 405.206V433.57C284.118 434.257 284.118 434.707 283.934 435.39C283.845 435.89 283.66 436.16 283.344 436.613H287.664C287.483 436.028 287.343 435.707 287.255 435.16C286.937 433.662 286.937 433.662 286.937 432.667V407.434L314.406 437.754L314.363 405.982C314.363 405.301 314.363 404.887 314.497 404.163C314.59 403.573 314.68 403.207 314.864 402.664H311.039C311.176 403.164 311.268 403.482 311.36 403.981ZM337.644 434.071H326.776V418.885H335.87C336.413 418.885 336.827 418.885 337.372 418.978C338.143 419.159 338.598 419.296 339.279 419.615V416.387H326.641V405.208H335.87C336.645 405.208 337.191 405.072 337.964 405.34C338.51 405.526 338.876 405.752 339.279 406.161V402.751H321.949C322.275 403.07 322.409 403.298 322.595 403.702C322.776 404.203 322.865 404.571 322.865 405.157V433.617C322.865 434.254 322.955 434.707 322.776 435.339C322.666 435.799 322.464 436.233 322.182 436.613H341.78L342.961 432.8C342.425 433.162 342.054 433.343 341.417 433.522C340.005 433.979 339.145 434.071 337.644 434.071ZM269.677 417.927C269.519 417.867 269.357 417.819 269.192 417.784C269.12 417.768 268.961 417.833 268.902 417.786L268.86 417.724C268.663 417.728 268.076 417.908 267.897 418.008C267.45 418.242 267.275 418.479 266.889 418.516L266.806 418.53C266.654 418.454 266.516 418.352 266.4 418.228C266.362 418.159 266.414 417.993 266.428 417.918C266.59 417.142 267.728 417.388 268.186 417.175C268.415 417.053 268.605 416.87 268.737 416.647C268.86 416.45 269.041 415.679 268.978 415.464C268.956 415.392 268.679 414.583 268.798 414.235C268.827 414.147 268.902 413.933 268.866 413.845C268.816 413.782 268.759 413.725 268.696 413.675C268.46 413.763 268.256 413.902 268.019 413.952C267.761 414.009 267.459 413.944 267.214 413.984C266.74 414.042 266.131 414.334 265.89 414.854C265.405 415.898 265.899 416.529 265.929 416.719C265.937 416.798 265.977 416.785 265.989 416.87C265.999 417.114 265.526 417.435 265.292 417.402C265.122 417.375 264.813 417.056 264.795 416.823C264.8 416.647 264.823 416.471 264.861 416.299C264.884 416.227 264.933 415.985 264.928 415.912C264.913 415.681 264.98 415.314 264.88 415.072C264.839 414.983 264.61 414.522 264.533 414.44C264.259 414.253 263.977 414.078 263.687 413.916C263.547 413.9 263.407 413.886 263.266 413.877C263.03 413.861 262.794 413.847 262.558 413.834L261.913 413.461C261.869 413.438 261.669 413.501 261.65 413.501C261.619 413.579 261.54 413.679 261.543 413.765C261.559 414.075 261.76 414.253 261.683 414.591C261.595 414.953 261.395 415.335 261.4 415.708C261.406 416.208 261.82 416.842 262.254 417.142C262.33 417.201 262.505 417.221 262.577 417.262C262.727 417.341 262.788 417.449 262.936 417.493C263.005 417.52 263.162 417.47 263.222 417.484C263.276 417.499 264.104 418.041 264.135 418.11C264.178 418.192 264.101 418.393 264.045 418.461C263.879 418.673 263.649 418.673 263.447 418.643L263.378 418.687C263.295 418.63 263.158 418.561 263.123 418.53C263.052 418.461 263.016 418.325 262.939 418.262C262.726 418.148 262.507 418.044 262.283 417.951C262.056 417.86 261.496 417.86 261.249 417.993C261.116 418.067 260.877 418.324 260.772 418.418C260.717 418.475 260.622 418.498 260.575 418.558C260.381 418.805 260.319 419.216 260.186 419.459C260.084 419.639 259.903 419.749 259.843 419.938C259.791 420.108 259.851 420.142 259.942 420.356C259.952 420.356 260.031 420.34 260.031 420.34C260.031 420.34 260.49 420.66 260.701 420.886C260.906 421.113 261.475 421.399 261.727 421.386C261.837 421.386 262.262 421.311 262.341 421.295C262.538 421.262 262.846 421.121 263.029 420.962C263.095 420.905 263.558 420.164 263.586 420.093C263.597 420.046 264.137 419.409 264.362 419.549C264.384 419.555 264.692 419.824 264.752 419.958C264.784 420.037 264.736 420.301 264.702 420.377C264.598 420.592 264.313 420.675 264.097 420.899C263.928 421.114 263.781 421.346 263.658 421.591C263.611 421.71 263.649 421.852 263.649 421.984C263.638 422.338 263.672 422.771 264.058 423.199C264.119 423.268 264.313 423.392 264.384 423.458C264.645 423.718 264.946 424.218 265.254 424.157C265.556 424.095 265.717 423.748 266.047 423.556C266.397 423.348 266.749 423.013 266.891 422.683C266.949 422.536 266.926 422.22 266.943 422.06C266.943 422.041 266.841 421.556 266.749 421.368C266.683 421.231 266.628 421.012 266.475 420.834C266.288 420.622 265.833 420.513 265.726 420.244C265.717 420.23 265.778 420.131 265.778 420.115C265.774 420.032 265.707 420.012 265.696 419.928C265.717 419.778 265.764 419.632 265.833 419.497C266.09 419.209 266.62 419.315 266.798 419.497C267.05 419.754 266.992 420.073 267.138 420.328C267.459 420.894 268.29 421.272 268.723 421.206C268.814 421.193 269.135 421.143 269.227 421.099C269.488 420.97 269.699 420.712 269.829 420.583C270.034 420.378 270.475 420.183 270.604 419.947C270.703 419.754 270.401 419.201 270.316 418.983C270.21 418.719 269.965 418.127 269.677 417.927ZM362.942 419.463C362.816 419.217 362.749 418.803 362.554 418.558C362.511 418.5 362.417 418.476 362.36 418.42C362.25 418.325 362.02 418.067 361.885 417.997C361.634 417.86 361.076 417.86 360.849 417.949C360.624 418.044 360.403 418.15 360.19 418.269C360.117 418.33 360.084 418.464 360.009 418.528C359.971 418.563 359.834 418.634 359.751 418.689L359.688 418.641C359.486 418.673 359.253 418.673 359.085 418.464C359.028 418.391 358.951 418.193 358.995 418.11C359.027 418.039 359.853 417.509 359.908 417.485C359.966 417.47 360.127 417.517 360.197 417.496C360.349 417.448 360.402 417.345 360.553 417.263C360.629 417.221 360.805 417.201 360.879 417.146C361.309 416.85 361.727 416.211 361.734 415.708C361.737 415.335 361.535 414.953 361.45 414.594C361.368 414.257 361.573 414.075 361.586 413.767C361.59 413.679 361.512 413.579 361.483 413.502C361.46 413.502 361.26 413.436 361.216 413.465C361.172 413.485 360.567 413.834 360.567 413.834L359.864 413.875C359.812 413.88 359.499 413.91 359.439 413.918C359.152 414.085 358.871 414.26 358.594 414.443C358.463 414.645 358.35 414.858 358.254 415.079C358.148 415.311 358.216 415.683 358.2 415.912C358.197 415.985 358.247 416.227 358.268 416.298C358.306 416.408 358.342 416.815 358.337 416.829C358.321 417.056 358.007 417.38 357.837 417.402C357.602 417.435 357.133 417.114 357.143 416.869C357.149 416.787 357.195 416.798 357.201 416.718C357.228 416.537 357.725 415.9 357.242 414.854C356.998 414.333 356.387 414.042 355.917 413.981C355.674 413.949 355.372 414.007 355.112 413.955C354.873 413.903 354.669 413.762 354.436 413.674C354.436 413.674 354.283 413.8 354.267 413.847C354.229 413.932 354.31 414.149 354.333 414.234C354.448 414.583 354.173 415.39 354.149 415.462C354.086 415.678 354.275 416.453 354.396 416.645C354.524 416.872 354.714 417.057 354.944 417.18C355.402 417.385 356.538 417.141 356.704 417.916C356.722 417.992 356.766 418.157 356.732 418.226C356.696 418.302 356.37 418.525 356.326 418.528L356.242 418.516C355.858 418.481 355.674 418.24 355.237 418.012C355.053 417.912 354.467 417.729 354.267 417.723L354.229 417.786C354.17 417.833 354.012 417.768 353.941 417.786C353.775 417.821 353.612 417.868 353.453 417.927C353.164 418.129 352.917 418.717 352.814 418.986C352.729 419.203 352.427 419.757 352.53 419.95C352.656 420.185 353.096 420.375 353.299 420.579C353.436 420.713 353.639 420.97 353.905 421.099C353.998 421.146 354.316 421.193 354.41 421.213C354.838 421.272 355.674 420.894 355.992 420.326C356.137 420.074 356.077 419.757 356.332 419.496C356.505 419.313 357.043 419.209 357.3 419.496C357.369 419.632 357.414 419.779 357.432 419.931C357.421 420.01 357.354 420.034 357.354 420.115C357.354 420.131 357.409 420.229 357.407 420.248C357.3 420.512 356.84 420.623 356.656 420.837C356.505 421.012 356.445 421.231 356.378 421.372C356.288 421.561 356.189 422.041 356.189 422.06C356.203 422.22 356.181 422.536 356.242 422.681C356.378 423.011 356.73 423.348 357.083 423.556C357.413 423.748 357.571 424.097 357.876 424.155C358.186 424.218 358.488 423.719 358.753 423.463C358.819 423.394 359.012 423.268 359.078 423.2C359.461 422.777 359.488 422.343 359.481 421.983C359.481 421.855 359.518 421.71 359.472 421.589C359.347 421.345 359.2 421.114 359.033 420.897C358.819 420.675 358.529 420.592 358.427 420.375C358.394 420.303 358.348 420.038 358.38 419.958C358.433 419.823 358.745 419.557 358.768 419.548C358.995 419.411 359.532 420.048 359.547 420.092C359.57 420.166 360.039 420.907 360.103 420.963C360.284 421.121 360.594 421.262 360.788 421.298C360.87 421.309 361.291 421.388 361.403 421.39C361.658 421.397 362.221 421.114 362.428 420.894C362.64 420.663 363.104 420.343 363.104 420.343L363.188 420.354C363.276 420.142 363.345 420.109 363.285 419.941C363.226 419.755 363.045 419.639 362.942 419.463Z" fill="white"/>
</g>
<defs>
<clipPath id="clip0_522_45456">
<rect width="277" height="140" fill="white" transform="translate(241.5 310)"/>
</clipPath>
</defs>
</svg>
