<svg width="760" height="570" viewBox="0 0 760 570" fill="none" xmlns="http://www.w3.org/2000/svg">
<rect width="760" height="570" fill="white"/>
<path d="M232.538 181.078H527.412C555.085 181.078 577.56 203.621 577.56 231.378V338.622C577.56 366.379 555.085 388.922 527.412 388.922H232.588C204.915 388.922 182.44 366.379 182.44 338.622V231.327C182.44 203.621 204.915 181.078 232.538 181.078Z" fill="white"/>
<path d="M525.934 190.023H447.297V198.56H525.934C544.841 198.56 560.181 213.997 560.181 232.911V337.292C560.181 356.257 544.791 371.643 525.934 371.643H234.015C215.108 371.643 199.768 356.206 199.768 337.292V232.911C199.768 213.946 215.159 198.56 234.015 198.56H312.703V190.023H234.015C210.419 190.023 191.257 209.243 191.257 232.911V337.292C191.257 360.96 210.419 380.18 234.015 380.18H525.934C549.53 380.18 568.692 360.96 568.692 337.292V232.911C568.692 209.243 549.53 190.023 525.934 190.023Z" fill="#0A4635"/>
<path d="M329.573 196.567H333.395V198.817H329.573V203.366H334.414V205.615H326.77V190.024H334.414V192.274H329.573V196.619V196.567Z" fill="#0A4635"/>
<path d="M345.015 189.819C347.716 189.819 349.143 191.25 349.143 193.755V194.266H346.493V193.602C346.493 192.477 345.983 192.068 345.117 192.068C344.25 192.068 343.741 192.477 343.741 193.602C343.741 196.822 349.194 197.384 349.194 201.832C349.194 204.336 347.767 205.768 345.015 205.768C342.263 205.768 340.836 204.336 340.836 201.832V200.86H343.486V201.985C343.486 203.109 344.047 203.518 344.913 203.518C345.779 203.518 346.34 203.109 346.34 201.985C346.34 198.765 340.887 198.202 340.887 193.755C340.887 191.25 342.263 189.819 345.015 189.819V189.819Z" fill="#0A4635"/>
<path d="M355.054 190.023H363.718V192.272H360.813V205.614H358.01V192.221H355.105V189.972L355.054 190.023Z" fill="#0A4635"/>
<path d="M371.21 203.213V205.564H368.509V203.213H371.21Z" fill="#0A4635"/>
<path d="M380.688 191.966C382.829 191.966 383.339 191.046 383.746 190.024H385.632V205.614H382.829V193.704H380.688V191.966V191.966Z" fill="#0A4635"/>
<path d="M398.17 205.768C395.367 205.768 393.787 204.337 393.787 201.832V200.605C393.787 199.123 394.297 197.947 395.52 197.334C394.348 196.771 393.787 195.749 393.787 194.215V193.704C393.787 191.199 395.316 189.768 398.17 189.768C401.024 189.768 402.553 191.199 402.553 193.704V194.215C402.553 195.749 401.992 196.771 400.82 197.334C402.043 197.947 402.553 199.072 402.553 200.605V201.832C402.553 204.337 401.024 205.768 398.17 205.768ZM396.59 194.727C396.59 195.953 397.253 196.362 398.17 196.362C399.087 196.362 399.75 195.953 399.75 194.727V193.858C399.75 192.477 399.036 192.068 398.17 192.068C397.304 192.068 396.59 192.426 396.59 193.858V194.727ZM398.17 203.57C399.036 203.57 399.699 203.212 399.75 201.832V200.401C399.75 199.174 399.138 198.663 398.17 198.663C397.202 198.663 396.59 199.174 396.59 200.401V201.832C396.59 203.212 397.253 203.57 398.17 203.57Z" fill="#0A4635"/>
<path d="M413.356 205.768C410.554 205.768 408.974 204.337 408.974 201.832V200.605C408.974 199.123 409.483 197.947 410.706 197.334C409.534 196.771 408.974 195.749 408.974 194.215V193.704C408.974 191.199 410.503 189.768 413.356 189.768C416.21 189.768 417.739 191.199 417.739 193.704V194.215C417.739 195.749 417.179 196.771 416.007 197.334C417.23 197.947 417.739 199.072 417.739 200.605V201.832C417.739 204.337 416.21 205.768 413.356 205.768ZM411.777 194.727C411.777 195.953 412.439 196.362 413.356 196.362C414.274 196.362 414.936 195.953 414.936 194.727V193.858C414.936 192.477 414.223 192.068 413.356 192.068C412.49 192.068 411.777 192.426 411.777 193.858V194.727ZM413.356 203.57C414.223 203.57 414.885 203.212 414.936 201.832V200.401C414.936 199.174 414.325 198.663 413.356 198.663C412.388 198.663 411.777 199.174 411.777 200.401V201.832C411.777 203.212 412.439 203.57 413.356 203.57Z" fill="#0A4635"/>
<path d="M428.543 205.768C425.74 205.768 424.16 204.337 424.16 201.832V200.605C424.16 199.123 424.67 197.947 425.893 197.334C424.721 196.771 424.16 195.749 424.16 194.215V193.704C424.16 191.199 425.689 189.768 428.543 189.768C431.397 189.768 432.926 191.199 432.926 193.704V194.215C432.926 195.749 432.365 196.771 431.193 197.334C432.416 197.947 432.926 199.072 432.926 200.605V201.832C432.926 204.337 431.397 205.768 428.543 205.768ZM426.963 194.727C426.963 195.953 427.626 196.362 428.543 196.362C429.46 196.362 430.123 195.953 430.123 194.727V193.858C430.123 192.477 429.409 192.068 428.543 192.068C427.677 192.068 426.963 192.426 426.963 193.858V194.727ZM428.543 203.57C429.409 203.57 430.072 203.212 430.123 201.832V200.401C430.123 199.174 429.511 198.663 428.543 198.663C427.575 198.663 426.963 199.174 426.963 200.401V201.832C426.963 203.212 427.626 203.57 428.543 203.57Z" fill="#0A4635"/>
<path d="M224.026 275.595C224.026 278.969 222.701 281.014 221.121 281.985V282.241H235.952V281.985C234.321 281.014 233.047 278.969 233.047 275.595C233.047 274.675 233.047 255.762 233.047 255.762H242.118C247.571 255.762 248.387 258.011 248.387 258.011H248.642V250.088H233.047V234.599H246.399C251.75 234.599 253.483 237.769 253.483 237.769H253.687V228.721H221.07V228.976C222.701 229.948 223.975 231.992 223.975 235.366V275.595H224.026Z" fill="#0A4635"/>
<path d="M389.912 301.869C389.912 298.496 391.237 296.451 392.817 295.48V295.224H377.986V295.48C379.617 296.451 380.891 298.496 380.891 301.869V342.099C380.891 345.473 379.566 347.517 377.986 348.488V348.744H392.817V348.488C391.186 347.517 389.912 345.473 389.912 342.099V301.869Z" fill="#0A4635"/>
<path d="M432.365 339.747H401.328V348.743H432.365V339.747Z" fill="#0A4635"/>
<path d="M457.184 237.768H457.388V228.72H427.167V228.976C428.798 229.947 430.072 231.992 430.072 235.365V275.595C430.072 278.968 428.747 281.013 427.167 281.984V282.24H460.905L463.861 272.63H463.657C463.657 272.63 461.975 275.799 456.573 275.799H439.143V255.71H445.871C451.324 255.71 452.139 257.959 452.139 257.959H452.394V250.036H439.143V234.547H450.101C455.452 234.547 457.184 237.717 457.184 237.717V237.768Z" fill="#0A4635"/>
<path d="M328.603 228.72H308.269V228.975C309.899 229.947 311.173 231.991 311.173 235.365V275.594C311.173 278.968 309.848 281.013 308.269 281.984V282.24H323.099V281.984C321.468 281.013 320.194 278.968 320.194 275.594V234.547H328.654C330.336 234.547 336.298 234.752 336.298 242.521C336.298 250.291 329.877 253.307 322.946 254.381C322.946 254.381 341.65 279.019 342.618 280.144C343.586 281.268 344.198 282.24 346.338 282.24H357.499V281.984C357.499 281.984 355.308 281.371 351.282 277.23C347.256 273.09 333.343 254.892 333.343 254.892C333.343 254.892 345.829 252.285 345.829 242.112C345.829 231.94 335.33 228.669 328.654 228.669L328.603 228.72Z" fill="#0A4635"/>
<path d="M486.337 228.72H466.003V228.976C467.634 229.947 468.908 231.992 468.908 235.365V275.595C468.908 278.968 467.583 281.013 466.003 281.984V282.24H480.833V281.984C479.202 281.013 477.928 278.968 477.928 275.595V234.547H486.388C488.07 234.547 494.033 234.752 494.033 242.522C494.033 250.292 487.611 253.308 480.68 254.381L491.077 254.943C491.077 254.943 503.563 252.336 503.563 242.164C503.563 231.992 493.065 228.72 486.388 228.72H486.337Z" fill="#0A4635"/>
<path d="M420.134 276.003L414.834 235.518V235.263C414.579 232.502 415.344 230.202 417.025 228.924V228.669H404.998L389.097 264.093L373.401 228.669H359.793V228.924C361.475 230.202 362.647 232.145 362.443 234.905L356.888 274.01C356.634 275.237 356.277 279.633 352.302 281.984V282.24H366.928V281.984C363.106 280.808 362.545 276.821 363.208 273.192L368.151 240.937L387.008 281.78L406.119 240.783C407.138 248.604 410.91 277.128 410.91 277.23C411.012 279.684 410.451 280.553 408.413 281.984V282.24H423.956V281.984C420.593 280.502 420.134 275.952 420.134 275.952V276.003Z" fill="#0A4635"/>
<path d="M365.91 334.942V304.272C365.91 300.54 364.992 296.604 360.966 295.48V295.224H375.593V295.48C371.923 297.831 372.025 302.227 371.974 303.454V348.795H365.859L334.261 309.128V339.798C334.261 343.53 335.179 347.466 339.205 348.591V348.846H324.578V348.591C328.247 346.239 328.146 341.843 328.197 340.616V301.512C328.044 298.751 326.566 296.809 324.731 295.531V295.275H335.077L365.91 334.942V334.942Z" fill="#0A4635"/>
<path d="M481.443 334.942V304.272C481.443 300.54 480.525 296.604 476.499 295.48V295.224H491.126V295.48C487.456 297.831 487.558 302.227 487.507 303.454V348.795H481.392L449.794 309.128V339.798C449.794 343.53 450.712 347.466 454.738 348.591V348.846H440.111V348.591C443.781 346.239 443.679 341.843 443.73 340.616V301.512C443.577 298.751 442.099 296.809 440.264 295.531V295.275H450.61L481.443 334.942V334.942Z" fill="#0A4635"/>
<path d="M301.084 276.004L283.196 228.72H269.283V228.976C270.659 230.254 271.372 232.196 270.506 234.956L255.675 274.061C255.166 275.288 253.739 279.684 249.203 282.036V282.291H263.83V282.036C260.262 280.86 260.721 276.873 262.199 273.243L266.327 262.764H286.203C289.159 270.585 291.656 277.179 291.707 277.282C292.42 279.735 292.114 280.604 290.382 282.036V282.291H306.384V282.036C302.664 280.553 301.084 276.004 301.084 276.004V276.004ZM268.773 256.579L276.469 237.001C276.469 237.001 280.138 246.713 283.909 256.579H268.773V256.579Z" fill="#0A4635"/>
<path d="M491.024 254.943C511.614 284.745 536.178 278.662 536.178 265.678C536.178 254.074 509.473 258.215 509.473 241.653C509.473 234.649 516.608 228.771 526.342 228.771C536.076 228.771 539.949 231.991 539.949 231.991V239.915C539.949 239.915 535.261 234.803 528.788 234.803C522.316 234.803 518.749 236.95 518.749 240.681C518.749 250.905 544.791 246.764 544.791 263.429C544.791 278.61 531.54 283.569 519.615 282.393C511.002 281.575 493.063 277.026 480.628 254.483L485.52 253.972L491.024 255.045V254.943Z" fill="#0A4635"/>
<path d="M318.565 342.098V295.224H306.639V295.479C308.27 296.451 309.544 298.495 309.544 301.869V329.166C309.34 335.555 307.862 343.427 296.345 343.427C286.865 343.427 284.317 338.162 283.706 329.984V295.173H271.78V295.428C273.411 296.399 274.685 298.444 274.685 301.818V334.124C274.685 334.124 274.328 348.744 292.268 348.744C304.754 348.744 308.984 343.172 309.493 342.456V348.744H321.419V348.488C319.788 347.517 318.514 345.472 318.514 342.098H318.565Z" fill="#0A4635"/>
<path d="M416.871 295.224C405.455 295.224 396.18 304.221 396.18 315.313C396.18 326.406 405.455 335.402 416.871 335.402C428.287 335.402 437.562 326.406 437.562 315.313C437.562 304.221 428.287 295.224 416.871 295.224ZM416.871 329.779C410.144 329.779 404.691 323.288 404.691 315.262C404.691 307.237 410.144 300.745 416.871 300.745C423.598 300.745 429.051 307.237 429.051 315.262C429.051 323.288 423.598 329.779 416.871 329.779Z" fill="#0A4635"/>
</svg>
