<svg width="760" height="760" viewBox="0 0 760 760" fill="none" xmlns="http://www.w3.org/2000/svg">
<rect width="760" height="760" fill="white"/>
<path d="M232.537 276.078H527.412C555.085 276.078 577.56 298.621 577.56 326.378V433.622C577.56 461.379 555.085 483.922 527.412 483.922H232.588C204.915 483.922 182.44 461.379 182.44 433.622V326.327C182.44 298.621 204.915 276.078 232.537 276.078Z" fill="white"/>
<path d="M525.934 285.023H447.297V293.56H525.934C544.841 293.56 560.181 308.997 560.181 327.911V432.292C560.181 451.257 544.79 466.643 525.934 466.643H234.015C215.107 466.643 199.767 451.206 199.767 432.292V327.911C199.767 308.946 215.158 293.56 234.015 293.56H312.703V285.023H234.015C210.419 285.023 191.257 304.243 191.257 327.911V432.292C191.257 455.96 210.419 475.18 234.015 475.18H525.934C549.53 475.18 568.692 455.96 568.692 432.292V327.911C568.692 304.243 549.53 285.023 525.934 285.023Z" fill="#0A4635"/>
<path d="M329.572 291.568H333.395V293.817H329.572V298.366H334.414V300.615H326.769V285.025H334.414V287.274H329.572V291.619V291.568Z" fill="#0A4635"/>
<path d="M345.014 284.819C347.716 284.819 349.142 286.25 349.142 288.755V289.266H346.492V288.602C346.492 287.477 345.983 287.068 345.116 287.068C344.25 287.068 343.74 287.477 343.74 288.602C343.74 291.822 349.193 292.384 349.193 296.832C349.193 299.336 347.766 300.768 345.014 300.768C342.262 300.768 340.835 299.336 340.835 296.832V295.86H343.486V296.985C343.486 298.11 344.046 298.519 344.913 298.519C345.779 298.519 346.34 298.11 346.34 296.985C346.34 293.765 340.886 293.202 340.886 288.755C340.886 286.25 342.262 284.819 345.014 284.819V284.819Z" fill="#0A4635"/>
<path d="M355.053 285.023H363.717V287.273H360.812V300.614H358.009V287.221H355.104V284.972L355.053 285.023Z" fill="#0A4635"/>
<path d="M371.209 298.213V300.564H368.508V298.213H371.209Z" fill="#0A4635"/>
<path d="M380.689 286.966C382.829 286.966 383.339 286.046 383.747 285.024H385.632V300.615H382.829V288.704H380.689V286.966V286.966Z" fill="#0A4635"/>
<path d="M398.169 300.768C395.366 300.768 393.786 299.337 393.786 296.832V295.605C393.786 294.123 394.296 292.947 395.519 292.334C394.347 291.771 393.786 290.749 393.786 289.215V288.704C393.786 286.2 395.315 284.768 398.169 284.768C401.023 284.768 402.552 286.2 402.552 288.704V289.215C402.552 290.749 401.991 291.771 400.819 292.334C402.042 292.947 402.552 294.072 402.552 295.605V296.832C402.552 299.337 401.023 300.768 398.169 300.768ZM396.589 289.727C396.589 290.953 397.252 291.362 398.169 291.362C399.087 291.362 399.749 290.953 399.749 289.727V288.858C399.749 287.477 399.036 287.069 398.169 287.069C397.303 287.069 396.589 287.426 396.589 288.858V289.727ZM398.169 298.57C399.036 298.57 399.698 298.212 399.749 296.832V295.401C399.749 294.174 399.138 293.663 398.169 293.663C397.201 293.663 396.589 294.174 396.589 295.401V296.832C396.589 298.212 397.252 298.57 398.169 298.57Z" fill="#0A4635"/>
<path d="M413.356 300.768C410.553 300.768 408.973 299.337 408.973 296.832V295.605C408.973 294.123 409.483 292.947 410.706 292.334C409.534 291.771 408.973 290.749 408.973 289.215V288.704C408.973 286.2 410.502 284.768 413.356 284.768C416.21 284.768 417.739 286.2 417.739 288.704V289.215C417.739 290.749 417.179 291.771 416.006 292.334C417.229 292.947 417.739 294.072 417.739 295.605V296.832C417.739 299.337 416.21 300.768 413.356 300.768ZM411.776 289.727C411.776 290.953 412.439 291.362 413.356 291.362C414.274 291.362 414.936 290.953 414.936 289.727V288.858C414.936 287.477 414.223 287.069 413.356 287.069C412.49 287.069 411.776 287.426 411.776 288.858V289.727ZM413.356 298.57C414.223 298.57 414.885 298.212 414.936 296.832V295.401C414.936 294.174 414.325 293.663 413.356 293.663C412.388 293.663 411.776 294.174 411.776 295.401V296.832C411.776 298.212 412.439 298.57 413.356 298.57Z" fill="#0A4635"/>
<path d="M428.543 300.768C425.74 300.768 424.16 299.337 424.16 296.832V295.605C424.16 294.123 424.67 292.947 425.893 292.334C424.721 291.771 424.16 290.749 424.16 289.215V288.704C424.16 286.2 425.689 284.768 428.543 284.768C431.397 284.768 432.926 286.2 432.926 288.704V289.215C432.926 290.749 432.366 291.771 431.193 292.334C432.416 292.947 432.926 294.072 432.926 295.605V296.832C432.926 299.337 431.397 300.768 428.543 300.768ZM426.963 289.727C426.963 290.953 427.626 291.362 428.543 291.362C429.461 291.362 430.123 290.953 430.123 289.727V288.858C430.123 287.477 429.41 287.069 428.543 287.069C427.677 287.069 426.963 287.426 426.963 288.858V289.727ZM428.543 298.57C429.41 298.57 430.072 298.212 430.123 296.832V295.401C430.123 294.174 429.512 293.663 428.543 293.663C427.575 293.663 426.963 294.174 426.963 295.401V296.832C426.963 298.212 427.626 298.57 428.543 298.57Z" fill="#0A4635"/>
<path d="M224.026 370.595C224.026 373.969 222.701 376.014 221.121 376.985V377.241H235.951V376.985C234.321 376.014 233.046 373.969 233.046 370.595C233.046 369.675 233.046 350.762 233.046 350.762H242.118C247.571 350.762 248.386 353.011 248.386 353.011H248.641V345.088H233.046V329.599H246.399C251.75 329.599 253.483 332.769 253.483 332.769H253.687V323.721H221.07V323.976C222.701 324.948 223.975 326.992 223.975 330.366V370.595H224.026Z" fill="#0A4635"/>
<path d="M389.911 396.869C389.911 393.496 391.236 391.451 392.816 390.48V390.224H377.986V390.48C379.617 391.451 380.891 393.496 380.891 396.869V437.099C380.891 440.472 379.566 442.517 377.986 443.488V443.744H392.816V443.488C391.185 442.517 389.911 440.472 389.911 437.099V396.869Z" fill="#0A4635"/>
<path d="M432.365 434.747H401.328V443.743H432.365V434.747Z" fill="#0A4635"/>
<path d="M457.184 332.768H457.388V323.72H427.167V323.976C428.798 324.947 430.072 326.992 430.072 330.365V370.595C430.072 373.968 428.747 376.013 427.167 376.984V377.24H460.905L463.86 367.63H463.657C463.657 367.63 461.975 370.799 456.573 370.799H439.143V350.71H445.87C451.323 350.71 452.139 352.959 452.139 352.959H452.394V345.036H439.143V329.547H450.1C455.451 329.547 457.184 332.717 457.184 332.717V332.768Z" fill="#0A4635"/>
<path d="M328.603 323.72H308.268V323.975C309.899 324.946 311.173 326.991 311.173 330.365V370.594C311.173 373.968 309.848 376.013 308.268 376.984V377.24H323.099V376.984C321.468 376.013 320.194 373.968 320.194 370.594V329.547H328.654C330.336 329.547 336.298 329.751 336.298 337.521C336.298 345.291 329.877 348.307 322.946 349.381C322.946 349.381 341.649 374.019 342.618 375.144C343.586 376.268 344.198 377.24 346.338 377.24H357.499V376.984C357.499 376.984 355.308 376.371 351.281 372.23C347.255 368.09 333.342 349.892 333.342 349.892C333.342 349.892 345.828 347.285 345.828 337.112C345.828 326.94 335.33 323.669 328.654 323.669L328.603 323.72Z" fill="#0A4635"/>
<path d="M486.337 323.72H466.002V323.976C467.633 324.947 468.907 326.992 468.907 330.365V370.595C468.907 373.968 467.582 376.013 466.002 376.984V377.24H480.833V376.984C479.202 376.013 477.928 373.968 477.928 370.595V329.547H486.388C488.069 329.547 494.032 329.752 494.032 337.522C494.032 345.292 487.611 348.308 480.68 349.381L491.076 349.943C491.076 349.943 503.562 347.336 503.562 337.164C503.562 326.992 493.064 323.72 486.388 323.72H486.337Z" fill="#0A4635"/>
<path d="M420.134 371.003L414.833 330.518V330.263C414.579 327.502 415.343 325.202 417.025 323.924V323.669H404.997L389.097 359.093L373.4 323.669H359.793V323.924C361.475 325.202 362.647 327.144 362.443 329.905L356.888 369.01C356.633 370.236 356.276 374.633 352.301 376.984V377.24H366.928V376.984C363.106 375.808 362.545 371.821 363.207 368.192L368.151 335.937L387.007 376.779L406.119 335.783C407.138 343.604 410.909 372.128 410.909 372.23C411.011 374.684 410.451 375.553 408.412 376.984V377.24H423.956V376.984C420.592 375.502 420.134 370.952 420.134 370.952V371.003Z" fill="#0A4635"/>
<path d="M365.909 429.942V399.272C365.909 395.54 364.992 391.604 360.966 390.48V390.224H375.592V390.48C371.923 392.831 372.025 397.227 371.974 398.454V443.795H365.858L334.261 404.128V434.798C334.261 438.53 335.178 442.466 339.204 443.591V443.846H324.578V443.591C328.247 441.239 328.145 436.843 328.196 435.616V396.512C328.043 393.751 326.565 391.809 324.731 390.531V390.275H335.076L365.909 429.942V429.942Z" fill="#0A4635"/>
<path d="M481.443 429.942V399.272C481.443 395.54 480.525 391.604 476.499 390.48V390.224H491.126V390.48C487.456 392.831 487.558 397.227 487.507 398.454V443.795H481.392L449.794 404.128V434.798C449.794 438.53 450.712 442.466 454.738 443.591V443.846H440.111V443.591C443.781 441.239 443.679 436.843 443.73 435.616V396.512C443.577 393.751 442.099 391.809 440.264 390.531V390.275H450.61L481.443 429.942V429.942Z" fill="#0A4635"/>
<path d="M301.084 371.004L283.196 323.72H269.283V323.976C270.659 325.254 271.372 327.196 270.506 329.956L255.675 369.061C255.166 370.288 253.739 374.684 249.203 377.036V377.291H263.83V377.036C260.262 375.86 260.721 371.873 262.199 368.243L266.327 357.764H286.203C289.159 365.585 291.656 372.179 291.707 372.282C292.42 374.735 292.114 375.604 290.382 377.036V377.291H306.384V377.036C302.664 375.553 301.084 371.004 301.084 371.004V371.004ZM268.773 351.579L276.469 332.001C276.469 332.001 280.138 341.713 283.909 351.579H268.773V351.579Z" fill="#0A4635"/>
<path d="M491.025 349.943C511.614 379.744 536.178 373.661 536.178 360.678C536.178 349.074 509.474 353.215 509.474 336.652C509.474 329.649 516.608 323.771 526.342 323.771C536.076 323.771 539.95 326.991 539.95 326.991V334.914C539.95 334.914 535.261 329.803 528.789 329.803C522.316 329.803 518.749 331.95 518.749 335.681C518.749 345.905 544.791 341.764 544.791 358.428C544.791 373.61 531.541 378.569 519.615 377.393C511.002 376.575 493.063 372.026 480.628 349.483L485.521 348.972L491.025 350.045V349.943Z" fill="#0A4635"/>
<path d="M318.564 437.098V390.224H306.639V390.479C308.269 391.45 309.543 393.495 309.543 396.869V424.166C309.34 430.555 307.862 438.427 296.344 438.427C286.865 438.427 284.317 433.162 283.705 424.983V390.173H271.78V390.428C273.41 391.399 274.684 393.444 274.684 396.818V429.124C274.684 429.124 274.328 443.744 292.267 443.744C304.753 443.744 308.983 438.172 309.493 437.456V443.744H321.418V443.488C319.787 442.517 318.513 440.472 318.513 437.098H318.564Z" fill="#0A4635"/>
<path d="M416.871 390.224C405.455 390.224 396.179 399.221 396.179 410.313C396.179 421.406 405.455 430.402 416.871 430.402C428.286 430.402 437.562 421.406 437.562 410.313C437.562 399.221 428.286 390.224 416.871 390.224ZM416.871 424.779C410.143 424.779 404.69 418.288 404.69 410.262C404.69 402.237 410.143 395.745 416.871 395.745C423.598 395.745 429.051 402.237 429.051 410.262C429.051 418.288 423.598 424.779 416.871 424.779Z" fill="#0A4635"/>
</svg>
