<svg width="760" height="570" viewBox="0 0 760 570" fill="none" xmlns="http://www.w3.org/2000/svg">
<rect width="760" height="570" fill="#0A1D2E"/>
<g clip-path="url(#clip0_525_45579)">
<path d="M193.644 288.771C193.644 288.771 194.434 273.072 218.731 263.613V269.821C213.432 271.815 205.002 276.744 200.444 288.631C200.444 288.631 204.176 301.214 218.731 306.866V313.196C210.919 310.741 198.391 304.438 193.644 288.748V288.771ZM229.343 239.419H248.937V244.677C242.393 244.419 235.84 244.709 229.343 245.546V239.419ZM218.744 294.757C216.059 293.401 213.984 291.497 212.88 288.879C212.88 288.879 214.364 285.063 218.744 282.197V294.757ZM229.343 330.174C250.54 330.803 275.181 321.448 284.008 312.902L277.146 299.993C277.146 299.993 258.294 316.13 229.343 314.955V308.86C235.967 308.932 249.418 308.607 260.127 305.342V294.69C260.127 294.69 243.138 298.781 229.343 297.466V294.902H237.579V281.867H229.334V278.213C234.942 277.616 243.651 277.987 256.96 281.143L257.04 270.323C257.04 270.323 240.701 266.846 229.334 267.588V261.624C235.864 261.262 242.411 261.366 248.928 261.936V266.656H259.442V263.338C263.573 264.078 267.651 265.102 271.648 266.403L275.393 248.254C270.141 246.971 264.813 246.045 259.442 245.482V239.568V225H246.804V229.729H227.205V225H218.691L218.722 229.729V247.598C200.118 252.346 182.069 263.758 173.6 288.64C173.6 288.64 183.677 321.461 218.722 328.922V333.895H209.36V345.014H240.939V333.882H229.334L229.343 330.174Z" fill="white"/>
</g>
<g clip-path="url(#clip1_525_45579)">
<path d="M560.887 339.779C564.028 341.119 567.406 341.806 570.817 341.8C572.998 341.814 575.157 341.37 577.157 340.496C579.031 339.686 580.711 338.481 582.083 336.963C583.46 335.44 584.541 333.671 585.272 331.747C586.037 329.688 586.419 327.505 586.4 325.306C586.428 323.677 586.223 322.052 585.79 320.482C585.388 319.154 584.784 317.896 584.001 316.753C583.231 315.593 582.302 314.548 581.24 313.65C580.138 312.711 578.894 311.746 577.507 310.743C577.121 310.409 576.718 310.096 576.301 309.804C575.863 309.491 575.462 309.128 575.108 308.722C574.76 308.321 574.456 307.884 574.201 307.418C573.944 306.974 573.81 306.47 573.812 305.957C573.793 305.521 573.887 305.088 574.084 304.699C574.282 304.31 574.577 303.98 574.94 303.741C575.608 303.24 576.415 302.962 577.247 302.946C578.042 302.952 578.827 303.12 579.555 303.441C580.315 303.793 581.032 304.23 581.694 304.745C583.017 305.726 584.162 306.931 585.077 308.304V293.349C583.631 292.583 582.105 291.979 580.527 291.55C578.945 291.104 577.309 290.876 575.666 290.872C573.195 290.786 570.747 291.381 568.588 292.593C566.779 293.665 565.209 295.098 563.973 296.804C562.835 298.407 561.988 300.199 561.471 302.098C561.016 303.716 560.767 305.385 560.732 307.066C560.701 308.707 560.942 310.341 561.445 311.903C561.906 313.252 562.561 314.526 563.389 315.684C564.266 316.869 565.256 317.965 566.345 318.957C567.447 319.948 568.653 320.952 569.949 321.956C570.377 322.255 570.779 322.568 571.154 322.868C571.512 323.167 571.846 323.494 572.153 323.846C572.49 324.179 572.755 324.578 572.93 325.02C573.123 325.522 573.215 326.058 573.203 326.597C573.225 327.083 573.117 327.567 572.889 327.996C572.66 328.425 572.321 328.784 571.906 329.035C571.139 329.555 570.239 329.84 569.314 329.857C568.459 329.857 567.612 329.702 566.812 329.4C565.999 329.074 565.235 328.635 564.543 328.097C563.821 327.568 563.145 326.979 562.521 326.336C561.922 325.718 561.392 325.036 560.939 324.302V339.714L560.887 339.779ZM549.078 340.953V303.728H556.674V291.719H528.556V303.728H535.816V340.953H549.078ZM523.708 292.045C522.645 291.614 521.535 291.308 520.402 291.133C519.262 290.953 518.109 290.866 516.954 290.872C515.671 290.892 514.391 291.023 513.13 291.263C511.544 291.558 509.996 292.03 508.515 292.671C506.823 293.395 505.232 294.337 503.783 295.475C502.127 296.773 500.71 298.353 499.596 300.142C498.251 302.291 497.241 304.635 496.601 307.092C495.801 310.217 495.421 313.435 495.473 316.662C495.397 320.408 495.945 324.141 497.094 327.705C498.029 330.569 499.503 333.226 501.437 335.529C503.18 337.556 505.356 339.16 507.802 340.222C510.258 341.282 512.907 341.815 515.58 341.787C516.957 341.802 518.331 341.662 519.676 341.37C521.014 341.07 522.317 340.633 523.565 340.066L524.343 326.284C523.394 327.199 522.326 327.98 521.167 328.605C519.957 329.196 518.622 329.478 517.278 329.427C515.811 329.462 514.373 329.003 513.195 328.123C512.101 327.291 511.213 326.215 510.602 324.98C509.953 323.654 509.515 322.233 509.306 320.769C509.073 319.29 508.952 317.795 508.943 316.297C508.955 314.855 509.076 313.417 509.306 311.994C509.515 310.518 509.953 309.084 510.602 307.744C511.208 306.48 512.095 305.373 513.195 304.51C514.428 303.612 515.925 303.153 517.447 303.206C518.629 303.162 519.802 303.423 520.856 303.963C521.901 304.574 522.861 305.324 523.708 306.192V292.045ZM465.372 340.953H490.003V329.335H478.634V321.838H488.836V310.208H478.634V303.337H490.003V291.719H465.372V340.953ZM441.273 340.953V324.824C443.907 324.931 446.543 324.725 449.129 324.211C451.327 323.794 453.41 322.904 455.235 321.604C456.953 320.276 458.294 318.518 459.124 316.505C460.13 313.953 460.602 311.218 460.511 308.474C460.602 305.704 460.07 302.95 458.955 300.416C457.999 298.325 456.51 296.525 454.638 295.201C452.683 293.864 450.478 292.941 448.157 292.489C445.498 291.951 442.792 291.689 440.08 291.706H427.96V340.939L441.273 340.953ZM445.59 312.424C444.993 312.921 444.304 313.292 443.563 313.516C442.821 313.74 442.043 313.812 441.273 313.728V302.359H442.245C442.963 302.313 443.68 302.455 444.328 302.77C444.975 303.085 445.53 303.563 445.94 304.158C446.771 305.377 447.202 306.827 447.171 308.304C447.224 309.075 447.11 309.849 446.837 310.572C446.564 311.294 446.139 311.949 445.59 312.49V312.424ZM396.082 339.87C399.228 341.21 402.609 341.897 406.025 341.891C408.201 341.903 410.356 341.459 412.351 340.587C414.226 339.778 415.906 338.573 417.278 337.054C418.659 335.534 419.741 333.764 420.467 331.839C421.236 329.78 421.623 327.597 421.607 325.398C421.639 323.767 421.43 322.142 420.985 320.573C420.588 319.243 419.984 317.985 419.196 316.844C418.434 315.678 417.503 314.632 416.435 313.741C415.333 312.803 414.089 311.838 412.701 310.834C412.32 310.501 411.922 310.187 411.509 309.895C411.069 309.579 410.665 309.217 410.303 308.813C409.955 308.413 409.65 307.975 409.396 307.509C409.139 307.066 409.005 306.562 409.007 306.049C408.986 305.611 409.081 305.175 409.281 304.786C409.482 304.397 409.78 304.068 410.148 303.832C410.809 303.328 411.613 303.049 412.442 303.037C413.237 303.04 414.023 303.209 414.75 303.532C415.512 303.878 416.231 304.316 416.889 304.836C417.57 305.341 418.204 305.908 418.781 306.531C419.318 307.109 419.804 307.733 420.233 308.396V293.349C418.793 292.58 417.271 291.977 415.696 291.55C414.109 291.104 412.469 290.876 410.822 290.872C408.351 290.786 405.903 291.381 403.744 292.593C401.939 293.665 400.373 295.098 399.142 296.804C397.999 298.404 397.152 300.197 396.64 302.098C396.148 303.71 395.869 305.38 395.81 307.066C395.78 308.707 396.02 310.341 396.523 311.903C396.985 313.254 397.644 314.529 398.48 315.684C399.349 316.872 400.335 317.968 401.423 318.957C402.538 319.948 403.731 320.952 405.027 321.956C405.468 322.255 405.87 322.568 406.233 322.868C406.591 323.171 406.929 323.497 407.244 323.846C407.572 324.187 407.835 324.584 408.022 325.02C408.203 325.525 408.291 326.06 408.281 326.597C408.303 327.083 408.195 327.567 407.967 327.996C407.739 328.425 407.399 328.784 406.985 329.035C406.218 329.557 405.317 329.842 404.392 329.857C403.542 329.857 402.698 329.702 401.903 329.4C401.086 329.074 400.318 328.635 399.621 328.097C398.901 327.571 398.229 326.982 397.612 326.336C397.006 325.721 396.471 325.039 396.017 324.302V339.714L396.082 339.87ZM364.97 341.044H389.6V329.427H378.141V321.838H388.343V310.208H378.141V303.337H389.51V291.719H364.879V340.953L364.97 341.044ZM360.536 341.044L350.671 320.547C353.117 319.663 355.164 317.923 356.44 315.645C357.671 313.33 358.283 310.733 358.216 308.109C358.306 305.342 357.798 302.588 356.725 300.038C355.807 298.029 354.381 296.298 352.59 295.018C350.709 293.715 348.575 292.826 346.328 292.41C343.717 291.913 341.065 291.673 338.408 291.693H325.6V340.926H338.848V327.836C338.848 326.61 338.848 325.411 338.783 324.211C338.719 323.012 338.693 321.799 338.654 320.587L338.783 320.456L346.121 340.953L360.536 341.044ZM338.848 314.445V302.281C340.453 302.14 342.052 302.604 343.334 303.584C343.962 304.175 344.447 304.903 344.751 305.713C345.054 306.522 345.168 307.391 345.084 308.252C345.086 309.04 344.963 309.824 344.721 310.573C344.499 311.304 344.148 311.989 343.684 312.594C343.231 313.182 342.656 313.662 341.998 314.002C341.283 314.362 340.491 314.541 339.691 314.524H338.848V314.445Z" fill="white"/>
<path d="M548.961 282.449H562.339V267.285C562.339 264.808 562.223 262.383 561.989 260.01C561.756 257.637 561.553 255.212 561.38 252.735L561.523 252.604L571.893 282.462H585.272V230.687H571.893V243.868C571.891 246.855 572.086 249.839 572.477 252.8C572.853 255.72 573.19 258.693 573.462 261.718L573.319 261.861L562.197 230.687H548.961V282.449ZM504.185 266.073C504.85 269.118 506.016 272.031 507.633 274.691C509.158 277.21 511.232 279.346 513.7 280.937C516.454 282.518 519.571 283.35 522.742 283.35C525.914 283.35 529.03 282.518 531.784 280.937C534.259 279.35 536.339 277.213 537.864 274.691C539.472 272.026 540.636 269.115 541.313 266.073C542.765 259.82 542.765 253.315 541.313 247.063C540.639 244.004 539.474 241.075 537.864 238.392C536.335 235.873 534.256 233.738 531.784 232.147C529.027 230.574 525.912 229.748 522.742 229.748C519.573 229.748 516.457 230.574 513.7 232.147C511.236 233.742 509.162 235.877 507.633 238.392C506.018 241.054 504.853 243.966 504.185 247.011C502.716 253.261 502.716 259.77 504.185 266.021V266.073ZM517.317 254.286C517.317 253.4 517.408 252.448 517.524 251.444C517.638 250.418 517.807 249.4 518.03 248.393C518.24 247.461 518.553 246.556 518.963 245.694C519.332 244.894 519.867 244.182 520.532 243.608C521.15 243.079 521.938 242.796 522.749 242.812C523.559 242.8 524.346 243.082 524.966 243.608C525.614 244.178 526.136 244.88 526.495 245.668C526.923 246.566 527.245 247.511 527.455 248.484C527.677 249.491 527.846 250.51 527.96 251.535C528.077 252.539 528.142 253.491 528.168 254.377C528.193 255.264 528.168 255.994 528.168 256.542C528.168 257.089 528.168 257.846 528.168 258.706C528.168 259.567 528.077 260.545 527.96 261.562C527.846 262.587 527.677 263.605 527.455 264.613C527.245 265.586 526.923 266.531 526.495 267.429C526.132 268.214 525.611 268.916 524.966 269.489C524.344 270.01 523.557 270.287 522.749 270.271C521.94 270.292 521.151 270.014 520.532 269.489C519.876 268.927 519.342 268.234 518.963 267.455C518.536 266.557 518.214 265.612 518.004 264.639C517.781 263.632 517.612 262.613 517.499 261.588C517.382 260.571 517.317 259.632 517.291 258.732C517.265 257.833 517.291 257.115 517.291 256.568C517.291 256.02 517.291 255.264 517.291 254.403L517.317 254.286ZM491.74 282.449V243.334H499.726V230.687H470.156V243.321H477.791V282.436L491.74 282.449ZM470.259 282.449V270.232H459.889V230.687H445.875V282.449H470.259ZM441.247 282.449L430.876 260.897C433.449 259.971 435.604 258.142 436.943 255.746C438.235 253.346 438.895 250.653 438.862 247.923C438.962 245.016 438.422 242.122 437.28 239.448C436.324 237.332 434.831 235.506 432.951 234.155C430.97 232.794 428.726 231.87 426.365 231.443C423.621 230.925 420.834 230.672 418.042 230.687H404.573V282.449H418.496V268.654C418.496 267.351 418.496 266.047 418.418 264.847C418.341 263.648 418.328 262.318 418.289 261.04L418.418 260.897L426.197 282.449H441.247ZM418.496 254.586V241.808C420.172 241.638 421.85 242.103 423.202 243.112C423.863 243.732 424.373 244.497 424.693 245.347C425.012 246.197 425.132 247.11 425.043 248.015C425.041 248.842 424.915 249.664 424.667 250.453C424.439 251.223 424.07 251.944 423.578 252.578C423.088 253.227 422.451 253.75 421.721 254.104C420.991 254.457 420.188 254.632 419.378 254.612H418.496V254.586ZM400.049 282.449L389.121 230.687H372.126L359.771 282.449H374.109L375.276 275.787H384.623L385.647 282.449H400.049ZM377.117 264.808L379.022 252.8C379.295 251.196 379.528 249.566 379.709 247.923C379.891 246.281 380.085 244.651 380.319 243.047H380.461C380.643 244.651 380.798 246.281 380.928 247.923C381.058 249.566 381.252 251.196 381.472 252.8L382.976 264.808H377.117ZM355.286 231.039C354.169 230.584 353.003 230.26 351.812 230.074C349.274 229.665 346.684 229.713 344.163 230.217C342.501 230.522 340.879 231.016 339.328 231.691C337.546 232.454 335.868 233.444 334.337 234.637C332.602 236.01 331.116 237.673 329.942 239.553C328.535 241.813 327.477 244.275 326.805 246.854C325.949 250.139 325.544 253.525 325.6 256.92C325.522 260.853 326.101 264.771 327.311 268.511C328.29 271.531 329.844 274.33 331.887 276.751C333.711 278.892 335.999 280.583 338.576 281.693C341.14 282.797 343.902 283.36 346.691 283.349C348.138 283.357 349.582 283.204 350.995 282.892C352.407 282.574 353.781 282.102 355.092 281.484L355.908 266.999C354.907 267.958 353.782 268.778 352.564 269.437C351.309 270.047 349.925 270.343 348.532 270.297C346.997 270.359 345.485 269.9 344.241 268.993C343.096 268.124 342.172 266.993 341.545 265.695C340.864 264.301 340.4 262.81 340.171 261.275C339.928 259.718 339.802 258.144 339.795 256.568C339.805 255.052 339.931 253.54 340.171 252.044C340.413 250.495 340.885 248.992 341.571 247.584C342.222 246.25 343.172 245.085 344.345 244.181C345.646 243.26 347.215 242.801 348.804 242.878C350.049 242.831 351.285 243.105 352.395 243.673C353.45 244.289 354.421 245.038 355.286 245.902V231.039Z" fill="#FF5800"/>
</g>
<defs>
<clipPath id="clip0_525_45579">
<rect width="110.4" height="120" fill="white" transform="translate(173.6 225)"/>
</clipPath>
<clipPath id="clip1_525_45579">
<rect width="260.8" height="112" fill="white" transform="translate(325.6 229.8)"/>
</clipPath>
</defs>
</svg>
