<svg width="760" height="760" viewBox="0 0 760 760" fill="none" xmlns="http://www.w3.org/2000/svg">
<rect width="760" height="760" fill="#0A1D2E"/>
<g clip-path="url(#clip0_511_2157)">
<path d="M193.644 383.771C193.644 383.771 194.434 368.072 218.731 358.613V364.821C213.432 366.815 205.002 371.744 200.444 383.631C200.444 383.631 204.176 396.214 218.731 401.866V408.196C210.919 405.741 198.391 399.438 193.644 383.748V383.771ZM229.343 334.419H248.937V339.677C242.393 339.419 235.84 339.709 229.343 340.546V334.419ZM218.744 389.757C216.059 388.401 213.984 386.497 212.88 383.879C212.88 383.879 214.364 380.063 218.744 377.197V389.757ZM229.343 425.174C250.54 425.803 275.181 416.448 284.008 407.902L277.146 394.993C277.146 394.993 258.294 411.13 229.343 409.955V403.86C235.967 403.932 249.418 403.607 260.127 400.342V389.69C260.127 389.69 243.138 393.781 229.343 392.466V389.902H237.579V376.867H229.334V373.213C234.942 372.616 243.651 372.987 256.96 376.143L257.04 365.323C257.04 365.323 240.701 361.846 229.334 362.588V356.624C235.864 356.262 242.411 356.366 248.928 356.936V361.656H259.442V358.338C263.573 359.078 267.651 360.102 271.648 361.403L275.393 343.254C270.141 341.971 264.813 341.045 259.442 340.482V334.568V320H246.804V324.729H227.205V320H218.691L218.722 324.729V342.598C200.118 347.346 182.069 358.758 173.6 383.64C173.6 383.64 183.677 416.461 218.722 423.922V428.895H209.36V440.014H240.939V428.882H229.334L229.343 425.174Z" fill="white"/>
</g>
<g clip-path="url(#clip1_511_2157)">
<path d="M560.887 434.779C564.028 436.119 567.406 436.806 570.817 436.8C572.998 436.814 575.157 436.369 577.157 435.496C579.031 434.686 580.711 433.481 582.083 431.963C583.46 430.44 584.541 428.671 585.272 426.747C586.037 424.688 586.419 422.505 586.4 420.306C586.428 418.677 586.223 417.052 585.79 415.482C585.388 414.154 584.784 412.896 584.001 411.753C583.231 410.593 582.302 409.548 581.24 408.65C580.138 407.711 578.894 406.746 577.507 405.742C577.121 405.409 576.718 405.096 576.301 404.804C575.863 404.491 575.462 404.128 575.108 403.722C574.76 403.321 574.456 402.884 574.201 402.418C573.944 401.974 573.81 401.47 573.812 400.957C573.793 400.521 573.887 400.088 574.084 399.699C574.282 399.31 574.577 398.98 574.94 398.741C575.608 398.24 576.415 397.962 577.247 397.946C578.042 397.952 578.827 398.12 579.555 398.441C580.315 398.793 581.032 399.23 581.694 399.745C583.017 400.726 584.162 401.93 585.077 403.304V388.349C583.631 387.583 582.105 386.979 580.527 386.55C578.945 386.104 577.309 385.875 575.666 385.872C573.195 385.786 570.747 386.381 568.588 387.593C566.779 388.665 565.209 390.098 563.973 391.804C562.835 393.407 561.988 395.199 561.471 397.098C561.016 398.716 560.767 400.385 560.732 402.066C560.701 403.707 560.942 405.341 561.445 406.903C561.906 408.252 562.561 409.526 563.389 410.684C564.266 411.869 565.256 412.965 566.345 413.957C567.447 414.948 568.653 415.952 569.949 416.956C570.377 417.255 570.779 417.568 571.154 417.868C571.512 418.167 571.846 418.494 572.153 418.846C572.49 419.179 572.755 419.578 572.93 420.02C573.123 420.522 573.215 421.058 573.203 421.597C573.225 422.083 573.117 422.567 572.889 422.996C572.66 423.425 572.321 423.784 571.906 424.035C571.139 424.555 570.239 424.84 569.314 424.857C568.459 424.857 567.612 424.702 566.812 424.4C565.999 424.074 565.235 423.635 564.543 423.097C563.821 422.568 563.145 421.979 562.521 421.336C561.922 420.718 561.392 420.036 560.939 419.302V434.714L560.887 434.779ZM549.078 435.952V398.728H556.674V386.719H528.556V398.728H535.816V435.952H549.078ZM523.708 387.045C522.645 386.614 521.535 386.308 520.402 386.133C519.262 385.953 518.109 385.866 516.954 385.872C515.671 385.892 514.391 386.023 513.13 386.263C511.544 386.558 509.996 387.03 508.515 387.671C506.823 388.395 505.232 389.337 503.783 390.474C502.127 391.773 500.71 393.353 499.596 395.142C498.251 397.291 497.241 399.635 496.601 402.092C495.801 405.217 495.421 408.435 495.473 411.662C495.397 415.408 495.945 419.141 497.094 422.705C498.029 425.569 499.503 428.226 501.437 430.529C503.18 432.555 505.356 434.16 507.802 435.222C510.258 436.282 512.907 436.815 515.58 436.787C516.957 436.802 518.331 436.662 519.676 436.37C521.014 436.07 522.317 435.633 523.565 435.066L524.343 421.284C523.394 422.199 522.326 422.98 521.167 423.605C519.957 424.196 518.622 424.478 517.278 424.427C515.811 424.462 514.373 424.003 513.195 423.123C512.101 422.291 511.213 421.215 510.602 419.98C509.953 418.654 509.515 417.233 509.306 415.769C509.073 414.29 508.952 412.795 508.943 411.297C508.955 409.855 509.076 408.417 509.306 406.994C509.515 405.518 509.953 404.084 510.602 402.744C511.208 401.48 512.095 400.373 513.195 399.51C514.428 398.612 515.925 398.153 517.447 398.206C518.629 398.162 519.802 398.423 520.856 398.962C521.901 399.574 522.861 400.324 523.708 401.192V387.045ZM465.372 435.952H490.003V424.335H478.634V416.838H488.836V405.208H478.634V398.337H490.003V386.719H465.372V435.952ZM441.273 435.952V419.824C443.907 419.931 446.543 419.725 449.129 419.211C451.327 418.794 453.41 417.904 455.235 416.603C456.953 415.276 458.294 413.518 459.124 411.505C460.13 408.953 460.602 406.218 460.511 403.474C460.602 400.704 460.07 397.95 458.955 395.416C457.999 393.325 456.51 391.525 454.638 390.201C452.683 388.864 450.478 387.941 448.157 387.489C445.498 386.951 442.792 386.689 440.08 386.706H427.96V435.939L441.273 435.952ZM445.59 407.424C444.993 407.921 444.304 408.292 443.563 408.516C442.821 408.74 442.043 408.812 441.273 408.728V397.359H442.245C442.963 397.313 443.68 397.455 444.328 397.77C444.975 398.085 445.53 398.563 445.94 399.158C446.771 400.377 447.202 401.827 447.171 403.304C447.224 404.075 447.11 404.849 446.837 405.572C446.564 406.294 446.139 406.948 445.59 407.49V407.424ZM396.082 434.87C399.228 436.21 402.609 436.897 406.025 436.891C408.201 436.903 410.356 436.459 412.351 435.587C414.226 434.778 415.906 433.573 417.278 432.054C418.659 430.534 419.741 428.764 420.467 426.839C421.236 424.78 421.623 422.597 421.607 420.398C421.639 418.767 421.43 417.142 420.985 415.573C420.588 414.243 419.984 412.985 419.196 411.844C418.434 410.678 417.503 409.632 416.435 408.741C415.333 407.803 414.089 406.838 412.701 405.834C412.32 405.501 411.922 405.187 411.509 404.895C411.069 404.579 410.665 404.217 410.303 403.813C409.955 403.412 409.65 402.975 409.396 402.509C409.139 402.066 409.005 401.562 409.007 401.049C408.986 400.611 409.081 400.175 409.281 399.786C409.482 399.397 409.78 399.068 410.148 398.832C410.809 398.328 411.613 398.049 412.442 398.037C413.237 398.04 414.023 398.209 414.75 398.532C415.512 398.878 416.231 399.316 416.889 399.836C417.57 400.341 418.204 400.908 418.781 401.531C419.318 402.109 419.804 402.733 420.233 403.396V388.349C418.793 387.58 417.271 386.977 415.696 386.55C414.109 386.104 412.469 385.876 410.822 385.872C408.351 385.786 405.903 386.381 403.744 387.593C401.939 388.665 400.373 390.098 399.142 391.804C397.999 393.404 397.152 395.197 396.64 397.098C396.148 398.71 395.869 400.38 395.81 402.066C395.78 403.707 396.02 405.341 396.523 406.903C396.985 408.254 397.644 409.529 398.48 410.684C399.349 411.872 400.335 412.968 401.423 413.957C402.538 414.948 403.731 415.952 405.027 416.956C405.468 417.255 405.87 417.568 406.233 417.868C406.591 418.171 406.929 418.497 407.244 418.846C407.572 419.187 407.835 419.584 408.022 420.02C408.203 420.525 408.291 421.06 408.281 421.597C408.303 422.083 408.195 422.567 407.967 422.996C407.739 423.425 407.399 423.784 406.985 424.035C406.218 424.557 405.317 424.842 404.392 424.857C403.542 424.857 402.698 424.702 401.903 424.4C401.086 424.074 400.318 423.635 399.621 423.097C398.901 422.571 398.229 421.982 397.612 421.336C397.006 420.721 396.471 420.039 396.017 419.302V434.714L396.082 434.87ZM364.97 436.044H389.6V424.427H378.141V416.838H388.343V405.208H378.141V398.337H389.51V386.719H364.879V435.952L364.97 436.044ZM360.536 436.044L350.671 415.547C353.117 414.663 355.164 412.923 356.44 410.645C357.671 408.33 358.283 405.733 358.216 403.109C358.306 400.342 357.798 397.588 356.725 395.038C355.807 393.029 354.381 391.298 352.59 390.018C350.709 388.715 348.575 387.826 346.328 387.41C343.717 386.913 341.065 386.673 338.408 386.693H325.6V435.926H338.848V422.836C338.848 421.61 338.848 420.411 338.783 419.211C338.719 418.012 338.693 416.799 338.654 415.586L338.783 415.456L346.121 435.952L360.536 436.044ZM338.848 409.445V397.281C340.453 397.14 342.052 397.604 343.334 398.584C343.962 399.175 344.447 399.903 344.751 400.713C345.054 401.522 345.168 402.391 345.084 403.252C345.086 404.04 344.963 404.824 344.721 405.573C344.499 406.304 344.148 406.989 343.684 407.594C343.231 408.182 342.656 408.662 341.998 409.002C341.283 409.362 340.491 409.541 339.691 409.524H338.848V409.445Z" fill="white"/>
<path d="M548.961 377.449H562.339V362.285C562.339 359.808 562.223 357.383 561.989 355.01C561.756 352.637 561.553 350.212 561.38 347.735L561.523 347.604L571.893 377.462H585.272V325.687H571.893V338.868C571.891 341.855 572.086 344.839 572.477 347.8C572.853 350.72 573.19 353.693 573.462 356.718L573.319 356.861L562.197 325.687H548.961V377.449ZM504.185 361.073C504.85 364.118 506.016 367.031 507.633 369.691C509.158 372.21 511.232 374.346 513.7 375.937C516.454 377.518 519.571 378.35 522.742 378.35C525.914 378.35 529.03 377.518 531.784 375.937C534.259 374.35 536.339 372.213 537.864 369.691C539.472 367.026 540.636 364.115 541.313 361.073C542.765 354.82 542.765 348.315 541.313 342.063C540.639 339.004 539.474 336.075 537.864 333.392C536.335 330.873 534.256 328.738 531.784 327.147C529.027 325.574 525.912 324.748 522.742 324.748C519.573 324.748 516.457 325.574 513.7 327.147C511.236 328.742 509.162 330.877 507.633 333.392C506.018 336.054 504.853 338.966 504.185 342.011C502.716 348.261 502.716 354.77 504.185 361.021V361.073ZM517.317 349.286C517.317 348.4 517.408 347.448 517.524 346.444C517.638 345.418 517.807 344.4 518.03 343.393C518.24 342.461 518.553 341.556 518.963 340.694C519.332 339.894 519.867 339.182 520.532 338.608C521.15 338.079 521.938 337.796 522.749 337.812C523.559 337.8 524.346 338.082 524.966 338.608C525.614 339.178 526.136 339.88 526.495 340.668C526.923 341.566 527.245 342.511 527.455 343.484C527.677 344.491 527.846 345.51 527.96 346.535C528.077 347.539 528.142 348.491 528.168 349.377C528.193 350.264 528.168 350.994 528.168 351.542C528.168 352.089 528.168 352.846 528.168 353.706C528.168 354.567 528.077 355.545 527.96 356.562C527.846 357.587 527.677 358.605 527.455 359.613C527.245 360.586 526.923 361.531 526.495 362.429C526.132 363.214 525.611 363.916 524.966 364.489C524.344 365.01 523.557 365.287 522.749 365.271C521.94 365.292 521.151 365.014 520.532 364.489C519.876 363.927 519.342 363.234 518.963 362.455C518.536 361.557 518.214 360.612 518.004 359.639C517.781 358.632 517.612 357.613 517.499 356.588C517.382 355.571 517.317 354.632 517.291 353.732C517.265 352.833 517.291 352.115 517.291 351.568C517.291 351.02 517.291 350.264 517.291 349.403L517.317 349.286ZM491.74 377.449V338.334H499.726V325.687H470.156V338.321H477.791V377.436L491.74 377.449ZM470.259 377.449V365.232H459.889V325.687H445.875V377.449H470.259ZM441.247 377.449L430.876 355.897C433.449 354.971 435.604 353.142 436.943 350.746C438.235 348.346 438.895 345.653 438.862 342.923C438.962 340.016 438.422 337.122 437.28 334.448C436.324 332.332 434.831 330.506 432.951 329.155C430.97 327.794 428.726 326.87 426.365 326.443C423.621 325.925 420.834 325.672 418.042 325.687H404.573V377.449H418.496V363.654C418.496 362.351 418.496 361.047 418.418 359.847C418.341 358.648 418.328 357.318 418.289 356.04L418.418 355.897L426.197 377.449H441.247ZM418.496 349.586V336.808C420.172 336.638 421.85 337.103 423.202 338.112C423.863 338.732 424.373 339.497 424.693 340.347C425.012 341.197 425.132 342.11 425.043 343.015C425.041 343.842 424.915 344.664 424.667 345.453C424.439 346.223 424.07 346.944 423.578 347.578C423.088 348.227 422.451 348.75 421.721 349.104C420.991 349.457 420.188 349.632 419.378 349.612H418.496V349.586ZM400.049 377.449L389.121 325.687H372.126L359.771 377.449H374.109L375.276 370.786H384.623L385.647 377.449H400.049ZM377.117 359.808L379.022 347.8C379.295 346.196 379.528 344.566 379.709 342.923C379.891 341.281 380.085 339.651 380.319 338.047H380.461C380.643 339.651 380.798 341.281 380.928 342.923C381.058 344.566 381.252 346.196 381.472 347.8L382.976 359.808H377.117ZM355.286 326.039C354.169 325.584 353.003 325.26 351.812 325.074C349.274 324.665 346.684 324.713 344.163 325.217C342.501 325.521 340.879 326.016 339.328 326.691C337.546 327.454 335.868 328.444 334.337 329.637C332.602 331.01 331.116 332.673 329.942 334.553C328.535 336.813 327.477 339.275 326.805 341.854C325.949 345.139 325.544 348.525 325.6 351.92C325.522 355.853 326.101 359.771 327.311 363.511C328.29 366.531 329.844 369.33 331.887 371.751C333.711 373.892 335.999 375.583 338.576 376.693C341.14 377.797 343.902 378.36 346.691 378.349C348.138 378.357 349.582 378.204 350.995 377.892C352.407 377.574 353.781 377.102 355.092 376.484L355.908 361.999C354.907 362.958 353.782 363.778 352.564 364.437C351.309 365.047 349.925 365.343 348.532 365.297C346.997 365.359 345.485 364.9 344.241 363.993C343.096 363.124 342.172 361.993 341.545 360.695C340.864 359.301 340.4 357.81 340.171 356.275C339.928 354.718 339.802 353.144 339.795 351.568C339.805 350.052 339.931 348.54 340.171 347.044C340.413 345.495 340.885 343.992 341.571 342.584C342.222 341.25 343.172 340.085 344.345 339.181C345.646 338.26 347.215 337.801 348.804 337.878C350.049 337.831 351.285 338.105 352.395 338.673C353.45 339.289 354.421 340.038 355.286 340.902V326.039Z" fill="#FF5800"/>
</g>
<defs>
<clipPath id="clip0_511_2157">
<rect width="110.4" height="120" fill="white" transform="translate(173.6 320)"/>
</clipPath>
<clipPath id="clip1_511_2157">
<rect width="260.8" height="112" fill="white" transform="translate(325.6 324.8)"/>
</clipPath>
</defs>
</svg>
