<svg width="760" height="570" viewBox="0 0 760 570" fill="none" xmlns="http://www.w3.org/2000/svg">
<rect width="760" height="570" fill="white"/>
<g clip-path="url(#clip0_525_45735)">
<path d="M378.991 242V289.392H368.563V242H378.991ZM392.259 255.081V259.865H392.446C393.642 257.884 395.174 256.427 397.08 255.53C398.986 254.633 400.93 254.184 402.911 254.184C405.415 254.184 407.508 254.521 409.115 255.231C410.722 255.904 411.993 256.875 412.927 258.071C413.862 259.305 414.497 260.762 414.871 262.519C415.245 264.276 415.432 266.219 415.432 268.312V289.429H406.013V269.994C406.013 267.153 405.565 265.06 404.668 263.64C403.771 262.257 402.201 261.547 399.958 261.547C397.379 261.547 395.548 262.295 394.389 263.827C393.231 265.359 392.67 267.864 392.67 271.377V289.354H383.252V255.081H392.222H392.259ZM426.719 280.87C427.13 281.618 427.691 282.178 428.326 282.664C428.961 283.15 429.746 283.486 430.606 283.711C431.465 283.935 432.362 284.047 433.297 284.047C433.97 284.047 434.642 283.972 435.39 283.823C436.137 283.673 436.773 283.412 437.371 283.075C437.969 282.739 438.455 282.29 438.866 281.73C439.277 281.169 439.464 280.496 439.464 279.637C439.464 278.216 438.529 277.17 436.661 276.46C434.792 275.75 432.176 275.04 428.812 274.329C427.429 274.03 426.083 273.657 424.813 273.246C423.505 272.834 422.346 272.274 421.337 271.601C420.328 270.928 419.505 270.069 418.87 269.022C418.235 267.976 417.936 266.705 417.936 265.21C417.936 263.005 418.384 261.173 419.244 259.753C420.103 258.333 421.262 257.212 422.645 256.389C424.065 255.567 425.635 255.007 427.429 254.67C429.186 254.334 431.017 254.184 432.886 254.184C434.754 254.184 436.548 254.371 438.305 254.708C440.062 255.044 441.594 255.642 442.977 256.502C444.36 257.324 445.481 258.445 446.378 259.865C447.275 261.248 447.836 263.005 447.985 265.135H439.015C438.866 263.304 438.193 262.108 436.96 261.435C435.726 260.8 434.269 260.463 432.587 260.463C432.063 260.463 431.465 260.463 430.867 260.575C430.232 260.65 429.671 260.8 429.186 261.024C428.662 261.248 428.251 261.585 427.877 261.996C427.541 262.407 427.354 262.967 427.354 263.678C427.354 264.5 427.653 265.21 428.289 265.733C428.924 266.256 429.709 266.705 430.718 267.041C431.727 267.378 432.848 267.677 434.119 267.938C435.39 268.2 436.698 268.499 438.043 268.798C439.426 269.097 440.734 269.471 442.043 269.919C443.351 270.368 444.509 270.966 445.518 271.676C446.528 272.423 447.35 273.32 447.985 274.404C448.621 275.488 448.92 276.834 448.92 278.403C448.92 280.646 448.471 282.552 447.574 284.084C446.677 285.617 445.481 286.85 444.023 287.784C442.566 288.719 440.884 289.354 439.015 289.728C437.146 290.102 435.203 290.289 433.259 290.289C431.316 290.289 429.335 290.102 427.429 289.691C425.523 289.279 423.841 288.644 422.346 287.71C420.851 286.775 419.655 285.542 418.683 284.01C417.749 282.477 417.225 280.571 417.113 278.254H426.083C426.083 279.263 426.308 280.16 426.719 280.87V280.87ZM475.045 289.392V284.608H474.858C473.662 286.588 472.129 288.046 470.223 288.906C468.317 289.803 466.374 290.251 464.393 290.251C461.889 290.251 459.796 289.915 458.189 289.242C456.581 288.569 455.311 287.635 454.376 286.439C453.442 285.206 452.807 283.748 452.433 281.991C452.059 280.235 451.872 278.291 451.872 276.198V255.081H461.291V274.442C461.291 277.282 461.739 279.375 462.636 280.795C463.533 282.178 465.103 282.888 467.345 282.888C469.924 282.888 471.756 282.141 472.914 280.608C474.073 279.076 474.634 276.572 474.634 273.059V255.081H484.052V289.392H475.082H475.045ZM498.329 242V289.392H488.911V242H498.329ZM504.421 260.127C505.393 258.669 506.627 257.511 508.122 256.614C509.617 255.717 511.336 255.081 513.205 254.708C515.073 254.334 516.98 254.147 518.886 254.147C520.605 254.147 522.362 254.259 524.118 254.521C525.875 254.782 527.519 255.231 528.977 255.941C530.435 256.651 531.631 257.623 532.565 258.894C533.499 260.164 533.948 261.809 533.948 263.902V281.767C533.948 283.299 534.023 284.794 534.209 286.215C534.396 287.635 534.695 288.681 535.144 289.392H525.576C525.389 288.868 525.239 288.308 525.127 287.784C525.015 287.224 524.94 286.663 524.903 286.103C523.408 287.635 521.614 288.719 519.596 289.354C517.578 289.99 515.484 290.289 513.354 290.289C511.71 290.289 510.177 290.102 508.757 289.691C507.337 289.279 506.103 288.681 505.057 287.822C504.01 287 503.151 285.916 502.553 284.645C501.955 283.374 501.656 281.842 501.656 280.048C501.656 278.104 501.992 276.497 502.702 275.226C503.375 273.956 504.272 272.947 505.356 272.199C506.44 271.452 507.673 270.891 509.056 270.517C510.439 270.143 511.859 269.844 513.279 269.62C514.7 269.396 516.083 269.209 517.465 269.097C518.848 268.947 520.044 268.761 521.128 268.499C522.175 268.237 523.034 267.864 523.632 267.34C524.268 266.817 524.529 266.107 524.492 265.135C524.492 264.126 524.342 263.304 524.006 262.706C523.67 262.108 523.221 261.659 522.661 261.323C522.1 260.987 521.465 260.762 520.754 260.65C520.007 260.538 519.222 260.501 518.4 260.501C516.531 260.501 515.073 260.912 514.027 261.697C512.98 262.482 512.345 263.827 512.158 265.696H502.74C502.889 263.491 503.412 261.659 504.384 260.202L504.421 260.127ZM523.034 273.432C522.436 273.619 521.801 273.806 521.128 273.918C520.455 274.068 519.708 274.18 518.96 274.255C518.213 274.329 517.465 274.442 516.718 274.591C516.008 274.741 515.298 274.89 514.625 275.114C513.952 275.339 513.354 275.638 512.831 276.011C512.308 276.385 511.896 276.871 511.597 277.432C511.298 277.992 511.149 278.74 511.149 279.637C511.149 280.534 511.298 281.169 511.597 281.767C511.896 282.328 512.345 282.814 512.868 283.113C513.392 283.412 514.027 283.673 514.737 283.823C515.447 283.972 516.157 284.01 516.942 284.01C518.811 284.01 520.231 283.711 521.24 283.075C522.249 282.44 522.997 281.73 523.483 280.87C523.969 280.01 524.268 279.151 524.38 278.254C524.492 277.357 524.529 276.647 524.529 276.123V272.61C524.118 272.947 523.632 273.246 523.034 273.432V273.432ZM557.494 255.081V261.398H550.58V278.403C550.58 280.01 550.841 281.057 551.365 281.58C551.888 282.103 552.972 282.365 554.541 282.365C555.065 282.365 555.588 282.365 556.074 282.29C556.56 282.253 557.008 282.178 557.457 282.103V289.392C556.672 289.541 555.775 289.616 554.803 289.653C553.831 289.691 552.897 289.728 551.963 289.728C550.505 289.728 549.122 289.616 547.814 289.429C546.506 289.242 545.347 288.831 544.375 288.27C543.366 287.71 542.581 286.887 542.021 285.804C541.46 284.757 541.161 283.337 541.161 281.618V261.36H535.443V255.044H541.161V244.803H550.58V255.081H557.494V255.081ZM560.933 249.774V242H570.351V249.774H560.933ZM570.351 255.081V289.392H560.933V255.081H570.351ZM574.051 264.799C574.873 262.556 576.069 260.65 577.639 259.08C579.172 257.511 581.04 256.277 583.208 255.418C585.376 254.558 587.805 254.11 590.496 254.11C593.187 254.11 595.654 254.558 597.822 255.418C600.027 256.277 601.896 257.511 603.428 259.08C604.96 260.65 606.156 262.556 607.016 264.799C607.838 267.041 608.287 269.508 608.287 272.274C608.287 275.04 607.876 277.506 607.016 279.711C606.194 281.917 604.998 283.823 603.428 285.392C601.896 286.962 600.027 288.158 597.822 289.018C595.617 289.877 593.187 290.289 590.496 290.289C587.805 290.289 585.376 289.877 583.208 289.018C581.04 288.158 579.172 286.962 577.639 285.392C576.107 283.823 574.911 281.917 574.051 279.711C573.229 277.506 572.78 275.04 572.78 272.274C572.78 269.508 573.192 267.041 574.051 264.799V264.799ZM582.61 276.273C582.872 277.581 583.32 278.74 583.956 279.786C584.591 280.833 585.451 281.655 586.497 282.29C587.544 282.926 588.889 283.225 590.496 283.225C592.103 283.225 593.411 282.926 594.495 282.29C595.579 281.655 596.439 280.833 597.074 279.786C597.71 278.74 598.158 277.581 598.42 276.273C598.681 274.965 598.831 273.619 598.831 272.274C598.831 270.928 598.681 269.545 598.42 268.237C598.158 266.892 597.71 265.733 597.074 264.724C596.439 263.715 595.579 262.893 594.495 262.22C593.411 261.585 592.066 261.248 590.496 261.248C588.926 261.248 587.581 261.585 586.497 262.22C585.451 262.855 584.591 263.678 583.956 264.724C583.32 265.733 582.872 266.929 582.61 268.237C582.348 269.545 582.199 270.928 582.199 272.274C582.199 273.619 582.348 275.002 582.61 276.273V276.273ZM620.695 255.081V259.865H620.882C622.078 257.884 623.611 256.427 625.517 255.53C627.423 254.633 629.366 254.184 631.347 254.184C633.851 254.184 635.944 254.521 637.551 255.231C639.158 255.904 640.429 256.875 641.364 258.071C642.298 259.305 642.933 260.762 643.307 262.519C643.681 264.276 643.868 266.219 643.868 268.312V289.429H634.449V269.994C634.449 267.153 634.001 265.06 633.104 263.64C632.207 262.257 630.637 261.547 628.394 261.547C625.816 261.547 623.984 262.295 622.826 263.827C621.667 265.359 621.106 267.864 621.106 271.377V289.354H611.688V255.081H620.658H620.695ZM150.405 242.187V250.821H127.382V261.622H147.34V269.583H127.382V288.868H116.917V242.187H150.405ZM162.851 242.187V288.868H153.395V242.187H162.851ZM177.876 280.758C179.296 282.103 181.352 282.776 184.005 282.776C185.911 282.776 187.556 282.29 188.939 281.356C190.322 280.422 191.144 279.412 191.48 278.366H199.815C198.469 282.44 196.451 285.318 193.685 287.074C190.92 288.831 187.593 289.691 183.669 289.691C180.94 289.691 178.511 289.279 176.343 288.42C174.176 287.56 172.307 286.364 170.812 284.794C169.317 283.225 168.121 281.356 167.299 279.188C166.476 277.02 166.065 274.628 166.065 272.012C166.065 269.396 166.476 267.116 167.336 264.948C168.196 262.781 169.392 260.874 170.924 259.305C172.494 257.698 174.325 256.464 176.493 255.53C178.661 254.595 181.053 254.147 183.669 254.147C186.621 254.147 189.163 254.708 191.331 255.829C193.498 256.95 195.292 258.445 196.713 260.314C198.096 262.183 199.142 264.313 199.74 266.742C200.375 269.134 200.6 271.638 200.413 274.255H175.521C175.671 277.245 176.418 279.45 177.838 280.795L177.876 280.758ZM188.602 262.967C187.481 261.734 185.762 261.136 183.445 261.136C181.95 261.136 180.679 261.398 179.67 261.884C178.661 262.369 177.876 263.005 177.278 263.752C176.68 264.5 176.269 265.285 176.007 266.107C175.745 266.929 175.633 267.677 175.558 268.349H190.957C190.508 265.995 189.724 264.201 188.602 262.967ZM223.66 255.044V261.248H216.708V277.992C216.708 279.562 216.97 280.608 217.493 281.132C218.016 281.655 219.1 281.917 220.707 281.917C221.231 281.917 221.754 281.917 222.24 281.842C222.726 281.804 223.212 281.73 223.623 281.655V288.831C222.838 288.98 221.941 289.055 220.969 289.093C219.997 289.13 219.026 289.167 218.091 289.167C216.634 289.167 215.251 289.055 213.905 288.868C212.597 288.681 211.438 288.308 210.429 287.71C209.42 287.149 208.635 286.327 208.075 285.28C207.514 284.234 207.215 282.851 207.215 281.169V261.286H201.459V255.081H207.215V244.915H216.671V255.081H223.623L223.66 255.044ZM242.086 261.136C240.591 261.136 239.32 261.472 238.274 262.145C237.265 262.818 236.405 263.678 235.77 264.761C235.134 265.845 234.686 267.004 234.387 268.312C234.125 269.583 233.976 270.891 233.976 272.124C233.976 273.358 234.125 274.591 234.387 275.862C234.648 277.133 235.097 278.254 235.695 279.3C236.293 280.309 237.115 281.169 238.124 281.804C239.133 282.477 240.404 282.776 241.862 282.776C244.142 282.776 245.861 282.141 247.094 280.907C248.328 279.674 249.075 277.992 249.412 275.899H258.568C257.933 280.384 256.176 283.823 253.224 286.177C250.271 288.532 246.534 289.728 241.937 289.728C239.358 289.728 237.003 289.317 234.835 288.457C232.668 287.598 230.836 286.402 229.341 284.907C227.846 283.374 226.65 281.543 225.791 279.45C224.931 277.319 224.52 275.002 224.52 272.498C224.52 269.994 224.894 267.452 225.678 265.21C226.463 262.967 227.585 261.024 229.117 259.379C230.612 257.735 232.481 256.464 234.648 255.567C236.816 254.67 239.32 254.184 242.123 254.184C244.179 254.184 246.123 254.446 248.029 254.969C249.935 255.492 251.617 256.277 253.112 257.361C254.607 258.445 255.803 259.753 256.737 261.36C257.671 262.967 258.195 264.836 258.344 267.004H249.075C248.44 263.117 246.123 261.173 242.086 261.173V261.136ZM270.753 242.187V259.791H270.94C272.136 257.81 273.668 256.389 275.537 255.492C277.405 254.595 279.237 254.147 280.993 254.147C283.535 254.147 285.591 254.483 287.235 255.156C288.842 255.829 290.15 256.763 291.085 257.959C292.019 259.155 292.692 260.613 293.066 262.332C293.439 264.051 293.626 265.957 293.626 268.05V288.831H284.17V269.77C284.17 266.967 283.722 264.911 282.825 263.528C281.928 262.145 280.358 261.472 278.078 261.472C275.499 261.472 273.631 262.22 272.472 263.715C271.313 265.21 270.753 267.677 270.753 271.153V288.868H261.297V242.187H270.753V242.187ZM308.389 280.758C309.81 282.103 311.865 282.776 314.519 282.776C316.425 282.776 318.069 282.29 319.452 281.356C320.835 280.422 321.657 279.412 321.994 278.366H330.329C328.983 282.44 326.965 285.318 324.199 287.074C321.433 288.831 318.107 289.691 314.182 289.691C311.454 289.691 309.025 289.279 306.857 288.42C304.689 287.56 302.82 286.364 301.325 284.794C299.83 283.225 298.634 281.356 297.812 279.188C296.99 277.02 296.579 274.628 296.579 272.012C296.579 269.396 296.99 267.116 297.85 264.948C298.709 262.781 299.905 260.874 301.438 259.305C303.007 257.698 304.839 256.464 307.006 255.53C309.174 254.595 311.566 254.147 314.182 254.147C317.135 254.147 319.677 254.708 321.844 255.829C324.012 256.95 325.806 258.445 327.226 260.314C328.609 262.183 329.656 264.313 330.254 266.742C330.889 269.134 331.113 271.638 330.927 274.255H306.035C306.184 277.245 306.932 279.45 308.352 280.795L308.389 280.758ZM319.116 262.967C317.995 261.734 316.275 261.136 313.958 261.136C312.463 261.136 311.192 261.398 310.183 261.884C309.174 262.369 308.389 263.005 307.791 263.752C307.193 264.5 306.782 265.285 306.521 266.107C306.259 266.929 306.147 267.677 306.072 268.349H321.471C321.022 265.995 320.237 264.201 319.116 262.967V262.967ZM342.961 255.044V261.323H343.111C343.559 260.276 344.157 259.305 344.905 258.408C345.652 257.511 346.512 256.763 347.521 256.128C348.493 255.492 349.539 255.007 350.661 254.67C351.782 254.334 352.94 254.147 354.136 254.147C354.772 254.147 355.445 254.259 356.192 254.483V263.117C355.744 263.042 355.22 262.967 354.585 262.893C353.95 262.818 353.352 262.781 352.791 262.781C351.072 262.781 349.577 263.08 348.381 263.64C347.185 264.201 346.213 264.986 345.465 265.957C344.718 266.929 344.195 268.088 343.896 269.396C343.597 270.704 343.447 272.124 343.447 273.657V288.906H333.991V255.081H342.999L342.961 255.044Z" fill="#76AD1C"/>
<path d="M343.597 328H116.02V303.445H343.597V328ZM120.804 320.973H126.709C129.924 320.973 131.344 319.703 131.344 317.498V317.423C131.344 315.666 130.297 314.769 128.84 314.508C130.26 314.171 131.007 313.274 131.007 311.817V311.742C131.007 309.873 129.811 308.453 126.709 308.453H120.804V321.011V320.973ZM124.691 313.312V310.994H125.887C126.859 310.994 127.27 311.368 127.27 312.116V312.19C127.27 312.975 126.896 313.312 125.887 313.312H124.691ZM124.691 318.357V315.704H125.85C126.971 315.704 127.419 316.152 127.419 316.974V317.049C127.419 317.909 126.934 318.357 125.924 318.357H124.654H124.691ZM135.754 321.198C137.286 321.198 138.146 320.525 138.669 319.553V320.973H142.145V311.779H138.669V317.012C138.669 318.096 138.146 318.619 137.286 318.619C136.464 318.619 136.128 318.133 136.128 317.199V311.779H132.652V317.797C132.652 320.076 133.96 321.198 135.717 321.198H135.754ZM145.584 311.106C146.63 311.106 147.452 310.359 147.452 309.387C147.452 308.415 146.63 307.631 145.584 307.631C144.537 307.631 143.715 308.378 143.715 309.387C143.715 310.396 144.537 311.106 145.584 311.106ZM143.864 320.973H147.303V311.779H143.864V320.973V320.973ZM149.06 320.973H152.498V307.817H149.06V320.973ZM157.656 321.198C159.039 321.198 160.01 320.45 160.459 319.478V320.936H163.935V307.78H160.459V313.013C159.936 312.078 159.076 311.518 157.656 311.518C155.563 311.518 153.844 313.125 153.844 316.302V316.451C153.844 319.665 155.6 321.16 157.656 321.16V321.198ZM158.927 318.581C157.917 318.581 157.319 317.871 157.319 316.451V316.302C157.319 314.844 157.88 314.134 158.927 314.134C159.973 314.134 160.534 314.919 160.534 316.302V316.451C160.534 317.871 159.936 318.619 158.927 318.619V318.581ZM167.373 311.106C168.42 311.106 169.242 310.359 169.242 309.387C169.242 308.415 168.42 307.631 167.373 307.631C166.327 307.631 165.505 308.378 165.505 309.387C165.505 310.396 166.327 311.106 167.373 311.106ZM165.654 320.973H169.093V311.779H165.654V320.973ZM170.812 320.973H174.288V315.89C174.288 314.807 174.811 314.283 175.671 314.283C176.53 314.283 176.829 314.769 176.829 315.704V320.973H180.305V314.919C180.305 312.639 179.109 311.518 177.352 311.518C175.82 311.518 174.811 312.265 174.325 313.237V311.779H170.849V320.973H170.812ZM186.322 324.375C189.761 324.375 191.555 322.917 191.555 320.189V311.779H188.079V313.05C187.556 312.116 186.696 311.518 185.276 311.518C183.183 311.518 181.464 313.162 181.464 315.928V316.077C181.464 318.918 183.22 320.45 185.313 320.45C186.696 320.45 187.631 319.703 188.116 318.843V320.263C188.116 321.235 187.668 322.02 186.36 322.02C185.276 322.02 184.977 321.497 184.865 320.936H181.426C181.688 323.104 183.183 324.412 186.36 324.412L186.322 324.375ZM186.584 317.983C185.538 317.983 184.977 317.236 184.977 316.115V315.965C184.977 314.807 185.538 314.096 186.584 314.096C187.631 314.096 188.191 314.844 188.191 315.965V316.077C188.191 317.236 187.593 317.983 186.584 317.983V317.983ZM196.787 320.973H202.693C205.907 320.973 207.365 319.703 207.365 317.498V317.423C207.365 315.666 206.318 314.769 204.861 314.508C206.281 314.171 207.028 313.274 207.028 311.817V311.742C207.028 309.873 205.832 308.453 202.73 308.453H196.787V321.011V320.973ZM200.674 313.312V310.994H201.87C202.842 310.994 203.253 311.368 203.253 312.116V312.19C203.253 312.975 202.88 313.312 201.87 313.312H200.674ZM200.674 318.357V315.704H201.833C202.954 315.704 203.403 316.152 203.403 316.974V317.049C203.403 317.909 202.917 318.357 201.908 318.357H200.637H200.674ZM213.307 321.198C216.223 321.198 217.83 319.964 218.091 317.871H214.877C214.765 318.395 214.391 318.843 213.419 318.843C212.448 318.843 211.775 318.245 211.7 317.124H218.091V316.264C218.091 312.975 215.886 311.48 213.307 311.48C210.504 311.48 208.224 313.312 208.224 316.302V316.451C208.224 319.478 210.392 321.16 213.307 321.16V321.198ZM211.738 315.33C211.887 314.283 212.485 313.76 213.307 313.76C214.242 313.76 214.728 314.358 214.765 315.33H211.738V315.33ZM223.062 321.16C223.81 321.16 224.482 321.011 224.894 320.899V318.282C224.595 318.395 224.333 318.432 224.034 318.432C223.473 318.432 223.137 318.17 223.137 317.535V314.059H224.894V311.742H223.137V309.873H219.661V311.742H218.577V314.059H219.661V317.834C219.661 320.151 220.894 321.123 223.062 321.123V321.16ZM230.051 321.16C230.799 321.16 231.472 321.011 231.883 320.899V318.282C231.584 318.395 231.322 318.432 231.023 318.432C230.462 318.432 230.126 318.17 230.126 317.535V314.059H231.883V311.742H230.126V309.873H226.65V311.742H225.566V314.059H226.65V317.834C226.65 320.151 227.884 321.123 230.051 321.123V321.16ZM237.713 321.16C240.628 321.16 242.236 319.927 242.497 317.834H239.283C239.171 318.357 238.797 318.806 237.825 318.806C236.854 318.806 236.181 318.208 236.106 317.086H242.497V316.227C242.497 312.938 240.292 311.443 237.713 311.443C234.91 311.443 232.63 313.274 232.63 316.264V316.414C232.63 319.441 234.798 321.123 237.713 321.123V321.16ZM236.143 315.292C236.293 314.246 236.891 313.723 237.713 313.723C238.648 313.723 239.133 314.321 239.133 315.292H236.106H236.143ZM243.768 320.936H247.244V316.713C247.244 315.405 248.29 314.769 250.196 314.881V311.667C248.814 311.667 247.842 312.228 247.244 313.648V311.779H243.768V320.973V320.936ZM251.542 323.066L254.158 318.656L250.981 317.535L249.561 322.319L251.579 323.066H251.542ZM261.521 320.936H265.52V311.443H268.697V308.378H258.344V311.443H261.521V320.936ZM273.332 321.16C276.209 321.16 278.452 319.404 278.452 316.376V316.227C278.452 313.274 276.209 311.518 273.369 311.518C270.528 311.518 268.249 313.349 268.249 316.339V316.488C268.249 319.516 270.491 321.198 273.369 321.198L273.332 321.16ZM273.332 318.619C272.21 318.619 271.687 317.834 271.687 316.339V316.189C271.687 314.769 272.285 314.022 273.332 314.022C274.378 314.022 274.901 314.807 274.901 316.227V316.339C274.901 317.797 274.378 318.581 273.332 318.581V318.619ZM284.058 324.337C287.497 324.337 289.291 322.88 289.291 320.151V311.742H285.815V313.013C285.292 312.078 284.432 311.48 283.012 311.48C280.919 311.48 279.199 313.125 279.199 315.89V316.04C279.199 318.88 280.956 320.413 283.049 320.413C284.432 320.413 285.366 319.665 285.852 318.806V320.226C285.852 321.198 285.404 321.983 284.096 321.983C283.012 321.983 282.713 321.459 282.601 320.899H279.162C279.424 323.066 280.919 324.375 284.096 324.375L284.058 324.337ZM284.32 317.946C283.273 317.946 282.713 317.199 282.713 316.077V315.928C282.713 314.769 283.273 314.059 284.32 314.059C285.366 314.059 285.927 314.807 285.927 315.928V316.04C285.927 317.199 285.329 317.946 284.32 317.946V317.946ZM295.57 321.16C298.485 321.16 300.092 319.927 300.354 317.834H297.139C297.027 318.357 296.654 318.806 295.719 318.806C294.785 318.806 294.075 318.208 294 317.086H300.391V316.227C300.391 312.938 298.186 311.443 295.607 311.443C292.804 311.443 290.524 313.274 290.524 316.264V316.414C290.524 319.441 292.692 321.123 295.607 321.123L295.57 321.16ZM294 315.292C294.149 314.246 294.747 313.723 295.57 313.723C296.504 313.723 296.99 314.321 297.027 315.292H294ZM305.325 321.123C306.072 321.123 306.745 320.973 307.156 320.861V318.245C306.857 318.357 306.595 318.395 306.296 318.395C305.736 318.395 305.399 318.133 305.399 317.498V314.022H307.156V311.704H305.399V309.836H301.923V311.704H300.84V314.022H301.923V317.797C301.923 320.114 303.157 321.086 305.325 321.086V321.123ZM308.576 320.899H312.052V315.816C312.052 314.732 312.575 314.209 313.435 314.209C314.295 314.209 314.594 314.694 314.594 315.629V320.899H318.07V314.844C318.07 312.564 316.874 311.443 315.117 311.443C313.585 311.443 312.575 312.19 312.09 313.162V307.705H308.614V320.861L308.576 320.899ZM324.274 321.123C327.189 321.123 328.796 319.89 329.058 317.797H325.844C325.731 318.32 325.358 318.768 324.423 318.768C323.489 318.768 322.779 318.17 322.704 317.049H329.095V316.189C329.095 312.9 326.89 311.405 324.311 311.405C321.508 311.405 319.228 313.237 319.228 316.227V316.376C319.228 319.404 321.396 321.086 324.311 321.086L324.274 321.123ZM322.704 315.255C322.854 314.209 323.452 313.685 324.274 313.685C325.208 313.685 325.694 314.283 325.731 315.255H322.704ZM330.329 320.899H333.804V316.675C333.804 315.367 334.851 314.732 336.757 314.844V311.63C335.374 311.63 334.402 312.19 333.804 313.611V311.742H330.329V320.936V320.899Z" fill="#76AD1C"/>
</g>
<defs>
<clipPath id="clip0_525_45735">
<rect width="527.96" height="86" fill="white" transform="translate(116.02 242)"/>
</clipPath>
</defs>
</svg>
