<svg width="1000" height="750" viewBox="0 0 1000 750" fill="none" xmlns="http://www.w3.org/2000/svg">
<g clip-path="url(#clip0_525_46103)">
<rect width="1000" height="750" fill="#F8FCF1"/>
<g clip-path="url(#clip1_525_46103)">
<path d="M340.347 60V114.555H328.438V60H340.347ZM355.501 75.0587V80.5658H355.715C357.081 78.2855 358.831 76.6076 361.008 75.575C363.185 74.5424 365.405 74.0261 367.667 74.0261C370.527 74.0261 372.918 74.4133 374.753 75.2308C376.589 76.0052 378.04 77.1239 379.107 78.5007C380.175 79.9205 380.9 81.5984 381.327 83.6206C381.754 85.6428 381.968 87.8801 381.968 90.2894V114.598H371.21V92.2256C371.21 88.9557 370.698 86.5463 369.674 84.9113C368.649 83.3194 366.856 82.502 364.295 82.502C361.35 82.502 359.258 83.3625 357.935 85.1265C356.611 86.8905 355.971 89.7731 355.971 93.8175V114.512H345.214V75.0587H355.459H355.501ZM394.859 104.746C395.329 105.606 395.969 106.252 396.695 106.811C397.42 107.37 398.317 107.757 399.299 108.016C400.28 108.274 401.305 108.403 402.372 108.403C403.14 108.403 403.909 108.317 404.763 108.145C405.616 107.973 406.342 107.671 407.025 107.284C407.708 106.897 408.263 106.381 408.732 105.735C409.202 105.09 409.415 104.316 409.415 103.326C409.415 101.691 408.348 100.486 406.214 99.6688C404.08 98.8514 401.091 98.0339 397.25 97.2164C395.67 96.8722 394.133 96.442 392.682 95.9687C391.188 95.4954 389.865 94.8501 388.712 94.0756C387.56 93.3012 386.62 92.3116 385.895 91.1069C385.169 89.9022 384.828 88.4394 384.828 86.7184C384.828 84.1799 385.34 82.0717 386.322 80.4368C387.303 78.8018 388.627 77.5111 390.206 76.5645C391.828 75.618 393.621 74.9726 395.67 74.5854C397.676 74.1982 399.768 74.0261 401.902 74.0261C404.037 74.0261 406.086 74.2412 408.092 74.6284C410.098 75.0156 411.849 75.704 413.428 76.6936C415.007 77.6402 416.288 78.9309 417.313 80.5658C418.337 82.1578 418.977 84.1799 419.148 86.6323H408.903C408.732 84.5241 407.964 83.1473 406.555 82.3729C405.147 81.6415 403.482 81.2542 401.561 81.2542C400.963 81.2542 400.28 81.2542 399.597 81.3833C398.872 81.4694 398.231 81.6415 397.676 81.8996C397.079 82.1578 396.609 82.545 396.182 83.0183C395.798 83.4915 395.585 84.1369 395.585 84.9544C395.585 85.9009 395.926 86.7184 396.652 87.3207C397.378 87.9231 398.274 88.4394 399.427 88.8266C400.579 89.2138 401.86 89.558 403.311 89.8592C404.763 90.1604 406.257 90.5046 407.793 90.8488C409.373 91.193 410.867 91.6232 412.361 92.1395C413.855 92.6558 415.178 93.3442 416.331 94.1617C417.483 95.0222 418.422 96.0548 419.148 97.3025C419.874 98.5502 420.215 100.099 420.215 101.906C420.215 104.488 419.703 106.682 418.679 108.446C417.654 110.21 416.288 111.63 414.623 112.705C412.958 113.781 411.038 114.512 408.903 114.943C406.769 115.373 404.549 115.588 402.329 115.588C400.11 115.588 397.847 115.373 395.67 114.9C393.493 114.426 391.572 113.695 389.865 112.619C388.157 111.544 386.791 110.124 385.681 108.36C384.614 106.596 384.016 104.402 383.888 101.734H394.133C394.133 102.896 394.389 103.928 394.859 104.746V104.746ZM450.054 114.555V109.048H449.84C448.474 111.329 446.724 113.007 444.547 113.996C442.37 115.029 440.15 115.545 437.888 115.545C435.028 115.545 432.637 115.158 430.802 114.383C428.966 113.609 427.515 112.533 426.448 111.156C425.38 109.737 424.655 108.059 424.228 106.037C423.801 104.014 423.588 101.777 423.588 99.3677V75.0587H434.345V97.3455C434.345 100.615 434.857 103.025 435.882 104.66C436.906 106.252 438.699 107.069 441.26 107.069C444.206 107.069 446.297 106.209 447.621 104.445C448.944 102.681 449.584 99.7979 449.584 95.7536V75.0587H460.341V114.555H450.096H450.054ZM476.648 60V114.555H465.891V60H476.648ZM483.606 80.867C484.716 79.189 486.124 77.8553 487.832 76.8227C489.539 75.7901 491.503 75.0587 493.637 74.6284C495.772 74.1982 497.949 73.9831 500.126 73.9831C502.089 73.9831 504.096 74.1121 506.102 74.4133C508.108 74.7145 509.987 75.2308 511.651 76.0482C513.316 76.8657 514.682 77.9844 515.749 79.4472C516.817 80.91 517.329 82.8031 517.329 85.2125V105.778C517.329 107.542 517.414 109.263 517.628 110.898C517.841 112.533 518.183 113.738 518.695 114.555H507.767C507.553 113.953 507.383 113.308 507.255 112.705C507.127 112.06 507.041 111.415 506.998 110.769C505.291 112.533 503.242 113.781 500.937 114.512C498.632 115.244 496.241 115.588 493.808 115.588C491.93 115.588 490.18 115.373 488.558 114.9C486.935 114.426 485.527 113.738 484.332 112.748C483.136 111.802 482.154 110.554 481.472 109.091C480.789 107.628 480.447 105.864 480.447 103.799C480.447 101.562 480.831 99.7119 481.642 98.249C482.411 96.7862 483.435 95.6245 484.673 94.764C485.911 93.9035 487.32 93.2582 488.899 92.8279C490.479 92.3977 492.101 92.0535 493.723 91.7953C495.345 91.5372 496.924 91.322 498.504 91.193C500.083 91.0209 501.449 90.8057 502.687 90.5046C503.882 90.2034 504.864 89.7731 505.547 89.1708C506.273 88.5685 506.572 87.751 506.529 86.6323C506.529 85.4707 506.358 84.5241 505.974 83.8357C505.59 83.1473 505.078 82.631 504.437 82.2438C503.797 81.8566 503.071 81.5984 502.26 81.4694C501.406 81.3403 500.51 81.2973 499.571 81.2973C497.437 81.2973 495.772 81.7705 494.576 82.6741C493.381 83.5776 492.656 85.1265 492.442 87.2777H481.685C481.856 84.7392 482.453 82.631 483.563 80.9531L483.606 80.867ZM504.864 96.1838C504.181 96.399 503.455 96.6141 502.687 96.7432C501.919 96.9153 501.065 97.0443 500.211 97.1304C499.357 97.2164 498.504 97.3455 497.65 97.5176C496.839 97.6897 496.028 97.8618 495.259 98.1199C494.491 98.3781 493.808 98.7223 493.21 99.1525C492.613 99.5828 492.143 100.142 491.802 100.787C491.46 101.433 491.29 102.293 491.29 103.326C491.29 104.359 491.46 105.09 491.802 105.778C492.143 106.424 492.656 106.983 493.253 107.327C493.851 107.671 494.576 107.973 495.388 108.145C496.199 108.317 497.01 108.36 497.906 108.36C500.04 108.36 501.663 108.016 502.815 107.284C503.968 106.553 504.821 105.735 505.376 104.746C505.931 103.756 506.273 102.767 506.401 101.734C506.529 100.701 506.572 99.884 506.572 99.2816V95.2373C506.102 95.6245 505.547 95.9687 504.864 96.1838V96.1838ZM544.222 75.0587V82.3299H536.325V101.906C536.325 103.756 536.623 104.961 537.221 105.563C537.819 106.166 539.057 106.467 540.849 106.467C541.447 106.467 542.045 106.467 542.6 106.381C543.155 106.338 543.667 106.252 544.179 106.166V114.555C543.283 114.728 542.258 114.814 541.148 114.857C540.038 114.9 538.971 114.943 537.904 114.943C536.239 114.943 534.66 114.814 533.166 114.598C531.672 114.383 530.348 113.91 529.239 113.265C528.086 112.619 527.19 111.673 526.549 110.425C525.909 109.22 525.567 107.585 525.567 105.606V82.2868H519.036V75.0156H525.567V63.2269H536.325V75.0587H544.222V75.0587ZM548.149 68.9492V60H558.906V68.9492H548.149ZM558.906 75.0587V114.555H548.149V75.0587H558.906ZM563.132 86.2451C564.071 83.6636 565.437 81.4694 567.23 79.6623C568.98 77.8553 571.115 76.4355 573.591 75.4459C576.066 74.4563 578.841 73.94 581.915 73.94C584.988 73.94 587.805 74.4563 590.281 75.4459C592.8 76.4355 594.934 77.8553 596.684 79.6623C598.435 81.4694 599.801 83.6636 600.782 86.2451C601.721 88.8266 602.234 91.6662 602.234 94.8501C602.234 98.0339 601.764 100.874 600.782 103.412C599.843 105.95 598.477 108.145 596.684 109.952C594.934 111.759 592.8 113.136 590.281 114.125C587.763 115.115 584.988 115.588 581.915 115.588C578.841 115.588 576.066 115.115 573.591 114.125C571.115 113.136 568.98 111.759 567.23 109.952C565.48 108.145 564.114 105.95 563.132 103.412C562.193 100.874 561.681 98.0339 561.681 94.8501C561.681 91.6662 562.15 88.8266 563.132 86.2451V86.2451ZM572.908 99.4537C573.206 100.96 573.719 102.293 574.444 103.498C575.17 104.703 576.152 105.649 577.347 106.381C578.542 107.112 580.079 107.456 581.915 107.456C583.75 107.456 585.244 107.112 586.482 106.381C587.72 105.649 588.702 104.703 589.428 103.498C590.153 102.293 590.666 100.96 590.964 99.4537C591.263 97.9479 591.434 96.399 591.434 94.8501C591.434 93.3012 591.263 91.7093 590.964 90.2034C590.666 88.6545 590.153 87.3207 589.428 86.1591C588.702 84.9974 587.72 84.0508 586.482 83.2764C585.244 82.545 583.707 82.1578 581.915 82.1578C580.122 82.1578 578.585 82.545 577.347 83.2764C576.152 84.0078 575.17 84.9544 574.444 86.1591C573.719 87.3207 573.206 88.6975 572.908 90.2034C572.609 91.7093 572.438 93.3012 572.438 94.8501C572.438 96.399 572.609 97.9909 572.908 99.4537V99.4537ZM616.406 75.0587V80.5658H616.619C617.985 78.2855 619.736 76.6076 621.913 75.575C624.09 74.5424 626.309 74.0261 628.572 74.0261C631.432 74.0261 633.822 74.4133 635.658 75.2308C637.493 76.0052 638.945 77.1239 640.012 78.5007C641.079 79.9205 641.805 81.5984 642.232 83.6206C642.659 85.6428 642.872 87.8801 642.872 90.2894V114.598H632.115V92.2256C632.115 88.9557 631.603 86.5463 630.578 84.9113C629.554 83.3194 627.761 82.502 625.199 82.502C622.254 82.502 620.162 83.3625 618.839 85.1265C617.516 86.8905 616.875 89.7731 616.875 93.8175V114.512H606.118V75.0587H616.363H616.406ZM79.2722 60.2151V70.1538H52.9768V82.588H75.7718V91.7523H52.9768V113.953H41.0244V60.2151H79.2722ZM93.487 60.2151V113.953H82.6872V60.2151H93.487ZM110.647 104.617C112.269 106.166 114.617 106.94 117.648 106.94C119.825 106.94 121.703 106.381 123.283 105.305C124.862 104.229 125.801 103.068 126.185 101.863H135.705C134.168 106.553 131.863 109.866 128.704 111.888C125.545 113.91 121.746 114.9 117.264 114.9C114.148 114.9 111.373 114.426 108.897 113.437C106.421 112.447 104.287 111.07 102.579 109.263C100.872 107.456 99.506 105.305 98.5668 102.81C97.6277 100.314 97.1582 97.5606 97.1582 94.5489C97.1582 91.5372 97.6277 88.9126 98.6095 86.4172C99.5913 83.9218 100.957 81.7275 102.707 79.9205C104.5 78.0704 106.592 76.6506 109.068 75.575C111.544 74.4993 114.276 73.9831 117.264 73.9831C120.636 73.9831 123.539 74.6284 126.015 75.9192C128.491 77.2099 130.54 78.9309 132.162 81.0821C133.741 83.2334 134.936 85.6858 135.619 88.4824C136.345 91.236 136.601 94.1186 136.388 97.1304H107.958C108.129 100.572 108.983 103.111 110.605 104.66L110.647 104.617ZM122.899 84.1369C121.618 82.7171 119.654 82.0287 117.008 82.0287C115.3 82.0287 113.849 82.3299 112.696 82.8892C111.544 83.4485 110.647 84.1799 109.964 85.0404C109.281 85.9009 108.812 86.8044 108.513 87.751C108.214 88.6975 108.086 89.558 108.001 90.3325H125.588C125.076 87.6219 124.179 85.5567 122.899 84.1369ZM162.939 75.0156V82.1578H154.999V101.433C154.999 103.24 155.298 104.445 155.896 105.047C156.493 105.649 157.731 105.95 159.567 105.95C160.165 105.95 160.762 105.95 161.317 105.864C161.872 105.821 162.427 105.735 162.897 105.649V113.91C162 114.082 160.976 114.168 159.866 114.211C158.756 114.254 157.646 114.297 156.579 114.297C154.914 114.297 153.335 114.168 151.798 113.953C150.304 113.738 148.98 113.308 147.828 112.619C146.675 111.974 145.779 111.027 145.139 109.823C144.498 108.618 144.157 107.026 144.157 105.09V82.2008H137.583V75.0587H144.157V63.3559H154.957V75.0587H162.897L162.939 75.0156ZM183.984 82.0287C182.277 82.0287 180.825 82.4159 179.63 83.1904C178.477 83.9648 177.496 84.9544 176.77 86.2021C176.044 87.4498 175.532 88.7836 175.19 90.2894C174.892 91.7523 174.721 93.2582 174.721 94.678C174.721 96.0978 174.892 97.5176 175.19 98.9804C175.489 100.443 176.002 101.734 176.685 102.939C177.368 104.1 178.307 105.09 179.459 105.821C180.612 106.596 182.063 106.94 183.728 106.94C186.332 106.94 188.295 106.209 189.704 104.789C191.113 103.369 191.967 101.433 192.351 99.0235H202.809C202.083 104.186 200.077 108.145 196.705 110.855C193.333 113.566 189.064 114.943 183.813 114.943C180.868 114.943 178.179 114.469 175.703 113.48C173.227 112.49 171.135 111.113 169.428 109.392C167.72 107.628 166.354 105.52 165.372 103.111C164.391 100.658 163.921 97.9909 163.921 95.1082C163.921 92.2256 164.348 89.2999 165.244 86.7184C166.141 84.1369 167.421 81.8996 169.172 80.0065C170.879 78.1134 173.013 76.6506 175.489 75.618C177.965 74.5854 180.825 74.0261 184.027 74.0261C186.375 74.0261 188.594 74.3272 190.771 74.9296C192.948 75.5319 194.869 76.4355 196.577 77.6832C198.284 78.9309 199.65 80.4368 200.717 82.2868C201.785 84.1369 202.382 86.2881 202.553 88.7836H191.967C191.241 84.309 188.594 82.0717 183.984 82.0717V82.0287ZM216.725 60.2151V80.4798H216.939C218.305 78.1995 220.055 76.5645 222.189 75.5319C224.323 74.4993 226.415 73.9831 228.421 73.9831C231.324 73.9831 233.672 74.3703 235.55 75.1447C237.386 75.9192 238.88 76.9948 239.947 78.3716C241.014 79.7484 241.783 81.4263 242.209 83.4055C242.636 85.3846 242.85 87.5789 242.85 89.9883V113.91H232.05V91.9674C232.05 88.7405 231.538 86.3742 230.513 84.7823C229.489 83.1904 227.696 82.4159 225.092 82.4159C222.146 82.4159 220.012 83.2764 218.689 84.9974C217.365 86.7184 216.725 89.558 216.725 93.5593V113.953H205.925V60.2151H216.725V60.2151ZM259.711 104.617C261.333 106.166 263.681 106.94 266.712 106.94C268.889 106.94 270.767 106.381 272.347 105.305C273.926 104.229 274.865 103.068 275.249 101.863H284.769C283.232 106.553 280.927 109.866 277.768 111.888C274.609 113.91 270.81 114.9 266.328 114.9C263.212 114.9 260.437 114.426 257.961 113.437C255.485 112.447 253.351 111.07 251.643 109.263C249.936 107.456 248.57 105.305 247.631 102.81C246.692 100.314 246.222 97.5606 246.222 94.5489C246.222 91.5372 246.692 88.9126 247.673 86.4172C248.655 83.9218 250.021 81.7275 251.771 79.9205C253.564 78.0704 255.656 76.6506 258.132 75.575C260.608 74.4993 263.34 73.9831 266.328 73.9831C269.7 73.9831 272.603 74.6284 275.079 75.9192C277.554 77.2099 279.603 78.9309 281.226 81.0821C282.805 83.2334 284 85.6858 284.683 88.4824C285.409 91.236 285.665 94.1186 285.452 97.1304H257.022C257.193 100.572 258.046 103.111 259.669 104.66L259.711 104.617ZM271.962 84.1369C270.682 82.7171 268.718 82.0287 266.072 82.0287C264.364 82.0287 262.913 82.3299 261.76 82.8892C260.608 83.4485 259.711 84.1799 259.028 85.0404C258.345 85.9009 257.876 86.8044 257.577 87.751C257.278 88.6975 257.15 89.558 257.065 90.3325H274.652C274.14 87.6219 273.243 85.5567 271.962 84.1369V84.1369ZM299.197 75.0156V82.2438H299.368C299.88 81.0391 300.563 79.9205 301.417 78.8879C302.27 77.8553 303.252 76.9948 304.405 76.2634C305.515 75.5319 306.71 74.9726 307.99 74.5854C309.271 74.1982 310.594 73.9831 311.96 73.9831C312.686 73.9831 313.454 74.1121 314.308 74.3703V84.309C313.796 84.2229 313.198 84.1369 312.473 84.0508C311.747 83.9648 311.064 83.9218 310.424 83.9218C308.46 83.9218 306.753 84.266 305.387 84.9113C304.021 85.5567 302.911 86.4602 302.057 87.5789C301.203 88.6975 300.606 90.0313 300.264 91.5372C299.923 93.043 299.752 94.678 299.752 96.442V113.996H288.952V75.0587H299.24L299.197 75.0156Z" fill="#004443"/>
<path d="M299.923 159H40V130.733H299.923V159ZM45.464 150.911H52.2086C55.8797 150.911 57.5018 149.448 57.5018 146.91V146.824C57.5018 144.802 56.3065 143.769 54.6417 143.468C56.2638 143.081 57.1176 142.048 57.1176 140.37V140.284C57.1176 138.133 55.7516 136.498 52.2086 136.498H45.464V150.954V150.911ZM49.9034 142.091V139.424H51.2694C52.3793 139.424 52.8489 139.854 52.8489 140.714V140.8C52.8489 141.704 52.422 142.091 51.2694 142.091H49.9034ZM49.9034 147.9V144.845H51.2267C52.5074 144.845 53.0196 145.361 53.0196 146.308V146.394C53.0196 147.383 52.4647 147.9 51.3121 147.9H49.8608H49.9034ZM62.5389 151.169C64.289 151.169 65.2709 150.395 65.8685 149.276V150.911H69.8384V140.327H65.8685V146.351C65.8685 147.598 65.2709 148.201 64.289 148.201C63.3499 148.201 62.9657 147.641 62.9657 146.566V140.327H58.9958V147.254C58.9958 149.879 60.4899 151.169 62.4962 151.169H62.5389ZM73.7656 139.553C74.9609 139.553 75.9 138.692 75.9 137.574C75.9 136.455 74.9609 135.551 73.7656 135.551C72.5704 135.551 71.6313 136.412 71.6313 137.574C71.6313 138.735 72.5704 139.553 73.7656 139.553ZM71.802 150.911H75.7292V140.327H71.802V150.911V150.911ZM77.7355 150.911H81.6628V135.767H77.7355V150.911ZM87.5536 151.169C89.133 151.169 90.2429 150.309 90.7551 149.19V150.868H94.7251V135.724H90.7551V141.747C90.1575 140.671 89.1757 140.026 87.5536 140.026C85.1631 140.026 83.1995 141.876 83.1995 145.533V145.705C83.1995 149.405 85.2058 151.126 87.5536 151.126V151.169ZM89.005 148.158C87.8524 148.158 87.1694 147.34 87.1694 145.705V145.533C87.1694 143.855 87.8097 143.038 89.005 143.038C90.2002 143.038 90.8405 143.941 90.8405 145.533V145.705C90.8405 147.34 90.1575 148.201 89.005 148.201V148.158ZM98.6523 139.553C99.8475 139.553 100.787 138.692 100.787 137.574C100.787 136.455 99.8475 135.551 98.6523 135.551C97.457 135.551 96.5179 136.412 96.5179 137.574C96.5179 138.735 97.457 139.553 98.6523 139.553ZM96.6887 150.911H100.616V140.327H96.6887V150.911ZM102.58 150.911H106.549V145.06C106.549 143.812 107.147 143.21 108.129 143.21C109.111 143.21 109.452 143.769 109.452 144.845V150.911H113.422V143.941C113.422 141.317 112.056 140.026 110.05 140.026C108.3 140.026 107.147 140.887 106.592 142.005V140.327H102.622V150.911H102.58ZM120.295 154.827C124.222 154.827 126.271 153.149 126.271 150.008V140.327H122.301V141.79C121.703 140.714 120.722 140.026 119.099 140.026C116.709 140.026 114.745 141.919 114.745 145.103V145.275C114.745 148.545 116.752 150.309 119.142 150.309C120.722 150.309 121.789 149.448 122.344 148.459V150.094C122.344 151.212 121.831 152.116 120.337 152.116C119.099 152.116 118.758 151.514 118.63 150.868H114.703C115.001 153.364 116.709 154.87 120.337 154.87L120.295 154.827ZM120.594 147.469C119.398 147.469 118.758 146.609 118.758 145.318V145.146C118.758 143.812 119.398 142.995 120.594 142.995C121.789 142.995 122.429 143.855 122.429 145.146V145.275C122.429 146.609 121.746 147.469 120.594 147.469V147.469ZM132.247 150.911H138.992C142.663 150.911 144.328 149.448 144.328 146.91V146.824C144.328 144.802 143.132 143.769 141.468 143.468C143.09 143.081 143.943 142.048 143.943 140.37V140.284C143.943 138.133 142.577 136.498 139.034 136.498H132.247V150.954V150.911ZM136.687 142.091V139.424H138.053C139.162 139.424 139.632 139.854 139.632 140.714V140.8C139.632 141.704 139.205 142.091 138.053 142.091H136.687ZM136.687 147.9V144.845H138.01C139.291 144.845 139.803 145.361 139.803 146.308V146.394C139.803 147.383 139.248 147.9 138.095 147.9H136.644H136.687ZM151.115 151.169C154.445 151.169 156.28 149.75 156.579 147.34H152.908C152.78 147.943 152.353 148.459 151.243 148.459C150.133 148.459 149.365 147.77 149.279 146.48H156.579V145.49C156.579 141.704 154.06 139.983 151.115 139.983C147.913 139.983 145.309 142.091 145.309 145.533V145.705C145.309 149.19 147.785 151.126 151.115 151.126V151.169ZM149.322 144.415C149.493 143.21 150.176 142.608 151.115 142.608C152.182 142.608 152.737 143.296 152.78 144.415H149.322V144.415ZM162.256 151.126C163.11 151.126 163.878 150.954 164.348 150.825V147.813C164.006 147.943 163.708 147.986 163.366 147.986C162.726 147.986 162.342 147.684 162.342 146.953V142.952H164.348V140.284H162.342V138.133H158.372V140.284H157.134V142.952H158.372V147.297C158.372 149.965 159.78 151.083 162.256 151.083V151.126ZM170.239 151.126C171.093 151.126 171.861 150.954 172.33 150.825V147.813C171.989 147.943 171.69 147.986 171.349 147.986C170.708 147.986 170.324 147.684 170.324 146.953V142.952H172.33V140.284H170.324V138.133H166.354V140.284H165.116V142.952H166.354V147.297C166.354 149.965 167.763 151.083 170.239 151.083V151.126ZM178.99 151.126C182.319 151.126 184.155 149.707 184.454 147.297H180.783C180.654 147.9 180.228 148.416 179.118 148.416C178.008 148.416 177.24 147.727 177.154 146.437H184.454V145.447C184.454 141.661 181.935 139.94 178.99 139.94C175.788 139.94 173.184 142.048 173.184 145.49V145.662C173.184 149.147 175.66 151.083 178.99 151.083V151.126ZM177.197 144.372C177.368 143.167 178.051 142.564 178.99 142.564C180.057 142.564 180.612 143.253 180.612 144.372H177.154H177.197ZM185.905 150.868H189.875V146.006C189.875 144.501 191.07 143.769 193.247 143.898V140.198C191.668 140.198 190.558 140.843 189.875 142.478V140.327H185.905V150.911V150.868ZM194.784 153.321L197.772 148.244L194.144 146.953L192.522 152.46L194.827 153.321H194.784ZM206.181 150.868H210.749V139.94H214.377V136.412H202.553V139.94H206.181V150.868ZM219.671 151.126C222.958 151.126 225.519 149.104 225.519 145.619V145.447C225.519 142.048 222.958 140.026 219.713 140.026C216.469 140.026 213.865 142.134 213.865 145.576V145.748C213.865 149.233 216.426 151.169 219.713 151.169L219.671 151.126ZM219.671 148.201C218.39 148.201 217.792 147.297 217.792 145.576V145.404C217.792 143.769 218.475 142.909 219.671 142.909C220.866 142.909 221.463 143.812 221.463 145.447V145.576C221.463 147.254 220.866 148.158 219.671 148.158V148.201ZM231.922 154.784C235.849 154.784 237.898 153.106 237.898 149.965V140.284H233.928V141.747C233.331 140.671 232.349 139.983 230.727 139.983C228.336 139.983 226.373 141.876 226.373 145.06V145.232C226.373 148.502 228.379 150.266 230.769 150.266C232.349 150.266 233.416 149.405 233.971 148.416V150.051C233.971 151.169 233.459 152.073 231.965 152.073C230.727 152.073 230.385 151.471 230.257 150.825H226.33C226.629 153.321 228.336 154.827 231.965 154.827L231.922 154.784ZM232.221 147.426C231.025 147.426 230.385 146.566 230.385 145.275V145.103C230.385 143.769 231.025 142.952 232.221 142.952C233.416 142.952 234.056 143.812 234.056 145.103V145.232C234.056 146.566 233.373 147.426 232.221 147.426V147.426ZM245.07 151.126C248.399 151.126 250.235 149.707 250.534 147.297H246.862C246.734 147.9 246.307 148.416 245.24 148.416C244.173 148.416 243.362 147.727 243.277 146.437H250.576V145.447C250.576 141.661 248.058 139.94 245.112 139.94C241.911 139.94 239.307 142.048 239.307 145.49V145.662C239.307 149.147 241.783 151.083 245.112 151.083L245.07 151.126ZM243.277 144.372C243.447 143.167 244.13 142.564 245.07 142.564C246.137 142.564 246.692 143.253 246.734 144.372H243.277ZM256.211 151.083C257.065 151.083 257.833 150.911 258.303 150.782V147.77C257.961 147.9 257.662 147.943 257.321 147.943C256.68 147.943 256.296 147.641 256.296 146.91V142.909H258.303V140.241H256.296V138.09H252.326V140.241H251.088V142.909H252.326V147.254C252.326 149.922 253.735 151.04 256.211 151.04V151.083ZM259.925 150.825H263.895V144.974C263.895 143.726 264.492 143.124 265.474 143.124C266.456 143.124 266.797 143.683 266.797 144.759V150.825H270.767V143.855C270.767 141.231 269.401 139.94 267.395 139.94C265.645 139.94 264.492 140.8 263.937 141.919V135.637H259.967V150.782L259.925 150.825ZM277.853 151.083C281.183 151.083 283.019 149.664 283.317 147.254H279.646C279.518 147.857 279.091 148.373 278.024 148.373C276.957 148.373 276.146 147.684 276.06 146.394H283.36V145.404C283.36 141.618 280.841 139.897 277.896 139.897C274.694 139.897 272.091 142.005 272.091 145.447V145.619C272.091 149.104 274.566 151.04 277.896 151.04L277.853 151.083ZM276.06 144.328C276.231 143.124 276.914 142.521 277.853 142.521C278.921 142.521 279.475 143.21 279.518 144.328H276.06ZM284.769 150.825H288.739V145.963C288.739 144.458 289.934 143.726 292.111 143.855V140.155C290.531 140.155 289.422 140.8 288.739 142.435V140.284H284.769V150.868V150.825Z" fill="#004443"/>
</g>
<path d="M999.925 431.826H1216V856.098H353.95V369.126C353.95 286.284 421.108 219.126 503.95 219.126H999.925V431.826Z" fill="#DAECE1"/>
<path d="M785.072 431.47H569.772L569.772 218.951H785.072L785.072 431.47Z" stroke="#76AD1C" stroke-miterlimit="10"/>
<path d="M570.097 267.856H784.783" stroke="#76AD1C" stroke-miterlimit="10"/>
<path d="M570.094 327.718C587.972 327.718 587.972 310.705 605.851 310.705C623.729 310.705 623.729 327.718 641.608 327.718C659.486 327.718 659.486 310.705 677.393 310.705C695.301 310.705 695.272 327.718 713.15 327.718C731.029 327.718 731.058 310.705 748.936 310.705C766.814 310.705 766.844 327.718 784.722 327.718" stroke="#76AD1C" stroke-miterlimit="10"/>
<path d="M629.429 268.491L629.429 218" stroke="#76AD1C" stroke-miterlimit="10"/>
<path d="M677.426 310.479L677.426 268.494" stroke="#76AD1C" stroke-miterlimit="10"/>
<path d="M731.087 268.491L731.087 218" stroke="#76AD1C" stroke-miterlimit="10"/>
<path d="M1000.38 643.986H785.077L785.077 431.467H1000.38L1000.38 643.986Z" stroke="#76AD1C" stroke-miterlimit="10"/>
<path d="M785.077 504.137L892.727 584.733L1000.38 504.224" stroke="#76AD1C" stroke-miterlimit="10"/>
<path d="M785.077 467.165L892.727 547.761L1000.38 467.223" stroke="#76AD1C" stroke-miterlimit="10"/>
<path d="M785.077 466.796H1000.38" stroke="#76AD1C" stroke-miterlimit="10"/>
<path d="M877.269 536.203L877.269 466.795" stroke="#76AD1C" stroke-miterlimit="10"/>
<path d="M908.209 536.203L908.209 466.795" stroke="#76AD1C" stroke-miterlimit="10"/>
<path d="M569.769 431.47H354.469L354.469 218.951H569.769L569.769 431.47Z" stroke="#76AD1C" stroke-miterlimit="10"/>
<path d="M354.999 431.066L569.042 219.903" stroke="#76AD1C" stroke-miterlimit="10" stroke-linecap="round"/>
<path d="M569.34 431.123L355.384 219.844" stroke="#76AD1C" stroke-miterlimit="10" stroke-linecap="round"/>
<path d="M1000.38 856.511H785.077L785.077 643.992H1000.38L1000.38 856.511Z" stroke="#76AD1C" stroke-miterlimit="10"/>
<path d="M1000.37 725.854L969.526 695.664" stroke="#76AD1C" stroke-miterlimit="10"/>
<path d="M971.629 718.411L907.214 655.145" stroke="#76AD1C" stroke-miterlimit="10"/>
<path d="M819.227 704.341L785.077 670.863" stroke="#76AD1C" stroke-miterlimit="10"/>
<path d="M1000.37 804.404L836.898 643.991" stroke="#76AD1C" stroke-miterlimit="10"/>
<path d="M785.072 643.986H569.772L569.772 431.467H785.072L785.072 643.986Z" stroke="#76AD1C" stroke-miterlimit="10"/>
<path d="M629.538 643.986L629.538 431.092" stroke="#76AD1C" stroke-miterlimit="10"/>
<path d="M606.817 643.986L606.817 431.092" stroke="#76AD1C" stroke-miterlimit="10"/>
<path d="M661.966 643.986L661.966 431.092" stroke="#76AD1C" stroke-miterlimit="10"/>
<path d="M723.023 643.986L723.023 431.092" stroke="#76AD1C" stroke-miterlimit="10"/>
<path d="M691.855 643.986L691.855 612.267" stroke="#76AD1C" stroke-miterlimit="10"/>
<path d="M691.855 588.134L691.855 545.774" stroke="#76AD1C" stroke-miterlimit="10"/>
<path d="M691.855 520.863L691.855 480.147" stroke="#76AD1C" stroke-miterlimit="10"/>
<path d="M606.262 621.498H628.698" stroke="#76AD1C" stroke-miterlimit="10"/>
<path d="M590.814 631.475H605.976" stroke="#76AD1C" stroke-miterlimit="10"/>
<path d="M590.814 569.165H605.976" stroke="#76AD1C" stroke-miterlimit="10"/>
<path d="M590.814 506.821H605.976" stroke="#76AD1C" stroke-miterlimit="10"/>
<path d="M590.814 444.502H605.976" stroke="#76AD1C" stroke-miterlimit="10"/>
<path d="M606.262 599.899H628.698" stroke="#76AD1C" stroke-miterlimit="10"/>
<path d="M662.406 612.357H722.176" stroke="#76AD1C" stroke-miterlimit="10"/>
<path d="M662.406 588.25H722.176" stroke="#76AD1C" stroke-miterlimit="10"/>
<path d="M662.406 545.864H722.176" stroke="#76AD1C" stroke-miterlimit="10"/>
<path d="M662.406 521.787H722.176" stroke="#76AD1C" stroke-miterlimit="10"/>
<path d="M662.406 479.396H722.176" stroke="#76AD1C" stroke-miterlimit="10"/>
<path d="M662.406 455.29H722.176" stroke="#76AD1C" stroke-miterlimit="10"/>
<path d="M606.262 578.271H628.698" stroke="#76AD1C" stroke-miterlimit="10"/>
<path d="M606.262 556.675H628.698" stroke="#76AD1C" stroke-miterlimit="10"/>
<path d="M606.262 535.081H628.698" stroke="#76AD1C" stroke-miterlimit="10"/>
<path d="M606.262 513.478H628.698" stroke="#76AD1C" stroke-miterlimit="10"/>
<path d="M606.262 491.854H628.698" stroke="#76AD1C" stroke-miterlimit="10"/>
<path d="M606.262 470.249H628.698" stroke="#76AD1C" stroke-miterlimit="10"/>
<path d="M606.262 448.655H628.698" stroke="#76AD1C" stroke-miterlimit="10"/>
<path d="M1215.67 643.986H1000.37L1000.37 431.467H1215.67L1215.67 643.986Z" stroke="#76AD1C" stroke-miterlimit="10"/>
<path d="M354.476 856.511H139.176L139.176 643.992H354.476L354.476 856.511Z" stroke="#76AD1C" stroke-miterlimit="10"/>
<path d="M319.769 856.511L319.769 644.944" stroke="#76AD1C" stroke-miterlimit="10"/>
<path d="M282.843 856.511L282.843 644.944" stroke="#76AD1C" stroke-miterlimit="10"/>
<path d="M245.949 856.511L245.949 644.944" stroke="#76AD1C" stroke-miterlimit="10"/>
<path d="M209.052 856.511L209.052 644.944" stroke="#76AD1C" stroke-miterlimit="10"/>
<path d="M172.154 856.511L172.154 644.944" stroke="#76AD1C" stroke-miterlimit="10"/>
<path d="M569.769 643.986H354.469L354.469 431.467H569.769L569.769 643.986Z" stroke="#76AD1C" stroke-miterlimit="10"/>
<path d="M354.469 468.99C372.405 468.99 372.405 451.976 390.342 451.976C408.279 451.976 408.279 468.99 426.216 468.99C444.152 468.99 444.152 451.976 462.118 451.976C480.085 451.976 480.055 468.99 497.992 468.99C515.929 468.99 515.929 451.976 533.895 451.976C551.861 451.976 551.832 468.99 569.798 468.99" stroke="#76AD1C" stroke-miterlimit="10"/>
<path d="M354.469 506.355C372.405 506.355 372.405 489.342 390.342 489.342C408.279 489.342 408.279 506.355 426.216 506.355C444.152 506.355 444.152 489.342 462.118 489.342C480.085 489.342 480.055 506.355 497.992 506.355C515.929 506.355 515.929 489.342 533.895 489.342C551.861 489.342 551.832 506.355 569.798 506.355" stroke="#76AD1C" stroke-miterlimit="10"/>
<path d="M354.469 543.728C372.405 543.728 372.405 526.715 390.342 526.715C408.279 526.715 408.279 543.728 426.216 543.728C444.152 543.728 444.152 526.715 462.118 526.715C480.085 526.715 480.055 543.728 497.992 543.728C515.929 543.728 515.929 526.715 533.895 526.715C551.861 526.715 551.832 543.728 569.798 543.728" stroke="#76AD1C" stroke-miterlimit="10"/>
<path d="M354.469 581.129C372.405 581.129 372.405 564.116 390.342 564.116C408.279 564.116 408.279 581.129 426.216 581.129C444.152 581.129 444.152 564.116 462.118 564.116C480.085 564.116 480.055 581.129 497.992 581.129C515.929 581.129 515.929 564.116 533.895 564.116C551.861 564.116 551.832 581.129 569.798 581.129" stroke="#76AD1C" stroke-miterlimit="10"/>
<path d="M354.469 618.499C372.405 618.499 372.405 601.486 390.342 601.486C408.279 601.486 408.279 618.499 426.216 618.499C444.152 618.499 444.152 601.486 462.118 601.486C480.085 601.486 480.055 618.499 497.992 618.499C515.929 618.499 515.929 601.486 533.895 601.486C551.861 601.486 551.832 618.499 569.798 618.499" stroke="#76AD1C" stroke-miterlimit="10"/>
<path d="M1215.67 431.47H1000.37L1000.37 218.951H1215.67L1215.67 431.47Z" stroke="#76AD1C" stroke-miterlimit="10"/>
<path d="M785.072 856.511H569.772L569.772 643.992H785.072L785.072 856.511Z" stroke="#76AD1C" stroke-miterlimit="10"/>
<path d="M785.072 750.372H569.772" stroke="#76AD1C" stroke-miterlimit="10"/>
<path d="M676.869 643.992L676.869 856.511" stroke="#76AD1C" stroke-miterlimit="10"/>
<path d="M763.838 729.863H750.517" stroke="#76AD1C" stroke-miterlimit="10"/>
<path d="M763.838 708.181H750.517" stroke="#76AD1C" stroke-miterlimit="10"/>
<path d="M763.838 686.519H750.517" stroke="#76AD1C" stroke-miterlimit="10"/>
<path d="M763.838 664.833H750.517" stroke="#76AD1C" stroke-miterlimit="10"/>
<path d="M737.285 729.863H723.963" stroke="#76AD1C" stroke-miterlimit="10"/>
<path d="M737.285 708.181H723.963" stroke="#76AD1C" stroke-miterlimit="10"/>
<path d="M737.285 686.519H723.963" stroke="#76AD1C" stroke-miterlimit="10"/>
<path d="M737.285 664.833H723.963" stroke="#76AD1C" stroke-miterlimit="10"/>
<path d="M710.727 729.863H697.406" stroke="#76AD1C" stroke-miterlimit="10"/>
<path d="M710.727 708.181H697.406" stroke="#76AD1C" stroke-miterlimit="10"/>
<path d="M710.727 686.519H697.406" stroke="#76AD1C" stroke-miterlimit="10"/>
<path d="M710.727 664.833H697.406" stroke="#76AD1C" stroke-miterlimit="10"/>
<path d="M659.369 729.863H646.048" stroke="#76AD1C" stroke-miterlimit="10"/>
<path d="M659.369 708.181H646.048" stroke="#76AD1C" stroke-miterlimit="10"/>
<path d="M659.369 686.519H646.048" stroke="#76AD1C" stroke-miterlimit="10"/>
<path d="M659.369 664.833H646.048" stroke="#76AD1C" stroke-miterlimit="10"/>
<path d="M632.814 729.863H619.493" stroke="#76AD1C" stroke-miterlimit="10"/>
<path d="M632.814 708.181H619.493" stroke="#76AD1C" stroke-miterlimit="10"/>
<path d="M632.818 686.519H619.497" stroke="#76AD1C" stroke-miterlimit="10"/>
<path d="M632.818 664.833H619.497" stroke="#76AD1C" stroke-miterlimit="10"/>
<path d="M606.269 729.863H592.948" stroke="#76AD1C" stroke-miterlimit="10"/>
<path d="M606.269 708.181H592.948" stroke="#76AD1C" stroke-miterlimit="10"/>
<path d="M606.269 686.519H592.948" stroke="#76AD1C" stroke-miterlimit="10"/>
<path d="M606.269 664.833H592.948" stroke="#76AD1C" stroke-miterlimit="10"/>
<path d="M569.423 750.372H354.123" stroke="#76AD1C" stroke-miterlimit="10"/>
<path d="M139 645.286L139.084 645.23" stroke="#76AD1C" stroke-miterlimit="10"/>
</g>
<defs>
<clipPath id="clip0_525_46103">
<rect width="1000" height="750" fill="white"/>
</clipPath>
<clipPath id="clip1_525_46103">
<rect width="603" height="99" fill="white" transform="translate(40 60)"/>
</clipPath>
</defs>
</svg>
