<svg width="760" height="570" viewBox="0 0 760 570" fill="none" xmlns="http://www.w3.org/2000/svg">
<rect width="760" height="570" fill="white"/>
<path d="M507.655 300.104L530.694 248.04H499.676L473.631 306.8C470.203 314.255 476.387 321.948 485.451 321.948H529.511L538 302.785H509.712C507.543 302.76 507.169 301.264 507.655 300.104Z" fill="#007A68"/>
<path d="M325.43 267.19C332.126 267.19 337.387 267.165 345.515 264.198C348.632 263.064 374.565 250.596 379.976 248.04H360.564C351.899 253.189 342.823 258.438 340.778 259.411C333.148 263.101 325.518 263.862 320.581 263.862H223.471L222 267.19H272.431L254.266 308.184C251.523 314.629 257.582 321.948 265.487 321.948H278.677L302.939 267.19H325.43ZM331.577 248.04H250.202C233.071 248.04 227.324 255.159 224.755 260.982H310.021C322.301 260.982 326.951 253.838 331.577 248.04ZM441.715 300.104L464.755 248.04H433.736L407.691 306.8C404.275 314.255 410.446 321.948 419.51 321.948H463.583L472.061 302.785H443.772C441.603 302.76 441.216 301.264 441.702 300.104M417.553 254.823C415.371 251.195 410.446 248.04 403.901 248.04H395.785C389.8 250.409 354.043 264.572 349.58 266.33C345.665 267.876 337.087 270.045 330.093 270.045H321.478L311.143 293.397C297.752 323.544 328.447 321.935 328.447 321.935H363.968C363.968 321.935 395.173 323.494 404.2 301.713L416.181 274.646C419.273 267.988 421.318 260.121 417.59 254.823M385.998 272.925C385.748 273.474 375.762 296.065 375.762 296.065C372.657 302.835 365.813 302.798 365.813 302.798H344.518C344.518 302.798 338.01 303.022 341.077 296.202C341.077 296.202 351.849 271.828 352.323 270.856C352.996 269.397 355.215 267.165 359.741 267.19H382.12C385.287 267.19 387.556 269.11 385.985 272.938" fill="#007A68"/>
</svg>
