<svg width="760" height="760" viewBox="0 0 760 760" fill="none" xmlns="http://www.w3.org/2000/svg">
<rect width="760" height="760" fill="white"/>
<path d="M507.655 395.104L530.694 343.04H499.676L473.631 401.8C470.203 409.255 476.387 416.948 485.451 416.948H529.511L538 397.785H509.712C507.543 397.76 507.169 396.264 507.655 395.104Z" fill="#007A68"/>
<path d="M325.43 362.19C332.126 362.19 337.387 362.165 345.515 359.198C348.632 358.064 374.565 345.596 379.976 343.04H360.564C351.899 348.189 342.823 353.438 340.778 354.411C333.148 358.101 325.518 358.862 320.581 358.862H223.471L222 362.19H272.431L254.266 403.184C251.523 409.629 257.582 416.948 265.487 416.948H278.677L302.939 362.19H325.43ZM331.577 343.04H250.202C233.071 343.04 227.324 350.159 224.755 355.982H310.021C322.301 355.982 326.951 348.838 331.577 343.04ZM441.715 395.104L464.755 343.04H433.736L407.691 401.8C404.275 409.255 410.446 416.948 419.51 416.948H463.583L472.061 397.785H443.772C441.603 397.76 441.216 396.264 441.702 395.104M417.553 349.823C415.371 346.195 410.446 343.04 403.901 343.04H395.785C389.8 345.409 354.043 359.572 349.58 361.33C345.665 362.876 337.087 365.045 330.093 365.045H321.478L311.143 388.397C297.752 418.544 328.447 416.935 328.447 416.935H363.968C363.968 416.935 395.173 418.494 404.2 396.713L416.181 369.646C419.273 362.988 421.318 355.121 417.59 349.823M385.998 367.925C385.748 368.474 375.762 391.065 375.762 391.065C372.657 397.835 365.813 397.798 365.813 397.798H344.518C344.518 397.798 338.01 398.022 341.077 391.202C341.077 391.202 351.849 366.828 352.323 365.856C352.996 364.397 355.215 362.165 359.741 362.19H382.12C385.287 362.19 387.556 364.11 385.985 367.938" fill="#007A68"/>
</svg>
