<svg width="760" height="570" viewBox="0 0 760 570" fill="none" xmlns="http://www.w3.org/2000/svg">
<rect width="760" height="570" fill="white"/>
<path d="M180.66 353.816H190.953C193.692 353.816 195.767 354.562 197.344 355.971C198.922 357.381 199.669 359.205 199.669 361.526C199.669 362.936 199.254 364.262 198.507 365.34C197.759 366.418 196.763 367.247 195.518 367.579C196.929 367.91 198.174 368.739 199.088 369.9C200.001 371.144 200.499 372.553 200.499 374.294C200.499 376.616 199.669 378.523 198.091 380.015C196.514 381.508 194.356 382.254 191.7 382.254H180.66V353.816ZM186.139 365.589H190.123C191.368 365.589 192.364 365.257 193.111 364.594C193.858 363.931 194.19 363.102 194.19 361.941C194.19 360.863 193.858 359.951 193.111 359.371C192.364 358.707 191.368 358.459 190.04 358.459H186.139V365.589V365.589ZM186.139 377.777H190.621C191.949 377.777 193.028 377.445 193.775 376.782C194.522 376.118 194.937 375.206 194.937 374.046C194.937 372.885 194.605 371.973 193.858 371.31C193.111 370.646 192.115 370.232 190.704 370.232H186.139V377.777Z" fill="#323E48"/>
<path d="M216.768 375.372L221.25 376.699C220.752 378.523 219.673 380.015 218.096 381.176C216.519 382.337 214.61 382.917 212.202 382.917C209.38 382.917 206.973 381.922 204.981 380.015C202.989 378.108 201.993 375.538 201.993 372.305C201.993 369.237 202.989 366.75 204.898 364.76C206.807 362.853 209.131 361.858 211.787 361.858C214.859 361.858 217.266 362.77 219.009 364.594C220.752 366.418 221.582 368.905 221.582 372.139C221.582 372.388 221.582 372.636 221.582 372.885C221.582 373.134 221.582 373.383 221.582 373.548V373.797H207.388C207.471 375.124 207.969 376.119 208.882 377.031C209.878 377.86 211.04 378.357 212.368 378.357C214.527 378.357 216.021 377.362 216.768 375.372ZM207.388 370.232H216.27C216.187 369.154 215.855 368.242 215.108 367.496C214.361 366.75 213.282 366.335 211.87 366.335C210.542 366.335 209.546 366.75 208.716 367.579C207.886 368.325 207.471 369.237 207.388 370.232Z" fill="#323E48"/>
<path d="M231.626 356.635V362.521H235.611V367.247H231.626V375.538C231.626 376.367 231.792 376.948 232.207 377.279C232.622 377.611 233.203 377.777 233.95 377.777C234.698 377.777 235.196 377.694 235.611 377.611V382.005C234.864 382.337 233.784 382.503 232.622 382.503C230.713 382.503 229.136 381.922 228.057 380.844C226.895 379.767 226.397 378.274 226.397 376.367V367.33H222.828V362.604H223.824C224.82 362.604 225.567 362.355 226.065 361.775C226.563 361.195 226.812 360.448 226.812 359.536V356.8H231.626V356.635Z" fill="#323E48"/>
<path d="M246.152 356.635V362.521H250.136V367.247H246.152V375.538C246.152 376.367 246.318 376.948 246.733 377.279C247.148 377.611 247.729 377.777 248.476 377.777C249.223 377.777 249.721 377.694 250.136 377.611V382.005C249.389 382.337 248.31 382.503 247.148 382.503C245.239 382.503 243.662 381.922 242.583 380.844C241.421 379.767 240.923 378.274 240.923 376.367V367.33H237.354V362.604H238.35C239.346 362.604 240.093 362.355 240.591 361.775C241.089 361.195 241.338 360.448 241.338 359.536V356.8H246.152V356.635Z" fill="#323E48"/>
<path d="M266.655 375.372L271.137 376.699C270.639 378.523 269.56 380.015 267.983 381.176C266.406 382.337 264.496 382.917 262.089 382.917C259.267 382.917 256.86 381.922 254.868 380.015C252.875 378.108 251.879 375.538 251.879 372.305C251.879 369.237 252.875 366.75 254.785 364.76C256.694 362.853 259.018 361.858 261.674 361.858C264.745 361.858 267.153 362.77 268.896 364.594C270.639 366.418 271.469 368.905 271.469 372.139C271.469 372.388 271.469 372.636 271.469 372.885C271.469 373.134 271.469 373.383 271.469 373.548V373.797H257.275C257.358 375.124 257.856 376.119 258.769 377.031C259.765 377.86 260.927 378.357 262.255 378.357C264.413 378.357 265.907 377.362 266.655 375.372ZM257.275 370.232H266.156C266.073 369.154 265.741 368.242 264.994 367.496C264.247 366.75 263.168 366.335 261.757 366.335C260.429 366.335 259.433 366.75 258.603 367.579C257.773 368.325 257.275 369.237 257.275 370.232Z" fill="#323E48"/>
<path d="M285.912 362.521V367.91C285.414 367.828 284.833 367.745 284.335 367.745C282.841 367.745 281.596 368.159 280.6 369.071C279.687 369.983 279.189 371.393 279.189 373.383V382.42H273.793V362.604H279.023V365.506C280.019 363.433 281.845 362.438 284.667 362.438C284.999 362.438 285.414 362.438 285.912 362.521Z" fill="#323E48"/>
<path d="M324.51 382.337H318.949V370.481H306.498V382.337H300.937V353.816H306.498V365.257H318.949V353.816H324.51V382.337Z" fill="#323E48"/>
<path d="M342.191 375.372L346.673 376.699C346.175 378.523 345.096 380.015 343.519 381.176C341.942 382.337 340.032 382.917 337.625 382.917C334.803 382.917 332.396 381.922 330.404 380.015C328.412 378.108 327.416 375.538 327.416 372.305C327.416 369.237 328.412 366.75 330.321 364.76C332.23 362.853 334.554 361.858 337.21 361.858C340.282 361.858 342.689 362.77 344.432 364.594C346.175 366.418 347.005 368.905 347.005 372.139C347.005 372.388 347.005 372.636 347.005 372.885C347.005 373.134 347.005 373.383 347.005 373.548V373.797H332.811C332.894 375.124 333.392 376.119 334.305 377.031C335.301 377.86 336.463 378.357 337.791 378.357C339.95 378.357 341.527 377.362 342.191 375.372ZM332.811 370.232H341.693C341.61 369.154 341.278 368.242 340.531 367.496C339.783 366.75 338.704 366.335 337.293 366.335C335.965 366.335 334.969 366.75 334.139 367.579C333.309 368.325 332.894 369.237 332.811 370.232Z" fill="#323E48"/>
<path d="M348.997 376.948C348.997 375.289 349.578 373.88 350.657 372.885C351.736 371.89 353.147 371.227 354.891 370.978L359.788 370.232C360.784 370.066 361.282 369.651 361.282 368.822C361.282 368.076 361.033 367.496 360.452 366.998C359.871 366.501 359.041 366.252 357.962 366.252C356.8 366.252 355.97 366.584 355.306 367.164C354.642 367.745 354.309 368.574 354.226 369.486L349.495 368.491C349.661 366.75 350.491 365.257 352.068 363.931C353.562 362.604 355.555 361.941 358.045 361.941C361.033 361.941 363.191 362.604 364.602 364.014C366.013 365.423 366.677 367.247 366.677 369.403V379.103C366.677 380.264 366.76 381.342 366.926 382.254H362.029C361.863 381.673 361.863 380.844 361.863 379.849C360.618 381.839 358.626 382.751 356.053 382.751C353.977 382.751 352.4 382.171 351.155 381.01C349.661 380.015 348.997 378.606 348.997 376.948ZM356.966 378.937C358.211 378.937 359.29 378.606 360.12 377.86C360.95 377.113 361.365 375.953 361.365 374.377V373.465L356.883 374.129C355.223 374.377 354.392 375.206 354.392 376.616C354.392 377.279 354.641 377.777 355.057 378.274C355.555 378.689 356.136 378.937 356.966 378.937Z" fill="#323E48"/>
<path d="M375.31 382.337H369.915V353.235H375.31V382.337Z" fill="#323E48"/>
<path d="M387.346 356.635V362.521H391.33V367.247H387.346V375.538C387.346 376.367 387.512 376.948 387.927 377.279C388.342 377.611 388.923 377.777 389.67 377.777C390.417 377.777 390.915 377.694 391.33 377.611V382.005C390.583 382.337 389.504 382.503 388.342 382.503C386.433 382.503 384.856 381.922 383.777 380.844C382.615 379.767 382.117 378.274 382.117 376.367V367.33H378.547V362.604H379.543C380.54 362.604 381.287 362.355 381.785 361.775C382.283 361.195 382.532 360.448 382.532 359.536V356.8H387.346V356.635Z" fill="#323E48"/>
<path d="M400.212 370.729V382.337H394.816V353.235H400.212V364.262C401.457 362.853 403.2 362.107 405.607 362.107C408.014 362.107 409.841 362.853 411.086 364.262C412.331 365.755 412.995 367.579 412.995 369.9V382.337H407.599V370.812C407.599 369.651 407.267 368.656 406.686 367.993C406.105 367.247 405.192 366.915 403.947 366.915C402.868 366.915 401.955 367.247 401.291 367.993C400.627 368.739 400.295 369.568 400.212 370.729Z" fill="#323E48"/>
<path d="M452.921 382.337H447.111L434.162 362.107V382.337H428.6V353.816H435.49L447.36 372.719V353.816H452.921V382.337Z" fill="#00B2E2"/>
<path d="M470.684 375.372L475.167 376.699C474.669 378.523 473.59 380.015 472.012 381.176C470.435 382.337 468.526 382.917 466.119 382.917C463.297 382.917 460.89 381.922 458.897 380.015C456.905 378.108 455.909 375.538 455.909 372.305C455.909 369.237 456.905 366.75 458.814 364.76C460.724 362.853 463.048 361.858 465.704 361.858C468.775 361.858 471.182 362.77 472.926 364.594C474.669 366.418 475.499 368.905 475.499 372.139C475.499 372.388 475.499 372.636 475.499 372.885C475.499 373.134 475.499 373.383 475.499 373.548V373.797H461.305C461.388 375.124 461.886 376.119 462.799 377.031C463.795 377.86 464.957 378.357 466.285 378.357C468.443 378.357 469.937 377.362 470.684 375.372ZM461.305 370.232H470.186C470.103 369.154 469.771 368.242 469.024 367.496C468.277 366.75 467.198 366.335 465.787 366.335C464.459 366.335 463.463 366.75 462.633 367.579C461.803 368.408 461.388 369.237 461.305 370.232Z" fill="#00B2E2"/>
<path d="M485.543 356.635V362.521H489.527V367.247H485.543V375.538C485.543 376.367 485.709 376.948 486.124 377.279C486.539 377.611 487.12 377.777 487.867 377.777C488.614 377.777 489.112 377.694 489.527 377.611V382.005C488.78 382.337 487.701 382.503 486.539 382.503C484.63 382.503 483.053 381.922 481.974 380.844C480.811 379.767 480.313 378.274 480.313 376.367V367.33H476.744V362.604H477.74C478.736 362.604 479.483 362.355 479.981 361.775C480.479 361.195 480.728 360.448 480.728 359.536V356.8H485.543V356.635Z" fill="#00B2E2"/>
<path d="M504.717 362.604H510.362L514.595 375.372L518.247 362.604H523.56L517.334 382.42H511.939L507.29 368.905L502.725 382.42H497.247L490.938 362.604H496.582L500.235 375.289L504.717 362.604Z" fill="#00B2E2"/>
<path d="M526.963 364.926C528.955 362.936 531.445 361.941 534.433 361.941C537.422 361.941 539.912 362.936 541.904 364.926C543.896 366.915 544.892 369.403 544.892 372.47C544.892 375.538 543.896 378.025 541.904 380.015C539.912 382.005 537.422 383 534.433 383C531.445 383 528.955 382.005 526.963 380.015C524.971 378.025 523.975 375.538 523.975 372.47C523.975 369.403 524.971 366.915 526.963 364.926ZM530.864 376.616C531.86 377.611 533.022 378.108 534.433 378.108C535.845 378.108 537.007 377.611 538.003 376.616C538.999 375.621 539.497 374.212 539.497 372.47C539.497 370.729 538.999 369.32 538.003 368.325C537.007 367.33 535.845 366.833 534.433 366.833C533.022 366.833 531.86 367.33 530.864 368.325C529.868 369.32 529.37 370.729 529.37 372.47C529.37 374.212 529.868 375.621 530.864 376.616Z" fill="#00B2E2"/>
<path d="M559.252 362.521V367.91C558.754 367.828 558.173 367.745 557.675 367.745C556.181 367.745 554.936 368.159 553.94 369.071C553.027 369.983 552.529 371.393 552.529 373.383V382.42H547.133V362.604H552.363V365.506C553.359 363.433 555.185 362.438 558.007 362.438C558.256 362.438 558.671 362.438 559.252 362.521Z" fill="#00B2E2"/>
<path d="M580.834 362.604L572.866 370.895L581 382.337H574.443L569.213 374.792L566.972 377.113V382.337H561.577V353.235H566.972V369.9L573.862 362.521H580.834V362.604Z" fill="#00B2E2"/>
<path d="M458.898 205.986V314.848C458.898 325.129 467.282 333.503 477.574 333.503C487.867 333.503 496.251 325.129 496.251 314.848V260.376L462.882 217.428C460.143 213.946 458.898 209.966 458.898 205.986Z" fill="#93D50A"/>
<path d="M492.017 194.379C494.59 197.53 496.084 201.592 496.084 205.986V260.376L547.216 326.206L547.299 326.289C544.809 323.139 543.315 319.159 543.315 314.765V260.376L492.183 194.545L492.017 194.379Z" fill="#E72076"/>
<path d="M547.466 326.455L547.798 326.87L548.13 327.201L548.379 327.533L548.794 327.948C555.351 334.497 565.893 335.327 573.364 329.523C581.498 323.222 582.992 311.531 576.684 303.406L543.315 260.458V314.848C543.398 319.242 544.893 323.305 547.466 326.455Z" fill="#041A71"/>
<path d="M561.992 187.415C551.699 187.415 543.315 195.788 543.315 206.069V260.541L576.684 303.489C579.257 306.805 580.502 310.702 580.585 314.516V206.069C580.668 195.706 572.285 187.415 561.992 187.415Z" fill="#00B2E2"/>
<path d="M339.866 187.497C329.574 187.497 321.273 195.871 321.273 206.152V315.014C321.273 325.294 329.657 333.668 339.866 333.668C350.159 333.668 358.543 325.294 358.543 315.014V279.113H349.08C338.787 279.113 330.404 270.739 330.404 260.459C330.404 250.178 338.787 241.804 349.08 241.804H358.543V206.069C358.46 195.871 350.159 187.497 339.866 187.497Z" fill="#93D50A"/>
<path d="M423.952 187.497C413.659 187.497 405.275 195.871 405.275 206.152V241.887H414.738C425.031 241.887 433.415 250.261 433.415 260.541C433.415 270.822 425.031 279.196 414.738 279.196H405.358V315.096C405.358 325.377 413.742 333.751 424.035 333.751C434.328 333.751 442.711 325.377 442.711 315.096V206.152C442.628 195.871 434.245 187.497 423.952 187.497Z" fill="#00B2E2"/>
<path d="M405.359 241.887H358.46V279.113H405.359V241.887Z" fill="#E72076"/>
<path d="M433.415 260.459C433.415 250.178 425.031 241.804 414.738 241.804H405.358V279.03H414.821C425.114 279.113 433.415 270.739 433.415 260.459Z" fill="#041A71"/>
<path d="M251.713 187H197.676C207.969 187 216.353 195.374 216.353 205.655V224.31H251.713C254.951 224.31 257.607 226.963 257.607 230.196C257.607 233.596 255.034 236.249 251.713 236.249C264.745 236.249 277.196 239.731 286.659 246.115C288.07 247.027 289.315 248.022 290.56 249.017C293.3 243.296 294.877 236.912 294.877 230.113C294.877 206.401 275.536 187 251.713 187Z" fill="#00B2E2"/>
<path d="M290.56 249.017C283.588 263.443 268.73 273.475 251.713 273.475C257.109 273.475 269.643 274.553 269.643 284.502C269.643 290.887 264.33 296.11 257.856 296.11H216.353V314.765C216.353 325.046 207.969 333.42 197.676 333.42H257.856C284.916 333.42 306.913 311.531 306.913 284.585C306.913 270.159 301.102 257.722 290.56 249.017Z" fill="#E72076"/>
<path d="M251.714 236.249C241.421 236.249 233.12 244.623 233.12 254.903C233.12 265.184 241.504 273.558 251.714 273.558C268.813 273.558 283.588 263.526 290.561 249.1C289.315 248.105 288.07 247.11 286.659 246.198C277.113 239.731 264.746 236.249 251.714 236.249Z" fill="#041A71"/>
<path d="M179 205.655V314.765C179 304.484 187.384 296.193 197.676 296.193H216.353V224.31H197.676C187.384 224.227 179 215.936 179 205.655Z" fill="#93D50A"/>
<path d="M197.676 224.227H216.353V205.655C216.353 195.374 207.969 187 197.676 187C187.384 187 179 195.374 179 205.655C179 215.936 187.384 224.227 197.676 224.227Z" fill="#005CB9"/>
<path d="M216.353 314.765V296.11H197.676C187.384 296.11 179 304.484 179 314.765C179 325.046 187.384 333.42 197.676 333.42C207.969 333.337 216.353 325.046 216.353 314.765Z" fill="#DB0632"/>
<path d="M348.997 241.887C338.704 241.887 330.321 250.261 330.321 260.542C330.321 270.822 338.704 279.196 348.997 279.196H358.46V241.97H348.997V241.887Z" fill="#DB0632"/>
<path d="M492.017 194.379L491.685 193.964L491.353 193.633L491.104 193.301L490.689 192.887C484.132 186.337 473.59 185.508 466.119 191.311C457.985 197.613 456.49 209.303 462.799 217.428L496.167 260.376V205.986C496.167 201.592 494.59 197.613 492.017 194.379Z" fill="#DB0632"/>
</svg>
