<svg width="760" height="760" viewBox="0 0 760 760" fill="none" xmlns="http://www.w3.org/2000/svg">
<rect width="760" height="760" fill="white"/>
<path d="M180.66 448.816H190.953C193.692 448.816 195.767 449.562 197.344 450.971C198.922 452.381 199.669 454.205 199.669 456.526C199.669 457.936 199.254 459.262 198.507 460.34C197.759 461.418 196.763 462.247 195.518 462.579C196.929 462.91 198.174 463.739 199.088 464.9C200.001 466.144 200.499 467.553 200.499 469.294C200.499 471.616 199.669 473.523 198.091 475.015C196.514 476.508 194.356 477.254 191.7 477.254H180.66V448.816ZM186.139 460.589H190.123C191.368 460.589 192.364 460.257 193.111 459.594C193.858 458.931 194.19 458.102 194.19 456.941C194.19 455.863 193.858 454.951 193.111 454.371C192.364 453.707 191.368 453.459 190.04 453.459H186.139V460.589V460.589ZM186.139 472.777H190.621C191.949 472.777 193.028 472.445 193.775 471.782C194.522 471.118 194.937 470.206 194.937 469.046C194.937 467.885 194.605 466.973 193.858 466.31C193.111 465.646 192.115 465.232 190.704 465.232H186.139V472.777Z" fill="#323E48"/>
<path d="M216.768 470.372L221.25 471.699C220.752 473.523 219.673 475.015 218.096 476.176C216.519 477.337 214.61 477.917 212.202 477.917C209.38 477.917 206.973 476.922 204.981 475.015C202.989 473.108 201.993 470.538 201.993 467.305C201.993 464.237 202.989 461.75 204.898 459.76C206.807 457.853 209.131 456.858 211.787 456.858C214.859 456.858 217.266 457.77 219.009 459.594C220.752 461.418 221.582 463.905 221.582 467.139C221.582 467.388 221.582 467.636 221.582 467.885C221.582 468.134 221.582 468.383 221.582 468.548V468.797H207.388C207.471 470.124 207.969 471.119 208.882 472.031C209.878 472.86 211.04 473.357 212.368 473.357C214.527 473.357 216.021 472.362 216.768 470.372ZM207.388 465.232H216.27C216.187 464.154 215.855 463.242 215.108 462.496C214.361 461.75 213.282 461.335 211.87 461.335C210.542 461.335 209.546 461.75 208.716 462.579C207.886 463.325 207.471 464.237 207.388 465.232Z" fill="#323E48"/>
<path d="M231.626 451.635V457.521H235.61V462.247H231.626V470.538C231.626 471.367 231.792 471.948 232.207 472.279C232.622 472.611 233.203 472.777 233.95 472.777C234.697 472.777 235.195 472.694 235.61 472.611V477.005C234.863 477.337 233.784 477.503 232.622 477.503C230.713 477.503 229.136 476.922 228.057 475.844C226.895 474.767 226.397 473.274 226.397 471.367V462.33H222.827V457.604H223.823C224.82 457.604 225.567 457.355 226.065 456.775C226.563 456.195 226.812 455.448 226.812 454.536V451.8H231.626V451.635Z" fill="#323E48"/>
<path d="M246.152 451.635V457.521H250.136V462.247H246.152V470.538C246.152 471.367 246.318 471.948 246.733 472.279C247.148 472.611 247.729 472.777 248.476 472.777C249.223 472.777 249.721 472.694 250.136 472.611V477.005C249.389 477.337 248.31 477.503 247.148 477.503C245.239 477.503 243.662 476.922 242.583 475.844C241.421 474.767 240.923 473.274 240.923 471.367V462.33H237.354V457.604H238.35C239.346 457.604 240.093 457.355 240.591 456.775C241.089 456.195 241.338 455.448 241.338 454.536V451.8H246.152V451.635Z" fill="#323E48"/>
<path d="M266.655 470.372L271.137 471.699C270.639 473.523 269.56 475.015 267.983 476.176C266.406 477.337 264.497 477.917 262.089 477.917C259.267 477.917 256.86 476.922 254.868 475.015C252.876 473.108 251.88 470.538 251.88 467.305C251.88 464.237 252.876 461.75 254.785 459.76C256.694 457.853 259.018 456.858 261.674 456.858C264.746 456.858 267.153 457.77 268.896 459.594C270.639 461.418 271.469 463.905 271.469 467.139C271.469 467.388 271.469 467.636 271.469 467.885C271.469 468.134 271.469 468.383 271.469 468.548V468.797H257.275C257.358 470.124 257.856 471.119 258.769 472.031C259.765 472.86 260.927 473.357 262.255 473.357C264.414 473.357 265.908 472.362 266.655 470.372ZM257.275 465.232H266.157C266.074 464.154 265.742 463.242 264.995 462.496C264.248 461.75 263.169 461.335 261.757 461.335C260.429 461.335 259.433 461.75 258.603 462.579C257.773 463.325 257.275 464.237 257.275 465.232Z" fill="#323E48"/>
<path d="M285.912 457.521V462.91C285.414 462.828 284.833 462.745 284.335 462.745C282.841 462.745 281.596 463.159 280.6 464.071C279.687 464.983 279.189 466.393 279.189 468.382V477.42H273.793V457.604H279.023V460.506C280.019 458.433 281.845 457.438 284.667 457.438C284.999 457.438 285.414 457.438 285.912 457.521Z" fill="#323E48"/>
<path d="M324.51 477.337H318.949V465.481H306.498V477.337H300.937V448.816H306.498V460.257H318.949V448.816H324.51V477.337Z" fill="#323E48"/>
<path d="M342.191 470.372L346.673 471.699C346.175 473.523 345.096 475.015 343.519 476.176C341.942 477.337 340.032 477.917 337.625 477.917C334.803 477.917 332.396 476.922 330.404 475.015C328.412 473.108 327.416 470.538 327.416 467.305C327.416 464.237 328.412 461.75 330.321 459.76C332.23 457.853 334.554 456.858 337.21 456.858C340.282 456.858 342.689 457.77 344.432 459.594C346.175 461.418 347.005 463.905 347.005 467.139C347.005 467.388 347.005 467.636 347.005 467.885C347.005 468.134 347.005 468.383 347.005 468.548V468.797H332.811C332.894 470.124 333.392 471.119 334.305 472.031C335.301 472.86 336.463 473.357 337.791 473.357C339.95 473.357 341.527 472.362 342.191 470.372ZM332.811 465.232H341.693C341.61 464.154 341.278 463.242 340.531 462.496C339.783 461.75 338.704 461.335 337.293 461.335C335.965 461.335 334.969 461.75 334.139 462.579C333.309 463.325 332.894 464.237 332.811 465.232Z" fill="#323E48"/>
<path d="M348.997 471.948C348.997 470.289 349.578 468.88 350.657 467.885C351.736 466.89 353.147 466.227 354.891 465.978L359.788 465.232C360.784 465.066 361.282 464.651 361.282 463.822C361.282 463.076 361.033 462.496 360.452 461.998C359.871 461.501 359.041 461.252 357.962 461.252C356.8 461.252 355.97 461.584 355.306 462.164C354.642 462.745 354.309 463.574 354.226 464.486L349.495 463.491C349.661 461.75 350.491 460.257 352.068 458.931C353.562 457.604 355.555 456.941 358.045 456.941C361.033 456.941 363.191 457.604 364.602 459.014C366.013 460.423 366.677 462.247 366.677 464.403V474.103C366.677 475.264 366.76 476.342 366.926 477.254H362.029C361.863 476.673 361.863 475.844 361.863 474.849C360.618 476.839 358.626 477.751 356.053 477.751C353.977 477.751 352.4 477.171 351.155 476.01C349.661 475.015 348.997 473.606 348.997 471.948ZM356.966 473.937C358.211 473.937 359.29 473.606 360.12 472.86C360.95 472.113 361.365 470.953 361.365 469.377V468.465L356.883 469.129C355.223 469.377 354.392 470.206 354.392 471.616C354.392 472.279 354.641 472.777 355.057 473.274C355.555 473.689 356.136 473.937 356.966 473.937Z" fill="#323E48"/>
<path d="M375.31 477.337H369.915V448.235H375.31V477.337Z" fill="#323E48"/>
<path d="M387.346 451.635V457.521H391.33V462.247H387.346V470.538C387.346 471.367 387.512 471.948 387.927 472.279C388.342 472.611 388.923 472.777 389.67 472.777C390.417 472.777 390.915 472.694 391.33 472.611V477.005C390.583 477.337 389.504 477.503 388.342 477.503C386.433 477.503 384.856 476.922 383.777 475.844C382.615 474.767 382.117 473.274 382.117 471.367V462.33H378.547V457.604H379.543C380.54 457.604 381.287 457.355 381.785 456.775C382.283 456.195 382.532 455.448 382.532 454.536V451.8H387.346V451.635Z" fill="#323E48"/>
<path d="M400.212 465.729V477.337H394.816V448.235H400.212V459.262C401.457 457.853 403.2 457.107 405.607 457.107C408.014 457.107 409.841 457.853 411.086 459.262C412.331 460.755 412.995 462.579 412.995 464.9V477.337H407.599V465.812C407.599 464.651 407.267 463.656 406.686 462.993C406.105 462.247 405.192 461.915 403.947 461.915C402.868 461.915 401.955 462.247 401.291 462.993C400.627 463.739 400.295 464.568 400.212 465.729Z" fill="#323E48"/>
<path d="M452.921 477.337H447.111L434.162 457.107V477.337H428.6V448.816H435.49L447.36 467.719V448.816H452.921V477.337Z" fill="#00B2E2"/>
<path d="M470.684 470.372L475.167 471.699C474.669 473.523 473.59 475.015 472.012 476.176C470.435 477.337 468.526 477.917 466.119 477.917C463.297 477.917 460.89 476.922 458.897 475.015C456.905 473.108 455.909 470.538 455.909 467.305C455.909 464.237 456.905 461.75 458.814 459.76C460.724 457.853 463.048 456.858 465.704 456.858C468.775 456.858 471.182 457.77 472.926 459.594C474.669 461.418 475.499 463.905 475.499 467.139C475.499 467.388 475.499 467.636 475.499 467.885C475.499 468.134 475.499 468.383 475.499 468.548V468.797H461.305C461.388 470.124 461.886 471.119 462.799 472.031C463.795 472.86 464.957 473.357 466.285 473.357C468.443 473.357 469.937 472.362 470.684 470.372ZM461.305 465.232H470.186C470.103 464.154 469.771 463.242 469.024 462.496C468.277 461.75 467.198 461.335 465.787 461.335C464.459 461.335 463.463 461.75 462.633 462.579C461.803 463.408 461.388 464.237 461.305 465.232Z" fill="#00B2E2"/>
<path d="M485.543 451.635V457.521H489.527V462.247H485.543V470.538C485.543 471.367 485.709 471.948 486.124 472.279C486.539 472.611 487.12 472.777 487.867 472.777C488.614 472.777 489.112 472.694 489.527 472.611V477.005C488.78 477.337 487.701 477.503 486.539 477.503C484.63 477.503 483.053 476.922 481.974 475.844C480.811 474.767 480.313 473.274 480.313 471.367V462.33H476.744V457.604H477.74C478.736 457.604 479.483 457.355 479.981 456.775C480.479 456.195 480.728 455.448 480.728 454.536V451.8H485.543V451.635Z" fill="#00B2E2"/>
<path d="M504.717 457.604H510.362L514.595 470.372L518.247 457.604H523.56L517.334 477.42H511.939L507.291 463.905L502.725 477.42H497.247L490.938 457.604H496.583L500.235 470.289L504.717 457.604Z" fill="#00B2E2"/>
<path d="M526.963 459.926C528.955 457.936 531.445 456.941 534.434 456.941C537.422 456.941 539.912 457.936 541.904 459.926C543.896 461.915 544.892 464.403 544.892 467.47C544.892 470.538 543.896 473.025 541.904 475.015C539.912 477.005 537.422 478 534.434 478C531.445 478 528.955 477.005 526.963 475.015C524.971 473.025 523.975 470.538 523.975 467.47C523.975 464.403 524.971 461.915 526.963 459.926ZM530.864 471.616C531.86 472.611 533.023 473.108 534.434 473.108C535.845 473.108 537.007 472.611 538.003 471.616C538.999 470.621 539.497 469.212 539.497 467.47C539.497 465.729 538.999 464.32 538.003 463.325C537.007 462.33 535.845 461.833 534.434 461.833C533.023 461.833 531.86 462.33 530.864 463.325C529.868 464.32 529.37 465.729 529.37 467.47C529.37 469.212 529.868 470.621 530.864 471.616Z" fill="#00B2E2"/>
<path d="M559.252 457.521V462.91C558.754 462.828 558.173 462.745 557.675 462.745C556.181 462.745 554.936 463.159 553.94 464.071C553.027 464.983 552.529 466.393 552.529 468.382V477.42H547.133V457.604H552.363V460.506C553.359 458.433 555.185 457.438 558.007 457.438C558.256 457.438 558.671 457.438 559.252 457.521Z" fill="#00B2E2"/>
<path d="M580.834 457.604L572.865 465.895L581 477.337H574.442L569.213 469.792L566.972 472.113V477.337H561.576V448.235H566.972V464.9L573.861 457.521H580.834V457.604Z" fill="#00B2E2"/>
<path d="M458.898 300.986V409.848C458.898 420.129 467.281 428.503 477.574 428.503C487.867 428.503 496.251 420.129 496.251 409.848V355.376L462.882 312.428C460.143 308.946 458.898 304.966 458.898 300.986Z" fill="#93D50A"/>
<path d="M492.017 289.379C494.59 292.53 496.084 296.592 496.084 300.986V355.376L547.216 421.206L547.299 421.289C544.809 418.139 543.315 414.159 543.315 409.765V355.376L492.183 289.545L492.017 289.379Z" fill="#E72076"/>
<path d="M547.466 421.455L547.798 421.87L548.13 422.201L548.379 422.533L548.794 422.948C555.351 429.497 565.893 430.327 573.364 424.523C581.498 418.222 582.992 406.531 576.684 398.406L543.315 355.459V409.848C543.398 414.242 544.893 418.305 547.466 421.455Z" fill="#041A71"/>
<path d="M561.992 282.415C551.699 282.415 543.315 290.788 543.315 301.069V355.541L576.684 398.489C579.257 401.805 580.502 405.702 580.585 409.516V301.069C580.668 290.706 572.285 282.415 561.992 282.415Z" fill="#00B2E2"/>
<path d="M339.866 282.497C329.574 282.497 321.273 290.871 321.273 301.152V410.014C321.273 420.294 329.657 428.668 339.866 428.668C350.159 428.668 358.543 420.294 358.543 410.014V374.113H349.08C338.787 374.113 330.404 365.739 330.404 355.459C330.404 345.178 338.787 336.804 349.08 336.804H358.543V301.069C358.46 290.871 350.159 282.497 339.866 282.497Z" fill="#93D50A"/>
<path d="M423.952 282.497C413.659 282.497 405.275 290.871 405.275 301.152V336.887H414.738C425.031 336.887 433.415 345.261 433.415 355.542C433.415 365.822 425.031 374.196 414.738 374.196H405.358V410.097C405.358 420.377 413.742 428.751 424.035 428.751C434.328 428.751 442.711 420.377 442.711 410.097V301.152C442.628 290.871 434.245 282.497 423.952 282.497Z" fill="#00B2E2"/>
<path d="M405.358 336.887H358.46V374.113H405.358V336.887Z" fill="#E72076"/>
<path d="M433.415 355.459C433.415 345.178 425.031 336.804 414.738 336.804H405.358V374.03H414.821C425.114 374.113 433.415 365.739 433.415 355.459Z" fill="#041A71"/>
<path d="M251.714 282H197.677C207.969 282 216.353 290.374 216.353 300.655V319.31H251.714C254.951 319.31 257.607 321.963 257.607 325.196C257.607 328.596 255.034 331.249 251.714 331.249C264.746 331.249 277.197 334.731 286.659 341.115C288.07 342.027 289.316 343.022 290.561 344.017C293.3 338.296 294.877 331.912 294.877 325.113C294.877 301.401 275.537 282 251.714 282Z" fill="#00B2E2"/>
<path d="M290.561 344.017C283.588 358.443 268.73 368.475 251.714 368.475C257.109 368.475 269.643 369.553 269.643 379.503C269.643 385.887 264.331 391.11 257.856 391.11H216.353V409.765C216.353 420.046 207.969 428.42 197.677 428.42H257.856C284.916 428.42 306.913 406.531 306.913 379.585C306.913 365.159 301.102 352.722 290.561 344.017Z" fill="#E72076"/>
<path d="M251.714 331.249C241.421 331.249 233.12 339.623 233.12 349.904C233.12 360.184 241.504 368.558 251.714 368.558C268.813 368.558 283.588 358.526 290.561 344.1C289.315 343.105 288.07 342.11 286.659 341.198C277.113 334.731 264.746 331.249 251.714 331.249Z" fill="#041A71"/>
<path d="M179 300.655V409.765C179 399.484 187.384 391.193 197.676 391.193H216.353V319.31H197.676C187.384 319.227 179 310.936 179 300.655Z" fill="#93D50A"/>
<path d="M197.676 319.227H216.353V300.655C216.353 290.374 207.969 282 197.676 282C187.384 282 179 290.374 179 300.655C179 310.936 187.384 319.227 197.676 319.227Z" fill="#005CB9"/>
<path d="M216.353 409.765V391.11H197.676C187.384 391.11 179 399.484 179 409.765C179 420.046 187.384 428.42 197.676 428.42C207.969 428.337 216.353 420.046 216.353 409.765Z" fill="#DB0632"/>
<path d="M348.997 336.887C338.704 336.887 330.321 345.261 330.321 355.541C330.321 365.822 338.704 374.196 348.997 374.196H358.46V336.97H348.997V336.887Z" fill="#DB0632"/>
<path d="M492.017 289.379L491.685 288.964L491.353 288.633L491.104 288.301L490.689 287.887C484.132 281.337 473.59 280.508 466.119 286.311C457.985 292.613 456.49 304.303 462.799 312.428L496.167 355.376V300.986C496.167 296.592 494.59 292.613 492.017 289.379Z" fill="#DB0632"/>
</svg>
