<svg width="760" height="760" viewBox="0 0 760 760" fill="none" xmlns="http://www.w3.org/2000/svg">
<path d="M283.001 381.563C284.66 380.733 286.631 380.215 286.838 378.348C287.149 374.822 282.068 372.852 277.816 373.267C274.29 373.681 271.179 375.755 268.586 377.415C263.712 380.63 259.253 384.985 255.831 390.17C254.275 392.555 251.89 396.185 252.409 399.504C252.927 402.926 258.423 405.622 261.949 405.83C264.853 405.933 268.379 404.17 270.349 403.03C275.638 400.333 279.579 397.43 284.142 394.111C286.112 392.763 288.601 389.652 291.505 391.311C291.09 394.318 288.29 396.185 286.112 398.052C281.653 402.096 277.608 405.726 272.423 409.563C270.246 411.222 266.616 412.985 266.305 415.992C265.89 419.726 270.142 422.733 273.875 422.629C275.638 422.526 278.231 420.97 279.89 419.829C281.86 418.481 283.52 417.133 284.971 415.992C291.194 410.704 297.105 404.689 302.601 398.363C304.883 395.77 309.549 391.104 308.927 386.955C308.305 383.118 300.838 381.355 296.068 381.77C286.32 382.496 280.097 388.511 271.179 390.689C274.394 387.059 278.334 383.948 283.001 381.563ZM384.008 383.637C383.49 388.615 380.068 392.763 377.06 396.392C375.712 398.052 373.845 399.815 371.979 401.267C370.423 402.511 367.831 405.104 365.653 402.926C366.068 397.948 369.801 392.867 373.327 389.133C375.193 387.163 379.031 383.637 381.934 383.326C382.66 383.326 383.386 383.326 384.008 383.637ZM372.393 378.763C368.764 380.215 365.445 382.081 362.749 384.259C358.082 388.096 352.068 395.355 352.171 404.067C352.275 411.326 357.875 416.822 365.031 416.822C369.697 416.822 373.949 414.541 377.164 412.363C380.793 409.874 383.593 407.385 386.186 404.689C388.675 402.2 391.682 399.089 393.86 395.77C396.453 391.933 400.082 384.778 397.386 379.178C396.038 376.481 391.268 372.23 388.053 371.607C386.808 371.4 385.045 371.4 384.423 372.644C383.905 373.578 384.734 374.2 384.423 375.548C379.756 377.104 375.816 377.415 372.393 378.763ZM259.668 366.215C261.742 366.007 264.127 364.348 265.994 363.104C267.86 361.859 270.453 360.615 271.075 358.852C272.838 353.459 267.134 350.763 262.157 351.385C256.868 352.007 253.549 358.022 252.927 363.518C254.483 365.074 256.557 366.526 259.668 366.215ZM335.268 358.852C335.994 357.607 337.238 356.259 337.134 354.6C336.927 351.8 332.468 349.207 329.045 348.896C322.305 348.274 320.023 356.674 318.157 361.756C314.112 373.163 311.105 387.37 308.927 400.022C308.512 402.822 307.579 405.83 307.89 408.422C308.408 412.881 314.112 418.792 319.09 418.067C321.682 417.652 323.238 413.918 324.586 411.741C328.527 405.622 331.327 400.126 335.475 395.044C336.201 394.215 337.031 392.867 338.379 392.763C337.342 397.533 334.749 402.926 335.475 408.422C336.201 414.333 340.868 418.792 345.016 421.489C346.779 422.629 349.06 424.185 351.342 423.355C351.964 420.244 349.579 418.689 349.164 416.407C347.712 408.422 349.89 397.43 351.134 390.17C351.549 387.474 352.482 384.778 352.379 382.704C352.068 376.689 343.46 374.2 337.134 376.378C331.119 378.555 327.075 386.022 323.342 389.444C325.416 377.622 329.875 367.563 335.268 358.852ZM476.304 408.733C477.134 410.185 478.586 411.429 479.83 412.259C482.112 413.711 487.09 416.2 490.719 415.163C493.001 414.541 494.764 411.015 496.215 408.733C497.875 406.141 499.741 403.548 501.401 401.785C505.134 397.844 509.075 393.281 516.645 392.867C524.112 392.555 528.778 396.807 533.238 399.815C551.178 411.844 571.193 420.97 598.778 423.148C626.26 425.326 653.534 419.415 673.548 411.015C681.326 407.696 687.445 405.104 690.245 396.185C691.697 391.622 691.385 383.222 687.445 381.874C683.711 380.63 680.289 384.57 677.904 386.644C670.023 393.489 661.415 399.4 651.356 403.963C638.497 409.77 621.075 414.022 602.823 413.504C584.156 412.881 566.838 410.496 553.875 403.963C547.652 400.852 541.741 396.6 536.038 392.452C530.127 388.2 524.319 384.155 514.986 384.155C504.512 384.155 496.734 389.133 491.445 394.007C491.549 394.007 491.653 394.007 491.653 393.8C494.453 384.155 488.645 377.933 478.482 378.763C466.867 379.696 459.816 388.511 453.179 394.526C452.245 395.355 450.897 396.807 449.756 396.496C449.653 393.593 450.897 390.896 451.727 388.096C452.556 385.296 454.008 382.496 453.904 379.8C453.697 377 451.623 375.133 449.756 373.993C445.712 371.504 441.045 370.778 436.69 372.955C431.297 375.548 426.838 380.941 422.897 386.022C418.749 391.518 415.223 397.43 412.112 401.992C412.008 390.792 413.564 381.77 416.053 372.23C417.712 366.007 420.201 359.059 423.416 353.978C424.453 352.319 426.319 350.141 426.216 348.17C425.905 342.156 416.571 341.948 412.216 344.956C408.69 347.444 406.616 353.874 405.164 358.956C401.43 372.333 399.46 389.341 400.808 404.689C401.119 408.111 401.223 411.637 402.467 413.607C403.712 415.474 406.097 416.2 408.897 416.926C411.179 417.548 413.253 418.792 415.638 418.481C418.334 418.17 420.512 415.267 421.964 413.296C427.149 406.141 430.882 398.881 436.067 392.867C435.756 396.911 434.512 400.022 433.475 403.755C432.645 406.659 430.675 411.948 431.919 414.852C432.956 417.133 437.104 417.444 439.593 418.378C441.149 418.896 442.393 420.244 444.364 420.037C447.682 419.726 450.586 415.059 452.453 412.674C458.26 405.518 465.001 398.674 472.571 393.696C474.023 392.763 475.993 391.311 477.964 391.83C478.482 396.911 472.986 402.926 476.304 408.733ZM202.942 335H208.127C210.409 335.726 213.312 336.867 214.246 339.252C216.009 343.919 211.653 345.681 209.164 347.859C197.964 357.711 193.194 375.548 187.386 390.274C194.023 386.23 203.668 376.274 214.972 376.585C216.009 376.585 217.46 376.689 218.497 377.207C224.823 379.904 220.779 390.792 221.401 397.118C224.097 396.289 225.757 393.8 227.52 391.726C231.149 387.578 234.572 383.533 238.097 379.281C239.86 377.207 241.623 374.718 243.801 373.474C248.468 370.778 257.905 371.711 257.179 378.555C256.971 380.318 255.416 381.355 254.586 382.704C250.542 389.444 247.638 399.711 247.638 409.667C247.638 413.089 248.26 416.926 246.394 419.829C243.49 419.518 241.105 417.341 239.031 415.267C237.164 413.296 234.986 410.496 234.779 407.592C234.364 403.341 236.335 399.296 237.579 395.77C232.394 401.578 226.275 412.467 217.149 414.644C207.92 416.926 207.609 406.659 209.06 399.607C209.89 395.252 211.964 391 211.549 386.748C209.164 385.918 207.298 387.681 205.742 388.926C197.238 395.459 192.261 404.17 186.142 412.985C184.483 415.474 180.957 421.489 177.846 422.215C173.075 423.355 167.268 419.622 166.024 415.785C165.609 414.541 165.609 412.985 165.712 411.844C166.127 408.629 168.201 404.792 169.446 401.578C173.283 391.518 177.535 381.044 181.268 371.296C164.364 383.741 147.564 398.778 128.794 410.392C119.979 415.889 109.401 422.318 97.0607 424.496C81.7126 427.089 71.3422 419.415 68.957 407.489V401.163C69.9941 395.148 72.4829 389.652 75.3866 385.089C78.394 380.422 81.7126 376.17 85.3422 372.541C101.105 356.778 118.112 346.2 142.587 339.667C149.535 337.8 162.601 334.274 171.624 337.385C174.32 338.319 177.431 340.393 177.431 342.881C177.431 345.267 174.009 347.859 172.038 349.207C169.446 350.97 166.853 352.215 164.053 353.044C160.942 353.978 157.727 353.978 154.72 354.289C145.387 355.326 137.401 357.918 129.52 360.926C113.964 366.837 99.9644 373.993 90.2163 385.815C87.0014 389.755 83.7866 394.526 82.4385 399.296C80.4681 406.037 82.957 411.43 87.2088 414.022C91.9792 416.926 98.9273 416.096 104.838 414.437C110.127 412.985 114.898 410.496 119.461 407.696C132.32 399.815 145.283 389.444 156.275 380.422C167.683 370.985 179.194 360.718 188.631 348.793C192.572 343.504 195.786 336.97 202.942 335Z" fill="#004A9A"/>
</svg>
