<svg width="760" height="760" viewBox="0 0 760 760" fill="none" xmlns="http://www.w3.org/2000/svg">
<path d="M84.0986 344.084H89.7208V428.431C94.5538 420.252 102.05 415.719 111.716 415.719C124.637 415.719 134.895 423.208 134.895 439.565V476.516H129.273V440.452C129.273 426.657 122.763 420.646 111.519 420.646C98.5978 420.646 89.6221 429.022 89.6221 442.62V476.418H84V344.084H84.0986ZM146.041 446.955C146.041 464.495 159.652 478.093 176.716 478.093C193.681 478.093 207.292 464.495 207.292 446.955C207.292 429.416 193.681 415.818 176.716 415.818C159.652 415.719 146.041 429.416 146.041 446.955ZM201.571 446.955C201.571 461.933 191.116 473.265 176.716 473.265C162.315 473.265 151.86 461.834 151.86 446.955C151.86 432.076 162.315 420.646 176.716 420.646C191.018 420.646 201.571 431.978 201.571 446.955ZM220.016 476.615H225.638V293.042H220.016V476.615ZM243.392 476.615H249.014V440.649C249.014 427.938 256.116 420.843 267.459 420.843C277.125 420.843 282.944 426.854 282.944 438.383V476.615H288.566V440.058C288.566 427.938 295.668 420.843 307.208 420.843C316.381 420.843 322.496 426.657 322.496 438.186V476.615H328.119V437.2C328.119 423.208 318.551 415.719 307.208 415.719C297.641 415.719 290.934 419.858 286.692 427.642C282.944 419.661 275.448 415.719 267.459 415.719C258.878 415.719 251.973 419.956 249.014 426.361V417.197H243.392V476.615ZM370.531 473.265C356.525 473.265 345.675 463.707 345.182 448.039H398.642C398.247 429.022 386.904 415.818 369.348 415.818C352.876 415.818 339.462 429.416 339.462 446.955C339.462 464.495 352.383 478.093 370.63 478.093C382.071 478.093 390.258 473.954 395.683 467.057L391.935 463.707C387.2 469.52 381.184 473.265 370.531 473.265ZM345.38 443.211C346.859 430.204 356.229 420.646 369.249 420.646C384.044 420.646 391.244 430.5 392.822 443.211H345.38ZM404.56 463.312C408.505 472.082 416.1 478.093 429.021 478.093C440.956 478.093 449.537 472.082 449.537 461.44C449.537 449.911 439.969 446.167 428.035 442.226C419.651 439.467 414.029 437.594 414.029 430.303C414.029 424.292 418.862 420.548 426.161 420.548C433.262 420.548 437.405 423.701 440.167 428.628L444.802 426.164C441.449 419.858 435.629 415.719 426.161 415.719C415.705 415.719 408.604 421.632 408.604 430.303C408.604 440.353 415.508 443.704 426.752 447.448C437.602 450.995 443.915 453.951 443.915 461.637C443.915 468.929 437.701 473.166 429.021 473.166C419.453 473.166 412.549 468.732 409.393 461.243L404.56 463.312ZM459.992 500.263C464.332 510.708 474.787 518 489.089 518C506.449 518 517.495 506.274 517.495 488.341V417.296H511.873V430.204C506.843 420.843 498.262 415.818 487.609 415.818C470.053 415.818 457.132 429.416 457.132 446.955C457.132 464.495 470.053 478.093 487.609 478.093C498.262 478.093 506.843 473.067 511.873 463.707V487.946C511.873 503.22 503.292 512.778 489.089 512.778C478.042 512.778 468.77 507.555 465.022 498.391L459.992 500.263ZM512.268 446.955C512.268 462.031 502.207 473.067 487.609 473.067C473.012 473.067 462.951 462.031 462.951 446.955C462.951 431.879 473.012 420.843 487.609 420.843C502.207 420.843 512.268 431.781 512.268 446.955ZM535.25 476.615H540.872V242H535.25V476.615ZM584.764 473.265C570.758 473.265 559.908 463.707 559.415 448.039H612.776C612.381 429.022 601.038 415.818 583.481 415.818C567.01 415.818 553.595 429.416 553.595 446.955C553.595 464.495 566.516 478.093 584.764 478.093C596.107 478.093 604.392 473.954 609.817 467.057L606.069 463.707C601.334 469.52 595.416 473.265 584.764 473.265ZM559.513 443.211C560.993 430.204 570.363 420.646 583.383 420.646C598.178 420.646 605.378 430.5 606.956 443.211H559.513ZM625.105 476.615H630.727V442.817C630.727 429.219 639.9 420.843 652.624 420.843C663.868 420.843 670.378 426.854 670.378 440.649V476.615H676V439.664C676 423.208 665.742 415.818 652.821 415.818C643.155 415.818 634.672 420.646 630.826 428.529V417.296H625.204V476.615H625.105Z" fill="#4393BC"/>
</svg>
