<svg width="760" height="760" viewBox="0 0 760 760" fill="none" xmlns="http://www.w3.org/2000/svg">
<path d="M103.645 457.573C98.5071 454.772 96.5269 450.911 93.1151 436.997C90.5329 426.42 90.1583 422.225 90.7871 410.187C91.1885 402.332 92.2321 393.927 93.1151 391.514C94.7341 387.05 100.193 383.176 104.862 383.176C107.913 383.176 115.419 386.782 116.703 388.86C117.212 389.677 117.519 397.64 117.399 406.541C117.252 417.359 117.881 425.603 119.285 431.434C123.339 448.257 123.286 450.991 118.75 455.536C114.255 460.026 109.371 460.697 103.645 457.573Z" fill="#E63FB3"/>
<path d="M150.657 457.801C148.101 456.943 145.212 454.731 144.248 452.882C142.148 448.86 143.057 440.924 146.309 434.986C148.182 431.541 148.583 427.439 148.476 412.667C148.396 402.72 147.673 392.157 146.857 389.208C146.041 386.259 144.984 379.892 144.489 375.053C143.686 367.037 143.887 365.937 146.817 362.519C149.199 359.771 151.634 358.605 156.143 358.096C161.441 357.492 162.698 357.868 165.789 360.964C167.743 362.921 169.361 364.959 169.388 365.482C169.415 365.991 170.405 373.055 171.596 381.165C174.339 399.879 175.329 427.935 173.469 434.115C172.706 436.688 171.422 441.394 170.646 444.557C169 451.193 163.488 457.68 158.645 458.672C156.798 459.061 153.212 458.659 150.657 457.801ZM212.698 324.999C208.189 320.481 207.868 319.637 208.483 314.047C209.286 307.01 212.042 303.43 218.33 301.366C223.669 299.597 226.84 300.414 232.245 304.972C235.67 307.867 236.245 309.275 236.245 314.851C236.245 323.779 232.406 328.23 223.856 329.195C218.009 329.852 217.26 329.57 212.698 324.999ZM95.6272 372.077C91.7873 369.49 91.0113 368.109 90.65 363.136C90.0346 354.49 91.1852 351.608 96.4969 348.457C102.598 344.852 106.317 344.905 111.856 348.659C119.777 354.021 120.352 365.508 113.007 371.702C107.883 376.018 101.688 376.152 95.6272 372.077Z" fill="#CFDBF3"/>
<path d="M210.157 454.597C205.622 453.498 201.461 448.672 201.461 444.517C201.461 442.386 200.899 439.584 200.203 438.284C198.196 434.53 193.446 403.444 193.433 394.061C193.433 375.911 200.083 346.916 205.194 342.894C209.435 339.543 214.907 339.557 219.175 342.935C223.443 346.299 224.447 351.514 222.145 358.364C215.697 377.533 216.031 412.144 222.921 438.297C225.129 446.635 224.54 449.289 219.764 452.546C215.242 455.63 214.787 455.723 210.157 454.597ZM146.953 347.425C142.819 346.567 139.915 341.943 139.915 336.219C139.915 330.91 141.44 328.484 146.886 325.106C151.876 322.023 153.308 322.251 158.258 326.889C164.239 332.519 165.43 339.449 161.162 343.726C157.87 347.023 152.157 348.511 146.953 347.425Z" fill="#FC774A"/>
<path d="M298.376 310.776C298.376 309.31 298.899 308.074 299.944 307.069C301.01 306.064 302.317 305.561 303.864 305.561C305.39 305.561 306.676 306.074 307.721 307.1C308.787 308.106 309.32 309.331 309.32 310.776C309.32 312.284 308.798 313.531 307.752 314.515C306.728 315.499 305.432 315.992 303.864 315.992C302.296 315.992 300.99 315.499 299.944 314.515C298.899 313.531 298.376 312.284 298.376 310.776ZM308.223 320.641V355.264H299.474V320.641H308.223Z" fill="black"/>
<path d="M351.089 335.691V355.264H342.278V336.319C342.278 333.366 341.619 331.145 340.302 329.658C338.985 328.15 337.051 327.396 334.501 327.396C331.951 327.396 329.85 328.307 328.198 330.13C326.546 331.931 325.721 334.277 325.721 337.167V355.264H316.972V320.641H325.721V325.574C326.724 323.773 328.177 322.349 330.079 321.301C332.003 320.254 334.166 319.73 336.571 319.73C341.086 319.73 344.63 321.134 347.201 323.94C349.793 326.747 351.089 330.664 351.089 335.691Z" fill="black"/>
<path d="M357.769 337.953C357.706 334.601 358.479 331.522 360.089 328.716C361.72 325.888 363.957 323.679 366.8 322.087C369.643 320.474 372.758 319.688 376.145 319.73C379.427 319.73 382.416 320.443 385.113 321.867C387.831 323.27 389.974 325.218 391.541 327.71L384.423 331.763C383.503 330.423 382.322 329.376 380.88 328.622C379.458 327.847 377.88 327.459 376.145 327.459C373.239 327.459 370.845 328.465 368.964 330.475C367.103 332.465 366.173 334.957 366.173 337.953C366.173 340.948 367.093 343.43 368.932 345.399C370.772 347.367 373.176 348.352 376.145 348.352C377.942 348.352 379.552 347.985 380.974 347.252C382.416 346.498 383.566 345.43 384.423 344.048L391.541 348.163C389.953 350.635 387.81 352.583 385.113 354.007C382.416 355.431 379.427 356.143 376.145 356.143C372.758 356.185 369.643 355.4 366.8 353.787C363.957 352.195 361.72 349.996 360.089 347.189C358.479 344.383 357.706 341.304 357.769 337.953Z" fill="black"/>
<path d="M406.562 306.912V355.264H397.813V306.912H406.562Z" fill="black"/>
<path d="M440.366 320.641H449.178V355.264H440.366V350.3C439.425 352.101 437.993 353.525 436.07 354.573C434.168 355.62 432.004 356.143 429.579 356.143C425.063 356.143 421.509 354.73 418.917 351.902C416.346 349.075 415.06 345.147 415.06 340.12V320.641H423.809V339.555C423.809 342.508 424.457 344.739 425.753 346.247C427.07 347.734 429.004 348.478 431.554 348.478C434.147 348.478 436.258 347.577 437.889 345.776C439.54 343.953 440.366 341.576 440.366 338.644V320.641Z" fill="black"/>
<path d="M455.073 347.975L461.69 344.173C462.609 345.64 463.968 346.833 465.766 347.755C467.564 348.677 469.571 349.137 471.787 349.137C474.003 349.137 475.822 348.823 477.243 348.195C478.686 347.566 479.407 346.739 479.407 345.713C479.407 344.687 478.947 343.901 478.027 343.356C477.128 342.791 475.341 342.205 472.665 341.597L467.616 340.435C463.958 339.618 461.24 338.413 459.463 336.822C457.686 335.23 456.798 333.156 456.798 330.601C456.798 327.354 458.198 324.736 461 322.746C463.822 320.736 467.459 319.73 471.912 319.73C475.383 319.73 478.487 320.463 481.226 321.93C484.048 323.438 486.076 325.218 487.309 327.271L480.755 330.978C479.94 329.721 478.696 328.695 477.024 327.899C475.372 327.082 473.606 326.674 471.724 326.674C469.78 326.674 468.191 326.988 466.958 327.616C465.724 328.245 465.108 329.072 465.108 330.098C465.108 331.083 465.557 331.858 466.456 332.423C467.376 332.968 469.174 333.544 471.85 334.151L476.93 335.314C480.567 336.109 483.274 337.324 485.051 338.958C486.828 340.571 487.717 342.676 487.717 345.273C487.717 348.519 486.201 351.148 483.17 353.159C480.139 355.149 476.282 356.143 471.599 356.143C467.878 356.143 464.512 355.327 461.501 353.693C458.533 352.08 456.39 350.174 455.073 347.975Z" fill="black"/>
<path d="M493.173 310.776C493.173 309.31 493.696 308.074 494.741 307.069C495.807 306.064 497.114 305.561 498.661 305.561C500.187 305.561 501.473 306.074 502.518 307.1C503.584 308.106 504.117 309.331 504.117 310.776C504.117 312.284 503.595 313.531 502.549 314.515C501.525 315.499 500.229 315.992 498.661 315.992C497.093 315.992 495.786 315.499 494.741 314.515C493.696 313.531 493.173 312.284 493.173 310.776ZM503.02 320.641V355.264H494.271V320.641H503.02Z" fill="black"/>
<path d="M510.044 337.953C509.981 334.601 510.755 331.522 512.364 328.716C513.995 325.888 516.232 323.679 519.075 322.087C521.918 320.474 525.033 319.688 528.42 319.73C531.89 319.73 535.026 320.526 537.827 322.118C540.649 323.71 542.844 325.899 544.412 328.684C545.98 331.449 546.764 334.539 546.764 337.953C546.764 340.508 546.304 342.917 545.384 345.179C544.465 347.42 543.2 349.347 541.59 350.96C539.98 352.551 538.036 353.808 535.758 354.73C533.479 355.672 531.033 356.143 528.42 356.143C525.033 356.185 521.918 355.4 519.075 353.787C516.232 352.195 513.995 349.996 512.364 347.189C510.755 344.383 509.981 341.304 510.044 337.953ZM538.423 337.953C538.423 334.957 537.493 332.465 535.632 330.475C533.772 328.465 531.367 327.459 528.42 327.459C525.514 327.459 523.12 328.465 521.239 330.475C519.378 332.465 518.448 334.957 518.448 337.953C518.448 340.948 519.368 343.43 521.207 345.399C523.047 347.367 525.451 348.352 528.42 348.352C531.367 348.352 533.761 347.367 535.601 345.399C537.482 343.388 538.423 340.906 538.423 337.953Z" fill="black"/>
<path d="M587.906 335.691V355.264H579.094V336.319C579.094 333.366 578.436 331.145 577.119 329.658C575.802 328.15 573.868 327.396 571.318 327.396C568.767 327.396 566.666 328.307 565.015 330.13C563.363 331.931 562.537 334.277 562.537 337.167V355.264H553.788V320.641H562.537V325.574C563.541 323.773 564.994 322.349 566.896 321.301C568.819 320.254 570.983 319.73 573.387 319.73C577.903 319.73 581.446 321.134 584.018 323.94C586.61 326.747 587.906 330.664 587.906 335.691Z" fill="black"/>
<path d="M312.456 407.501V410.454H324.215V418.089H312.456V445.077H303.707V418.089H296.338V410.454H303.707V407.344C303.707 402.631 304.815 399.071 307.031 396.662C309.247 394.232 312.488 393.017 316.752 393.017C318.341 393.017 319.909 393.206 321.456 393.583C323.003 393.96 324.268 394.473 325.25 395.122L323.306 402.066C321.717 401.228 319.919 400.809 317.913 400.809C314.275 400.809 312.456 403.04 312.456 407.501Z" fill="black"/>
<path d="M327.853 427.765C327.79 424.414 328.564 421.335 330.174 418.529C331.804 415.701 334.041 413.491 336.884 411.899C339.727 410.287 342.842 409.501 346.229 409.543C349.699 409.543 352.835 410.339 355.636 411.931C358.459 413.523 360.654 415.711 362.222 418.497C363.789 421.262 364.573 424.351 364.573 427.765C364.573 430.321 364.114 432.729 363.194 434.991C362.274 437.233 361.009 439.16 359.399 440.772C357.79 442.364 355.845 443.621 353.567 444.542C351.288 445.485 348.842 445.956 346.229 445.956C342.842 445.998 339.727 445.213 336.884 443.6C334.041 442.008 331.804 439.809 330.174 437.002C328.564 434.196 327.79 431.117 327.853 427.765ZM356.232 427.765C356.232 424.77 355.302 422.278 353.441 420.288C351.581 418.277 349.177 417.272 346.229 417.272C343.323 417.272 340.929 418.277 339.048 420.288C337.187 422.278 336.257 424.77 336.257 427.765C336.257 430.761 337.177 433.243 339.017 435.211C340.856 437.18 343.26 438.165 346.229 438.165C349.177 438.165 351.57 437.18 353.41 435.211C355.291 433.201 356.232 430.719 356.232 427.765Z" fill="black"/>
<path d="M396.653 410.454H405.464V445.077H396.653V440.113C395.712 441.914 394.28 443.338 392.357 444.385C390.454 445.433 388.291 445.956 385.866 445.956C381.35 445.956 377.796 444.542 375.204 441.715C372.632 438.887 371.347 434.96 371.347 429.933V410.454H380.096V429.368C380.096 432.321 380.744 434.552 382.04 436.06C383.357 437.547 385.291 438.29 387.841 438.29C390.433 438.29 392.545 437.39 394.176 435.588C395.827 433.766 396.653 431.389 396.653 428.457V410.454Z" fill="black"/>
<path d="M448.237 425.503V445.077H439.425V426.132C439.425 423.178 438.767 420.958 437.45 419.471C436.133 417.963 434.199 417.209 431.648 417.209C429.098 417.209 426.997 418.12 425.346 419.942C423.694 421.744 422.868 424.09 422.868 426.98V445.077H414.119V410.454H422.868V415.387C423.872 413.586 425.325 412.161 427.227 411.114C429.15 410.067 431.314 409.543 433.718 409.543C438.234 409.543 441.777 410.946 444.349 413.753C446.941 416.56 448.237 420.476 448.237 425.503Z" fill="black"/>
<path d="M482.982 396.725H491.793V445.077H482.982V440.175C481.832 442.06 480.285 443.495 478.341 444.48C476.397 445.464 474.201 445.956 471.756 445.956C466.968 445.956 462.965 444.207 459.745 440.709C456.526 437.212 454.916 432.897 454.916 427.765C454.895 425.273 455.313 422.896 456.171 420.634C457.028 418.371 458.198 416.424 459.683 414.79C461.188 413.135 462.986 411.837 465.076 410.894C467.188 409.952 469.414 409.501 471.756 409.543C474.201 409.543 476.397 410.035 478.341 411.02C480.285 411.983 481.832 413.397 482.982 415.261V396.725ZM480.222 435.4C482.062 433.473 482.982 430.928 482.982 427.765C482.982 424.603 482.062 422.058 480.222 420.131C478.403 418.183 476.052 417.209 473.167 417.209C470.282 417.209 467.898 418.214 466.017 420.225C464.219 422.215 463.32 424.728 463.32 427.765C463.32 430.781 464.24 433.295 466.08 435.306C467.919 437.295 470.282 438.29 473.167 438.29C476.052 438.29 478.403 437.327 480.222 435.4Z" fill="black"/>
<path d="M526.758 410.454H535.569V445.077H526.758V440.175C525.608 442.06 524.061 443.495 522.117 444.48C520.173 445.464 517.977 445.956 515.532 445.956C510.744 445.956 506.741 444.207 503.521 440.709C500.302 437.212 498.692 432.897 498.692 427.765C498.671 425.273 499.089 422.896 499.947 420.634C500.804 418.371 501.974 416.424 503.459 414.79C504.964 413.135 506.762 411.837 508.852 410.894C510.964 409.952 513.19 409.501 515.532 409.543C517.977 409.543 520.173 410.035 522.117 411.02C524.061 411.983 525.608 413.397 526.758 415.261V410.454ZM523.998 435.4C525.838 433.473 526.758 430.928 526.758 427.765C526.758 424.603 525.838 422.058 523.998 420.131C522.179 418.183 519.828 417.209 516.943 417.209C514.058 417.209 511.674 418.214 509.793 420.225C507.995 422.215 507.096 424.728 507.096 427.765C507.096 430.781 508.016 433.295 509.856 435.306C511.695 437.295 514.058 438.29 516.943 438.29C519.828 438.29 522.179 437.327 523.998 435.4Z" fill="black"/>
<path d="M568.025 436.814L569.969 443.851C568.987 444.501 567.722 445.014 566.175 445.391C564.628 445.768 563.06 445.956 561.471 445.956C557.206 445.956 553.966 444.741 551.75 442.312C549.534 439.882 548.426 436.29 548.426 431.535V418.089H541.057V410.454H548.426V401.249H557.175V410.454H568.684V418.089H557.175V431.473C557.175 433.672 557.635 435.337 558.555 436.468C559.475 437.599 560.834 438.165 562.631 438.165C564.576 438.165 566.374 437.714 568.025 436.814Z" fill="black"/>
<path d="M574.767 400.589C574.767 399.123 575.29 397.887 576.335 396.882C577.401 395.876 578.708 395.374 580.255 395.374C581.781 395.374 583.066 395.887 584.112 396.913C585.178 397.919 585.711 399.144 585.711 400.589C585.711 402.097 585.188 403.343 584.143 404.328C583.119 405.312 581.823 405.804 580.255 405.804C578.687 405.804 577.38 405.312 576.335 404.328C575.29 403.343 574.767 402.097 574.767 400.589ZM584.614 410.454V445.077H575.865V410.454H584.614Z" fill="black"/>
<path d="M591.638 427.765C591.575 424.414 592.349 421.335 593.958 418.529C595.589 415.701 597.826 413.491 600.669 411.899C603.512 410.287 606.627 409.501 610.014 409.543C613.484 409.543 616.62 410.339 619.421 411.931C622.243 413.523 624.438 415.711 626.006 418.497C627.574 421.262 628.358 424.351 628.358 427.765C628.358 430.321 627.898 432.729 626.978 434.991C626.059 437.233 624.794 439.16 623.184 440.772C621.574 442.364 619.63 443.621 617.351 444.542C615.073 445.485 612.627 445.956 610.014 445.956C606.627 445.998 603.512 445.213 600.669 443.6C597.826 442.008 595.589 439.809 593.958 437.002C592.349 434.196 591.575 431.117 591.638 427.765ZM620.017 427.765C620.017 424.77 619.087 422.278 617.226 420.288C615.365 418.277 612.961 417.272 610.014 417.272C607.108 417.272 604.714 418.277 602.833 420.288C600.972 422.278 600.042 424.77 600.042 427.765C600.042 430.761 600.962 433.243 602.801 435.211C604.641 437.18 607.045 438.165 610.014 438.165C612.961 438.165 615.355 437.18 617.195 435.211C619.076 433.201 620.017 430.719 620.017 427.765Z" fill="black"/>
<path d="M669.5 425.503V445.077H660.688V426.132C660.688 423.178 660.03 420.958 658.713 419.471C657.396 417.963 655.462 417.209 652.912 417.209C650.361 417.209 648.26 418.12 646.609 419.942C644.957 421.744 644.131 424.09 644.131 426.98V445.077H635.382V410.454H644.131V415.387C645.135 413.586 646.588 412.161 648.49 411.114C650.413 410.067 652.577 409.543 654.981 409.543C659.497 409.543 663.04 410.946 665.612 413.753C668.204 416.56 669.5 420.476 669.5 425.503Z" fill="black"/>
</svg>
