<svg width="760" height="570" viewBox="0 0 760 570" fill="none" xmlns="http://www.w3.org/2000/svg">
<rect width="760" height="570" fill="white"/>
<g clip-path="url(#clip0_525_45622)">
<path fill-rule="evenodd" clip-rule="evenodd" d="M291.502 370.312C285.501 372.733 276.619 372.659 272.311 371.569C253.033 366.695 245.666 346.76 244.92 327.493C243.266 284.841 269.279 251.365 308.789 231.953C365.135 204.269 414.515 201.485 448.476 207.565C502.947 217.322 512.253 246.15 512.876 251.224L507.502 264.061C508.112 271.356 507.477 285.371 499.341 302.547C476.628 349.69 374.144 382.434 314.375 372.927L291.502 370.312Z" fill="#5B3428"/>
<path fill-rule="evenodd" clip-rule="evenodd" d="M331.193 222.082C360.474 210.622 387.396 205.766 410.639 205.01C412.2 204.049 413.94 203.13 415.922 202.269C419.846 200.566 424.54 198.528 429.306 196.459C407.531 194.994 383.627 197.028 359.386 203.387C349.92 205.87 340.452 208.805 331.193 212.286V222.082ZM518.869 262.216C519.395 265.146 519.441 288.881 509.023 307.081C471.527 372.589 329.248 399.042 295.89 377.352C237.89 392.939 227.158 329.639 243.291 289.629C254.57 261.654 274.751 241.828 298.799 227.597V237.345C264.969 257.268 243.411 288.553 244.921 327.493C245.667 346.76 253.034 366.697 272.311 371.571C276.62 372.659 285.502 372.733 291.503 370.312C313.244 361.541 404.173 322.022 425.932 312.575C428.15 311.612 429.987 315.059 426.583 316.838C394.87 333.394 314.376 372.929 314.376 372.929C374.144 382.436 476.627 349.69 499.34 302.547C507.477 285.373 508.113 271.358 507.502 264.063L469.598 277.96C466.932 279.352 465.541 277.123 468.185 275.452L512.875 251.226C512.537 248.476 509.633 238.752 498.391 228.867C498.393 224.822 498.4 220.888 498.419 217.615C509.7 225.364 517.804 234.913 521.623 245.794C526.526 259.765 518.869 262.216 518.869 262.216Z" fill="#D4BE97"/>
<path d="M513.177 201.875H513.14L510.91 208.557H509.877L507.648 201.875H507.611V208.557H506.136V200.112H508.33L510.395 206.097L512.457 200.112H514.652V208.557H513.177V201.875ZM500.774 201.505H498.507V200.112H504.626V201.505H502.359V208.557H500.774V201.505Z" fill="white"/>
<path d="M362.72 242.739C362.708 242.735 362.694 242.733 362.682 242.73C361.372 242.441 359.753 242.714 358.011 243.362C357.717 243.471 357.418 243.593 357.117 243.723C350.788 246.468 331.189 254.832 331.189 254.832V238.476L331.187 204.075L324.095 199.215V345.785C324.095 345.785 296.505 357.586 285.631 362.305C276.835 366.123 265.009 369.734 263.64 355.952C263.759 361.319 265.134 364.839 267.768 367.496C270.03 369.775 273.076 370.934 276.821 370.934C280.603 370.934 284.987 370.516 290.62 368.072C301.371 363.406 331.206 350.634 331.206 350.634V321.944C331.205 321.657 331.206 321.034 331.206 320.983V317.158C331.18 311.228 331.069 302.543 331.176 288.233C331.178 287.984 331.199 287.752 331.206 287.507V262.712L364.209 248.488C364.892 248.243 365.571 248.115 366.347 248.139C366.001 244.802 364.658 243.175 362.72 242.739ZM288.695 340.027C288.672 343.57 290.729 345.144 293.095 344.117C295.472 343.084 295.858 342.927 295.858 342.927C295.835 342.76 295.787 342.27 295.789 342.013C295.796 340.983 295.777 281.561 295.789 280.235C295.801 278.592 296.239 277.953 297.825 277.262C298.133 277.129 298.476 276.982 298.793 276.843V268.78C298.793 268.78 295.553 270.164 292.836 271.365C289.899 272.665 288.718 274.582 288.695 277.518C288.676 280.312 288.714 337.433 288.695 340.027ZM495.907 279.874C494.232 278.18 491.914 277.298 489.552 277.298C488.327 277.298 487.131 277.549 485.992 278.042C485.992 278.042 485.777 278.137 485.404 278.303C487.653 278.155 489.804 279.597 490.807 281.682C490.849 281.767 490.888 281.856 490.925 281.944C490.927 281.943 490.927 281.944 490.925 281.944C490.964 282.031 490.999 282.122 491.032 282.212C491.166 282.575 491.265 282.952 491.326 283.341C491.34 283.438 491.353 283.535 491.363 283.633C491.386 283.848 491.397 284.065 491.395 284.283L491.353 291.21C491.353 291.21 465.72 301.89 457.06 305.648C448.488 309.37 430.919 313.566 431.056 296.005C431.079 293.101 430.968 247.136 431.056 235.774C431.146 224.2 437.451 216.106 449.665 210.805L462.732 205.19L462.811 189.86L455.717 185L455.633 201.395C455.633 201.395 438.303 208.881 432.74 211.297C427.147 213.723 423.814 216.216 423.737 226.972C423.659 237.854 423.737 302.966 423.737 302.966L398.734 313.721C398.734 313.721 398.701 276.102 398.704 250.247C398.708 241.999 398.697 236.701 398.715 234.526C398.715 234.524 398.713 234.522 398.715 234.519C398.747 230.354 396.95 226.308 394.275 223.61C391.42 220.731 387.378 219.21 382.58 219.21C379.277 219.21 375.643 219.937 371.761 221.36C382.593 218.189 389.073 222.027 390.808 228.118C390.852 228.27 390.892 228.426 390.929 228.581C390.966 228.736 391.001 228.893 391.033 229.051C391.206 229.914 391.288 230.816 391.281 231.742C391.211 240.805 391.281 316.908 391.281 316.908C391.281 316.908 368.563 326.576 349.908 334.674C336.127 340.655 332.473 332.823 331.528 326.417C331.629 330.228 332.287 335.808 336.018 339.567C338.226 341.796 341.127 342.927 344.638 342.927C347.68 342.927 351.105 342.083 355.1 340.349C358.534 338.859 363.296 336.841 368.815 334.471C377.623 330.691 432.138 307.266 432.138 307.266C432.809 309.261 433.821 310.946 435.172 312.309C437.678 314.836 441.189 315.943 445.607 315.943C451.388 315.943 457.741 313.712 462.051 311.841C469.817 308.47 492.59 298.608 497.19 296.616C497.718 296.387 498.399 296.046 498.399 296.046L498.455 291.832L498.487 286.863C498.508 284.455 497.593 281.578 495.907 279.874ZM456.344 228.173C456.307 232.744 456.344 248.463 456.344 248.463L463.424 245.389C463.42 242.096 463.42 233.089 463.427 232.188C463.45 229.254 464.629 227.336 467.568 226.037C467.718 225.97 467.874 225.901 468.027 225.833C468.033 225.142 468.038 224.501 468.041 223.973C468.073 220.039 465.375 219.221 462.688 220.18C459.483 221.33 456.379 223.582 456.344 228.173ZM366.434 277.74V270.236C366.434 270.236 364.869 270.8 362.91 271.7C359.646 273.196 355.283 273.989 355.234 280.203C355.221 281.811 355.264 308.352 355.234 312.075C355.202 316.063 357.486 316.493 360.491 315.188C361.173 314.89 361.77 314.632 362.331 314.389C362.335 307.224 362.308 286.301 362.326 283.873C362.349 280.95 363.521 279.037 366.434 277.74ZM476.193 199.812C478.967 198.794 481.943 198.333 484.065 198.333C488.06 198.333 491.474 199.654 493.938 202.137C496.965 205.183 498.478 209.796 498.426 215.854C498.338 228.092 498.443 253.043 498.443 253.043L463.175 268.204V284.581C463.175 286.429 464.636 286.746 466.308 286.447C457.591 290.134 456.115 285.537 456.083 282.186V282.011C456.083 281.983 456.083 281.95 456.085 281.909C456.097 280.293 456.087 268.106 456.085 264.406C456.083 263.741 456.083 263.351 456.083 263.351L491.333 248.206C491.333 248.206 491.219 228.02 491.333 213.279C491.432 200.657 484.077 197.939 476.193 199.812Z" fill="black"/>
<path d="M298.793 341.679C298.793 341.679 295.474 343.088 293.095 344.12C290.73 345.147 288.672 343.574 288.697 340.03C288.715 337.438 288.676 280.315 288.697 277.52C288.718 274.585 289.899 272.669 292.836 271.37C295.555 270.167 298.793 268.785 298.793 268.785V341.679ZM298.793 210.102V252.43C298.793 252.43 287.36 257.399 279.25 260.921C271.104 264.455 263.677 268.373 263.596 278.753C263.577 281.482 263.534 349.595 263.51 352.877C263.374 370.236 276.235 366.388 285.631 362.31C296.506 357.589 324.095 345.788 324.095 345.788V199.218L298.793 210.102ZM366.434 312.609C366.434 312.609 364.558 313.425 360.493 315.191C357.487 316.496 355.204 316.066 355.234 312.079C355.264 308.355 355.222 281.815 355.234 280.206C355.284 273.992 359.646 273.201 362.911 271.702C364.87 270.803 366.434 270.241 366.434 270.241V312.609ZM391.282 231.747C391.352 222.764 382.94 216.182 366.957 223.12C349.592 230.657 331.189 238.48 331.189 238.48V254.837C331.189 254.837 350.789 246.473 357.117 243.726C362.36 241.451 366.529 242.254 366.434 250.236C366.388 254.074 366.434 255.642 366.434 255.642C366.434 255.642 356.007 260.348 352.019 262.079C338.31 268.024 331.275 275.226 331.177 288.237C331.041 306.126 331.251 315.238 331.207 321.144C331.168 326.265 331.641 342.606 349.909 334.676C368.565 326.58 391.282 316.911 391.282 316.911C391.282 316.911 391.211 240.808 391.282 231.747ZM415.916 202.278C401.413 208.574 398.803 217.806 398.735 227.397C398.666 237.059 398.735 313.724 398.735 313.724L423.739 302.968C423.739 302.968 423.661 237.857 423.739 226.975C423.815 216.221 427.148 213.728 432.741 211.299C438.304 208.885 455.633 201.398 455.633 201.398L455.718 185.004C455.718 185.004 430.5 195.95 415.916 202.278ZM456.344 228.177C456.379 223.585 459.484 221.335 462.688 220.185C465.376 219.223 468.074 220.042 468.042 223.976C468.001 229.207 467.896 243.453 467.896 243.453L456.344 248.466C456.344 248.466 456.309 232.749 456.344 228.177ZM483.78 278.704C478.195 281.128 471.702 284.118 466.571 286.348C457.46 290.308 456.059 285.411 456.084 282.014C456.094 280.704 456.084 263.356 456.084 263.356L491.334 248.211C491.334 248.211 491.219 228.022 491.334 213.284C491.45 198.318 481.091 197.274 471.794 201.299L449.665 210.808C437.452 216.11 431.146 224.205 431.056 235.779C430.968 247.138 431.079 293.106 431.056 296.01C430.919 313.569 448.488 309.373 457.062 305.652C465.722 301.893 491.353 291.215 491.353 291.215L491.395 284.286C491.431 280.34 487.399 277.133 483.78 278.704Z" fill="white"/>
</g>
<defs>
<clipPath id="clip0_525_45622">
<rect width="287" height="200" fill="white" transform="translate(236.5 185)"/>
</clipPath>
</defs>
</svg>
