<svg width="760" height="760" viewBox="0 0 760 760" fill="none" xmlns="http://www.w3.org/2000/svg">
<rect width="760" height="760" fill="white"/>
<g clip-path="url(#clip0_508_2023)">
<path fill-rule="evenodd" clip-rule="evenodd" d="M291.502 465.312C285.501 467.733 276.619 467.659 272.311 466.569C253.033 461.695 245.666 441.76 244.92 422.493C243.266 379.841 269.279 346.365 308.789 326.953C365.135 299.269 414.515 296.485 448.476 302.565C502.947 312.322 512.253 341.149 512.876 346.224L507.502 359.061C508.112 366.356 507.477 380.371 499.341 397.547C476.628 444.69 374.144 477.434 314.375 467.927L291.502 465.312Z" fill="#5B3428"/>
<path fill-rule="evenodd" clip-rule="evenodd" d="M331.193 317.082C360.474 305.622 387.396 300.766 410.639 300.01C412.2 299.049 413.94 298.13 415.922 297.269C419.846 295.566 424.54 293.528 429.306 291.459C407.531 289.994 383.627 292.028 359.386 298.387C349.92 300.87 340.452 303.805 331.193 307.286V317.082ZM518.869 357.216C519.395 360.146 519.441 383.881 509.023 402.081C471.527 467.589 329.248 494.042 295.89 472.352C237.89 487.939 227.158 424.639 243.291 384.629C254.57 356.654 274.751 336.828 298.799 322.597V332.345C264.969 352.268 243.411 383.553 244.921 422.493C245.667 441.76 253.034 461.697 272.311 466.571C276.62 467.659 285.502 467.733 291.503 465.312C313.244 456.541 404.173 417.022 425.932 407.575C428.15 406.612 429.987 410.059 426.583 411.838C394.87 428.394 314.376 467.929 314.376 467.929C374.144 477.436 476.627 444.69 499.34 397.547C507.477 380.373 508.113 366.358 507.502 359.063L469.598 372.96C466.932 374.352 465.541 372.123 468.185 370.452L512.875 346.226C512.537 343.476 509.633 333.752 498.391 323.867C498.393 319.822 498.4 315.888 498.419 312.615C509.7 320.364 517.804 329.913 521.623 340.794C526.526 354.765 518.869 357.216 518.869 357.216Z" fill="#D4BE97"/>
<path d="M513.177 296.875H513.14L510.91 303.557H509.877L507.648 296.875H507.611V303.557H506.136V295.112H508.33L510.395 301.097L512.457 295.112H514.652V303.557H513.177V296.875ZM500.774 296.505H498.507V295.112H504.626V296.505H502.359V303.557H500.774V296.505Z" fill="white"/>
<path d="M362.72 337.739C362.708 337.735 362.694 337.733 362.682 337.73C361.372 337.441 359.753 337.714 358.011 338.362C357.717 338.471 357.418 338.593 357.117 338.723C350.788 341.468 331.189 349.832 331.189 349.832V333.476L331.187 299.075L324.095 294.215V440.785C324.095 440.785 296.505 452.586 285.631 457.305C276.835 461.123 265.009 464.734 263.64 450.952C263.759 456.319 265.134 459.839 267.768 462.496C270.03 464.775 273.076 465.934 276.821 465.934C280.603 465.934 284.987 465.516 290.62 463.072C301.371 458.406 331.206 445.634 331.206 445.634V416.944C331.205 416.657 331.206 416.034 331.206 415.983V412.158C331.18 406.228 331.069 397.543 331.176 383.232C331.178 382.984 331.199 382.752 331.206 382.507V357.712L364.209 343.488C364.892 343.243 365.571 343.115 366.347 343.139C366.001 339.802 364.658 338.175 362.72 337.739ZM288.695 435.027C288.672 438.57 290.729 440.144 293.095 439.117C295.472 438.084 295.858 437.927 295.858 437.927C295.835 437.76 295.787 437.27 295.789 437.013C295.796 435.983 295.777 376.561 295.789 375.235C295.801 373.592 296.239 372.953 297.825 372.262C298.133 372.128 298.476 371.982 298.793 371.843V363.78C298.793 363.78 295.553 365.164 292.836 366.365C289.899 367.665 288.718 369.582 288.695 372.518C288.676 375.312 288.714 432.433 288.695 435.027ZM495.907 374.874C494.232 373.18 491.914 372.297 489.552 372.297C488.327 372.297 487.131 372.549 485.992 373.042C485.992 373.042 485.777 373.137 485.404 373.303C487.653 373.155 489.804 374.597 490.807 376.682C490.849 376.767 490.888 376.856 490.925 376.944C490.927 376.943 490.927 376.944 490.925 376.944C490.964 377.031 490.999 377.122 491.032 377.212C491.166 377.575 491.265 377.952 491.326 378.341C491.34 378.438 491.353 378.534 491.363 378.633C491.386 378.848 491.397 379.065 491.395 379.283L491.353 386.21C491.353 386.21 465.72 396.89 457.06 400.647C448.488 404.37 430.919 408.566 431.056 391.005C431.079 388.101 430.968 342.136 431.056 330.774C431.146 319.2 437.451 311.105 449.665 305.805L462.732 300.19L462.811 284.86L455.717 280L455.633 296.395C455.633 296.395 438.303 303.881 432.74 306.297C427.147 308.723 423.814 311.216 423.737 321.972C423.659 332.854 423.737 397.966 423.737 397.966L398.734 408.721C398.734 408.721 398.701 371.102 398.704 345.247C398.708 336.999 398.697 331.701 398.715 329.526C398.715 329.524 398.713 329.522 398.715 329.519C398.747 325.354 396.95 321.308 394.275 318.61C391.42 315.731 387.378 314.21 382.58 314.21C379.277 314.21 375.643 314.937 371.761 316.36C382.593 313.189 389.073 317.027 390.808 323.118C390.852 323.27 390.892 323.426 390.929 323.581C390.966 323.736 391.001 323.893 391.033 324.051C391.206 324.914 391.288 325.816 391.281 326.742C391.211 335.805 391.281 411.908 391.281 411.908C391.281 411.908 368.563 421.575 349.908 429.674C336.127 435.655 332.473 427.823 331.528 421.417C331.629 425.227 332.287 430.808 336.018 434.567C338.226 436.796 341.127 437.927 344.638 437.927C347.68 437.927 351.105 437.083 355.1 435.349C358.534 433.859 363.296 431.841 368.815 429.471C377.623 425.691 432.138 402.266 432.138 402.266C432.809 404.261 433.821 405.946 435.172 407.309C437.678 409.836 441.189 410.943 445.607 410.943C451.388 410.943 457.741 408.712 462.051 406.84C469.817 403.47 492.59 393.608 497.19 391.616C497.718 391.387 498.399 391.045 498.399 391.045L498.455 386.832L498.487 381.863C498.508 379.455 497.593 376.578 495.907 374.874ZM456.344 323.173C456.307 327.744 456.344 343.463 456.344 343.463L463.424 340.389C463.42 337.096 463.42 328.089 463.427 327.187C463.45 324.254 464.629 322.336 467.568 321.037C467.718 320.97 467.874 320.901 468.027 320.833C468.033 320.142 468.038 319.501 468.041 318.973C468.073 315.039 465.375 314.22 462.688 315.18C459.483 316.33 456.379 318.582 456.344 323.173ZM366.434 372.739V365.236C366.434 365.236 364.869 365.8 362.91 366.7C359.646 368.196 355.283 368.989 355.234 375.203C355.221 376.811 355.264 403.352 355.234 407.075C355.202 411.063 357.486 411.493 360.491 410.188C361.173 409.89 361.77 409.631 362.331 409.388C362.335 402.223 362.308 381.301 362.326 378.873C362.349 375.95 363.521 374.037 366.434 372.739ZM476.193 294.812C478.967 293.794 481.943 293.333 484.065 293.333C488.06 293.333 491.474 294.654 493.938 297.136C496.965 300.183 498.478 304.796 498.426 310.854C498.338 323.092 498.443 348.043 498.443 348.043L463.175 363.204V379.58C463.175 381.429 464.636 381.746 466.308 381.447C457.591 385.134 456.115 380.537 456.083 377.186V377.011C456.083 376.983 456.083 376.95 456.085 376.909C456.097 375.293 456.087 363.106 456.085 359.406C456.083 358.741 456.083 358.351 456.083 358.351L491.333 343.206C491.333 343.206 491.219 323.02 491.333 308.279C491.432 295.657 484.077 292.939 476.193 294.812Z" fill="black"/>
<path d="M298.793 436.68C298.793 436.68 295.474 438.088 293.095 439.12C290.73 440.147 288.672 438.574 288.697 435.03C288.715 432.438 288.676 375.315 288.697 372.52C288.718 369.585 289.899 367.669 292.836 366.37C295.555 365.167 298.793 363.785 298.793 363.785V436.68ZM298.793 305.102V347.43C298.793 347.43 287.36 352.399 279.25 355.921C271.104 359.455 263.677 363.373 263.596 373.753C263.577 376.482 263.534 444.595 263.51 447.877C263.374 465.236 276.235 461.388 285.631 457.31C296.506 452.589 324.095 440.788 324.095 440.788V294.218L298.793 305.102ZM366.434 407.609C366.434 407.609 364.558 408.425 360.493 410.191C357.487 411.496 355.204 411.066 355.234 407.079C355.264 403.355 355.222 376.815 355.234 375.206C355.284 368.992 359.646 368.201 362.911 366.703C364.87 365.803 366.434 365.241 366.434 365.241V407.609ZM391.282 326.747C391.352 317.764 382.94 311.182 366.957 318.12C349.592 325.657 331.189 333.48 331.189 333.48V349.837C331.189 349.837 350.789 341.473 357.117 338.726C362.36 336.451 366.529 337.254 366.434 345.236C366.388 349.074 366.434 350.642 366.434 350.642C366.434 350.642 356.007 355.348 352.019 357.079C338.31 363.024 331.275 370.226 331.177 383.237C331.041 401.126 331.251 410.238 331.207 416.144C331.168 421.265 331.641 437.606 349.909 429.677C368.565 421.58 391.282 411.911 391.282 411.911C391.282 411.911 391.211 335.808 391.282 326.747ZM415.916 297.278C401.413 303.574 398.803 312.806 398.735 322.397C398.666 332.059 398.735 408.724 398.735 408.724L423.739 397.969C423.739 397.969 423.661 332.857 423.739 321.975C423.815 311.221 427.148 308.728 432.741 306.299C438.304 303.885 455.633 296.398 455.633 296.398L455.718 280.004C455.718 280.004 430.5 290.95 415.916 297.278ZM456.344 323.177C456.379 318.585 459.484 316.335 462.688 315.185C465.376 314.223 468.074 315.042 468.042 318.976C468.001 324.207 467.896 338.453 467.896 338.453L456.344 343.466C456.344 343.466 456.309 327.749 456.344 323.177ZM483.78 373.704C478.195 376.128 471.702 379.118 466.571 381.348C457.46 385.308 456.059 380.411 456.084 377.014C456.094 375.704 456.084 358.356 456.084 358.356L491.334 343.211C491.334 343.211 491.219 323.022 491.334 308.284C491.45 293.318 481.091 292.274 471.794 296.299L449.665 305.808C437.452 311.11 431.146 319.205 431.056 330.779C430.968 342.138 431.079 388.106 431.056 391.01C430.919 408.569 448.488 404.373 457.062 400.652C465.722 396.893 491.353 386.215 491.353 386.215L491.395 379.286C491.431 375.34 487.399 372.133 483.78 373.704Z" fill="white"/>
</g>
<defs>
<clipPath id="clip0_508_2023">
<rect width="287" height="200" fill="white" transform="translate(236.5 280)"/>
</clipPath>
</defs>
</svg>
