<svg width="760" height="570" viewBox="0 0 760 570" fill="none" xmlns="http://www.w3.org/2000/svg">
<rect width="760" height="570" fill="white"/>
<path d="M220.692 296.469C220.741 296.399 220.804 296.341 220.877 296.297C220.949 296.253 221.031 296.224 221.115 296.212C221.199 296.201 221.285 296.207 221.367 296.23C221.449 296.253 221.525 296.292 221.591 296.346C223.637 298.045 225.985 299.341 228.512 300.166C230.942 300.996 233.487 301.438 236.054 301.475C238.356 301.475 240.025 301.096 241.061 300.338C241.539 300.05 241.936 299.644 242.213 299.16C242.49 298.675 242.639 298.127 242.645 297.569C242.65 297.01 242.513 296.46 242.246 295.969C241.979 295.479 241.591 295.065 241.118 294.767C239.93 293.919 238.6 293.287 237.192 292.902C235.555 292.417 233.775 291.918 231.85 291.405C229.853 290.867 227.891 290.206 225.976 289.426C224.082 288.67 222.281 287.698 220.61 286.53C218.929 285.328 217.578 283.722 216.683 281.859C215.644 279.7 215.128 277.326 215.178 274.93C215.101 272.605 215.521 270.29 216.41 268.141C217.299 265.991 218.636 264.055 220.332 262.463C223.757 259.229 228.422 257.615 234.328 257.62C237.767 257.661 241.183 258.176 244.48 259.15C247.853 260.079 250.974 261.757 253.61 264.058C253.719 264.162 253.787 264.302 253.802 264.452C253.817 264.602 253.778 264.753 253.691 264.876L246.975 273.965C246.881 274.086 246.746 274.168 246.595 274.195C246.444 274.222 246.288 274.193 246.157 274.112C242.721 271.716 238.648 270.397 234.459 270.324C232.381 270.324 230.936 270.668 230.124 271.355C229.743 271.641 229.434 272.012 229.221 272.438C229.008 272.864 228.897 273.333 228.897 273.809C228.915 274.339 229.061 274.856 229.324 275.316C229.586 275.776 229.956 276.166 230.402 276.451C231.587 277.305 232.902 277.963 234.296 278.398C235.894 278.944 237.655 279.489 239.58 280.034C241.537 280.625 243.45 281.349 245.307 282.202C247.16 283.043 248.922 284.071 250.567 285.27C252.247 286.536 253.59 288.197 254.477 290.105C255.507 292.267 256.019 294.639 255.974 297.033C256.051 299.386 255.602 301.726 254.659 303.883C253.717 306.04 252.304 307.959 250.526 309.5C246.888 312.691 241.748 314.286 235.106 314.286C231.056 314.369 227.028 313.658 223.252 312.192C220.007 310.841 216.947 309.082 214.147 306.956C214.03 306.859 213.953 306.722 213.928 306.572C213.904 306.421 213.936 306.267 214.016 306.138L220.692 296.469Z" fill="#1D1753"/>
<path d="M263.598 258.618H276.384C276.549 258.618 276.707 258.684 276.824 258.8C276.94 258.917 277.006 259.075 277.006 259.24V312.192C277.006 312.357 276.94 312.515 276.824 312.631C276.707 312.748 276.549 312.813 276.384 312.813H263.598C263.433 312.813 263.275 312.748 263.158 312.631C263.042 312.515 262.976 312.357 262.976 312.192V259.24C262.976 259.075 263.042 258.917 263.158 258.8C263.275 258.684 263.433 258.618 263.598 258.618V258.618ZM263.704 234.494C264.534 233.664 265.524 233.011 266.614 232.575C267.704 232.139 268.871 231.929 270.044 231.958C271.2 231.927 272.349 232.134 273.422 232.566C274.494 232.998 275.466 233.646 276.278 234.469C277.103 235.29 277.751 236.27 278.183 237.351C278.615 238.431 278.821 239.589 278.789 240.752C278.82 241.921 278.613 243.084 278.181 244.171C277.75 245.258 277.102 246.246 276.278 247.076C275.468 247.903 274.497 248.554 273.424 248.989C272.352 249.424 271.201 249.633 270.044 249.603C268.874 249.624 267.711 249.41 266.625 248.973C265.539 248.536 264.552 247.886 263.722 247.06C262.892 246.235 262.236 245.251 261.793 244.168C261.35 243.084 261.129 241.923 261.144 240.752C261.116 239.589 261.329 238.432 261.769 237.355C262.21 236.278 262.869 235.304 263.704 234.494" fill="#1D1753"/>
<path d="M286.609 258.618H299.395C299.56 258.618 299.719 258.684 299.835 258.8C299.952 258.917 300.017 259.075 300.017 259.24V262.627C301.539 261.514 302.749 260.68 303.666 260.123C304.985 259.41 306.386 258.861 307.838 258.487C309.838 257.919 311.91 257.644 313.989 257.669C321.744 257.669 327.471 260.358 331.168 265.735C333.387 262.994 336.271 260.868 339.545 259.559C342.634 258.322 345.928 257.681 349.255 257.669C355.636 257.669 360.765 259.635 364.643 263.567C368.52 267.499 370.459 273.498 370.459 281.564V312.192C370.459 312.357 370.393 312.515 370.277 312.631C370.16 312.748 370.002 312.813 369.837 312.813H357.018C356.854 312.813 356.695 312.748 356.579 312.631C356.462 312.515 356.397 312.357 356.397 312.192V283.83C356.446 281.596 356.17 279.367 355.579 277.212C355.206 275.701 354.405 274.329 353.272 273.261C352.376 272.465 351.322 271.865 350.18 271.502C348.976 271.169 347.731 271.009 346.482 271.028C338.951 271.028 335.185 275.222 335.185 283.609V312.192C335.185 312.357 335.119 312.515 335.003 312.631C334.886 312.748 334.728 312.813 334.563 312.813H321.785C321.62 312.813 321.462 312.748 321.346 312.631C321.229 312.515 321.164 312.357 321.164 312.192V283.83C321.208 281.596 320.933 279.368 320.346 277.212C319.97 275.7 319.166 274.328 318.03 273.261C317.137 272.465 316.087 271.866 314.946 271.502C313.74 271.169 312.492 271.009 311.241 271.028C303.747 271.028 300.001 275.222 300.001 283.609V312.192C300.001 312.357 299.935 312.515 299.819 312.631C299.702 312.748 299.544 312.813 299.379 312.813H286.609C286.445 312.813 286.286 312.748 286.17 312.631C286.053 312.515 285.988 312.357 285.988 312.192V259.24C285.988 259.075 286.053 258.917 286.17 258.8C286.286 258.684 286.445 258.618 286.609 258.618" fill="#1D1753"/>
<path d="M398.076 296.649C399.441 298.003 401.062 299.071 402.844 299.792C404.626 300.512 406.535 300.871 408.457 300.846C410.899 300.849 413.304 300.252 415.461 299.107C417.618 297.962 419.46 296.304 420.824 294.279C422.189 292.254 423.035 289.924 423.288 287.496C423.54 285.067 423.191 282.613 422.271 280.351C421.352 278.089 419.89 276.087 418.015 274.523C416.139 272.959 413.908 271.881 411.518 271.382C409.127 270.884 406.651 270.981 404.307 271.665C401.963 272.35 399.823 273.6 398.076 275.306C395.267 277.9 393.597 281.499 393.429 285.319V286.603C393.588 290.435 395.259 294.047 398.076 296.649ZM380.022 258.659H392.808C392.973 258.659 393.131 258.725 393.247 258.841C393.364 258.958 393.429 259.116 393.429 259.281V262.667C397.552 259.33 402.562 257.661 408.457 257.661C412.226 257.584 415.971 258.27 419.468 259.679C422.964 261.087 426.139 263.189 428.802 265.858C431.506 268.437 433.647 271.549 435.088 274.997C436.53 278.445 437.242 282.155 437.178 285.892C437.208 290.887 435.891 295.798 433.366 300.109C430.867 304.426 427.265 308.001 422.928 310.466C418.529 313 413.534 314.316 408.457 314.278C402.562 314.278 397.552 312.606 393.429 309.263V340.979C393.429 341.144 393.364 341.302 393.247 341.418C393.131 341.535 392.973 341.6 392.808 341.6H380.03C379.865 341.6 379.707 341.535 379.59 341.418C379.474 341.302 379.408 341.144 379.408 340.979V259.24C379.408 259.076 379.473 258.919 379.587 258.803C379.702 258.687 379.858 258.62 380.022 258.618" fill="#1D1753"/>
<path d="M444.917 228.4H457.703C457.868 228.4 458.026 228.465 458.143 228.582C458.259 228.698 458.325 228.856 458.325 229.021V295.127C458.325 297.129 458.734 298.615 459.552 299.586C460.37 300.551 461.924 301.034 464.223 301.034C464.804 301.034 465.311 301.034 465.736 300.985C465.821 300.98 465.905 300.993 465.984 301.022C466.063 301.051 466.136 301.096 466.197 301.155C466.258 301.213 466.307 301.283 466.34 301.361C466.374 301.438 466.391 301.522 466.391 301.606V312.854C466.391 312.991 466.347 313.123 466.264 313.231C466.181 313.34 466.064 313.417 465.933 313.452C464.106 313.958 462.224 314.233 460.329 314.27C455.17 314.27 451.208 312.887 448.443 310.122C445.678 307.357 444.295 303.411 444.295 298.285V229.021C444.295 228.856 444.361 228.698 444.477 228.582C444.594 228.465 444.752 228.4 444.917 228.4" fill="#1D1753"/>
<path d="M510.148 280.051C509.925 278.66 509.419 277.33 508.662 276.143C507.905 274.955 506.913 273.936 505.747 273.147C503.18 271.276 500.071 270.299 496.895 270.365C493.873 270.312 490.913 271.222 488.442 272.964C485.972 274.705 484.119 277.187 483.152 280.051H510.148ZM470.988 275.29C472.243 271.925 474.122 268.828 476.526 266.16C479.003 263.47 482.03 261.344 485.402 259.927C489.07 258.364 493.023 257.579 497.01 257.62C501.977 257.556 506.86 258.906 511.089 261.514C515.202 264.021 518.567 267.586 520.831 271.838C523.723 277.365 524.84 283.649 524.03 289.835C524.01 289.985 523.936 290.123 523.821 290.222C523.707 290.322 523.56 290.376 523.408 290.374H482.653C483.363 293.632 485.207 296.531 487.856 298.555C490.715 300.64 494.194 301.698 497.73 301.557C500.293 301.562 502.83 301.05 505.19 300.052C507.314 299.175 509.191 297.79 510.655 296.019C510.759 295.893 510.908 295.813 511.07 295.797C511.232 295.78 511.395 295.827 511.522 295.929L520.144 302.801C520.262 302.898 520.339 303.036 520.36 303.187C520.381 303.339 520.345 303.492 520.259 303.619C517.793 306.889 514.571 309.511 510.868 311.259C506.812 313.232 502.355 314.243 497.844 314.212C492.731 314.269 487.69 313.004 483.21 310.539C478.879 308.173 475.278 304.668 472.796 300.404C470.272 296.085 468.966 291.163 469.017 286.162C469 282.426 469.668 278.719 470.988 275.224" fill="#1D1753"/>
<path d="M531 298.44C531.83 297.612 532.82 296.96 533.91 296.526C535 296.091 536.167 295.883 537.339 295.913C538.498 295.888 539.65 296.099 540.725 296.533C541.8 296.967 542.776 297.614 543.593 298.437C544.41 299.259 545.051 300.239 545.478 301.317C545.905 302.395 546.108 303.548 546.076 304.707C546.107 305.874 545.902 307.035 545.471 308.121C545.041 309.206 544.395 310.193 543.573 311.022C542.763 311.849 541.792 312.501 540.72 312.936C539.647 313.37 538.496 313.58 537.339 313.55C536.17 313.571 535.008 313.357 533.922 312.92C532.837 312.484 531.85 311.834 531.02 311.01C530.19 310.185 529.534 309.202 529.091 308.12C528.647 307.037 528.426 305.877 528.439 304.707C528.412 303.542 528.625 302.385 529.066 301.307C529.506 300.228 530.165 299.253 531 298.44" fill="#1D1753"/>
</svg>
