<svg width="760" height="760" viewBox="0 0 760 760" fill="none" xmlns="http://www.w3.org/2000/svg">
<rect width="760" height="760" fill="white"/>
<path d="M220.692 391.469C220.741 391.399 220.804 391.341 220.877 391.297C220.949 391.253 221.03 391.224 221.115 391.212C221.199 391.201 221.285 391.207 221.367 391.23C221.449 391.253 221.525 391.292 221.591 391.346C223.636 393.045 225.985 394.341 228.512 395.166C230.942 395.996 233.487 396.438 236.054 396.475C238.356 396.475 240.025 396.096 241.061 395.338C241.539 395.05 241.936 394.644 242.213 394.16C242.49 393.675 242.639 393.127 242.645 392.569C242.65 392.01 242.513 391.46 242.246 390.969C241.979 390.479 241.59 390.065 241.118 389.767C239.93 388.919 238.6 388.287 237.191 387.902C235.555 387.417 233.775 386.918 231.85 386.405C229.853 385.867 227.891 385.206 225.976 384.426C224.082 383.67 222.281 382.698 220.61 381.53C218.928 380.328 217.578 378.722 216.683 376.859C215.644 374.7 215.128 372.326 215.178 369.93C215.101 367.605 215.521 365.29 216.41 363.141C217.299 360.991 218.636 359.055 220.332 357.463C223.756 354.229 228.422 352.615 234.328 352.62C237.766 352.661 241.183 353.176 244.48 354.15C247.853 355.079 250.974 356.757 253.61 359.058C253.719 359.162 253.787 359.302 253.802 359.452C253.817 359.602 253.778 359.753 253.691 359.876L246.975 368.965C246.881 369.086 246.745 369.168 246.594 369.195C246.443 369.222 246.288 369.193 246.157 369.112C242.72 366.716 238.648 365.397 234.459 365.324C232.381 365.324 230.936 365.668 230.124 366.355C229.743 366.641 229.434 367.012 229.221 367.438C229.008 367.864 228.897 368.333 228.896 368.809C228.915 369.339 229.061 369.856 229.323 370.316C229.586 370.776 229.956 371.166 230.402 371.451C231.587 372.305 232.902 372.963 234.296 373.398C235.893 373.944 237.655 374.489 239.58 375.034C241.536 375.625 243.45 376.349 245.306 377.202C247.16 378.043 248.922 379.071 250.566 380.27C252.247 381.536 253.589 383.197 254.477 385.105C255.506 387.267 256.019 389.639 255.974 392.033C256.051 394.386 255.602 396.726 254.659 398.883C253.716 401.04 252.304 402.959 250.526 404.5C246.888 407.691 241.748 409.286 235.105 409.286C231.055 409.369 227.028 408.658 223.252 407.192C220.007 405.841 216.947 404.082 214.147 401.956C214.03 401.859 213.952 401.722 213.928 401.572C213.904 401.421 213.936 401.267 214.016 401.138L220.692 391.469Z" fill="#1D1753"/>
<path d="M263.598 353.618H276.384C276.549 353.618 276.707 353.684 276.823 353.8C276.94 353.917 277.005 354.075 277.005 354.24V407.192C277.005 407.357 276.94 407.515 276.823 407.631C276.707 407.748 276.549 407.813 276.384 407.813H263.598C263.433 407.813 263.275 407.748 263.158 407.631C263.041 407.515 262.976 407.357 262.976 407.192V354.24C262.976 354.075 263.041 353.917 263.158 353.8C263.275 353.684 263.433 353.618 263.598 353.618V353.618ZM263.704 329.494C264.534 328.664 265.524 328.011 266.614 327.575C267.703 327.139 268.87 326.929 270.044 326.958C271.2 326.927 272.349 327.134 273.422 327.566C274.494 327.998 275.466 328.646 276.277 329.47C277.103 330.29 277.751 331.27 278.183 332.351C278.615 333.431 278.821 334.589 278.789 335.752C278.82 336.921 278.613 338.084 278.181 339.171C277.749 340.258 277.102 341.246 276.277 342.076C275.468 342.903 274.497 343.554 273.424 343.989C272.352 344.424 271.201 344.633 270.044 344.603C268.873 344.624 267.711 344.41 266.625 343.973C265.539 343.536 264.551 342.886 263.721 342.06C262.891 341.235 262.235 340.251 261.793 339.168C261.35 338.084 261.129 336.923 261.144 335.752C261.116 334.589 261.329 333.432 261.769 332.355C262.21 331.278 262.869 330.304 263.704 329.494" fill="#1D1753"/>
<path d="M286.609 353.618H299.395C299.56 353.618 299.719 353.684 299.835 353.8C299.952 353.917 300.017 354.075 300.017 354.24V357.627C301.539 356.514 302.749 355.68 303.666 355.123C304.985 354.41 306.386 353.861 307.838 353.487C309.838 352.919 311.91 352.644 313.989 352.669C321.744 352.669 327.471 355.358 331.168 360.735C333.387 357.994 336.271 355.868 339.545 354.559C342.634 353.322 345.928 352.681 349.255 352.669C355.636 352.669 360.765 354.635 364.643 358.567C368.52 362.499 370.459 368.498 370.459 376.564V407.192C370.459 407.357 370.393 407.515 370.277 407.631C370.16 407.748 370.002 407.813 369.837 407.813H357.018C356.854 407.813 356.695 407.748 356.579 407.631C356.462 407.515 356.397 407.357 356.397 407.192V378.83C356.446 376.596 356.17 374.367 355.579 372.212C355.206 370.701 354.405 369.329 353.272 368.261C352.376 367.465 351.322 366.865 350.18 366.502C348.976 366.169 347.731 366.009 346.482 366.028C338.951 366.028 335.185 370.222 335.185 378.609V407.192C335.185 407.357 335.119 407.515 335.003 407.631C334.886 407.748 334.728 407.813 334.563 407.813H321.785C321.62 407.813 321.462 407.748 321.346 407.631C321.229 407.515 321.164 407.357 321.164 407.192V378.83C321.208 376.596 320.933 374.368 320.346 372.212C319.97 370.7 319.166 369.328 318.03 368.261C317.137 367.465 316.087 366.866 314.946 366.502C313.74 366.169 312.492 366.009 311.241 366.028C303.747 366.028 300.001 370.222 300.001 378.609V407.192C300.001 407.357 299.935 407.515 299.819 407.631C299.702 407.748 299.544 407.813 299.379 407.813H286.609C286.445 407.813 286.286 407.748 286.17 407.631C286.053 407.515 285.988 407.357 285.988 407.192V354.24C285.988 354.075 286.053 353.917 286.17 353.8C286.286 353.684 286.445 353.618 286.609 353.618" fill="#1D1753"/>
<path d="M398.076 391.649C399.441 393.003 401.062 394.071 402.844 394.792C404.626 395.512 406.535 395.871 408.457 395.845C410.899 395.849 413.304 395.252 415.461 394.107C417.618 392.962 419.46 391.304 420.824 389.279C422.189 387.254 423.035 384.924 423.288 382.496C423.54 380.067 423.191 377.613 422.271 375.351C421.352 373.089 419.89 371.087 418.015 369.523C416.139 367.959 413.908 366.881 411.518 366.382C409.127 365.884 406.651 365.981 404.307 366.665C401.963 367.35 399.823 368.6 398.076 370.306C395.267 372.9 393.597 376.499 393.429 380.319V381.603C393.588 385.435 395.259 389.047 398.076 391.649ZM380.022 353.659H392.808C392.973 353.659 393.131 353.725 393.247 353.841C393.364 353.958 393.429 354.116 393.429 354.281V357.667C397.552 354.33 402.562 352.661 408.457 352.661C412.226 352.584 415.971 353.27 419.468 354.679C422.964 356.087 426.139 358.189 428.802 360.858C431.506 363.437 433.647 366.549 435.088 369.997C436.53 373.445 437.242 377.155 437.178 380.892C437.208 385.887 435.891 390.798 433.366 395.109C430.867 399.426 427.265 403.001 422.928 405.466C418.529 408 413.534 409.316 408.457 409.278C402.562 409.278 397.552 407.606 393.429 404.263V435.979C393.429 436.144 393.364 436.302 393.247 436.418C393.131 436.535 392.973 436.6 392.808 436.6H380.03C379.865 436.6 379.707 436.535 379.59 436.418C379.474 436.302 379.408 436.144 379.408 435.979V354.24C379.408 354.076 379.473 353.919 379.587 353.803C379.702 353.687 379.858 353.62 380.022 353.618" fill="#1D1753"/>
<path d="M444.917 323.4H457.703C457.868 323.4 458.026 323.465 458.143 323.582C458.259 323.698 458.325 323.856 458.325 324.021V390.127C458.325 392.129 458.734 393.615 459.552 394.586C460.37 395.551 461.924 396.034 464.223 396.034C464.804 396.034 465.311 396.034 465.736 395.985C465.821 395.98 465.905 395.993 465.984 396.022C466.064 396.051 466.136 396.096 466.197 396.155C466.258 396.213 466.307 396.283 466.34 396.361C466.374 396.438 466.391 396.522 466.391 396.606V407.854C466.392 407.991 466.347 408.123 466.264 408.231C466.181 408.34 466.064 408.417 465.933 408.452C464.106 408.958 462.224 409.233 460.329 409.27C455.17 409.27 451.208 407.887 448.443 405.122C445.678 402.357 444.295 398.411 444.295 393.285V324.021C444.295 323.856 444.361 323.698 444.478 323.582C444.594 323.465 444.752 323.4 444.917 323.4" fill="#1D1753"/>
<path d="M510.148 375.051C509.925 373.66 509.419 372.33 508.662 371.143C507.905 369.955 506.913 368.936 505.747 368.147C503.18 366.276 500.071 365.299 496.895 365.365C493.873 365.312 490.913 366.222 488.442 367.964C485.972 369.705 484.119 372.187 483.152 375.051H510.148ZM470.988 370.29C472.243 366.925 474.122 363.828 476.526 361.16C479.003 358.47 482.03 356.344 485.402 354.927C489.07 353.364 493.023 352.579 497.01 352.62C501.977 352.556 506.86 353.906 511.089 356.514C515.202 359.021 518.567 362.586 520.831 366.838C523.723 372.365 524.84 378.649 524.03 384.835C524.01 384.985 523.936 385.123 523.821 385.222C523.707 385.322 523.56 385.376 523.408 385.374H482.653C483.363 388.632 485.207 391.531 487.856 393.555C490.715 395.64 494.194 396.698 497.73 396.557C500.293 396.562 502.83 396.05 505.19 395.052C507.314 394.175 509.191 392.79 510.655 391.019C510.759 390.893 510.908 390.813 511.07 390.797C511.232 390.78 511.395 390.827 511.522 390.929L520.144 397.801C520.262 397.898 520.339 398.036 520.36 398.187C520.381 398.339 520.345 398.492 520.259 398.619C517.793 401.889 514.571 404.511 510.868 406.259C506.812 408.232 502.355 409.243 497.844 409.212C492.731 409.269 487.69 408.004 483.21 405.539C478.879 403.173 475.278 399.668 472.796 395.404C470.272 391.085 468.966 386.163 469.017 381.162C469 377.426 469.668 373.719 470.988 370.224" fill="#1D1753"/>
<path d="M530.999 393.44C531.83 392.612 532.82 391.96 533.91 391.526C535 391.091 536.166 390.883 537.339 390.913C538.498 390.888 539.65 391.099 540.725 391.533C541.8 391.967 542.776 392.614 543.593 393.437C544.41 394.259 545.051 395.239 545.478 396.317C545.905 397.395 546.108 398.548 546.076 399.707C546.107 400.874 545.901 402.035 545.471 403.121C545.041 404.206 544.395 405.193 543.573 406.022C542.763 406.849 541.792 407.501 540.719 407.935C539.647 408.37 538.496 408.579 537.339 408.55C536.169 408.571 535.007 408.356 533.922 407.92C532.836 407.484 531.849 406.834 531.02 406.01C530.19 405.185 529.534 404.202 529.09 403.12C528.647 402.037 528.426 400.876 528.439 399.707C528.412 398.542 528.625 397.385 529.066 396.307C529.506 395.228 530.164 394.253 530.999 393.44" fill="#1D1753"/>
</svg>
