<svg width="402" height="196" viewBox="0 0 402 196" fill="none" xmlns="http://www.w3.org/2000/svg">
<path d="M1.66016 166.816H11.9529C14.6921 166.816 16.7673 167.562 18.3444 168.971C19.9215 170.381 20.6686 172.205 20.6686 174.526C20.6686 175.936 20.2536 177.262 19.5065 178.34C18.7595 179.418 17.7634 180.247 16.5183 180.579C17.9294 180.91 19.1745 181.739 20.0876 182.9C21.0006 184.144 21.4987 185.553 21.4987 187.294C21.4987 189.616 20.6686 191.523 19.0915 193.015C17.5144 194.508 15.3562 195.254 12.7 195.254H1.66016V166.816ZM7.13857 178.589H11.1229C12.368 178.589 13.3641 178.257 14.1111 177.594C14.8582 176.931 15.1902 176.102 15.1902 174.941C15.1902 173.863 14.8582 172.951 14.1111 172.371C13.3641 171.707 12.368 171.459 11.0399 171.459H7.13857V178.589V178.589ZM7.13857 190.777H11.6209C12.949 190.777 14.0281 190.445 14.7752 189.782C15.5222 189.118 15.9372 188.206 15.9372 187.046C15.9372 185.885 15.6052 184.973 14.8582 184.31C14.1111 183.646 13.115 183.232 11.7039 183.232H7.13857V190.777Z" fill="#323E48"/>
<path d="M37.7683 188.372L42.2507 189.699C41.7526 191.523 40.6735 193.015 39.0964 194.176C37.5193 195.337 35.6101 195.917 33.203 195.917C30.3807 195.917 27.9736 194.922 25.9814 193.015C23.9892 191.108 22.9932 188.538 22.9932 185.305C22.9932 182.237 23.9892 179.75 25.8984 177.76C27.8075 175.853 30.1317 174.858 32.7879 174.858C35.8592 174.858 38.2664 175.77 40.0095 177.594C41.7526 179.418 42.5827 181.905 42.5827 185.139C42.5827 185.388 42.5827 185.636 42.5827 185.885C42.5827 186.134 42.5827 186.383 42.5827 186.548V186.797H28.3886C28.4716 188.124 28.9696 189.119 29.8827 190.031C30.8788 190.86 32.0409 191.357 33.369 191.357C35.5271 191.357 37.0213 190.362 37.7683 188.372ZM28.3886 183.232H37.2703C37.1873 182.154 36.8552 181.242 36.1082 180.496C35.3611 179.75 34.282 179.335 32.8709 179.335C31.5428 179.335 30.5468 179.75 29.7167 180.579C28.8866 181.325 28.4716 182.237 28.3886 183.232Z" fill="#323E48"/>
<path d="M52.6258 169.635V175.521H56.6101V180.247H52.6258V188.538C52.6258 189.367 52.7918 189.948 53.2069 190.279C53.6219 190.611 54.2029 190.777 54.95 190.777C55.6971 190.777 56.1951 190.694 56.6101 190.611V195.005C55.8631 195.337 54.784 195.503 53.6219 195.503C51.7127 195.503 50.1356 194.922 49.0565 193.844C47.8945 192.767 47.3964 191.274 47.3964 189.367V180.33H43.8271V175.604H44.8232C45.8193 175.604 46.5664 175.355 47.0644 174.775C47.5624 174.195 47.8114 173.448 47.8114 172.536V169.8H52.6258V169.635Z" fill="#323E48"/>
<path d="M67.1522 169.635V175.521H71.1365V180.247H67.1522V188.538C67.1522 189.367 67.3182 189.948 67.7332 190.279C68.1483 190.611 68.7293 190.777 69.4764 190.777C70.2234 190.777 70.7215 190.694 71.1365 190.611V195.005C70.3894 195.337 69.3103 195.503 68.1483 195.503C66.2391 195.503 64.662 194.922 63.5829 193.844C62.4208 192.767 61.9228 191.274 61.9228 189.367V180.33H58.3535V175.604H59.3496C60.3457 175.604 61.0927 175.355 61.5908 174.775C62.0888 174.195 62.3378 173.448 62.3378 172.536V169.8H67.1522V169.635Z" fill="#323E48"/>
<path d="M87.655 188.372L92.1374 189.699C91.6393 191.523 90.5603 193.015 88.9831 194.176C87.406 195.337 85.4969 195.917 83.0897 195.917C80.2674 195.917 77.8603 194.922 75.8681 193.015C73.876 191.108 72.8799 188.538 72.8799 185.305C72.8799 182.237 73.876 179.75 75.7851 177.76C77.6943 175.853 80.0184 174.858 82.6746 174.858C85.7459 174.858 88.1531 175.77 89.8962 177.594C91.6393 179.418 92.4694 181.905 92.4694 185.139C92.4694 185.388 92.4694 185.636 92.4694 185.885C92.4694 186.134 92.4694 186.383 92.4694 186.548V186.797H78.2753C78.3583 188.124 78.8563 189.119 79.7694 190.031C80.7655 190.86 81.9276 191.357 83.2557 191.357C85.4139 191.357 86.908 190.362 87.655 188.372ZM78.2753 183.232H87.157C87.074 182.154 86.7419 181.242 85.9949 180.496C85.2478 179.75 84.1688 179.335 82.7576 179.335C81.4295 179.335 80.4335 179.75 79.6034 180.579C78.7733 181.325 78.2753 182.237 78.2753 183.232Z" fill="#323E48"/>
<path d="M106.912 175.521V180.91C106.414 180.828 105.833 180.745 105.335 180.745C103.841 180.745 102.596 181.159 101.6 182.071C100.686 182.983 100.188 184.393 100.188 186.382V195.42H94.793V175.604H100.022V178.506C101.018 176.433 102.845 175.438 105.667 175.438C105.999 175.438 106.414 175.438 106.912 175.521Z" fill="#323E48"/>
<path d="M145.51 195.337H139.949V183.481H127.498V195.337H121.937V166.816H127.498V178.257H139.949V166.816H145.51V195.337Z" fill="#323E48"/>
<path d="M163.191 188.372L167.673 189.699C167.175 191.523 166.096 193.015 164.519 194.176C162.942 195.337 161.033 195.917 158.626 195.917C155.804 195.917 153.396 194.922 151.404 193.015C149.412 191.108 148.416 188.538 148.416 185.305C148.416 182.237 149.412 179.75 151.321 177.76C153.23 175.853 155.555 174.858 158.211 174.858C161.282 174.858 163.689 175.77 165.432 177.594C167.175 179.418 168.006 181.905 168.006 185.139C168.006 185.388 168.006 185.636 168.006 185.885C168.006 186.134 168.006 186.383 168.006 186.548V186.797H153.811C153.894 188.124 154.392 189.119 155.306 190.031C156.302 190.86 157.464 191.357 158.792 191.357C160.95 191.357 162.527 190.362 163.191 188.372ZM153.811 183.232H162.693C162.61 182.154 162.278 181.242 161.531 180.496C160.784 179.75 159.705 179.335 158.294 179.335C156.966 179.335 155.97 179.75 155.14 180.579C154.309 181.325 153.894 182.237 153.811 183.232Z" fill="#323E48"/>
<path d="M169.997 189.948C169.997 188.289 170.578 186.88 171.657 185.885C172.736 184.89 174.147 184.227 175.891 183.978L180.788 183.232C181.784 183.066 182.282 182.651 182.282 181.822C182.282 181.076 182.033 180.496 181.452 179.998C180.871 179.501 180.041 179.252 178.962 179.252C177.8 179.252 176.97 179.584 176.306 180.164C175.642 180.745 175.309 181.574 175.226 182.486L170.495 181.491C170.661 179.75 171.491 178.257 173.068 176.931C174.562 175.604 176.555 174.941 179.045 174.941C182.033 174.941 184.191 175.604 185.602 177.014C187.013 178.423 187.677 180.247 187.677 182.403V192.103C187.677 193.264 187.76 194.342 187.926 195.254H183.029C182.863 194.673 182.863 193.844 182.863 192.849C181.618 194.839 179.626 195.751 177.053 195.751C174.977 195.751 173.4 195.171 172.155 194.01C170.661 193.015 169.997 191.606 169.997 189.948ZM177.966 191.937C179.211 191.937 180.29 191.606 181.12 190.86C181.95 190.113 182.365 188.953 182.365 187.377V186.465L177.883 187.129C176.223 187.377 175.392 188.206 175.392 189.616C175.392 190.279 175.641 190.777 176.057 191.274C176.555 191.689 177.136 191.937 177.966 191.937Z" fill="#323E48"/>
<path d="M196.31 195.337H190.915V166.235H196.31V195.337Z" fill="#323E48"/>
<path d="M208.346 169.635V175.521H212.33V180.247H208.346V188.538C208.346 189.367 208.512 189.948 208.927 190.279C209.342 190.611 209.923 190.777 210.67 190.777C211.417 190.777 211.915 190.694 212.33 190.611V195.005C211.583 195.337 210.504 195.503 209.342 195.503C207.432 195.503 205.855 194.922 204.776 193.844C203.614 192.767 203.116 191.274 203.116 189.367V180.33H199.547V175.604H200.543C201.539 175.604 202.286 175.355 202.784 174.775C203.282 174.195 203.531 173.448 203.531 172.536V169.8H208.346V169.635Z" fill="#323E48"/>
<path d="M221.212 183.729V195.337H215.816V166.235H221.212V177.262C222.457 175.853 224.2 175.107 226.607 175.107C229.014 175.107 230.841 175.853 232.086 177.262C233.331 178.755 233.995 180.579 233.995 182.9V195.337H228.599V183.812C228.599 182.651 228.267 181.656 227.686 180.993C227.105 180.247 226.192 179.915 224.947 179.915C223.868 179.915 222.955 180.247 222.291 180.993C221.627 181.739 221.295 182.568 221.212 183.729Z" fill="#323E48"/>
<path d="M273.921 195.337H268.111L255.162 175.107V195.337H249.601V166.816H256.49L268.36 185.719V166.816H273.921V195.337Z" fill="#00B2E2"/>
<path d="M291.684 188.372L296.167 189.699C295.669 191.523 294.59 193.015 293.012 194.176C291.435 195.337 289.526 195.917 287.119 195.917C284.297 195.917 281.89 194.922 279.897 193.015C277.905 191.108 276.909 188.538 276.909 185.305C276.909 182.237 277.905 179.75 279.814 177.76C281.724 175.853 284.048 174.858 286.704 174.858C289.775 174.858 292.182 175.77 293.926 177.594C295.669 179.418 296.499 181.905 296.499 185.139C296.499 185.388 296.499 185.636 296.499 185.885C296.499 186.134 296.499 186.383 296.499 186.548V186.797H282.305C282.388 188.124 282.886 189.119 283.799 190.031C284.795 190.86 285.957 191.357 287.285 191.357C289.443 191.357 290.937 190.362 291.684 188.372ZM282.305 183.232H291.186C291.103 182.154 290.771 181.242 290.024 180.496C289.277 179.75 288.198 179.335 286.787 179.335C285.459 179.335 284.463 179.75 283.633 180.579C282.803 181.408 282.388 182.237 282.305 183.232Z" fill="#00B2E2"/>
<path d="M306.543 169.635V175.521H310.527V180.247H306.543V188.538C306.543 189.367 306.709 189.948 307.124 190.279C307.539 190.611 308.12 190.777 308.867 190.777C309.614 190.777 310.112 190.694 310.527 190.611V195.005C309.78 195.337 308.701 195.503 307.539 195.503C305.63 195.503 304.053 194.922 302.974 193.844C301.811 192.767 301.313 191.274 301.313 189.367V180.33H297.744V175.604H298.74C299.736 175.604 300.483 175.355 300.981 174.775C301.479 174.195 301.728 173.448 301.728 172.536V169.8H306.543V169.635Z" fill="#00B2E2"/>
<path d="M325.718 175.604H331.362L335.595 188.372L339.248 175.604H344.56L338.335 195.42H332.939L328.291 181.905L323.725 195.42H318.247L311.938 175.604H317.583L321.235 188.289L325.718 175.604Z" fill="#00B2E2"/>
<path d="M347.963 177.926C349.955 175.936 352.445 174.941 355.433 174.941C358.422 174.941 360.912 175.936 362.904 177.926C364.896 179.915 365.892 182.403 365.892 185.47C365.892 188.538 364.896 191.025 362.904 193.015C360.912 195.005 358.422 196 355.433 196C352.445 196 349.955 195.005 347.963 193.015C345.971 191.025 344.975 188.538 344.975 185.47C344.975 182.403 345.971 179.915 347.963 177.926ZM351.864 189.616C352.86 190.611 354.022 191.108 355.433 191.108C356.845 191.108 358.007 190.611 359.003 189.616C359.999 188.621 360.497 187.212 360.497 185.47C360.497 183.729 359.999 182.32 359.003 181.325C358.007 180.33 356.845 179.833 355.433 179.833C354.022 179.833 352.86 180.33 351.864 181.325C350.868 182.32 350.37 183.729 350.37 185.47C350.37 187.212 350.868 188.621 351.864 189.616Z" fill="#00B2E2"/>
<path d="M380.253 175.521V180.91C379.755 180.828 379.174 180.745 378.676 180.745C377.181 180.745 375.936 181.159 374.94 182.071C374.027 182.983 373.529 184.393 373.529 186.382V195.42H368.134V175.604H373.363V178.506C374.359 176.433 376.185 175.438 379.008 175.438C379.257 175.438 379.672 175.438 380.253 175.521Z" fill="#00B2E2"/>
<path d="M401.834 175.604L393.865 183.895L402 195.337H395.442L390.213 187.792L387.972 190.113V195.337H382.576V166.235H387.972V182.9L394.861 175.521H401.834V175.604Z" fill="#00B2E2"/>
<path d="M279.897 18.9865V127.848C279.897 138.129 288.281 146.503 298.574 146.503C308.867 146.503 317.25 138.129 317.25 127.848V73.3756L283.882 30.4281C281.143 26.9459 279.897 22.9662 279.897 18.9865Z" fill="#93D50A"/>
<path d="M313.018 7.379C315.591 10.5296 317.085 14.5922 317.085 18.9864V73.3756L368.217 139.206L368.3 139.289C365.81 136.139 364.316 132.159 364.316 127.765V73.3756L313.184 7.54483L313.018 7.379Z" fill="#E72076"/>
<path d="M368.466 139.455L368.798 139.87L369.13 140.201L369.379 140.533L369.794 140.948C376.351 147.497 386.893 148.327 394.364 142.523C402.498 136.222 403.992 124.531 397.684 116.406L364.315 73.4586V127.848C364.398 132.242 365.893 136.305 368.466 139.455Z" fill="#041A71"/>
<path d="M382.992 0.414551C372.699 0.414551 364.315 8.7885 364.315 19.0694V73.5415L397.684 116.489C400.257 119.805 401.502 123.702 401.585 127.516V19.0694C401.668 8.70559 393.285 0.414551 382.992 0.414551Z" fill="#00B2E2"/>
<path d="M160.867 0.497467C150.574 0.497467 142.273 8.87141 142.273 19.1523V128.014C142.273 138.294 150.657 146.668 160.867 146.668C171.16 146.668 179.543 138.294 179.543 128.014V92.1134H170.081C159.788 92.1134 151.404 83.7395 151.404 73.4586C151.404 63.1777 159.788 54.8037 170.081 54.8037H179.543V19.0694C179.46 8.87141 171.16 0.497467 160.867 0.497467Z" fill="#93D50A"/>
<path d="M244.952 0.497467C234.659 0.497467 226.275 8.87141 226.275 19.1523V54.8867H235.738C246.031 54.8867 254.415 63.2606 254.415 73.5415C254.415 83.8224 246.031 92.1963 235.738 92.1963H226.358V128.097C226.358 138.377 234.742 146.751 245.035 146.751C255.328 146.751 263.711 138.377 263.711 128.097V19.1523C263.628 8.87141 255.245 0.497467 244.952 0.497467Z" fill="#00B2E2"/>
<path d="M226.359 54.8867H179.46V92.1134H226.359V54.8867Z" fill="#E72076"/>
<path d="M254.415 73.4586C254.415 63.1777 246.031 54.8037 235.738 54.8037H226.358V92.0305H235.821C246.114 92.1134 254.415 83.7394 254.415 73.4586Z" fill="#041A71"/>
<path d="M72.7139 0H18.6768C28.9696 0 37.3532 8.37394 37.3532 18.6548V37.3096H72.7139C75.9512 37.3096 78.6074 39.9628 78.6074 43.1963C78.6074 46.5956 76.0342 49.2487 72.7139 49.2487C85.7459 49.2487 98.1969 52.7309 107.66 59.115C109.071 60.0271 110.316 61.022 111.561 62.0169C114.3 56.2961 115.877 49.912 115.877 43.1134C115.877 19.401 96.5368 0 72.7139 0Z" fill="#00B2E2"/>
<path d="M111.561 62.0169C104.588 76.4433 89.7302 86.4754 72.7139 86.4754C78.1093 86.4754 90.6433 87.5533 90.6433 97.5025C90.6433 103.887 85.3309 109.11 78.8564 109.11H37.3532V127.765C37.3532 138.046 28.9696 146.42 18.6768 146.42H78.8564C105.916 146.42 127.913 124.531 127.913 97.5854C127.913 83.1591 122.103 70.7225 111.561 62.0169Z" fill="#E72076"/>
<path d="M72.7135 49.2487C62.4207 49.2487 54.1201 57.6226 54.1201 67.9035C54.1201 78.1844 62.5038 86.5583 72.7135 86.5583C89.8128 86.5583 104.588 76.5262 111.561 62.0998C110.315 61.1049 109.07 60.1099 107.659 59.1979C98.1135 52.7309 85.7455 49.2487 72.7135 49.2487Z" fill="#041A71"/>
<path d="M0 18.6548V127.765C0 117.484 8.38364 109.193 18.6764 109.193H37.3529V37.3096H18.6764C8.38364 37.2267 0 28.9357 0 18.6548Z" fill="#93D50A"/>
<path d="M18.6764 37.2267H37.3529V18.6548C37.3529 8.37394 28.9692 0 18.6764 0C8.38364 0 0 8.37394 0 18.6548C0 28.9357 8.38364 37.2267 18.6764 37.2267Z" fill="#005CB9"/>
<path d="M37.3529 127.765V109.11H18.6764C8.38364 109.11 0 117.484 0 127.765C0 138.046 8.38364 146.42 18.6764 146.42C28.9692 146.337 37.3529 138.046 37.3529 127.765Z" fill="#DB0632"/>
<path d="M169.997 54.8867C159.704 54.8867 151.32 63.2606 151.32 73.5415C151.32 83.8224 159.704 92.1963 169.997 92.1963H179.459V54.9696H169.997V54.8867Z" fill="#DB0632"/>
<path d="M313.017 7.37902L312.685 6.96447L312.353 6.63283L312.104 6.30119L311.689 5.88664C305.131 -0.663274 294.589 -1.49238 287.119 4.31134C278.984 10.6125 277.49 22.3029 283.798 30.4281L317.167 73.3756V18.9865C317.167 14.5922 315.59 10.6125 313.017 7.37902Z" fill="#DB0632"/>
</svg>
