<svg width="413" height="120" viewBox="0 0 413 120" fill="none" xmlns="http://www.w3.org/2000/svg">
<g clip-path="url(#clip0_511_2181)">
<path d="M20.0442 63.7709C20.0442 63.7709 20.8347 48.0723 45.1315 38.6134V44.8214C39.8323 46.8154 31.4022 51.7438 26.8449 63.6308C26.8449 63.6308 30.5764 76.214 45.1315 81.8659V88.1959C37.3196 85.7408 24.7914 79.4378 20.0442 63.7483V63.7709ZM55.7432 14.419H75.337V19.6775C68.7935 19.4191 62.2404 19.7095 55.7432 20.5456V14.419ZM45.1448 69.7573C42.4598 68.4009 40.3843 66.4974 39.2803 63.8794C39.2803 63.8794 40.7641 60.0633 45.1448 57.1967V69.7573ZM55.7432 105.174C76.94 105.803 101.581 96.4476 110.409 87.902L103.546 74.9932C103.546 74.9932 84.6945 91.1304 55.7432 89.9548V83.8598C62.3672 83.9322 75.8183 83.6066 86.5271 80.3421V69.6895C86.5271 69.6895 69.5388 73.7815 55.7432 72.4657V69.902H63.979V56.8666H55.7343V53.2133C61.3427 52.6164 70.051 52.9872 83.3608 56.1432L83.4403 45.3233C83.4403 45.3233 67.1011 41.8463 55.7343 42.5878V36.624C62.2648 36.2621 68.8119 36.3664 75.3281 36.9359V41.6564H85.8426V38.3376C89.9738 39.0778 94.0517 40.102 98.0485 41.4032L101.793 23.254C96.5419 21.971 91.2134 21.0451 85.8426 20.4823V14.5682V0H73.204V4.72946H53.6058V0H45.0918L45.1227 4.72946V22.5983C26.5181 27.3459 8.46989 38.7581 0 63.6398C0 63.6398 10.0773 96.4612 45.1227 103.922V108.895H35.7608V120.014H67.3396V108.882H55.7343L55.7432 105.174Z" fill="white"/>
</g>
<g clip-path="url(#clip1_511_2181)">
<path d="M387.288 114.779C390.429 116.119 393.806 116.806 397.218 116.8C399.398 116.814 401.557 116.369 403.557 115.496C405.431 114.686 407.111 113.481 408.483 111.963C409.86 110.44 410.942 108.671 411.672 106.747C412.437 104.688 412.82 102.505 412.8 100.306C412.828 98.6772 412.623 97.0524 412.191 95.4822C411.788 94.1542 411.185 92.8964 410.402 91.7532C409.632 90.5926 408.702 89.5478 407.64 88.65C406.539 87.7113 405.294 86.7464 403.907 85.7425C403.521 85.4094 403.119 85.0961 402.701 84.8037C402.263 84.4914 401.863 84.1282 401.509 83.7215C401.16 83.3212 400.856 82.884 400.601 82.4177C400.345 81.9744 400.21 81.4703 400.212 80.9574C400.193 80.5213 400.287 80.0876 400.485 79.699C400.682 79.3104 400.977 78.9802 401.34 78.7408C402.008 78.2401 402.815 77.962 403.648 77.9455C404.442 77.9516 405.227 78.1201 405.955 78.441C406.715 78.7925 407.433 79.2299 408.094 79.7448C409.418 80.7262 410.562 81.9305 411.478 83.3043V68.3492C410.032 67.5826 408.506 66.9792 406.927 66.5499C405.345 66.1036 403.71 65.8755 402.066 65.8719C399.595 65.7858 397.147 66.3809 394.988 67.593C393.18 68.6646 391.609 70.098 390.373 71.8044C389.236 73.407 388.389 75.199 387.871 77.098C387.416 78.7156 387.168 80.3849 387.132 82.0656C387.102 83.7066 387.343 85.3413 387.845 86.9029C388.307 88.2519 388.962 89.5258 389.79 90.684C390.667 91.869 391.657 92.9651 392.745 93.9567C393.847 94.9476 395.053 95.9515 396.349 96.9555C396.777 97.2554 397.179 97.5683 397.555 97.8682C397.913 98.1673 398.246 98.4943 398.553 98.8461C398.89 99.1788 399.155 99.5784 399.331 100.02C399.523 100.522 399.616 101.058 399.603 101.597C399.626 102.083 399.517 102.567 399.289 102.996C399.061 103.425 398.721 103.784 398.307 104.035C397.539 104.555 396.639 104.84 395.714 104.857C394.86 104.857 394.012 104.702 393.212 104.4C392.399 104.074 391.636 103.635 390.943 103.097C390.222 102.568 389.545 101.979 388.921 101.336C388.323 100.718 387.792 100.036 387.34 99.3024V114.714L387.288 114.779ZM375.478 115.952V78.7278H383.075V66.7194H354.957V78.7278H362.216V115.952H375.478ZM350.108 67.0454C349.045 66.6142 347.936 66.3079 346.803 66.1327C345.662 65.9532 344.509 65.866 343.354 65.8719C342.071 65.892 340.791 66.0229 339.53 66.2631C337.944 66.5578 336.396 67.0301 334.915 67.6712C333.223 68.3945 331.633 69.3369 330.183 70.4745C328.528 71.773 327.111 73.3527 325.996 75.1422C324.651 77.2914 323.641 79.6351 323.002 82.0917C322.201 85.2166 321.822 88.4354 321.874 91.6619C321.798 95.4082 322.345 99.141 323.494 102.705C324.429 105.569 325.903 108.226 327.837 110.529C329.58 112.555 331.756 114.16 334.202 115.222C336.659 116.282 339.308 116.815 341.98 116.787C343.357 116.802 344.731 116.662 346.077 116.37C347.414 116.07 348.717 115.633 349.966 115.066L350.744 101.284C349.794 102.199 348.726 102.98 347.568 103.605C346.358 104.196 345.022 104.478 343.679 104.427C342.211 104.462 340.774 104.003 339.595 103.123C338.501 102.291 337.614 101.215 337.002 99.9804C336.353 98.6538 335.916 97.2326 335.706 95.769C335.473 94.2896 335.352 92.7946 335.343 91.2968C335.355 89.8554 335.476 88.417 335.706 86.9942C335.916 85.5182 336.353 84.0841 337.002 82.7436C337.608 81.4797 338.495 80.3732 339.595 79.5101C340.829 78.6118 342.325 78.153 343.847 78.2063C345.029 78.1624 346.202 78.4227 347.256 78.9625C348.302 79.5742 349.261 80.324 350.108 81.1921V67.0454ZM291.773 115.952H316.403V104.335H305.034V96.8382H315.237V85.2079H305.034V78.3366H316.403V66.7194H291.773V115.952ZM267.673 115.952V99.824C270.307 99.9306 272.944 99.725 275.529 99.2112C277.727 98.7936 279.81 97.9041 281.635 96.6035C283.353 95.2761 284.694 93.5181 285.524 91.5055C286.53 88.9525 287.002 86.2184 286.911 83.4738C287.002 80.7044 286.471 77.95 285.356 75.416C284.4 73.3248 282.91 71.5254 281.039 70.2007C279.084 68.8637 276.878 67.941 274.557 67.4887C271.899 66.9507 269.192 66.6886 266.481 66.7064H254.36V115.939L267.673 115.952ZM271.99 87.4244C271.394 87.9208 270.704 88.2919 269.963 88.5158C269.222 88.7397 268.443 88.812 267.673 88.7283V77.3588H268.646C269.363 77.3132 270.081 77.4548 270.728 77.7701C271.375 78.0853 271.931 78.5634 272.34 79.1581C273.172 80.3766 273.602 81.8267 273.572 83.3043C273.625 84.0754 273.511 84.849 273.238 85.5715C272.965 86.2941 272.539 86.9485 271.99 87.4896V87.4244ZM222.483 114.87C225.628 116.21 229.01 116.897 232.426 116.891C234.602 116.903 236.756 116.459 238.752 115.587C240.626 114.778 242.306 113.573 243.678 112.054C245.06 110.534 246.142 108.764 246.867 106.839C247.637 104.78 248.023 102.597 248.008 100.398C248.04 98.7674 247.83 97.1415 247.386 95.5734C246.989 94.2433 246.385 92.9847 245.597 91.8444C244.834 90.6779 243.904 89.6321 242.835 88.7413C241.733 87.8025 240.489 86.8377 239.102 85.8337C238.72 85.5006 238.322 85.1872 237.909 84.895C237.469 84.5794 237.065 84.2165 236.704 83.8128C236.355 83.4125 236.051 82.9753 235.796 82.5089C235.54 82.0657 235.405 81.5615 235.407 81.0486C235.387 80.6109 235.481 80.1754 235.682 79.7863C235.882 79.3971 236.181 79.068 236.548 78.8321C237.209 78.3276 238.013 78.0489 238.843 78.0368C239.637 78.0403 240.423 78.2089 241.15 78.5322C241.913 78.8785 242.631 79.3163 243.289 79.8361C243.971 80.3408 244.604 80.9083 245.182 81.5311C245.719 82.1088 246.205 82.7327 246.634 83.3956V68.3492C245.193 67.5804 243.671 66.9768 242.096 66.5499C240.51 66.1037 238.87 65.8756 237.222 65.8719C234.751 65.7858 232.303 66.3809 230.144 67.593C228.339 68.6649 226.773 70.0983 225.542 71.8044C224.4 73.404 223.552 75.197 223.04 77.098C222.549 78.7102 222.27 80.3804 222.21 82.0656C222.18 83.7066 222.421 85.3413 222.923 86.9029C223.385 88.2543 224.045 89.5288 224.881 90.684C225.75 91.8719 226.736 92.9683 227.824 93.9567C228.938 94.9476 230.131 95.9515 231.427 96.9555C231.868 97.2554 232.27 97.5683 232.633 97.8682C232.992 98.1706 233.33 98.4973 233.644 98.8461C233.972 99.1866 234.236 99.5842 234.422 100.02C234.604 100.525 234.692 101.06 234.681 101.597C234.704 102.083 234.595 102.567 234.367 102.996C234.139 103.425 233.8 103.784 233.385 104.035C232.619 104.557 231.718 104.842 230.792 104.857C229.942 104.857 229.099 104.702 228.303 104.4C227.486 104.074 226.719 103.635 226.022 103.097C225.301 102.571 224.629 101.982 224.012 101.336C223.406 100.721 222.871 100.039 222.418 99.3024V114.714L222.483 114.87ZM191.37 116.044H216.001V104.427H204.541V96.8382H214.743V85.2079H204.541V78.3366H215.91V66.7194H191.279V115.952L191.37 116.044ZM186.937 116.044L177.071 95.5474C179.517 94.6628 181.565 92.9226 182.84 90.6449C184.071 88.33 184.683 85.7331 184.616 83.1087C184.707 80.3416 184.198 77.5877 183.125 75.0379C182.208 73.0293 180.782 71.2983 178.99 70.0181C177.109 68.7148 174.975 67.8261 172.729 67.4105C170.118 66.9132 167.465 66.673 164.808 66.6933H152V115.926H165.249V102.836C165.249 101.61 165.249 100.411 165.184 99.2112C165.119 98.0116 165.093 96.7991 165.054 95.5865L165.184 95.4561L172.521 115.952L186.937 116.044ZM165.249 89.4454V77.2805C166.853 77.1397 168.452 77.6045 169.734 78.5844C170.363 79.175 170.847 79.9033 171.151 80.7128C171.454 81.5222 171.568 82.3912 171.484 83.2521C171.486 84.0402 171.364 84.8236 171.121 85.573C170.9 86.3041 170.548 86.9889 170.084 87.5939C169.631 88.1816 169.056 88.6622 168.399 89.0021C167.683 89.3618 166.891 89.5408 166.091 89.5236H165.249V89.4454Z" fill="white"/>
<path d="M375.36 57.4491H388.739V42.2854C388.739 39.8081 388.622 37.383 388.389 35.01C388.155 32.637 387.952 30.2119 387.779 27.7346L387.922 27.6042L398.293 57.4621H411.671V5.68659H398.293V18.8684C398.291 21.8552 398.485 24.8389 398.876 27.7997C399.252 30.7204 399.589 33.6931 399.861 36.718L399.719 36.8614L388.596 5.68659H375.36V57.4491ZM330.584 41.0729C331.25 44.1184 332.415 47.0311 334.033 49.6912C335.557 52.2096 337.632 54.3455 340.1 55.9366C342.854 57.5179 345.97 58.3495 349.142 58.3495C352.313 58.3495 355.43 57.5179 358.184 55.9366C360.658 54.3496 362.738 52.2131 364.264 49.6912C365.871 47.026 367.036 44.115 367.712 41.0729C369.164 34.8203 369.164 28.3154 367.712 22.0628C367.038 19.0036 365.873 16.0751 364.264 13.3923C362.735 10.8733 360.655 8.73753 358.184 7.1469C355.427 5.57438 352.311 4.74777 349.142 4.74777C345.972 4.74777 342.857 5.57438 340.1 7.1469C337.635 8.74225 335.561 10.8773 334.033 13.3923C332.417 16.0535 331.252 18.9659 330.584 22.0107C329.115 28.2612 329.115 34.7702 330.584 41.0207V41.0729ZM343.716 29.2861C343.716 28.3995 343.807 27.4477 343.924 26.4437C344.038 25.4183 344.206 24.3999 344.429 23.3928C344.639 22.4608 344.952 21.5555 345.363 20.6938C345.731 19.8936 346.266 19.1823 346.931 18.6077C347.549 18.0791 348.337 17.7961 349.148 17.8123C349.958 17.7997 350.746 18.0822 351.365 18.6077C352.014 19.1781 352.535 19.8802 352.895 20.6677C353.322 21.5657 353.644 22.5109 353.854 23.484C354.077 24.4911 354.246 25.5096 354.36 26.535C354.476 27.539 354.541 28.4908 354.567 29.3774C354.593 30.264 354.567 30.9942 354.567 31.5418C354.567 32.0894 354.567 32.8456 354.567 33.7062C354.567 34.5667 354.476 35.5446 354.36 36.5616C354.246 37.587 354.077 38.6054 353.854 39.6125C353.644 40.5857 353.322 41.5309 352.895 42.4288C352.532 43.2144 352.011 43.9159 351.365 44.4889C350.744 45.0097 349.957 45.2874 349.148 45.2712C348.339 45.2922 347.55 45.0139 346.931 44.4889C346.275 43.9265 345.741 43.2341 345.363 42.4549C344.935 41.557 344.613 40.6118 344.404 39.6386C344.181 38.6315 344.012 37.613 343.898 36.5876C343.781 35.5706 343.716 34.6319 343.691 33.7322C343.665 32.8326 343.691 32.1155 343.691 31.5678C343.691 31.0202 343.691 30.264 343.691 29.4035L343.716 29.2861ZM318.139 57.4491V18.3339H326.125V5.68659H296.555V18.3208H304.191V57.4361L318.139 57.4491ZM296.659 57.4491V45.2321H286.288V5.68659H272.275V57.4491H296.659ZM267.647 57.4491L257.276 35.8966C259.849 34.971 262.003 33.1421 263.343 30.7464C264.634 28.3457 265.295 25.6529 265.261 22.9234C265.362 20.0157 264.821 17.1217 263.68 14.4484C262.724 12.332 261.23 10.5063 259.35 9.15481C257.369 7.79389 255.125 6.86966 252.764 6.44282C250.02 5.92543 247.234 5.67221 244.442 5.68659H230.973V57.4491H244.896V43.6545C244.896 42.3506 244.896 41.0468 244.818 39.8472C244.74 38.6477 244.727 37.3178 244.688 36.04L244.818 35.8966L252.596 57.4491H267.647ZM244.896 29.586V16.8084C246.571 16.6378 248.249 17.1028 249.601 18.1122C250.263 18.7318 250.773 19.4965 251.092 20.3469C251.411 21.1972 251.531 22.1101 251.442 23.0146C251.441 23.8419 251.314 24.6641 251.066 25.4528C250.838 26.2234 250.469 26.9442 249.977 27.5781C249.487 28.2272 248.851 28.7501 248.121 29.1037C247.391 29.4573 246.587 29.6315 245.777 29.6121H244.896V29.586ZM226.449 57.4491L215.52 5.68659H198.525L186.171 57.4491H200.509L201.675 50.7865H211.022L212.046 57.4491H226.449ZM203.516 39.8081L205.422 27.7997C205.694 26.196 205.927 24.5662 206.109 22.9234C206.29 21.2805 206.485 19.6507 206.718 18.047H206.861C207.042 19.6507 207.198 21.2805 207.327 22.9234C207.457 24.5662 207.651 26.196 207.872 27.7997L209.376 39.8081H203.516ZM181.686 6.03863C180.568 5.58415 179.402 5.26041 178.211 5.07379C175.674 4.66458 173.084 4.71315 170.563 5.21721C168.9 5.52149 167.278 6.01581 165.727 6.69055C163.945 7.45355 162.268 8.4439 160.736 9.63723C159.002 11.0099 157.515 12.6727 156.342 14.5527C154.935 16.8128 153.877 19.2747 153.205 21.8542C152.349 25.1386 151.943 28.5251 151.999 31.9199C151.922 35.8526 152.5 39.7706 153.71 43.511C154.689 46.5307 156.243 49.3296 158.286 51.7513C160.11 53.8922 162.399 55.583 164.976 56.6929C167.54 57.7969 170.302 58.3604 173.091 58.3488C174.538 58.3571 175.981 58.204 177.395 57.8924C178.807 57.5741 180.18 57.1019 181.491 56.4843L182.308 41.9986C181.306 42.9582 180.181 43.7782 178.963 44.4368C177.708 45.0472 176.325 45.3425 174.932 45.2973C173.396 45.3594 171.885 44.9002 170.641 43.9935C169.495 43.1238 168.571 41.9933 167.944 40.6947C167.263 39.3011 166.8 37.8103 166.57 36.2747C166.327 34.7175 166.201 33.1441 166.194 31.5678C166.205 30.0523 166.331 28.5398 166.57 27.0435C166.812 25.495 167.284 23.9918 167.97 22.5844C168.621 21.25 169.571 20.0853 170.744 19.1814C172.045 18.2602 173.614 17.8014 175.204 17.8775C176.448 17.8312 177.684 18.105 178.795 18.6729C179.849 19.2887 180.821 20.038 181.686 20.9024V6.03863Z" fill="#FF5800"/>
</g>
<defs>
<clipPath id="clip0_511_2181">
<rect width="110.4" height="120" fill="white"/>
</clipPath>
<clipPath id="clip1_511_2181">
<rect width="260.8" height="112" fill="white" transform="translate(152 4.79999)"/>
</clipPath>
</defs>
</svg>
