<?xml version="1.0" encoding="utf-8"?>
<!-- Generator: Adobe Illustrator 19.2.1, SVG Export Plug-In . SVG Version: 6.00 Build 0)  -->
<svg version="1.1" id="layer" xmlns="http://www.w3.org/2000/svg" xmlns:xlink="http://www.w3.org/1999/xlink" x="0px" y="0px"
	 viewBox="0 0 652 652" style="enable-background:new 0 0 652 652;" xml:space="preserve">
<style type="text/css">
	.st0{fill:#004A9A;}
</style>
<g>
	<path class="st0" d="M227.1,323.3c1.6-0.8,3.5-1.3,3.7-3.1c0.3-3.4-4.6-5.3-8.7-4.9c-3.4,0.4-6.4,2.4-8.9,4
		c-4.7,3.1-9,7.3-12.3,12.3c-1.5,2.3-3.8,5.8-3.3,9c0.5,3.3,5.8,5.9,9.2,6.1c2.8,0.1,6.2-1.6,8.1-2.7c5.1-2.6,8.9-5.4,13.3-8.6
		c1.9-1.3,4.3-4.3,7.1-2.7c-0.4,2.9-3.1,4.7-5.2,6.5c-4.3,3.9-8.2,7.4-13.2,11.1c-2.1,1.6-5.6,3.3-5.9,6.2c-0.4,3.6,3.7,6.5,7.3,6.4
		c1.7-0.1,4.2-1.6,5.8-2.7c1.9-1.3,3.5-2.6,4.9-3.7c6-5.1,11.7-10.9,17-17c2.2-2.5,6.7-7,6.1-11c-0.6-3.7-7.8-5.4-12.4-5
		c-9.4,0.7-15.4,6.5-24,8.6C218.8,328.6,222.6,325.6,227.1,323.3 M324.5,325.3c-0.5,4.8-3.8,8.8-6.7,12.3c-1.3,1.6-3.1,3.3-4.9,4.7
		c-1.5,1.2-4,3.7-6.1,1.6c0.4-4.8,4-9.7,7.4-13.3c1.8-1.9,5.5-5.3,8.3-5.6C323.2,325,323.9,325,324.5,325.3 M313.3,320.6
		c-3.5,1.4-6.7,3.2-9.3,5.3c-4.5,3.7-10.3,10.7-10.2,19.1c0.1,7,5.5,12.3,12.4,12.3c4.5,0,8.6-2.2,11.7-4.3c3.5-2.4,6.2-4.8,8.7-7.4
		c2.4-2.4,5.3-5.4,7.4-8.6c2.5-3.7,6-10.6,3.4-16c-1.3-2.6-5.9-6.7-9-7.3c-1.2-0.2-2.9-0.2-3.5,1c-0.5,0.9,0.3,1.5,0,2.8
		C320.4,319,316.6,319.3,313.3,320.6 M204.6,308.5c2-0.2,4.3-1.8,6.1-3c1.8-1.2,4.3-2.4,4.9-4.1c1.7-5.2-3.8-7.8-8.6-7.2
		c-5.1,0.6-8.3,6.4-8.9,11.7C199.6,307.4,201.6,308.8,204.6,308.5 M277.5,301.4c0.7-1.2,1.9-2.5,1.8-4.1c-0.2-2.7-4.5-5.2-7.8-5.5
		c-6.5-0.6-8.7,7.5-10.5,12.4c-3.9,11-6.8,24.7-8.9,36.9c-0.4,2.7-1.3,5.6-1,8.1c0.5,4.3,6,10,10.8,9.3c2.5-0.4,4-4,5.3-6.1
		c3.8-5.9,6.5-11.2,10.5-16.1c0.7-0.8,1.5-2.1,2.8-2.2c-1,4.6-3.5,9.8-2.8,15.1c0.7,5.7,5.2,10,9.2,12.6c1.7,1.1,3.9,2.6,6.1,1.8
		c0.6-3-1.7-4.5-2.1-6.7c-1.4-7.7,0.7-18.3,1.9-25.3c0.4-2.6,1.3-5.2,1.2-7.2c-0.3-5.8-8.6-8.2-14.7-6.1c-5.8,2.1-9.7,9.3-13.3,12.6
		C268,319.5,272.3,309.8,277.5,301.4 M413.5,349.5c0.8,1.4,2.2,2.6,3.4,3.4c2.2,1.4,7,3.8,10.5,2.8c2.2-0.6,3.9-4,5.3-6.2
		c1.6-2.5,3.4-5,5-6.7c3.6-3.8,7.4-8.2,14.7-8.6c7.2-0.3,11.7,3.8,16,6.7c17.3,11.6,36.6,20.4,63.2,22.5
		c26.5,2.1,52.8-3.6,72.1-11.7c7.5-3.2,13.4-5.7,16.1-14.3c1.4-4.4,1.1-12.5-2.7-13.8c-3.6-1.2-6.9,2.6-9.2,4.6
		c-7.6,6.6-15.9,12.3-25.6,16.7c-12.4,5.6-29.2,9.7-46.8,9.2c-18-0.6-34.7-2.9-47.2-9.2c-6-3-11.7-7.1-17.2-11.1
		c-5.7-4.1-11.3-8-20.3-8c-10.1,0-17.6,4.8-22.7,9.5c0.1,0,0.2,0,0.2-0.2c2.7-9.3-2.9-15.3-12.7-14.5c-11.2,0.9-18,9.4-24.4,15.2
		c-0.9,0.8-2.2,2.2-3.3,1.9c-0.1-2.8,1.1-5.4,1.9-8.1c0.8-2.7,2.2-5.4,2.1-8c-0.2-2.7-2.2-4.5-4-5.6c-3.9-2.4-8.4-3.1-12.6-1
		c-5.2,2.5-9.5,7.7-13.3,12.6c-4,5.3-7.4,11-10.4,15.4c-0.1-10.8,1.4-19.5,3.8-28.7c1.6-6,4-12.7,7.1-17.6c1-1.6,2.8-3.7,2.7-5.6
		c-0.3-5.8-9.3-6-13.5-3.1c-3.4,2.4-5.4,8.6-6.8,13.5c-3.6,12.9-5.5,29.3-4.2,44.1c0.3,3.3,0.4,6.7,1.6,8.6c1.2,1.8,3.5,2.5,6.2,3.2
		c2.2,0.6,4.2,1.8,6.5,1.5c2.6-0.3,4.7-3.1,6.1-5c5-6.9,8.6-13.9,13.6-19.7c-0.3,3.9-1.5,6.9-2.5,10.5c-0.8,2.8-2.7,7.9-1.5,10.7
		c1,2.2,5,2.5,7.4,3.4c1.5,0.5,2.7,1.8,4.6,1.6c3.2-0.3,6-4.8,7.8-7.1c5.6-6.9,12.1-13.5,19.4-18.3c1.4-0.9,3.3-2.3,5.2-1.8
		C415.6,338.1,410.3,343.9,413.5,349.5 M149.9,278.4h5c2.2,0.7,5,1.8,5.9,4.1c1.7,4.5-2.5,6.2-4.9,8.3c-10.8,9.5-15.4,26.7-21,40.9
		c6.4-3.9,15.7-13.5,26.6-13.2c1,0,2.4,0.1,3.4,0.6c6.1,2.6,2.2,13.1,2.8,19.2c2.6-0.8,4.2-3.2,5.9-5.2c3.5-4,6.8-7.9,10.2-12
		c1.7-2,3.4-4.4,5.5-5.6c4.5-2.6,13.6-1.7,12.9,4.9c-0.2,1.7-1.7,2.7-2.5,4c-3.9,6.5-6.7,16.4-6.7,26c0,3.3,0.6,7-1.2,9.8
		c-2.8-0.3-5.1-2.4-7.1-4.4c-1.8-1.9-3.9-4.6-4.1-7.4c-0.4-4.1,1.5-8,2.7-11.4c-5,5.6-10.9,16.1-19.7,18.2
		c-8.9,2.2-9.2-7.7-7.8-14.5c0.8-4.2,2.8-8.3,2.4-12.4c-2.3-0.8-4.1,0.9-5.6,2.1c-8.2,6.3-13,14.7-18.9,23.2c-1.6,2.4-5,8.2-8,8.9
		c-4.6,1.1-10.2-2.5-11.4-6.2c-0.4-1.2-0.4-2.7-0.3-3.8c0.4-3.1,2.4-6.8,3.6-9.9c3.7-9.7,7.8-19.8,11.4-29.2
		c-16.3,12-32.5,26.5-50.6,37.7c-8.5,5.3-18.7,11.5-30.6,13.6c-14.8,2.5-24.8-4.9-27.1-16.4v-6.1c1-5.8,3.4-11.1,6.2-15.5
		c2.9-4.5,6.1-8.6,9.6-12.1c15.2-15.2,31.6-25.4,55.2-31.7c6.7-1.8,19.3-5.2,28-2.2c2.6,0.9,5.6,2.9,5.6,5.3c0,2.3-3.3,4.8-5.2,6.1
		c-2.5,1.7-5,2.9-7.7,3.7c-3,0.9-6.1,0.9-9,1.2c-9,1-16.7,3.5-24.3,6.4c-15,5.7-28.5,12.6-37.9,24c-3.1,3.8-6.2,8.4-7.5,13
		c-1.9,6.5,0.5,11.7,4.6,14.2c4.6,2.8,11.3,2,17,0.4c5.1-1.4,9.7-3.8,14.1-6.5c12.4-7.6,24.9-17.6,35.5-26.3
		c11-9.1,22.1-19,31.2-30.5C139.9,286.6,143,280.3,149.9,278.4"/>
</g>
</svg>
