<svg width="524" height="90" viewBox="0 0 524 90" fill="none" xmlns="http://www.w3.org/2000/svg">
<g clip-path="url(#clip0_516_45057)">
<path d="M29.3605 58.9841C17.3764 54.3999 10.5474 43.7951 10.6229 29.8824C10.6229 21.2809 12.9004 14.2942 17.0639 9.61382C19.3989 7.16848 21.7771 5.74262 23.1493 5.05108L24.4893 4.35241C26.1813 3.39709 25.1431 0.86976 23.2571 1.33673C6.11087 6.75141 0.000307345 22.3752 0.000307345 34.2134C-0.136202 71.0611 45.2386 77.9479 60.0498 57.6687C60.7575 56.6991 60.6066 55.3553 59.6834 54.5853L59.6223 54.5354C58.753 53.8118 57.4921 53.851 56.6335 54.5889C49.2297 60.9696 38.9987 62.6735 29.3569 58.9841H29.3605Z" fill="#0C3C32"/>
<path d="M363.409 38.5231C359.27 33.6573 353.081 31.4187 347.092 29.2514C340.734 26.8061 330.014 23.5979 330.061 15.5597C329.831 10.9613 332.364 6.61954 336.085 4.30609C337.745 3.32225 342.135 1.39022 347.961 4.0031C348.705 4.36312 349.395 4.76593 350.023 5.19012C352.394 6.78708 354.331 8.9722 355.703 11.496C355.71 11.5102 355.717 11.5245 355.725 11.5387C355.725 11.5387 355.739 11.5673 355.764 11.6136C355.843 11.7598 355.926 11.9059 356.005 12.0521C356.827 13.485 359.41 17.399 362.977 17.1958C362.981 17.1958 362.988 17.1958 362.992 17.1958C363.462 17.1495 363.893 17.0604 364.289 16.9356C366.25 16.3154 367.292 14.7184 367.292 12.2552C367.292 9.72078 365.963 7.47862 363.326 5.58223C359.928 3.33651 355.735 1.71816 350.86 0.773533C338.172 -2.12808 317.595 3.68941 318.361 18.3258C318.361 22.7602 319.697 26.5423 322.33 29.5616C327.431 35.7177 335.521 37.9171 342.803 40.6476C350.728 43.5635 357.707 47.866 355.229 56.8489C353.343 63.2759 347.509 66.0385 340.382 66.1276C333.179 66.3522 327.747 62.5238 324.744 56.0825C323.911 54.0542 323.444 52.2826 323.192 51.1347C323.016 50.322 322.294 49.7445 321.457 49.7445C320.476 49.7445 319.683 50.5323 319.683 51.5055V53.5944C319.668 54.5176 319.665 55.5264 319.661 56.7526C319.79 59.394 319.007 62.5879 321.77 64.1706C336.254 73.4993 366.986 69.8384 367.382 49.3774C367.382 45.1212 366.042 41.471 363.401 38.5266L363.409 38.5231Z" fill="#0C3C32"/>
<path d="M218.012 67.9777C218.86 67.9777 219.661 67.4109 219.794 66.5803C219.847 66.2488 219.794 65.9173 219.661 65.625C219.556 65.404 219.406 65.2044 219.212 65.044C217.861 63.9461 215.899 62.0461 215.598 59.7754C215.389 58.3745 215.318 56.881 215.249 55.4016C215.199 54.3215 215.149 53.2058 215.041 52.0794C214.965 50.158 214.912 48.0941 214.876 46.0017V3.42562C214.872 2.24573 213.906 1.29041 212.717 1.29041H194.845C194.234 1.29041 193.663 1.70034 193.555 2.2992C193.447 2.89806 193.785 3.4684 194.338 3.67158C196.321 4.39521 201.361 6.90471 202.396 13.9698C202.705 16.7502 202.777 20.1901 202.863 24.4713L203.021 31.073C203.114 35.0297 203.143 40.5905 203.05 45.9446C203.014 48.0585 202.96 50.1438 202.884 52.0794C202.777 53.2058 202.723 54.3215 202.676 55.4016C202.608 56.881 202.54 58.3745 202.328 59.7754C202.026 62.0461 200.064 63.9461 198.714 65.044C198.24 65.429 198.017 66.0528 198.146 66.6659C198.311 67.4501 199.066 67.9777 199.874 67.9777H218.012Z" fill="#0C3C32"/>
<path d="M315.785 66.5981C314.021 64.0886 313.188 61.0979 312.66 58.7738L312.652 58.7488C312.02 55.0594 311.948 52.5998 311.855 49.4843C311.826 48.4648 311.794 47.3669 311.736 46.105L311.682 3.15827V2.82319C311.65 2.3384 311.463 1.48645 310.533 1.34387H297.442C296.257 1.34387 295.56 2.67704 296.261 3.6288C297.967 5.93869 300.169 10.0166 300.478 15.9375C300.478 16.0017 300.485 16.0658 300.489 16.1336L300.456 52.475C300.456 53.0668 300.266 53.6442 299.907 54.1148C298.38 56.1217 293.778 61.5934 287.362 63.996C279.639 66.8869 271.128 62.9408 268.517 55.1699C268.463 55.0059 268.413 54.8455 268.362 54.6887C267.608 52.1115 267.331 47.6806 267.238 43.9484V2.81963C267.206 2.33484 267.022 1.48289 266.096 1.3403H253.081C251.899 1.3403 251.202 2.66991 251.899 3.61454C253.594 5.92443 255.793 10.0024 256.098 15.9339C256.098 15.9981 256.105 16.0623 256.109 16.13L256.073 42.2374C256.152 45.9197 256.346 49.0993 256.752 51.1347C258.782 59.9537 265.833 66.5874 275.152 68.4518C276.869 68.7975 278.615 68.9722 280.339 68.9722C288.052 68.9722 295.075 65.5608 299.752 59.5722C299.943 59.3263 300.338 59.4546 300.338 59.7647V66.5732C300.338 67.3503 300.974 67.9848 301.76 67.9848H315.027C315.368 67.9848 315.666 67.803 315.832 67.5C315.99 67.2077 315.968 66.8726 315.781 66.6017L315.785 66.5981Z" fill="#0C3C32"/>
<path d="M467.022 52.7174L465.366 49.5913C465.366 49.5913 465.358 49.6055 465.358 49.6126C464.672 48.3044 463.932 46.8964 463.16 45.4171C457.47 34.5342 449.911 19.6804 448.273 10.89C448.072 9.81346 448.011 8.71555 448.144 7.62833C448.302 6.3308 448.737 4.77306 449.879 4.0031C450.249 3.75357 450.515 3.3579 450.558 2.91944C450.651 2.03541 449.954 1.29041 449.081 1.29041L426.698 1.29753C426.033 1.29753 425.494 1.83223 425.494 2.49169C425.494 3.37572 426.493 3.72862 426.493 3.72862C427.872 4.2954 430.728 5.82106 432.833 9.4463L433.458 10.6298L457.717 62.1281C458.034 62.7982 458.231 63.5254 458.235 64.2669C458.235 64.6269 458.199 65.019 458.084 65.4076C457.419 67.418 455.03 72.38 446.847 84.4784C446.143 85.5406 445.417 86.6172 444.67 87.7008C443.995 88.6775 444.695 90.0036 445.888 90.0036H448.722C449.613 90.0036 450.447 89.5402 450.903 88.7916C454.402 82.6925 460.66 69.4891 467.093 55.5585C467.51 54.653 467.485 53.605 467.018 52.721L467.022 52.7174Z" fill="#0C3C32"/>
<path d="M429.762 55.0915C429.173 45.7593 429.802 31.6148 429.683 22.3753C429.766 11.6742 421.913 2.25999 411.51 0.591743C401.739 -0.980263 391.148 0.958901 384.592 5.02615C381.198 7.01166 379.477 9.46056 379.477 12.3016C379.441 15.5525 381.388 17.26 384.657 17.121C387.226 16.8643 389.065 14.4689 389.963 12.9967C390.171 12.6117 390.372 12.2374 390.581 11.856V11.8489C391.112 10.865 391.68 9.84198 392.413 8.66922C392.927 7.74954 393.537 6.89759 394.234 6.12763C394.496 5.81394 394.787 5.48243 395.19 5.17587C400.743 0.0855642 411.93 1.7752 414.57 9.35719C417.042 15.385 416.715 21.6766 416.737 28.1072C400.449 23.6799 373.147 27.0592 372.842 47.5701C372.842 63.8463 387.172 67.8137 405.514 67.9777C405.514 67.9777 428.07 67.9777 434.037 67.9777C434.817 67.9777 435.449 67.3503 435.449 66.5732C435.449 66.0599 435.172 65.5822 434.716 65.3434C432.934 64.4059 430.14 61.8821 429.759 55.0879L429.762 55.0915ZM416.589 30.8805C416.345 38.6799 417.028 55.6226 415.163 61.5542C413.539 67.3147 399.037 65.3648 395.52 63.9176C389.377 61.7253 386.367 56.3356 386.32 47.4561C386.335 45.0784 386.618 42.9183 387.175 40.9827C390.638 28.4565 405.421 27.7935 416.593 30.884C416.593 30.884 416.593 30.884 416.589 30.884V30.8805Z" fill="#0C3C32"/>
<path d="M520.02 37.9527C515.882 32.9943 509.692 30.7165 503.704 28.51C497.345 26.0219 486.626 22.7495 486.672 14.5651C486.672 14.5651 486.525 8.27353 491.052 3.53612C491.493 3.07272 491.734 2.41682 491.58 1.78945C491.332 0.777091 490.315 0.213878 489.378 0.516872C481.212 3.1547 474.534 8.76545 474.976 17.3776C474.976 21.8976 476.312 25.7474 478.945 28.8201C484.046 35.0903 492.136 37.3325 499.418 40.1129C507.343 43.0822 514.323 47.4667 511.844 56.6136C509.958 63.1583 504.124 65.9743 496.997 66.0634C489.748 66.2916 484.291 62.3455 481.298 55.7046C480.537 53.9865 480.012 52.0259 479.714 50.7462C479.527 49.9406 478.827 49.3738 478.019 49.3738C477.056 49.3738 476.28 50.1723 476.28 51.1561V54.7707C476.28 55.3089 476.276 55.8828 476.273 56.5173C476.402 59.2086 475.619 62.4596 478.381 64.0744C492.866 73.5777 523.598 69.8491 523.993 49.0031C523.993 44.6685 522.653 40.9506 520.013 37.9527H520.02Z" fill="#0C3C32"/>
<path d="M167.425 0.0249397C167.425 0.0249397 155.448 -0.905431 145.289 8.40897C145.106 8.57651 144.869 8.67275 144.621 8.67275C144.075 8.67275 143.63 8.23074 143.63 7.68891V4.30251C143.608 3.62879 143.407 2.95864 142.976 2.4382C142.39 1.72884 141.503 1.29039 140.526 1.29039H109.495C108.967 1.29039 108.471 1.65042 108.41 2.17085C108.364 2.57009 108.554 2.93012 108.863 3.12974C109.229 3.38283 109.8 3.64661 110.691 3.88901C110.875 3.93535 111.061 3.98169 111.255 4.02803C111.281 4.03516 111.306 4.03872 111.331 4.04585C114.402 4.75878 118.167 5.30417 116.608 10.7224C114.212 18.9247 102.885 41.2429 99.5946 49.6162C93.8792 38.7084 84.3955 20.9315 82.5131 10.9327C82.3191 9.90612 82.2437 8.86168 82.3514 7.82793C82.4915 6.49832 82.9082 4.81581 84.1117 4.00664C84.4781 3.75712 84.7475 3.36144 84.7942 2.92299C84.8876 2.03896 84.1907 1.29395 83.3178 1.29395L60.9339 1.30108C60.2693 1.30108 59.7305 1.83578 59.7305 2.49523C59.7305 3.37926 60.7291 3.73216 60.7291 3.73216C62.1086 4.29894 64.9645 5.82461 67.0696 9.44984L67.6947 10.6333L92.2016 62.6592C92.2447 62.7555 92.2878 62.866 92.3309 62.9872C92.3597 63.0798 92.3884 63.1761 92.41 63.2688C92.6004 64.0779 92.5106 64.9228 92.2268 65.7034C91.4364 67.885 88.9002 72.9361 81.0905 84.4819C80.3864 85.5442 79.6608 86.6207 78.9136 87.7044C78.2382 88.6811 78.9387 90.0071 80.1314 90.0071H82.9657C83.8566 90.0071 84.69 89.5437 85.1463 88.7951C92.7512 75.5311 113.414 28.6668 120.574 13.813L121.698 11.6065C123.527 7.74595 128.006 6.44485 131.437 8.83673C133.086 10.0844 133.363 11.7989 133.363 15.1675V58.1749C133.363 60.4919 133.316 63.2224 133.23 66.0349C133.003 73.2925 131.901 80.4967 129.986 87.5047L129.932 87.7079C129.619 88.8486 130.485 89.9715 131.678 89.9715H131.897C132.033 89.9822 138.579 89.9786 141.938 89.9715C143.015 89.9715 143.885 89.1053 143.888 88.0359L143.917 69.457C143.917 68.9437 143.942 68.4339 143.996 67.9242C144.334 66.0813 145.954 64.6804 147.908 64.6804C148.436 64.6804 148.939 64.7909 149.399 64.9762C149.722 65.1259 150.06 65.2863 150.423 65.4575C153.512 66.9296 158.186 69.1504 164.9 69.1504C206.83 68.5302 208.001 0.86263 167.432 0.032069L167.425 0.0249397ZM166.236 65.7212C155.441 65.7212 143.827 58.1571 143.827 41.5565V25.3909C143.827 8.88307 157.442 7.5998 161.624 7.5998C190.51 6.63734 197.87 64.0209 166.232 65.7177L166.236 65.7212Z" fill="#0C3C32"/>
<path d="M59.6265 11.6029V11.6171C56.8425 5.27209 49.6973 1.35099 42.4839 1.27969C40.8242 1.37594 40.6662 3.80346 42.3186 4.10645C44.0932 4.47361 47.1 5.59647 48.6483 6.99737C48.9968 7.31463 49.277 7.70317 49.4135 8.15232C49.4997 8.43036 49.5392 8.75831 49.471 9.10408C49.4602 9.15398 49.4494 9.20032 49.4351 9.25023C49.4279 9.27518 49.4171 9.3037 49.4099 9.32865C49.2734 9.68511 49.0183 9.97741 48.8567 10.1378C48.81 10.1806 48.6591 10.3125 48.6016 10.3553C45.4799 12.6865 45.1674 17.3598 47.6784 20.3113C50.1571 23.5088 55.4738 23.8367 58.3297 20.8816C58.5416 20.6749 58.7356 20.4539 58.9152 20.2257V20.2329C61.1389 17.538 60.6647 14.2086 59.6229 11.6029H59.6265Z" fill="#0C3C32"/>
<path d="M241.836 1.82509L241.846 1.83578C235.111 0.0427691 227.567 3.14757 223.019 8.70128C222.06 10.0487 223.878 11.6813 225.142 10.5905C226.536 9.44272 229.295 7.80655 231.364 7.47861C231.831 7.40375 232.312 7.43227 232.751 7.60337C233.02 7.71031 233.307 7.88141 233.537 8.15232C233.57 8.19153 233.602 8.23074 233.627 8.27352C233.642 8.29491 233.66 8.31986 233.674 8.34481C233.871 8.67276 233.943 9.05418 233.968 9.27875C233.972 9.34291 233.983 9.54253 233.983 9.61026C233.875 13.485 237.367 16.6397 241.257 16.5292C245.324 16.597 248.891 12.6758 248.341 8.61573C248.309 8.32343 248.255 8.03469 248.191 7.75308L248.198 7.76021C247.458 4.35242 244.537 2.64852 241.836 1.83222V1.82509Z" fill="#0C3C32"/>
<path d="M523.443 12.0485V12.0627C521.338 5.46459 514.642 0.826991 507.475 0.0106891C505.816 -0.0641683 505.406 2.33127 507.015 2.8018C508.743 3.35076 511.614 4.77661 513.008 6.33079C513.32 6.68013 513.557 7.09719 513.647 7.55703C513.701 7.8422 513.708 8.17371 513.604 8.50879C513.589 8.55513 513.571 8.60503 513.55 8.65137C513.539 8.67633 513.528 8.70128 513.514 8.72623C513.342 9.06487 513.054 9.33222 512.878 9.4748C512.824 9.51402 512.663 9.62809 512.602 9.66373C509.254 11.6599 508.452 16.2761 510.64 19.4701C512.77 22.9064 518.022 23.7797 521.173 21.1347C521.406 20.9494 521.618 20.7498 521.827 20.543V20.5501C524.32 18.0977 524.198 14.7362 523.436 12.0378L523.443 12.0485Z" fill="#0C3C32"/>
</g>
<defs>
<clipPath id="clip0_516_45057">
<rect width="524" height="90" fill="white"/>
</clipPath>
</defs>
</svg>
