<svg width="287" height="200" viewBox="0 0 287 200" fill="none" xmlns="http://www.w3.org/2000/svg">
<g clip-path="url(#clip0_508_2051)">
<path fill-rule="evenodd" clip-rule="evenodd" d="M55.0023 185.312C49.0011 187.733 40.119 187.659 35.8109 186.569C16.5333 181.695 9.16646 161.76 8.42027 142.493C6.76599 99.8411 32.7786 66.3651 72.2895 46.9533C128.635 19.2689 178.015 16.485 211.976 22.5653C266.447 32.3222 275.753 61.1494 276.376 66.2243L271.002 79.061C271.612 86.3563 270.977 100.371 262.841 117.547C240.128 164.69 137.644 197.434 77.8753 187.927L55.0023 185.312Z" fill="#5B3428"/>
<path fill-rule="evenodd" clip-rule="evenodd" d="M94.6931 37.0819C123.974 25.6221 150.896 20.7657 174.139 20.0102C175.7 19.0488 177.44 18.1296 179.422 17.2686C183.346 15.5658 188.04 13.5285 192.806 11.4595C171.031 9.99442 147.127 12.0282 122.886 18.3867C113.42 20.8695 103.952 23.8049 94.6931 27.2861V37.0819ZM282.369 77.2156C282.895 80.1457 282.941 103.881 272.523 122.081C235.027 187.589 92.7484 214.042 59.3901 192.352C1.39006 207.939 -9.34163 144.639 6.79109 104.629C18.0701 76.6539 38.2505 56.8283 62.2991 42.5969V52.3451C28.4692 72.2676 6.91077 103.553 8.42074 142.493C9.16692 161.76 16.5337 181.697 35.8113 186.571C40.1195 187.659 49.0016 187.733 55.0027 185.312C76.7441 176.541 167.673 137.022 189.432 127.575C191.65 126.612 193.487 130.059 190.083 131.838C158.37 148.394 77.8757 187.929 77.8757 187.929C137.644 197.436 240.127 164.69 262.84 117.547C270.977 100.373 271.613 86.3581 271.002 79.0628L233.098 92.9596C230.432 94.3524 229.041 92.1232 231.685 90.4521L276.375 66.2261C276.037 63.4756 273.133 53.752 261.891 43.8665C261.893 39.8218 261.9 35.888 261.919 32.6145C273.2 40.3641 281.304 49.9133 285.123 60.7938C290.026 74.7645 282.369 77.2156 282.369 77.2156Z" fill="#D4BE97"/>
<path d="M276.677 16.8748H276.64L274.41 23.5573H273.377L271.148 16.8748H271.111V23.5573H269.636V15.1122H271.83L273.895 21.0974L275.957 15.1122H278.152V23.5573H276.677V16.8748ZM264.274 16.5051H262.007V15.1122H268.126V16.5051H265.859V23.5573H264.274V16.5051Z" fill="white"/>
<path d="M126.22 57.7386C126.208 57.7351 126.194 57.7334 126.182 57.7298C124.872 57.4411 123.253 57.714 121.511 58.362C121.217 58.4712 120.918 58.5927 120.617 58.723C114.288 61.4682 94.6887 69.8323 94.6887 69.8323V53.4756L94.687 19.0752L87.5947 14.2152V160.785C87.5947 160.785 60.0052 172.586 49.131 177.305C40.3351 181.123 28.5088 184.734 27.1396 170.952C27.2593 176.319 28.6338 179.839 31.2683 182.496C33.5297 184.775 36.5761 185.934 40.3211 185.934C44.103 185.934 48.4869 185.516 54.1202 183.072C64.8712 178.406 94.7063 165.634 94.7063 165.634V136.944C94.7046 136.657 94.7063 136.034 94.7063 135.983V132.158C94.6799 126.228 94.569 117.543 94.6764 103.232C94.6782 102.984 94.6993 102.752 94.7063 102.507V77.7122L127.709 63.4879C128.392 63.2431 129.071 63.1146 129.847 63.1392C129.501 59.8024 128.158 58.1753 126.22 57.7386ZM52.1949 155.027C52.172 158.57 54.2293 160.144 56.5946 159.117C58.9722 158.084 59.3576 157.927 59.3576 157.927C59.3347 157.76 59.2872 157.27 59.2889 157.013C59.296 155.983 59.2766 96.5605 59.2889 95.2346C59.3013 93.5917 59.7395 92.9525 61.3251 92.2623C61.6331 92.1284 61.9763 91.9823 62.293 91.8432V83.7802C62.293 83.7802 59.0531 85.1642 56.3359 86.3651C53.3987 87.6646 52.2178 89.5822 52.1949 92.5176C52.1756 95.3121 52.2143 152.433 52.1949 155.027ZM259.407 94.8736C257.732 93.1797 255.414 92.2975 253.052 92.2975C251.827 92.2975 250.631 92.5493 249.492 93.0423C249.492 93.0423 249.277 93.1374 248.904 93.3029C251.153 93.155 253.304 94.5972 254.307 96.6821C254.349 96.7666 254.388 96.8564 254.425 96.9444C254.427 96.9444 254.427 96.9427 254.425 96.9444C254.464 97.0307 254.499 97.1223 254.532 97.2121C254.666 97.5748 254.765 97.9516 254.826 98.3408C254.84 98.4376 254.853 98.5345 254.863 98.6331C254.886 98.8479 254.897 99.0645 254.895 99.2829L254.853 106.21C254.853 106.21 229.22 116.89 220.56 120.647C211.988 124.37 194.419 128.566 194.556 111.005C194.579 108.101 194.468 62.1355 194.556 50.7744C194.646 39.2002 200.951 31.1055 213.165 25.8053L226.232 20.1898L226.311 4.8597L219.217 -0.000305176L219.133 16.3952C219.133 16.3952 201.803 23.8806 196.24 26.2965C190.647 28.723 187.314 31.2164 187.237 41.9718C187.159 52.854 187.237 117.966 187.237 117.966L162.234 128.721C162.234 128.721 162.201 91.1019 162.204 65.247C162.208 56.9991 162.197 51.7006 162.215 49.5259C162.215 49.5242 162.213 49.5224 162.215 49.5189C162.247 45.3544 160.45 41.308 157.775 38.6103C154.92 35.7313 150.878 34.2099 146.08 34.2099C142.777 34.2099 139.143 34.9371 135.261 36.3599C146.093 33.1886 152.573 37.0273 154.308 43.1181C154.352 43.2696 154.392 43.4263 154.429 43.5813C154.466 43.7362 154.501 43.8929 154.533 44.0514C154.706 44.9142 154.788 45.8158 154.781 46.742C154.711 55.8052 154.781 131.908 154.781 131.908C154.781 131.908 132.063 141.575 113.408 149.674C99.6269 155.655 95.9734 147.823 95.0284 141.417C95.1287 145.227 95.7869 150.808 99.5178 154.567C101.726 156.796 104.627 157.927 108.138 157.927C111.18 157.927 114.605 157.083 118.6 155.349C122.034 153.859 126.796 151.841 132.315 149.471C141.123 145.691 195.638 122.266 195.638 122.266C196.309 124.261 197.321 125.946 198.672 127.309C201.178 129.836 204.689 130.943 209.107 130.943C214.888 130.943 221.241 128.712 225.551 126.84C233.317 123.47 256.09 113.608 260.69 111.616C261.218 111.387 261.899 111.045 261.899 111.045L261.956 106.832L261.987 101.863C262.008 99.4554 261.093 96.5782 259.407 94.8736ZM219.844 43.1727C219.807 47.7439 219.844 63.4632 219.844 63.4632L226.924 60.3888C226.92 57.0959 226.92 48.0891 226.927 47.1875C226.95 44.2539 228.129 42.3363 231.068 41.0368C231.218 40.9699 231.374 40.9012 231.527 40.8325C231.533 40.1423 231.538 39.5013 231.541 38.9731C231.573 35.0393 228.875 34.2204 226.188 35.1801C222.983 36.33 219.879 38.5821 219.844 43.1727ZM129.934 92.7395V85.2364C129.934 85.2364 128.369 85.7999 126.41 86.6997C123.146 88.1964 118.783 88.9888 118.734 95.2029C118.721 96.8106 118.764 123.352 118.734 127.075C118.702 131.063 120.986 131.493 123.991 130.188C124.673 129.89 125.27 129.631 125.831 129.388C125.835 122.223 125.808 101.301 125.826 98.8726C125.849 95.9495 127.021 94.0372 129.934 92.7395ZM239.693 14.8121C242.467 13.7944 245.443 13.333 247.565 13.333C251.56 13.333 254.974 14.6537 257.438 17.1365C260.465 20.1828 261.978 24.7963 261.926 30.8537C261.838 43.0917 261.943 68.0433 261.943 68.0433L226.675 83.2044V99.5804C226.675 101.429 228.136 101.746 229.808 101.447C221.091 105.134 219.615 100.537 219.583 97.1857V97.0113C219.583 96.9832 219.583 96.9497 219.585 96.9092C219.597 95.2927 219.587 83.1057 219.585 79.4062C219.583 78.7405 219.583 78.3514 219.583 78.3514L254.833 63.2061C254.833 63.2061 254.719 43.0195 254.833 28.2793C254.932 15.6574 247.577 12.9386 239.693 14.8121Z" fill="black"/>
<path d="M62.2935 156.68C62.2935 156.68 58.9744 158.088 56.595 159.12C54.2298 160.147 52.1725 158.574 52.1971 155.03C52.2147 152.438 52.176 95.3149 52.1971 92.5204C52.2182 89.5851 53.3991 87.6692 56.3363 86.3697C59.0553 85.167 62.2935 83.7848 62.2935 83.7848V156.68ZM62.2935 25.102V67.4298C62.2935 67.4298 50.8596 72.399 42.7501 75.9207C34.6037 79.4548 27.177 83.3727 27.0961 93.753C27.0767 96.4824 27.0345 164.595 27.0099 167.877C26.8743 185.236 39.7355 181.388 49.1314 177.31C60.0056 172.589 87.5951 160.788 87.5951 160.788V14.218L62.2935 25.102ZM129.934 127.609C129.934 127.609 128.058 128.425 123.993 130.191C120.987 131.496 118.704 131.066 118.734 127.079C118.764 123.355 118.722 96.8152 118.734 95.2058C118.784 88.9916 123.146 88.201 126.411 86.7025C128.37 85.8027 129.934 85.241 129.934 85.241V127.609ZM154.782 46.7466C154.852 37.7644 146.44 31.1823 130.457 38.1201C113.092 45.6566 94.6891 53.4802 94.6891 53.4802V69.8369C94.6891 69.8369 114.289 61.4728 120.617 58.7258C125.86 56.4508 130.029 57.2537 129.934 65.2357C129.888 69.0744 129.934 70.6416 129.934 70.6416C129.934 70.6416 119.507 75.3484 115.519 77.0794C101.81 83.0241 94.7754 90.226 94.6768 103.237C94.5413 121.126 94.7507 130.238 94.7067 136.144C94.668 141.265 95.1414 157.606 113.409 149.677C132.065 141.58 154.782 131.911 154.782 131.911C154.782 131.911 154.711 55.808 154.782 46.7466ZM179.416 17.2784C164.913 23.5735 162.303 32.8058 162.235 42.3972C162.166 52.0591 162.235 128.724 162.235 128.724L187.239 117.969C187.239 117.969 187.161 52.8568 187.239 41.9747C187.315 31.221 190.648 28.7276 196.241 26.2994C201.804 23.8852 219.133 16.398 219.133 16.398L219.218 0.00430298C219.218 0.00430298 194 10.9499 179.416 17.2784ZM219.844 43.1773C219.879 38.585 222.984 36.3346 226.188 35.1847C228.876 34.2233 231.574 35.0421 231.542 38.9759C231.501 44.2074 231.396 58.4529 231.396 58.4529L219.844 63.4661C219.844 63.4661 219.809 47.7485 219.844 43.1773ZM247.28 93.7037C241.695 96.1284 235.202 99.1184 230.071 101.348C220.96 105.308 219.559 100.411 219.584 97.0142C219.594 95.7041 219.584 78.356 219.584 78.356L254.834 63.2107C254.834 63.2107 254.719 43.0224 254.834 28.2839C254.95 13.3182 244.591 12.274 235.294 16.2994L213.165 25.8081C200.952 31.1101 194.646 39.2048 194.556 50.779C194.468 62.1384 194.579 108.106 194.556 111.01C194.419 128.569 211.988 124.373 220.562 120.652C229.222 116.893 254.853 106.215 254.853 106.215L254.895 99.2857C254.931 95.3396 250.899 92.133 247.28 93.7037Z" fill="white"/>
</g>
<defs>
<clipPath id="clip0_508_2051">
<rect width="287" height="200" fill="white"/>
</clipPath>
</defs>
</svg>
