<svg width="398" height="159" viewBox="0 0 398 159" fill="none" xmlns="http://www.w3.org/2000/svg">
<path d="M398.001 50.2974V51.478C397.534 52.234 396.878 52.7653 396.064 53.1129C395.884 53.19 395.715 53.2999 395.53 53.3605C394.497 53.7016 393.665 54.3657 392.918 55.1102C392.086 55.9383 391.312 56.8287 390.561 57.7322C389.313 59.2359 388.111 60.7806 386.873 62.2925C385.634 63.8076 384.378 65.3081 383.12 66.8085C381.559 68.6696 379.991 70.5259 378.425 72.3821C377.49 73.4906 376.551 74.5942 375.621 75.7076C374.593 76.9408 373.602 78.2067 372.54 79.4103C371.945 80.0826 371.277 80.7057 370.575 81.2665C368.821 82.6718 366.732 83.1851 364.543 83.2654C363.177 83.3146 361.807 83.2982 360.43 83.1424C359.238 83.008 358.015 83.0654 356.793 83.2376C355.814 83.3769 354.861 83.518 353.951 83.9066C352.92 84.3461 352.059 84.979 351.421 85.9334C350.69 87.0238 350.212 88.2094 349.822 89.4524C349.317 91.0643 348.968 92.7123 348.645 94.3652C348.261 96.328 347.826 98.2745 347.264 100.193C346.77 101.879 345.951 103.374 344.657 104.593C343.683 105.511 342.63 106.321 341.495 107.028C339.09 108.526 336.838 110.23 334.749 112.141C333.564 113.224 332.412 114.344 331.268 115.471C329.785 116.93 328.274 118.349 326.629 119.628C325.396 120.587 324.245 121.653 323.064 122.678C322.324 123.321 321.616 124 320.857 124.619C319.429 125.787 317.899 126.813 316.333 127.789C314.299 129.055 312.199 130.193 310.065 131.277C309.052 131.792 308.029 132.289 307.001 132.772C305.794 133.338 304.58 133.891 303.362 134.427C301.64 135.186 299.912 135.936 298.18 136.672C296.485 137.393 294.787 138.11 293.077 138.797C290.891 139.673 288.699 140.53 286.498 141.368C285.18 141.87 283.856 142.367 282.51 142.785C279.363 143.761 276.149 144.456 272.888 144.925C271.146 145.176 269.407 145.445 267.664 145.697C266.698 145.838 265.73 145.963 264.764 146.094C263.797 146.225 262.824 146.332 261.862 146.494C259.856 146.834 257.856 147.203 255.854 147.563C254.122 147.875 252.392 148.195 250.66 148.505C249.158 148.774 247.653 149.031 246.151 149.303C244.267 149.643 242.391 150.03 240.5 150.328C238.026 150.718 235.542 151.04 233.062 151.396C231.709 151.589 230.363 151.886 229.005 151.971C227.123 152.088 225.278 152.434 223.422 152.704C219.941 153.209 216.486 153.877 213.037 154.582C212.307 154.731 211.578 154.877 210.846 155.016C208.657 155.436 206.47 155.871 204.276 156.262C201.732 156.717 199.184 157.148 196.633 157.561C194.821 157.855 193.007 158.145 191.187 158.358C189.788 158.522 188.375 158.568 186.968 158.666C186.771 158.68 186.572 158.691 186.487 158.917H177.045C176.926 158.837 176.811 158.701 176.683 158.686C176.294 158.642 175.896 158.675 175.507 158.625C173.879 158.422 172.257 158.156 170.624 157.999C168.668 157.81 166.762 157.345 164.852 156.941C161.229 156.177 157.83 154.744 154.459 153.244C152.955 152.575 151.451 151.902 149.915 151.319C148.742 150.874 147.563 150.454 146.402 149.976C144.397 149.149 142.505 148.144 140.701 146.935C138.423 145.409 136.51 143.526 134.819 141.386C133.717 139.991 132.892 138.428 132.056 136.872C131.369 135.593 130.619 134.361 129.714 133.217C128.253 131.37 126.322 130.488 124.029 130.334C122.086 130.203 120.187 130.554 118.372 131.203C116.825 131.756 115.332 132.461 113.828 133.128C112.393 133.765 110.952 134.396 109.44 134.814C108.195 135.158 106.919 135.386 105.611 135.378C103.596 135.365 101.654 134.998 99.7208 134.416C96.7593 133.525 94.0455 132.131 91.4152 130.562C88.3783 128.75 85.5349 126.651 82.7997 124.411C80.8304 122.798 78.8806 121.158 76.9391 119.51C74.9992 117.863 73.0249 116.253 71.1687 114.517C69.1353 112.613 67.1627 110.639 65.4097 108.459C63.6797 106.309 62.1498 104.035 60.9806 101.531C60.0476 99.5338 59.4261 97.43 58.9506 95.2802C58.2487 92.1072 57.4436 88.9572 56.9041 85.7497C56.8664 85.5251 56.7565 85.3119 56.6647 85.0479C56.1318 85.0479 55.6005 84.9479 55.1233 85.0676C53.9279 85.3677 52.6882 85.061 51.5059 85.407C49.5021 85.3906 47.5278 85.7235 45.5535 85.9859C43.6939 86.2335 41.8377 86.5057 39.9864 86.8238C38.0547 87.1567 36.1542 87.6175 34.234 87.9913C32.6532 88.298 31.1118 88.7489 29.5671 89.1884C28.3242 89.5426 27.0714 89.8656 25.8431 90.2641C24.2411 90.7839 22.6456 91.3299 21.0697 91.9252C18.9429 92.7287 16.8177 93.5404 14.7319 94.4423C12.8593 95.2523 11.044 96.1919 9.20088 97.0692C8.88768 97.2184 8.563 97.3431 8.20225 97.4956C7.92184 97.1627 7.65784 96.8774 7.42499 96.5674C6.13447 94.8457 4.85543 93.1157 3.56655 91.3923C2.17437 89.5327 0.913365 87.6043 0.375513 85.3021C0.229571 85.2791 0.114786 85.2611 0 85.2414C0 84.7691 0 84.2969 0 83.8246C0.285324 83.7344 0.442744 83.5327 0.542772 83.2572C0.833015 82.457 1.4545 82.0061 2.21372 81.7044C2.7237 81.5027 3.22547 81.278 3.74201 81.0976C6.3706 80.1843 9.00247 79.2889 11.6917 78.5609C14.0743 77.9148 16.4684 77.3245 18.8822 76.826C21.5616 76.2717 24.264 75.8273 26.9598 75.3502C27.8453 75.1927 28.7374 75.0845 29.6278 74.9566C31.02 74.7565 32.4122 74.5499 33.806 74.363C34.9686 74.2056 36.1329 74.0629 37.2987 73.9301C38.1137 73.8366 38.9303 73.7448 39.7486 73.6989C41.6655 73.589 43.5841 73.507 45.5026 73.4119C45.6191 73.4054 45.7355 73.3857 45.8535 73.3726C46.3176 73.3217 46.7817 73.2299 47.2474 73.2266C49.607 73.2119 51.9667 73.2233 54.3264 73.2151C54.6264 73.2151 54.9282 73.1594 55.2676 73.1266C55.2676 72.4674 55.2725 71.882 55.2676 71.2982C55.2594 70.4734 55.1692 69.6404 55.2528 68.8254C55.3676 67.694 55.2873 66.5592 55.466 65.4228C55.6776 64.0733 55.8251 62.7106 56.0973 61.3726C56.6073 58.8719 57.3305 56.4319 58.2799 54.0574C58.9506 52.3783 59.7196 50.7418 60.5887 49.1643C61.6464 47.2425 62.8336 45.3944 64.1471 43.6283C65.9738 41.1736 67.9055 38.8057 70.0684 36.6412C72.3182 34.3897 74.5155 32.0891 76.8735 29.9443C78.5592 28.4111 80.122 26.7434 81.7208 25.1167C82.3816 24.4444 83.108 23.859 83.8508 23.2883C85.5398 21.9896 87.3781 20.9418 89.2819 20.0006C91.5038 18.9019 93.8142 18.0213 96.1641 17.249C97.876 16.6882 99.6109 16.1897 101.351 15.7256C103.848 15.0582 106.359 14.44 108.868 13.8136C111.222 13.2266 113.587 12.6772 115.937 12.0738C118.444 11.4294 120.925 10.6947 123.375 9.8568C125.305 9.19596 127.233 8.53021 129.16 7.86281C130.529 7.38891 131.892 6.89369 133.266 6.43291C134.939 5.87046 136.619 5.32769 138.299 4.78656C140.314 4.1372 142.316 3.44029 144.354 2.87128C146.84 2.17765 149.339 1.53157 151.889 1.07406C154.124 0.672315 156.356 0.311561 158.627 0.245969C158.824 0.24105 159.022 0.227931 159.106 0H163.118C163.222 0.303362 163.487 0.257448 163.707 0.245969C165.126 0.163979 166.518 0.452583 167.925 0.524734C168.548 0.55589 169.169 0.649358 169.789 0.719869C170.371 0.785461 170.952 0.859252 171.532 0.928123C172.388 1.02815 173.246 1.10522 174.097 1.22985C175.527 1.44138 176.947 1.72998 178.382 1.90052C180.325 2.13173 182.232 2.62695 184.196 2.69254C184.311 2.69582 184.423 2.76469 184.537 2.77781C186.126 2.9795 187.714 3.1976 189.304 3.36814C190.9 3.53867 192.499 3.65674 194.097 3.80268C194.876 3.87319 195.654 3.9601 196.433 4.03061C197.407 4.11752 198.382 4.19787 199.358 4.27822C200.294 4.35529 201.234 4.40121 202.165 4.51107C204.108 4.74064 206.053 4.9325 208.011 5.00957C208.903 5.044 209.787 5.2703 210.679 5.34737C212.785 5.53266 214.895 5.66385 217.002 5.8475C218.871 6.01148 220.736 6.22302 222.604 6.39683C223.15 6.44767 223.706 6.41651 224.252 6.4739C225.144 6.56737 226.028 6.73135 226.92 6.81662C228.049 6.92649 229.182 6.98552 230.316 7.07079C231.25 7.1413 232.185 7.22329 233.121 7.29708C234.174 7.37907 235.228 7.45122 236.28 7.54141C237.175 7.61848 238.069 7.73491 238.964 7.80214C239.902 7.87429 240.843 7.90216 241.783 7.9612C242.447 8.00383 243.116 8.02679 243.773 8.12846C245.321 8.36787 246.879 8.48757 248.442 8.56792C248.639 8.57776 248.837 8.56792 249.031 8.59252C250.385 8.76798 251.733 9.00411 253.092 9.11889C255.706 9.3419 258.305 9.67642 260.901 10.0405C263.533 10.4094 266.153 10.8522 268.78 11.2539C272.458 11.8164 276.092 12.5969 279.706 13.4709C281.305 13.8579 282.909 14.2268 284.491 14.6745C286.754 15.314 289.002 16.0126 291.252 16.698C292.603 17.1096 293.949 17.5409 295.296 17.9705C296.229 18.2689 297.158 18.5756 298.088 18.8839C299.726 19.4283 301.369 19.9579 302.998 20.5302C305.144 21.2845 307.279 22.0749 309.419 22.8456C311.336 23.536 313.26 24.2115 315.173 24.915C317.013 25.5906 318.841 26.299 320.68 26.9795C322.554 27.6748 324.435 28.3569 326.314 29.0391C328.008 29.6557 329.703 30.2689 331.399 30.8773C332.358 31.2217 333.326 31.548 334.285 31.8923C335.982 32.5007 337.666 33.1468 339.375 33.7224C341.231 34.3488 343.109 34.9145 344.98 35.4999C347.785 36.3788 350.585 37.284 353.403 38.1219C356.145 38.9369 358.905 39.6863 361.66 40.4537C364.756 41.3146 367.85 42.182 370.952 43.0134C373.943 43.8153 376.943 44.5876 379.945 45.3485C382.336 45.9552 384.733 46.5341 387.132 47.1063C389.112 47.5786 391.097 48.0296 393.083 48.4756C394.152 48.715 395.228 48.938 396.304 49.143C397.042 49.284 397.616 49.6398 398.001 50.2892V50.2974ZM141.442 50.7369C141.435 51.2517 141.424 51.7191 141.424 52.1864C141.424 65.8426 141.424 79.4988 141.424 93.1534C141.424 93.4289 141.409 93.706 141.431 93.9798C141.449 94.2029 141.509 94.4226 141.562 94.7046C143.249 94.6981 144.887 94.7473 146.548 94.6669C146.719 94.1815 146.666 93.7486 146.666 93.3256C146.671 88.4062 146.67 83.4868 146.67 78.5674C146.67 78.2132 146.662 77.859 146.683 77.5048C146.691 77.3737 146.77 77.2474 146.86 77.0031C147.109 77.3081 147.311 77.4983 147.447 77.7279C147.914 78.515 148.537 79.1692 149.205 79.7792C150.769 81.2091 152.55 82.2176 154.67 82.5915C155.808 82.7915 156.945 82.6964 158.083 82.7112C159.89 82.7341 161.572 82.2274 163.15 81.3797C164.752 80.5188 166.152 79.3906 167.275 77.9525C168.095 76.9014 168.864 75.806 169.422 74.5893C170.447 72.3559 170.889 69.9667 171.117 67.5431C171.257 66.0558 171.135 64.557 170.891 63.0878C170.557 61.0741 170.07 59.1014 169.027 57.2993C168.612 56.5827 168.203 55.871 167.667 55.243C167.113 54.5953 166.606 53.9213 165.941 53.349C164.237 51.8831 162.361 50.8451 160.152 50.3663C158.401 49.9875 156.668 49.9858 154.908 50.2548C151.635 50.7549 149.243 52.5882 147.334 55.1791C147.16 55.4152 147.037 55.712 146.639 55.9006C146.379 54.0984 146.506 52.3373 146.027 50.6877C144.743 50.5565 142.519 50.5712 141.445 50.7336L141.442 50.7369ZM279.401 68.3696C279.496 67.3594 279.605 66.469 279.659 65.5737C279.746 64.1553 279.493 62.7582 279.226 61.3808C278.919 59.7984 278.401 58.2766 277.581 56.8598C276.804 55.5185 275.831 54.3542 274.698 53.3113C273.378 52.0946 271.848 51.2337 270.14 50.7139C268.674 50.2679 267.175 49.9645 265.622 50.0793C265.427 50.0941 265.228 50.0826 265.032 50.0809C262.583 50.0727 260.322 50.7073 258.215 51.9683C255.7 53.4737 253.947 55.6251 252.736 58.2553C252.161 59.5081 251.805 60.8183 251.531 62.1761C251.052 64.5505 250.956 66.9298 251.282 69.3092C251.536 71.167 251.944 73.002 252.763 74.7254C254.265 77.8886 256.503 80.3122 259.732 81.729C260.658 82.1356 261.626 82.4521 262.654 82.598C263.872 82.7719 265.087 82.703 266.302 82.7112C269.933 82.7341 272.917 81.2534 275.384 78.6724C276.584 77.4147 277.432 75.9028 278.165 74.3335C278.25 74.1515 278.221 73.9153 278.243 73.7054C276.876 73.5382 273.611 73.5661 272.762 73.7448C272.555 74.0711 272.358 74.4122 272.13 74.732C271.197 76.0438 270.013 77.0359 268.477 77.5737C267.047 78.0755 265.604 78.2182 264.081 78.0345C261.741 77.7524 259.945 76.5931 258.548 74.8041C257.285 73.1873 256.706 71.272 256.541 69.2354C256.523 69.0156 256.583 68.7893 256.618 68.4729C257.93 68.4483 259.181 68.463 260.43 68.4614C261.69 68.4597 262.947 68.4614 264.207 68.4614H271.76C273.019 68.4614 274.278 68.4745 275.536 68.4581C276.786 68.4417 278.04 68.5385 279.401 68.3728V68.3696ZM82.3603 42.5526C82.3242 42.651 82.2488 42.7593 82.2488 42.8658C82.2422 55.8448 82.2422 68.8238 82.2471 81.8027C82.2471 81.911 82.3193 82.0192 82.3586 82.1274C82.8243 82.3275 83.3015 82.2406 83.7656 82.2406C90.0968 82.2471 96.4264 82.2455 102.758 82.2438C103.269 82.2438 103.781 82.252 104.291 82.2356C104.512 82.2291 104.73 82.1684 104.927 82.1356C105.094 80.8041 105.07 78.815 104.884 77.964C104.483 77.7721 104.045 77.8574 103.622 77.8558C99.3748 77.8492 95.1294 77.8508 90.8823 77.8508C90.1345 77.8508 89.3884 77.864 88.6407 77.841C88.3849 77.8328 88.1324 77.7295 87.8798 77.6705C87.847 77.4425 87.806 77.29 87.806 77.1359C87.8028 73.1233 87.8011 69.1124 87.806 65.0998C87.806 64.9145 87.87 64.7292 87.8979 64.5783C88.3587 64.2996 88.8014 64.3963 89.2228 64.3963C93.6667 64.3881 98.1089 64.3963 102.553 64.3849C102.972 64.3849 103.42 64.5046 103.891 64.1635C103.891 63.5108 103.91 62.8057 103.884 62.1023C103.858 61.4119 104.012 60.7035 103.742 59.9558C103.281 59.9558 102.853 59.9558 102.425 59.9558C97.9022 59.9558 93.3813 59.9591 88.8588 59.9525C87.852 59.9525 87.8027 59.9017 87.8011 58.8768C87.7946 55.1791 87.7962 51.483 87.8028 47.7852C87.8028 47.5212 87.8667 47.2572 87.8979 47.0178C88.3504 46.7423 88.7932 46.8276 89.2163 46.8276C92.873 46.821 96.5297 46.8243 100.186 46.8243C101.523 46.8243 102.861 46.8309 104.197 46.8177C104.453 46.8145 104.709 46.7341 104.944 46.6948C105.106 45.1107 105.068 43.3201 104.868 42.5428C103.863 42.3887 83.3097 42.3936 82.3586 42.5526H82.3603ZM216.969 66.7953C216.961 64.7505 216.795 63.0943 216.376 61.4398C215.817 59.231 214.895 57.2304 213.501 55.4447C213.07 54.8921 212.604 54.3542 212.088 53.8803C210.897 52.7866 209.559 51.9093 208.083 51.2255C206.712 50.5893 205.258 50.2269 203.784 50.1154C202.073 49.9875 200.353 50.0334 198.643 50.445C196.164 51.0419 194.055 52.2487 192.23 53.9787C190.152 55.9481 188.839 58.393 188.114 61.1348C187.786 62.3761 187.568 63.665 187.476 64.9457C187.322 67.102 187.491 69.2518 187.976 71.3704C188.383 73.1446 189.055 74.8041 190.008 76.3521C190.628 77.3573 191.405 78.2264 192.24 79.0626C193.774 80.6024 195.58 81.6404 197.654 82.257C199.771 82.8866 201.932 82.744 204.087 82.6603C204.743 82.6358 205.404 82.4521 206.04 82.2668C207.44 81.8585 208.764 81.2878 209.979 80.4483C210.923 79.7956 211.742 79.0217 212.566 78.2362C214.328 76.562 215.42 74.4827 216.148 72.2313C216.75 70.3701 217.058 68.422 216.966 66.7953H216.969ZM337.12 59.4884C337.079 58.2438 336.879 57.1517 336.414 56.1646C335.185 53.5639 333.203 51.7273 330.468 50.8024C327.775 49.8924 325.012 49.8366 322.233 50.3663C320.558 50.686 318.987 51.2714 317.587 52.2586C316.285 53.1752 315.181 54.2968 314.445 55.712C313.566 57.3993 313.363 59.2195 313.655 61.0921C313.727 61.5529 313.832 62.0203 313.999 62.4532C314.849 64.6374 316.433 66.064 318.63 66.8199C320.596 67.4955 322.606 68.0186 324.622 68.522C325.533 68.75 326.445 68.973 327.363 69.1714C328.772 69.4781 330.031 70.0257 331.043 71.1096C331.884 72.0099 332.232 73.079 332.076 74.2367C331.909 75.4797 331.273 76.5177 330.153 77.1949C329.195 77.7738 328.157 78.0148 327.052 78.2067C325.72 78.4379 324.471 78.2411 323.221 77.9377C322.465 77.7541 321.764 77.3802 321.165 76.8358C320.23 75.9831 319.656 74.95 319.451 73.7005C319.402 73.4004 319.284 73.1118 319.181 72.756C317.307 73.0725 315.429 73.0331 313.586 73.5628C313.684 74.0498 313.743 74.4778 313.861 74.8877C314.045 75.5273 314.211 76.1832 314.491 76.7833C314.954 77.777 315.506 78.7412 316.31 79.5005C318.543 81.6109 321.222 82.662 324.292 82.7161C325.158 82.7309 326.022 82.7276 326.888 82.7161C329.169 82.6882 331.312 82.1422 333.278 80.9681C334.644 80.1531 335.831 79.1397 336.627 77.7361C338.08 75.1665 337.894 72.5412 336.802 69.9208C336.372 68.891 335.605 68.1088 334.725 67.4168C333.595 66.5281 332.334 65.8836 330.969 65.513C329.308 65.0621 327.605 64.7669 325.924 64.3914C324.274 64.0225 322.661 63.5568 321.18 62.7008C320.552 62.3384 320.016 61.8727 319.645 61.2692C318.874 60.0164 319.038 57.8273 320.001 56.7155C320.781 55.812 321.711 55.0938 322.93 54.8527C324.24 54.5953 325.54 54.392 326.881 54.7199C328.611 55.143 329.977 55.9793 330.768 57.6502C330.989 58.1192 331.146 58.5898 331.26 59.0867C331.335 59.4212 331.43 59.7508 331.535 60.1542C333.418 59.9935 335.212 59.6803 337.125 59.4917L337.12 59.4884ZM120.805 66.5609C120.112 67.6464 119.464 68.6713 118.806 69.6896C118.126 70.744 117.44 71.7934 116.753 72.8429C116.088 73.8612 115.417 74.8763 114.751 75.8962C114.066 76.9473 113.357 77.9837 112.713 79.0577C112.1 80.0826 111.299 80.996 110.794 82.1225C111.96 82.3012 115.948 82.2816 116.873 82.0963C117.422 81.1813 117.986 80.2433 118.547 79.3021C119.088 78.3936 119.63 77.4852 120.162 76.5718C120.715 75.624 121.217 74.6401 121.82 73.7251C122.412 72.8281 122.84 71.8197 123.599 70.9539C126.023 74.7565 128.399 78.4871 130.741 82.1635C132.533 82.3291 136.134 82.2783 136.982 82.07C136.282 80.6942 135.362 79.4775 134.553 78.1936C133.717 76.8653 132.866 75.5486 132.023 74.2253C131.202 72.9347 130.387 71.6409 129.565 70.3521C128.725 69.0353 127.883 67.7218 127.028 66.3903C127.501 65.6803 127.943 65.0375 128.363 64.3783C129.67 62.3269 130.954 60.2608 132.274 58.2176C133.763 55.9137 135.286 53.6327 136.78 51.3305C136.888 51.1632 136.874 50.9156 136.918 50.6991C135.554 50.5319 131.935 50.5647 131.039 50.7533C130.324 51.9618 129.586 53.208 128.85 54.4543C128.114 55.7005 127.425 56.9795 126.63 58.1881C125.841 59.3868 125.256 60.7199 124.332 61.8317C124.216 61.753 124.129 61.7251 124.091 61.6661C122.832 59.7262 121.571 57.7863 120.322 55.8399C119.326 54.2886 118.324 52.7407 117.363 51.1681C117.098 50.7336 116.781 50.5926 116.306 50.5958C114.654 50.609 113.003 50.5975 111.352 50.6073C111.178 50.6073 111.006 50.6877 110.727 50.7582C114.112 56.0645 117.435 61.2758 120.804 66.5576L120.805 66.5609ZM284.729 50.6827C284.722 51.2108 284.712 51.6387 284.712 52.0667C284.712 55.53 284.712 58.9932 284.712 62.4565C284.712 68.5958 284.709 74.7352 284.717 80.8746C284.717 81.2944 284.611 81.7372 284.839 82.1258C285.852 82.2914 289.204 82.2865 290.147 82.1225C290.388 81.729 290.281 81.2846 290.281 80.8631C290.289 75.747 290.301 70.6308 290.28 65.5147C290.271 63.5059 290.742 61.6333 291.618 59.8393C292.359 58.3193 293.49 57.1025 294.781 56.0842C296.511 54.7183 298.602 54.5248 300.72 54.7543C301.456 54.8331 302.147 55.1545 302.745 55.6431C303.869 56.5598 304.398 57.8093 304.749 59.1556C304.974 60.0132 305.025 60.9151 305.374 61.8005C306.192 61.7087 306.981 61.6956 307.73 61.5152C308.475 61.3348 309.321 61.6136 309.975 61.0249C309.875 59.7344 309.596 58.4783 309.324 57.214C308.881 55.1512 307.778 53.5147 306.197 52.2291C303.77 50.2564 300.881 49.7677 297.867 50.1432C296.563 50.3056 295.269 50.6795 294.066 51.3223C293.092 51.8437 292.175 52.4258 291.306 53.0982C290.97 53.3572 290.644 53.6344 290.219 53.8098C289.843 52.7407 289.779 51.6256 289.235 50.6024C287.974 50.6024 286.718 50.5991 285.46 50.6057C285.268 50.6057 285.078 50.6434 284.726 50.6811L284.729 50.6827ZM228.11 82.0979C228.11 81.5715 228.11 81.1025 228.11 80.6336C228.11 75.3993 228.11 70.1668 228.11 64.9325C228.11 63.5387 228.438 62.2072 228.968 60.9413C229.512 59.6377 230.216 58.4029 231.193 57.36C232.111 56.3794 233.174 55.6038 234.456 55.1282C235.517 54.7363 236.601 54.7068 237.704 54.7052C239.79 54.7019 241.194 55.6972 242.024 57.5682C242.455 58.5406 242.783 59.5409 242.901 60.6084C242.942 60.9856 243.078 61.3529 243.18 61.7628C244.542 61.7792 245.794 61.4119 247.074 61.3545C247.327 61.343 247.571 61.1774 247.817 61.0856C247.817 60.7839 247.852 60.5445 247.811 60.3198C247.676 59.5901 247.469 58.8702 247.371 58.1356C247.227 57.0665 246.873 56.076 246.4 55.1217C245.817 53.9443 245.003 52.9375 243.964 52.1389C241.551 50.2826 238.751 49.8005 235.829 50.1203C233.58 50.3663 231.514 51.2353 229.72 52.6734C229.237 53.0621 228.718 53.4081 228.166 53.8115C227.679 52.7751 227.615 51.6617 227.188 50.7008C225.798 50.5319 223.512 50.5647 222.704 50.7598C222.546 51.7388 222.477 70.17 222.594 81.1944C222.597 81.4994 222.628 81.8044 222.645 82.0897C223.633 82.2914 226.885 82.3045 228.113 82.1012L228.11 82.0979ZM176.447 42.123C176.396 42.2968 176.335 42.4067 176.335 42.5149C176.33 55.6054 176.33 68.6942 176.335 81.7847C176.335 81.8929 176.396 82.0028 176.424 82.0979C177.434 82.2996 180.892 82.2963 181.819 82.093C181.851 81.993 181.917 81.8831 181.917 81.7749C181.922 68.6844 181.924 55.5956 181.917 42.5051C181.917 42.3969 181.847 42.2886 181.812 42.1903C180.956 42.0164 178.093 41.9771 176.445 42.1214L176.447 42.123ZM295.993 116.437C295.979 117.773 296.63 118.701 297.601 119.433C298.949 120.449 300.515 120.784 302.155 120.615C303.465 120.481 304.616 119.944 305.525 118.9C306.536 117.736 306.943 116.388 306.948 114.897C306.964 110.888 306.955 106.878 306.948 102.868C306.948 102.643 306.889 102.42 306.851 102.148C306.148 102.051 305.5 102.013 304.879 102.164C304.562 102.771 304.929 103.441 304.551 104.086C304.356 103.863 304.21 103.694 304.064 103.528C302.793 102.095 301.206 101.625 299.379 102.107C297.582 102.581 296.407 103.764 295.786 105.517C295.44 106.491 295.317 107.479 295.322 108.512C295.332 110.652 296.132 112.393 297.775 113.746C298.731 114.533 299.892 114.822 301.071 114.697C302.253 114.572 303.306 114.041 304.042 113.018C304.178 112.829 304.297 112.529 304.71 112.542C304.762 113.385 304.805 114.208 304.706 115.012C304.628 115.661 304.392 116.301 304.151 116.916C304.028 117.229 303.791 117.547 303.521 117.745C302.637 118.395 301.702 118.696 300.548 118.367C299.535 118.077 298.759 117.614 298.278 116.676C298.226 116.575 298.144 116.488 298.105 116.435H295.991L295.993 116.437ZM246.74 104.101C246.548 103.915 246.431 103.832 246.353 103.722C244.969 101.774 241.984 101.226 239.646 103.027C238.618 103.819 238.034 104.924 237.682 106.16C237.408 107.123 237.485 108.11 237.506 109.086C237.557 111.311 238.698 112.919 240.468 114.149C241.53 114.544 242.563 114.923 243.757 114.581C244.746 114.297 245.52 113.793 246.172 113.031C246.323 112.854 246.405 112.537 246.804 112.536C246.837 113.182 246.868 113.795 246.899 114.441C247.637 114.594 248.317 114.569 248.985 114.476C249.165 113.4 249.234 106.714 249.113 102.879C249.106 102.653 249.053 102.43 249.017 102.161C248.288 102.066 247.609 101.99 246.927 102.218C246.761 102.82 246.941 103.422 246.736 104.102L246.74 104.101ZM176.976 104.145C176.716 103.94 176.611 103.883 176.539 103.797C174.764 101.643 172.06 101.306 169.853 102.979C169.051 103.586 168.515 104.402 168.143 105.326C167.713 106.396 167.593 107.508 167.613 108.664C167.643 110.394 168.235 111.898 169.363 113.157C169.984 113.851 170.776 114.389 171.762 114.543C172.454 114.651 173.106 114.82 173.838 114.612C174.822 114.331 175.627 113.866 176.271 113.077C176.445 112.864 176.586 112.544 176.986 112.531C177.021 113.198 177.052 113.812 177.086 114.482C177.804 114.561 178.449 114.595 179.139 114.454C179.18 114.217 179.238 114.03 179.239 113.843C179.244 110.147 179.244 106.45 179.236 102.754C179.236 102.571 179.161 102.387 179.111 102.166C178.413 102.053 177.767 101.998 177.08 102.208C177.049 102.805 177.017 103.381 176.976 104.145ZM235.497 109.11C235.507 108.359 235.514 107.775 235.524 107.193C235.561 104.873 233.687 102.736 231.744 102.179C229.379 101.498 226.619 102.198 225.337 104.599C223.92 107.251 223.934 109.919 225.641 112.483C226.747 114.146 228.387 114.781 230.286 114.712C231.557 114.666 232.752 114.194 233.698 113.31C234.346 112.705 234.841 111.96 235.02 111.014H232.647C231.949 112.565 229.84 112.926 228.771 112.38C228.087 112.031 227.535 111.552 227.205 110.852C226.961 110.332 226.616 109.814 227.029 109.136C228.361 109.084 229.733 109.118 231.103 109.112C232.515 109.105 233.928 109.112 235.497 109.112V109.11ZM157.096 114.436C157.351 114.487 157.466 114.53 157.581 114.53C160.098 114.535 162.615 114.538 165.132 114.53C165.309 114.53 165.486 114.431 165.7 114.369C165.7 114.048 165.709 113.774 165.696 113.5C165.683 113.238 165.645 112.975 165.613 112.669C165.198 112.649 164.85 112.618 164.504 112.616C163.166 112.61 161.83 112.618 160.492 112.61C160.229 112.608 159.967 112.554 159.726 112.526C159.555 111.439 159.56 108.604 159.734 107.595C160.018 107.567 160.321 107.516 160.626 107.513C161.807 107.503 162.986 107.513 164.166 107.503C164.427 107.502 164.688 107.439 164.97 107.403C165.053 106.837 165.055 106.346 164.965 105.785C164.607 105.758 164.304 105.719 164.001 105.717C162.82 105.709 161.641 105.721 160.46 105.708C160.198 105.704 159.936 105.632 159.601 105.581C159.601 104.745 159.577 103.96 159.608 103.179C159.639 102.41 159.457 101.621 159.773 100.808C160.185 100.808 160.575 100.808 160.965 100.808C162.264 100.808 163.561 100.815 164.86 100.801C165.121 100.8 165.38 100.726 165.642 100.687C165.704 100.037 165.762 99.4617 165.606 98.9091C164.785 98.7631 159.199 98.6746 157.666 98.7828C157.481 98.7959 157.299 98.8763 157.14 98.9205C156.943 99.9733 156.877 107.533 157.005 113.584C157.01 113.849 157.058 114.115 157.092 114.436H157.096ZM263.377 114.541C263.398 114.002 263.428 113.616 263.428 113.229C263.433 111.224 263.421 109.217 263.433 107.211C263.441 105.695 264.149 104.611 265.689 104.178C267.242 103.742 268.862 104.497 269.426 106.013C269.559 106.368 269.595 106.775 269.598 107.159C269.615 109.243 269.602 111.329 269.61 113.413C269.61 113.756 269.521 114.13 269.815 114.415C270.846 114.605 271.291 114.594 272.16 114.348C272.189 114.146 272.248 113.92 272.25 113.693C272.258 111.688 272.298 109.681 272.237 107.675C272.207 106.669 272.125 105.655 271.706 104.693C270.436 101.782 266.499 100.964 264.213 103.159C264.025 103.341 263.823 103.509 263.513 103.784C263.448 103.151 263.398 102.671 263.344 102.144C262.526 102.084 261.764 101.953 261.016 102.23C260.98 102.397 260.935 102.51 260.935 102.623C260.931 106.4 260.927 110.174 260.935 113.951C260.935 114.13 261.026 114.307 261.09 114.543C261.485 114.543 261.836 114.543 262.187 114.543C262.538 114.543 262.89 114.543 263.377 114.543V114.541ZM284.022 114.426C284.037 113.949 284.057 113.562 284.057 113.177C284.06 111.327 284.057 109.478 284.058 107.628C284.058 107.352 284.039 107.075 284.066 106.801C284.198 105.554 284.835 104.675 286.023 104.242C286.787 103.963 287.598 103.96 288.338 104.258C289.199 104.604 289.899 105.189 290.094 106.173C290.193 106.67 290.275 107.177 290.28 107.682C290.301 109.65 290.284 111.617 290.293 113.585C290.293 113.885 290.204 114.22 290.521 114.505C291.213 114.54 291.942 114.625 292.631 114.441C292.677 114.29 292.72 114.217 292.72 114.144C292.729 111.586 292.77 109.028 292.723 106.472C292.7 105.263 292.265 104.119 291.38 103.284C289.309 101.329 286.287 101.633 284.73 103.12C284.578 103.266 284.499 103.553 284.109 103.487C284.071 103.102 284.03 102.692 283.994 102.326C283.556 101.966 283.107 102.089 282.689 102.084C281.433 102.072 281.41 102.097 281.408 103.304C281.403 106.649 281.407 109.994 281.408 113.339C281.408 113.575 281.405 113.813 281.428 114.046C281.454 114.307 281.608 114.502 281.874 114.513C282.535 114.545 283.199 114.607 284.02 114.426H284.022ZM208.129 102.243C207.467 101.974 206.912 102.125 206.378 102.08C205.883 102.039 205.561 102.243 205.386 102.722C205.13 103.42 204.836 104.106 204.571 104.801C203.789 106.851 203.015 108.902 202.231 110.952C202.172 111.107 202.064 111.244 201.903 111.514C201.595 110.676 201.34 109.981 201.081 109.287C200.316 107.231 199.556 105.171 198.777 103.12C198.643 102.764 198.6 102.338 198.131 102.079C197.817 102.079 197.423 102.066 197.031 102.082C196.616 102.1 196.182 102.002 195.79 102.18C195.79 102.328 195.768 102.412 195.793 102.476C196.833 105.099 197.874 107.723 198.92 110.345C199.384 111.509 199.855 112.672 200.327 113.833C200.452 114.139 200.473 114.441 200.343 114.748C200.053 115.433 199.761 116.117 199.473 116.802C199.233 117.37 199.002 117.939 198.848 118.605C199.707 118.752 200.471 118.752 201.316 118.598C203.597 113.198 205.837 107.771 208.129 102.241V102.243ZM217.947 112.528C217.753 112.075 217.824 111.639 217.824 111.216C217.817 107.597 217.824 103.976 217.815 100.355C217.815 99.9323 217.889 99.4928 217.686 99.0353C216.953 98.9156 216.23 98.9156 215.434 99.0452C215.41 99.4272 215.369 99.7732 215.367 100.119C215.361 101.772 215.364 103.425 215.364 105.076C215.364 107.792 215.359 110.506 215.369 113.221C215.37 113.638 215.244 114.094 215.603 114.463C215.71 114.485 215.825 114.53 215.938 114.53C218.179 114.535 220.421 114.54 222.664 114.53C222.843 114.53 223.02 114.438 223.204 114.387C223.233 113.787 223.34 113.246 223.125 112.698C222.518 112.544 221.928 112.631 221.346 112.616C220.795 112.601 220.244 112.626 219.695 112.61C219.116 112.593 218.525 112.692 217.948 112.526L217.947 112.528ZM191.123 97.9088C191.093 98.2745 191.052 98.5418 191.052 98.809C191.049 103.761 191.047 108.715 191.054 113.667C191.054 113.931 191.12 114.195 191.152 114.443C192.505 114.618 192.769 114.605 193.551 114.308C193.551 109.03 193.551 103.728 193.548 98.4253C193.548 98.2761 193.499 98.1269 193.465 97.9252C192.71 97.771 191.982 97.8038 191.123 97.9088ZM254.829 114.471C254.849 113.992 254.876 113.605 254.878 113.218C254.883 111.45 254.87 109.683 254.888 107.916C254.893 107.449 254.929 106.972 255.037 106.519C255.331 105.298 256.116 104.671 257.374 104.593C257.756 104.568 258.138 104.557 258.566 104.537C258.687 103.656 258.728 102.856 258.545 102.007C258.32 101.997 258.123 101.951 257.943 101.985C256.908 102.18 256.036 102.663 255.383 103.509C255.278 103.645 255.231 103.887 254.963 103.768C254.737 103.263 255.065 102.664 254.676 102.143C253.958 102.056 253.23 102.039 252.509 102.157C252.453 102.331 252.389 102.44 252.389 102.546C252.384 106.395 252.382 110.243 252.389 114.094C252.389 114.202 252.451 114.31 252.505 114.485C253.233 114.582 253.963 114.576 254.829 114.474V114.471ZM185.144 104.071C185.072 103.235 185.026 102.708 184.974 102.098C184.144 102.138 183.378 101.921 182.637 102.244C182.606 102.407 182.565 102.522 182.565 102.635C182.56 106.406 182.558 110.176 182.565 113.948C182.565 114.126 182.653 114.305 182.717 114.543C183.111 114.543 183.46 114.554 183.811 114.54C184.191 114.523 184.592 114.625 185.013 114.389C185.029 114.012 185.057 113.626 185.059 113.241C185.064 111.473 185.059 109.705 185.064 107.938C185.064 107.585 185.067 107.229 185.11 106.88C185.284 105.491 186.228 104.643 187.625 104.581C188.002 104.565 188.411 104.699 188.744 104.425C188.904 103.158 188.886 102.731 188.63 101.971C187.196 101.979 186.117 102.649 185.147 104.068L185.144 104.071ZM277.907 114.471C277.957 114.249 278.002 114.138 278.002 114.025C278.007 110.253 278.011 106.48 278.002 102.708C278.002 102.526 277.917 102.346 277.868 102.153C277.082 102.051 276.354 102.026 275.574 102.176C275.438 103.592 275.525 104.962 275.51 106.326C275.495 107.662 275.495 108.997 275.51 110.334C275.526 111.696 275.436 113.064 275.574 114.469C276.379 114.577 277.112 114.577 277.907 114.469V114.471ZM275.233 98.8041C275.23 99.7159 275.589 100.168 276.456 100.382C276.871 100.485 277.222 100.337 277.57 100.157C278.365 99.747 278.588 98.3925 277.97 97.7448C277.51 97.2644 276.741 97.0922 276.14 97.3365C275.495 97.5972 275.234 98.017 275.231 98.8041H275.233Z" fill="#67B95F"/>
<path d="M165.971 66.6412C166.102 68.24 165.761 70.0339 165.053 71.7672C164.162 73.9448 162.744 75.6961 160.692 76.8423C158.63 77.9951 156.439 78.3132 154.112 77.6032C151.99 76.9555 150.408 75.6617 149.119 73.9022C147.945 72.2985 147.454 70.4635 147.143 68.5581C146.789 66.3919 146.987 64.2471 147.6 62.1563C148.173 60.2083 149.166 58.5045 150.783 57.1927C151.27 56.7975 151.733 56.3712 152.279 56.0645C154.415 54.8675 156.691 54.7428 159.012 55.3282C160.233 55.6365 161.302 56.2826 162.286 57.1041C163.488 58.1093 164.397 59.3097 164.999 60.7379C165.564 62.0793 165.958 63.4731 165.969 64.9473C165.973 65.4195 165.969 65.8918 165.969 66.6395L165.971 66.6412Z" fill="#67B95F"/>
<path d="M256.555 64.0865C256.596 63.6782 256.618 63.2944 256.675 62.9173C256.906 61.4316 257.369 60.0345 258.141 58.726C259.261 56.8287 261.84 55.066 264.138 54.8184C265.502 54.6724 266.807 54.756 268.08 55.1676C269.236 55.5415 270.29 56.1335 271.194 56.996C272.361 58.1094 273.185 59.4131 273.652 60.9463C273.788 61.3939 273.893 61.8547 273.968 62.3155C274.063 62.8861 274.113 63.465 274.178 64.0127C274.067 64.0881 274.003 64.1685 273.939 64.1685C268.318 64.1832 262.696 64.1947 257.075 64.198C256.926 64.198 256.777 64.1357 256.554 64.0848L256.555 64.0865Z" fill="#67B95F"/>
<path d="M211.572 66.3001C211.673 67.858 211.434 69.3633 211.003 70.8407C210.419 72.8413 209.389 74.5303 207.767 75.8962C206.716 76.7801 205.554 77.3966 204.279 77.782C202.384 78.3559 200.498 78.2493 198.64 77.4917C196.654 76.68 195.228 75.2682 194.246 73.4201C193.773 72.533 193.401 71.5836 193.231 70.5521C192.994 69.1239 192.696 67.7104 192.699 66.2542C192.703 65.2704 192.896 64.3144 193.052 63.3502C193.221 62.2991 193.467 61.2791 193.901 60.3051C194.777 58.3488 196.094 56.8139 197.996 55.7694C200.157 54.5822 202.402 54.4707 204.714 55.1266C205.737 55.4168 206.654 55.9629 207.511 56.6024C209.604 58.1635 210.691 60.328 211.25 62.8074C211.388 63.4174 211.503 64.0372 211.562 64.6587C211.614 65.2048 211.573 65.759 211.573 66.2985L211.572 66.3001Z" fill="#67B95F"/>
<path d="M297.638 108.479C297.666 106.99 298.002 105.911 298.897 105.021C300.625 103.305 303.124 104.192 303.953 105.678C304.341 106.373 304.612 107.113 304.699 107.882C304.831 109.048 304.456 110.124 303.826 111.104C303.252 111.996 302.334 112.336 301.372 112.58C301.157 112.634 300.898 112.603 300.678 112.542C299.209 112.134 298.176 111.275 297.856 109.717C297.754 109.222 297.679 108.722 297.638 108.481V108.479Z" fill="#67B95F"/>
<path d="M239.824 108.118C239.704 106.842 240.206 105.732 241.215 104.86C242.654 103.614 244.57 103.899 245.652 105.13C247.098 106.775 247.28 109.456 245.793 111.294C245.166 112.07 244.306 112.416 243.369 112.59C243.123 112.636 242.841 112.5 242.577 112.439C240.893 112.049 239.918 110.543 239.826 108.904C239.813 108.669 239.824 108.433 239.824 108.116V108.118Z" fill="#67B95F"/>
<path d="M169.926 108.476C169.957 106.988 170.293 105.911 171.187 105.021C172.786 103.43 175.117 104.074 176.029 105.393C176.601 106.219 176.979 107.152 176.997 108.125C177.031 110.047 176.091 112.003 173.876 112.531C173.519 112.616 173.196 112.61 172.843 112.506C171.687 112.17 170.777 111.521 170.342 110.386C170.08 109.701 169.837 108.976 169.926 108.476Z" fill="#67B95F"/>
<path d="M233.152 107.383C232.122 107.547 228.079 107.557 226.96 107.406C226.747 107.042 226.891 106.693 227.001 106.314C227.208 105.601 227.631 105.044 228.195 104.611C229.115 103.902 230.171 103.858 231.196 104.292C232.581 104.88 233.108 105.772 233.152 107.385V107.383Z" fill="#67B95F"/>
</svg>
