<svg width="396" height="208" viewBox="0 0 396 208" fill="none" xmlns="http://www.w3.org/2000/svg">
<path d="M50.0971 0H344.972C372.645 0 395.12 22.5428 395.12 50.2995V157.544C395.12 185.3 372.645 207.843 344.972 207.843H50.1481C22.4749 207.843 0 185.3 0 157.544V50.2484C0 22.5428 22.4749 0 50.0971 0Z" fill="white"/>
<path d="M343.494 8.94473H264.857V17.4813H343.494C362.401 17.4813 377.741 32.9188 377.741 51.8322V156.214C377.741 175.178 362.35 190.565 343.494 190.565H51.5748C32.6673 190.565 17.3273 175.127 17.3273 156.214V51.8322C17.3273 32.8677 32.7183 17.4813 51.5748 17.4813H130.262V8.94473H51.5748C27.9787 8.94473 8.81641 28.1649 8.81641 51.8322V156.214C8.81641 179.881 27.9787 199.101 51.5748 199.101H343.494C367.09 199.101 386.252 179.881 386.252 156.214V51.8322C386.252 28.1649 367.09 8.94473 343.494 8.94473Z" fill="#0A4635"/>
<path d="M147.133 15.4892H150.955V17.7384H147.133V22.2878H151.975V24.537H144.33V8.94617H151.975V11.1953H147.133V15.5403V15.4892Z" fill="#0A4635"/>
<path d="M162.575 8.74069C165.277 8.74069 166.704 10.172 166.704 12.6767V13.1879H164.053V12.5234C164.053 11.3988 163.544 10.9899 162.677 10.9899C161.811 10.9899 161.301 11.3988 161.301 12.5234C161.301 15.7438 166.755 16.3061 166.755 20.7533C166.755 23.258 165.328 24.6893 162.575 24.6893C159.823 24.6893 158.396 23.258 158.396 20.7533V19.782H161.047V20.9066C161.047 22.0312 161.607 22.4401 162.474 22.4401C163.34 22.4401 163.901 22.0312 163.901 20.9066C163.901 17.6862 158.447 17.1239 158.447 12.6767C158.447 10.172 159.823 8.74069 162.575 8.74069Z" fill="#0A4635"/>
<path d="M172.613 8.94498H181.277V11.1941H178.372V24.5358H175.569V11.143H172.664V8.89386L172.613 8.94498Z" fill="#0A4635"/>
<path d="M188.769 22.1346V24.486H186.068V22.1346H188.769Z" fill="#0A4635"/>
<path d="M198.25 10.8879C200.39 10.8879 200.9 9.96775 201.308 8.9454H203.193V24.5362H200.39V12.6259H198.25V10.8879Z" fill="#0A4635"/>
<path d="M215.731 24.6896C212.928 24.6896 211.348 23.2583 211.348 20.7536V19.5268C211.348 18.0444 211.857 16.8687 213.08 16.2553C211.908 15.693 211.348 14.6706 211.348 13.1371V12.6259C211.348 10.1212 212.877 8.68988 215.731 8.68988C218.584 8.68988 220.113 10.1212 220.113 12.6259V13.1371C220.113 14.6706 219.553 15.693 218.381 16.2553C219.604 16.8687 220.113 17.9932 220.113 19.5268V20.7536C220.113 23.2583 218.584 24.6896 215.731 24.6896ZM214.151 13.6483C214.151 14.8751 214.813 15.284 215.731 15.284C216.648 15.284 217.31 14.8751 217.31 13.6483V12.7793C217.31 11.3991 216.597 10.9902 215.731 10.9902C214.864 10.9902 214.151 11.348 214.151 12.7793V13.6483ZM215.731 22.4916C216.597 22.4916 217.259 22.1338 217.31 20.7536V19.3223C217.31 18.0955 216.699 17.5843 215.731 17.5843C214.762 17.5843 214.151 18.0955 214.151 19.3223V20.7536C214.151 22.1338 214.813 22.4916 215.731 22.4916Z" fill="#0A4635"/>
<path d="M230.918 24.6896C228.115 24.6896 226.535 23.2583 226.535 20.7536V19.5268C226.535 18.0444 227.045 16.8687 228.268 16.2553C227.096 15.693 226.535 14.6706 226.535 13.1371V12.6259C226.535 10.1212 228.064 8.68988 230.918 8.68988C233.772 8.68988 235.301 10.1212 235.301 12.6259V13.1371C235.301 14.6706 234.74 15.693 233.568 16.2553C234.791 16.8687 235.301 17.9932 235.301 19.5268V20.7536C235.301 23.2583 233.772 24.6896 230.918 24.6896ZM229.338 13.6483C229.338 14.8751 230.001 15.284 230.918 15.284C231.835 15.284 232.498 14.8751 232.498 13.6483V12.7793C232.498 11.3991 231.784 10.9902 230.918 10.9902C230.052 10.9902 229.338 11.348 229.338 12.7793V13.6483ZM230.918 22.4916C231.784 22.4916 232.447 22.1338 232.498 20.7536V19.3223C232.498 18.0955 231.886 17.5843 230.918 17.5843C229.95 17.5843 229.338 18.0955 229.338 19.3223V20.7536C229.338 22.1338 230.001 22.4916 230.918 22.4916Z" fill="#0A4635"/>
<path d="M246.104 24.6896C243.301 24.6896 241.721 23.2583 241.721 20.7536V19.5268C241.721 18.0444 242.23 16.8687 243.453 16.2553C242.281 15.693 241.721 14.6706 241.721 13.1371V12.6259C241.721 10.1212 243.25 8.68988 246.104 8.68988C248.958 8.68988 250.486 10.1212 250.486 12.6259V13.1371C250.486 14.6706 249.926 15.693 248.754 16.2553C249.977 16.8687 250.486 17.9932 250.486 19.5268V20.7536C250.486 23.2583 248.958 24.6896 246.104 24.6896ZM244.524 13.6483C244.524 14.8751 245.186 15.284 246.104 15.284C247.021 15.284 247.683 14.8751 247.683 13.6483V12.7793C247.683 11.3991 246.97 10.9902 246.104 10.9902C245.237 10.9902 244.524 11.348 244.524 12.7793V13.6483ZM246.104 22.4916C246.97 22.4916 247.632 22.1338 247.683 20.7536V19.3223C247.683 18.0955 247.072 17.5843 246.104 17.5843C245.135 17.5843 244.524 18.0955 244.524 19.3223V20.7536C244.524 22.1338 245.186 22.4916 246.104 22.4916Z" fill="#0A4635"/>
<path d="M41.5867 94.5171C41.5867 97.8908 40.2617 99.9355 38.6818 100.907V101.162H53.5122V100.907C51.8814 99.9355 50.6073 97.8908 50.6073 94.5171C50.6073 93.597 50.6073 74.6835 50.6073 74.6835H59.6788C65.1319 74.6835 65.9473 76.9327 65.9473 76.9327H66.2021V69.0095H50.6073V53.5209H63.9597C69.3109 53.5209 71.0436 56.6902 71.0436 56.6902H71.2475V47.6424H38.6309V47.898C40.2617 48.8692 41.5358 50.9139 41.5358 54.2877V94.5171H41.5867Z" fill="#0A4635"/>
<path d="M207.472 120.791C207.472 117.417 208.797 115.373 210.377 114.401V114.146H195.547V114.401C197.178 115.373 198.452 117.417 198.452 120.791V161.02C198.452 164.394 197.127 166.439 195.547 167.41V167.666H210.377V167.41C208.746 166.439 207.472 164.394 207.472 161.02V120.791Z" fill="#0A4635"/>
<path d="M249.925 158.668H218.889V167.665H249.925V158.668Z" fill="#0A4635"/>
<path d="M274.746 56.6895H274.95V47.6417H244.729V47.8973C246.359 48.8685 247.633 50.9132 247.633 54.287V94.5164C247.633 97.8901 246.308 99.9348 244.729 100.906V101.162H278.466L281.422 91.5516H281.218C281.218 91.5516 279.537 94.7208 274.134 94.7208H256.705V74.6317H263.432C268.885 74.6317 269.701 76.8809 269.701 76.8809H269.955V68.9577H256.705V53.4691H267.662C273.013 53.4691 274.746 56.6384 274.746 56.6384V56.6895Z" fill="#0A4635"/>
<path d="M146.165 47.6413H125.83V47.8969C127.461 48.8681 128.735 50.9128 128.735 54.2865V94.5159C128.735 97.8896 127.41 99.9343 125.83 100.906V101.161H140.66V100.906C139.03 99.9343 137.756 97.8896 137.756 94.5159V53.4686H146.215C147.897 53.4686 153.86 53.6731 153.86 61.443C153.86 69.2128 147.439 72.2287 140.508 73.3022C140.508 73.3022 159.211 97.9408 160.179 99.0653C161.148 100.19 161.759 101.161 163.9 101.161H175.061V100.906C175.061 100.906 172.869 100.292 168.843 96.1517C164.817 92.0112 150.904 73.8134 150.904 73.8134C150.904 73.8134 163.39 71.2064 163.39 61.034C163.39 50.8617 152.892 47.5901 146.215 47.5901L146.165 47.6413Z" fill="#0A4635"/>
<path d="M303.897 47.6417H283.562V47.8973C285.193 48.8685 286.467 50.9132 286.467 54.287V94.5164C286.467 97.8901 285.142 99.9348 283.562 100.906V101.162H298.393V100.906C296.762 99.9348 295.488 97.8901 295.488 94.5164V53.4691H303.948C305.63 53.4691 311.592 53.6736 311.592 61.4434C311.592 69.2133 305.171 72.2292 298.24 73.3027L308.637 73.8649C308.637 73.8649 321.123 71.258 321.123 61.0856C321.123 50.9132 310.624 47.6417 303.948 47.6417H303.897Z" fill="#0A4635"/>
<path d="M237.694 94.9248L232.393 54.4399V54.1843C232.139 51.424 232.903 49.1237 234.585 47.8457V47.5901H222.558L206.657 83.0145L190.96 47.5901H177.353V47.8457C179.035 49.1237 180.207 51.0661 180.003 53.8265L174.448 92.9313C174.193 94.1581 173.836 98.5542 169.861 100.906V101.161H184.488V100.906C180.666 99.7299 180.105 95.7427 180.768 92.1134L185.711 59.8583L204.567 100.701L223.679 59.705C224.698 67.5259 228.469 96.0494 228.469 96.1517C228.571 98.6053 228.011 99.4743 225.972 100.906V101.161H241.516V100.906C238.152 99.4232 237.694 94.8737 237.694 94.8737V94.9248Z" fill="#0A4635"/>
<path d="M183.47 153.864V123.194C183.47 119.462 182.553 115.526 178.527 114.401V114.146H193.153V114.401C189.484 116.753 189.586 121.149 189.535 122.376V167.717H183.419L151.822 128.05V158.72C151.822 162.452 152.739 166.388 156.765 167.512V167.768H142.139V167.512C145.808 165.161 145.706 160.765 145.757 159.538V120.433C145.604 117.673 144.126 115.73 142.292 114.452V114.197H152.637L183.47 153.864Z" fill="#0A4635"/>
<path d="M299.003 153.864V123.194C299.003 119.462 298.086 115.526 294.06 114.401V114.146H308.686V114.401C305.017 116.753 305.119 121.149 305.068 122.376V167.717H298.952L267.355 128.05V158.72C267.355 162.452 268.272 166.388 272.298 167.512V167.768H257.672V167.512C261.341 165.161 261.239 160.765 261.29 159.538V120.433C261.137 117.673 259.659 115.73 257.825 114.452V114.197H268.17L299.003 153.864Z" fill="#0A4635"/>
<path d="M118.645 94.9253L100.756 47.6417H86.8433V47.8973C88.2193 49.1752 88.9328 51.1177 88.0664 53.878L73.236 92.9828C72.7264 94.2097 71.2994 98.6058 66.7637 100.957V101.213H81.3902V100.957C77.8227 99.7815 78.2814 95.7943 79.7594 92.165L83.8874 81.6859H103.763C106.719 89.5069 109.216 96.101 109.267 96.2032C109.981 98.6569 109.675 99.5259 107.942 100.957V101.213H123.945V100.957C120.224 99.4748 118.645 94.9253 118.645 94.9253ZM86.3337 75.5007L94.0291 55.9227C94.0291 55.9227 97.6985 65.635 101.47 75.5007H86.3337Z" fill="#0A4635"/>
<path d="M308.586 73.8646C329.175 103.666 353.74 97.5831 353.74 84.5993C353.74 72.9956 327.035 77.1362 327.035 60.5741C327.035 53.571 334.17 47.6925 343.904 47.6925C353.638 47.6925 357.511 50.9129 357.511 50.9129V58.8361C357.511 58.8361 352.822 53.7244 346.35 53.7244C339.878 53.7244 336.31 55.8713 336.31 59.6029C336.31 69.8264 362.352 65.6859 362.352 82.3501C362.352 97.532 349.102 102.49 337.177 101.315C328.564 100.497 310.625 95.9473 298.189 73.4046L303.082 72.8934L308.586 73.9669V73.8646Z" fill="#0A4635"/>
<path d="M136.124 161.02V114.145H124.199V114.401C125.83 115.372 127.104 117.417 127.104 120.791V148.087C126.9 154.477 125.422 162.349 113.904 162.349C104.425 162.349 101.877 157.084 101.265 148.905V114.094H89.3398V114.35C90.9707 115.321 92.2448 117.366 92.2448 120.739V153.046C92.2448 153.046 91.888 167.665 109.827 167.665C122.313 167.665 126.543 162.093 127.053 161.378V167.665H138.978V167.41C137.347 166.438 136.073 164.394 136.073 161.02H136.124Z" fill="#0A4635"/>
<path d="M234.431 114.146C223.016 114.146 213.74 123.142 213.74 134.235C213.74 145.327 223.016 154.324 234.431 154.324C245.847 154.324 255.123 145.327 255.123 134.235C255.123 123.142 245.847 114.146 234.431 114.146ZM234.431 148.701C227.704 148.701 222.251 142.209 222.251 134.184C222.251 126.158 227.704 119.666 234.431 119.666C241.159 119.666 246.612 126.158 246.612 134.184C246.612 142.209 241.159 148.701 234.431 148.701Z" fill="#0A4635"/>
</svg>
