<svg width="528" height="86" viewBox="0 0 528 86" fill="none" xmlns="http://www.w3.org/2000/svg">
<g clip-path="url(#clip0_525_46553)">
<path d="M262.971 0V47.3916H252.543V0H262.971ZM276.239 13.0813V17.8653H276.426C277.622 15.8844 279.154 14.4268 281.06 13.5298C282.966 12.6328 284.91 12.1843 286.891 12.1843C289.395 12.1843 291.488 12.5206 293.095 13.2308C294.702 13.9035 295.973 14.8753 296.907 16.0713C297.842 17.3046 298.477 18.7623 298.851 20.5189C299.225 22.2755 299.411 24.219 299.411 26.312V47.4289H289.993V27.9939C289.993 25.1534 289.544 23.0604 288.647 21.6402C287.75 20.2573 286.181 19.5471 283.938 19.5471C281.359 19.5471 279.528 20.2946 278.369 21.827C277.211 23.3594 276.65 25.8635 276.65 29.3768V47.3542H267.232V13.0813H276.202H276.239ZM310.699 38.87C311.11 39.6175 311.671 40.1782 312.306 40.6641C312.941 41.1499 313.726 41.4863 314.586 41.7105C315.445 41.9348 316.342 42.0469 317.277 42.0469C317.949 42.0469 318.622 41.9722 319.37 41.8227C320.117 41.6732 320.753 41.4115 321.351 41.0752C321.949 40.7388 322.435 40.2903 322.846 39.7297C323.257 39.169 323.444 38.4963 323.444 37.6367C323.444 36.2164 322.509 35.1699 320.641 34.4598C318.772 33.7497 316.156 33.0395 312.792 32.3294C311.409 32.0304 310.063 31.6567 308.793 31.2455C307.484 30.8344 306.326 30.2738 305.317 29.601C304.308 28.9283 303.485 28.0687 302.85 27.0222C302.215 25.9757 301.916 24.7049 301.916 23.2099C301.916 21.0048 302.364 19.1734 303.224 17.7531C304.083 16.3329 305.242 15.2116 306.625 14.3894C308.045 13.5671 309.615 13.0065 311.409 12.6701C313.165 12.3338 314.997 12.1843 316.866 12.1843C318.734 12.1843 320.528 12.3711 322.285 12.7075C324.042 13.0439 325.574 13.6419 326.957 14.5015C328.34 15.3238 329.461 16.445 330.358 17.8653C331.255 19.2481 331.816 21.0048 331.965 23.1352H322.995C322.846 21.3038 322.173 20.1078 320.94 19.435C319.706 18.7996 318.249 18.4633 316.567 18.4633C316.043 18.4633 315.445 18.4633 314.847 18.5754C314.212 18.6501 313.651 18.7996 313.165 19.0239C312.642 19.2481 312.231 19.5845 311.857 19.9956C311.521 20.4068 311.334 20.9674 311.334 21.6775C311.334 22.4998 311.633 23.2099 312.269 23.7332C312.904 24.2564 313.689 24.7049 314.698 25.0413C315.707 25.3777 316.828 25.6767 318.099 25.9383C319.37 26.1999 320.678 26.4989 322.023 26.7979C323.406 27.0969 324.714 27.4707 326.023 27.9192C327.331 28.3677 328.489 28.9657 329.498 29.6758C330.508 30.4233 331.33 31.3203 331.965 32.4042C332.601 33.488 332.9 34.8335 332.9 36.4033C332.9 38.6458 332.451 40.5519 331.554 42.0843C330.657 43.6167 329.461 44.8501 328.003 45.7844C326.546 46.7188 324.864 47.3542 322.995 47.7279C321.126 48.1017 319.183 48.2886 317.239 48.2886C315.296 48.2886 313.315 48.1017 311.409 47.6906C309.503 47.2794 307.821 46.6441 306.326 45.7097C304.831 44.7753 303.635 43.5419 302.663 42.0095C301.729 40.4772 301.205 38.571 301.093 36.2538H310.063C310.063 37.2629 310.288 38.1599 310.699 38.87ZM359.025 47.3916V42.6076H358.838C357.642 44.5884 356.109 46.0461 354.203 46.9057C352.297 47.8027 350.354 48.2512 348.373 48.2512C345.869 48.2512 343.776 47.9148 342.169 47.2421C340.561 46.5693 339.291 45.6349 338.356 44.4389C337.422 43.2056 336.787 41.7479 336.413 39.9913C336.039 38.2347 335.852 36.2912 335.852 34.1982V13.0813H345.271V32.4415C345.271 35.282 345.719 37.375 346.616 38.7953C347.513 40.1782 349.083 40.8883 351.325 40.8883C353.904 40.8883 355.736 40.1408 356.894 38.6084C358.053 37.076 358.614 34.5719 358.614 31.0587V13.0813H368.032V47.3916H359.062H359.025ZM382.309 0V47.3916H372.891V0H382.309ZM388.401 18.1269C389.373 16.6693 390.607 15.5106 392.102 14.6136C393.597 13.7166 395.316 13.0813 397.185 12.7075C399.053 12.3338 400.96 12.1469 402.866 12.1469C404.585 12.1469 406.341 12.259 408.098 12.5206C409.855 12.7823 411.499 13.2308 412.957 13.9409C414.414 14.651 415.611 15.6228 416.545 16.8935C417.479 18.1643 417.928 19.8088 417.928 21.9018V39.767C417.928 41.2994 418.003 42.7944 418.189 44.2147C418.376 45.6349 418.675 46.6814 419.124 47.3916H409.556C409.369 46.8683 409.219 46.3077 409.107 45.7844C408.995 45.2238 408.92 44.6632 408.883 44.1026C407.388 45.6349 405.594 46.7188 403.576 47.3542C401.557 47.9896 399.464 48.2886 397.334 48.2886C395.69 48.2886 394.157 48.1017 392.737 47.6906C391.317 47.2794 390.083 46.6814 389.037 45.8218C387.99 44.9996 387.131 43.9157 386.533 42.6449C385.935 41.3742 385.636 39.8418 385.636 38.0478C385.636 36.1043 385.972 34.4972 386.682 33.2264C387.355 31.9557 388.252 30.9465 389.336 30.199C390.42 29.4515 391.653 28.8909 393.036 28.5172C394.419 28.1434 395.839 27.8444 397.259 27.6202C398.68 27.3959 400.062 27.209 401.445 27.0969C402.828 26.9474 404.024 26.7605 405.108 26.4989C406.155 26.2373 407.014 25.8635 407.612 25.3403C408.248 24.817 408.509 24.1069 408.472 23.1352C408.472 22.126 408.322 21.3038 407.986 20.7058C407.65 20.1078 407.201 19.6593 406.641 19.3229C406.08 18.9865 405.444 18.7623 404.734 18.6501C403.987 18.538 403.202 18.5006 402.38 18.5006C400.511 18.5006 399.053 18.9118 398.007 19.6966C396.96 20.4815 396.325 21.827 396.138 23.6958H386.72C386.869 21.4907 387.392 19.6593 388.364 18.2016L388.401 18.1269ZM407.014 31.4324C406.416 31.6193 405.781 31.8062 405.108 31.9183C404.435 32.0678 403.688 32.1799 402.94 32.2547C402.193 32.3294 401.445 32.4415 400.698 32.591C399.988 32.7405 399.278 32.89 398.605 33.1143C397.932 33.3385 397.334 33.6375 396.811 34.0113C396.288 34.385 395.876 34.8709 395.577 35.4315C395.278 35.9922 395.129 36.7397 395.129 37.6367C395.129 38.5337 395.278 39.169 395.577 39.767C395.876 40.3277 396.325 40.8135 396.848 41.1125C397.371 41.4115 398.007 41.6732 398.717 41.8227C399.427 41.9722 400.137 42.0095 400.922 42.0095C402.791 42.0095 404.211 41.7105 405.22 41.0752C406.229 40.4398 406.977 39.7297 407.463 38.87C407.949 38.0104 408.248 37.1508 408.36 36.2538C408.472 35.3568 408.509 34.6467 408.509 34.1234V30.6102C408.098 30.9465 407.612 31.2455 407.014 31.4324ZM441.474 13.0813V19.3976H434.56V36.4033C434.56 38.0104 434.821 39.0569 435.345 39.5802C435.868 40.1034 436.952 40.365 438.521 40.365C439.045 40.365 439.568 40.365 440.054 40.2903C440.54 40.2529 440.988 40.1782 441.437 40.1034V47.3916C440.652 47.5411 439.755 47.6158 438.783 47.6532C437.811 47.6906 436.877 47.7279 435.943 47.7279C434.485 47.7279 433.102 47.6158 431.794 47.4289C430.486 47.2421 429.327 46.8309 428.355 46.2703C427.346 45.7097 426.561 44.8874 426.001 43.8036C425.44 42.7571 425.141 41.3368 425.141 39.6175V19.3603H419.423V13.0439H425.141V2.80313H434.56V13.0813H441.474ZM444.913 7.77401V0H454.331V7.77401H444.913ZM454.331 13.0813V47.3916H444.913V13.0813H454.331ZM458.031 22.7988C458.853 20.5563 460.049 18.6501 461.619 17.0804C463.152 15.5106 465.02 14.2773 467.188 13.4176C469.356 12.558 471.785 12.1095 474.476 12.1095C477.167 12.1095 479.634 12.558 481.802 13.4176C484.007 14.2773 485.876 15.5106 487.408 17.0804C488.94 18.6501 490.136 20.5563 490.996 22.7988C491.818 25.0413 492.267 27.508 492.267 30.2738C492.267 33.0395 491.856 35.5063 490.996 37.7114C490.174 39.9165 488.978 41.8227 487.408 43.3924C485.876 44.9622 484.007 46.1582 481.802 47.0178C479.597 47.8774 477.167 48.2886 474.476 48.2886C471.785 48.2886 469.356 47.8774 467.188 47.0178C465.02 46.1582 463.152 44.9622 461.619 43.3924C460.087 41.8227 458.891 39.9165 458.031 37.7114C457.209 35.5063 456.76 33.0395 456.76 30.2738C456.76 27.508 457.172 25.0413 458.031 22.7988ZM466.59 34.2729C466.852 35.581 467.3 36.7397 467.936 37.7862C468.571 38.8327 469.431 39.6549 470.477 40.2903C471.524 40.9257 472.869 41.2247 474.476 41.2247C476.083 41.2247 477.391 40.9257 478.475 40.2903C479.559 39.6549 480.419 38.8327 481.054 37.7862C481.69 36.7397 482.138 35.581 482.4 34.2729C482.661 32.9648 482.811 31.6193 482.811 30.2738C482.811 28.9283 482.661 27.5454 482.4 26.2373C482.138 24.8918 481.69 23.7332 481.054 22.724C480.419 21.7149 479.559 20.8926 478.475 20.2199C477.391 19.5845 476.046 19.2481 474.476 19.2481C472.906 19.2481 471.561 19.5845 470.477 20.2199C469.431 20.8553 468.571 21.6775 467.936 22.724C467.3 23.7332 466.852 24.9292 466.59 26.2373C466.328 27.5454 466.179 28.9283 466.179 30.2738C466.179 31.6193 466.328 33.0022 466.59 34.2729ZM504.675 13.0813V17.8653H504.862C506.058 15.8844 507.59 14.4268 509.497 13.5298C511.403 12.6328 513.346 12.1843 515.327 12.1843C517.831 12.1843 519.924 12.5206 521.531 13.2308C523.138 13.9035 524.409 14.8753 525.344 16.0713C526.278 17.3046 526.913 18.7623 527.287 20.5189C527.661 22.2755 527.848 24.219 527.848 26.312V47.4289H518.429V27.9939C518.429 25.1534 517.981 23.0604 517.084 21.6402C516.187 20.2573 514.617 19.5471 512.374 19.5471C509.796 19.5471 507.964 20.2946 506.806 21.827C505.647 23.3594 505.086 25.8635 505.086 29.3768V47.3542H495.668V13.0813H504.638H504.675ZM34.385 0.186875V8.82051H11.362V19.6219H31.3203V27.5828H11.362V46.8683H0.896973V0.186875H34.385ZM46.8309 0.186875V46.8683H37.375V0.186875H46.8309ZM61.8557 38.7579C63.2759 40.1034 65.3316 40.7762 67.9852 40.7762C69.8913 40.7762 71.5358 40.2903 72.9187 39.3559C74.3016 38.4215 75.1238 37.4124 75.4602 36.3659H83.7948C82.4493 40.4398 80.4311 43.3177 77.6653 45.0743C74.8996 46.8309 71.5732 47.6906 67.6488 47.6906C64.9204 47.6906 62.4911 47.2794 60.3233 46.4198C58.1555 45.5602 56.2868 44.3642 54.7918 42.7944C53.2968 41.2247 52.1008 39.3559 51.2785 37.1882C50.4563 35.0204 50.0452 32.6284 50.0452 30.0122C50.0452 27.3959 50.4563 25.116 51.3159 22.9483C52.1755 20.7805 53.3715 18.8744 54.9039 17.3046C56.4737 15.6975 58.305 14.4641 60.4728 13.5298C62.6406 12.5954 65.0326 12.1469 67.6488 12.1469C70.6014 12.1469 73.1429 12.7075 75.3107 13.8288C77.4784 14.95 79.2724 16.445 80.6927 18.3138C82.0756 20.1825 83.1221 22.3129 83.7201 24.7423C84.3555 27.1343 84.5797 29.6384 84.3928 32.2547H59.501C59.6505 35.2447 60.3981 37.4498 61.8183 38.7953L61.8557 38.7579ZM72.5823 20.9674C71.4611 19.734 69.7418 19.136 67.4246 19.136C65.9296 19.136 64.6588 19.3976 63.6497 19.8835C62.6406 20.3694 61.8557 21.0048 61.2577 21.7523C60.6597 22.4998 60.2485 23.2847 59.9869 24.1069C59.7253 24.9292 59.6132 25.6767 59.5384 26.3494H74.9369C74.4884 23.9948 73.7036 22.2008 72.5823 20.9674ZM107.64 13.0439V19.2481H100.688V35.9922C100.688 37.5619 100.95 38.6084 101.473 39.1317C101.996 39.6549 103.08 39.9165 104.687 39.9165C105.211 39.9165 105.734 39.9165 106.22 39.8418C106.706 39.8044 107.192 39.7297 107.603 39.6549V46.8309C106.818 46.9804 105.921 47.0552 104.949 47.0926C103.977 47.1299 103.006 47.1673 102.071 47.1673C100.614 47.1673 99.2307 47.0552 97.8852 46.8683C96.5771 46.6814 95.4185 46.3077 94.4093 45.7097C93.4002 45.1491 92.6153 44.3268 92.0547 43.2803C91.4941 42.2338 91.1951 40.8509 91.1951 39.169V19.2855H85.4393V13.0813H91.1951V2.91525H100.651V13.0813H107.603L107.64 13.0439ZM126.066 19.136C124.571 19.136 123.3 19.4724 122.254 20.1451C121.245 20.8179 120.385 21.6775 119.75 22.7614C119.114 23.8453 118.666 25.0039 118.367 26.312C118.105 27.5828 117.956 28.8909 117.956 30.1243C117.956 31.3577 118.105 32.591 118.367 33.8618C118.628 35.1325 119.077 36.2538 119.675 37.3003C120.273 38.3094 121.095 39.169 122.104 39.8044C123.113 40.4772 124.384 40.7762 125.842 40.7762C128.122 40.7762 129.841 40.1408 131.074 38.9074C132.308 37.674 133.055 35.9922 133.392 33.8992H142.548C141.913 38.3842 140.156 41.8227 137.204 44.1773C134.251 46.5319 130.514 47.7279 125.916 47.7279C123.338 47.7279 120.983 47.3168 118.815 46.4572C116.647 45.5976 114.816 44.4016 113.321 42.9066C111.826 41.3742 110.63 39.5428 109.77 37.4498C108.911 35.3194 108.5 33.0022 108.5 30.498C108.5 27.9939 108.873 25.4524 109.658 23.2099C110.443 20.9674 111.564 19.0239 113.097 17.3794C114.592 15.7349 116.461 14.4641 118.628 13.5671C120.796 12.6701 123.3 12.1843 126.103 12.1843C128.159 12.1843 130.103 12.4459 132.009 12.9691C133.915 13.4924 135.597 14.2773 137.092 15.3611C138.587 16.445 139.783 17.7531 140.717 19.3603C141.651 20.9674 142.175 22.8362 142.324 25.0039H133.055C132.42 21.1169 130.103 19.1734 126.066 19.1734V19.136ZM154.733 0.186875V17.7905H154.92C156.116 15.8096 157.648 14.3894 159.517 13.4924C161.385 12.5954 163.217 12.1469 164.973 12.1469C167.515 12.1469 169.571 12.4833 171.215 13.156C172.822 13.8288 174.13 14.7631 175.065 15.9591C175.999 17.1551 176.672 18.6128 177.046 20.332C177.419 22.0513 177.606 23.9574 177.606 26.0504V46.8309H168.15V27.7697C168.15 24.9665 167.702 22.9109 166.805 21.528C165.908 20.1451 164.338 19.4724 162.058 19.4724C159.479 19.4724 157.611 20.2199 156.452 21.7149C155.293 23.2099 154.733 25.6767 154.733 29.1525V46.8683H145.277V0.186875H154.733ZM192.369 38.7579C193.79 40.1034 195.845 40.7762 198.499 40.7762C200.405 40.7762 202.049 40.2903 203.432 39.3559C204.815 38.4215 205.637 37.4124 205.974 36.3659H214.308C212.963 40.4398 210.945 43.3177 208.179 45.0743C205.413 46.8309 202.087 47.6906 198.162 47.6906C195.434 47.6906 193.005 47.2794 190.837 46.4198C188.669 45.5602 186.8 44.3642 185.305 42.7944C183.81 41.2247 182.614 39.3559 181.792 37.1882C180.97 35.0204 180.559 32.6284 180.559 30.0122C180.559 27.3959 180.97 25.116 181.83 22.9483C182.689 20.7805 183.885 18.8744 185.418 17.3046C186.987 15.6975 188.819 14.4641 190.986 13.5298C193.154 12.5954 195.546 12.1469 198.162 12.1469C201.115 12.1469 203.657 12.7075 205.824 13.8288C207.992 14.95 209.786 16.445 211.206 18.3138C212.589 20.1825 213.636 22.3129 214.234 24.7423C214.869 27.1343 215.093 29.6384 214.906 32.2547H190.015C190.164 35.2447 190.912 37.4498 192.332 38.7953L192.369 38.7579ZM203.096 20.9674C201.975 19.734 200.255 19.136 197.938 19.136C196.443 19.136 195.172 19.3976 194.163 19.8835C193.154 20.3694 192.369 21.0048 191.771 21.7523C191.173 22.4998 190.762 23.2847 190.501 24.1069C190.239 24.9292 190.127 25.6767 190.052 26.3494H205.451C205.002 23.9948 204.217 22.2008 203.096 20.9674ZM226.941 13.0439V19.3229H227.091C227.539 18.2764 228.137 17.3046 228.885 16.4076C229.632 15.5106 230.492 14.7631 231.501 14.1278C232.473 13.4924 233.519 13.0065 234.641 12.6701C235.762 12.3338 236.92 12.1469 238.116 12.1469C238.752 12.1469 239.425 12.259 240.172 12.4833V21.1169C239.724 21.0422 239.2 20.9674 238.565 20.8927C237.93 20.8179 237.332 20.7805 236.771 20.7805C235.052 20.7805 233.557 21.0795 232.361 21.6402C231.165 22.2008 230.193 22.9857 229.445 23.9574C228.698 24.9292 228.175 26.0878 227.876 27.3959C227.577 28.704 227.427 30.1243 227.427 31.6567V46.9057H217.971V13.0813H226.979L226.941 13.0439Z" fill="#76AD1C"/>
<path d="M227.577 86H0V61.4446H227.577V86ZM4.78401 78.9735H10.6893C13.9035 78.9735 15.3238 77.7027 15.3238 75.4976V75.4228C15.3238 73.6662 14.2773 72.7692 12.8196 72.5076C14.2399 72.1712 14.9874 71.2742 14.9874 69.8166V69.7418C14.9874 67.8731 13.7914 66.4528 10.6893 66.4528H4.78401V79.0108V78.9735ZM8.67101 71.3116V68.9943H9.86701C10.8388 68.9943 11.2499 69.3681 11.2499 70.1156V70.1903C11.2499 70.9752 10.8761 71.3116 9.86701 71.3116H8.67101ZM8.67101 76.3572V73.7036H9.82964C10.9509 73.7036 11.3994 74.1521 11.3994 74.9743V75.0491C11.3994 75.9087 10.9135 76.3572 9.90439 76.3572H8.63364H8.67101ZM19.734 79.1977C21.2664 79.1977 22.126 78.525 22.6493 77.5532V78.9735H26.1252V69.7792H22.6493V75.0117C22.6493 76.0956 22.126 76.6188 21.2664 76.6188C20.4441 76.6188 20.1078 76.133 20.1078 75.1986V69.7792H16.6319V75.7966C16.6319 78.0765 17.94 79.1977 19.6966 79.1977H19.734ZM29.5637 69.1065C30.6102 69.1065 31.4324 68.359 31.4324 67.3872C31.4324 66.4155 30.6102 65.6306 29.5637 65.6306C28.5172 65.6306 27.6949 66.3781 27.6949 67.3872C27.6949 68.3963 28.5172 69.1065 29.5637 69.1065ZM27.8444 78.9735H31.2829V69.7792H27.8444V78.9735ZM33.0395 78.9735H36.478V65.8175H33.0395V78.9735ZM41.6358 79.1977C43.0187 79.1977 43.9904 78.4502 44.4389 77.4785V78.9361H47.9148V65.7801H44.4389V71.0126C43.9157 70.0782 43.0561 69.5176 41.6358 69.5176C39.5428 69.5176 37.8235 71.1247 37.8235 74.3016V74.4511C37.8235 77.6653 39.5802 79.1604 41.6358 79.1604V79.1977ZM42.9066 76.5815C41.8974 76.5815 41.2994 75.8713 41.2994 74.4511V74.3016C41.2994 72.844 41.8601 72.1338 42.9066 72.1338C43.9531 72.1338 44.5137 72.9187 44.5137 74.3016V74.4511C44.5137 75.8713 43.9157 76.6188 42.9066 76.6188V76.5815ZM51.3533 69.1065C52.3998 69.1065 53.2221 68.359 53.2221 67.3872C53.2221 66.4155 52.3998 65.6306 51.3533 65.6306C50.3068 65.6306 49.4846 66.3781 49.4846 67.3872C49.4846 68.3963 50.3068 69.1065 51.3533 69.1065ZM49.6341 78.9735H53.0726V69.7792H49.6341V78.9735ZM54.7918 78.9735H58.2677V73.8905C58.2677 72.8066 58.7909 72.2833 59.6506 72.2833C60.5102 72.2833 60.8092 72.7692 60.8092 73.7036V78.9735H64.2851V72.9187C64.2851 70.6388 63.0891 69.5176 61.3324 69.5176C59.8001 69.5176 58.7909 70.2651 58.3051 71.2368V69.7792H54.8292V78.9735H54.7918ZM70.3025 82.3746C73.741 82.3746 75.535 80.917 75.535 78.1886V69.7792H72.0591V71.05C71.5358 70.1156 70.6762 69.5176 69.256 69.5176C67.163 69.5176 65.4437 71.1621 65.4437 73.9278V74.0773C65.4437 76.9178 67.2003 78.4502 69.2933 78.4502C70.6762 78.4502 71.6106 77.7027 72.0965 76.8431V78.2633C72.0965 79.2351 71.648 80.02 70.3398 80.02C69.256 80.02 68.957 79.4967 68.8448 78.9361H65.4063C65.668 81.1039 67.163 82.412 70.3398 82.412L70.3025 82.3746ZM70.5641 75.9835C69.5176 75.9835 68.957 75.236 68.957 74.1147V73.9652C68.957 72.8066 69.5176 72.0965 70.5641 72.0965C71.6106 72.0965 72.1712 72.844 72.1712 73.9652V74.0773C72.1712 75.236 71.5732 75.9835 70.5641 75.9835ZM80.7675 78.9735H86.6727C89.887 78.9735 91.3446 77.7027 91.3446 75.4976V75.4228C91.3446 73.6662 90.2981 72.7692 88.8405 72.5076C90.2607 72.1712 91.0082 71.2742 91.0082 69.8166V69.7418C91.0082 67.8731 89.8122 66.4528 86.7101 66.4528H80.7675V79.0108V78.9735ZM84.6545 71.3116V68.9943H85.8505C86.8222 68.9943 87.2334 69.3681 87.2334 70.1156V70.1903C87.2334 70.9752 86.8596 71.3116 85.8505 71.3116H84.6545ZM84.6545 76.3572V73.7036H85.8131C86.9343 73.7036 87.3829 74.1521 87.3829 74.9743V75.0491C87.3829 75.9087 86.897 76.3572 85.8878 76.3572H84.6171H84.6545ZM97.2872 79.1977C100.202 79.1977 101.81 77.9643 102.071 75.8713H98.857C98.7449 76.3946 98.3711 76.8431 97.3994 76.8431C96.4276 76.8431 95.7549 76.2451 95.6801 75.1238H102.071V74.2642C102.071 70.9752 99.8661 69.4802 97.2872 69.4802C94.4841 69.4802 92.2042 71.3116 92.2042 74.3016V74.4511C92.2042 77.4785 94.372 79.1604 97.2872 79.1604V79.1977ZM95.7175 73.3298C95.867 72.2833 96.465 71.7601 97.2872 71.7601C98.2216 71.7601 98.7075 72.3581 98.7449 73.3298H95.7175ZM107.042 79.1604C107.79 79.1604 108.462 79.0109 108.874 78.8987V76.2825C108.575 76.3946 108.313 76.432 108.014 76.432C107.453 76.432 107.117 76.1703 107.117 75.535V72.0591H108.874V69.7418H107.117V67.8731H103.641V69.7418H102.557V72.0591H103.641V75.834C103.641 78.1512 104.874 79.123 107.042 79.123V79.1604ZM114.031 79.1604C114.779 79.1604 115.452 79.0109 115.863 78.8987V76.2825C115.564 76.3946 115.302 76.432 115.003 76.432C114.442 76.432 114.106 76.1703 114.106 75.535V72.0591H115.863V69.7418H114.106V67.8731H110.63V69.7418H109.546V72.0591H110.63V75.834C110.63 78.1512 111.864 79.123 114.031 79.123V79.1604ZM121.693 79.1604C124.608 79.1604 126.216 77.927 126.477 75.834H123.263C123.151 76.3572 122.777 76.8057 121.805 76.8057C120.834 76.8057 120.161 76.2077 120.086 75.0865H126.477V74.2268C126.477 70.9378 124.272 69.4428 121.693 69.4428C118.89 69.4428 116.61 71.2742 116.61 74.2642V74.4137C116.61 77.4411 118.778 79.123 121.693 79.123V79.1604ZM120.123 73.2925C120.273 72.246 120.871 71.7227 121.693 71.7227C122.628 71.7227 123.113 72.3207 123.113 73.2925H120.086H120.123ZM127.748 78.9361H131.224V74.7127C131.224 73.4046 132.27 72.7692 134.176 72.8813V69.6671C132.794 69.6671 131.822 70.2277 131.224 71.648V69.7792H127.748V78.9735V78.9361ZM135.522 81.0665L138.138 76.6562L134.961 75.535L133.541 80.319L135.559 81.0665H135.522ZM145.501 78.9361H149.5V69.4428H152.677V66.3781H142.324V69.4428H145.501V78.9361ZM157.312 79.1604C160.189 79.1604 162.432 77.4037 162.432 74.3763V74.2268C162.432 71.2742 160.189 69.5176 157.349 69.5176C154.508 69.5176 152.229 71.349 152.229 74.339V74.4885C152.229 77.5158 154.471 79.1977 157.349 79.1977L157.312 79.1604ZM157.312 76.6188C156.19 76.6188 155.667 75.834 155.667 74.339V74.1895C155.667 72.7692 156.265 72.0217 157.312 72.0217C158.358 72.0217 158.881 72.8066 158.881 74.2268V74.339C158.881 75.7966 158.358 76.5815 157.312 76.5815V76.6188ZM168.038 82.3372C171.477 82.3372 173.271 80.8796 173.271 78.1512V69.7418H169.795V71.0126C169.272 70.0782 168.412 69.4802 166.992 69.4802C164.899 69.4802 163.179 71.1247 163.179 73.8905V74.04C163.179 76.8805 164.936 78.4128 167.029 78.4128C168.412 78.4128 169.346 77.6653 169.832 76.8057V78.226C169.832 79.1977 169.384 79.9826 168.076 79.9826C166.992 79.9826 166.693 79.4594 166.581 78.8987H163.142C163.404 81.0665 164.899 82.3746 168.076 82.3746L168.038 82.3372ZM168.3 75.9461C167.253 75.9461 166.693 75.1986 166.693 74.0773V73.9278C166.693 72.7692 167.253 72.0591 168.3 72.0591C169.346 72.0591 169.907 72.8066 169.907 73.9278V74.04C169.907 75.1986 169.309 75.9461 168.3 75.9461ZM179.55 79.1604C182.465 79.1604 184.072 77.927 184.334 75.834H181.119C181.007 76.3572 180.634 76.8057 179.699 76.8057C178.765 76.8057 178.055 76.2077 177.98 75.0865H184.371V74.2268C184.371 70.9378 182.166 69.4428 179.587 69.4428C176.784 69.4428 174.504 71.2742 174.504 74.2642V74.4137C174.504 77.4411 176.672 79.123 179.587 79.123L179.55 79.1604ZM177.98 73.2925C178.129 72.246 178.727 71.7227 179.55 71.7227C180.484 71.7227 180.97 72.3207 181.007 73.2925H177.98ZM189.305 79.123C190.052 79.123 190.725 78.9735 191.136 78.8614V76.2451C190.837 76.3572 190.575 76.3946 190.276 76.3946C189.716 76.3946 189.379 76.133 189.379 75.4976V72.0217H191.136V69.7045H189.379V67.8357H185.903V69.7045H184.82V72.0217H185.903V75.7966C185.903 78.1139 187.137 79.0856 189.305 79.0856V79.123ZM192.556 78.8987H196.032V73.8157C196.032 72.7318 196.555 72.2086 197.415 72.2086C198.275 72.2086 198.574 72.6945 198.574 73.6288V78.8987H202.049V72.844C202.049 70.5641 200.853 69.4428 199.097 69.4428C197.564 69.4428 196.555 70.1903 196.069 71.1621V65.7053H192.594V78.8614L192.556 78.8987ZM208.254 79.123C211.169 79.123 212.776 77.8896 213.038 75.7966H209.824C209.711 76.3198 209.338 76.7683 208.403 76.7683C207.469 76.7683 206.759 76.1703 206.684 75.0491H213.075V74.1895C213.075 70.9005 210.87 69.4055 208.291 69.4055C205.488 69.4055 203.208 71.2368 203.208 74.2268V74.3763C203.208 77.4037 205.376 79.0856 208.291 79.0856L208.254 79.123ZM206.684 73.2551C206.833 72.2086 207.432 71.6853 208.254 71.6853C209.188 71.6853 209.674 72.2833 209.711 73.2551H206.684ZM214.309 78.8987H217.784V74.6753C217.784 73.3672 218.831 72.7318 220.737 72.844V69.6297C219.354 69.6297 218.382 70.1903 217.784 71.6106V69.7418H214.309V78.9361V78.8987Z" fill="#76AD1C"/>
</g>
<defs>
<clipPath id="clip0_525_46553">
<rect width="527.96" height="86" fill="white"/>
</clipPath>
</defs>
</svg>
