<svg width="333" height="155" viewBox="0 0 333 155" fill="none" xmlns="http://www.w3.org/2000/svg">
<path d="M0.0553365 57.3295H3.20957V104.698C5.9211 100.105 10.1267 97.5598 15.5498 97.5598C22.799 97.5598 28.5541 101.765 28.5541 110.951V131.703H25.3999V111.449C25.3999 103.702 21.7476 100.327 15.4391 100.327C8.18993 100.327 3.15423 105.03 3.15423 112.667V131.648H0V57.3295H0.0553365ZM34.8072 115.102C34.8072 124.952 42.4438 132.588 52.0171 132.588C61.5352 132.588 69.1717 124.952 69.1717 115.102C69.1717 105.252 61.5352 97.6151 52.0171 97.6151C42.4438 97.5598 34.8072 105.252 34.8072 115.102ZM65.9622 115.102C65.9622 123.513 60.0964 129.877 52.0171 129.877C43.9379 129.877 38.0721 123.458 38.0721 115.102C38.0721 106.746 43.9379 100.327 52.0171 100.327C60.0411 100.327 65.9622 106.69 65.9622 115.102ZM76.3102 131.758H79.4645V28.6648H76.3102V131.758ZM89.4252 131.758H92.5794V111.56C92.5794 104.422 96.5637 100.437 102.928 100.437C108.351 100.437 111.615 103.813 111.615 110.287V131.758H114.77V111.228C114.77 104.422 118.754 100.437 125.228 100.437C130.375 100.437 133.806 103.702 133.806 110.177V131.758H136.96V109.623C136.96 101.765 131.592 97.5598 125.228 97.5598C119.861 97.5598 116.098 99.884 113.718 104.256C111.615 99.7733 107.41 97.5598 102.928 97.5598C98.1132 97.5598 94.2396 99.9393 92.5794 103.536V98.3899H89.4252V131.758ZM160.755 129.877C152.897 129.877 146.81 124.509 146.533 115.71H176.526C176.305 105.03 169.941 97.6151 160.091 97.6151C150.85 97.6151 143.324 105.252 143.324 115.102C143.324 124.952 150.573 132.588 160.81 132.588C167.23 132.588 171.823 130.264 174.866 126.391L172.763 124.509C170.107 127.774 166.732 129.877 160.755 129.877ZM146.644 112.999C147.474 105.694 152.731 100.327 160.036 100.327C168.336 100.327 172.376 105.86 173.261 112.999H146.644ZM179.846 124.288C182.06 129.213 186.321 132.588 193.57 132.588C200.266 132.588 205.08 129.213 205.08 123.236C205.08 116.762 199.713 114.659 193.017 112.446C188.313 110.896 185.159 109.845 185.159 105.75C185.159 102.374 187.87 100.271 191.965 100.271C195.95 100.271 198.274 102.042 199.823 104.809L202.424 103.426C200.543 99.884 197.278 97.5598 191.965 97.5598C186.1 97.5598 182.115 100.88 182.115 105.75C182.115 111.394 185.989 113.276 192.297 115.378C198.384 117.371 201.926 119.031 201.926 123.347C201.926 127.442 198.44 129.821 193.57 129.821C188.202 129.821 184.329 127.331 182.558 123.126L179.846 124.288ZM210.946 145.039C213.381 150.905 219.247 155 227.271 155C237.01 155 243.208 148.415 243.208 138.343V98.4452H240.054V105.694C237.231 100.437 232.417 97.6151 226.441 97.6151C216.59 97.6151 209.341 105.252 209.341 115.102C209.341 124.952 216.59 132.588 226.441 132.588C232.417 132.588 237.231 129.766 240.054 124.509V138.122C240.054 146.699 235.239 152.067 227.271 152.067C221.073 152.067 215.871 149.134 213.768 143.988L210.946 145.039ZM240.275 115.102C240.275 123.568 234.63 129.766 226.441 129.766C218.251 129.766 212.606 123.568 212.606 115.102C212.606 106.635 218.251 100.437 226.441 100.437C234.63 100.437 240.275 106.58 240.275 115.102ZM253.168 131.758H256.323V0H253.168V131.758ZM280.948 129.877C273.09 129.877 267.003 124.509 266.726 115.71H296.664C296.442 105.03 290.079 97.6151 280.228 97.6151C270.987 97.6151 263.461 105.252 263.461 115.102C263.461 124.952 270.71 132.588 280.948 132.588C287.312 132.588 291.96 130.264 295.004 126.391L292.901 124.509C290.245 127.774 286.924 129.877 280.948 129.877ZM266.781 112.999C267.612 105.694 272.869 100.327 280.173 100.327C288.474 100.327 292.513 105.86 293.399 112.999H266.781ZM303.581 131.758H306.735V112.778C306.735 105.141 311.881 100.437 319.02 100.437C325.328 100.437 328.981 103.813 328.981 111.56V131.758H332.135V111.007C332.135 101.765 326.38 97.6151 319.131 97.6151C313.708 97.6151 308.949 100.327 306.79 104.754V98.4452H303.636V131.758H303.581Z" fill="#4393BC"/>
</svg>
