<svg width="412" height="130" viewBox="0 0 412 130" fill="none" xmlns="http://www.w3.org/2000/svg">
<path d="M83.0022 116.249C68.76 116.249 56.8288 106.147 54.0101 92.7275L37.2818 96.1152V97.437C37.2818 107.714 28.9221 116.082 18.6365 116.082C8.35099 116.082 0 107.723 0 97.4457V93.279L27.0926 87.7905V47.7337L112.633 0V86.6262C112.633 102.961 99.3453 116.249 83.011 116.249H83.0022ZM63.5691 80.3936V86.6262C63.5691 97.3407 72.2877 106.059 83.0022 106.059C93.7167 106.059 102.435 97.3407 102.435 86.6262V17.3673L37.2906 53.7212V85.7246L63.5778 80.3936H63.5691ZM11.1872 101.411C12.614 104.072 15.4239 105.893 18.6453 105.893C23.0484 105.893 26.6812 102.505 27.0663 98.1898L11.1872 101.411Z" fill="#F27B6D"/>
<path d="M195.312 34.3931C195.312 24.8691 201.194 17.5948 210.455 17.5948C215.086 17.5948 218.719 19.7745 220.443 23.0134V18.4527H230.492V50.3248H220.443V45.8254C218.728 49.003 214.753 51.1826 210.324 51.1826C200.8 51.1826 195.312 43.9784 195.312 34.3844V34.3931ZM220.837 34.3931C220.837 29.8325 218.255 26.0596 213.23 26.0596C208.538 26.0596 205.623 29.5611 205.623 34.3931C205.623 39.2251 208.53 42.7879 213.23 42.7879C218.255 42.7879 220.837 39.0151 220.837 34.3931Z" fill="#F27B6D"/>
<path d="M235.412 50.3248V18.4527H245.531V23.0834C246.923 19.9058 250.223 17.5948 254.653 17.5948C260.343 17.5948 263.249 20.1071 264.641 23.4773C266.356 20.0371 270.129 17.5948 274.821 17.5948C283.942 17.5948 286.131 23.88 286.131 30.559V50.3335H275.95V32.4148C275.95 27.9854 274.296 26.1297 271.188 26.1297C268.081 26.1297 265.831 27.9154 265.831 33.9292V50.3248H255.651V32.336C255.651 27.9067 254.066 26.1209 250.959 26.1209C247.851 26.1209 245.54 27.9067 245.54 33.9204V50.316H235.421L235.412 50.3248Z" fill="#F27B6D"/>
<path d="M288.835 34.3931C288.835 24.8691 294.718 17.5948 303.979 17.5948C308.61 17.5948 312.243 19.7745 313.967 23.0134V18.4527H324.016V50.3248H313.967V45.8254C312.252 49.003 308.277 51.1826 303.848 51.1826C294.324 51.1826 288.835 43.9784 288.835 34.3844V34.3931ZM314.361 34.3931C314.361 29.8325 311.779 26.0596 306.754 26.0596C302.062 26.0596 299.147 29.5611 299.147 34.3931C299.147 39.2251 302.053 42.7879 306.754 42.7879C311.779 42.7879 314.361 39.0151 314.361 34.3931Z" fill="#F27B6D"/>
<path d="M329.33 50.3248V6.04003L339.449 0V50.3248H329.33Z" fill="#F27B6D"/>
<path d="M342.601 34.3931C342.601 24.8691 348.483 17.5948 357.744 17.5948C362.375 17.5948 366.008 19.7745 367.732 23.0134V18.4527H377.782V50.3248H367.732V45.8254C366.017 49.003 362.042 51.1826 357.613 51.1826C348.089 51.1826 342.601 43.9784 342.601 34.3844V34.3931ZM368.126 34.3931C368.126 29.8325 365.544 26.0596 360.519 26.0596C355.827 26.0596 352.912 29.5611 352.912 34.3931C352.912 39.2251 355.819 42.7879 360.519 42.7879C365.544 42.7879 368.126 39.0151 368.126 34.3931Z" fill="#F27B6D"/>
<path d="M198.016 115.356V83.4837H208.135V90.1627C209.256 85.4007 213.029 82.9584 216.933 82.9584C218.123 82.9584 218.789 83.0285 219.576 83.221V92.6137C218.386 92.4824 217.791 92.4124 216.539 92.4124C211.05 92.4124 208.144 95.9839 208.144 103.057V115.356H198.025H198.016Z" fill="#F27B6D"/>
<path d="M221.179 99.4153C221.179 89.6987 227.919 82.617 238.896 82.617C249.873 82.617 256.552 89.69 256.552 99.4153C256.552 109.141 249.812 116.214 238.896 116.214C227.98 116.214 221.179 109.141 221.179 99.4153ZM246.503 99.4153C246.503 94.592 243.658 91.1519 238.896 91.1519C234.134 91.1519 231.289 94.592 231.289 99.4153C231.289 104.239 234.064 107.679 238.896 107.679C243.728 107.679 246.503 104.239 246.503 99.4153Z" fill="#F27B6D"/>
<path d="M294.525 99.4153C294.525 109.403 288.371 116.214 279.583 116.214C274.891 116.214 271.057 113.833 269.402 110.856V122.691H259.353V83.4837H269.402V88.0443C271.118 85.0068 275.092 82.6258 279.854 82.6258C288.582 82.6258 294.534 89.3661 294.534 99.4241L294.525 99.4153ZM284.213 99.4153C284.213 94.522 281.106 91.0819 276.677 91.0819C272.247 91.0819 269.008 94.452 269.008 99.4153C269.008 104.379 272.186 107.81 276.677 107.81C281.167 107.81 284.213 104.37 284.213 99.4153Z" fill="#F27B6D"/>
<path d="M330.424 102.19H306.886C307.087 106.357 309.862 108.607 314.361 108.607C317.469 108.607 319.456 107.749 320.314 105.762H330.232C329.242 112.047 322.826 116.214 314.361 116.214C303.515 116.214 296.836 110.06 296.836 99.4153C296.836 88.7709 303.647 82.617 314.029 82.617C324.41 82.617 330.696 88.7709 330.696 97.7609C330.696 99.4153 330.626 100.404 330.433 102.19H330.424ZM320.708 95.9051C320.638 91.6771 318.265 89.4274 313.967 89.4274C309.669 89.4274 306.956 92.0097 306.894 95.9051H320.716H320.708Z" fill="#F27B6D"/>
<path d="M333.996 115.356V83.4836H344.115V90.1627C345.235 85.4007 348.851 83.5099 352.755 83.5099C353.945 83.5099 355.924 83.4836 355.924 83.4836L356.002 92.4561C356.002 92.4561 353.77 92.4036 352.518 92.4036C347.03 92.4036 344.124 95.9751 344.124 103.048V115.347H334.004L333.996 115.356Z" fill="#F27B6D"/>
<path d="M376.792 107.285V115.356C375.339 115.618 372.958 115.881 370.052 115.881C365.29 115.881 358.742 114.822 358.742 104.177V91.4845V83.4837V75.7454L368.861 69.9855V83.4837H376.066L375.952 92.6313H368.748L368.861 102.068C368.861 106.76 370.778 107.486 373.291 107.486C374.411 107.486 375.873 107.416 376.792 107.285Z" fill="#F27B6D"/>
<path d="M382.237 122.464L390.168 117.868C390.369 120.582 391.884 122.166 395.726 122.166C399.569 122.166 401.88 119.986 401.88 115.023V110.06C400.094 113.43 396.593 115.347 391.761 115.347C383.629 115.347 379.987 109.928 379.987 101.989V83.4749H390.107V100.466C390.107 104.562 391.498 107.346 395.726 107.346C399.954 107.346 401.88 104.169 401.88 99.2752V83.4749H411.999V114.358C411.999 119.514 410.144 123.418 407.439 125.86C404.594 128.302 401.092 129.563 395.735 129.563C390.378 129.563 386.614 128.442 383.961 126.254C382.902 125.344 381.992 124.223 381.309 122.954L382.237 122.455V122.464Z" fill="#F27B6D"/>
<path d="M181.244 0H173.891V8.74491H181.244V34.6557C181.244 39.2164 179.196 42.3239 174.959 42.3239C170.722 42.3239 168.805 39.1464 168.805 34.3931H158.091C158.091 44.311 163.781 51.5153 174.95 51.5153C185.534 51.5153 191.88 45.3615 191.88 33.9905V0H181.235H181.244Z" fill="#F27B6D"/>
<path d="M178.137 65.0222H169.085L154.694 64.8997V73.6358L158.432 73.7496V115.347H169.147V98.4787H178.137C187.722 98.4787 194.734 91.467 194.734 81.7505C194.734 72.0339 187.792 65.0222 178.137 65.0222ZM176.482 89.7513H169.147V73.7496H176.482C180.78 73.7496 183.888 77.1198 183.888 81.7505C183.888 86.3811 180.78 89.7513 176.482 89.7513Z" fill="#F27B6D"/>
</svg>
