<svg width="338" height="112" viewBox="0 0 338 112" fill="none" xmlns="http://www.w3.org/2000/svg">
<g clip-path="url(#clip0_522_45446)">
<path d="M0 0H338V112H0V0Z" fill="#8C0014"/>
<path fill-rule="evenodd" clip-rule="evenodd" d="M141.26 32L144.72 38.456L133.792 44.04L130.326 37.522L141.26 32ZM215.348 71.054H210.048V78.368H245.834V71.054H240.466V33.864H210.048V41.184H215.348V71.054ZM207.742 64.138C207.742 64.138 207.884 63.242 207.884 61.666C207.884 52.236 198.256 43.106 182.178 43.106C163.564 43.106 156.47 53.192 156.47 61.664C156.47 69.608 162.61 80 182.206 80C197.236 80 205.414 73.5 207.4 67.464H194.09C193.604 69.312 191.218 73.71 185.274 73.71C181.124 73.71 178.48 70.41 178.48 67.548V64.138H207.742ZM299.334 61.666C299.334 63.242 299.19 64.138 299.19 64.138H269.928V67.544C269.928 70.41 272.57 73.708 276.72 73.708C282.662 73.708 285.054 69.312 285.542 67.464L295.858 67.462H298.846C296.864 73.498 288.688 79.996 273.658 79.996C254.062 79.996 247.92 69.608 247.92 61.664C247.92 53.192 255.012 43.106 273.626 43.106C289.71 43.106 299.334 52.236 299.334 61.666ZM273.946 49.738C271.334 49.738 269.928 52.062 269.928 53.67V58.76H278.012V53.686C278.012 52.16 276.766 49.738 273.946 49.738ZM182.498 49.738C179.882 49.738 178.478 52.062 178.478 53.67V58.76H186.562V53.69C186.562 52.16 185.316 49.738 182.498 49.738ZM149.068 44.908H119.668V52.228H125.028V71.054H119.668V78.368H154.43V71.054H149.068V44.908ZM114.848 33.866H88.094L75.256 51.23L62.356 33.866H32V41.186H37.3V71.054H32V78.368H51.222V71.054H45.856V51.696L65.686 78.368L85.442 51.696V71.056H80.076V78.368H114.848V71.054H109.484V41.186H114.848V33.866Z" fill="white"/>
</g>
<defs>
<clipPath id="clip0_522_45446">
<rect width="338" height="112" fill="white"/>
</clipPath>
</defs>
</svg>
