<svg width="343" height="92" viewBox="0 0 343 92" fill="none" xmlns="http://www.w3.org/2000/svg">
<path d="M93.9496 69.8905C93.9496 84.0122 82.2792 91.0713 58.9385 91.0678H36.2242C28.4018 91.1586 20.643 89.6542 13.4221 86.6466C4.49124 82.8634 0.0172078 77.395 0 70.2413V11.2803C0 8.5667 0.986008 6.89006 2.9477 6.22972C3.5517 5.90471 5.68375 5.74478 9.32836 5.74478C12.973 5.74478 14.8056 7.59167 14.8056 11.2803V24.389H58.9334C82.2741 24.389 93.9444 31.3312 93.9444 45.2155L93.9496 69.8905ZM79.2162 69.4056V45.4941C79.2162 39.7024 72.5516 36.8048 59.2225 36.8014H14.8263V70.1743C14.8263 73.2112 18.0063 75.5017 24.3663 77.0459C26.6584 77.5618 28.9298 77.9539 31.1703 78.2376C33.4274 78.5171 35.6998 78.6567 37.9742 78.6555H59.0934C62.3147 78.6555 64.9733 78.5884 67.0537 78.4492C68.6446 78.3718 70.2281 78.1839 71.7928 77.8868C76.7452 76.7175 79.2197 73.8904 79.2162 69.4056Z" fill="white"/>
<path d="M201.079 70.876C201.079 84.3338 190.977 91.0645 170.771 91.0679H134.568C126.804 91.0679 120.093 89.6423 114.435 86.7912C106.808 83.1421 102.997 78.0709 103 71.5776V63.0241C103 56.0149 106.624 50.758 113.872 47.2534C119.251 44.5398 125.986 43.183 134.077 43.183H186.418C185.62 38.4609 178.933 36.1016 166.358 36.105C165.841 36.105 165.222 36.105 164.499 36.1411C163.776 36.1772 162.95 36.1979 162.006 36.2443C161.779 36.3147 161.54 36.3376 161.304 36.3113H157.798C154.147 36.3113 152.323 33.9984 152.326 29.3726C152.326 25.6857 154.15 23.8406 157.798 23.8371C169.63 23.8371 178.68 24.654 184.947 26.2876C195.705 29.3245 201.085 35.3999 201.085 44.514V70.876H201.079ZM186.558 67.3731C186.558 66.7179 186.558 65.8976 186.522 64.9174C186.485 63.9373 186.46 62.7868 186.418 61.4816C186.377 60.1764 186.336 59.026 186.31 58.0458C186.284 57.0656 186.274 56.2453 186.274 55.5902H133.731C130.48 55.6188 127.256 56.1889 124.191 57.2771C119.934 58.7216 117.806 60.6132 117.806 62.9519V71.4383C117.806 73.9146 120.005 75.8062 124.403 77.1131C127.538 78.1964 130.839 78.7202 134.155 78.6608H170.921C176.428 78.6608 180.213 78.1242 182.278 77.0512C185.124 75.5998 186.551 72.3738 186.558 67.3731Z" fill="white"/>
<path d="M342.449 28.3149C342.396 29.551 342.042 30.7553 341.417 31.823L313.968 85.037C312.378 88.1668 309.384 89.7334 304.986 89.7368C300.78 89.7368 297.855 88.2166 296.21 85.1763L274.399 44.3024L252.227 85.3156C250.54 88.411 247.522 89.9586 243.172 89.9586C238.639 89.9586 235.576 88.3456 233.983 85.1196L207.108 31.823C206.452 29.9968 206.127 28.8308 206.127 28.3149C206.127 25.1371 208.441 23.5481 213.07 23.5481C217.097 23.5481 219.716 24.647 220.927 26.8447L243.642 70.7366L265.84 29.8626C267.561 26.585 270.414 24.9479 274.399 24.9513C278.229 24.9513 281.034 26.5644 282.814 29.7904L304.986 70.7417L327.643 26.8498C328.769 24.6521 331.366 23.5533 335.433 23.5533C340.111 23.5498 342.449 25.1371 342.449 28.3149Z" fill="#FF6200"/>
<path d="M236.11 18.8791C236.137 19.0556 236.123 19.2361 236.068 19.4062C236.013 19.5763 235.919 19.7312 235.794 19.8585C235.669 19.9858 235.515 20.0821 235.346 20.1395C235.177 20.197 234.996 20.2141 234.819 20.1894C234.314 20.226 233.805 20.186 233.312 20.0708C233.074 19.9836 232.874 19.8177 232.745 19.6008C232.615 19.3839 232.564 19.1292 232.599 18.8791V9.07716C232.599 7.81839 231.113 7.189 228.139 7.189H227.463C227.396 7.17803 227.328 7.17803 227.261 7.189C226.31 7.18831 225.362 7.28861 224.432 7.48822C223.975 7.58485 223.568 7.84191 223.283 8.21286C222.999 8.5838 222.858 9.04413 222.884 9.51051V18.8481C222.918 19.0981 222.867 19.3524 222.737 19.5691C222.608 19.7858 222.408 19.9518 222.171 20.0398C221.678 20.1546 221.17 20.1946 220.664 20.1585C220.486 20.1845 220.304 20.1685 220.133 20.1118C219.962 20.0552 219.807 19.9594 219.679 19.8321C219.552 19.7048 219.456 19.5496 219.399 19.3788C219.343 19.2079 219.327 19.0262 219.353 18.8481V9.51566C219.393 9.13064 219.316 8.74251 219.131 8.40197C218.947 8.06144 218.664 7.78434 218.32 7.60687C217.598 7.33057 216.825 7.21269 216.054 7.26123H215.192C215.099 7.26123 215.052 7.26123 215.042 7.26123H214.464H214.046C211.041 7.26123 209.539 7.90093 209.539 9.18034V18.9307C209.575 19.1795 209.526 19.4333 209.398 19.65C209.27 19.8667 209.072 20.0333 208.837 20.1224C208.343 20.2375 207.835 20.2775 207.33 20.241C207.153 20.2657 206.972 20.2486 206.803 20.1911C206.634 20.1337 206.48 20.0374 206.355 19.9101C206.229 19.7827 206.135 19.6279 206.081 19.4578C206.026 19.2877 206.012 19.1072 206.039 18.9307V9.49503C206.039 6.05576 208.579 4.33613 213.659 4.33613C214.691 4.33613 215.486 4.33613 216.121 4.33613C216.594 4.33646 217.066 4.36575 217.536 4.42383C218.824 4.58439 220.067 5.00755 221.185 5.66712C222.31 5.00153 223.566 4.58789 224.866 4.45478C226.158 4.33315 227.456 4.2832 228.753 4.30518C233.647 4.30518 236.094 6.03341 236.094 9.48987V18.8791H236.11Z" fill="white"/>
<path d="M250.591 6.06952C250.616 6.24648 250.599 6.42675 250.541 6.59593C250.484 6.7651 250.387 6.91849 250.26 7.04382C250.133 7.16915 249.978 7.26295 249.807 7.31772C249.637 7.37249 249.457 7.38671 249.28 7.35925H243.751V18.8791C243.777 19.0554 243.762 19.2355 243.707 19.405C243.652 19.5746 243.558 19.729 243.433 19.8561C243.308 19.9831 243.155 20.0794 242.986 20.1373C242.817 20.1951 242.637 20.213 242.46 20.1894C241.96 20.2257 241.457 20.1857 240.969 20.0708C240.733 19.9804 240.536 19.8139 240.406 19.5979C240.277 19.3818 240.224 19.1287 240.256 18.8791V7.36441C239.792 7.36441 239.415 7.36441 239.12 7.36441C238.911 7.35516 238.703 7.33449 238.496 7.3025C238.243 7.17214 238.032 6.97493 237.884 6.73244C237.736 6.48996 237.658 6.21154 237.658 5.92765C237.658 5.64377 237.736 5.36535 237.884 5.12287C238.032 4.88038 238.243 4.68317 238.496 4.55281C238.703 4.52081 238.911 4.50015 239.12 4.4909C239.415 4.4909 239.792 4.4651 240.256 4.4651V1.30786C240.23 1.13228 240.246 0.953079 240.301 0.784527C240.357 0.615975 240.451 0.462723 240.576 0.336977C240.702 0.21123 240.855 0.11646 241.023 0.0602101C241.192 0.00396067 241.371 -0.0122123 241.547 0.0129751C242.047 -0.0233359 242.55 0.0166754 243.039 0.131631C243.273 0.218276 243.471 0.381758 243.6 0.59539C243.73 0.809022 243.783 1.06018 243.751 1.30786V4.43931H249.28C250.158 4.44447 250.591 4.98615 250.591 6.06952Z" fill="white"/>
<path d="M283.744 15.1907C283.744 18.5233 280.991 20.1897 275.484 20.1897H270.12C268.273 20.2129 266.439 19.8619 264.731 19.1579C262.621 18.2671 261.566 16.9757 261.566 15.2835V1.35452C261.566 0.719975 261.794 0.322742 262.263 0.167975C262.757 0.052795 263.265 0.0127904 263.771 0.0493189C263.947 0.0248581 264.127 0.0418988 264.296 0.0990887C264.465 0.156279 264.618 0.252041 264.743 0.37876C264.869 0.505479 264.963 0.659661 265.018 0.82905C265.073 0.998439 265.088 1.17836 265.061 1.35452V4.44986H275.484C280.991 4.44986 283.744 6.08867 283.744 9.36629V15.1958V15.1907ZM280.264 15.072V9.4282C280.264 8.05249 278.692 7.36464 275.546 7.36464H265.056V15.2578C265.056 15.9748 265.81 16.5165 267.307 16.8828C267.849 17.0015 268.386 17.0995 268.918 17.1614C269.45 17.2279 269.986 17.2606 270.523 17.2594H275.515C276.274 17.2594 276.904 17.2594 277.394 17.213C277.77 17.1928 278.144 17.148 278.514 17.0788C279.681 16.7934 280.264 16.1245 280.264 15.072Z" fill="white"/>
<path d="M309.049 15.4222C309.049 18.6001 306.662 20.1891 301.889 20.1891H293.35C291.704 20.2256 290.073 19.872 288.591 19.1573C286.794 18.3009 285.891 17.0937 285.891 15.546V13.5547C285.891 11.9004 286.751 10.6588 288.472 9.82998C289.965 9.14296 291.599 8.81437 293.242 8.87043H305.6C305.409 7.7561 303.835 7.19894 300.861 7.19894H300.423H299.834C299.78 7.21115 299.723 7.21115 299.669 7.19894H298.838C297.976 7.19894 297.547 6.64694 297.547 5.55841C297.521 5.38207 297.536 5.20201 297.591 5.03245C297.646 4.8629 297.74 4.70849 297.865 4.58141C297.99 4.45434 298.143 4.35807 298.312 4.30022C298.481 4.24236 298.661 4.22451 298.838 4.24805C300.985 4.20702 303.128 4.42352 305.224 4.89291C307.763 5.60484 309.033 7.03902 309.033 9.19544V15.4222H309.049ZM305.616 14.5865C305.616 14.4369 305.616 14.2408 305.616 14.0087C305.616 13.7765 305.616 13.4928 305.616 13.1987C305.616 12.9047 305.616 12.6209 305.616 12.3888C305.616 12.1566 305.616 11.9606 305.616 11.8058H293.226C292.459 11.8125 291.698 11.9486 290.976 12.2082C289.943 12.5487 289.468 12.9924 289.468 13.5444V15.5512C289.468 16.1342 289.984 16.583 291.017 16.8925C291.755 17.1465 292.533 17.2687 293.314 17.2536H301.997C302.909 17.3185 303.823 17.1902 304.682 16.877C305.275 16.5366 305.616 15.773 305.616 14.5865Z" fill="white"/>
<path d="M342.434 5.37315C342.421 5.66524 342.334 5.94924 342.181 6.19857L335.682 18.7656C335.31 19.5085 334.604 19.88 333.565 19.88C333.153 19.9185 332.739 19.8372 332.373 19.6459C332.007 19.4546 331.703 19.1614 331.5 18.8018L326.389 9.14946L321.124 18.8327C320.909 19.1997 320.594 19.4973 320.215 19.6903C319.836 19.8833 319.41 19.9634 318.986 19.9212C317.913 19.9212 317.195 19.5446 316.818 18.7811L310.469 6.19857C310.357 5.93418 310.279 5.65689 310.236 5.37315C310.236 4.61995 310.789 4.24335 311.878 4.24335C312.828 4.24335 313.427 4.50129 313.736 5.02234L319.105 15.3866L324.324 5.73427C324.529 5.38427 324.822 5.09396 325.174 4.8922C325.526 4.69044 325.924 4.58428 326.33 4.58428C326.736 4.58428 327.134 4.69044 327.486 4.8922C327.838 5.09396 328.131 5.38427 328.336 5.73427L333.617 15.3866L338.965 5.02234C339.228 4.50645 339.842 4.24335 340.803 4.24335C341.89 4.26054 342.434 4.63714 342.434 5.37315Z" fill="white"/>
</svg>
