<svg width="514" height="61" viewBox="0 0 514 61" fill="none" xmlns="http://www.w3.org/2000/svg">
<g clip-path="url(#clip0_547_417)">
<path d="M86.45 5.36C83.92 1.76 78.92 0 71.14 0H40.14C29.25 0 19.52 6.81 15.8 17.05L15.76 17.17H61.4C63.45 17.17 64.84 17.54 65.3 18.21C65.81 18.93 65.45 20.34 65.07 21.39L64.26 23.62C63.4 25.99 61.55 28.81 57.63 28.81H11.52L0 60.46H11.13C16.87 60.46 21.99 56.87 23.96 51.48L25.96 45.98H60.06C76.05 45.98 82.69 31.13 84.35 26.58L86.15 21.65C88.88 14.15 88.98 8.97 86.45 5.37" fill="#ED1C24"/>
<path d="M93.0005 28.81L81.4805 60.46H92.6105C98.3505 60.46 103.47 56.87 105.44 51.48L107.44 45.98H133.66C147.58 45.98 154.42 34.72 157.04 28.81H93.0005Z" fill="#ED1C24"/>
<path d="M121.629 0C110.729 0 101.009 6.81 97.2793 17.05V17.07H136.769H150.619C161.509 17.07 171.239 10.26 174.969 0.02L121.629 0Z" fill="#ED1C24"/>
<path d="M197.869 0C186.979 0 177.249 6.81 173.529 17.05V17.07H213.019H226.869C237.759 17.07 247.489 10.26 251.219 0.02L197.869 0Z" fill="#ED1C24"/>
<path d="M202.08 28.81L201.02 28.83C203.21 34.99 207.46 39.92 212.8 42.96C211.52 43.23 210.11 43.34 208.54 43.34H195.31C191.32 43.34 189.22 42.87 188.5 41.81C187.67 40.59 188.07 37.87 189.8 32.98L191.28 28.81H170.59L167.64 37.12C164.87 44.92 164.78 50.57 167.38 54.37C170.25 58.58 176.23 60.45 186.77 60.45H201.91C221.82 60.45 231.67 59.65 238.05 41.7L242.63 28.8H202.08V28.81Z" fill="#ED1C24"/>
<path d="M258.5 34.43H267.71L275.26 57H267.75L266.36 52.97H251.81L248.8 57H241.02L258.52 34.43H258.5ZM264.96 48.27L261.98 39.27L255.25 48.27H264.96Z" fill="black"/>
<path d="M289.929 34.43L287.869 44.25C287.799 44.62 287.699 45.06 287.569 45.6C287.099 47.77 286.959 48.54 286.959 49.32C286.959 51.28 288.209 51.79 292.979 51.79C298.529 51.79 299.919 51.62 300.869 50.74C301.579 50.1 301.989 49.22 302.429 47.22C302.495 46.9467 302.609 46.45 302.769 45.73C302.869 45.15 302.909 44.95 302.939 44.78L305.139 34.42H312.039L309.499 46.27C308.319 52.33 307.329 54.12 304.249 55.85C301.539 57.1 301.099 57.17 292.609 57.2C284.999 57.13 284.349 57.1 282.659 56.39C280.729 55.61 279.719 54.12 279.719 52.09C279.719 50.53 279.859 49.59 280.499 46.57L283.069 34.42H289.939L289.929 34.43Z" fill="black"/>
<path d="M320.859 49.8C320.759 50.41 320.729 50.65 320.729 50.98C320.729 51.59 321.099 52 321.709 52.13C322.349 52.26 324.209 52.37 325.939 52.37C328.779 52.37 331.659 52.3 332.509 52.2C334.569 51.96 335.389 51.25 335.389 49.73C335.389 49.09 335.089 48.61 334.579 48.44C334.126 48.28 332.706 48.19 330.319 48.17H324.089C321.009 48.17 319.109 48 318.029 47.66C316.339 47.12 315.489 45.97 315.489 44.17C315.489 41.56 316.539 38.28 317.819 36.86C319.679 34.8 322.529 34.25 331.359 34.25C338.089 34.25 339.749 34.39 341.409 35.03C342.799 35.57 343.509 36.69 343.509 38.38C343.509 39.19 343.409 40 343.069 41.32H336.399C336.469 40.95 336.499 40.71 336.499 40.54C336.499 39.32 335.689 39.08 331.729 39.08C328.919 39.08 325.909 39.18 324.829 39.28C323.439 39.41 322.599 40.29 322.599 41.58C322.599 42.05 322.799 42.43 323.109 42.63C323.689 43 323.719 43 326.459 43.07H332.859C333.269 43.07 334.419 43.1 336.209 43.17C338.709 43.27 339.529 43.37 340.509 43.85C341.859 44.43 342.509 45.54 342.509 47.27C342.509 49.84 341.559 52.92 340.279 54.44C338.449 56.61 335.609 57.15 326.199 57.15C320.239 57.15 318.419 57.05 316.659 56.68C314.559 56.21 313.609 55.12 313.609 53.26C313.609 52.24 313.709 51.53 314.149 49.77H320.879L320.859 49.8Z" fill="black"/>
<path d="M357.609 40.02H347.559L348.739 34.44H375.709L374.529 40.02H364.479L360.859 57.01H353.989L357.609 40.02Z" fill="black"/>
<path d="M379.57 34.43H399.03C405.02 34.43 406.71 35.41 406.71 38.86C406.71 41.53 405.97 44.61 404.98 46.14C404.1 47.46 403.19 48 401.15 48.44C402.17 48.58 402.47 48.61 402.94 48.78C403.65 49.05 404.09 49.66 404.09 50.47C404.09 50.98 404.06 51.28 403.65 53.45L402.87 57H395.93L396.51 54.19C396.61 53.75 396.68 53.31 396.68 52.97C396.68 52.22 396.38 51.75 395.73 51.51C395.36 51.37 394.68 51.31 393.36 51.31H382.8L381.58 57H374.74L379.55 34.43H379.57ZM394.73 45.8C396.73 45.8 397.51 45.66 398.18 45.22C398.72 44.85 398.96 44.37 399.23 43.26C399.37 42.58 399.47 41.91 399.47 41.53C399.47 40.82 399.13 40.35 398.45 40.14C397.91 39.97 397.7 39.97 396.22 39.97H385.22L383.97 45.79H394.73V45.8Z" fill="black"/>
<path d="M423.63 34.43H432.84L440.39 57H432.88L431.49 52.97H416.94L413.93 57H406.15L423.65 34.43H423.63ZM430.09 48.27L427.11 39.27L420.37 48.27H430.08H430.09Z" fill="black"/>
<path d="M448.329 34.43H455.199L451.579 51.42H467.109L465.929 57H443.529L448.339 34.43H448.329Z" fill="black"/>
<path d="M474.359 34.43H481.229L476.419 57H469.549L474.359 34.43Z" fill="black"/>
<path d="M497.099 34.43H506.309L513.859 57H506.349L504.959 52.97H490.409L487.399 57H479.619L497.119 34.43H497.099ZM503.559 48.27L500.579 39.27L493.839 48.27H503.549H503.559Z" fill="black"/>
</g>
<defs>
<clipPath id="clip0_547_417">
<rect width="513.85" height="60.46" fill="white"/>
</clipPath>
</defs>
</svg>
