<svg width="333" height="114" viewBox="0 0 333 114" fill="none" xmlns="http://www.w3.org/2000/svg">
<path d="M6.7711 68.0693C6.82033 67.9998 6.88329 67.9412 6.9561 67.897C7.02892 67.8529 7.11002 67.8242 7.19439 67.8127C7.27876 67.8012 7.3646 67.8071 7.44657 67.8302C7.52855 67.8532 7.60491 67.8928 7.67094 67.9466C9.71607 69.6453 12.0643 70.9416 14.5916 71.7668C17.0214 72.5965 19.5667 73.0383 22.1339 73.0757C24.4354 73.0757 26.1042 72.6967 27.1404 71.9386C27.6187 71.6505 28.0154 71.2448 28.2927 70.76C28.5699 70.2752 28.7185 69.7276 28.7242 69.1692C28.73 68.6108 28.5927 68.0602 28.3255 67.5698C28.0582 67.0795 27.67 66.6657 27.1976 66.3678C26.0092 65.519 24.6798 64.8875 23.271 64.5026C21.6349 64.0173 19.8543 63.5182 17.9292 63.0056C15.9324 62.4675 13.9708 61.8064 12.0556 61.026C10.1613 60.2705 8.3606 59.2988 6.68929 58.1301C5.00798 56.9286 3.65735 55.3219 2.76269 53.4591C1.72319 51.2999 1.20751 48.9261 1.25749 46.5303C1.18085 44.2053 1.60089 41.8907 2.48959 39.7409C3.37828 37.5911 4.71521 35.6555 6.41116 34.0633C9.83603 30.8293 14.5016 29.215 20.4079 29.2205C23.8461 29.2614 27.2622 29.7762 30.5598 30.7502C33.9329 31.6797 37.0533 33.3574 39.6891 35.6585C39.7985 35.7624 39.8669 35.9022 39.8819 36.0523C39.8969 36.2024 39.8575 36.353 39.7709 36.4765L33.0548 45.5649C32.9606 45.6861 32.825 45.7682 32.674 45.7954C32.523 45.8225 32.3672 45.7929 32.2368 45.7122C28.8 43.3162 24.7277 41.9977 20.5387 41.9247C18.4609 41.9247 17.0157 42.2682 16.2031 42.9554C15.8226 43.2416 15.5137 43.6122 15.3008 44.0381C15.0879 44.4639 14.9767 44.9334 14.9761 45.4095C14.9944 45.9389 15.1409 46.4559 15.4031 46.9161C15.6653 47.3764 16.0352 47.7661 16.4813 48.0518C17.6664 48.9055 18.9811 49.5629 20.3751 49.9987C21.973 50.5441 23.7346 51.0895 25.6597 51.6348C27.616 52.225 29.5293 52.9493 31.386 53.8026C33.2393 54.6432 35.0018 55.6711 36.646 56.8703C38.3262 58.1367 39.6691 59.7971 40.5562 61.7049C41.586 63.8671 42.0985 66.2393 42.0533 68.6337C42.1303 70.9863 41.6811 73.3263 40.7386 75.4831C39.796 77.64 38.3839 79.5592 36.6051 81.1007C32.9675 84.2911 27.8275 85.8863 21.185 85.8863C17.135 85.9695 13.1079 85.258 9.33157 83.7921C6.08625 82.4414 3.0266 80.682 0.226765 78.5566C0.109729 78.4591 0.0319772 78.3225 0.0079126 78.1721C-0.016152 78.0217 0.0150979 77.8677 0.0958756 77.7386L6.7711 68.0693Z" fill="#1D1753"/>
<path d="M49.6774 30.2185H62.4634C62.6283 30.2185 62.7864 30.284 62.903 30.4006C63.0196 30.5172 63.0851 30.6753 63.0851 30.8402V83.7921C63.0851 83.9569 63.0196 84.1151 62.903 84.2317C62.7864 84.3483 62.6283 84.4138 62.4634 84.4138H49.6774C49.5125 84.4138 49.3544 84.3483 49.2378 84.2317C49.1212 84.1151 49.0557 83.9569 49.0557 83.7921V30.8402C49.0557 30.6753 49.1212 30.5172 49.2378 30.4006C49.3544 30.284 49.5125 30.2185 49.6774 30.2185ZM49.7837 6.09439C50.6136 5.26424 51.6034 4.61138 52.6933 4.17545C53.7831 3.73952 54.9501 3.52963 56.1236 3.55848C57.2792 3.52751 58.4289 3.73447 59.5013 4.16649C60.5736 4.59852 61.5456 5.24637 62.3571 6.06985C63.1823 6.89018 63.8309 7.87081 64.2628 8.95129C64.6947 10.0318 64.9008 11.1893 64.8684 12.3524C64.8992 13.5215 64.6925 14.6846 64.2609 15.7715C63.8292 16.8584 63.1815 17.8465 62.3571 18.6759C61.5476 19.5031 60.5763 20.1545 59.5038 20.5894C58.4312 21.0244 57.2805 21.2335 56.1236 21.2036C54.9532 21.2245 53.7905 21.0102 52.7044 20.5734C51.6184 20.1366 50.6311 19.4862 49.801 18.6608C48.971 17.8353 48.3152 16.8517 47.8724 15.768C47.4296 14.6844 47.2088 13.5229 47.2233 12.3524C47.1953 11.1891 47.4083 10.0326 47.8489 8.95559C48.2896 7.8786 48.9483 6.90443 49.7837 6.09439Z" fill="#1D1753"/>
<path d="M72.689 30.2185H85.475C85.6398 30.2185 85.798 30.284 85.9146 30.4006C86.0312 30.5172 86.0967 30.6753 86.0967 30.8402V34.2269C87.6182 33.1144 88.8289 32.28 89.7451 31.7237C91.0641 31.0106 92.4651 30.4612 93.9172 30.0876C95.9175 29.5196 97.9895 29.2441 100.069 29.2696C107.824 29.2696 113.55 31.9582 117.248 37.3354C119.466 34.5944 122.35 32.468 125.624 31.1592C128.713 29.9225 132.008 29.2814 135.335 29.2696C141.715 29.2696 146.844 31.2356 150.722 35.1676C154.6 39.0997 156.538 45.0987 156.538 53.1646V83.7921C156.538 83.957 156.473 84.1151 156.356 84.2317C156.24 84.3483 156.081 84.4138 155.917 84.4138H143.098C142.933 84.4138 142.775 84.3483 142.658 84.2317C142.542 84.1151 142.476 83.957 142.476 83.7921V55.4305C142.525 53.1966 142.25 50.9673 141.658 48.8126C141.285 47.301 140.484 45.9291 139.351 44.8614C138.455 44.065 137.402 43.4658 136.259 43.1027C135.055 42.7696 133.81 42.6098 132.561 42.6282C125.03 42.6282 121.264 46.822 121.264 55.2097V83.7921C121.264 83.957 121.199 84.1151 121.082 84.2317C120.966 84.3483 120.807 84.4138 120.643 84.4138H107.865C107.7 84.4138 107.542 84.3483 107.425 84.2317C107.309 84.1151 107.243 83.957 107.243 83.7921V55.4305C107.288 53.1968 107.012 50.9682 106.425 48.8126C106.05 47.3002 105.246 45.9283 104.11 44.8614C103.217 44.0652 102.166 43.466 101.026 43.1027C99.8195 42.7695 98.5717 42.6098 97.3202 42.6282C89.827 42.6282 86.0803 46.822 86.0803 55.2097V83.7921C86.0803 83.957 86.0148 84.1151 85.8982 84.2317C85.7816 84.3483 85.6235 84.4138 85.4586 84.4138H72.689C72.5241 84.4138 72.3659 84.3483 72.2494 84.2317C72.1328 84.1151 72.0673 83.957 72.0673 83.7921V30.8402C72.0673 30.6753 72.1328 30.5172 72.2494 30.4006C72.3659 30.284 72.5241 30.2185 72.689 30.2185Z" fill="#1D1753"/>
<path d="M184.155 68.2493C185.52 69.6033 187.141 70.6717 188.924 71.3923C190.706 72.1128 192.614 72.471 194.536 72.4458C196.978 72.4494 199.384 71.8523 201.54 70.7072C203.697 69.562 205.539 67.904 206.904 65.8791C208.269 63.8542 209.115 61.5247 209.367 59.0959C209.619 56.667 209.27 54.2134 208.351 51.9512C207.431 49.689 205.97 47.6878 204.094 46.1237C202.219 44.5597 199.988 43.4809 197.597 42.9825C195.207 42.4841 192.73 42.5813 190.386 43.2656C188.042 43.9499 185.902 45.2003 184.155 46.9065C181.347 49.5007 179.677 53.0996 179.509 56.9194V58.2037C179.667 62.0352 181.338 65.6477 184.155 68.2493ZM166.101 30.2594H178.887C179.052 30.2594 179.21 30.3249 179.327 30.4415C179.443 30.5581 179.509 30.7162 179.509 30.8811V34.2678C183.632 30.9302 188.641 29.2614 194.536 29.2614C198.305 29.1839 202.051 29.8702 205.547 31.2789C209.044 32.6876 212.219 34.7896 214.881 37.4581C217.585 40.0377 219.726 43.1496 221.168 46.5977C222.609 50.0458 223.321 53.7552 223.258 57.492C223.287 62.4875 221.97 67.3987 219.446 71.7096C216.947 76.0265 213.344 79.6009 209.008 82.066C204.608 84.6004 199.613 85.9163 194.536 85.8781C188.641 85.8781 183.632 84.2066 179.509 80.8635V112.579C179.509 112.744 179.443 112.902 179.327 113.019C179.21 113.135 179.052 113.201 178.887 113.201H166.109C165.945 113.201 165.786 113.135 165.67 113.019C165.553 112.902 165.488 112.744 165.488 112.579V30.8402C165.488 30.6767 165.552 30.5198 165.667 30.4034C165.782 30.2871 165.938 30.2206 166.101 30.2185" fill="#1D1753"/>
<path d="M230.996 0H243.782C243.947 0 244.105 0.0654987 244.222 0.182092C244.339 0.298686 244.404 0.456807 244.404 0.621695V66.7277C244.404 68.7292 244.813 70.2153 245.631 71.186C246.449 72.1513 248.004 72.634 250.302 72.634C250.883 72.634 251.39 72.634 251.816 72.5849C251.9 72.5804 251.984 72.5932 252.064 72.6225C252.143 72.6517 252.215 72.6968 252.277 72.755C252.338 72.8132 252.387 72.8832 252.42 72.9609C252.453 73.0385 252.47 73.1221 252.47 73.2066V84.4547C252.471 84.591 252.426 84.7236 252.343 84.8318C252.26 84.9399 252.144 85.0173 252.012 85.0519C250.186 85.558 248.303 85.8329 246.408 85.8699C241.249 85.8699 237.287 84.4874 234.522 81.7224C231.757 78.9574 230.375 75.0117 230.375 69.8854V0.621695C230.375 0.456807 230.44 0.298686 230.557 0.182092C230.673 0.0654987 230.832 0 230.996 0Z" fill="#1D1753"/>
<path d="M296.227 51.6512C296.004 50.2607 295.499 48.9308 294.742 47.7433C293.985 46.5558 292.992 45.536 291.826 44.7469C289.26 42.8762 286.15 41.8991 282.975 41.9655C279.953 41.9127 276.992 42.8228 274.522 44.564C272.051 46.3052 270.198 48.7873 269.232 51.6512H296.227ZM257.068 46.8902C258.323 43.5257 260.202 40.4283 262.606 37.7608C265.083 35.0701 268.11 32.9441 271.481 31.5273C275.15 29.9647 279.102 29.1793 283.089 29.2204C288.057 29.1563 292.94 30.5068 297.168 33.1143C301.281 35.621 304.646 39.1864 306.911 43.438C309.803 48.9652 310.92 55.2498 310.109 61.435C310.089 61.5853 310.015 61.7231 309.901 61.8226C309.786 61.922 309.639 61.9762 309.488 61.9748H268.733C269.443 65.2322 271.286 68.1314 273.936 70.1553C276.794 72.2407 280.274 73.2988 283.809 73.1575C286.372 73.1626 288.91 72.6507 291.27 71.6523C293.394 70.7749 295.27 69.3902 296.734 67.6194C296.838 67.4936 296.987 67.4137 297.15 67.3969C297.312 67.3801 297.474 67.4276 297.602 67.5294L306.224 74.4009C306.341 74.4985 306.418 74.6365 306.439 74.7878C306.46 74.9391 306.424 75.0928 306.338 75.2189C303.873 78.4889 300.65 81.1109 296.947 82.8595C292.891 84.8328 288.434 85.8434 283.924 85.8126C278.811 85.8695 273.769 84.6043 269.289 82.1396C264.959 79.7734 261.358 76.2686 258.875 72.004C256.351 67.6856 255.045 62.7637 255.096 57.7619C255.079 54.0263 255.747 50.3193 257.068 46.8247" fill="#1D1753"/>
<path d="M317.079 70.0408C317.91 69.2121 318.9 68.5607 319.989 68.1262C321.079 67.6917 322.246 67.4831 323.419 67.513C324.578 67.4882 325.73 67.6991 326.805 68.133C327.88 68.5669 328.855 69.2147 329.672 70.037C330.489 70.8594 331.131 71.8393 331.558 72.9171C331.985 73.9949 332.188 75.1482 332.156 76.307C332.187 77.4742 331.981 78.6355 331.551 79.721C331.121 80.8064 330.475 81.7934 329.652 82.6223C328.843 83.4495 327.872 84.1009 326.799 84.5358C325.727 84.9707 324.576 85.1798 323.419 85.15C322.249 85.1709 321.087 84.9568 320.002 84.5205C318.916 84.0842 317.929 83.4346 317.099 82.61C316.269 81.7854 315.613 80.8027 315.17 79.7201C314.727 78.6374 314.505 77.4768 314.519 76.307C314.491 75.1425 314.705 73.985 315.145 72.9069C315.586 71.8287 316.244 70.8529 317.079 70.0408Z" fill="#1D1753"/>
</svg>
