<svg width="883" height="255" viewBox="0 0 883 255" fill="none" xmlns="http://www.w3.org/2000/svg">
<path d="M284.049 117.578C266.415 114.492 253.631 111.846 253.631 99.3534C253.631 86.8608 263.182 82.1577 277.142 82.1577C291.102 82.1577 302.27 90.5351 303.74 102.734H324.018C323.137 80.394 305.503 65.4028 277.289 65.4028C249.075 65.4028 233.352 79.8061 233.352 100.823C233.352 121.84 252.896 131.246 275.232 135.068C293.013 138.154 305.797 141.094 305.797 153.88C305.797 166.667 295.364 171.664 280.375 171.664C265.386 171.664 252.014 162.111 250.839 147.854H230.413C231.148 171.958 249.663 188.566 280.375 188.566C311.087 188.566 326.076 173.574 326.076 151.823C326.076 130.071 306.238 121.399 284.049 117.431V117.578Z" fill="black"/>
<path d="M396.463 188.712C431.877 188.712 456.418 162.551 456.418 127.131C456.418 91.7107 431.877 65.5496 396.463 65.5496C361.049 65.5496 336.509 91.7107 336.509 127.131C336.509 162.551 361.049 188.712 396.463 188.712ZM396.463 83.0393C419.975 83.0393 435.698 100.97 435.698 127.131C435.698 153.292 419.975 171.223 396.463 171.223C372.952 171.223 357.228 153.292 357.228 127.131C357.228 100.97 372.952 83.0393 396.463 83.0393Z" fill="black"/>
<path d="M490.656 101.852L550.905 187.684H569.42V66.5784H549.435V152.41L489.334 66.5784H470.818V187.684H490.656V101.852Z" fill="black"/>
<path d="M628.052 66.5784L581.764 187.684H602.924L614.386 157.701H665.083L676.545 187.684H698.44L652.298 66.5784H627.905H628.052ZM620.117 140.799L639.661 88.0363L659.499 140.799H620.117Z" fill="black"/>
<path d="M780.73 66.5784H684.186V84.2151H722.245V187.684H742.671V84.2151H780.73V66.5784Z" fill="black"/>
<path d="M837.011 66.5784H812.617L766.329 187.684H787.49L798.951 157.701H849.648L861.11 187.684H883.005L836.864 66.5784H837.011ZM806.593 140.799L826.137 88.0363L845.974 140.799H806.593Z" fill="black"/>
<path d="M85.3763 0C73.1796 0 61.8647 4.70311 53.1948 13.3745L0 66.5785V187.831L53.1948 241.035C70.9754 258.818 99.7771 258.818 117.558 241.035L170.753 187.831V133.745V130.511V120.664V105.379V66.7255L117.558 13.5215C109.035 4.99707 97.5729 0.14697 85.3763 0.14697V0ZM106.977 230.306C95.0748 242.21 75.8247 242.21 63.922 230.306L1.76336 168.136L56.2807 204.586C58.0441 205.908 69.2121 213.404 85.5232 213.404C101.834 213.404 112.855 205.908 114.619 204.586L169.136 168.136L106.977 230.306ZM106.096 192.24L105.802 192.534C105.802 192.534 97.5729 198.413 85.5232 198.413C73.4735 198.413 65.2445 192.534 65.0976 192.534L1.61642 150.059L60.5422 169.753C61.13 169.9 74.3552 173.721 85.5232 173.721C96.6912 173.721 109.916 169.9 110.798 169.606L169.43 149.912L106.243 192.093L106.096 192.24ZM167.961 119.636H2.93894L64.6567 98.9124C64.6567 98.9124 76.4125 95.532 85.3763 95.532C94.34 95.532 105.802 98.9124 105.802 98.9124L167.814 119.636H167.961ZM167.961 134.627L106.243 155.35C106.243 155.35 94.487 158.73 85.5232 158.73C76.5594 158.73 64.9506 155.35 64.9506 155.35L2.93894 134.627H167.961ZM110.357 84.5091C109.769 84.3621 96.5442 80.5408 85.3763 80.5408C74.2083 80.5408 60.983 84.3621 60.1014 84.6561L1.46947 104.35L64.9506 61.8754C64.9506 61.8754 73.1796 55.9965 85.3763 55.9965C97.5729 55.9965 105.655 61.8754 105.655 61.8754L169.283 104.35L110.357 84.6561V84.5091ZM114.619 49.6767C112.855 48.3539 101.687 40.8583 85.5232 40.8583C69.359 40.8583 58.0441 48.3539 56.2807 49.6767L1.76336 86.1258L63.922 23.9565C69.6529 18.2246 77.2942 14.9912 85.5232 14.9912C93.7522 14.9912 101.247 18.2246 107.124 23.9565L169.283 86.1258L114.766 49.6767H114.619Z" fill="black"/>
</svg>
