<svg width="277" height="140" viewBox="0 0 277 140" fill="none" xmlns="http://www.w3.org/2000/svg">
<g clip-path="url(#clip0_522_45511)">
<path fill-rule="evenodd" clip-rule="evenodd" d="M136.926 140H277V0H136.926V140Z" fill="#DC2D27"/>
<path fill-rule="evenodd" clip-rule="evenodd" d="M0 140H140.074V0H0V140Z" fill="black"/>
<path fill-rule="evenodd" clip-rule="evenodd" d="M166.831 48.8867L168.77 50.0005C169.612 50.4755 170.368 50.982 170.368 51.962C170.368 53.1937 169.471 53.9031 167.908 53.9031L167.746 53.8984C166.773 53.8827 166.078 53.8276 165.306 53.1937L165.158 53.071V54.4537L165.217 54.4773C166.015 54.7793 166.581 54.784 167.365 54.7856L167.629 54.7903L167.831 54.7951C168.696 54.7951 170.291 54.6519 171.202 53.7049C171.679 53.2126 171.906 52.5661 171.877 51.7827C171.814 50.109 170.923 49.6088 169.795 48.9764C169.668 48.9056 169.537 48.8348 169.405 48.7562L167.708 47.773C167.009 47.3719 166.562 46.9865 166.496 46.2865C166.479 46.0898 166.505 45.8917 166.572 45.7058C166.638 45.5199 166.744 45.3504 166.882 45.209C167.283 44.7717 167.944 44.498 168.61 44.498C168.657 44.498 168.706 44.498 168.756 44.5027C169.564 44.531 170.146 44.6569 170.724 45.2011L170.878 45.3506V43.9773L170.821 43.9537C170.149 43.68 169.668 43.6659 169.003 43.6438C168.843 43.6423 168.668 43.6328 168.503 43.6297C167.425 43.6297 166.447 43.993 165.819 44.6285C165.352 45.1005 165.106 45.6982 165.113 46.3557C165.129 47.4254 165.642 48.1836 166.831 48.8883M172.417 44.2715C172.527 44.413 172.565 44.4964 172.606 44.6427L176.462 55.0216L179.216 47.4317L181.945 54.7306L182.03 54.9665L185.672 44.8267C185.708 44.7233 185.755 44.6241 185.812 44.531L185.875 44.4209C186.001 44.2274 186.088 44.0953 186.239 43.9128L186.365 43.765H184.434L184.525 43.9065C184.596 44.0061 184.635 44.1254 184.635 44.2479C184.648 44.4083 184.599 44.5216 184.515 44.7056L182.17 51.671L179.632 44.6301C179.573 44.4801 179.559 44.3162 179.591 44.1582C179.612 44.0715 179.646 43.9887 179.693 43.9128L179.765 43.7791H177.45L177.611 43.9364C177.712 44.0387 177.8 44.1236 177.9 44.2557L177.981 44.3517C178.061 44.4461 178.122 44.5169 178.173 44.6474L178.687 45.953L176.547 51.6569L174.018 44.4681C173.985 44.3784 173.991 44.3108 174.019 44.196C174.033 44.0956 174.074 44.0007 174.136 43.9207L174.227 43.7791H171.756L172.055 43.9521C172.198 44.0307 172.321 44.1398 172.417 44.2715ZM187.665 44.3973C187.731 44.6097 187.743 44.7261 187.743 44.9258V53.6043C187.743 53.8166 187.743 53.9425 187.665 54.1344C187.628 54.2537 187.573 54.3667 187.503 54.4694L187.408 54.611H189.397L189.325 54.4742C189.301 54.427 189.273 54.3908 189.25 54.3515C189.198 54.2697 189.155 54.2052 189.139 54.1092C189.095 53.76 189.095 53.2834 189.095 52.7312V44.8975C189.095 44.7434 189.095 44.649 189.19 44.3312L189.199 44.3124C189.254 44.1661 189.294 44.0575 189.36 43.9254L189.423 43.7933H187.356L187.447 43.9317C187.551 44.0906 187.608 44.2133 187.665 44.3973ZM191.371 44.2463C191.445 44.3702 191.481 44.5128 191.475 44.6569V53.5649C191.475 53.7726 191.475 53.9094 191.418 54.1187C191.39 54.2468 191.332 54.3664 191.248 54.4679L191.148 54.6126H192.8L192.728 54.3782C192.692 54.2681 192.661 54.1563 192.637 54.0431C192.537 53.5791 192.537 53.5791 192.537 53.2771V45.5865L201.008 54.9303L201.168 55.1049L201.153 44.8975C201.153 44.6899 201.153 44.5656 201.192 44.347C201.225 44.1645 201.249 44.0512 201.302 43.8876L201.343 43.7681H199.895L199.931 43.8829C199.977 44.0434 200.001 44.1346 200.031 44.2841C200.106 44.7072 200.103 45.0014 200.103 45.3789L200.101 52.1492L192.759 43.7807H190.814L191.107 43.9521C191.228 44.0147 191.322 44.1193 191.371 44.2463ZM203.035 44.3014C203.125 44.4867 203.171 44.69 203.17 44.896V53.6766C203.173 53.8527 203.142 54.0276 203.081 54.1926L203.065 54.2193C203.026 54.312 202.975 54.3996 202.915 54.4805L202.813 54.6252H205.833C208.048 54.6252 209.433 53.4218 209.45 51.4917C209.45 50.0901 208.808 49.1605 207.546 48.7326L207.299 48.6461L207.535 48.5014C208.418 47.9948 208.762 47.3955 208.734 46.4234C208.655 44.9416 207.506 43.7807 206.114 43.7807H202.719L202.816 43.9238C202.912 44.0638 202.969 44.1535 203.037 44.3014M205.371 49.1982C207.165 49.2501 208.09 50.0193 208.125 51.4791C208.171 52.9656 206.826 53.716 205.479 53.7993C205.161 53.822 204.842 53.7868 204.536 53.6955V49.2643C204.843 49.1982 205.037 49.1982 205.371 49.1982ZM205.319 48.333H204.48V44.6726H205.434C206.642 44.6726 207.398 45.3301 207.453 46.4297C207.473 46.9708 207.321 47.4285 207.009 47.7542C206.642 48.1317 206.057 48.333 205.319 48.333ZM211.208 44.4382C211.227 44.5656 211.224 44.6537 211.224 44.767C211.219 44.8142 211.219 44.8582 211.219 44.9101V51.0339C211.219 53.1685 213.061 54.7762 215.502 54.7762H215.585C217.891 54.7353 219.627 53.1497 219.627 51.0953V44.7056C219.618 44.4291 219.661 44.1533 219.753 43.8924L219.787 43.776H218.042L218.094 43.8987C218.157 44.0623 218.183 44.1661 218.226 44.3391L218.231 44.3548C218.259 44.5436 218.259 44.6694 218.259 44.8834V50.9867C218.259 52.5 217.134 53.6247 215.577 53.6703H215.486C213.896 53.6703 212.558 52.4056 212.558 50.9065V44.7009C212.549 44.5742 212.56 44.4468 212.59 44.3234C212.604 44.1776 212.643 44.0355 212.706 43.9034L212.762 43.7775H211.033L211.081 43.8971C211.156 44.1016 211.181 44.2243 211.207 44.4366M221.385 44.0119C221.441 44.106 221.484 44.2077 221.512 44.3139C221.583 44.7025 221.596 44.929 221.596 45.3285V52.9782C221.596 53.3573 221.596 53.8387 221.555 54.0542C221.548 54.1674 221.506 54.2476 221.449 54.3562L221.393 54.4616L221.326 54.5969H223.179L223.084 54.353C223.036 54.2209 222.999 54.1265 222.976 53.9692C222.933 53.7757 222.933 53.6578 222.933 53.4816V48.676C222.949 48.6838 222.96 48.6948 222.976 48.7121C223.05 48.7656 223.089 48.8223 223.14 48.8978C223.171 48.9402 223.201 48.9858 223.24 49.0346L227.531 54.6032L227.556 54.6362H229.566L229.341 54.4742C229.131 54.32 229.013 54.2225 228.805 54.051C228.499 53.7836 228.259 53.469 227.952 53.0757L225.359 49.7802C225.134 49.4835 224.881 49.2086 224.605 48.9591L224.586 48.9402C224.628 48.9441 224.67 48.9457 224.712 48.9449C226.124 48.9449 227.293 47.7605 227.32 46.3148C227.335 45.9957 227.285 45.6767 227.173 45.3775C227.061 45.0783 226.888 44.8052 226.667 44.5751C226.163 44.0607 225.42 43.7665 224.621 43.7665H221.257L221.323 43.8987L221.386 44.0119H221.385ZM222.951 44.7575C223.31 44.6081 223.557 44.5892 223.986 44.5892C225.633 44.6584 225.911 45.4748 225.968 46.3479C226.053 47.4647 225.233 48.2025 223.786 48.3205C223.503 48.3362 223.157 48.3252 222.951 48.3016V44.7575ZM230.23 44.2416C230.302 44.3691 230.339 44.5135 230.337 44.66V53.5634C230.337 53.7694 230.337 53.9063 230.282 54.1139C230.249 54.2429 230.188 54.3632 230.104 54.4663L230.003 54.6094H231.656L231.623 54.4915C231.607 54.4348 231.59 54.3876 231.575 54.3405C231.547 54.2398 231.519 54.1564 231.5 54.0431C231.398 53.5791 231.398 53.5791 231.398 53.2771V45.5865L239.862 54.9303L240.022 55.1034L240.013 44.8944C240.013 44.6883 240.013 44.5641 240.055 44.3407C240.081 44.1598 240.112 44.0465 240.159 43.8845L240.199 43.765H238.751L238.787 43.8829C238.837 44.0402 238.859 44.1283 238.891 44.2825C238.966 44.6946 238.96 44.9872 238.957 45.3521V52.1492L231.623 43.7807H229.668L229.961 43.949C230.102 44.0324 230.17 44.1063 230.23 44.2416ZM241.991 44.2148C242.044 44.3501 242.071 44.4943 242.07 44.6396V53.5775C242.07 53.6294 242.07 53.6798 242.073 53.7238C242.078 53.8497 242.086 53.9598 242.042 54.0951C242.014 54.229 241.957 54.3551 241.875 54.4647L241.771 54.6094H248.173L248.639 53.0946L248.424 53.2409C248.286 53.3406 248.131 53.4152 247.967 53.4611C247.593 53.5867 247.199 53.6422 246.804 53.6247H243.485V49.0425H246.25C246.42 49.0425 246.54 49.0425 246.7 49.0645C246.949 49.1274 247.081 49.1652 247.283 49.2596L247.409 49.3225V48.0735H243.441V44.7434H246.25L246.423 44.7418C246.565 44.7324 246.685 44.7182 246.88 44.7858C247.029 44.8315 247.132 44.8991 247.256 45.0171L247.409 45.1681V43.7901H241.651L241.813 43.9474C241.908 44.0387 241.941 44.1016 241.991 44.2148ZM158.04 73.1303C160.344 73.0879 162.082 71.5038 162.082 69.4494V63.2076L162.08 63.0598C162.08 62.9387 162.075 62.8443 162.099 62.7074C162.122 62.5514 162.158 62.3977 162.207 62.2481L162.245 62.1301H160.503L160.552 62.256C160.618 62.418 160.646 62.5281 160.689 62.7058C160.717 62.8993 160.717 63.0267 160.717 63.2391V69.3425C160.717 70.8557 159.589 71.9804 158.035 72.0261H157.941C156.357 72.0261 155.016 70.7582 155.016 69.2607V63.1652L155.013 63.0566C155.013 62.9245 155.012 62.8238 155.046 62.6744C155.063 62.5306 155.103 62.3904 155.164 62.2591L155.221 62.1301H153.496L153.54 62.2528C153.642 62.5289 153.689 62.8224 153.677 63.1164L153.676 63.2643V69.3881C153.676 71.5227 155.517 73.1303 157.963 73.1303H158.04ZM165.324 72.6805C165.291 72.5882 165.266 72.4935 165.248 72.3973C165.149 71.9333 165.149 71.9333 165.149 71.6312V63.9438L173.62 73.2876L173.777 73.467L173.764 63.2501C173.764 63.0409 173.764 62.9151 173.802 62.6933C173.83 62.5368 173.868 62.3823 173.915 62.2308L173.953 62.116H172.505L172.538 62.2308C172.584 62.3818 172.612 62.4856 172.642 62.6366C172.718 63.0503 172.716 63.3398 172.711 63.711V70.5002L165.374 62.1364H163.433L163.714 62.3063C163.836 62.3685 163.932 62.473 163.983 62.6005C164.055 62.7243 164.091 62.8661 164.087 63.0094V71.9191C164.087 72.1267 164.087 72.2652 164.028 72.4665C164 72.5963 163.942 72.7179 163.86 72.822L163.759 72.9636H165.409L165.377 72.8488L165.324 72.6805ZM177.442 62.687L177.466 62.6288C177.513 62.4982 177.549 62.4023 177.611 62.2796L177.674 62.1474H175.606L175.695 62.2858C175.799 62.4432 175.853 62.5627 175.916 62.7562C175.982 62.9512 175.994 63.0708 175.994 63.2816V71.9553C175.994 72.1755 175.994 72.2903 175.916 72.4901C175.88 72.6106 175.825 72.7243 175.752 72.8267L175.662 72.9636H177.661L177.578 72.8283C177.559 72.7906 177.535 72.7575 177.515 72.7229C177.454 72.6455 177.411 72.5551 177.39 72.4587C177.348 72.1094 177.348 71.6344 177.348 71.0854V63.2485C177.348 63.1007 177.348 63.0079 177.442 62.687ZM180.793 62.1191H178.585L178.867 62.289C179.013 62.3724 179.087 62.4463 179.185 62.6083C179.238 62.6864 179.281 62.771 179.312 62.86L184.416 73.2971L189.166 63.2045C189.232 63.062 189.308 62.9242 189.393 62.7924C189.506 62.5769 189.594 62.4542 189.723 62.2827L189.837 62.1364H188.046L188.083 62.2512C188.12 62.363 188.138 62.4798 188.137 62.5973C188.126 62.7125 188.09 62.8241 188.033 62.9245C188.012 62.9683 187.991 63.0124 187.97 63.0566L184.454 70.5993L180.714 62.7279C180.674 62.6455 180.653 62.5553 180.652 62.4636C180.652 62.3912 180.661 62.3378 180.708 62.2607L180.793 62.1191ZM191.184 72.8126L191.074 72.9605H197.482L197.95 71.4535L197.734 71.5966C197.595 71.6946 197.439 71.768 197.275 71.8137C196.901 71.9393 196.508 71.9963 196.115 71.982H192.791V67.3966H195.561C195.728 67.3966 195.85 67.3966 196.011 67.4187C196.236 67.4721 196.373 67.5178 196.593 67.6169L196.719 67.6735V66.4276H192.748V63.1007H195.561C195.622 63.1007 195.679 63.0928 195.737 63.0928C195.889 63.0771 196.042 63.0915 196.189 63.1353C196.333 63.1785 196.464 63.2594 196.566 63.3697L196.719 63.5254V62.1411H190.975L191.122 62.2953C191.214 62.3944 191.252 62.4526 191.303 62.5643C191.359 62.7247 191.382 62.827 191.382 62.9921V71.927C191.382 71.982 191.384 72.0308 191.387 72.0764C191.388 72.2085 191.393 72.3139 191.354 72.4508C191.327 72.5833 191.269 72.7074 191.184 72.8126ZM207.137 72.8283C206.954 72.6903 206.774 72.5487 206.597 72.4036C206.294 72.133 206.049 71.8137 205.742 71.4126L203.156 68.1328C202.929 67.8373 202.676 67.562 202.401 67.3101L202.38 67.2912C202.424 67.296 202.47 67.296 202.513 67.296C203.924 67.296 205.087 66.1162 205.116 64.6674C205.132 64.3491 205.082 64.0308 204.97 63.7324C204.858 63.434 204.686 63.1617 204.464 62.9324C203.964 62.4133 203.213 62.1191 202.41 62.1191H199.048L199.17 62.3425C199.228 62.4494 199.278 62.536 199.308 62.6634C199.374 63.0566 199.393 63.2847 199.393 63.6811V71.3276C199.393 71.713 199.393 72.1928 199.351 72.4083C199.337 72.5226 199.297 72.6321 199.233 72.7276L199.119 72.9479H200.97L200.928 72.8283C200.909 72.7764 200.893 72.7292 200.876 72.6867C200.827 72.5708 200.792 72.4493 200.772 72.3249C200.737 72.1729 200.724 72.0167 200.732 71.8609V67.0285L200.772 67.0647C200.846 67.1214 200.885 67.1796 200.942 67.2551C200.969 67.2975 201.002 67.34 201.039 67.3903L205.323 72.9557L205.35 72.9919H207.354L207.137 72.8283ZM200.748 63.1101C201.105 62.9638 201.353 62.9449 201.781 62.9449C203.433 63.0126 203.712 63.8699 203.765 64.6973C203.849 65.8205 203.029 66.5566 201.582 66.6746C201.275 66.6825 200.947 66.6746 200.748 66.6557V63.1101Z" fill="white"/>
<path fill-rule="evenodd" clip-rule="evenodd" d="M207.244 64.7099C207.259 65.7827 207.771 66.5378 208.962 67.2425L210.901 68.3578C211.738 68.8297 212.497 69.333 212.497 70.3178C212.497 71.5306 211.578 72.2573 210.039 72.2573C209.985 72.2573 209.929 72.2526 209.872 72.2526C208.906 72.2384 208.215 72.1818 207.432 71.5479L207.286 71.4252V72.8094L207.343 72.8315C208.13 73.1256 208.687 73.1335 209.458 73.1398L209.757 73.1476L209.958 73.1492C210.827 73.1492 212.417 73.0061 213.333 72.0591C213.81 71.5667 214.036 70.9202 214.01 70.14C213.942 68.4632 213.046 67.9614 211.923 67.329L211.535 67.1088L209.834 66.1272C209.137 65.7261 208.693 65.3375 208.625 64.6407C208.609 64.4441 208.635 64.2463 208.701 64.0604C208.767 63.8746 208.872 63.705 209.009 63.5632C209.414 63.1259 210.076 62.8553 210.738 62.8553L210.884 62.8569C211.694 62.8883 212.277 63.0142 212.856 63.5553L213.012 63.7047V62.3315L212.955 62.3094C212.281 62.0342 211.775 62.02 211.133 62.0011C210.975 61.9917 210.807 61.9854 210.632 61.9854C209.556 61.9854 208.578 62.3472 207.95 62.9827C207.48 63.4515 207.239 64.0524 207.244 64.7099ZM217.233 62.687L217.277 62.569C217.315 62.4683 217.351 62.3802 217.403 62.2796L217.466 62.1474H215.398L215.487 62.2859C215.604 62.4636 215.656 62.5847 215.708 62.753C215.775 62.9638 215.786 63.0834 215.786 63.2816V71.9553C215.786 72.1755 215.786 72.2903 215.708 72.4901C215.672 72.6099 215.618 72.7234 215.547 72.8268L215.453 72.9636H217.442L217.367 72.8283C217.346 72.786 217.32 72.7459 217.291 72.7088C217.237 72.6334 217.2 72.5477 217.181 72.4571C217.14 72.1094 217.14 71.6344 217.14 71.0854V63.2486C217.14 63.1007 217.14 63.0079 217.233 62.687ZM219.493 63.1306H222.088V71.9443C222.088 72.0135 222.093 72.078 222.093 72.1315C222.104 72.2543 222.099 72.3782 222.077 72.4996C222.041 72.6145 221.994 72.7261 221.939 72.833L221.873 72.9652H223.676L223.827 72.9573L223.752 72.8205C223.673 72.6836 223.618 72.5987 223.609 72.4681C223.552 72.1535 223.552 72.122 223.553 72.0135V63.085H225.788C226.009 63.085 226.158 63.107 226.402 63.1825C226.578 63.225 226.697 63.2643 226.868 63.3492L227.013 63.4153L226.887 62.1333H218.722L218.435 63.5128L218.615 63.4011C218.776 63.292 218.958 63.2171 219.15 63.1809C219.26 63.1425 219.376 63.1254 219.493 63.1306ZM235.638 63.1306C235.746 62.9481 235.819 62.8301 235.94 62.665C236.059 62.5077 236.138 62.4148 236.289 62.2796L236.465 62.1223H234.665L234.681 62.2261C234.695 62.303 234.696 62.3816 234.684 62.4589C234.655 62.5674 234.605 62.6694 234.537 62.7593L232.188 66.4733L230.038 62.9874L229.995 62.9229C229.92 62.8018 229.863 62.7121 229.821 62.5706C229.79 62.4622 229.781 62.3489 229.794 62.2371L229.806 62.1333H227.731L227.935 62.2984C228.042 62.3818 228.104 62.4526 228.174 62.5328L228.226 62.5895C228.343 62.7468 228.399 62.827 228.5 62.9859L231.383 67.5193V72.2699C231.383 72.2998 231.383 72.3297 231.388 72.3564C231.388 72.4209 231.39 72.4697 231.369 72.5452C231.353 72.6509 231.322 72.7537 231.276 72.8503L231.224 72.9762H232.871L232.83 72.8582C232.796 72.757 232.77 72.6534 232.751 72.5483C232.722 72.44 232.706 72.3286 232.704 72.2164V67.5193L235.638 63.1306ZM247.3 61.902C245.835 61.9066 244.432 62.4917 243.399 63.5288C242.365 64.566 241.785 65.9705 241.787 67.4344C241.787 70.4405 244.166 72.8739 247.202 72.9793H247.335C248.83 72.9793 250.281 72.3784 251.309 71.3277C251.502 71.1326 251.589 70.8746 251.745 70.656C251.807 70.5679 251.866 70.4735 251.924 70.3791C252.256 69.8619 252.492 69.2891 252.621 68.6881C252.645 68.5906 252.659 68.4946 252.675 68.3955C252.727 68.062 252.854 67.7506 252.848 67.4092C252.837 65.9717 252.269 64.5944 251.263 63.5674C250.256 62.5404 248.89 61.9439 247.453 61.9036L247.3 61.902ZM247.361 62.9591C249.699 62.9984 251.483 64.9097 251.512 67.4092C251.512 68.5528 251.071 69.6996 250.308 70.5474C249.514 71.4283 248.458 71.9081 247.33 71.9081H247.235C244.912 71.8562 243.135 69.8647 243.183 67.373C243.225 65.2353 244.678 62.9591 247.3 62.9591H247.361ZM255.863 66.4135V63.1023H258.833L258.962 63.0975C259.094 63.0975 259.206 63.1054 259.329 63.1353C259.467 63.1809 259.549 63.2454 259.674 63.3366L259.85 63.4751V62.1348H254.192L254.3 62.2811C254.367 62.3771 254.426 62.4573 254.461 62.5706C254.513 62.7007 254.539 62.8395 254.54 62.9796V71.9191L254.543 72.0921C254.548 72.2148 254.555 72.325 254.529 72.4477C254.49 72.5852 254.434 72.7173 254.362 72.8409L254.286 72.9762H256.112L256.087 72.8629C256.077 72.8132 256.061 72.7651 256.038 72.7198C256.013 72.6695 255.998 72.6151 255.992 72.5593C255.929 72.106 255.9 71.6485 255.906 71.1908V67.3825H258.67C258.75 67.3825 258.819 67.3825 258.887 67.3778C259.008 67.3778 259.117 67.3746 259.28 67.3825C259.422 67.3825 259.516 67.4108 259.645 67.4438L259.858 67.4957V66.4151H255.86L255.863 66.4135ZM156.713 80.4859L156.427 81.8654L156.606 81.7521C156.767 81.6423 156.949 81.5683 157.141 81.5351C157.251 81.4971 157.368 81.479 157.484 81.4816H160.08V90.2984C160.08 90.3692 160.081 90.4306 160.086 90.4903C160.091 90.6241 160.098 90.7263 160.07 90.8521L160.061 90.8836C160.03 90.9867 159.988 91.0859 159.935 91.1793L159.853 91.313H161.671L161.828 91.3115L161.749 91.1746C161.666 91.0346 161.616 90.9528 161.6 90.8286C161.545 90.5014 161.545 90.4762 161.548 90.3629V81.4391H163.783C164.014 81.4391 164.161 81.4596 164.39 81.5351C164.584 81.5823 164.702 81.6232 164.859 81.7034L165.006 81.7757L164.881 80.4859H156.713ZM172.727 90.1694C172.353 90.2938 171.96 90.3503 171.566 90.3362H168.245V85.7461H171.005C171.363 85.7364 171.719 85.813 172.041 85.9694L172.172 86.0324V84.7834H168.199V81.4548H171.005C171.068 81.4548 171.131 81.4501 171.188 81.4501C171.322 81.4423 171.435 81.4234 171.638 81.4973C171.783 81.5375 171.914 81.6183 172.014 81.7301L172.172 81.8906V80.4984H166.427L166.572 80.6526C166.651 80.7301 166.713 80.8233 166.754 80.9263C166.808 81.0604 166.834 81.2036 166.833 81.3479V90.2827C166.833 90.333 166.836 90.3802 166.839 90.4274C166.841 90.5596 166.846 90.6665 166.806 90.805C166.777 90.9377 166.72 91.0627 166.638 91.1715L166.537 91.3178H172.93L173.399 89.8124L173.187 89.9508C173.046 90.0484 172.891 90.1228 172.727 90.171M179.835 90.4605H179.684C178.302 90.4605 177.06 89.9775 176.194 89.0919C175.382 88.2692 174.967 87.1823 174.987 85.9537C175.014 83.3268 177.021 81.3479 179.657 81.3479H179.761C180.738 81.3668 181.355 81.5366 182.202 82.0164L182.339 82.0903V80.8335L182.285 80.8099C181.38 80.4292 180.765 80.3569 179.732 80.3427H179.666C177.904 80.3427 176.309 80.9656 175.181 82.0982C174.995 82.2838 174.913 82.5339 174.754 82.7432C174.704 82.8108 174.661 82.8863 174.613 82.9571C174.257 83.4848 174.001 84.0735 173.859 84.6937C173.839 84.7822 173.823 84.8714 173.81 84.9611C173.747 85.293 173.616 85.6061 173.618 85.9537C173.631 89.1171 176.172 91.5081 179.529 91.5081C179.64 91.5081 179.745 91.5034 179.854 91.4987L180.014 91.4955C180.936 91.4688 181.545 91.4515 182.447 91.1259L182.49 91.1117L183.187 89.3751L182.935 89.5481C182.085 90.1459 181.069 90.4447 179.835 90.4605ZM192.769 90.7625C192.731 90.6102 192.713 90.4537 192.715 90.2969V81.9598C192.715 81.8874 192.715 81.8182 192.712 81.7553C192.71 81.5099 192.703 81.3117 192.769 81.0569C192.805 80.9097 192.856 80.7668 192.923 80.6306L192.98 80.5H190.96L191.1 80.651C191.223 80.7784 191.31 80.9365 191.351 81.1088C191.403 81.2551 191.398 81.373 191.395 81.5193C191.392 81.5717 191.39 81.6242 191.39 81.6766V84.7378H185.774V81.7175C185.774 81.4344 185.774 81.2441 185.855 80.9845L185.883 80.9137C185.926 80.8099 185.954 80.7344 186.02 80.6148L186.092 80.4811H184.09L184.194 80.6259C184.304 80.7721 184.355 80.8634 184.426 81.0285C184.481 81.2157 184.481 81.3447 184.481 81.5634V90.4605C184.494 90.6084 184.478 90.7576 184.434 90.8993C184.383 90.9988 184.325 91.094 184.259 91.1841L184.149 91.3303H186.144L185.993 91.1101C185.936 91.0387 185.89 90.9591 185.856 90.8742C185.794 90.6416 185.771 90.4002 185.789 90.16L185.79 89.9241V85.7099H191.39V90.3802C191.39 90.4369 191.393 90.4856 191.395 90.5312C191.398 90.6068 191.399 90.6681 191.393 90.7357C191.366 90.8893 191.298 91.0328 191.196 91.151L191.077 91.3005H193.005L192.934 91.1636C192.847 91.0063 192.81 90.8993 192.769 90.7625ZM203.476 80.5834C203.518 80.7438 203.545 80.8398 203.575 80.9955C203.65 81.4045 203.65 81.6987 203.646 82.0667L203.644 82.3342V88.856L196.31 80.4843H194.368L194.646 80.6573C194.768 80.7188 194.863 80.8214 194.915 80.9467C194.986 81.0736 195.022 81.2169 195.019 81.362V90.267C195.019 90.4746 195.019 90.613 194.966 90.8238C194.936 90.9513 194.877 91.0699 194.793 91.1699L194.697 91.3146H196.341L196.31 91.1966C196.293 91.1337 196.274 91.0802 196.256 91.0315C196.225 90.9324 196.2 90.8569 196.181 90.7483C196.085 90.2859 196.085 90.2859 196.085 89.9791V82.2933L204.548 91.6371L204.705 91.8164L204.697 81.6074C204.697 81.3872 204.697 81.2676 204.735 81.049C204.766 80.8665 204.796 80.7596 204.848 80.5881L204.883 80.4701H203.447L203.476 80.5834ZM217.153 87.0438C217.171 86.9432 217.19 86.8441 217.205 86.7371C217.26 86.4067 217.387 86.1032 217.379 85.7618C217.323 82.7353 215 80.3742 211.978 80.2578L211.82 80.2562C208.786 80.2562 206.32 82.7353 206.32 85.787C206.32 88.7946 208.695 91.2281 211.731 91.3288H211.869C213.361 91.3288 214.806 90.7326 215.835 89.685C216.029 89.4883 216.122 89.2241 216.279 89.0023C216.339 88.9205 216.392 88.8292 216.449 88.738C216.783 88.2126 217.016 87.6557 217.153 87.0438ZM211.893 81.3101C214.23 81.3479 216.013 83.2607 216.037 85.7618C216.037 86.907 215.599 88.049 214.834 88.8984C214.041 89.7809 212.982 90.2623 211.86 90.2623H211.768C209.445 90.2088 207.662 88.2173 207.709 85.7272C207.752 83.5894 209.214 81.3101 211.846 81.3101H211.893ZM225.321 90.1616C225.289 90.171 225.255 90.1773 225.201 90.1946C225.009 90.2678 224.804 90.2999 224.599 90.289L220.584 90.3047L220.568 81.8969C220.568 81.8166 220.568 81.7458 220.565 81.6766C220.55 81.4545 220.568 81.2313 220.618 81.0144C220.65 80.8811 220.7 80.753 220.768 80.6337L220.84 80.5016H218.856L218.959 80.6432C219.059 80.7847 219.12 80.9027 219.177 81.0836C219.229 81.2975 219.243 81.4014 219.243 81.609V90.3928C219.243 90.5863 219.243 90.709 219.177 90.8836C219.139 90.9859 219.084 91.0614 219.016 91.1573L218.912 91.302H225.338L225.817 90.0121L225.669 89.9178C225.417 90.1427 225.395 90.1459 225.321 90.1616ZM236.662 87.0438C236.682 86.9421 236.7 86.8398 236.714 86.7371C236.768 86.4067 236.895 86.1032 236.887 85.7618C236.832 82.7353 234.506 80.3742 231.484 80.2578L231.327 80.2562C228.292 80.2562 225.823 82.7353 225.823 85.787C225.823 88.7443 228.253 91.2328 231.237 91.3288H231.374C232.869 91.3288 234.317 90.731 235.345 89.6818C235.538 89.4836 235.625 89.2288 235.781 89.0101C235.85 88.9205 235.907 88.8229 235.965 88.7285C236.294 88.2047 236.527 87.651 236.662 87.0438ZM231.398 81.3101C233.73 81.3479 235.52 83.2607 235.549 85.7618C235.545 86.9195 235.116 88.0354 234.344 88.8984C233.551 89.7809 232.49 90.2623 231.365 90.2623H231.272C228.957 90.2088 227.18 88.2173 227.224 85.7272C227.262 83.5894 228.719 81.3101 231.352 81.3101H231.398ZM246.415 86.0072C246.568 86.1771 246.658 86.2793 246.722 86.4838C246.837 86.8566 246.837 87.1602 246.836 87.5409V89.7054C245.995 90.1773 245.336 90.2921 244.503 90.3346C244.418 90.3393 244.338 90.3393 244.255 90.3393C241.67 90.3393 239.738 88.4832 239.66 85.9254C239.632 84.6748 240.074 83.4778 240.874 82.6456C241.653 81.8355 242.734 81.3998 244 81.3809C244.887 81.3809 245.931 81.4659 246.935 82.0652L247.069 82.147V80.8335L247.012 80.8115C245.989 80.4103 245.268 80.3726 244.21 80.3553H244.148C243.781 80.3553 243.486 80.4748 243.148 80.5236C243.055 80.533 242.97 80.5519 242.879 80.5692C242.182 80.6951 241.559 80.909 241.006 81.2252C240.965 81.249 240.925 81.2742 240.886 81.3007C240.337 81.6327 239.857 82.0674 239.472 82.5811C239.424 82.6503 239.38 82.7211 239.338 82.7888C238.992 83.3079 238.743 83.8962 238.592 84.5569C238.565 84.6654 238.545 84.7834 238.523 84.8966C238.461 85.2521 238.329 85.562 238.323 85.949C238.318 86.2935 238.449 86.6112 238.508 86.9447C238.524 87.0202 238.535 87.0926 238.549 87.1649C238.696 87.8178 238.965 88.4139 239.354 88.9708C239.385 89.0133 239.409 89.0542 239.439 89.0919C239.585 89.2948 239.668 89.5371 239.849 89.7196C240.962 90.8443 242.501 91.4656 244.192 91.4656C244.283 91.4656 244.377 91.4625 244.472 91.4578C246.03 91.3964 247.388 90.8427 248.073 90.3849L248.112 90.3582L248.098 86.756V86.6679C248.087 86.5555 248.101 86.4419 248.14 86.336C248.174 86.2134 248.235 86.1002 248.32 86.0056L248.438 85.8562H246.282L246.415 86.0072ZM255.489 80.5818C255.505 80.6668 255.504 80.7328 255.49 80.813C255.461 80.9215 255.411 81.0234 255.344 81.1135L252.993 84.8274L250.783 81.2519C250.719 81.1527 250.666 81.0467 250.626 80.9357C250.602 80.8052 250.588 80.7155 250.602 80.5897L250.616 80.489H248.534L248.742 80.6542C248.86 80.7438 248.923 80.8193 249.006 80.9137L249.037 80.9515C249.148 81.0993 249.201 81.1827 249.31 81.34L252.19 85.8688V90.6241C252.19 90.6587 252.19 90.687 252.195 90.7121C252.195 90.7814 252.199 90.8238 252.176 90.8993C252.165 91.0032 252.136 91.0739 252.085 91.2061L252.033 91.3319H253.677L253.638 91.2139C253.615 91.1396 253.594 91.0646 253.575 90.989L253.554 90.9103C253.53 90.7992 253.517 90.6859 253.515 90.5721V85.8688L256.444 81.4847C256.562 81.2912 256.628 81.1827 256.746 81.0144C256.864 80.8587 256.948 80.7643 257.096 80.6337L257.269 80.4748H255.471L255.487 80.5818H255.489ZM23.2856 44.8362C19.8782 44.7921 17.5269 44.553 14.8859 42.3901V46.1811C17.8149 47.2854 19.7806 47.1879 22.9032 47.2351C29.3812 47.3798 37.1577 45.3647 36.8712 37.4508C36.6336 31.3584 33.0326 30.0103 28.7107 27.5171L22.9992 24.2074C20.7423 22.9112 19.0173 21.5238 18.7765 18.9787C18.4381 15.0461 22.7584 12.4034 26.6946 12.6472C29.4772 12.7416 31.4949 13.1742 33.5126 15.0948V11.3982C30.9173 10.3474 29.142 10.4418 26.3122 10.3474C20.2654 10.1508 14.6923 13.5061 14.7396 19.169C14.7883 23.0072 16.8548 25.3605 20.3583 27.4211L26.8882 31.165C29.8597 32.8434 32.4046 34.6146 32.4046 38.0234C32.4046 42.4892 28.9515 45.0328 23.2856 44.8362ZM38.5946 13.7939C38.9566 14.247 39.0951 14.5647 39.232 15.0681L51.2375 47.3845L60.0165 23.2007L68.9765 47.202L80.3036 15.6548C80.483 15.1074 80.7128 14.7912 80.9835 14.291C81.3927 13.6524 81.6634 13.2481 82.1655 12.6551H77.159C77.4344 13.0641 77.521 13.3834 77.5713 13.8852C77.617 14.4735 77.4344 14.8809 77.159 15.4708L69.4297 38.4292L61.0631 15.2018C60.8837 14.6103 60.7861 14.2014 60.9277 13.5659C61.0159 13.1993 61.1103 13.02 61.2897 12.7007H55.106C55.4696 13.0641 55.7387 13.3362 56.0582 13.7483C56.4233 14.2014 56.7428 14.4719 56.9695 15.0681L58.6535 19.3389L51.5129 38.3348L43.1871 14.7047C43.0518 14.3382 43.0974 14.0645 43.1871 13.698C43.2344 13.2937 43.3729 13.0641 43.6026 12.7007H37.3638C37.9115 13.02 38.1838 13.2937 38.5946 13.7939ZM82.0915 22.7445C82.3244 23.0984 82.4598 23.3737 82.5841 23.8016C82.7494 24.2829 82.7761 24.5629 82.7761 25.016V44.4587C82.7761 44.9258 82.7761 45.2373 82.592 45.6652V45.6715L82.5841 45.6762C82.5056 45.9505 82.3822 46.2098 82.219 46.4438L82.0978 46.6247H86.2669L86.1583 46.4517L86.012 46.2189C85.875 46.0191 85.7664 45.8571 85.724 45.5944C85.6295 44.811 85.6295 43.7414 85.6295 42.5081V24.9499C85.6295 24.5991 85.6295 24.393 85.8499 23.6364C85.9726 23.2966 86.0702 23.0465 86.2244 22.7351L86.3094 22.5667H81.9734L82.0915 22.7445ZM123.092 12.6598H119.272C119.405 13.1584 119.499 13.4778 119.589 13.9748C119.908 15.6108 119.815 16.66 119.815 18.2944V39.8402L96.028 12.7023H91.0279C91.4843 12.9791 91.7581 13.245 91.9848 13.7483C92.2555 14.2517 92.3468 14.656 92.3468 15.2034V43.5636C92.3468 44.2479 92.3468 44.7009 92.1642 45.3852C92.0761 45.8885 91.8951 46.156 91.5756 46.609H95.8943C95.7117 46.0191 95.5779 45.7029 95.4851 45.1555C95.1703 43.658 95.1703 43.658 95.1703 42.6591V17.4292L122.639 47.7479L122.592 15.9726C122.592 15.293 122.592 14.8888 122.732 14.1605C122.822 13.5674 122.911 13.2009 123.094 12.6614M49.9673 76.9796C49.9673 72.5279 47.871 69.7499 44.0968 68.4757L42.7323 67.9771L44.0071 67.2063C46.4639 65.8 47.7844 64.0681 47.6915 60.8402C47.4649 56.4326 44.0543 52.7045 39.6397 52.7045H29.3623C29.6834 53.1638 29.866 53.4753 30.0894 53.9787C30.4137 54.7054 30.5459 55.2056 30.5459 55.9764V83.9292C30.5459 84.6151 30.453 85.0681 30.2248 85.702C30.0422 86.0701 29.9525 86.2966 29.6834 86.6616H38.7347C45.6439 86.6616 49.9201 82.9807 49.9673 76.9796ZM34.1406 54.976H37.4614C41.6857 54.976 44.0071 57.4299 44.1881 60.8402C44.325 64.5211 42.0524 67.2063 37.0947 67.2063H34.1406V54.976ZM37.6393 84.6151C36.3644 84.7063 35.5508 84.5694 34.3231 84.2061V69.6571C35.4563 69.3865 36.1378 69.3865 37.2789 69.3865C41.7754 69.5202 46.1901 71.1137 46.3286 76.9339C46.4639 81.8402 42.0949 84.3429 37.6393 84.6151ZM81.6901 55.8427C81.6901 55.2041 81.6398 54.8454 81.7342 54.2083C81.8271 53.6169 81.9168 53.2503 82.0978 52.7076H77.362C77.5934 53.2503 77.6878 53.6169 77.8247 54.2083C77.9176 54.8454 77.9176 55.2497 77.9176 55.9292V75.3876C77.9176 80.209 74.2772 84.0708 69.0882 84.2076C63.8583 84.387 59.1776 80.3458 59.1776 75.1124V55.7011C59.1776 55.1144 59.1272 54.7038 59.2642 54.1124C59.3586 53.5225 59.453 53.2 59.6749 52.7076H55.0383C55.265 53.3369 55.3578 53.7537 55.4475 54.4757C55.5372 55.0703 55.49 55.4306 55.49 56.0205V75.5261C55.49 82.4333 61.5856 87.2499 69.0882 87.1618C76.0966 87.0234 81.6901 82.2492 81.6901 75.707V55.8427ZM112.144 85.3434C111.096 84.4326 110.279 83.3409 109.233 81.9818L101.138 71.7036C100.42 70.7788 99.6281 69.913 98.7713 69.1144C98.4943 68.891 98.3605 68.7023 98.0914 68.4757C103.096 69.2497 107.232 65.2038 107.322 60.4769C107.459 55.613 103.457 52.662 98.9963 52.662H88.7662C89.0417 53.1591 89.2699 53.4753 89.4005 54.0683C89.6319 55.3441 89.6775 56.0661 89.6775 57.3402V81.7065C89.6775 82.9807 89.6775 84.4751 89.5406 85.1625C89.4949 85.7052 89.2683 86.0229 88.9944 86.5688H93.9946C93.768 85.9317 93.5854 85.5683 93.4973 84.9328C93.3131 84.2061 93.3603 83.7939 93.3603 83.0735V67.4769C93.587 67.6137 93.7695 67.7034 93.9505 67.8858C94.3597 68.2036 94.4951 68.5198 94.8618 68.9775L108.502 86.7025H113.872C113.276 86.2765 112.699 85.8229 112.144 85.3434ZM93.4044 67.0695V55.344C94.7265 54.7494 95.5921 54.7054 96.9975 54.7054C102.503 54.9335 103.413 57.8436 103.592 60.5665C103.866 64.3387 101.044 66.7973 96.3586 67.1607C95.2742 67.2032 94.045 67.1607 93.4044 67.0695ZM69.861 93.9809C70.1789 95.6169 70.0876 96.6614 70.0876 98.302V119.846L46.3002 92.7067H41.2969C41.7549 92.9836 42.0241 93.2526 42.2538 93.7497C42.5277 94.2578 42.619 94.662 42.619 95.2063V123.57C42.619 124.257 42.619 124.707 42.4348 125.39C42.3451 125.89 42.161 126.16 41.8446 126.613H46.1649C45.9839 126.028 45.8438 125.707 45.7557 125.16C45.4378 123.662 45.4378 123.662 45.4378 122.667V97.4337L72.9064 127.754L72.8639 95.9818C72.8639 95.3007 72.8639 94.887 72.9977 94.1634C73.0905 93.5735 73.1803 93.207 73.3644 92.6643H69.5399C69.6768 93.1645 69.7681 93.4823 69.861 93.9809ZM96.1445 124.071H85.277V108.885H94.3708C94.9137 108.885 95.3277 108.885 95.8722 108.978C96.6434 109.159 97.0983 109.296 97.7797 109.615V106.387H85.1416V95.2079H94.3708C95.1451 95.2079 95.6912 95.0726 96.464 95.34C97.0101 95.5256 97.3768 95.7521 97.7797 96.1611V92.7508H80.4499C80.7757 93.0701 80.9095 93.2982 81.0952 93.7025C81.2762 94.2027 81.3659 94.5708 81.3659 95.1575V123.617C81.3659 124.254 81.4556 124.707 81.2762 125.339C81.166 125.8 80.9642 126.233 80.6829 126.613H100.281L101.461 122.8C100.926 123.162 100.554 123.343 99.9171 123.522C98.5053 123.979 97.646 124.071 96.1445 124.071ZM28.1772 107.927C28.0196 107.867 27.8576 107.819 27.6925 107.784C27.6201 107.769 27.4611 107.833 27.4029 107.786L27.3604 107.725C27.1636 107.728 26.5766 107.909 26.3972 108.008C25.9502 108.242 25.7755 108.48 25.3899 108.516L25.3065 108.53C25.1542 108.454 25.0167 108.352 24.9004 108.228C24.8626 108.159 24.9146 107.993 24.9287 107.918C25.0909 107.142 26.2288 107.388 26.6868 107.176C26.9153 107.053 27.1059 106.87 27.2376 106.647C27.3604 106.45 27.5414 105.68 27.4784 105.464C27.4564 105.392 27.1794 104.583 27.299 104.236C27.3273 104.147 27.4029 103.933 27.3667 103.845C27.3168 103.782 27.2598 103.725 27.1967 103.676C26.9606 103.764 26.756 103.902 26.5199 103.952C26.2618 104.009 25.9596 103.944 25.7141 103.984C25.2404 104.042 24.6313 104.335 24.3905 104.854C23.9057 105.898 24.3999 106.529 24.4298 106.719C24.4377 106.798 24.4771 106.785 24.4896 106.87C24.4991 107.114 24.0269 107.435 23.7924 107.402C23.6224 107.375 23.314 107.056 23.2951 106.823C23.3009 106.647 23.3231 106.472 23.3612 106.299C23.3848 106.227 23.4336 105.985 23.4289 105.912C23.4131 105.681 23.4808 105.315 23.3801 105.072C23.3391 104.983 23.1109 104.522 23.0338 104.44C22.7597 104.253 22.4771 104.078 22.1871 103.916C22.0473 103.9 21.9072 103.887 21.7669 103.877C21.5309 103.861 21.2948 103.847 21.0586 103.834L20.4133 103.462C20.3693 103.438 20.1694 103.501 20.1505 103.501C20.119 103.58 20.0403 103.679 20.0435 103.765C20.0592 104.075 20.2607 104.253 20.1836 104.591C20.0954 104.953 19.8955 105.335 19.9003 105.708C19.9066 106.208 20.3205 106.842 20.7549 107.142C20.8304 107.201 21.0051 107.221 21.0775 107.262C21.227 107.341 21.2884 107.449 21.4363 107.493C21.5056 107.52 21.663 107.47 21.7228 107.484C21.7763 107.5 22.6042 108.041 22.6356 108.11C22.6781 108.192 22.601 108.393 22.5459 108.461C22.3791 108.673 22.1493 108.673 21.9479 108.643L21.8786 108.687C21.7952 108.631 21.6583 108.561 21.6236 108.53C21.5528 108.461 21.5166 108.325 21.4395 108.262C21.2261 108.148 21.007 108.044 20.7832 107.951C20.5566 107.86 19.9963 107.86 19.7492 107.993C19.617 108.067 19.3777 108.324 19.2723 108.418C19.2172 108.475 19.1228 108.498 19.0756 108.558C18.882 108.805 18.819 109.216 18.6868 109.46C18.5845 109.639 18.4035 109.749 18.3437 109.938C18.2918 110.108 18.3516 110.142 18.4429 110.356C18.4523 110.356 18.531 110.34 18.531 110.34C18.531 110.34 18.9906 110.66 19.2015 110.886C19.4061 111.113 19.9758 111.399 20.2276 111.387C20.3378 111.387 20.7627 111.311 20.8414 111.295C21.0382 111.262 21.3466 111.121 21.5292 110.962C21.5953 110.905 22.058 110.164 22.0864 110.093C22.0974 110.046 22.6372 109.409 22.8623 109.549C22.8843 109.556 23.1928 109.825 23.2526 109.958C23.2841 110.037 23.2368 110.301 23.2022 110.377C23.0983 110.592 22.8135 110.676 22.5979 110.899C22.4284 111.114 22.2813 111.346 22.1588 111.591C22.1115 111.711 22.1493 111.852 22.1493 111.984C22.1383 112.338 22.1729 112.771 22.5585 113.199C22.6199 113.268 22.8135 113.392 22.8843 113.458C23.1456 113.718 23.4462 114.218 23.7546 114.157C24.0568 114.095 24.2174 113.748 24.5479 113.556C24.8973 113.348 25.2498 113.013 25.3915 112.683C25.4497 112.536 25.4261 112.22 25.4434 112.06C25.4434 112.041 25.3411 111.556 25.2498 111.368C25.1837 111.231 25.1286 111.012 24.976 110.834C24.7887 110.622 24.3338 110.513 24.2268 110.244C24.2174 110.23 24.2787 110.131 24.2787 110.116C24.274 110.032 24.2079 110.012 24.1969 109.928C24.2178 109.778 24.2641 109.632 24.3338 109.497C24.5904 109.209 25.1208 109.315 25.2986 109.497C25.5504 109.754 25.4922 110.073 25.6386 110.328C25.9596 110.894 26.7906 111.272 27.2234 111.206C27.3147 111.193 27.6358 111.143 27.7271 111.099C27.9883 110.97 28.1992 110.712 28.3299 110.583C28.5345 110.378 28.9752 110.183 29.1042 109.947C29.2034 109.754 28.9012 109.202 28.8162 108.983C28.7107 108.719 28.4652 108.127 28.1772 107.927ZM121.443 109.463C121.317 109.217 121.249 108.804 121.054 108.558C121.012 108.5 120.917 108.476 120.86 108.42C120.75 108.325 120.521 108.067 120.385 107.997C120.135 107.86 119.576 107.86 119.35 107.949C119.124 108.044 118.904 108.15 118.69 108.269C118.618 108.33 118.585 108.464 118.509 108.528C118.471 108.563 118.334 108.634 118.251 108.689L118.188 108.642C117.987 108.673 117.754 108.673 117.585 108.464C117.529 108.391 117.451 108.193 117.496 108.11C117.527 108.039 118.353 107.509 118.408 107.485C118.467 107.47 118.627 107.517 118.698 107.496C118.849 107.448 118.903 107.345 119.054 107.264C119.129 107.221 119.305 107.201 119.379 107.146C119.809 106.85 120.228 106.211 120.234 105.708C120.237 105.335 120.036 104.953 119.951 104.594C119.869 104.258 120.074 104.075 120.086 103.767C120.091 103.679 120.012 103.58 119.984 103.502C119.96 103.502 119.76 103.436 119.716 103.465C119.672 103.485 119.068 103.834 119.068 103.834L118.364 103.875C118.312 103.88 117.999 103.91 117.939 103.918C117.653 104.085 117.371 104.26 117.094 104.443C116.964 104.645 116.85 104.858 116.754 105.079C116.649 105.311 116.716 105.683 116.701 105.912C116.698 105.985 116.748 106.227 116.768 106.298C116.806 106.408 116.842 106.815 116.838 106.829C116.822 107.056 116.507 107.38 116.337 107.402C116.103 107.435 115.634 107.114 115.643 106.869C115.649 106.787 115.695 106.798 115.701 106.718C115.728 106.537 116.225 105.9 115.742 104.854C115.498 104.333 114.888 104.042 114.417 103.981C114.175 103.949 113.872 104.007 113.613 103.956C113.374 103.904 113.169 103.762 112.936 103.674C112.936 103.674 112.783 103.8 112.768 103.847C112.73 103.932 112.81 104.149 112.834 104.234C112.949 104.583 112.673 105.39 112.65 105.462C112.587 105.678 112.776 106.453 112.897 106.645C113.025 106.872 113.215 107.057 113.444 107.18C113.902 107.385 115.039 107.141 115.204 107.916C115.223 107.992 115.267 108.157 115.232 108.226C115.196 108.302 114.87 108.525 114.826 108.528L114.743 108.516C114.359 108.481 114.175 108.24 113.737 108.012C113.553 107.912 112.968 107.729 112.768 107.723L112.73 107.786C112.67 107.833 112.513 107.769 112.442 107.786C112.276 107.821 112.113 107.868 111.954 107.927C111.664 108.129 111.417 108.717 111.315 108.986C111.23 109.203 110.928 109.757 111.03 109.95C111.156 110.185 111.597 110.375 111.8 110.58C111.937 110.713 112.14 110.97 112.406 111.099C112.499 111.146 112.816 111.193 112.911 111.213C113.339 111.272 114.175 110.894 114.493 110.326C114.637 110.075 114.578 109.757 114.833 109.496C115.006 109.313 115.544 109.209 115.8 109.496C115.87 109.632 115.915 109.78 115.933 109.931C115.922 110.01 115.854 110.034 115.854 110.116C115.854 110.131 115.909 110.229 115.908 110.248C115.8 110.512 115.341 110.624 115.157 110.838C115.006 111.012 114.946 111.231 114.878 111.372C114.788 111.561 114.689 112.041 114.689 112.06C114.704 112.22 114.681 112.536 114.743 112.681C114.878 113.011 115.231 113.348 115.583 113.556C115.914 113.748 116.071 114.097 116.377 114.155C116.687 114.218 116.989 113.719 117.253 113.463C117.319 113.394 117.513 113.268 117.579 113.2C117.961 112.777 117.988 112.343 117.982 111.983C117.982 111.855 118.018 111.711 117.972 111.589C117.848 111.346 117.701 111.114 117.533 110.897C117.319 110.676 117.03 110.592 116.927 110.375C116.894 110.303 116.849 110.038 116.88 109.958C116.934 109.823 117.245 109.557 117.269 109.548C117.496 109.411 118.032 110.048 118.048 110.092C118.07 110.166 118.539 110.907 118.604 110.963C118.785 111.121 119.095 111.262 119.288 111.298C119.37 111.309 119.792 111.388 119.904 111.39C120.159 111.398 120.722 111.114 120.928 110.894C121.141 110.663 121.605 110.344 121.605 110.344L121.688 110.355C121.776 110.142 121.846 110.109 121.786 109.941C121.726 109.755 121.545 109.639 121.443 109.463Z" fill="white"/>
</g>
<defs>
<clipPath id="clip0_522_45511">
<rect width="277" height="140" fill="white"/>
</clipPath>
</defs>
</svg>
