<svg width="316" height="74" viewBox="0 0 316 74" fill="none" xmlns="http://www.w3.org/2000/svg">
<path d="M285.655 52.0641L308.694 0H277.676L251.631 58.7594C248.203 66.2148 254.387 73.9073 263.451 73.9073H307.511L316 54.7449H287.712C285.543 54.72 285.169 53.2238 285.655 52.0641Z" fill="#007A68"/>
<path d="M103.43 19.1501C110.126 19.1501 115.387 19.1251 123.515 16.1579C126.632 15.0233 152.565 2.55584 157.976 0H138.564C129.899 5.14907 120.823 10.3979 118.778 11.3704C111.148 15.0608 103.518 15.8213 98.5806 15.8213H1.47117L0 19.1501H50.4311L32.266 60.1432C29.523 66.589 35.5822 73.9073 43.4867 73.9073H56.6773L80.9391 19.1501H103.43ZM109.577 0H28.2015C11.0711 0 5.32363 7.11895 2.7553 12.9413H88.0206C100.301 12.9413 104.951 5.7974 109.577 0ZM219.715 52.0641L242.755 0H211.736L185.691 58.7594C182.275 66.2148 188.446 73.9073 197.51 73.9073H241.583L250.061 54.7449H221.772C219.603 54.72 219.216 53.2238 219.702 52.0641M195.553 6.78231C193.371 3.15429 188.446 0 181.901 0H173.785C167.8 2.36882 132.043 16.5319 127.58 18.2898C123.665 19.8358 115.087 22.0051 108.093 22.0051H99.4781L89.1426 45.3569C75.7524 75.5033 106.447 73.895 106.447 73.895H141.968C141.968 73.895 173.173 75.4534 182.2 53.6725L194.181 26.6057C197.273 19.948 199.318 12.081 195.59 6.78231M163.998 24.8851C163.748 25.4337 153.762 48.0248 153.762 48.0248C150.657 54.7945 143.813 54.7573 143.813 54.7573H122.518C122.518 54.7573 116.01 54.9818 119.077 48.1618C119.077 48.1618 129.849 23.788 130.323 22.8155C130.996 21.3568 133.215 19.1251 137.741 19.1501H160.12C163.287 19.1501 165.556 21.0701 163.985 24.8976" fill="#007A68"/>
</svg>
