<svg width="276" height="276" viewBox="0 0 276 276" fill="none" xmlns="http://www.w3.org/2000/svg">
<path fill-rule="evenodd" clip-rule="evenodd" d="M130.817 79.7034C130.818 83.6714 134.033 86.8868 137.998 86.8872C141.964 86.8869 145.178 83.6716 145.179 79.7034V0H276V130.773H196.805C192.863 130.774 189.668 134.009 189.667 138C189.668 141.991 192.863 145.226 196.805 145.227H276V276H145.181V196.298C145.18 192.331 141.965 189.115 138 189.115C134.034 189.115 130.82 192.331 130.819 196.298V276H0V145.227H79.1967C83.139 145.226 86.3343 141.99 86.3348 138C86.3343 134.01 83.139 130.774 79.1967 130.773H0V0H130.817V79.7034Z" fill="#FF8D11"/>
</svg>
