<svg width="760" height="570" viewBox="0 0 760 570" fill="none" xmlns="http://www.w3.org/2000/svg">
<rect width="760" height="570" fill="#333132"/>
<path d="M302.725 309.355C302.725 323.476 291.055 330.535 267.714 330.532H245C237.177 330.623 229.418 329.118 222.197 326.111C213.267 322.328 208.793 316.859 208.775 309.705V250.744C208.775 248.031 209.761 246.354 211.723 245.694C212.327 245.369 214.459 245.209 218.104 245.209C221.748 245.209 223.581 247.056 223.581 250.744V263.853H267.709C291.049 263.853 302.72 270.795 302.72 284.68L302.725 309.355ZM287.992 308.87V284.958C287.992 279.166 281.327 276.269 267.998 276.265H223.602V309.638C223.602 312.675 226.782 314.966 233.142 316.51C235.434 317.026 237.705 317.418 239.946 317.702C242.203 317.981 244.475 318.121 246.75 318.12H267.869C271.09 318.12 273.749 318.053 275.829 317.913C277.42 317.836 279.003 317.648 280.568 317.351C285.521 316.182 287.995 313.354 287.992 308.87V308.87Z" fill="white"/>
<path d="M409.855 310.34C409.855 323.798 399.752 330.529 379.547 330.532H343.343C335.579 330.532 328.868 329.106 323.21 326.255C315.583 322.606 311.772 317.535 311.775 311.042V302.488C311.775 295.479 315.399 290.222 322.647 286.718C328.026 284.004 334.762 282.647 342.853 282.647H395.194C394.395 277.925 387.708 275.566 375.133 275.569C374.617 275.569 373.997 275.569 373.274 275.605C372.552 275.641 371.726 275.662 370.781 275.708C370.554 275.779 370.315 275.802 370.079 275.775H366.574C362.922 275.775 361.098 273.463 361.102 268.837C361.102 265.15 362.926 263.305 366.574 263.301C378.406 263.301 387.455 264.118 393.723 265.752C404.481 268.789 409.86 274.864 409.86 283.978V310.34H409.855ZM395.333 306.837C395.333 306.182 395.333 305.362 395.297 304.382C395.261 303.401 395.235 302.251 395.194 300.946C395.152 299.641 395.111 298.49 395.085 297.51C395.06 296.53 395.049 295.709 395.049 295.054H342.507C339.255 295.083 336.031 295.653 332.967 296.741C328.71 298.186 326.581 300.077 326.581 302.416V310.902C326.581 313.379 328.78 315.27 333.178 316.577C336.313 317.661 339.614 318.184 342.93 318.125H379.696C385.203 318.125 388.989 317.588 391.054 316.515C393.9 315.064 395.326 311.838 395.333 306.837V306.837Z" fill="white"/>
<path d="M551.224 267.779C551.172 269.015 550.817 270.219 550.192 271.287L522.744 324.501C521.154 327.631 518.16 329.197 513.761 329.201C509.556 329.201 506.63 327.681 504.985 324.64L483.174 283.766L461.002 324.78C459.316 327.875 456.297 329.423 451.947 329.423C447.415 329.423 444.352 327.81 442.758 324.584L415.883 271.287C415.228 269.461 414.902 268.295 414.902 267.779C414.902 264.601 417.217 263.012 421.846 263.012C425.872 263.012 428.491 264.111 429.703 266.309L452.417 310.201L474.615 269.327C476.336 266.049 479.189 264.412 483.174 264.415C487.005 264.415 489.81 266.028 491.589 269.254L513.761 310.206L536.419 266.314C537.544 264.116 540.141 263.017 544.209 263.017C548.886 263.014 551.224 264.601 551.224 267.779Z" fill="#FF6200"/>
<path d="M444.885 258.343C444.913 258.52 444.898 258.7 444.844 258.87C444.789 259.04 444.695 259.195 444.569 259.323C444.444 259.45 444.291 259.546 444.121 259.604C443.952 259.661 443.772 259.678 443.594 259.654C443.089 259.69 442.581 259.65 442.087 259.535C441.85 259.448 441.65 259.282 441.52 259.065C441.39 258.848 441.339 258.593 441.375 258.343V248.541C441.375 247.283 439.888 246.653 436.914 246.653H436.238C436.171 246.642 436.103 246.642 436.037 246.653C435.086 246.652 434.138 246.753 433.208 246.952C432.751 247.049 432.343 247.306 432.059 247.677C431.775 248.048 431.633 248.508 431.659 248.975V258.312C431.694 258.562 431.642 258.817 431.513 259.033C431.383 259.25 431.183 259.416 430.947 259.504C430.453 259.619 429.945 259.659 429.439 259.623C429.261 259.649 429.079 259.633 428.908 259.576C428.737 259.519 428.582 259.424 428.455 259.296C428.327 259.169 428.231 259.014 428.175 258.843C428.118 258.672 428.102 258.49 428.128 258.312V248.98C428.168 248.595 428.091 248.207 427.907 247.866C427.723 247.526 427.44 247.248 427.096 247.071C426.374 246.795 425.601 246.677 424.829 246.725H423.967C423.874 246.725 423.828 246.725 423.818 246.725H423.239H422.821C419.817 246.725 418.314 247.365 418.314 248.644V258.395C418.351 258.644 418.301 258.897 418.173 259.114C418.046 259.331 417.848 259.497 417.612 259.587C417.119 259.702 416.611 259.742 416.105 259.705C415.928 259.73 415.748 259.713 415.578 259.655C415.409 259.598 415.255 259.502 415.13 259.374C415.005 259.247 414.911 259.092 414.856 258.922C414.801 258.752 414.787 258.571 414.814 258.395V248.959C414.814 245.52 417.354 243.8 422.434 243.8C423.467 243.8 424.261 243.8 424.896 243.8C425.369 243.801 425.842 243.83 426.311 243.888C427.6 244.049 428.842 244.472 429.961 245.131C431.085 244.466 432.341 244.052 433.642 243.919C434.933 243.797 436.231 243.747 437.529 243.769C442.423 243.769 444.87 245.498 444.87 248.954V258.343H444.885Z" fill="white"/>
<path d="M459.367 245.534C459.391 245.711 459.374 245.891 459.317 246.06C459.259 246.229 459.163 246.383 459.035 246.508C458.908 246.633 458.753 246.727 458.583 246.782C458.413 246.837 458.232 246.851 458.055 246.823H452.526V258.343C452.553 258.52 452.538 258.7 452.483 258.869C452.427 259.039 452.333 259.193 452.208 259.32C452.083 259.447 451.93 259.544 451.761 259.601C451.593 259.659 451.413 259.677 451.236 259.654C450.735 259.69 450.232 259.65 449.744 259.535C449.509 259.445 449.311 259.278 449.182 259.062C449.053 258.846 449 258.593 449.032 258.343V246.829C448.567 246.829 448.19 246.829 447.896 246.829C447.687 246.819 447.478 246.799 447.271 246.767C447.019 246.636 446.807 246.439 446.659 246.197C446.512 245.954 446.434 245.676 446.434 245.392C446.434 245.108 446.512 244.829 446.659 244.587C446.807 244.344 447.019 244.147 447.271 244.017C447.478 243.985 447.687 243.964 447.896 243.955C448.19 243.955 448.567 243.929 449.032 243.929V240.772C449.006 240.596 449.021 240.417 449.077 240.249C449.132 240.08 449.227 239.927 449.352 239.801C449.477 239.675 449.63 239.581 449.799 239.524C449.967 239.468 450.146 239.452 450.322 239.477C450.823 239.441 451.326 239.481 451.814 239.596C452.048 239.682 452.246 239.846 452.376 240.06C452.505 240.273 452.558 240.524 452.526 240.772V243.903H458.055C458.933 243.909 459.367 244.45 459.367 245.534Z" fill="white"/>
<path d="M492.519 254.655C492.519 257.987 489.766 259.654 484.259 259.654H478.896C477.048 259.677 475.215 259.326 473.506 258.622C471.397 257.731 470.342 256.44 470.342 254.748V240.819C470.342 240.184 470.569 239.787 471.039 239.632C471.532 239.517 472.041 239.477 472.546 239.513C472.723 239.489 472.903 239.506 473.071 239.563C473.24 239.62 473.393 239.716 473.519 239.843C473.644 239.97 473.738 240.124 473.793 240.293C473.848 240.463 473.863 240.643 473.837 240.819V243.914H484.259C489.766 243.914 492.519 245.553 492.519 248.83V254.66V254.655ZM489.04 254.536V248.892C489.04 247.517 487.467 246.829 484.321 246.829H473.832V254.722C473.832 255.439 474.585 255.981 476.082 256.347C476.624 256.466 477.161 256.564 477.693 256.626C478.226 256.692 478.762 256.725 479.298 256.724H484.29C485.049 256.724 485.679 256.724 486.17 256.677C486.546 256.657 486.92 256.612 487.29 256.543C488.456 256.258 489.04 255.589 489.04 254.536Z" fill="white"/>
<path d="M517.824 254.886C517.824 258.064 515.438 259.653 510.664 259.653H502.126C500.48 259.69 498.849 259.336 497.366 258.621C495.569 257.765 494.666 256.558 494.666 255.01V253.019C494.666 251.365 495.526 250.123 497.247 249.294C498.741 248.607 500.374 248.279 502.017 248.335H514.376C514.185 247.22 512.61 246.663 509.637 246.663H509.198H508.61C508.555 246.675 508.499 246.675 508.444 246.663H507.613C506.751 246.663 506.323 246.111 506.323 245.023C506.296 244.846 506.311 244.666 506.366 244.497C506.422 244.327 506.516 244.173 506.641 244.046C506.766 243.919 506.919 243.822 507.088 243.764C507.256 243.707 507.436 243.689 507.613 243.712C509.76 243.671 511.904 243.888 513.999 244.357C516.539 245.069 517.809 246.503 517.809 248.66V254.886H517.824ZM514.391 254.051C514.391 253.901 514.391 253.705 514.391 253.473C514.391 253.241 514.391 252.957 514.391 252.663C514.391 252.369 514.391 252.085 514.391 251.853C514.391 251.621 514.391 251.425 514.391 251.27H502.002C501.234 251.277 500.473 251.413 499.751 251.672C498.718 252.013 498.244 252.457 498.244 253.009V255.015C498.244 255.598 498.76 256.047 499.792 256.357C500.531 256.611 501.308 256.733 502.089 256.718H510.773C511.684 256.783 512.599 256.654 513.457 256.341C514.051 256.001 514.391 255.237 514.391 254.051Z" fill="white"/>
<path d="M551.209 244.837C551.196 245.129 551.109 245.413 550.956 245.663L544.457 258.23C544.085 258.973 543.38 259.344 542.34 259.344C541.929 259.383 541.515 259.301 541.148 259.11C540.782 258.919 540.479 258.625 540.275 258.266L535.165 248.614L529.899 258.297C529.685 258.664 529.369 258.961 528.99 259.154C528.611 259.347 528.185 259.427 527.762 259.385C526.688 259.385 525.971 259.009 525.594 258.245L519.244 245.663C519.132 245.398 519.054 245.121 519.012 244.837C519.012 244.084 519.564 243.707 520.653 243.707C521.603 243.707 522.202 243.965 522.512 244.486L527.881 254.851L533.1 245.198C533.304 244.848 533.597 244.558 533.949 244.356C534.301 244.154 534.7 244.048 535.105 244.048C535.511 244.048 535.91 244.154 536.261 244.356C536.613 244.558 536.906 244.848 537.111 245.198L542.392 254.851L547.74 244.486C548.003 243.971 548.618 243.707 549.578 243.707C550.665 243.725 551.209 244.101 551.209 244.837Z" fill="white"/>
</svg>
