<svg width="760" height="760" viewBox="0 0 760 760" fill="none" xmlns="http://www.w3.org/2000/svg">
<rect width="760" height="760" fill="#333132"/>
<path d="M302.725 404.355C302.725 418.476 291.055 425.535 267.714 425.532H245C237.177 425.623 229.418 424.118 222.197 421.111C213.267 417.328 208.793 411.859 208.775 404.705V345.744C208.775 343.031 209.761 341.354 211.723 340.694C212.327 340.369 214.459 340.209 218.104 340.209C221.748 340.209 223.581 342.056 223.581 345.744V358.853H267.709C291.049 358.853 302.72 365.795 302.72 379.68L302.725 404.355ZM287.992 403.87V379.958C287.992 374.167 281.327 371.269 267.998 371.265H223.602V404.638C223.602 407.675 226.782 409.966 233.142 411.51C235.434 412.026 237.705 412.418 239.946 412.702C242.203 412.981 244.475 413.121 246.75 413.12H267.869C271.09 413.12 273.749 413.053 275.829 412.913C277.42 412.836 279.003 412.648 280.568 412.351C285.521 411.182 287.995 408.355 287.992 403.87V403.87Z" fill="white"/>
<path d="M409.855 405.34C409.855 418.798 399.752 425.529 379.547 425.532H343.343C335.579 425.532 328.868 424.106 323.21 421.255C315.583 417.606 311.772 412.535 311.775 406.042V397.488C311.775 390.479 315.399 385.222 322.647 381.718C328.026 379.004 334.762 377.647 342.853 377.647H395.194C394.395 372.925 387.708 370.566 375.133 370.569C374.617 370.569 373.997 370.569 373.274 370.605C372.552 370.641 371.726 370.662 370.781 370.708C370.554 370.779 370.315 370.802 370.079 370.775H366.574C362.922 370.775 361.098 368.463 361.102 363.837C361.102 360.15 362.926 358.305 366.574 358.301C378.406 358.301 387.455 359.118 393.723 360.752C404.481 363.789 409.86 369.864 409.86 378.978V405.34H409.855ZM395.333 401.837C395.333 401.182 395.333 400.362 395.297 399.382C395.261 398.401 395.235 397.251 395.194 395.946C395.152 394.641 395.111 393.49 395.085 392.51C395.06 391.53 395.049 390.709 395.049 390.054H342.507C339.255 390.083 336.031 390.653 332.967 391.741C328.71 393.186 326.581 395.077 326.581 397.416V405.902C326.581 408.379 328.78 410.27 333.178 411.577C336.313 412.661 339.614 413.184 342.93 413.125H379.696C385.203 413.125 388.989 412.588 391.054 411.515C393.9 410.064 395.326 406.838 395.333 401.837V401.837Z" fill="white"/>
<path d="M551.224 362.779C551.172 364.015 550.817 365.219 550.192 366.287L522.744 419.501C521.154 422.631 518.16 424.197 513.761 424.201C509.556 424.201 506.63 422.681 504.985 419.64L483.174 378.767L461.002 419.78C459.316 422.875 456.297 424.423 451.947 424.423C447.415 424.423 444.352 422.81 442.758 419.584L415.883 366.287C415.228 364.461 414.902 363.295 414.902 362.779C414.902 359.601 417.217 358.012 421.846 358.012C425.872 358.012 428.491 359.111 429.703 361.309L452.417 405.201L474.615 364.327C476.336 361.049 479.189 359.412 483.174 359.415C487.005 359.415 489.81 361.029 491.589 364.255L513.761 405.206L536.419 361.314C537.544 359.116 540.141 358.017 544.209 358.017C548.886 358.014 551.224 359.601 551.224 362.779Z" fill="#FF6200"/>
<path d="M444.885 353.343C444.913 353.52 444.898 353.7 444.844 353.87C444.789 354.04 444.695 354.195 444.569 354.323C444.444 354.45 444.291 354.546 444.121 354.604C443.952 354.661 443.772 354.678 443.594 354.654C443.089 354.69 442.581 354.65 442.087 354.535C441.85 354.448 441.65 354.282 441.52 354.065C441.39 353.848 441.339 353.593 441.375 353.343V343.541C441.375 342.283 439.888 341.653 436.914 341.653H436.238C436.171 341.642 436.103 341.642 436.037 341.653C435.086 341.652 434.138 341.753 433.208 341.952C432.751 342.049 432.343 342.306 432.059 342.677C431.775 343.048 431.633 343.508 431.659 343.975V353.312C431.694 353.562 431.642 353.817 431.513 354.033C431.383 354.25 431.183 354.416 430.947 354.504C430.453 354.619 429.945 354.659 429.439 354.623C429.261 354.649 429.079 354.633 428.908 354.576C428.737 354.519 428.582 354.424 428.455 354.296C428.327 354.169 428.231 354.014 428.175 353.843C428.118 353.672 428.102 353.49 428.128 353.312V343.98C428.168 343.595 428.091 343.207 427.907 342.866C427.723 342.526 427.44 342.248 427.096 342.071C426.374 341.795 425.601 341.677 424.829 341.725H423.967C423.874 341.725 423.828 341.725 423.818 341.725H423.239H422.821C419.817 341.725 418.314 342.365 418.314 343.644V353.395C418.351 353.644 418.301 353.897 418.173 354.114C418.046 354.331 417.848 354.497 417.612 354.587C417.119 354.702 416.611 354.742 416.105 354.705C415.928 354.73 415.748 354.713 415.578 354.655C415.409 354.598 415.255 354.502 415.13 354.374C415.005 354.247 414.911 354.092 414.856 353.922C414.801 353.752 414.787 353.571 414.814 353.395V343.959C414.814 340.52 417.354 338.8 422.434 338.8C423.467 338.8 424.261 338.8 424.896 338.8C425.369 338.801 425.842 338.83 426.311 338.888C427.6 339.049 428.842 339.472 429.961 340.131C431.085 339.466 432.341 339.052 433.642 338.919C434.933 338.797 436.231 338.747 437.529 338.769C442.423 338.769 444.87 340.498 444.87 343.954V353.343H444.885Z" fill="white"/>
<path d="M459.367 340.534C459.391 340.711 459.374 340.891 459.317 341.06C459.259 341.229 459.163 341.383 459.035 341.508C458.908 341.633 458.753 341.727 458.583 341.782C458.413 341.837 458.232 341.851 458.055 341.823H452.526V353.343C452.553 353.52 452.538 353.7 452.483 353.869C452.427 354.039 452.333 354.193 452.208 354.32C452.083 354.447 451.93 354.544 451.761 354.601C451.593 354.659 451.413 354.677 451.236 354.654C450.735 354.69 450.232 354.65 449.744 354.535C449.509 354.445 449.311 354.278 449.182 354.062C449.053 353.846 449 353.593 449.032 353.343V341.829C448.567 341.829 448.19 341.829 447.896 341.829C447.687 341.819 447.478 341.799 447.271 341.767C447.019 341.636 446.807 341.439 446.659 341.197C446.512 340.954 446.434 340.676 446.434 340.392C446.434 340.108 446.512 339.829 446.659 339.587C446.807 339.345 447.019 339.147 447.271 339.017C447.478 338.985 447.687 338.964 447.896 338.955C448.19 338.955 448.567 338.929 449.032 338.929V335.772C449.006 335.596 449.021 335.417 449.077 335.249C449.132 335.08 449.227 334.927 449.352 334.801C449.477 334.675 449.63 334.581 449.799 334.524C449.967 334.468 450.146 334.452 450.322 334.477C450.823 334.441 451.326 334.481 451.814 334.596C452.048 334.682 452.246 334.846 452.376 335.06C452.505 335.273 452.558 335.524 452.526 335.772V338.903H458.055C458.933 338.909 459.367 339.45 459.367 340.534Z" fill="white"/>
<path d="M492.519 349.655C492.519 352.987 489.766 354.654 484.259 354.654H478.896C477.048 354.677 475.215 354.326 473.506 353.622C471.397 352.731 470.342 351.44 470.342 349.748V335.819C470.342 335.184 470.569 334.787 471.039 334.632C471.532 334.517 472.041 334.477 472.546 334.513C472.723 334.489 472.903 334.506 473.071 334.563C473.24 334.62 473.393 334.716 473.519 334.843C473.644 334.97 473.738 335.124 473.793 335.293C473.848 335.463 473.863 335.643 473.837 335.819V338.914H484.259C489.766 338.914 492.519 340.553 492.519 343.83V349.66V349.655ZM489.04 349.536V343.892C489.04 342.517 487.467 341.829 484.321 341.829H473.832V349.722C473.832 350.439 474.585 350.981 476.082 351.347C476.624 351.466 477.161 351.564 477.693 351.626C478.226 351.692 478.762 351.725 479.298 351.724H484.29C485.049 351.724 485.679 351.724 486.17 351.677C486.546 351.657 486.92 351.612 487.29 351.543C488.456 351.258 489.04 350.589 489.04 349.536Z" fill="white"/>
<path d="M517.824 349.886C517.824 353.064 515.438 354.653 510.664 354.653H502.126C500.48 354.69 498.849 354.336 497.366 353.621C495.569 352.765 494.666 351.558 494.666 350.01V348.019C494.666 346.365 495.526 345.123 497.247 344.294C498.741 343.607 500.374 343.279 502.017 343.335H514.376C514.185 342.22 512.61 341.663 509.637 341.663H509.198H508.61C508.555 341.675 508.499 341.675 508.444 341.663H507.613C506.751 341.663 506.323 341.111 506.323 340.023C506.296 339.846 506.311 339.666 506.366 339.497C506.422 339.327 506.516 339.173 506.641 339.046C506.766 338.918 506.919 338.822 507.088 338.764C507.256 338.707 507.436 338.689 507.613 338.712C509.76 338.671 511.904 338.888 513.999 339.357C516.539 340.069 517.809 341.503 517.809 343.66V349.886H517.824ZM514.391 349.051C514.391 348.901 514.391 348.705 514.391 348.473C514.391 348.241 514.391 347.957 514.391 347.663C514.391 347.369 514.391 347.085 514.391 346.853C514.391 346.621 514.391 346.425 514.391 346.27H502.002C501.234 346.277 500.473 346.413 499.751 346.672C498.718 347.013 498.244 347.457 498.244 348.009V350.015C498.244 350.598 498.76 351.047 499.792 351.357C500.531 351.611 501.308 351.733 502.089 351.718H510.773C511.684 351.783 512.599 351.654 513.457 351.341C514.051 351.001 514.391 350.237 514.391 349.051Z" fill="white"/>
<path d="M551.209 339.837C551.196 340.129 551.109 340.413 550.956 340.663L544.457 353.23C544.085 353.973 543.38 354.344 542.34 354.344C541.929 354.383 541.515 354.301 541.148 354.11C540.782 353.919 540.479 353.626 540.275 353.266L535.165 343.614L529.899 353.297C529.685 353.664 529.369 353.961 528.99 354.154C528.611 354.347 528.185 354.428 527.762 354.385C526.688 354.385 525.971 354.009 525.594 353.245L519.244 340.663C519.132 340.398 519.054 340.121 519.012 339.837C519.012 339.084 519.564 338.707 520.653 338.707C521.603 338.707 522.202 338.965 522.512 339.486L527.881 349.851L533.1 340.198C533.304 339.848 533.597 339.558 533.949 339.356C534.301 339.155 534.7 339.048 535.105 339.048C535.511 339.048 535.91 339.155 536.261 339.356C536.613 339.558 536.906 339.848 537.111 340.198L542.392 349.851L547.74 339.486C548.003 338.971 548.618 338.707 549.578 338.707C550.665 338.725 551.209 339.101 551.209 339.837Z" fill="white"/>
</svg>
