<svg width="832" height="272" viewBox="0 0 832 272" fill="none" xmlns="http://www.w3.org/2000/svg">
<path d="M132.939 89.0547L105.96 89.0587C89.1585 90.8067 76.0605 104.933 76.0595 122.102V132.56H0V38.8737H36.6425C43.8845 38.8737 48.9985 49.4507 48.9985 56.6507C48.9985 70.2697 60.1025 81.3097 73.7995 81.3097C87.4965 81.3097 98.6005 70.2697 98.6005 56.6507C98.6005 43.0327 87.4965 31.9921 73.7995 31.9921H0V0.380005H132.939V89.0547Z" fill="#F37992"/>
<path d="M272.965 0.380859H139.939V28.5918H272.965V0.380859Z" fill="#CFB28A"/>
<path d="M272.965 35.5197H139.939V132.559H272.965V35.5197Z" fill="#CFB28A"/>
<path d="M343.016 38.5517C343.016 40.4517 344.566 41.9917 346.477 41.9917C348.388 41.9917 349.938 40.4517 349.938 38.5517V0.380493H412.991V63.0097H374.821C372.92 63.0097 371.381 64.5587 371.38 66.4707C371.381 68.3817 372.92 69.9307 374.821 69.9317H412.991V132.56H349.939V94.3907C349.939 92.4897 348.389 90.9497 346.478 90.9497C344.567 90.9497 343.017 92.4897 343.017 94.3907V132.56H279.965V69.9317H318.136C320.036 69.9307 321.576 68.3817 321.577 66.4707C321.576 64.5597 320.036 63.0097 318.136 63.0097H279.965V0.380493H343.016V38.5517Z" fill="#FF8D11"/>
<path d="M553.018 49.1667H490.247C488.346 49.1667 486.805 50.7167 486.805 52.6287C486.806 54.5397 488.346 56.0887 490.247 56.0887H553.018V76.8517H490.247C488.346 76.8527 486.805 78.4027 486.805 80.3137C486.806 82.2247 488.346 83.7737 490.247 83.7737H553.018V132.56H419.992V0.380493H553.018V49.1667Z" fill="#00A180"/>
<path d="M640.275 48.0797L640.271 0.000801086L560.018 0V132.94H591.63H692.198V77.7777H681.74C656.115 77.7777 642.023 64.8827 640.275 48.0797Z" fill="#4BA5D7"/>
<path d="M132.941 271.628L83.9796 271.629V233.458C83.9786 231.558 82.4296 230.018 80.5186 230.017C78.6076 230.017 77.0576 231.558 77.0576 233.458V271.629L0.000976562 271.628V205.539H80.5186C94.2176 205.539 105.324 194.496 105.324 180.875C105.324 167.254 94.2176 156.212 80.5186 156.212C66.8196 156.212 55.7136 167.254 55.7126 180.875C55.7126 188.077 50.5976 198.656 43.3546 198.656H0.000976562V139.449H132.941V271.628Z" fill="#00A180"/>
<path d="M272.88 271.629H139.94V139.449H272.88V202.942H199.08C185.383 202.942 174.279 213.983 174.279 227.601C174.28 241.22 185.383 252.26 199.08 252.26C212.777 252.26 223.881 241.22 223.881 227.601C223.881 220.401 228.995 209.824 236.237 209.824H272.88V271.629Z" fill="#FD3F44"/>
<path d="M412.905 188.235H350.134C348.233 188.235 346.692 189.785 346.692 191.697C346.693 193.608 348.234 195.156 350.134 195.157H412.905V215.92H350.134C348.233 215.921 346.692 217.471 346.692 219.382C346.693 221.293 348.234 222.842 350.134 222.842H412.905V271.627H279.88V139.449H412.905V188.235Z" fill="#4BA5D7"/>
<path d="M553.015 271.627H466.707V209.318C466.707 207.431 465.158 205.903 463.247 205.903C461.337 205.903 459.788 207.432 459.788 209.318V271.627H419.906V139.449H553.015V271.627ZM506.28 202.104C506.28 204.001 507.83 205.538 509.74 205.538C511.651 205.538 513.2 204.001 513.2 202.104V139.45H506.28V202.104Z" fill="#F37992"/>
<path d="M560.015 271.627V139.449H692.193V202.102H629.884C627.997 202.102 626.469 203.64 626.469 205.537C626.469 207.435 627.997 208.973 629.884 208.973H692.193V271.627H560.015Z" fill="#FEC601"/>
<path d="M790.195 183.685C790.196 185.571 791.734 187.1 793.631 187.1C795.528 187.1 797.066 185.571 797.066 183.685V139.449H831.371V271.627H699.192V208.857H735.564C742.753 208.857 747.83 219.356 747.83 226.503C747.83 240.022 758.852 250.98 772.448 250.98C786.044 250.98 797.066 240.022 797.066 226.503C797.066 212.985 786.044 202.026 772.448 202.026H699.192V139.449H790.195V183.685Z" fill="#CFB28A"/>
</svg>
