<svg width="760" height="760" viewBox="0 0 760 760" fill="none" xmlns="http://www.w3.org/2000/svg">
<rect width="760" height="760" fill="#041384"/>
<g clip-path="url(#clip0_542_18497)">
<path d="M209.524 355.13C206.994 351.53 201.994 349.77 194.214 349.77H163.214C152.324 349.77 142.594 356.58 138.874 366.82L138.834 366.94H184.474C186.524 366.94 187.914 367.31 188.374 367.98C188.884 368.7 188.524 370.11 188.144 371.16L187.334 373.39C186.474 375.76 184.624 378.58 180.704 378.58H134.594L123.074 410.23H134.204C139.944 410.23 145.064 406.64 147.034 401.25L149.034 395.75H183.134C199.124 395.75 205.764 380.9 207.424 376.35L209.224 371.42C211.954 363.92 212.054 358.74 209.524 355.14" fill="#ED1C24"/>
<path d="M216.075 378.58L204.555 410.23H215.685C221.425 410.23 226.545 406.64 228.515 401.25L230.515 395.75H256.735C270.655 395.75 277.495 384.49 280.115 378.58H216.075Z" fill="#ED1C24"/>
<path d="M244.704 349.77C233.804 349.77 224.084 356.58 220.354 366.82V366.84H259.844H273.694C284.584 366.84 294.314 360.03 298.044 349.79L244.704 349.77Z" fill="#ED1C24"/>
<path d="M320.944 349.77C310.054 349.77 300.324 356.58 296.604 366.82V366.84H336.094H349.944C360.834 366.84 370.564 360.03 374.294 349.79L320.944 349.77Z" fill="#ED1C24"/>
<path d="M325.154 378.58L324.094 378.6C326.284 384.76 330.534 389.69 335.874 392.73C334.594 393 333.184 393.11 331.614 393.11H318.384C314.394 393.11 312.294 392.64 311.574 391.58C310.744 390.36 311.144 387.64 312.874 382.75L314.354 378.58H293.664L290.714 386.89C287.944 394.69 287.854 400.34 290.454 404.14C293.324 408.35 299.304 410.22 309.844 410.22H324.984C344.894 410.22 354.744 409.42 361.124 391.47L365.704 378.57H325.154V378.58Z" fill="#ED1C24"/>
<path d="M381.574 384.2H390.784L398.334 406.77H390.824L389.434 402.74H374.884L371.874 406.77H364.094L381.594 384.2H381.574ZM388.034 398.04L385.054 389.04L378.324 398.04H388.034Z" fill="white"/>
<path d="M413.003 384.2L410.943 394.02C410.873 394.39 410.773 394.83 410.643 395.37C410.173 397.54 410.033 398.31 410.033 399.09C410.033 401.05 411.283 401.56 416.053 401.56C421.603 401.56 422.993 401.39 423.943 400.51C424.653 399.87 425.063 398.99 425.503 396.99C425.57 396.717 425.683 396.22 425.843 395.5C425.943 394.92 425.983 394.72 426.013 394.55L428.213 384.19H435.113L432.573 396.04C431.393 402.1 430.403 403.89 427.323 405.62C424.613 406.87 424.173 406.94 415.683 406.97C408.073 406.9 407.423 406.87 405.733 406.16C403.803 405.38 402.793 403.89 402.793 401.86C402.793 400.3 402.933 399.36 403.573 396.34L406.143 384.19H413.013L413.003 384.2Z" fill="white"/>
<path d="M443.934 399.57C443.834 400.18 443.804 400.42 443.804 400.75C443.804 401.36 444.174 401.77 444.784 401.9C445.424 402.03 447.284 402.14 449.014 402.14C451.854 402.14 454.734 402.07 455.584 401.97C457.644 401.73 458.464 401.02 458.464 399.5C458.464 398.86 458.164 398.38 457.654 398.21C457.2 398.05 455.78 397.96 453.394 397.94H447.164C444.084 397.94 442.184 397.77 441.104 397.43C439.414 396.89 438.564 395.74 438.564 393.94C438.564 391.33 439.614 388.05 440.894 386.63C442.754 384.57 445.604 384.02 454.434 384.02C461.164 384.02 462.824 384.16 464.484 384.8C465.874 385.34 466.584 386.46 466.584 388.15C466.584 388.96 466.484 389.77 466.144 391.09H459.474C459.544 390.72 459.574 390.48 459.574 390.31C459.574 389.09 458.764 388.85 454.804 388.85C451.994 388.85 448.984 388.95 447.904 389.05C446.514 389.18 445.674 390.06 445.674 391.35C445.674 391.82 445.874 392.2 446.184 392.4C446.764 392.77 446.794 392.77 449.534 392.84H455.934C456.344 392.84 457.494 392.87 459.284 392.94C461.784 393.04 462.604 393.14 463.584 393.62C464.934 394.2 465.584 395.31 465.584 397.04C465.584 399.61 464.634 402.69 463.354 404.21C461.524 406.38 458.684 406.92 449.274 406.92C443.314 406.92 441.494 406.82 439.734 406.45C437.634 405.98 436.684 404.89 436.684 403.03C436.684 402.01 436.784 401.3 437.224 399.54H443.954L443.934 399.57Z" fill="white"/>
<path d="M480.683 389.79H470.633L471.813 384.21H498.783L497.603 389.79H487.553L483.933 406.78H477.063L480.683 389.79Z" fill="white"/>
<path d="M502.644 384.2H522.104C528.094 384.2 529.784 385.18 529.784 388.63C529.784 391.3 529.044 394.38 528.054 395.91C527.174 397.23 526.264 397.77 524.224 398.21C525.244 398.35 525.544 398.38 526.014 398.55C526.724 398.82 527.164 399.43 527.164 400.24C527.164 400.75 527.134 401.05 526.724 403.22L525.944 406.77H519.004L519.584 403.96C519.684 403.52 519.754 403.08 519.754 402.74C519.754 401.99 519.454 401.52 518.804 401.28C518.434 401.14 517.754 401.08 516.434 401.08H505.874L504.654 406.77H497.814L502.624 384.2H502.644ZM517.804 395.57C519.804 395.57 520.584 395.43 521.254 394.99C521.794 394.62 522.034 394.14 522.304 393.03C522.444 392.35 522.544 391.68 522.544 391.3C522.544 390.59 522.204 390.12 521.524 389.91C520.984 389.74 520.774 389.74 519.294 389.74H508.294L507.044 395.56H517.804V395.57Z" fill="white"/>
<path d="M546.705 384.2H555.915L563.465 406.77H555.955L554.565 402.74H540.015L537.005 406.77H529.225L546.725 384.2H546.705ZM553.165 398.04L550.185 389.04L543.445 398.04H553.155H553.165Z" fill="white"/>
<path d="M571.404 384.2H578.274L574.654 401.19H590.184L589.004 406.77H566.604L571.414 384.2H571.404Z" fill="white"/>
<path d="M597.433 384.2H604.303L599.493 406.77H592.623L597.433 384.2Z" fill="white"/>
<path d="M620.173 384.2H629.383L636.933 406.77H629.423L628.033 402.74H613.483L610.473 406.77H602.693L620.193 384.2H620.173ZM626.633 398.04L623.653 389.04L616.913 398.04H626.623H626.633Z" fill="white"/>
</g>
<defs>
<clipPath id="clip0_542_18497">
<rect width="513.85" height="60.46" fill="white" transform="translate(123.074 349.77)"/>
</clipPath>
</defs>
</svg>
