<svg width="760" height="570" viewBox="0 0 760 570" fill="none" xmlns="http://www.w3.org/2000/svg">
<rect width="760" height="570" fill="white"/>
<g clip-path="url(#clip0_525_45565)">
<path d="M211 229H549V341H211V229Z" fill="#8C0014"/>
<path fill-rule="evenodd" clip-rule="evenodd" d="M352.26 261L355.72 267.456L344.792 273.04L341.326 266.522L352.26 261ZM426.348 300.054H421.048V307.368H456.834V300.054H451.466V262.864H421.048V270.184H426.348V300.054ZM418.742 293.138C418.742 293.138 418.884 292.242 418.884 290.666C418.884 281.236 409.256 272.106 393.178 272.106C374.564 272.106 367.47 282.192 367.47 290.664C367.47 298.608 373.61 309 393.206 309C408.236 309 416.414 302.5 418.4 296.464H405.09C404.604 298.312 402.218 302.71 396.274 302.71C392.124 302.71 389.48 299.41 389.48 296.548V293.138H418.742ZM510.334 290.666C510.334 292.242 510.19 293.138 510.19 293.138H480.928V296.544C480.928 299.41 483.57 302.708 487.72 302.708C493.662 302.708 496.054 298.312 496.542 296.464L506.858 296.462H509.846C507.864 302.498 499.688 308.996 484.658 308.996C465.062 308.996 458.92 298.608 458.92 290.664C458.92 282.192 466.012 272.106 484.626 272.106C500.71 272.106 510.334 281.236 510.334 290.666ZM484.946 278.738C482.334 278.738 480.928 281.062 480.928 282.67V287.76H489.012V282.686C489.012 281.16 487.766 278.738 484.946 278.738ZM393.498 278.738C390.882 278.738 389.478 281.062 389.478 282.67V287.76H397.562V282.69C397.562 281.16 396.316 278.738 393.498 278.738ZM360.068 273.908H330.668V281.228H336.028V300.054H330.668V307.368H365.43V300.054H360.068V273.908ZM325.848 262.866H299.094L286.256 280.23L273.356 262.866H243V270.186H248.3V300.054H243V307.368H262.222V300.054H256.856V280.696L276.686 307.368L296.442 280.696V300.056H291.076V307.368H325.848V300.054H320.484V270.186H325.848V262.866Z" fill="white"/>
</g>
<defs>
<clipPath id="clip0_525_45565">
<rect width="338" height="112" fill="white" transform="translate(211 229)"/>
</clipPath>
</defs>
</svg>
