<svg width="760" height="760" viewBox="0 0 760 760" fill="none" xmlns="http://www.w3.org/2000/svg">
<rect width="760" height="760" fill="white"/>
<g clip-path="url(#clip0_522_45427)">
<path d="M211 324H549V436H211V324Z" fill="#8C0014"/>
<path fill-rule="evenodd" clip-rule="evenodd" d="M352.26 356L355.72 362.456L344.792 368.04L341.326 361.522L352.26 356ZM426.348 395.054H421.048V402.368H456.834V395.054H451.466V357.864H421.048V365.184H426.348V395.054ZM418.742 388.138C418.742 388.138 418.884 387.242 418.884 385.666C418.884 376.236 409.256 367.106 393.178 367.106C374.564 367.106 367.47 377.192 367.47 385.664C367.47 393.608 373.61 404 393.206 404C408.236 404 416.414 397.5 418.4 391.464H405.09C404.604 393.312 402.218 397.71 396.274 397.71C392.124 397.71 389.48 394.41 389.48 391.548V388.138H418.742ZM510.334 385.666C510.334 387.242 510.19 388.138 510.19 388.138H480.928V391.544C480.928 394.41 483.57 397.708 487.72 397.708C493.662 397.708 496.054 393.312 496.542 391.464L506.858 391.462H509.846C507.864 397.498 499.688 403.996 484.658 403.996C465.062 403.996 458.92 393.608 458.92 385.664C458.92 377.192 466.012 367.106 484.626 367.106C500.71 367.106 510.334 376.236 510.334 385.666ZM484.946 373.738C482.334 373.738 480.928 376.062 480.928 377.67V382.76H489.012V377.686C489.012 376.16 487.766 373.738 484.946 373.738ZM393.498 373.738C390.882 373.738 389.478 376.062 389.478 377.67V382.76H397.562V377.69C397.562 376.16 396.316 373.738 393.498 373.738ZM360.068 368.908H330.668V376.228H336.028V395.054H330.668V402.368H365.43V395.054H360.068V368.908ZM325.848 357.866H299.094L286.256 375.23L273.356 357.866H243V365.186H248.3V395.054H243V402.368H262.222V395.054H256.856V375.696L276.686 402.368L296.442 375.696V395.056H291.076V402.368H325.848V395.054H320.484V365.186H325.848V357.866Z" fill="white"/>
</g>
<defs>
<clipPath id="clip0_522_45427">
<rect width="338" height="112" fill="white" transform="translate(211 324)"/>
</clipPath>
</defs>
</svg>
