<svg width="760" height="570" viewBox="0 0 760 570" fill="none" xmlns="http://www.w3.org/2000/svg">
<rect width="760" height="570" fill="white"/>
<path d="M257.002 336.467C242.76 336.467 230.829 326.365 228.01 312.946L211.282 316.334V317.655C211.282 327.932 202.922 336.301 192.637 336.301C182.351 336.301 174 327.941 174 317.664V313.497L201.093 308.009V267.952L286.634 220.219V306.845C286.634 323.179 273.346 336.467 257.011 336.467H257.002ZM237.569 300.612V306.845C237.569 317.559 246.288 326.278 257.002 326.278C267.717 326.278 276.436 317.559 276.436 306.845V237.586L211.291 273.94V305.943L237.578 300.612H237.569ZM185.187 321.63C186.614 324.291 189.424 326.112 192.646 326.112C197.049 326.112 200.681 322.724 201.067 318.408L185.187 321.63V321.63Z" fill="#F27B6D"/>
<path d="M369.312 254.612C369.312 245.088 375.194 237.813 384.456 237.813C389.087 237.813 392.719 239.993 394.444 243.232V238.671H404.493V270.543H394.444V266.044C392.728 269.221 388.754 271.401 384.325 271.401C374.801 271.401 369.312 264.197 369.312 254.603V254.612ZM394.838 254.612C394.838 250.051 392.255 246.278 387.231 246.278C382.539 246.278 379.624 249.78 379.624 254.612C379.624 259.444 382.53 263.006 387.231 263.006C392.255 263.006 394.838 259.234 394.838 254.612V254.612Z" fill="#F27B6D"/>
<path d="M409.413 270.543V238.671H419.532V243.302C420.924 240.124 424.224 237.813 428.653 237.813C434.343 237.813 437.249 240.326 438.641 243.696C440.357 240.256 444.13 237.813 448.822 237.813C457.943 237.813 460.131 244.098 460.131 250.778V270.552H449.951V252.633C449.951 248.204 448.296 246.348 445.189 246.348C442.081 246.348 439.832 248.134 439.832 254.148V270.543H429.651V252.555C429.651 248.125 428.067 246.339 424.959 246.339C421.852 246.339 419.541 248.125 419.541 254.139V270.535H409.421L409.413 270.543Z" fill="#F27B6D"/>
<path d="M462.836 254.612C462.836 245.088 468.718 237.813 477.98 237.813C482.61 237.813 486.243 239.993 487.968 243.232V238.671H498.017V270.543H487.968V266.044C486.252 269.221 482.278 271.401 477.848 271.401C468.324 271.401 462.836 264.197 462.836 254.603V254.612ZM488.362 254.612C488.362 250.051 485.779 246.278 480.755 246.278C476.063 246.278 473.148 249.78 473.148 254.612C473.148 259.444 476.054 263.006 480.755 263.006C485.779 263.006 488.362 259.234 488.362 254.612V254.612Z" fill="#F27B6D"/>
<path d="M503.331 270.543V226.259L513.45 220.219V270.543H503.331Z" fill="#F27B6D"/>
<path d="M516.601 254.612C516.601 245.088 522.484 237.813 531.745 237.813C536.376 237.813 540.008 239.993 541.733 243.232V238.671H551.782V270.543H541.733V266.044C540.017 269.221 536.043 271.401 531.614 271.401C522.09 271.401 516.601 264.197 516.601 254.603V254.612ZM542.127 254.612C542.127 250.051 539.544 246.278 534.52 246.278C529.828 246.278 526.913 249.78 526.913 254.612C526.913 259.444 529.819 263.006 534.52 263.006C539.544 263.006 542.127 259.234 542.127 254.612V254.612Z" fill="#F27B6D"/>
<path d="M372.017 335.574V303.702H382.136V310.381C383.256 305.619 387.029 303.177 390.933 303.177C392.124 303.177 392.789 303.247 393.577 303.44V312.832C392.386 312.701 391.791 312.631 390.539 312.631C385.051 312.631 382.145 316.202 382.145 323.275V335.574H372.025H372.017Z" fill="#F27B6D"/>
<path d="M395.179 319.634C395.179 309.917 401.92 302.836 412.897 302.836C423.874 302.836 430.553 309.909 430.553 319.634C430.553 329.359 423.812 336.432 412.897 336.432C401.981 336.432 395.179 329.359 395.179 319.634V319.634ZM420.504 319.634C420.504 314.811 417.659 311.37 412.897 311.37C408.135 311.37 405.29 314.811 405.29 319.634C405.29 324.457 408.065 327.897 412.897 327.897C417.729 327.897 420.504 324.457 420.504 319.634Z" fill="#F27B6D"/>
<path d="M468.526 319.634C468.526 329.622 462.372 336.432 453.583 336.432C448.891 336.432 445.057 334.051 443.403 331.075V342.91H433.354V303.702H443.403V308.263C445.118 305.225 449.093 302.844 453.855 302.844C462.582 302.844 468.534 309.585 468.534 319.643L468.526 319.634ZM458.214 319.634C458.214 314.741 455.106 311.3 450.677 311.3C446.248 311.3 443.009 314.671 443.009 319.634C443.009 324.597 446.186 328.029 450.677 328.029C455.168 328.029 458.214 324.588 458.214 319.634Z" fill="#F27B6D"/>
<path d="M504.425 322.409H480.886C481.087 326.575 483.862 328.825 488.362 328.825C491.469 328.825 493.456 327.967 494.314 325.98H504.232C503.243 332.265 496.827 336.432 488.362 336.432C477.516 336.432 470.837 330.278 470.837 319.634C470.837 308.989 477.647 302.836 488.029 302.836C498.411 302.836 504.696 308.989 504.696 317.979C504.696 319.634 504.626 320.623 504.433 322.409H504.425ZM494.708 316.124C494.638 311.896 492.266 309.646 487.968 309.646C483.67 309.646 480.956 312.228 480.895 316.124H494.717H494.708Z" fill="#F27B6D"/>
<path d="M507.996 335.574V303.702H518.115V310.381C519.236 305.619 522.851 303.728 526.755 303.728C527.946 303.728 529.924 303.702 529.924 303.702L530.003 312.675C530.003 312.675 527.771 312.622 526.519 312.622C521.03 312.622 518.124 316.194 518.124 323.267V335.565H508.005L507.996 335.574Z" fill="#F27B6D"/>
<path d="M550.793 327.503V335.574C549.34 335.837 546.959 336.099 544.052 336.099C539.29 336.099 532.743 335.04 532.743 324.396V311.703V303.702V295.964L542.862 290.204V303.702H550.066L549.952 312.85H542.748L542.862 322.286C542.862 326.978 544.779 327.705 547.291 327.705C548.412 327.705 549.874 327.635 550.793 327.503V327.503Z" fill="#F27B6D"/>
<path d="M556.237 342.682L564.168 338.086C564.37 340.8 565.884 342.385 569.727 342.385C573.57 342.385 575.881 340.205 575.881 335.242V330.278C574.095 333.648 570.593 335.565 565.761 335.565C557.629 335.565 553.988 330.147 553.988 322.207V303.693H564.107V320.684C564.107 324.781 565.499 327.565 569.727 327.565C573.955 327.565 575.881 324.387 575.881 319.494V303.693H586V334.576C586 339.732 584.144 343.636 581.439 346.079C578.594 348.521 575.093 349.781 569.736 349.781C564.378 349.781 560.614 348.661 557.962 346.472C556.903 345.562 555.992 344.442 555.31 343.172L556.237 342.673V342.682Z" fill="#F27B6D"/>
<path d="M355.245 220.219H347.892V228.963H355.245V254.874C355.245 259.435 353.196 262.542 348.96 262.542C344.723 262.542 342.806 259.365 342.806 254.612H332.091C332.091 264.53 337.781 271.734 348.951 271.734C359.534 271.734 365.88 265.58 365.88 254.209V220.219H355.236H355.245Z" fill="#F27B6D"/>
<path d="M352.137 285.241H343.086L328.695 285.118V293.854L332.433 293.968V335.566H343.147V318.697H352.137C361.722 318.697 368.734 311.686 368.734 301.969C368.734 292.252 361.792 285.241 352.137 285.241V285.241ZM350.483 309.97H343.147V293.968H350.483C354.781 293.968 357.888 297.338 357.888 301.969C357.888 306.6 354.781 309.97 350.483 309.97Z" fill="#F27B6D"/>
</svg>
