<svg width="760" height="760" viewBox="0 0 760 760" fill="none" xmlns="http://www.w3.org/2000/svg">
<rect width="760" height="760" fill="white"/>
<path d="M257.003 431.467C242.76 431.467 230.829 421.365 228.011 407.946L211.282 411.334V412.656C211.282 422.932 202.923 431.301 192.637 431.301C182.351 431.301 174 422.941 174 412.664V408.498L201.093 403.009V362.952L286.634 315.219V401.845C286.634 418.179 273.346 431.467 257.011 431.467H257.003ZM237.57 395.612V401.845C237.57 412.559 246.288 421.278 257.003 421.278C267.717 421.278 276.436 412.559 276.436 401.845V332.586L211.291 368.94V400.943L237.578 395.612H237.57ZM185.188 416.63C186.615 419.291 189.424 421.112 192.646 421.112C197.049 421.112 200.682 417.724 201.067 413.408L185.188 416.63V416.63Z" fill="#F27B6D"/>
<path d="M369.312 349.612C369.312 340.088 375.194 332.813 384.456 332.813C389.087 332.813 392.719 334.993 394.444 338.232V333.671H404.493V365.543H394.444V361.044C392.728 364.222 388.754 366.401 384.325 366.401C374.801 366.401 369.312 359.197 369.312 349.603V349.612ZM394.838 349.612C394.838 345.051 392.255 341.278 387.231 341.278C382.539 341.278 379.624 344.78 379.624 349.612C379.624 354.444 382.53 358.006 387.231 358.006C392.255 358.006 394.838 354.234 394.838 349.612V349.612Z" fill="#F27B6D"/>
<path d="M409.413 365.543V333.671H419.532V338.302C420.924 335.124 424.224 332.813 428.653 332.813C434.343 332.813 437.249 335.326 438.641 338.696C440.357 335.256 444.13 332.813 448.822 332.813C457.943 332.813 460.131 339.099 460.131 345.778V365.552H449.951V347.633C449.951 343.204 448.296 341.348 445.189 341.348C442.081 341.348 439.832 343.134 439.832 349.148V365.543H429.651V347.555C429.651 343.125 428.067 341.339 424.959 341.339C421.852 341.339 419.541 343.125 419.541 349.139V365.535H409.421L409.413 365.543Z" fill="#F27B6D"/>
<path d="M462.836 349.612C462.836 340.088 468.718 332.813 477.98 332.813C482.61 332.813 486.243 334.993 487.968 338.232V333.671H498.017V365.543H487.968V361.044C486.252 364.222 482.278 366.401 477.848 366.401C468.324 366.401 462.836 359.197 462.836 349.603V349.612ZM488.362 349.612C488.362 345.051 485.779 341.278 480.755 341.278C476.063 341.278 473.148 344.78 473.148 349.612C473.148 354.444 476.054 358.006 480.755 358.006C485.779 358.006 488.362 354.234 488.362 349.612V349.612Z" fill="#F27B6D"/>
<path d="M503.331 365.543V321.259L513.45 315.219V365.543H503.331Z" fill="#F27B6D"/>
<path d="M516.601 349.612C516.601 340.088 522.484 332.813 531.745 332.813C536.376 332.813 540.008 334.993 541.733 338.232V333.671H551.782V365.543H541.733V361.044C540.017 364.222 536.043 366.401 531.614 366.401C522.09 366.401 516.601 359.197 516.601 349.603V349.612ZM542.127 349.612C542.127 345.051 539.544 341.278 534.52 341.278C529.828 341.278 526.913 344.78 526.913 349.612C526.913 354.444 529.819 358.006 534.52 358.006C539.544 358.006 542.127 354.234 542.127 349.612V349.612Z" fill="#F27B6D"/>
<path d="M372.017 430.574V398.702H382.136V405.381C383.256 400.619 387.029 398.177 390.933 398.177C392.124 398.177 392.789 398.247 393.577 398.44V407.832C392.386 407.701 391.791 407.631 390.539 407.631C385.051 407.631 382.145 411.202 382.145 418.275V430.574H372.025H372.017Z" fill="#F27B6D"/>
<path d="M395.179 414.634C395.179 404.917 401.92 397.836 412.897 397.836C423.874 397.836 430.553 404.909 430.553 414.634C430.553 424.359 423.812 431.432 412.897 431.432C401.981 431.432 395.179 424.359 395.179 414.634V414.634ZM420.504 414.634C420.504 409.811 417.659 406.37 412.897 406.37C408.135 406.37 405.29 409.811 405.29 414.634C405.29 419.457 408.065 422.897 412.897 422.897C417.729 422.897 420.504 419.457 420.504 414.634Z" fill="#F27B6D"/>
<path d="M468.526 414.634C468.526 424.622 462.372 431.432 453.583 431.432C448.891 431.432 445.057 429.051 443.403 426.075V437.91H433.354V398.702H443.403V403.263C445.118 400.225 449.093 397.844 453.855 397.844C462.582 397.844 468.534 404.585 468.534 414.643L468.526 414.634ZM458.214 414.634C458.214 409.741 455.106 406.3 450.677 406.3C446.248 406.3 443.009 409.671 443.009 414.634C443.009 419.597 446.186 423.029 450.677 423.029C455.168 423.029 458.214 419.588 458.214 414.634Z" fill="#F27B6D"/>
<path d="M504.425 417.409H480.886C481.087 421.576 483.862 423.825 488.362 423.825C491.469 423.825 493.456 422.967 494.314 420.98H504.232C503.243 427.265 496.827 431.432 488.362 431.432C477.516 431.432 470.837 425.278 470.837 414.634C470.837 403.989 477.647 397.836 488.029 397.836C498.411 397.836 504.696 403.989 504.696 412.979C504.696 414.634 504.626 415.623 504.433 417.409H504.425ZM494.708 411.124C494.638 406.896 492.266 404.646 487.968 404.646C483.67 404.646 480.956 407.228 480.895 411.124H494.717H494.708Z" fill="#F27B6D"/>
<path d="M507.996 430.574V398.702H518.115V405.381C519.236 400.619 522.851 398.728 526.755 398.728C527.946 398.728 529.924 398.702 529.924 398.702L530.003 407.675C530.003 407.675 527.771 407.622 526.519 407.622C521.03 407.622 518.124 411.194 518.124 418.267V430.566H508.005L507.996 430.574Z" fill="#F27B6D"/>
<path d="M550.793 422.503V430.574C549.34 430.837 546.959 431.1 544.052 431.1C539.29 431.1 532.743 430.04 532.743 419.396V406.703V398.702V390.964L542.862 385.204V398.702H550.066L549.952 407.85H542.748L542.862 417.286C542.862 421.978 544.779 422.705 547.291 422.705C548.412 422.705 549.874 422.635 550.793 422.503V422.503Z" fill="#F27B6D"/>
<path d="M556.237 437.682L564.168 433.087C564.37 435.8 565.884 437.385 569.727 437.385C573.57 437.385 575.881 435.205 575.881 430.242V425.278C574.095 428.648 570.593 430.566 565.761 430.566C557.629 430.566 553.988 425.147 553.988 417.207V398.693H564.107V415.684C564.107 419.781 565.499 422.565 569.727 422.565C573.955 422.565 575.881 419.387 575.881 414.494V398.693H586V429.576C586 434.732 584.144 438.636 581.439 441.079C578.594 443.521 575.093 444.781 569.736 444.781C564.378 444.781 560.614 443.661 557.962 441.473C556.903 440.562 555.992 439.442 555.31 438.172L556.237 437.673V437.682Z" fill="#F27B6D"/>
<path d="M355.245 315.219H347.892V323.963H355.245V349.874C355.245 354.435 353.196 357.543 348.96 357.543C344.723 357.543 342.806 354.365 342.806 349.612H332.091C332.091 359.53 337.781 366.734 348.951 366.734C359.534 366.734 365.88 360.58 365.88 349.209V315.219H355.236H355.245Z" fill="#F27B6D"/>
<path d="M352.137 380.241H343.086L328.695 380.118V388.854L332.433 388.968V430.566H343.147V413.697H352.137C361.722 413.697 368.734 406.686 368.734 396.969C368.734 387.252 361.792 380.241 352.137 380.241V380.241ZM350.483 404.97H343.147V388.968H350.483C354.781 388.968 357.888 392.338 357.888 396.969C357.888 401.6 354.781 404.97 350.483 404.97Z" fill="#F27B6D"/>
</svg>
